<?xml version="1.0" encoding="utf-8"?>
<!-- Generator: Adobe Illustrator 26.0.1, SVG Export Plug-In . SVG Version: 6.00 Build 0)  -->
<svg version="1.1" id="Layer_1" xmlns="http://www.w3.org/2000/svg" xmlns:xlink="http://www.w3.org/1999/xlink" x="0px" y="0px"
	 viewBox="0 0 612 792" style="enable-background:new 0 0 612 792;" xml:space="preserve">
<style type="text/css">
	.st0{display:none;fill:#010101;}
	.st1{display:none;fill:#FEFEFE;}
	.st2{fill:#E5E5E5;}
	.st3{fill:#F8270F;}
	.st4{fill:#F7260F;}
	.st5{fill:#C01307;}
	.st6{fill:#C01306;}
	.st7{fill:#BF1307;}
	.st8{display:none;fill:#010000;}
	.st9{fill:#BC1307;}
	.st10{fill:#F0220D;}
	.st11{fill:#F1230D;}
	.st12{fill:#F1230E;}
	.st13{fill:#F2230E;}
	.st14{display:none;fill:#090000;}
</style>
<g>
	<path class="st0" d="M0,640.5c0-163.2,0-326.3,0-489.5c203.7,0,407.4,0,611.1,0c0,163.2,0,326.3,0,489.5
		C407.4,640.5,203.7,640.5,0,640.5z M225.1,280.6c-0.9-1.4-1.7-2.8-2.7-4.3c1-0.7,2-1.4,2.9-2.2c2.5-2,4.9-4.2,4.7-7.8
		c-0.5-8.3-8.1-12.8-15.1-8.4c-9.9,6.2-19.5,12.9-29.1,19.6c-4.9,3.4-5.3,7.3-2.3,12.4c3,5.1,7.4,6.4,12.7,3.6
		c1.4-0.7,2.7-1.6,4.2-2.4c1.2,1.6,2.3,3.1,3.4,4.6c0.7,1.4,1.4,2.7,2.1,4.1c-14.8,12.8-26.7,28-35.5,45.4
		c-13.1,26-18.4,53.6-15.7,82.7c1.5,16.4,5.6,32.1,12.3,47.1c10,22.5,24.6,41.5,43.8,56.9c14.2,11.4,30,20,47.3,25.7
		c16.6,5.5,33.7,8,51.3,7.5c10.8-0.3,21.4-1.6,31.8-4.2c25.5-6.3,48-18.2,67.3-36.1c17.3-16,30-35,38.5-56.9
		c5.3-13.7,8.5-28,9.6-42.6c0.8-9.7,0.5-19.4-0.7-29.1c-1.8-14.8-5.6-29-11.5-42.6c-6.8-15.7-16-29.9-27.8-42.4
		c-3.9-4.2-8.1-8.1-12.2-12.1c0.8-1.1,1.6-2.1,2.4-3.2c1.2-1.7,2.4-3.4,3.7-5.2c1.7,1,3.3,2.1,5,2.8c3,1.4,6,1.7,8.7-0.6
		c4.8-4,7.9-10.8,0.8-16.1c-2.2-1.7-4.5-3.3-6.9-4.8c-7.7-5.1-15.3-10.3-23.1-15.1c-4.7-2.9-8.9-1.5-12,3.3c-3.1,4.7-2.7,9,1.4,12.5
		c1.3,1.1,2.7,2.1,4,3.2c-1.2,2.1-2.3,4.1-3.4,6c-0.9,0.6-1.8,1.2-2.7,1.7c-18.1-10.8-37.6-17.3-58.5-19.9c0-1.2,0-2.4,0-3.6
		c0.2-2.3,0.3-4.6,0.5-7c0.8,0,1.5,0,2.2,0c1.9-0.1,3.8-0.1,5.6-0.4c6.5-1.2,10.4-3.7,10.9-12.1c0.5-8.7-2.6-14.5-12.1-14.8
		c-17.1-0.5-34.1-0.2-51.2,0c-2.5,0-5.2,1.1-7.4,2.4c-4,2.3-4.8,6.5-4.8,10.6c0,8.3,3.2,13.3,12.4,14.1c2.2,0.2,4.3,0.3,6.5,0.4
		c0.2,2.4,0.3,4.6,0.5,6.8c0,1.2,0,2.4,0,3.6c-21.2,2.6-41,9.3-59.3,20.4c-0.8-0.7-1.5-1.5-2.3-2.2c0-0.2,0-0.3-0.1-0.4
		C225.3,281,225.2,280.8,225.1,280.6z M546.5,398.3c-0.1-18-1.5-32.7-4.2-47.3c-3.9-20.7-10.3-40.6-19.4-59.6
		c-4.4-9.2-9.9-17.8-15.1-26.5c-1.5-2.6-3.9-4.9-7.1-5.2c-6.2-0.5-13.4,5.9-10.8,13.1c1.1,3.2,2.7,6.2,4.4,9.1
		c18.2,30.6,28.4,63.8,31,99.3c1.7,23.7-0.6,47.2-6.7,70.2c-12,44.9-35.5,82.8-71.2,112.6c-45,37.5-97,54.4-155.5,51.3
		c-19-1-37.6-4.6-55.6-10.8c-55.5-19-97.3-54.4-125.2-106c-13.2-24.5-21.1-50.8-24.2-78.4c-2-18.1-1.7-36.2,0.7-54.2
		c3.1-22.3,9.3-43.6,19-63.9c17.4-36.6,42.9-66.3,76.6-88.8c32.1-21.5,67.5-33.6,106-36.6c18.9-1.5,37.7-0.4,56.4,3
		c35.4,6.6,67.2,21.1,95.9,42.8c4.9,3.7,9.5,7.9,14.5,11.7c4.9,3.7,9.4,3.5,13.7-0.5c3.6-3.3,5.1-7.4,1.7-11.8
		c-1.7-2.2-3.6-4.3-5.7-6.1c-13.5-12.4-28.7-22.4-44.7-31.1c-32.6-17.7-67.6-27.5-104.7-29.1c-30.1-1.4-59.5,2.8-88.1,12.6
		c-44.5,15.2-81.6,41.1-110.8,77.8c-31.7,39.8-49,85.2-52.2,136c-1.9,30.5,2,60.4,11.7,89.4c15,45.1,41,82.7,78.1,112.4
		c36.7,29.4,78.7,46.6,125.6,51.6c23.7,2.6,47.3,1.6,70.6-2.9c30.1-5.8,58.2-16.9,84-33.4c34.2-21.9,61.3-50.5,81.1-86
		C536.4,476.3,546.4,437,546.5,398.3z"/>
	<path class="st1" d="M0,640.5c203.7,0,407.4,0,611.1,0c-0.1,0.2-0.1,0.4-0.2,0.4c-0.6,0-1.2,0-1.8,0c-202.3,0-404.7,0-607,0
		C1.4,641,0.7,640.7,0,640.5z"/>
	<path class="st2" d="M610,399.2c-0.2,48.8-12.7,98.4-38.4,144.5c-24.9,44.8-59.2,81-102.4,108.6c-32.7,20.9-68.1,34.9-106.1,42.2
		c-29.5,5.7-59.3,6.9-89.2,3.7c-59.2-6.4-112.2-28-158.6-65.2c-46.8-37.5-79.6-85-98.6-142C4.6,454.4-0.4,416.7,2,378.1
		c4-64.1,25.9-121.5,65.9-171.7c37-46.3,83.8-79,140-98.2c36-12.3,73.2-17.6,111.2-15.9c46.8,2.1,90.9,14.4,132.2,36.8
		c20.3,11,39.4,23.6,56.5,39.2c2.6,2.4,5,5,7.1,7.8c4.3,5.6,2.4,10.8-2.2,14.9c-5.5,5-11.2,5.3-17.3,0.6c-6.3-4.7-12-10-18.3-14.7
		c-36.2-27.4-76.3-45.7-121.1-54c-23.6-4.4-47.4-5.7-71.3-3.8c-48.6,3.8-93.3,19.1-133.9,46.3c-42.5,28.5-74.7,66-96.7,112.2
		c-12.2,25.6-20.1,52.6-24,80.7c-3.1,22.8-3.5,45.6-0.9,68.5c3.9,34.9,13.9,68.1,30.6,99c35.2,65.2,88,109.8,158.1,133.8
		c22.7,7.8,46.2,12.3,70.2,13.6c73.9,4,139.6-17.4,196.4-64.7c45.1-37.6,74.9-85.4,90-142.2c7.7-29.1,10.6-58.7,8.4-88.7
		c-3.2-44.8-16.1-86.7-39.1-125.3c-2.2-3.7-4.1-7.5-5.5-11.5c-3.3-9,5.9-17.1,13.7-16.5c4,0.3,7,3.2,9,6.5c6.5,11.1,13.5,22,19,33.5
		c11.5,24,19.6,49.1,24.6,75.3C608.2,357.9,609.9,376.5,610,399.2z"/>
	<path class="st3" d="M329,228.9c26.4,3.3,51,11.5,73.9,25.1c5.7,3.9,11.5,7.7,17.2,11.6c3.6,2.5,7.1,5.3,10.7,7.9
		c5.1,5.1,10.4,10.1,15.4,15.3c14.9,15.8,26.4,33.7,35.1,53.6c7.5,17.2,12.3,35.2,14.5,53.8c1.5,12.3,1.8,24.5,0.8,36.8
		c-1.5,18.5-5.4,36.5-12.2,53.8c-10.7,27.7-26.9,51.6-48.6,71.8c-24.4,22.6-52.8,37.7-85,45.6c-13.2,3.2-26.6,4.9-40.2,5.3
		c-22.2,0.6-43.7-2.6-64.7-9.5c-21.9-7.2-41.8-18-59.8-32.4c-24.2-19.5-42.7-43.4-55.3-71.8c-8.4-19-13.6-38.8-15.5-59.4
		c-3.4-36.7,3.3-71.6,19.8-104.4c11.1-22,26-41.2,44.8-57.4c9.2-6.7,18.5-13.4,27.7-20.1c23.1-13.9,48.1-22.4,74.9-25.7
		c4.9-0.4,9.8-1.1,14.7-1C307.8,228,318.4,228.5,329,228.9z M467,416.9c-0.9-87.8-71.4-158.7-160.8-159.2
		c-44.1-0.3-82.4,15.6-113.8,46.8c-31.5,31.2-47.5,69.5-47.7,113.7c-0.2,43.9,15.5,82.2,46.6,113.6c31.4,31.7,69.9,47.7,114.3,47.8
		c43.9,0.1,82.3-15.6,113.6-46.8C450.7,501.4,466,463,467,416.9z"/>
	<path class="st4" d="M282.5,224.3c-0.2-2.8-0.4-5.6-0.6-8.6c-2.8-0.2-5.5-0.3-8.2-0.5c-11.6-1-15.6-7.3-15.6-17.8
		c0-5.2,1-10.5,6-13.4c2.8-1.6,6.2-2.9,9.4-3c21.5-0.3,43.1-0.5,64.7,0c12.1,0.3,15.9,7.7,15.3,18.7c-0.6,10.6-5.6,13.9-13.8,15.3
		c-2.3,0.4-4.8,0.4-7.1,0.5c-0.8,0-1.7,0-2.8,0c-0.2,3.1-0.4,5.9-0.7,8.8c-6.3-0.4-12.6-1.1-19-1.1
		C300.8,223.3,291.7,223.9,282.5,224.3z"/>
	<path class="st4" d="M406.3,251.8c1.4-2.4,2.8-4.9,4.4-7.6c-1.7-1.3-3.4-2.6-5.1-4c-5.2-4.4-5.8-9.8-1.8-15.8c4-6,9.3-7.7,15.2-4.1
		c9.9,6.1,19.5,12.7,29.2,19.1c2.9,1.9,5.8,4,8.7,6.1c9,6.7,5.1,15.3-1,20.3c-3.5,2.9-7.3,2.4-11,0.7c-2.1-1-4.1-2.3-6.3-3.6
		c-1.6,2.3-3.2,4.4-4.7,6.5c-1.1-0.7-2.3-1.2-3.4-2C422.3,262.3,414.3,257,406.3,251.8z"/>
	<path class="st4" d="M177.2,269.5c-1.4-1.9-2.8-3.8-4.3-5.8c-1.8,1.1-3.5,2.2-5.3,3.1c-6.7,3.5-12.2,1.8-16-4.6
		c-3.8-6.5-3.3-11.3,2.9-15.6c12-8.5,24.2-16.9,36.7-24.8c8.8-5.5,18.4,0.2,19,10.6c0.3,4.5-2.7,7.3-5.9,9.9
		c-1.2,0.9-2.4,1.8-3.7,2.7c1.2,2,2.3,3.7,3.4,5.5c0.1,0.2,0.3,0.5,0.4,0.7c0.1,0.2,0.1,0.3,0.1,0.5c-5.8,3.6-11.7,7.1-17.4,10.8
		C183.8,264.8,180.6,267.2,177.2,269.5z"/>
	<path class="st5" d="M282.5,224.3c9.2-0.4,18.3-1,27.5-1.1c6.3,0,12.6,0.7,19,1.1c0,1.5,0,3,0,4.5c-10.6-0.4-21.2-0.9-31.9-1
		c-4.9-0.1-9.8,0.7-14.7,1C282.5,227.3,282.5,225.8,282.5,224.3z"/>
	<path class="st6" d="M177.2,269.5c3.3-2.3,6.6-4.7,10-6.9c5.8-3.7,11.6-7.2,17.4-10.8c1,0.9,1.9,1.9,2.9,2.8
		c-9.2,6.7-18.5,13.4-27.7,20.1C179,272.9,178.1,271.2,177.2,269.5z"/>
	<path class="st5" d="M406.3,251.8c8,5.3,16.1,10.5,24.1,15.8c1.1,0.7,2.2,1.3,3.4,2c-1,1.3-2,2.7-3,4c-3.6-2.7-7-5.4-10.7-7.9
		c-5.7-4-11.5-7.8-17.2-11.6C404,253.2,405.1,252.5,406.3,251.8z"/>
	<path class="st6" d="M204.6,251.2c-0.1-0.2-0.3-0.5-0.4-0.7C204.3,250.7,204.4,251,204.6,251.2z"/>
	<path class="st7" d="M467,416.9c-0.9,46.1-16.3,84.4-47.8,115.8c-31.3,31.1-69.6,46.8-113.6,46.8c-44.4-0.1-82.9-16.1-114.3-47.8
		c-31-31.4-46.8-69.6-46.6-113.6c0.2-44.1,16.1-82.4,47.7-113.7c31.4-31.1,69.8-47,113.8-46.8C395.6,258.2,466.1,329.1,467,416.9z
		 M305.6,567.3c81.2,0.2,149.2-64.9,149.1-148.9c-0.1-81.8-65.1-148.3-148.6-148.6c-82.4-0.2-149,65.2-149.2,148.5
		C156.6,501.3,223.4,567.2,305.6,567.3z"/>
	<path class="st8" d="M305.4,531.5c-65-0.1-118-52.3-117.8-118c0.2-66,52.9-117.8,118.2-117.6c66.1,0.2,117.6,52.9,117.7,117.7
		C423.5,480.1,369.7,531.6,305.4,531.5z M243.7,427.1c-0.1-0.2-0.2-0.4-0.3-0.5c0.8-0.7,1.6-1.5,2.5-2.2c2.7-2,5.5-4,8.2-6
		c3.9-3,7.7-6.1,10.2-10.5c5.5-9.8,0.8-21.3-10.1-24.1c-6.8-1.7-13.8-1.7-20.7-0.1c-7.8,1.9-13.7,10.2-12.7,17.5
		c5.2,0.4,10.4,0.8,15.6,1.3c0.6-1.8,1-3.5,1.7-5.1c1.5-3.2,5.5-4.3,8.8-2.7c3,1.5,4.2,5.1,2.4,8.1c-1,1.8-2.4,3.5-4,4.8
		c-4.9,4.2-10,8-14.9,12.2c-4.8,4.2-8.5,9.2-10.2,15.5c-0.4,1.5-0.6,3.2-1,4.9c16,0,31.6,0,47.3,0c0-4.4,0-8.7,0-13.1
		C258.9,427.1,251.3,427.1,243.7,427.1z M313.9,417.1c0-11.7,0-23,0-34.5c-4.6,0-8.9-0.1-13.2,0.1c-0.7,0-1.5,0.7-2,1.2
		c-8.8,10.4-17.5,20.8-26.3,31.2c-0.5,0.6-1.1,1.2-1.1,1.9c-0.1,4.2-0.1,8.4-0.1,12.9c9.5,0,18.9,0,28.4,0c0,3.6,0,6.9,0,10.2
		c4.9,0,9.5,0,14.3,0c0-3.5,0-6.8,0-10.3c2.4,0,4.6,0,6.9,0c0-4.3,0-8.4,0-12.6C318.6,417.1,316.4,417.1,313.9,417.1z M393.5,383.8
		c-0.4-0.2-0.6-0.2-0.7-0.2c-14.7,0-29.3,0-44-0.1c-1.4,0-1.6,0.7-1.6,1.8c0,3.2,0.1,6.3,0,9.5c-0.1,2,0.5,2.6,2.5,2.6
		c7.3-0.1,14.5,0,21.8-0.1c0.8,0,1.6,0,3.2,0c-10.7,12.8-16.4,26.8-17.8,42.7c5.4,0,10.7,0,16,0c0.2-1.2,0.3-2.2,0.4-3.2
		c1.7-15.9,7.2-30,19-41.2c0.5-0.5,1.1-1.2,1.1-1.8C393.5,390.5,393.5,387.2,393.5,383.8z M322.1,441.1c2.2,0,4.1-0.2,6,0
		c2,0.2,2.6-0.6,3-2.4c3.7-15.5,7.5-31.1,11.3-46.6c0.7-3,1.4-6.1,2.2-9.5c-2.4,0-4.4,0.1-6.4,0c-1.5-0.1-2.1,0.5-2.4,2
		c-2.4,10-4.8,19.9-7.2,29.9C326.4,423.2,324.3,431.9,322.1,441.1z M199.7,406.7c-3.7,0-6.8,3.2-6.8,6.8c0,3.6,3.2,6.7,6.9,6.7
		c3.7,0,6.7-3,6.7-6.8C206.5,409.6,203.5,406.7,199.7,406.7z M312.6,307.1c0-3.8-3.1-6.9-6.7-6.8c-3.6,0.1-6.8,3.2-6.8,6.8
		c0,3.7,3,6.7,6.8,6.7C309.7,313.8,312.6,310.9,312.6,307.1z M404.6,413.7c0,3.8,2.8,6.8,6.5,6.9c3.7,0.1,6.8-2.9,6.8-6.7
		c0.1-3.8-2.8-6.8-6.5-6.8C407.6,407.1,404.6,409.9,404.6,413.7z M312.7,520.8c0-3.8-3-6.7-6.7-6.7c-3.7,0-6.7,3-6.6,6.8
		c0,3.8,3,6.8,6.7,6.7C309.8,527.6,312.7,524.6,312.7,520.8z M403.6,466.8c0-2.4-2.2-4.6-4.6-4.7c-2.6,0-4.8,2.2-4.7,4.8
		c0,2.5,2.2,4.6,4.7,4.5C401.5,471.4,403.6,469.3,403.6,466.8z M257.5,506.3c0.1-2.5-2-4.6-4.5-4.7c-2.5-0.1-4.7,1.9-4.8,4.5
		c-0.1,2.6,2,4.8,4.6,4.8C255.3,510.9,257.4,508.8,257.5,506.3z M364.7,321.4c0-2.5-2-4.6-4.6-4.7c-2.6-0.1-4.8,2.1-4.8,4.7
		c0,2.4,2.2,4.6,4.7,4.6C362.4,326,364.6,323.9,364.7,321.4z M218.1,467.5c0-2.5-2.1-4.6-4.6-4.6c-2.6,0-4.6,1.9-4.7,4.5
		c-0.1,2.5,1.9,4.7,4.5,4.7C215.8,472.2,218,470.1,218.1,467.5z M257.7,321.3c0-2.5-2-4.7-4.4-4.8c-2.6-0.1-4.7,2-4.7,4.7
		c0,2.6,2,4.6,4.5,4.6C255.6,325.9,257.6,323.9,257.7,321.3z M399.1,364.5c2.6,0,4.6-2,4.6-4.6c0-2.6-2.1-4.6-4.8-4.6
		c-2.5,0.1-4.6,2.1-4.5,4.7C394.5,362.5,396.6,364.6,399.1,364.5z M217.8,360.5c0-2.6-2-4.5-4.6-4.5c-2.7,0-4.6,2-4.6,4.8
		c0.1,2.5,2.1,4.5,4.7,4.5C215.8,365.1,217.8,363.1,217.8,360.5z M359.3,500.9c-2.7,0-4.6,1.9-4.6,4.5c0,2.7,2,4.7,4.7,4.6
		c2.6-0.1,4.5-2,4.4-4.7C363.9,502.7,361.9,500.9,359.3,500.9z"/>
	<path class="st4" d="M227.6,435.5c9.6,0,19.2,0,29,0c0,5.6,0,10.9,0,16.5c-19.8,0-39.5,0-59.8,0c0.4-2.2,0.7-4.2,1.2-6.2
		c2.2-7.9,6.8-14.3,12.9-19.5c6.1-5.3,12.6-10.2,18.8-15.4c2-1.7,3.8-3.8,5.1-6.1c2.2-3.9,0.7-8.4-3.1-10.3
		c-4.1-2.1-9.2-0.6-11.1,3.4c-0.9,1.9-1.4,4.1-2.2,6.4c-6.6-0.5-13.2-1.1-19.8-1.6c-1.3-9.3,6.2-19.7,16-22.1
		c8.6-2.1,17.5-2.1,26.1,0.1c13.7,3.5,19.6,18,12.7,30.4c-3.1,5.6-7.9,9.5-12.8,13.3c-3.4,2.6-7,5-10.4,7.6
		c-1.1,0.8-2.1,1.8-3.1,2.8C227.4,435.1,227.5,435.3,227.6,435.5z"/>
	<path class="st4" d="M316.2,423c3.3,0,6,0,8.9,0c0,5.3,0,10.4,0,15.9c-2.9,0-5.7,0-8.7,0c0,4.5,0,8.7,0,13.1c-6.1,0-11.9,0-18.1,0
		c0-4.2,0-8.4,0-12.9c-12,0-23.8,0-35.9,0c0-5.7-0.1-11,0.1-16.3c0-0.8,0.8-1.7,1.4-2.4c11-13.1,22.1-26.3,33.2-39.3
		c0.6-0.7,1.6-1.5,2.5-1.6c5.4-0.1,10.8-0.1,16.6-0.1C316.2,393.9,316.2,408.2,316.2,423z M298.2,402.3c-5.9,7-11.5,13.5-17.4,20.5
		c6.1,0,11.7,0,17.4,0C298.2,416.1,298.2,409.5,298.2,402.3z"/>
	<path class="st4" d="M416.8,380.9c0,4.3,0.1,8.4-0.1,12.6c0,0.8-0.8,1.7-1.4,2.3c-14.8,14.2-21.9,32-24,52.1
		c-0.1,1.3-0.4,2.6-0.6,4.1c-6.8,0-13.4,0-20.2,0c1.9-20.1,9-37.8,22.5-54c-2.1,0-3.1,0-4.1,0c-9.2,0-18.3-0.1-27.5,0.1
		c-2.5,0-3.3-0.7-3.2-3.3c0.2-4,0.1-8,0-12c0-1.4,0.2-2.3,2-2.3c18.5,0.1,37,0.1,55.6,0.1C416,380.6,416.2,380.7,416.8,380.9z"/>
	<path class="st9" d="M326.6,453.2c2.8-11.6,5.5-22.6,8.1-33.6c3-12.6,6.1-25.2,9.1-37.8c0.4-1.8,1.1-2.6,3-2.5c2.5,0.1,5.1,0,8.1,0
		c-1,4.3-1.8,8.1-2.8,12c-4.8,19.6-9.6,39.2-14.3,58.8c-0.5,2.2-1.3,3.3-3.8,3C331.8,453,329.4,453.2,326.6,453.2z"/>
	<path class="st9" d="M172.2,409.8c4.8,0,8.5,3.7,8.5,8.5c0,4.8-3.7,8.6-8.4,8.6c-4.6,0-8.6-4-8.7-8.5
		C163.6,413.7,167.5,409.8,172.2,409.8z"/>
	<path class="st9" d="M314.7,284c0,4.8-3.7,8.5-8.5,8.5c-4.8,0-8.6-3.8-8.6-8.5c0-4.6,4-8.6,8.6-8.6
		C310.8,275.3,314.6,279.2,314.7,284z"/>
	<path class="st9" d="M430.8,418.6c0.1-4.8,3.8-8.4,8.6-8.3c4.7,0.1,8.3,3.8,8.3,8.6c-0.1,4.8-3.9,8.6-8.6,8.4
		C434.3,427.2,430.7,423.4,430.8,418.6z"/>
	<path class="st9" d="M314.7,553.9c0,4.8-3.7,8.6-8.4,8.6c-4.7,0-8.4-3.7-8.5-8.5c0-4.8,3.7-8.5,8.4-8.6
		C311,545.4,314.7,549.1,314.7,553.9z"/>
	<path class="st10" d="M429.6,485.6c0,3.1-2.7,5.8-5.9,5.9c-3.1,0-5.9-2.6-6-5.7c-0.1-3.3,2.7-6.1,6-6
		C426.8,479.8,429.7,482.6,429.6,485.6z"/>
	<path class="st11" d="M245,535.6c-0.1,3.2-2.8,5.8-5.9,5.8c-3.3,0-5.9-2.8-5.8-6.1c0.1-3.2,2.9-5.8,6-5.6
		C242.5,529.7,245.1,532.5,245,535.6z"/>
	<path class="st10" d="M380.4,302.1c0,3.1-2.8,5.8-5.9,5.7c-3.1,0-5.9-2.7-5.9-5.8c0-3.3,2.8-6,6.1-5.9
		C377.9,296.3,380.5,299,380.4,302.1z"/>
	<path class="st11" d="M195.3,486.6c0,3.3-2.8,5.9-6.1,5.8c-3.2-0.1-5.7-2.8-5.6-6c0.1-3.2,2.7-5.7,6-5.6
		C192.7,480.8,195.3,483.5,195.3,486.6z"/>
	<path class="st12" d="M245.3,302c-0.1,3.2-2.7,5.8-5.8,5.8c-3.2,0-5.7-2.6-5.7-5.9c0-3.4,2.7-6.1,6-5.9
		C242.8,296.1,245.4,298.8,245.3,302z"/>
	<path class="st12" d="M423.9,356.5c-3.2,0-5.9-2.5-6-5.6c-0.1-3.2,2.5-5.8,5.7-5.9c3.4-0.1,6.1,2.4,6.1,5.8
		C429.7,354,427.2,356.5,423.9,356.5z"/>
	<path class="st13" d="M194.9,351.4c0,3.3-2.4,5.9-5.6,5.9c-3.2,0.1-5.8-2.4-5.9-5.6c-0.1-3.5,2.4-6.1,5.8-6
		C192.4,345.7,194.9,348.2,194.9,351.4z"/>
	<path class="st11" d="M373.6,528.7c3.3,0,5.7,2.3,5.8,5.7c0.1,3.3-2.3,5.8-5.6,5.9c-3.4,0.1-6-2.4-5.9-5.8
		C367.9,531.1,370.3,528.7,373.6,528.7z"/>
	<path class="st14" d="M299.6,400.8c0,5.7,0,10.9,0,16.2c-4.5,0-8.9,0-13.8,0C290.4,411.5,294.9,406.3,299.6,400.8z"/>
</g>
</svg>
