<?xml version="1.0" encoding="utf-8"?>
<!-- Generator: Adobe Illustrator 26.0.1, SVG Export Plug-In . SVG Version: 6.00 Build 0)  -->
<svg version="1.1" id="Layer_1" xmlns="http://www.w3.org/2000/svg" xmlns:xlink="http://www.w3.org/1999/xlink" x="0px" y="0px"
	 viewBox="0 0 612 792" style="enable-background:new 0 0 612 792;" xml:space="preserve">
<style type="text/css">
	.st0{display:none;}
	.st1{fill:#FEFEFE;}
	.st2{fill:#6A6A6A;}
	.st3{fill:#6A6A69;}
</style>
<g>
	<path class="st0" d="M0.7,652.1c0-170.7,0-341.4,0-512.1c203.6,0,407.2,0,610.8,0c0,170.7,0,341.3,0,512.1
		C407.7,652.1,204.2,652.1,0.7,652.1z M148.4,396c83.6,83.6,166.8,166.8,250.5,250.5c4.9-5.1,9.9-10.4,15.1-15.6
		c13.7-13.8,27.5-27.6,41.3-41.4c1.7-1.7,1.8-2.5,0.1-4.3c-51-50.9-101.9-101.9-152.9-152.8c-30.9-30.9-61.8-61.8-92.7-92.7
		c-2.5-2.5-2.5-2.5-5.1,0c-12.1,12.1-24.1,24.1-36.2,36.2C161.7,382.8,154.9,389.5,148.4,396z M399.1,144.8
		c-60.8,60.8-121.3,121.3-181.9,181.9c0.3,0.3,0.8,0.9,1.4,1.5c18.2,18.2,36.3,36.3,54.5,54.5c3.1,3.1,3.1,3.1,6.3-0.1
		c16.7-16.7,33.4-33.4,50.1-50.1c7.1-7.1,14-14.3,21.1-21.4c6.5-6.5,13.1-12.8,19.5-19.2c16.4-16.4,32.7-32.9,49.1-49.4
		c5.6-5.6,11.3-11.1,17-16.6c6.6-6.5,13.1-13.1,19.7-19.7c2.2-2.2,2.2-2.3,0-4.5c-13-13-26-26-39.1-39.1
		C410.8,156.7,404.9,150.7,399.1,144.8z"/>
	<path class="st1" d="M0.7,652.1c203.5,0,407,0,610.8,0c0-170.8,0-341.4,0-512.1c0.2,0.1,0.4,0.1,0.5,0.2c0,0.6,0,1.3,0,1.9
		c0,170.1,0,340.2,0,510.5c-1.3,0-2.6,0-3.9,0c-201.7,0-403.5,0-605.2,0C2.1,652.6,1.4,652.3,0.7,652.1z"/>
	<path class="st2" d="M148.4,396c6.6-6.5,13.4-13.3,20.1-20c12.1-12.1,24.1-24.1,36.2-36.2c2.5-2.5,2.6-2.6,5.1,0
		c30.9,30.9,61.8,61.8,92.7,92.7c51,51,101.9,101.9,152.9,152.8c1.8,1.8,1.6,2.6-0.1,4.3c-13.8,13.7-27.6,27.5-41.3,41.4
		c-5.2,5.2-10.2,10.5-15.1,15.6C315.2,562.9,231.9,479.6,148.4,396z"/>
	<path class="st3" d="M399.1,144.8c5.8,5.8,11.8,11.9,17.7,17.8c13,13,26,26,39.1,39.1c2.2,2.2,2.2,2.2,0,4.5
		c-6.6,6.6-13.1,13.2-19.7,19.7c-5.6,5.6-11.4,11-17,16.6c-16.4,16.4-32.7,32.9-49.1,49.4c-6.5,6.5-13.1,12.8-19.5,19.2
		c-7.1,7.1-14,14.3-21.1,21.4c-16.7,16.7-33.4,33.4-50.1,50.1c-3.2,3.2-3.2,3.2-6.3,0.1c-18.2-18.2-36.3-36.3-54.5-54.5
		c-0.6-0.6-1.1-1.1-1.4-1.5C277.8,266.1,338.3,205.6,399.1,144.8z"/>
</g>
</svg>
