<?xml version="1.0" encoding="utf-8"?>
<!-- Generator: Adobe Illustrator 26.0.1, SVG Export Plug-In . SVG Version: 6.00 Build 0)  -->
<svg version="1.1" id="Layer_1" xmlns="http://www.w3.org/2000/svg" xmlns:xlink="http://www.w3.org/1999/xlink" x="0px" y="0px"
	 viewBox="0 0 612 792" style="enable-background:new 0 0 612 792;" xml:space="preserve">
<style type="text/css">
	.st0{display:none;}
	.st1{fill:#FFFFFF;}
</style>
<g>
	<path class="st0" d="M612,139.5c0,171,0,342.1,0,513.1c-204,0-408,0-612,0c0-171,0-342,0-513.1C204.2,139.5,408.1,139.5,612,139.5z
		 M407.1,454.5c19.7-19.7,39.5-39.4,59.3-59.1C383,312,299.5,228.5,216.1,145.1c-19.8,19.7-39.6,39.5-59.3,59.2
		C240.3,287.7,323.8,371.2,407.1,454.5z M156.2,588.5c19.9,19.9,39.7,39.7,59.3,59.3c60.6-60.6,121.3-121.3,181.7-181.7
		c-19.7-19.7-39.5-39.6-59.2-59.3C277.5,467.3,216.8,527.9,156.2,588.5z"/>
	<path class="st1" d="M612,139.5c-203.9,0-407.8,0-612,0c0,171.1,0,342.1,0,513.1c-0.2-0.1-0.4-0.1-0.5-0.2c0-0.6,0-1.3,0-1.9
		c0-170.4,0-340.9,0-511.4c1.4,0,2.8,0,4.2,0c202.1,0,404.1,0,606.2,0C610.6,139,611.3,139.3,612,139.5z"/>
	<path class="st1" d="M407.1,454.5c-83.3-83.3-166.8-166.8-250.3-250.2c19.7-19.7,39.5-39.4,59.3-59.2
		C299.5,228.5,383,312,466.4,395.4C446.6,415.1,426.8,434.8,407.1,454.5z"/>
	<path class="st1" d="M156.2,588.5c60.6-60.5,121.3-121.2,181.8-181.7c19.7,19.7,39.5,39.6,59.2,59.3
		c-60.3,60.3-121,121-181.7,181.7C195.9,628.2,176.1,608.3,156.2,588.5z"/>
</g>
</svg>
