<?xml version="1.0" encoding="utf-8"?>
<!-- Generator: Adobe Illustrator 26.0.1, SVG Export Plug-In . SVG Version: 6.00 Build 0)  -->
<svg version="1.1" id="Layer_1" xmlns="http://www.w3.org/2000/svg" xmlns:xlink="http://www.w3.org/1999/xlink" x="0px" y="0px"
	 viewBox="0 0 612 792" style="enable-background:new 0 0 612 792;" xml:space="preserve">
<style type="text/css">
	.st0{display:none;}
	.st1{fill:#FEFEFE;}
	.st2{fill:#6A6A6A;}
	.st3{fill:#666666;}
	.st4{fill:#6B6B6B;}
	.st5{fill:#595959;}
	.st6{fill:#6B6B6A;}
	.st7{fill:#515050;}
</style>
<g>
	<path class="st0" d="M612.5,139.9c0,171,0,342.1,0,513.1c-204.2,0-408.3,0-612.5,0c0-171,0-342.1,0-513.1
		C204.2,139.9,408.3,139.9,612.5,139.9z M406.3,371.1c-0.6,0.5-1.1,1.1-1.7,1.6c-0.2,0.3-0.5,0.6-0.7,0.9c-0.3,0.2-0.7,0.3-1,0.6
		c-8.6,8.3-17.2,16.6-25.8,24.9c-7.7,7.5-15.3,15.1-23,22.6c-12.8,12.5-25.6,25-38.4,37.5c-0.2,0.1-0.3,0.3-0.5,0.4
		c-0.2,0.2-0.3,0.4-0.5,0.6c-0.8,0.8-1.6,1.5-2.4,2.3c-0.6,0.6-1.3,1.3-1.9,1.9c-12.3-12-24.7-24.1-37-36.1
		c-13.3-12.9-26.5-25.8-39.8-38.7c-12.9-12.6-25.9-25.2-38.8-37.8c-24.1-23.4-48.2-46.8-72.2-70.2c-13.9-13.5-27.7-27.1-41.6-40.7
		c-1.4-1.3-2.2-1.5-3.6,0c-15.4,15.4-30.8,30.8-46.2,46.2c-0.9,0.9-2,1.7-2.9,2.4c94,91.6,187.5,182.7,281.2,273.9
		c5.5-5.5,10.9-10.7,16.2-16c0.3-0.3,0.6-0.6,0.9-0.9c0.3-0.3,0.7-0.6,1-0.9c3.3-3.3,6.7-6.6,10-9.9c0.2-0.2,0.3-0.3,0.5-0.5
		c0.5-0.3,1.1-0.6,1.5-1c6.7-6.5,13.4-13,20.1-19.5c0.7-0.7,1.2-1.5,1.7-2.2c0.7-0.6,1.6-1.1,2.2-1.7c5.4-5.2,10.7-10.4,16-15.6
		c14-13.7,28.1-27.4,42.1-41.1c13.5-13.2,27.1-26.4,40.6-39.6c12.2-12,24.4-23.9,36.6-35.9c0.9-0.9,1.8-2,2.7-2.9
		c0.9-0.7,1.8-1.3,2.6-2.1c6-5.9,11.8-11.8,17.8-17.6c8.4-8.2,16.8-16.2,25.2-24.4c11.2-10.9,22.3-21.8,33.4-32.7
		c2.4-2.3,4.6-4.8,6.9-7.2c-0.1-0.2-0.3-0.5-0.6-0.8c-6.5-6.5-12.9-13-19.4-19.4c-5.1-5.1-10.4-10.1-15.5-15.2
		c-4.1-4.1-8.1-8.2-12.1-12.4c-1.2-1.3-2.2-1.5-3.7-0.1c-10.1,10-20.2,19.9-30.4,29.8c-6.7,6.6-13.4,13.2-20.1,19.8
		c-9.2,8.9-18.5,17.7-27.7,26.6c-10.2,9.9-20.2,19.8-30.3,29.8c-6.5,6.4-12.9,12.8-19.4,19.1c-0.3,0.3-0.6,0.6-1,0.9
		C407.1,370.2,406.7,370.7,406.3,371.1z"/>
	<path class="st1" d="M612.5,139.9c-204.2,0-408.3,0-612.5,0c0.1-0.2,0.2-0.4,0.2-0.5c0.6,0,1.3,0,1.9,0c202.7,0,405.5,0,608.2,0
		C611.1,139.4,611.8,139.7,612.5,139.9z"/>
	<path class="st2" d="M325.7,547.5c-5.3,5.3-10.7,10.5-16.2,16c-93.7-91.3-187.2-182.4-281.2-273.9c0.9-0.8,2-1.5,2.9-2.4
		c15.4-15.4,30.8-30.8,46.2-46.2c1.4-1.4,2.3-1.3,3.6,0c13.8,13.6,27.7,27.2,41.6,40.7c24.1,23.4,48.2,46.8,72.2,70.2
		c12.9,12.6,25.9,25.2,38.8,37.8c13.3,12.9,26.6,25.8,39.8,38.7c12.4,12,24.7,24.1,37,36.1c4.8,4.8,9.6,9.5,14.5,14.3
		c6.4,6.3,12.9,12.5,19.3,18.8c4.3,4.3,8.6,8.6,12.9,12.9c0.6,0.6,1.5,1,2.3,1.6c-0.2,0.7-0.2,1.7-0.7,2.1
		c-6.4,6.3-12.8,12.6-19.2,18.9c-0.6,0.6-1,1.5-1.5,2.3c-0.2,0.2-0.3,0.3-0.5,0.5c-1.4,1.2-3,2.2-4.3,3.5c-2,2-3.9,4.3-5.8,6.4
		c-0.3,0.3-0.7,0.6-1,0.9C326.4,546.9,326,547.2,325.7,547.5z"/>
	<path class="st2" d="M408.5,368.9c6.5-6.4,12.9-12.8,19.4-19.1c10.1-9.9,20.2-19.9,30.3-29.8c9.2-8.9,18.5-17.8,27.7-26.6
		c0.8,0.4,1.7,0.7,2.8,1.2c-0.8,1-1.6,1.4-1.7,2c-0.2,0.7,0,2,0.3,2.1c2.5,0.5,2,2.7,3.1,4.7c-1.4-0.4-2.2-0.6-3.1-0.9
		c-0.2,1.1-0.5,2.1-0.5,3.1c0,0.3,1,1,1.4,0.9c2.5-0.7,4,0.6,3.4,3.1c-0.4,1.6,0.4,2.4,1.4,3.2c1.2,0.9,2,1.6,0.3,2.8
		c-0.4,0.2-0.1,1.4,0,2.1c0,0.1,0.9,0.2,1.4,0.1c0.5-0.1,0.9-0.5,1.4-0.8c0.2,0.6,0.7,1.3,0.6,1.9c-0.2,3,0,3.3,3.5,2.9
		c-0.7,1.1-1.4,1.9-1.9,2.8c-0.3,0.6-0.6,1.4-0.4,1.9c1.1,2.6,2.2,5,0,7.6c-0.3,0.4-0.1,1.2-0.1,1.9c0.6-0.2,1.1-0.5,1.7-0.6
		c1.2-0.3,2.4-0.9,3.5-0.7c0.5,0.1,0.7,1.9,0.9,2.9c0.3,1.5-1.2,1.3-1.8,1.9c-0.6,0.5-1.4,1.8-1.2,2.1c0.6,0.9,1.7,1.4,2.7,0.2
		c0.3-0.4,0.8-0.5,1.2-0.7c1.7,2.3,0.6,5.5,3.1,7.2c0.2,0.1,0,0.7,0.1,1.1c0.2,0.8,0.4,1.6,0.6,2.4c0.1,0.4,0.4,0.9,0.3,1.3
		c-0.5,1.3-1.2,2.6-1.9,4c-0.6-0.1-1.4-0.4-2.2-0.4c-0.7,0.1-1.4,0.6-2.1,0.9c0.6,0.2,1.3,0.3,1.9,0.6c1,0.7,2.1,1.4,2.9,2.3
		c0.2,0.3-0.3,1.4-0.7,2c-0.8,1.4-1.8,2.8-2.7,4.2c0.9,0.1,1.6-0.1,2.1-0.5c0.4-0.3,0.6-1,1-1.2c0.7-0.3,1.5-0.3,2.3-0.4
		c-0.3,0.8-0.5,1.7-1.1,2.3c-0.7,0.8-1.7,1.3-2.3,2.2c-1.3,1.7-2.6,3.5-3.7,5.2c-0.2,0.4-0.2,0.9-0.3,1.4c-0.9,1-1.7,2-2.7,2.9
		c-12.2,12-24.4,24-36.6,35.9c-13.5,13.2-27.1,26.4-40.6,39.6c-14,13.7-28.1,27.4-42.1,41.1c-5.3,5.2-10.7,10.4-16,15.6
		c-0.7,0.7-1.5,1.2-2.2,1.7c-0.3-0.3-0.7-0.7-1-1c-0.3-0.8-0.5-1.7-1.1-2.2c-4.1-4-8.3-8-12.4-12c-4.7-4.6-9.4-9.3-14-13.9
		c-2.9-2.9-5.7-5.8-8.6-8.6c-3.5-3.3-7.2-6.5-10.7-9.9c-0.6-0.6-0.8-1.6-1.3-2.4c0.8-0.8,1.6-1.5,2.4-2.3c-0.3,1.7,0.2,3.1,1.6,4.2
		c0.5,0.4,0.9,0.9,1.4,1.3c4,3.7,8.1,7.4,12.1,11.2c3.1,2.9,6.1,5.9,9.1,8.9c0.6,0.6,1.3,1.3,1.9,1.9c0.3,0.3,0.6,0.6,1,1
		c2.7,2.4,5.5,4.7,8.1,7.2c2.7,2.5,5.6,2.6,8.8,1.6c0.4-3.2,1-3.8,3-3.3c1.5,0.3,3.1,0.3,4.6,0.5c0.1-0.3,0.2-0.6,0.3-0.9
		c-1-0.8-2-1.6-3.1-2.4c3-2,5.2-0.4,7.5,0.9c0-1.5,0-2.6,0-4.4c1.6,1.1,2.6,1.8,4,2.8c2.7-2.9,1.8-6.6,1.8-10.6
		c2.3,3.3,3.2,0.5,4.6-1.1c0.3,1.5,0.4,2.5,0.6,3.5c0.2,0.2,0.5,0.4,0.7,0.6c0.5-5.2,5.6-5.5,8.1-8.8c-1.2-1.1-2.3-2.2-3.5-3.3
		c0.2-0.1,0.3-0.3,0.5-0.4c3.4,1.5,5-1,6.8-3c0.3,0.1,0.6,0.1,0.8,0.2c1.2,1.2,2,0.2,2.7-0.6c0.1-0.2-0.7-1.2-1.2-1.8
		c-0.5-0.6-1.2-1-1.6-1.7c-0.4-0.7-0.5-1.6-0.8-2.4c0.9,0.2,1.9,0.1,2.7,0.5c1.3,0.7,2.6,1.6,4.1,0.1c-0.5-0.8-0.9-1.5-1-1.6
		c2.6-3.2,4.9-6,7.2-8.9c-0.2-0.2-0.3-0.3-0.5-0.5c-0.5,0.2-0.9,0.5-1.4,0.6c-0.8,0.1-1.5-0.1-2.3-0.2c0.3-0.7,0.4-1.5,0.9-2
		c0.3-0.4,1.1-0.4,1.6-0.8c0.8-0.6,1.8-1.1,2.1-1.9c0.5-1.3,0.5-2.9,0.7-4.3c-0.2-0.1-0.4-0.2-0.6-0.2c0.5-0.3,0.9-0.5,1.4-0.8
		c-0.2-0.3-0.3-0.6-0.5-0.8c-0.2-0.2-0.3-0.3-0.5-0.5c0.3-1.4,0.6-2.8,1-4.4c1.2,0.7,1.8,1.3,2.5,1.5c1.5,0.4,3,0.5,4.5,0.7
		c0,0.3,0.1,0.6,0.1,0.8c0.8-1.1,1.6-2.2,2.3-3.4c-0.2,0-0.4,0-0.6-0.1c-0.1-0.9-0.2-1.8-0.4-2.6c-0.1-0.5-0.2-1.2-0.5-1.5
		c-2.1-1.5-3.1-3.1-1-5c-0.7-1.1-2-2.3-1.8-2.7c1-1.8-0.1-3-0.5-4.5c-0.2-0.6-0.4-1.2-0.6-1.9c0.8,0,1.6-0.1,2.4,0
		c1.4,0.2,2.8,0.4,4.6,0.7c-0.6-1.9-0.6-3.7-1.5-4.5c-1.8-1.7-1.5-3.2-1.1-5.2c0.4-2.1,0.9-3.2,3.5-2.1c-0.7-0.8-1.6-1.2-2.1-1.8
		c-0.5-0.5-0.7-1.4-0.7-2.1c0-0.3,1-1,1.2-0.9c0.6,0.4,1.2,1,1.6,1.6c0.4,0.7,0.7,1.5,1,2.2c0.3-0.1,0.6-0.2,0.9-0.3
		c-0.3-1.2-0.6-2.4-0.9-3.6c0.8-0.1,2.3,0.4,1.4-1.4c0.5-0.7,1-1.4,1.9-2.5c-2.9,1.1-5,0.2-6.8-1.7c-0.2-0.3-0.9,0-1.4-0.2
		c-1.3-0.5-2.4-0.9-2.4-2.7c0-1.3-0.6-2.5-0.9-3.8c-0.2-0.5-0.3-1-0.5-1.4c0.8-0.3,1.7-0.6,2.5-1c1.1-0.6,2.5-1,3-1.9
		c0.3-0.5-0.8-1.9-1.5-3.4c-1.8,2.5-3.3,3.3-4.9,0.8c-0.2-0.3-1-0.2-1.6-0.3c0.3-0.4,0.6-0.9,0.9-1.3c1.7,1.8,2.3-0.1,3-1.1
		c0.7,0.3,1.4,0.6,2.1,0.9c1.1-4.2,2.2-8.1-1.5-11.5c-0.4-0.3-0.2-1.5,0-2.2c0.2-0.6,0.8-1,1.2-1.5c-0.2-0.2-0.3-0.3-0.5-0.5
		c-1.9,1.4-4.2,2.3-5.2,4.8C410.4,368.9,409.4,368.9,408.5,368.9z"/>
	<path class="st3" d="M501.7,375.6c0.1-0.5,0-1,0.3-1.4c1.2-1.8,2.4-3.6,3.7-5.2c0.7-0.8,1.7-1.3,2.3-2.2c0.5-0.6,0.7-1.5,1.1-2.3
		c-0.8,0.1-1.6,0.1-2.3,0.4c-0.4,0.2-0.6,0.9-1,1.2c-0.5,0.4-1.2,0.6-2.1,0.5c0.9-1.4,1.8-2.7,2.7-4.2c0.4-0.6,0.9-1.7,0.7-2
		c-0.8-0.9-1.8-1.7-2.9-2.3c-0.5-0.4-1.2-0.4-1.9-0.6c0.7-0.3,1.4-0.8,2.1-0.9c0.8-0.1,1.7,0.3,2.2,0.4c0.7-1.5,1.4-2.7,1.9-4
		c0.1-0.3-0.2-0.8-0.3-1.3c-0.2-0.8-0.5-1.6-0.6-2.4c-0.1-0.4,0.1-1-0.1-1.1c-2.5-1.7-1.4-5-3.1-7.2c-0.3,0.2-0.9,0.3-1.2,0.7
		c-1,1.2-2.1,0.8-2.7-0.2c-0.2-0.3,0.6-1.6,1.2-2.1c0.7-0.6,2.2-0.4,1.8-1.9c-0.2-1-0.4-2.8-0.9-2.9c-1.1-0.2-2.3,0.4-3.5,0.7
		c-0.6,0.2-1.1,0.4-1.7,0.6c0-0.6-0.2-1.5,0.1-1.9c2.2-2.6,1.1-5,0-7.6c-0.2-0.5,0.1-1.3,0.4-1.9c0.5-0.9,1.1-1.7,1.9-2.8
		c-3.5,0.3-3.7,0.1-3.5-2.9c0-0.6-0.4-1.3-0.6-1.9c-0.5,0.3-0.9,0.7-1.4,0.8c-0.4,0.1-1.3,0-1.4-0.1c-0.1-0.7-0.3-1.9,0-2.1
		c1.8-1.2,1-1.9-0.3-2.8c-1.1-0.8-1.8-1.5-1.4-3.2c0.7-2.5-0.9-3.8-3.4-3.1c-0.4,0.1-1.3-0.6-1.4-0.9c0-1,0.3-2,0.5-3.1
		c0.9,0.3,1.7,0.5,3.1,0.9c-1.1-2-0.6-4.2-3.1-4.7c-0.3-0.1-0.5-1.4-0.3-2.1c0.2-0.6,0.9-1.1,1.7-2c-1.1-0.5-1.9-0.8-2.8-1.2
		c6.7-6.6,13.4-13.2,20.1-19.8c10.1-9.9,20.3-19.8,30.4-29.8c1.5-1.5,2.5-1.2,3.7,0.1c4,4.1,8,8.3,12.1,12.4
		c5.1,5.1,10.4,10.1,15.5,15.2c6.5,6.4,12.9,12.9,19.4,19.4c0.3,0.3,0.5,0.6,0.6,0.8c-2.4,2.5-4.6,4.9-6.9,7.2
		c-11.1,10.9-22.3,21.8-33.4,32.7c-8.4,8.2-16.8,16.2-25.2,24.4c-6,5.8-11.9,11.8-17.8,17.6C503.5,374.3,502.6,374.9,501.7,375.6z"
		/>
	<path class="st4" d="M339.1,485.8c-3-3-6-6-9.1-8.9c-4-3.8-8.1-7.5-12.1-11.2c-0.5-0.4-0.9-1-1.4-1.3c-1.4-1.1-1.9-2.5-1.6-4.2
		c0.2-0.2,0.3-0.4,0.5-0.6c0.2-0.1,0.3-0.3,0.5-0.4c12.8-12.5,25.6-25,38.4-37.5c7.7-7.5,15.3-15.1,23-22.6
		c8.6-8.3,17.2-16.6,25.8-24.9c0.3-0.3,0.7-0.4,1-0.6c1,0.2,2.1,0.3,3.1,0.5c0.1,0.2,0.1,0.5,0.2,0.7c-2.8,1.2-4.6,2.8-3.4,6
		c-0.2,0.3-0.3,0.6-0.5,1c-1.9-0.6-3.2,0-3.6,2c1,0.2,1.9,0.4,3,0.7c0.2-0.6,0.4-1.1,0.6-1.7c1,0,1.9,0,2.9,0c0,0.3,0,0.6,0,1
		c-0.8,1.7-1.6,3.5-2.4,5.2c-1,1.3,0,1.4,1,1.4c0.8,0.5,1.6,1,2.4,1.4c-0.3,0.6-0.6,1.3-1,1.9c-0.5,0.3-1,0.6-1.4,1
		c-1,1.6-2,3.2-3.1,4.8c-0.4-0.3-0.8-0.5-1.2-0.8c0.5,0.4,0.9,0.8,1.4,1.3c1.8-2.6,2.6-2.5,3.8,0c-2.6,1.6-5.5,1.8-8.5,1.9
		c0,0.3,0,0.5,0,0.8c0.6,0.4,1.3,0.7,1.9,1.1c0.2,0.6,0.3,1.3,0.7,1.7c0.5,0.5,1.4,1,2,1c0.4,0,0.7-1.1,1.1-1.7
		c1.1-0.5,2.2-1,3.3-1.4c0.3,0.3,0.6,0.6,1,1c0,0.5,0,1,0,1.4c-1.1,0-2.4-0.1-2.2,1.5c0.9,0.1,1.6,0.3,2.2,0.4c0,0.5,0,1,0,1.4
		c-0.2,0.2-0.3,0.3-0.5,0.5c-1.1-0.2-2.2-0.3-3.3-0.5c-0.4,0.1-0.8,0.1-1.2,0.2c0.4,0.6,0.8,1.1,1.2,1.7c0.2,0.5,0.3,1,0.5,1.4
		c-3.6-0.8-3.6-0.8-4.2,2c1,0.4,1.9,0.8,3,1.2c0.6-0.8,1.1-1.6,1.6-2.3c0.5,0,1,0,1.4,0c0.2,0.3,0.3,0.6,0.5,1
		c-1.1,1-2.2,1.9-3.3,2.9c-1.6-0.2-3.4-0.9-4.9,1.3c1.9-0.1,3.4-0.2,4.9-0.3c0.3,0.6,0.6,1.3,1,1.9c0.8,0.5,1.6,1,2.4,1.4
		c-0.2,0.8-0.3,1.6-0.5,2.4c-2.1,0.6-3,2.2-3.3,4.3c-0.7-0.3-1.7-0.5-2.1-1c-1-1.4-1.6-3.1-2.5-4.6c-0.2-0.4-1-0.5-1.5-0.8
		c-0.1,0.4-0.3,0.9-0.2,1.2c0.8,2.8,1.7,5.7,2.5,8.5c-0.6-0.3-1.1-0.6-1.7-0.7c-0.5-0.1-1,0.1-1.5,0.2c0.3,0.5,0.5,1,0.8,1.5
		c0.3,0.3,0.6,0.6,1,1c0.3,1.3,0.6,2.5,1,3.8c-0.7,2.6-2.4,0.3-3.7,0.7c0.7,3.6-3.6,2-4.4,4.4c0.9,1,1.7,2.1-0.5,2.7
		c-0.3,0.1-0.4,1.4-0.4,2.1c0,0.3,0.8,0.9,0.9,0.8c0.5-0.3,1-0.8,1.4-1.2c0.3-0.3,0.5-0.7,0.8-1c1-1.2,2-2.5,2.9-3.7
		c0.4-0.5,0.8-1,1.1-1.4c0.4,0.6,0.9,1.2,1.3,1.9c-1.7,1.8-3.1,3.7-2.5,5.9c-1.2,0.5-2,1-2.8,1.3c-1.5,0.6-3.1,1.2-4.7,1.9
		c-0.2-0.7-0.5-1.5-0.7-2.2c-0.1,0-0.3,0.1-0.4,0.1c0.1,0.7,0.1,1.4,0.2,2.1c-0.5,0.2-1,0.3-1.4,0.5c-0.4-0.1-0.8-0.2-1.2-0.3
		c-0.1,0.2-0.2,0.3-0.2,0.5c0.5,0.2,0.9,0.5,1.4,0.7c-0.3,1.6-0.5,3.2-0.8,5.1c-1.5-2.6-2.7-4.6-3.9-6.7c-0.3,0.1-0.5,0.2-0.8,0.3
		c-0.6,1.6-1.3,3.1-2,4.8c0.6,0.2,1.3,0.4,1.9,0.5c0.3,2.1,0.2,4-2.3,4.9c-0.5-0.7-0.9-1.3-1.4-2c-0.8,0.7-1.5,1.3-2.3,2
		c1,0.8,1.8,1.3,2.4,2c0.7,0.6,1.2,1.4,1.8,2.1c-0.8,0.1-1.7,0.3-2.5,0.4c-0.1,0-0.3,0.1,0,0c-2.3,3.9-5.5,5.6-9.8,5.4
		c0.3,0.9,0.6,1.6,0.9,2.5c-2.1,0.4-4,0.8-6,1.2c0.1,0.3,0.4,0.9,0.7,1.6c-2.3,0-4.4,1.6-3.7,3.2c1.3,2.9-1.5,3.2-2.1,4.7
		c-0.1,0.4-1.5,0.7-2.2,0.6c-3.4-0.5-3.6-0.4-3.5,2.9c0,0.6-0.6,1.4-1.2,1.8c-0.2,0.2-1.2-0.5-1.6-0.9c-0.5-0.6-0.8-1.4-0.9-1.8
		c-1.6,0.6-2.9,1.1-4.3,1.5c-0.3-0.3-0.6-0.6-1-1C341.2,486.2,340.5,485.6,339.1,485.8z M344.7,479.6c-0.5,2.7-3.9,2.7-3.5,5.6
		c1.9-0.7,3.6-1.4,5.5-2.1C346.2,482.3,345.6,481.3,344.7,479.6z"/>
	<path class="st5" d="M312.4,462.5c0.4,0.8,0.6,1.8,1.3,2.4c3.5,3.3,7.2,6.5,10.7,9.9c2.9,2.8,5.8,5.7,8.6,8.6
		c4.7,4.6,9.3,9.3,14,13.9c4.1,4,8.3,8,12.4,12c0.5,0.5,0.7,1.5,1.1,2.2c-0.3,0.1-0.6,0.3-0.9,0.5c-0.8-0.5-1.6-0.9-2.3-1.6
		c-4.3-4.3-8.6-8.6-12.9-12.9c-6.4-6.3-12.9-12.6-19.3-18.8c-4.8-4.7-9.7-9.5-14.5-14.3C311.2,463.7,311.8,463.1,312.4,462.5z"/>
	<path class="st6" d="M403.7,380.8c-1.1-3.2,0.7-4.8,3.4-6c-0.1-0.2-0.1-0.5-0.2-0.7c-1-0.2-2.1-0.3-3.1-0.5
		c0.2-0.3,0.5-0.6,0.7-0.9c2.4-0.1,2.5-0.2,1.7-1.6c0.4-0.4,0.8-0.8,1.2-1.3c0.7,0.6,1.4,1.2,2,1.8c0.6-0.9,1.2-1.8,1.8-2.8
		c0.9-2.5,3.3-3.4,5.2-4.8c0.2,0.2,0.3,0.3,0.5,0.5c-0.4,0.5-1,0.9-1.2,1.5c-0.2,0.7-0.4,1.8,0,2.2c3.7,3.4,2.6,7.3,1.5,11.5
		c-0.7-0.3-1.4-0.6-2.1-0.9c-0.8,1-1.3,2.9-3,1.1c-0.3,0.4-0.6,0.9-0.9,1.3c-1.1-0.6-2.2-1.3-3.3-1.9c-0.6-0.5-1.1-1.1-1.7-1.6
		c-0.2,0.1-0.4,0.2-0.6,0.4c0,0.7-0.1,1.5-0.1,2.2C405,380.5,404.4,380.6,403.7,380.8z"/>
	<path class="st7" d="M359.5,511.9c0.3-0.2,0.6-0.3,0.9-0.5c0.3,0.3,0.7,0.7,1,1c-0.6,0.7-1.1,1.6-1.7,2.2
		c-6.7,6.5-13.4,13-20.1,19.5c-0.4,0.4-1,0.7-1.5,1c0.5-0.8,0.9-1.6,1.5-2.3c6.4-6.3,12.8-12.6,19.2-18.9
		C359.3,513.6,359.3,512.6,359.5,511.9z"/>
	<path class="st7" d="M327.6,545.6c1.9-2.1,3.8-4.4,5.8-6.4c1.3-1.3,2.8-2.4,4.3-3.5C334.3,539,331,542.3,327.6,545.6z"/>
	<path class="st6" d="M411.3,368.9c-0.6,0.9-1.2,1.8-1.8,2.8c-0.7-0.6-1.4-1.2-2-1.8c0.3-0.3,0.6-0.6,1-0.9
		C409.4,368.9,410.4,368.9,411.3,368.9z"/>
	<path class="st2" d="M406.3,371.1c0.8,1.4,0.7,1.5-1.7,1.6C405.2,372.2,405.7,371.6,406.3,371.1z"/>
	<path class="st7" d="M325.7,547.5c0.3-0.3,0.6-0.6,0.9-0.9C326.4,546.9,326,547.2,325.7,547.5z"/>
	<path class="st2" d="M315.8,459.2c-0.2,0.1-0.3,0.3-0.5,0.4C315.5,459.5,315.6,459.3,315.8,459.2z"/>
	<path class="st4" d="M403.7,380.8c0.6-0.2,1.3-0.3,1.9-0.5c0.8-0.3,1.6-0.6,2.4-1c1.1,0.6,2.2,1.3,3.3,1.9c0.5,0.1,1.4,0,1.6,0.3
		c1.6,2.5,3.1,1.6,4.9-0.8c0.7,1.5,1.8,2.8,1.5,3.4c-0.5,0.9-1.9,1.4-3,1.9c-0.8,0.4-1.7,0.7-2.5,1c-2,0.3-2-1-1.9-2.4
		c-0.1-0.4-0.2-0.8-0.4-1.3c-0.1,0-0.2,0-0.4,0c-0.1,0.4-0.2,0.8-0.2,1.2c-0.2,0.6-0.4,1.1-0.7,1.7c-1,2.3-0.7,2.7,1.7,2.6
		c0.8,0,1.5-0.3,2.3-0.5c0.3,1.3,0.9,2.6,0.9,3.8c0,1.8,1.1,2.3,2.4,2.7c0.4,0.2,1.1-0.1,1.4,0.2c1.8,1.9,3.9,2.8,6.8,1.7
		c-0.9,1.1-1.4,1.8-1.9,2.5c-0.9-0.1-1.7-0.2-2.6-0.3c-0.1,0.1-0.2,0.3-0.2,0.4c0.5,0.4,0.9,0.9,1.4,1.3c0.3,1.2,0.6,2.4,0.9,3.6
		c-0.3,0.1-0.6,0.2-0.9,0.3c-0.3-0.7-0.6-1.5-1-2.2c-0.4-0.6-0.9-1.2-1.6-1.6c-0.2-0.1-1.2,0.6-1.2,0.9c0,0.7,0.2,1.6,0.7,2.1
		c0.5,0.6,1.4,1,2.1,1.8c-2.5-1.1-3,0-3.5,2.1c-0.4,2-0.7,3.6,1.1,5.2c0.9,0.8,0.9,2.6,1.5,4.5c-1.8-0.3-3.2-0.6-4.6-0.7
		c-0.8-0.1-1.6,0-2.4,0c0.2,0.6,0.4,1.2,0.6,1.9c0.5,1.4,1.5,2.7,0.5,4.5c-0.2,0.4,1.1,1.7,1.8,2.7c-2.1,1.9-1.1,3.5,1,5
		c0.3,0.2,0.4,0.9,0.5,1.5c0.2,0.9,0.3,1.8,0.4,2.6c0.2,0,0.4,0,0.6,0.1c-0.8,1.1-1.6,2.2-2.3,3.4c0-0.3-0.1-0.6-0.1-0.8
		c-1.5-0.2-3-0.4-4.5-0.7c-0.7-0.2-1.3-0.7-2.5-1.5c-0.3,1.5-0.7,3-1,4.4c-0.4,0.1-0.8,0.2-1.2,0.4c0.1,0.2,0.1,0.4,0.2,0.6
		c0.5-0.2,1-0.3,1.5-0.5c0.2,0.3,0.3,0.6,0.5,0.8c-0.5,0.3-0.9,0.5-1.4,0.8c0.2,0.1,0.4,0.2,0.6,0.2c-0.2,1.4-0.2,3-0.7,4.3
		c-0.3,0.8-1.4,1.4-2.1,1.9c-0.5,0.3-1.3,0.4-1.6,0.8c-0.4,0.5-0.6,1.3-0.9,2c0.8,0.1,1.6,0.2,2.3,0.2c0.5,0,0.9-0.4,1.4-0.6
		c0.2,0.2,0.3,0.3,0.5,0.5c-2.3,2.9-4.7,5.8-7.2,8.9c0.1,0.1,0.5,0.8,1,1.6c-1.5,1.5-2.7,0.6-4.1-0.1c-0.8-0.4-1.8-0.4-2.7-0.5
		c0.3,0.8,0.4,1.7,0.8,2.4c0.4,0.7,1.1,1.1,1.6,1.7c0.5,0.6,1.4,1.6,1.2,1.8c-0.7,0.8-1.5,1.8-2.7,0.6c-0.1-0.1-0.4-0.1-0.8-0.2
		c-1.8,2-3.5,4.5-6.8,3c-0.2,0.1-0.3,0.3-0.5,0.4c1.2,1.1,2.3,2.2,3.5,3.3c-2.5,3.3-7.6,3.6-8.1,8.8c-0.2-0.2-0.5-0.4-0.7-0.6
		c-0.2-1-0.4-2-0.6-3.5c-1.4,1.6-2.3,4.4-4.6,1.1c0,4,1,7.7-1.8,10.6c-1.3-0.9-2.4-1.7-4-2.8c0,1.8,0,2.9,0,4.4
		c-2.3-1.3-4.6-2.8-7.5-0.9c1.1,0.9,2.1,1.6,3.1,2.4c-0.1,0.3-0.2,0.6-0.3,0.9c-1.5-0.1-3.1-0.1-4.6-0.5c-2-0.4-2.6,0.1-3,3.3
		c-3.2,1-6.2,0.9-8.8-1.6c-2.6-2.5-5.4-4.8-8.1-7.2c1.3-0.5,2.6-0.9,4.3-1.5c0.2,0.4,0.4,1.2,0.9,1.8c0.4,0.5,1.3,1.1,1.6,0.9
		c0.6-0.4,1.2-1.2,1.2-1.8c-0.1-3.3,0-3.4,3.5-2.9c0.7,0.1,2-0.2,2.2-0.6c0.6-1.6,3.4-1.9,2.1-4.7c-0.7-1.6,1.4-3.2,3.7-3.2
		c-0.3-0.7-0.5-1.2-0.7-1.6c2-0.4,3.9-0.8,6-1.2c-0.3-0.9-0.6-1.6-0.9-2.5c4.3,0.2,7.4-1.5,9.8-5.4c-0.3,0.1-0.2,0,0,0
		c0.8-0.1,1.7-0.3,2.5-0.4c-0.6-0.7-1.2-1.4-1.8-2.1c-0.7-0.6-1.4-1.2-2.4-2c0.8-0.7,1.5-1.3,2.3-2c0.5,0.7,0.9,1.3,1.4,2
		c2.5-0.9,2.6-2.8,2.3-4.9c-0.6-0.2-1.3-0.4-1.9-0.5c0.7-1.7,1.3-3.3,2-4.8c0.3-0.1,0.5-0.2,0.8-0.3c1.2,2,2.4,4.1,3.9,6.7
		c0.3-1.9,0.6-3.5,0.8-5.1c0-0.3,0-0.6,0-1c0.5-0.2,1-0.3,1.4-0.5c0.3,0,0.6,0,1,0c1.6-0.6,3.1-1.2,4.7-1.9c0.8-0.3,1.7-0.8,2.8-1.3
		c-0.6-2.2,0.8-4.1,2.5-5.9c0.7,0.5,1.4,1,2.1,1.6c0.1-1,0-2-0.6-2.7c-1-1.1-1.2-2.1-0.1-3.2c0.4-0.1,0.8-0.2,1.3-0.4
		c0-0.1,0-0.2,0-0.4c-0.4-0.1-0.8-0.2-1.2-0.2c-0.3,0-0.6,0-1,0c-0.3-1.3-0.6-2.5-1-3.8c-0.3-0.3-0.6-0.6-1-1
		c-0.3-0.5-0.5-1-0.8-1.5c0.5-0.1,1-0.3,1.5-0.2c0.6,0.1,1.1,0.5,1.7,0.7c0.3,0,0.6,0,1,0c0.6,0.2,1.3,0.3,1.9,0.5
		c1.5-0.8,3.1-1.6,4.7-2.4c-1.4-0.5-2.6-1-3.7-1.4c0.3-2,1.2-3.6,3.3-4.3c0.6-0.2,1.2-0.4,1.8-0.6c-0.4-0.6-0.9-1.2-1.3-1.8
		c-0.2-0.3-0.3-0.6-0.5-1c-0.1-0.6-0.2-1.1-0.2-1.7c-0.2,0-0.3,0-0.5,0c-0.1,0.6-0.2,1.1-0.2,1.7c-0.3-0.2-0.6-0.3-1-0.5
		c-0.3-0.6-0.6-1.3-1-1.9c0-0.3,0-0.6,0-1c1.1-1,2.2-1.9,3.3-2.9c0.3,0.1,0.6,0.2,0.9,0.2c0.6,0.1,1.1,0.1,1.7,0.1
		c-0.4-0.6-0.7-1.4-1.2-1.6c-0.5-0.2-1.2,0.2-1.9,0.3c-0.5,0-1,0-1.4,0c-0.2-0.3-0.3-0.6-0.5-1c-0.2-0.5-0.3-1-0.5-1.4
		c0-0.6,0-1.3,0-1.9c1.1,0.2,2.2,0.3,3.3,0.5c0.5,0.2,1,0.3,1.4,0.5c0.6-0.2,1.2-0.4,1.8-0.6c-0.6-0.6-1.2-1.2-1.8-1.8
		c-0.3-0.6-0.6-1.3-1-1.9c0-0.5,0-1,0-1.4c0.1-0.3,0.1-0.6,0.2-1c-0.4,0-0.7,0-1.1,0c-1.1,0.5-2.2,1-3.3,1.4c-1.1-0.8-2-2.8-3.8-1
		c-0.6-0.4-1.3-0.7-1.9-1.1c0-0.3,0-0.5,0-0.8c3-0.1,6-0.3,8.5-1.9c2-0.6,0-2,0.5-2.9c0.3-0.6,0.6-1.3,1-1.9c0-0.2,0-0.3,0-0.5
		c0.7-1,1.3-1.9,0-2.9c-0.8-0.5-1.6-1-2.4-1.4c-0.3-0.5-0.6-1-1-1.4c0.8-1.7,1.6-3.5,2.4-5.2c0.5,0.2,1,0.5,1.5,0.4
		c0.5-0.1,1.2-0.4,1.4-0.8c0.2-0.4,0-1.3-0.3-1.6c-0.3-0.3-1.1-0.1-1.6,0.1c-0.4,0.1-0.7,0.6-1,0.9c-1,0-1.9,0-2.9,0
		c0-0.3,0-0.6,0-1C403.4,381.4,403.6,381.1,403.7,380.8z M412.8,397.4c-0.1-0.5-0.1-1.2-0.4-1.6c-0.4-0.5-1-0.9-1.5-1.3
		c-0.1-0.2-0.2-0.5-0.4-0.7c-0.2,0.2-0.4,0.5-0.6,0.7c-2.3,2.3,0.6,2.1,1.4,2.9c0.2,0.4,0.4,0.8,0.6,1.3
		C412.2,398.2,412.5,397.8,412.8,397.4z M410.4,414.3c2-0.3,3.8-0.5,6.1-0.8c-0.6-1-1-1.9-1.7-2.6c-0.2-0.2-1.3,0-1.6,0.3
		C412.2,412,411.5,413,410.4,414.3z M385.3,457.4c-0.7,1.9-1.3,3.5-1.9,5.1c-0.1,0.2,0.2,0.7,0.4,0.7c0.3,0.1,0.8,0.1,1.1-0.1
		C385.7,462.6,386.1,458.9,385.3,457.4z M367.9,479.2c2.6-4.1,2.6-4.1,1.1-5.4C368.2,475.5,366.8,476.9,367.9,479.2z M363.6,488.7
		c1.9-0.3,3.7-0.6,5.9-0.9C366.6,485.6,364.9,486,363.6,488.7z M392.9,465.3c-0.2-0.4-0.4-0.8-0.6-1.2c-0.9,0.4-1.9,0.7-2.7,1.3
		c-0.2,0.1,0.3,1.1,0.5,1.7C391,466.5,392,465.9,392.9,465.3z M403.4,447c1.4-1.3,2.4-2.3,3.6-3.4C404.8,443.7,403.3,444,403.4,447z
		 M388,468.1c0-0.4,0-0.8,0-1.2c-0.8-0.1-1.7-0.1-2.5-0.2c0,0.5,0,1,0,1.5C386.4,468.2,387.2,468.1,388,468.1z M410.5,403.9
		c-0.2-2.7-0.7-3.2-2.9-2.7C408.6,402.2,409.5,403,410.5,403.9z M360.1,479c-0.2,0.3-0.3,0.6-0.5,0.8c1,0.6,1.9,1.1,2.9,1.7
		c0.2-0.3,0.3-0.6,0.5-0.9C362,480,361,479.5,360.1,479z M397.9,450.1c-0.3,0.2-0.6,0.4-0.9,0.6c0.6,0.8,1.2,1.6,1.8,2.4
		c0.3-0.2,0.6-0.4,0.8-0.6C399,451.7,398.4,450.9,397.9,450.1z M372.2,471.8c-0.3,0.3-0.6,0.6-1,0.9c0.6,0.6,1.2,1.3,1.8,1.9
		c0.3-0.2,0.6-0.5,0.8-0.7C373.3,473.1,372.8,472.5,372.2,471.8z M389.5,456c0.2-0.4,0.3-0.8,0.5-1.2c-0.6-0.2-1.3-0.5-1.9-0.7
		c-0.1,0-0.5,0.9-0.4,0.9C388.2,455.4,388.9,455.7,389.5,456z M404.8,433.6c-0.3,0.1-0.6,0.1-0.9,0.2c0.1,0.7,0.2,1.4,0.4,2
		c0,0.1,0.7-0.1,1.1-0.1C405.2,434.9,405,434.2,404.8,433.6z M373.4,487c0.3,0.1,0.7,0.2,1,0.3c0.2-0.6,0.3-1.3,0.5-1.9
		c-0.3-0.1-1-0.3-1-0.2C373.7,485.7,373.5,486.3,373.4,487z M380.9,458.6c-0.1,0.3-0.3,0.6-0.4,0.9c0.6,0.3,1.2,0.5,1.8,0.8
		c0,0,0.4-0.7,0.3-0.7C382.1,459.2,381.5,458.9,380.9,458.6z M380.8,462.7c-0.3,0-0.6,0.1-0.8,0.1c0,0.8,0.1,1.6,0.1,2.4
		c0.3,0,0.7-0.1,1-0.1C381,464.3,380.9,463.5,380.8,462.7z M361.8,484.8c-0.1-0.3-0.2-0.6-0.3-0.9c-0.6,0.2-1.2,0.5-1.9,0.7
		c0.1,0.2,0.2,0.5,0.3,0.7C360.5,485.1,361.2,485,361.8,484.8z M416,398.1c0.3,0,0.5,0,0.8,0c0-0.7,0-1.3,0-2c-0.2,0-0.4,0-0.7,0
		C416,396.8,416,397.5,416,398.1z M354.3,494c-0.3,0-0.6,0.1-0.9,0.1c0.1,0.6,0.2,1.3,0.2,1.9c0.3,0,0.6-0.1,0.8-0.1
		C354.4,495.3,354.3,494.7,354.3,494z M370.8,482.1c-0.3,0.1-0.5,0.2-0.8,0.2c0.1,0.5,0.2,0.9,0.4,1.4c0,0,0.5-0.1,0.8-0.2
		C371.1,483,370.9,482.6,370.8,482.1z M391.3,458c0.2,0.2,0.5,0.4,0.7,0.6c0.4-0.5,0.8-1,1.2-1.4c-0.2-0.2-0.4-0.3-0.5-0.5
		C392.2,457.2,391.8,457.6,391.3,458z M398.1,454.4c-0.2-0.1-0.4-0.2-0.6-0.3c-0.3,0.5-0.5,1-0.8,1.4c0.2,0.1,0.4,0.2,0.7,0.4
		C397.6,455.4,397.9,454.9,398.1,454.4z M408.9,429.6c0.2-0.1,0.4-0.3,0.6-0.4c-0.3-0.4-0.7-0.8-1-1.2c-0.1,0.1-0.2,0.2-0.5,0.5
		C408.3,428.9,408.6,429.2,408.9,429.6z M412.6,420c-0.2,0-0.4,0.1-0.5,0.1c0,0.4,0,0.9,0.1,1.3c0.3,0,0.6,0,0.9-0.1
		C412.9,420.9,412.7,420.5,412.6,420z M419.8,399.3c-1.1-0.6-1.4-0.9-1.6-0.8c-0.2,0-0.4,0.4-0.6,0.6c0.3,0.2,0.5,0.5,0.8,0.6
		C418.7,399.7,419,399.5,419.8,399.3z M406.2,440.6c-0.4-0.4-0.6-0.7-0.8-0.7c-0.2,0-0.6,0.3-0.6,0.4c0,0.2,0.3,0.5,0.5,0.6
		C405.5,441,405.8,440.8,406.2,440.6z M409.6,419.5c-0.4-0.3-0.6-0.6-0.8-0.6c-0.2,0-0.4,0.3-0.6,0.5c0.2,0.2,0.4,0.5,0.6,0.6
		C409,420,409.2,419.7,409.6,419.5z M416.6,434.6c-0.2-0.2-0.3-0.4-0.5-0.4c-0.1,0-0.4,0.3-0.4,0.4c0.1,0.2,0.3,0.4,0.5,0.6
		C416.3,435,416.4,434.8,416.6,434.6z M387.7,474.8c0.3-0.1,0.4-0.2,0.6-0.3c-0.2-0.2-0.3-0.4-0.5-0.5c-0.1,0-0.4,0.2-0.4,0.3
		C387.3,474.5,387.5,474.6,387.7,474.8z M412.7,408.9c-0.2-0.2-0.3-0.4-0.5-0.5c-0.2,0-0.4,0.1-0.6,0.2c0.1,0.2,0.2,0.5,0.4,0.6
		C412.1,409.2,412.4,409,412.7,408.9z M412.4,417.9c-0.2,0.2-0.4,0.3-0.5,0.5c0,0.2,0.1,0.4,0.2,0.6c0.2-0.1,0.5-0.2,0.6-0.4
		C412.7,418.5,412.5,418.2,412.4,417.9z M412.8,424.4c-0.1-0.3-0.2-0.4-0.3-0.6c-0.2,0.2-0.4,0.3-0.5,0.5c0,0.1,0.2,0.4,0.3,0.4
		C412.4,424.7,412.6,424.5,412.8,424.4z M388.8,460c-0.1-0.1-0.3-0.2-0.4-0.1c-0.1,0-0.1,0.2-0.2,0.4c0.1,0.1,0.3,0.2,0.4,0.1
		C388.7,460.3,388.8,460.1,388.8,460z M381,456.1c0.1-0.1,0.2-0.3,0.1-0.4c0-0.1-0.2-0.1-0.4-0.2c-0.1,0.1-0.2,0.3-0.1,0.4
		C380.7,456.1,380.9,456.1,381,456.1z M372.2,477.3c-0.1-0.1-0.1-0.3-0.2-0.4c-0.1,0-0.3,0.1-0.4,0.1c0.1,0.1,0.1,0.3,0.2,0.4
		C371.9,477.5,372,477.4,372.2,477.3z M412.6,401.4c-0.1,0.1-0.2,0.3-0.2,0.4c0,0.1,0.2,0.1,0.4,0.2c0.1-0.1,0.2-0.3,0.2-0.4
		C413,401.5,412.8,401.4,412.6,401.4z"/>
	<path class="st6" d="M411.8,384.6c-0.1,1.4-0.1,2.7,1.9,2.4c0.2,0.5,0.3,1,0.5,1.4c-0.8,0.2-1.5,0.4-2.3,0.5
		c-2.5,0.1-2.7-0.3-1.7-2.6c0.2-0.6,0.4-1.1,0.7-1.7C411.2,384.6,411.5,384.6,411.8,384.6z"/>
	<path class="st6" d="M422.3,400.7c-0.5-0.4-0.9-0.9-1.4-1.3c0.1-0.1,0.2-0.3,0.2-0.4c0.9,0.1,1.7,0.2,2.6,0.3
		C424.6,401.2,423.1,400.6,422.3,400.7z"/>
	<path class="st4" d="M339.1,485.8c1.5-0.2,2.1,0.4,1.9,1.9C340.3,487,339.7,486.4,339.1,485.8z"/>
	<path class="st4" d="M409,440.2c-0.5,0.2-1,0.3-1.5,0.5c-0.1-0.2-0.1-0.4-0.2-0.6c0.4-0.1,0.8-0.2,1.2-0.4
		C408.6,439.8,408.8,440,409,440.2z"/>
	<path class="st4" d="M398,436.8c0.3,0,0.6,0,1,0c0,0.3,0,0.6,0,1c-1,1.1-0.9,2.1,0.1,3.2c0.6,0.6,0.7,1.7,0.6,2.7
		c-0.7-0.5-1.4-1-2.1-1.6c-0.4-0.6-0.9-1.2-1.3-1.9c-0.4,0.5-0.8,1-1.1,1.4c-1,1.2-2,2.5-2.9,3.7c-0.3,0.3-0.5,0.7-0.8,1
		c-0.4,0.5-0.9,0.9-1.4,1.2c-0.1,0.1-0.8-0.5-0.9-0.8c0-0.7,0-2,0.4-2.1c2.2-0.7,1.4-1.8,0.5-2.7c0.7-2.5,5.1-0.8,4.4-4.4
		C395.6,437.1,397.4,439.5,398,436.8z"/>
	<path class="st4" d="M402.3,427.8c1.2,0.4,2.3,0.9,3.7,1.4c-1.6,0.8-3.2,1.6-4.7,2.4c-0.4-0.6-0.9-1.2-1.3-1.7
		c-0.2,0.4-0.4,0.8-0.6,1.3c-0.3,0-0.6,0-1,0c-0.9-2.8-1.7-5.6-2.5-8.5c-0.1-0.4,0.2-0.8,0.2-1.2c0.5,0.2,1.3,0.4,1.5,0.8
		c0.9,1.5,1.5,3.1,2.5,4.6C400.6,427.3,401.6,427.5,402.3,427.8z"/>
	<path class="st4" d="M344.7,479.6c0.9,1.6,1.5,2.6,2,3.5c-1.9,0.7-3.6,1.4-5.5,2.1C340.8,482.3,344.2,482.3,344.7,479.6z"/>
	<path class="st4" d="M406.1,396.9c-0.5,0.9,1.5,2.2-0.5,2.9c-1.2-2.5-2-2.6-3.8,0c-0.5-0.4-1-0.8-1.4-1.3c0.4,0.3,0.8,0.5,1.2,0.8
		c1-1.6,2-3.2,3.1-4.8c0.3,0.3,0.6,0.6,1,1C405.8,396,406,396.4,406.1,396.9z"/>
	<path class="st4" d="M403.7,412.1c0.2,0.3,0.3,0.6,0.5,1c-0.5,0.7-1.1,1.5-1.6,2.3c-1.1-0.4-2-0.8-3-1.2
		C400.1,411.4,400.1,411.4,403.7,412.1z"/>
	<path class="st4" d="M399,403.6c1.8-1.9,2.7,0.2,3.8,1c-0.4,0.6-0.7,1.7-1.1,1.7c-0.6,0.1-1.5-0.5-2-1
		C399.3,404.9,399.2,404.2,399,403.6z"/>
	<path class="st6" d="M403.3,381.7c0,0.3,0,0.6,0,1c-0.2,0.6-0.4,1.1-0.6,1.7c-1.1-0.2-2-0.4-3-0.7
		C400.1,381.7,401.3,381.1,403.3,381.7z"/>
	<path class="st6" d="M406.1,382.7c0.3-0.3,0.6-0.8,1-0.9c0.5-0.2,1.3-0.4,1.6-0.1c0.3,0.3,0.5,1.2,0.3,1.6
		c-0.2,0.4-0.9,0.8-1.4,0.8c-0.5,0.1-1-0.3-1.5-0.4C406.1,383.3,406.1,383,406.1,382.7z"/>
	<path class="st4" d="M402.8,416.9c0,0.3,0,0.6,0,1c-1.5,0.1-3,0.2-4.9,0.3C399.4,416,401.2,416.7,402.8,416.9z"/>
	<path class="st4" d="M405.6,413.1c0.6-0.1,1.4-0.5,1.9-0.3c0.5,0.2,0.8,1.1,1.2,1.6c-0.6,0-1.2,0-1.7-0.1c-0.3,0-0.6-0.2-0.9-0.2
		C406,413.7,405.8,413.4,405.6,413.1z"/>
	<path class="st4" d="M408,407.4c0.6,0.6,1.2,1.2,1.8,1.8c-0.6,0.2-1.2,0.4-1.8,0.6c-0.3-0.3-0.6-0.6-1-1c0-0.5,0-1,0-1.4
		C407.4,407.4,407.7,407.4,408,407.4z"/>
	<path class="st4" d="M408,407.4c-0.3,0-0.6,0-1,0c-0.7-0.1-1.4-0.2-2.2-0.4c-0.1-1.7,1.1-1.5,2.2-1.5
		C407.4,406.1,407.7,406.7,408,407.4z"/>
	<path class="st6" d="M407.1,391.7c1.3,1,0.7,1.9,0,2.9c-0.3-0.3-0.6-0.6-1-1C406.4,393,406.7,392.3,407.1,391.7z"/>
	<path class="st4" d="M406.1,421.2c0.4,0.6,0.9,1.2,1.3,1.8c-0.6,0.2-1.2,0.4-1.8,0.6C405.8,422.7,406,421.9,406.1,421.2z"/>
	<path class="st4" d="M406.1,393.6c0.3,0.3,0.6,0.6,1,1c0,0.2,0,0.3,0,0.5c-0.5,0.2-1,0.3-1.4,0.5c-0.3-0.3-0.6-0.6-1-1
		C405.2,394.2,405.6,393.9,406.1,393.6z"/>
	<path class="st4" d="M403.3,408.8c0,0.6,0,1.3,0,1.9c-0.4-0.6-0.8-1.1-1.2-1.7C402.4,408.9,402.8,408.9,403.3,408.8z"/>
	<path class="st4" d="M405.6,420.2c0.2,0.3,0.3,0.6,0.5,1c-0.8-0.5-1.6-1-2.4-1.4c0.3,0.2,0.6,0.3,1,0.5
		C405,420.2,405.3,420.2,405.6,420.2z"/>
	<path class="st4" d="M387.6,451.1c-0.3,0-0.6,0-1,0c-0.1-0.7-0.1-1.4-0.2-2.1c0.1,0,0.3-0.1,0.4-0.1
		C387.1,449.6,387.3,450.3,387.6,451.1z"/>
	<path class="st6" d="M403.7,388.8c0.3,0.5,0.6,1,1,1.4C403.7,390.2,402.7,390.2,403.7,388.8z"/>
	<path class="st4" d="M407.1,408.8c0.3,0.3,0.6,0.6,1,1c-0.5-0.2-1-0.3-1.4-0.5C406.7,409.1,406.9,409,407.1,408.8z"/>
	<path class="st4" d="M406.1,403.1c0.4,0,0.7,0,1.1,0c-0.1,0.3-0.1,0.6-0.2,1C406.7,403.7,406.4,403.4,406.1,403.1z"/>
	<path class="st4" d="M385.2,451.6c0,0.3,0,0.6,0,1c-0.5-0.2-0.9-0.5-1.4-0.7c0.1-0.2,0.2-0.3,0.2-0.5
		C384.4,451.4,384.8,451.5,385.2,451.6z"/>
	<path class="st4" d="M396.1,432.1c0.3,0.3,0.6,0.6,1,1C396.8,432.7,396.4,432.4,396.1,432.1z"/>
	<path class="st4" d="M408,379.3c-0.8,0.3-1.6,0.6-2.4,1c0-0.7,0.1-1.5,0.1-2.2c0.2-0.1,0.4-0.2,0.6-0.4
		C406.9,378.3,407.5,378.8,408,379.3z"/>
	<path class="st2" d="M410.4,414.3c1.1-1.3,1.8-2.3,2.7-3.1c0.4-0.3,1.4-0.5,1.6-0.3c0.7,0.7,1.1,1.6,1.7,2.6
		C414.2,413.8,412.4,414.1,410.4,414.3z"/>
	<path class="st4" d="M385.3,457.4c0.8,1.5,0.4,5.2-0.4,5.8c-0.3,0.2-0.8,0.2-1.1,0.1c-0.2-0.1-0.5-0.5-0.4-0.7
		C383.9,460.9,384.5,459.3,385.3,457.4z"/>
	<path class="st4" d="M367.9,479.2c-1.1-2.4,0.4-3.7,1.1-5.4C370.5,475.1,370.5,475.1,367.9,479.2z"/>
	<path class="st2" d="M363.6,488.7c1.3-2.8,3-3.2,5.9-0.9C367.3,488.2,365.5,488.4,363.6,488.7z"/>
	<path class="st4" d="M411.3,397.4c-0.8-0.8-3.7-0.5-1.4-2.9c0.3,0,0.6,0,1,0c0.5,0.4,1.2,0.8,1.5,1.3c0.3,0.4,0.3,1,0.4,1.6
		C412.3,397.4,411.8,397.4,411.3,397.4z"/>
	<path class="st2" d="M392.9,465.3c-0.9,0.6-1.9,1.2-2.8,1.8c-0.2-0.6-0.7-1.6-0.5-1.7c0.8-0.6,1.8-0.9,2.7-1.3
		C392.5,464.5,392.7,464.9,392.9,465.3z"/>
	<path class="st4" d="M403.4,447c-0.1-3,1.5-3.4,3.6-3.4C405.8,444.8,404.8,445.7,403.4,447z"/>
	<path class="st2" d="M388,468.1c-0.8,0.1-1.7,0.1-2.5,0.2c0-0.5,0-1,0-1.5c0.8,0.1,1.7,0.1,2.5,0.2
		C388.1,467.3,388,467.7,388,468.1z"/>
	<path class="st4" d="M410.5,403.9c-1-0.9-1.9-1.8-2.9-2.7C409.8,400.7,410.3,401.2,410.5,403.9z"/>
	<path class="st4" d="M360.1,479c1,0.5,1.9,1.1,2.9,1.6c-0.2,0.3-0.3,0.6-0.5,0.9c-1-0.6-1.9-1.1-2.9-1.7
		C359.8,479.5,359.9,479.2,360.1,479z"/>
	<path class="st4" d="M397.9,450.1c0.6,0.8,1.1,1.5,1.7,2.3c-0.3,0.2-0.6,0.4-0.8,0.6c-0.6-0.8-1.2-1.6-1.8-2.4
		C397.3,450.5,397.6,450.3,397.9,450.1z"/>
	<path class="st4" d="M372.2,471.8c0.6,0.7,1.1,1.3,1.7,2c-0.3,0.2-0.6,0.5-0.8,0.7c-0.6-0.6-1.2-1.3-1.8-1.9
		C371.6,472.4,371.9,472.1,372.2,471.8z"/>
	<path class="st4" d="M389.5,456c-0.6-0.3-1.3-0.6-1.9-1c0,0,0.4-0.9,0.4-0.9c0.7,0.2,1.3,0.4,1.9,0.7
		C389.8,455.2,389.7,455.6,389.5,456z"/>
	<path class="st4" d="M404.8,433.6c0.2,0.7,0.4,1.4,0.6,2.1c-0.4,0-1,0.2-1.1,0.1c-0.2-0.7-0.3-1.3-0.4-2
		C404.2,433.7,404.5,433.6,404.8,433.6z"/>
	<path class="st2" d="M373.4,487c0.2-0.6,0.3-1.2,0.5-1.8c0,0,0.6,0.1,1,0.2c-0.2,0.6-0.3,1.3-0.5,1.9
		C374,487.1,373.7,487,373.4,487z"/>
	<path class="st4" d="M380.9,458.6c0.6,0.3,1.2,0.6,1.7,1c0,0-0.3,0.7-0.3,0.7c-0.6-0.2-1.2-0.5-1.8-0.8
		C380.6,459.2,380.8,458.9,380.9,458.6z"/>
	<path class="st4" d="M380.8,462.7c0.1,0.8,0.2,1.6,0.3,2.4c-0.3,0-0.7,0.1-1,0.1c0-0.8-0.1-1.6-0.1-2.4
		C380.3,462.7,380.6,462.7,380.8,462.7z"/>
	<path class="st4" d="M361.8,484.8c-0.6,0.2-1.2,0.4-1.9,0.5c-0.1-0.2-0.2-0.5-0.3-0.7c0.6-0.2,1.2-0.5,1.9-0.7
		C361.6,484.2,361.7,484.5,361.8,484.8z"/>
	<path class="st2" d="M416,398.1c0-0.7,0.1-1.3,0.1-2c0.2,0,0.4,0,0.7,0c0,0.7,0,1.3,0,2C416.5,398.2,416.2,398.2,416,398.1z"/>
	<path class="st2" d="M354.3,494c0,0.7,0.1,1.3,0.1,2c-0.3,0-0.6,0.1-0.8,0.1c-0.1-0.6-0.2-1.3-0.2-1.9
		C353.7,494.1,354,494.1,354.3,494z"/>
	<path class="st4" d="M399.5,431.1c0.2-0.4,0.4-0.8,0.6-1.3c0.4,0.6,0.9,1.2,1.3,1.7C400.7,431.4,400.1,431.3,399.5,431.1z"/>
	<path class="st4" d="M405.6,395.5c0.5-0.2,1-0.3,1.4-0.5c-0.3,0.6-0.6,1.3-1,1.9C406,396.4,405.8,396,405.6,395.5z"/>
	<path class="st4" d="M370.8,482.1c0.1,0.5,0.3,1,0.4,1.4c-0.3,0.1-0.8,0.2-0.8,0.2c-0.2-0.4-0.3-0.9-0.4-1.4
		C370.3,482.2,370.5,482.2,370.8,482.1z"/>
	<path class="st2" d="M391.3,458c0.5-0.4,0.9-0.8,1.4-1.3c0.2,0.2,0.4,0.3,0.5,0.5c-0.4,0.5-0.8,1-1.2,1.4
		C391.8,458.5,391.5,458.3,391.3,458z"/>
	<path class="st2" d="M398.1,454.4c-0.2,0.5-0.5,1-0.7,1.5c-0.2-0.1-0.4-0.2-0.7-0.4c0.3-0.5,0.5-1,0.8-1.4
		C397.7,454.2,397.9,454.3,398.1,454.4z"/>
	<path class="st4" d="M408.9,429.6c-0.3-0.4-0.6-0.8-1-1.2c0.3-0.3,0.4-0.4,0.5-0.5c0.3,0.4,0.7,0.8,1,1.2
		C409.3,429.4,409.1,429.5,408.9,429.6z"/>
	<path class="st2" d="M412.6,420c0.1,0.4,0.2,0.9,0.4,1.3c-0.3,0-0.6,0-0.9,0.1c0-0.4,0-0.9-0.1-1.3
		C412.3,420.1,412.4,420,412.6,420z"/>
	<path class="st2" d="M419.8,399.3c-0.8,0.2-1.1,0.4-1.4,0.3c-0.3-0.1-0.5-0.4-0.8-0.6c0.2-0.2,0.4-0.5,0.6-0.6
		C418.4,398.4,418.7,398.7,419.8,399.3z"/>
	<path class="st2" d="M406.2,440.6c-0.4,0.2-0.7,0.4-0.9,0.3c-0.2-0.1-0.5-0.4-0.5-0.6c0-0.1,0.4-0.5,0.6-0.4
		C405.6,440,405.8,440.3,406.2,440.6z"/>
	<path class="st2" d="M409.6,419.5c-0.4,0.3-0.6,0.6-0.8,0.5c-0.2-0.1-0.4-0.4-0.6-0.6c0.2-0.2,0.4-0.5,0.6-0.5
		C409,418.9,409.2,419.2,409.6,419.5z"/>
	<path class="st2" d="M405.6,420.2c-0.3,0-0.6,0-1,0c0.1-0.6,0.2-1.1,0.2-1.7c0.2,0,0.3,0,0.5,0
		C405.5,419.1,405.6,419.7,405.6,420.2z"/>
	<path class="st6" d="M411.3,397.4c0.5,0,1,0,1.4,0c-0.3,0.4-0.5,0.8-0.8,1.3C411.8,398.2,411.5,397.8,411.3,397.4z"/>
	<path class="st2" d="M416.6,434.6c-0.1,0.2-0.3,0.4-0.4,0.6c-0.2-0.2-0.4-0.3-0.5-0.6c0-0.1,0.2-0.4,0.4-0.4
		C416.2,434.2,416.4,434.4,416.6,434.6z"/>
	<path class="st4" d="M399,437.8c0-0.3,0-0.6,0-1c0.4,0.1,0.8,0.2,1.2,0.2c0,0.1,0,0.2,0,0.4C399.8,437.5,399.4,437.7,399,437.8z"/>
	<path class="st2" d="M387.7,474.8c-0.1-0.2-0.4-0.4-0.3-0.5c0-0.2,0.4-0.4,0.4-0.3c0.2,0.1,0.3,0.3,0.5,0.5
		C388.1,474.6,387.9,474.7,387.7,474.8z"/>
	<path class="st4" d="M412.7,408.9c-0.3,0.1-0.5,0.3-0.6,0.3c-0.2-0.1-0.3-0.4-0.4-0.6c0.2-0.1,0.4-0.2,0.6-0.2
		C412.4,408.5,412.5,408.7,412.7,408.9z"/>
	<path class="st4" d="M412.4,417.9c0.1,0.3,0.3,0.5,0.3,0.6c-0.1,0.2-0.4,0.3-0.6,0.4c-0.1-0.2-0.2-0.4-0.2-0.6
		C412,418.2,412.2,418.1,412.4,417.9z"/>
	<path class="st2" d="M411.8,384.6c-0.3,0-0.6,0-1,0c0.1-0.4,0.2-0.8,0.2-1.2c0.1,0,0.2,0,0.4,0
		C411.6,383.7,411.7,384.1,411.8,384.6z"/>
	<path class="st2" d="M412.8,424.4c-0.2,0.1-0.4,0.4-0.5,0.3c-0.2,0-0.4-0.4-0.3-0.4c0.1-0.2,0.3-0.3,0.5-0.5
		C412.5,423.9,412.6,424.1,412.8,424.4z"/>
	<path class="st4" d="M388.8,460c-0.1,0.1-0.1,0.3-0.2,0.4c-0.1,0-0.3-0.1-0.4-0.1c0.1-0.1,0.1-0.3,0.2-0.4
		C388.5,459.8,388.7,459.9,388.8,460z"/>
	<path class="st4" d="M381,456.1c-0.1-0.1-0.3-0.1-0.4-0.2c0-0.1,0.1-0.3,0.1-0.4c0.1,0.1,0.3,0.1,0.4,0.2
		C381.2,455.8,381.1,456,381,456.1z"/>
	<path class="st2" d="M372.2,477.3c-0.1,0.1-0.3,0.2-0.4,0.1c-0.1,0-0.1-0.2-0.2-0.4c0.1-0.1,0.3-0.2,0.4-0.1
		C372.1,477,372.1,477.2,372.2,477.3z"/>
	<path class="st6" d="M412.6,401.4c0.1,0.1,0.3,0.1,0.4,0.2c0,0.1-0.1,0.3-0.2,0.4c-0.1-0.1-0.3-0.1-0.4-0.2
		C412.5,401.7,412.6,401.5,412.6,401.4z"/>
	<path class="st6" d="M410.9,394.5c-0.3,0-0.6,0-1,0c0.2-0.2,0.4-0.5,0.6-0.7C410.6,394.1,410.7,394.3,410.9,394.5z"/>
</g>
</svg>
