<?xml version="1.0" encoding="utf-8"?>
<!-- Generator: Adobe Illustrator 26.0.1, SVG Export Plug-In . SVG Version: 6.00 Build 0)  -->
<svg version="1.1" id="Layer_1" xmlns="http://www.w3.org/2000/svg" xmlns:xlink="http://www.w3.org/1999/xlink" x="0px" y="0px"
	 viewBox="0 0 612 792" style="enable-background:new 0 0 612 792;" xml:space="preserve">
<style type="text/css">
	.st0{display:none;}
	.st1{fill:#FEFEFE;}
	.st2{fill:#6A6A69;}
</style>
<g>
	<path class="st0" d="M612,139.9c0,170.9,0,341.8,0,512.7c-204,0-408,0-612,0c0-170.9,0-341.8,0-512.7
		C204,139.9,408,139.9,612,139.9z M407.2,454.6c5.9-5.8,11.7-11.4,17.4-17.1c7.2-7.1,14.3-14.3,21.4-21.4
		c6.4-6.4,12.8-12.8,19.3-19.2c1.1-1,0.9-1.7,0-2.5c-2.3-2.3-4.6-4.6-6.9-6.9c-80.2-80.1-160.4-160.2-240.5-240.3
		c-0.6-0.6-1.2-1.2-1.6-1.5c-19.8,19.8-39.5,39.5-59.2,59.1C240.3,287.9,323.8,371.2,407.2,454.6z M338.4,407.2
		c-60.6,60.5-121.2,121.1-181.7,181.5c19.6,19.5,39.3,39.3,58.9,58.8c60.5-60.5,121.1-121.1,181.6-181.5
		C377.7,446.5,357.9,426.8,338.4,407.2z"/>
	<path class="st1" d="M612,139.9c-204,0-408,0-612,0c0.1-0.2,0.2-0.4,0.2-0.5c0.6,0,1.3,0,1.9,0c202.6,0,405.1,0,607.7,0
		C610.6,139.4,611.3,139.7,612,139.9z"/>
	<path class="st2" d="M407.2,454.6c-83.5-83.4-166.9-166.7-250.1-249.8c19.6-19.6,39.3-39.3,59.2-59.1c0.4,0.3,1,0.9,1.6,1.5
		c80.2,80.1,160.4,160.2,240.5,240.3c2.3,2.3,4.6,4.6,6.9,6.9c0.9,0.9,1.1,1.5,0,2.5c-6.5,6.3-12.9,12.8-19.3,19.2
		c-7.1,7.1-14.3,14.3-21.4,21.4C418.9,443.1,413.1,448.8,407.2,454.6z"/>
	<path class="st2" d="M338.4,407.2c19.6,19.5,39.3,39.3,58.8,58.8c-60.5,60.5-121.2,121.1-181.6,181.5
		c-19.6-19.6-39.3-39.3-58.9-58.8C217.2,528.3,277.8,467.7,338.4,407.2z"/>
</g>
</svg>
