<?xml version="1.0" encoding="utf-8"?>
<!-- Generator: Adobe Illustrator 26.0.1, SVG Export Plug-In . SVG Version: 6.00 Build 0)  -->
<svg version="1.1" id="Layer_1" xmlns="http://www.w3.org/2000/svg" xmlns:xlink="http://www.w3.org/1999/xlink" x="0px" y="0px"
	 viewBox="0 0 612 792" style="enable-background:new 0 0 612 792;" xml:space="preserve">
<style type="text/css">
	.st0{display:none;}
	.st1{fill:#FFFFFF;}
</style>
<g>
	<path class="st0" d="M612,139.9c0,170.9,0,341.8,0,512.7c-204,0-408,0-612,0c0-170.9,0-341.8,0-512.7
		C204,139.9,408,139.9,612,139.9z M398.1,646.8c19.8-19.8,39.5-39.5,59.2-59c-83.4-83.3-166.9-166.7-250-249.7
		c-19.7,19.6-39.5,39.3-59.2,58.9C231.3,480.2,314.8,563.6,398.1,646.8z M216.7,326c19.9,19.9,39.7,39.8,59.3,59.4
		c60.5-60.5,121.2-121.1,181.8-181.5c-19.7-19.7-39.5-39.5-59.3-59.3C337.9,205,277.2,265.7,216.7,326z"/>
	<path class="st1" d="M612,139.9c-204,0-408,0-612,0c0.1-0.2,0.2-0.4,0.2-0.5c0.6,0,1.3,0,1.9,0c202.6,0,405.1,0,607.7,0
		C610.6,139.4,611.3,139.7,612,139.9z"/>
	<path class="st1" d="M398.1,646.8C314.8,563.6,231.3,480.2,148,397c19.7-19.6,39.5-39.3,59.2-58.9c83.1,83,166.6,166.4,250,249.7
		C437.6,607.3,417.9,627,398.1,646.8z"/>
	<path class="st1" d="M216.7,326c60.4-60.4,121.1-121,181.7-181.5c19.8,19.8,39.6,39.6,59.3,59.3C397.2,264.3,336.6,324.9,276,385.4
		C256.5,365.8,236.6,346,216.7,326z"/>
</g>
</svg>
