<?xml version="1.0" encoding="utf-8"?>
<!-- Generator: Adobe Illustrator 26.0.1, SVG Export Plug-In . SVG Version: 6.00 Build 0)  -->
<svg version="1.1" id="Layer_1" xmlns="http://www.w3.org/2000/svg" xmlns:xlink="http://www.w3.org/1999/xlink" x="0px" y="0px"
	 viewBox="0 0 612 792" style="enable-background:new 0 0 612 792;" xml:space="preserve">
<style type="text/css">
	.st0{display:none;}
	.st1{fill:#FEFEFE;}
	.st2{fill:#686868;}
	.st3{fill:#6A6A6A;}
	.st4{fill:#676767;}
	.st5{fill:#585858;}
</style>
<g>
	<path class="st0" d="M612.5,139.5c0,171.2,0,342.3,0,513.5c-204.2,0-408.3,0-612.5,0c0-171.1,0-342.3,0-513.5
		C204.3,139.5,408.4,139.5,612.5,139.5z M309.1,326.8c0.7,0.5,1.4,0.9,2,1.5c7.3,7.1,14.6,14.3,21.9,21.4
		c20.7,20.2,41.3,40.4,62,60.5c13.4,13.1,26.7,26.1,40.1,39.1c6.9,6.7,13.8,13.5,20.7,20.2c8.9,8.7,17.9,17.5,26.8,26.2
		c1.2,1.2,2.5,2.4,3.8,3.6c9.1,9,18.2,18,27.4,27c8.7,8.5,17.5,17,25.9,25.3c16.6-16.6,33.3-33.3,50.6-50.6
		c-0.4-0.2-1.3-0.6-1.9-1.2c-9.4-9.1-18.6-18.3-28-27.4c-13.3-13-26.7-25.9-40.1-38.9c-6.5-6.3-12.8-12.7-19.2-19
		c-1.5-1.5-3.1-2.9-4.7-4.3c-6.3-6.3-12.6-12.6-19-18.9c-13.4-13.1-26.9-26.1-40.4-39.2c-7-6.8-13.9-13.8-20.9-20.7
		c-14.1-13.8-28.3-27.6-42.5-41.4c-18.6-18.2-37.1-36.3-55.7-54.5c-2.7-2.7-5.5-5.3-8.4-8c-0.8,0.8-1.4,1.3-1.9,1.8
		c-8.3,8.3-16.7,16.7-25,25c-7.5,7.6-15.1,15.2-22.6,22.8c-0.8,0.8-1.6,1.6-2.4,2.4c-1.4,1.3-2.7,2.6-4.1,4
		c-27.1,26.9-54.2,53.8-81.2,80.7c-28.8,28.6-57.7,57.3-86.4,86c-16.6,16.6-32.9,33.3-49.5,50.1c-0.2-0.3-0.1-0.1,0.1,0.1
		c15.7,15.7,31.5,31.5,47.2,47.3c1.4,1.4,2.1,1,3.3-0.2c5.7-5.7,11.5-11.3,17.2-17c30.3-30.1,60.5-60.1,90.8-90.2
		c15.4-15.3,30.8-30.6,46.1-45.9c10.8-10.8,21.6-21.6,32.4-32.4c11.4-11.4,22.9-22.8,34.3-34.1C308.3,327.5,308.7,327.1,309.1,326.8
		z"/>
	<path class="st1" d="M612.5,139.5c-204.1,0-408.2,0-612.5,0C0,310.7,0,481.9,0,653c-0.2-0.1-0.4-0.2-0.5-0.2c0-0.6,0-1.3,0-1.9
		c0-170.6,0-341.2,0-511.9c1.4,0,2.8,0,4.2,0c202.2,0,404.5,0,606.7,0C611.1,139,611.8,139.3,612.5,139.5z"/>
	<path class="st2" d="M308,327.9c-11.4,11.4-22.9,22.7-34.3,34.1c-10.8,10.8-21.6,21.6-32.4,32.4c-15.4,15.3-30.8,30.6-46.1,45.9
		c-30.2,30.1-60.5,60.2-90.8,90.2c-5.7,5.7-11.5,11.3-17.2,17c-1.1,1.1-1.9,1.5-3.3,0.2c-15.7-15.8-31.5-31.5-47.2-47.3
		c-0.2-0.2-0.3-0.4-0.1-0.1C53.1,483.7,69.5,467,86,450.4c28.7-28.7,57.6-57.3,86.4-86c27.1-26.9,54.1-53.8,81.2-80.7
		c1.3-1.3,2.7-2.6,4.1-4c0.6,0.2,1.3,0.4,1.7,0.8c5.2,5,10.3,10,15.5,15c3.6,3.5,7.1,7.1,10.7,10.7c1.9,1.9,3.8,3.6,5.7,5.5
		c3.3,3.2,6.6,6.5,9.9,9.8C303.4,323.6,305.7,325.7,308,327.9z"/>
	<path class="st3" d="M260.1,277.4c7.5-7.6,15-15.2,22.6-22.8c8.3-8.4,16.7-16.7,25-25c0.6-0.6,1.1-1.1,1.9-1.8
		c2.8,2.7,5.6,5.3,8.4,8c18.6,18.2,37.1,36.3,55.7,54.5c14.1,13.8,28.3,27.6,42.5,41.4c7,6.9,13.9,13.8,20.9,20.7
		c13.4,13.1,26.9,26.1,40.4,39.2c6.4,6.2,12.7,12.6,19,18.9c0.8,1.1,1.6,2.3,2.5,3.4c1.9,2.6,3.5,5.4,6.7,6.7
		c0.5,0.2,0.8,0.8,1.1,1.2c2.3,3.2,4.7,6.4,7.2,9.8c-1.9,2.7-5.2,5-5.6,9c2.9,0,3.1,0.4,1.9,4.5c-1.3,0-2.8-0.4-3.8,0.1
		c-0.9,0.4-1.3,1.9-1.9,3c1,0,1.6-0.5,2.3-0.7c0.6-0.2,1.3,0,2,0.1c-0.1,0.6-0.1,1.3-0.2,1.9c-0.1,0.5-0.8,1.1-0.7,1.4
		c0.8,2.3-0.3,2.8-2.4,2.2c0.2,1.6,0.3,2.8,0.5,4.3c-0.9,0-1.6,0-2.4,0c0.1,1.5,0.2,2.9,0.3,4.3c-1.3,0-2.7,0-4.3,0
		c0,0.3,0.1,1.5,0.3,1.5c3.5,0.5,1.4,2.5,1.1,4.1c2.2,1.1,0.7,2.8,0.5,4.3c0,0.2-1.1,0.5-1.7,0.4c-0.9-0.1-2.5-0.9-2.6-0.7
		c-0.8,1.3-1.5,2.8-2,4.4c-0.2,0.9,0.1,2,0.2,3.4c0.4,2,0.9,4.4,1.3,6.8c-0.3-0.1-0.6-0.2-0.9-0.3c-1.1,0.7-2.2,1.4-3.2,2.1
		c-2.4,1.8-1.3,4.2-1.2,6.4c0,0.6-0.1,1.1-0.2,1.7c-0.5-0.2-1.1-0.3-1.6-0.6c-0.9-0.5-1.7-1.1-2.6-1.6c-0.2,0.2-0.5,0.5-0.7,0.7
		c0.4,0.6,0.8,1.3,1.2,1.9c0.6,0.9,1.2,1.7,1.7,2.6c-0.9,0.2-1.8,0.5-2.8,0.7c-1.3-1.2-2.6-2.4-3.8-3.6
		c-8.9-8.7-17.9-17.5-26.8-26.2c-6.9-6.7-13.8-13.5-20.7-20.2c-13.4-13.1-26.7-26.1-40.1-39.1c-20.7-20.2-41.3-40.4-62-60.5
		c-7.3-7.1-14.6-14.3-21.9-21.4c-0.6-0.6-1.4-1-2-1.5c-0.5-0.7-0.9-1.5-1.4-2.1c-4.7-4.6-9.5-9.1-14.1-13.7
		c-10.7-10.5-21.3-21-32-31.5C260.9,278.9,260.6,278.1,260.1,277.4z"/>
	<path class="st4" d="M486.5,499.4c0.9-0.2,1.8-0.5,2.8-0.7c-0.6-0.9-1.2-1.7-1.7-2.6c-0.4-0.6-0.8-1.3-1.2-1.9
		c0.2-0.2,0.5-0.5,0.7-0.7c0.9,0.5,1.7,1.1,2.6,1.6c0.5,0.3,1.1,0.4,1.6,0.6c0.1-0.6,0.2-1.2,0.2-1.7c-0.1-2.3-1.2-4.7,1.2-6.4
		c1-0.8,2.1-1.4,3.2-2.1c0.3,0.1,0.6,0.2,0.9,0.3c-0.5-2.4-0.9-4.8-1.3-6.8c-0.1-1.4-0.5-2.5-0.2-3.4c0.4-1.5,1.1-3,2-4.4
		c0.1-0.2,1.7,0.6,2.6,0.7c0.6,0.1,1.7-0.2,1.7-0.4c0.1-1.5,1.7-3.2-0.5-4.3c0.4-1.6,2.4-3.6-1.1-4.1c-0.2,0-0.2-1.2-0.3-1.5
		c1.7,0,3,0,4.3,0c-0.1-1.4-0.2-2.7-0.3-4.3c0.9,0,1.5,0,2.4,0c-0.2-1.5-0.3-2.7-0.5-4.3c2.1,0.6,3.2,0.1,2.4-2.2
		c-0.1-0.3,0.6-0.9,0.7-1.4c0.2-0.6,0.2-1.2,0.2-1.9c-0.7,0-1.4-0.2-2-0.1c-0.7,0.2-1.3,0.7-2.3,0.7c0.6-1,1-2.5,1.9-3
		c1-0.5,2.5-0.1,3.8-0.1c1.1-4.2,1-4.6-1.9-4.5c0.4-4.1,3.7-6.3,5.6-9c-2.5-3.4-4.8-6.6-7.2-9.8c-0.3-0.4-0.7-1-1.1-1.2
		c-3.2-1.3-4.8-4.2-6.7-6.7c-0.8-1.1-1.6-2.3-2.5-3.4c1.6,1.4,3.2,2.8,4.7,4.3c6.4,6.3,12.8,12.7,19.2,19
		c13.3,13,26.7,25.9,40.1,38.9c9.4,9.1,18.6,18.3,28,27.4c0.6,0.6,1.5,0.9,1.9,1.2c-17.2,17.2-33.9,33.9-50.6,50.6
		c-8.5-8.3-17.2-16.8-25.9-25.3C504.7,517.4,495.6,508.4,486.5,499.4z M499.7,474.2c-0.2-0.2-0.4-0.4-0.6-0.5
		c-0.6,0.5-1.4,1-1.6,1.6c-0.1,0.5,0.6,1.2,0.9,1.9c0.2-0.1,0.5-0.2,0.7-0.3C499.3,476,499.5,475.1,499.7,474.2z M497.4,488.2
		c-0.8-0.5-1.5-1.1-1.7-1c-0.6,0.4-1.1,1-1.4,1.6c-0.1,0.1,0.9,1,1.1,1C496,489.5,496.5,488.9,497.4,488.2z M502.7,465.6
		c-0.2,0.3-0.4,0.6-0.6,0.9c0.8,0.6,1.6,1.1,2.4,1.7c0.2-0.3,0.4-0.5,0.6-0.8C504.2,466.8,503.5,466.2,502.7,465.6z M505.9,465.6
		c0.1-0.1,0.3-0.3,0.4-0.4c-0.3-0.3-0.6-0.5-0.9-0.8c-0.1,0.1-0.2,0.2-0.3,0.3C505.4,465,505.7,465.3,505.9,465.6z M512.4,437.5
		c-0.1-0.1-0.3-0.2-0.4-0.2c-0.1,0-0.1,0.2-0.2,0.4c0.1,0.1,0.3,0.2,0.4,0.2C512.4,437.8,512.4,437.6,512.4,437.5z"/>
	<path class="st5" d="M260.1,277.4c0.5,0.7,0.8,1.5,1.4,2.1c10.6,10.5,21.3,21,32,31.5c4.7,4.6,9.4,9.1,14.1,13.7
		c0.6,0.6,1,1.4,1.4,2.1c-0.4,0.4-0.7,0.8-1.1,1.1c-2.3-2.2-4.5-4.3-6.8-6.5c-3.3-3.2-6.6-6.5-9.9-9.8c-1.9-1.8-3.8-3.6-5.7-5.5
		c-3.6-3.5-7.1-7.1-10.7-10.7c-5.1-5-10.3-10.1-15.5-15c-0.4-0.4-1.1-0.5-1.7-0.8C258.5,279,259.3,278.2,260.1,277.4z"/>
	<path class="st3" d="M499.7,474.2c-0.2,0.9-0.4,1.8-0.6,2.7c-0.2,0.1-0.5,0.2-0.7,0.3c-0.3-0.6-1-1.4-0.9-1.9
		c0.2-0.7,1-1.1,1.6-1.6C499.4,473.8,499.6,474,499.7,474.2z"/>
	<path class="st3" d="M497.4,488.2c-0.9,0.7-1.4,1.3-2,1.6c-0.2,0.1-1.2-0.9-1.1-1c0.4-0.6,0.8-1.3,1.4-1.6
		C495.9,487.1,496.6,487.7,497.4,488.2z"/>
	<path class="st3" d="M502.7,465.6c0.8,0.6,1.5,1.2,2.3,1.7c-0.2,0.3-0.4,0.5-0.6,0.8c-0.8-0.6-1.6-1.1-2.4-1.7
		C502.3,466.2,502.5,465.9,502.7,465.6z"/>
	<path class="st3" d="M505.9,465.6c-0.3-0.3-0.5-0.6-0.8-0.9c0.1-0.1,0.2-0.2,0.3-0.3c0.3,0.3,0.6,0.5,0.9,0.8
		C506.2,465.3,506.1,465.4,505.9,465.6z"/>
	<path class="st3" d="M512.4,437.5c-0.1,0.1-0.1,0.3-0.2,0.4c-0.1,0-0.3-0.1-0.4-0.2c0.1-0.1,0.1-0.3,0.2-0.4
		C512.2,437.3,512.3,437.4,512.4,437.5z"/>
</g>
</svg>
