<?xml version="1.0" encoding="utf-8"?>
<!-- Generator: Adobe Illustrator 27.3.1, SVG Export Plug-In . SVG Version: 6.00 Build 0)  -->
<svg version="1.1" id="Layer_1" xmlns="http://www.w3.org/2000/svg" xmlns:xlink="http://www.w3.org/1999/xlink" x="0px" y="0px"
	 viewBox="0 0 1415 1286" style="enable-background:new 0 0 1415 1286;" xml:space="preserve">
<style type="text/css">
	.st0{display:none;}
	.st1{fill:#FFFFFF;}
</style>
<g>
	<path class="st0" d="M0,1286C0,857.33,0,428.67,0,0c471.67,0,943.33,0,1415,0c0,428.67,0,857.33,0,1286
		C943.33,1286,471.67,1286,0,1286z M666.81,709.82c-12.01,1.11-23.82,1.51-35.37,3.42c-25.23,4.18-50.64,7.91-75.42,14.08
		c-29.09,7.25-57.86,16.08-86.25,25.73c-35.2,11.98-69.35,26.78-102.37,43.95c-30.09,15.64-59.99,31.67-89.64,48.11
		c-17.36,9.62-34.16,20.26-51.06,30.69c-17.76,10.96-35.5,21.97-52.96,33.41c-22.4,14.67-44.58,29.67-66.71,44.74
		c-20.69,14.08-41.28,28.3-61.73,42.73c-9.56,6.75-9.59,7.87-5.46,18.96c0.46,1.23,0.74,2.53,1.2,3.77
		c5.58,15.2,14.43,27.58,28.67,36.14c5.93,3.56,10.69,2.62,15.61-0.59c18.41-12,36.64-24.25,55.04-36.26
		c39.69-25.91,79.2-52.1,119.26-77.44c24.36-15.41,49.23-30.1,74.52-43.91c32.48-17.74,65.43-34.65,98.55-51.16
		c15.43-7.69,31.54-14.18,47.72-20.19c22.04-8.18,44.15-16.46,66.77-22.72c24.41-6.76,49.31-12.09,74.27-16.44
		c20.17-3.51,40.72-5.59,61.18-6.55c20.04-0.94,40.19,0.04,60.27,0.78c11.89,0.44,23.82,1.48,35.59,3.23
		c15.83,2.35,31.52,5.67,47.28,8.54c26.66,4.85,52.51,12.76,78.03,21.62c18.36,6.38,36.38,13.81,54.28,21.4
		c18.52,7.86,37.06,15.81,54.97,24.95c25.43,12.98,50.59,26.56,75.32,40.82c30.07,17.34,59.73,35.4,89.28,53.62
		c18.7,11.53,36.91,23.86,55.27,35.95c17.26,11.37,34.37,22.97,51.64,34.33c15.49,10.19,31.02,20.34,46.77,30.11
		c2.75,1.71,7.53,3.01,9.98,1.77c5.96-3.04,11.51-7.24,16.5-11.77c10.99-9.97,15.66-23.6,19.83-37.29c0.52-1.71-0.63-4.86-2.07-6.07
		c-7.46-6.23-15.01-12.42-23-17.94c-23.64-16.33-47.42-32.48-71.32-48.43c-23.21-15.5-46.38-31.08-70.04-45.88
		c-26.29-16.45-53.02-32.21-79.73-47.98c-33.84-19.97-68.58-38.25-104.15-54.97c-40.81-19.18-82.62-35.73-125.86-48.63
		c-46.97-14.01-94.69-24.11-143.69-27.52c-1.57-0.11-3.1-0.75-4.77-1.18c0-24.32,0.05-48.3-0.02-72.28
		c-0.03-12.56,1.92-13.2,12.59-16.16c23.28-6.47,46.39-13.18,68.67-22.79c30.33-13.08,56.47-31.57,78.2-56.45
		c24.16-27.66,39.9-59.34,47.78-95.26c6.52-29.69,6.45-59.29,0.3-88.81c-6.74-32.38-20.51-61.59-41.12-87.68
		c-18.45-23.37-40.64-42.02-66.8-56.03c-32.46-17.38-67.17-25.89-103.97-25.18c-10.4,0.2-20.84,1.39-31.14,2.93
		c-25.39,3.79-49.36,11.89-71.86,24.39c-25.14,13.96-45.91,33.2-65.97,53.41c-5.74,5.78-6.57,11.97-4.77,19.49
		c4.26,17.79,11.89,32.44,31.84,36.28c8.42,1.62,16.61,3.51,24.07-3.93c10.56-10.52,21.37-20.95,33.1-30.12
		c34.97-27.33,74.59-36.39,118.09-27.57c28.22,5.72,52.2,19.55,72.09,40.15c12.37,12.81,21.71,27.7,28.68,44.3
		c10.44,24.85,13.18,50.52,8.84,76.67c-5.02,30.23-18.76,56.28-40.9,77.93c-16.97,16.6-36.92,27.73-59.25,34.97
		c-27.73,8.98-56.41,11.36-85.32,11.93c-8,0.16-16-0.07-24,0.08c-9.39,0.18-13.18,3.14-14.08,12.43
		c-0.96,9.89-1.22,19.87-1.25,29.81C666.73,631.25,666.81,670.22,666.81,709.82z"/>
	<path class="st1" d="M666.81,709.82c0-39.61-0.08-78.57,0.05-117.54c0.03-9.94,0.29-19.92,1.25-29.81
		c0.9-9.29,4.69-12.25,14.08-12.43c8-0.15,16,0.07,24-0.08c28.91-0.57,57.59-2.95,85.32-11.93c22.34-7.24,42.28-18.36,59.25-34.97
		c22.14-21.65,35.88-47.7,40.9-77.93c4.34-26.16,1.6-51.83-8.84-76.67c-6.98-16.6-16.31-31.49-28.68-44.3
		c-19.89-20.59-43.87-34.42-72.09-40.15c-43.51-8.82-83.13,0.24-118.09,27.57c-11.72,9.16-22.53,19.6-33.1,30.12
		c-7.46,7.43-15.65,5.55-24.07,3.93c-19.95-3.84-27.58-18.49-31.84-36.28c-1.8-7.52-0.97-13.72,4.77-19.49
		c20.06-20.21,40.82-39.45,65.97-53.41c22.51-12.5,46.48-20.6,71.86-24.39c10.3-1.54,20.74-2.73,31.14-2.93
		c36.8-0.71,71.51,7.8,103.97,25.18c26.16,14.01,48.35,32.65,66.8,56.03c20.6,26.1,34.38,55.3,41.12,87.68
		c6.14,29.52,6.22,59.11-0.3,88.81c-7.89,35.91-23.62,67.6-47.78,95.26c-21.73,24.88-47.87,43.37-78.2,56.45
		c-22.28,9.61-45.39,16.31-68.67,22.79c-10.66,2.96-12.62,3.6-12.59,16.16c0.07,23.98,0.02,47.96,0.02,72.28
		c1.66,0.42,3.2,1.07,4.77,1.18c49,3.41,96.72,13.51,143.69,27.52c43.23,12.89,85.04,29.45,125.86,48.63
		c35.57,16.71,70.31,35,104.15,54.97c26.71,15.76,53.44,31.53,79.73,47.98c23.66,14.8,46.83,30.38,70.04,45.88
		c23.9,15.96,47.67,32.1,71.32,48.43c7.99,5.52,15.54,11.71,23,17.94c1.44,1.21,2.59,4.36,2.07,6.07
		c-4.18,13.69-8.85,27.31-19.83,37.29c-4.99,4.53-10.54,8.73-16.5,11.77c-2.45,1.25-7.23-0.06-9.98-1.77
		c-15.76-9.77-31.28-19.93-46.77-30.11c-17.27-11.36-34.38-22.96-51.64-34.33c-18.35-12.09-36.57-24.42-55.27-35.95
		c-29.55-18.22-59.21-36.28-89.28-53.62c-24.73-14.26-49.89-27.84-75.32-40.82c-17.91-9.14-36.45-17.09-54.97-24.95
		c-17.9-7.6-35.92-15.03-54.28-21.4c-25.52-8.86-51.37-16.76-78.03-21.62c-15.76-2.87-31.45-6.19-47.28-8.54
		c-11.77-1.75-23.7-2.79-35.59-3.23c-20.08-0.73-40.23-1.72-60.27-0.78c-20.46,0.96-41.01,3.04-61.18,6.55
		c-24.96,4.35-49.86,9.68-74.27,16.44c-22.62,6.26-44.73,14.54-66.77,22.72c-16.18,6.01-32.29,12.5-47.72,20.19
		c-33.12,16.51-66.07,33.42-98.55,51.16c-25.29,13.81-50.16,28.5-74.52,43.91c-40.05,25.34-79.57,51.53-119.26,77.44
		c-18.4,12.01-36.63,24.27-55.04,36.26c-4.92,3.21-9.68,4.15-15.61,0.59c-14.24-8.55-23.09-20.94-28.67-36.14
		c-0.45-1.24-0.74-2.54-1.2-3.77c-4.13-11.09-4.1-12.21,5.46-18.96c20.44-14.43,41.04-28.65,61.73-42.73
		c22.13-15.07,44.31-30.07,66.71-44.74c17.46-11.44,35.2-22.45,52.96-33.41c16.9-10.43,33.7-21.07,51.06-30.69
		c29.66-16.44,59.55-32.47,89.64-48.11c33.02-17.16,67.17-31.97,102.37-43.95c28.39-9.66,57.16-18.48,86.25-25.73
		c24.77-6.18,50.18-9.9,75.42-14.08C642.99,711.33,654.79,710.94,666.81,709.82z"/>
</g>
</svg>
