<?xml version="1.0" encoding="utf-8"?>
<!-- Generator: Adobe Illustrator 26.0.1, SVG Export Plug-In . SVG Version: 6.00 Build 0)  -->
<svg version="1.1" id="Layer_1" xmlns="http://www.w3.org/2000/svg" xmlns:xlink="http://www.w3.org/1999/xlink" x="0px" y="0px"
	 viewBox="0 0 612 792" style="enable-background:new 0 0 612 792;" xml:space="preserve">
<style type="text/css">
	.st0{display:none;fill:#F1F1F1;}
	.st1{fill:#FEFEFE;}
	.st2{fill:#12151A;}
	.st3{fill:#08090C;}
	.st4{fill:#020304;}
</style>
<g>
	<path class="st0" d="M611.5,672.3c-203.7,0-407.4,0-611.1,0c-0.2-0.2-0.3-0.3-0.5-0.5C0,473.6,0,275.3,0,77c204,0,408,0,612,0
		c0,198.3,0,396.6,0,594.8C611.8,672,611.7,672.1,611.5,672.3z M293.5,190c-4.6-13.4-13.4-23.4-25.5-30.5
		c-15-8.8-31.5-10.4-48.5-9.6c-5.2,0.2-9.6,5-9.6,9.6c0,4.8,4,9.1,9.4,9.8c3.1,0.4,6.2,0.3,9.2,0.4c9.1,0.5,18.1,1.7,26.5,5.6
		c7.9,3.7,14.3,9,17.9,17.1c-0.1,0.1-0.2,0.2-0.1,0.4c-1.1,0.2-2.3,0.4-3.4,0.6c-18.9,3.6-37.4,8.6-54.8,16.8
		c-29,13.6-54.1,32.5-74.4,57.5c-13.3,16.4-24.4,34.1-32.2,53.7c-6.3,15.8-10.4,32.2-12.7,49.1c-0.4,3-1.9,3.6-4.1,4.1
		c-12.2,2.9-21.9,9.5-29.3,19.6c-10.9,14.9-13,31-5.7,48c5.7,13.3,15.6,22.3,29.6,26.2c4.9,1.4,7.5,3.7,9.1,8.8
		c7.5,23.7,19.1,45.3,34.9,64.5c12.6,15.2,27,28.3,43.9,38.6c16.5,10.1,34.1,17.7,52.5,23.6c18.2,5.8,36.9,9.2,56,10.6
		c12.9,0.9,25.7,1.9,38.6,0.6c11-1.2,22.2-1.7,33.1-3.4c17.6-2.7,34.6-7.9,51.1-14.6c15.9-6.4,31-14.4,44.9-24.4
		c12.8-9.3,23.9-20.3,33.8-32.6c10-12.4,18.5-25.7,24.9-40.4c3.7-8.7,6.9-17.6,10.2-26.5c0.6-1.7,1.4-2.6,3.2-3.2
		c4.3-1.4,8.7-2.6,12.7-4.7c15.5-8.3,23.8-21.7,25.3-38.9c1.5-17.3-6.4-31-19.2-42c-6-5.2-13.2-8.1-20.8-9.9
		c-2.1-0.5-2.7-1.5-3.1-3.5c-1.2-7.4-2.5-14.9-4.2-22.2c-4.1-17.4-10.3-34-19.2-49.5c-13-22.7-29.2-42.7-49.4-59.4
		c-19.2-15.9-40.5-28.3-64.1-36.4c-20.4-7-41.3-11.7-62.9-12.7c0-0.1,0-0.2-0.1-0.3c0.4-4.1,0.7-8.1,1.3-12.2
		c1.3-8.2,4.6-15.7,8.4-23.1c5.3-10.3,12.7-18.9,22.4-25.4c4.3-2.8,6.3-7.9,4.4-12.7c-0.5-1.4-1.7-2.9-3-3.6
		c-4.5-2.6-9.4-2.3-13.5,0.6c-4.5,3.2-8.9,6.7-12.7,10.6c-12.1,12.5-20.2,27.3-24.2,44.2c-1.7,7.1-2.6,14.3-3.9,21.8
		c-0.4,0-1.4,0-2.4,0C293.7,190.3,293.6,190.1,293.5,190z"/>
	<path class="st1" d="M0,671.8c0.2,0.2,0.3,0.3,0.5,0.5C0.3,672.1,0.2,672,0,671.8z"/>
	<path class="st1" d="M611.5,672.3c0.2-0.2,0.3-0.3,0.5-0.5C611.8,672,611.7,672.1,611.5,672.3z"/>
	<path class="st2" d="M317,190.5c21.6,1,42.5,5.7,62.9,12.7c23.6,8.1,44.9,20.5,64.1,36.4c20.2,16.7,36.4,36.7,49.4,59.4
		c8.9,15.6,15.2,32.1,19.2,49.5c1.7,7.3,3,14.8,4.2,22.2c0.3,2,1,3,3.1,3.5c7.7,1.7,14.8,4.7,20.8,9.9c12.8,11.1,20.7,24.7,19.2,42
		c-1.5,17.2-9.8,30.6-25.3,38.9c-4,2.1-8.4,3.3-12.7,4.7c-1.7,0.6-2.6,1.5-3.2,3.2c-3.3,8.9-6.4,17.8-10.2,26.5
		c-6.3,14.6-14.9,27.9-24.9,40.4c-9.9,12.3-21,23.4-33.8,32.6c-13.9,10.1-29,18-44.9,24.4c-16.5,6.7-33.5,11.8-51.1,14.6
		c-11,1.7-22.1,2.3-33.1,3.4c-12.9,1.3-25.8,0.4-38.6-0.6c-19-1.4-37.7-4.8-56-10.6c-18.4-5.9-36-13.5-52.5-23.6
		c-16.9-10.3-31.4-23.3-43.9-38.6c-15.9-19.2-27.4-40.8-34.9-64.5c-1.6-5-4.1-7.4-9.1-8.8c-14-3.9-23.8-13-29.6-26.2
		c-7.3-17-5.1-33,5.7-48c7.4-10.1,17.1-16.7,29.3-19.6c2.3-0.5,3.7-1.2,4.1-4.1c2.3-16.8,6.3-33.3,12.7-49.1
		c7.9-19.6,18.9-37.3,32.2-53.7c20.3-25,45.3-43.8,74.4-57.5c17.4-8.2,35.9-13.2,54.8-16.8c1.1-0.2,2.3-0.4,3.4-0.6
		c0.7,0.3,1.4,1,2.1,1c6-0.7,11.9-1.5,17.9-2.3c0.4-0.1,0.7-0.7,1-1c1,0,2,0,2.4,0c1.3-7.5,2.2-14.7,3.9-21.8
		c4-16.9,12.1-31.7,24.2-44.2c3.8-4,8.2-7.5,12.7-10.6c4.2-2.9,9-3.2,13.5-0.6c1.3,0.7,2.5,2.2,3,3.6c1.8,4.8-0.2,9.9-4.4,12.7
		c-9.7,6.4-17,15-22.4,25.4c-3.8,7.3-7.2,14.8-8.4,23.1c-0.6,4-0.9,8.1-1.3,12.2c-2.9-0.1-5.8-0.5-8.7-0.4c-1.7,0.1-3.7,0.2-4.2,2.6
		c-1-0.4-2-0.7-2.9-1.1c-0.2,0.2-0.3,0.4-0.5,0.7c0.9,0.7,1.7,1.9,2.6,2c1.1,0.1,2.2-0.8,3.5-1.3c-0.3,0.7-0.5,1.3-1,2.6
		c3.4-0.7,6.2-1.1,8.9-1.9C315.5,192.9,316.2,191.4,317,190.5z M113.8,391.9c-5,0.6-9.9,1.2-14.8,1.8c-13.5,1.7-23.5,12.3-24.7,24.5
		c-1.4,14.9,5.7,26.9,19.9,31.5c4.6,1.5,9.4,2.1,14.2,3c1.5,0.3,2.2,0.7,2.6,2.3c1.7,6.9,3.5,13.9,5.6,20.7
		c4.3,14.4,10.5,27.9,19.1,40.2c10.3,14.8,23,27.3,37.6,37.9c14.8,10.7,30.6,19.9,47.9,26c16.3,5.8,33.1,9.5,50.1,12.2
		c8.9,1.4,18,1.6,26.9,2.4c11.2,1,22.4-0.1,33.5-1.3c8.8-1,17.6-2.5,26.2-4.5c11.4-2.7,23-5.3,34-9.4c24.8-9.2,46.9-23.2,65.9-41.7
		c11.8-11.5,21.5-24.6,28.8-39.4c6.7-13.8,10.7-28.4,14.3-43.2c0.4-1.5,1-2,2.5-2.3c5.3-1.1,10.9-1.7,15.9-3.6
		c18.1-6.5,22.3-26.3,15.3-40.5c-4.9-10.1-14.1-14.3-25-15.4c-3.9-0.4-7.8-0.8-11.6-1.3c-0.1-0.5-0.1-0.7-0.2-0.9
		c-0.1-0.9-0.1-1.9-0.1-2.8c-0.8-22.4-6-43.8-15.1-64.3c-9.2-20.5-21-39.2-36.8-55.4c-4.5-4.6-8.6-9.7-13.8-13.4
		c-18.2-13-37.5-24.2-58.5-32.3c-17.3-6.6-35-11.1-53.5-11.8c-14.8-0.6-29.6-0.8-44.4,1.6c-11.7,1.9-23.2,4.9-34.4,9
		c-14,5.1-27.5,11.7-40.2,19.5c-7.6,4.7-15.6,9.1-22.3,14.8c-10.8,9.1-20.3,19.6-28.6,31.1c-11,15.2-19.7,31.7-26.2,49.4
		c-5.2,14.2-8.3,28.8-9.7,43.8C114.3,384.2,114.1,388.1,113.8,391.9z"/>
	<path class="st2" d="M272.9,192.5c-3.6-8.1-10-13.5-17.9-17.1c-8.4-3.9-17.4-5.1-26.5-5.6c-3.1-0.2-6.2-0.1-9.2-0.4
		c-5.3-0.6-9.4-5-9.4-9.8c0-4.6,4.5-9.4,9.6-9.6c16.9-0.8,33.5,0.9,48.5,9.6c12.1,7.1,20.9,17.1,25.5,30.5c-2.4,0.3-4.8,0.5-7.2,0.8
		C281.8,191.4,277.4,191.9,272.9,192.5z"/>
	<path class="st3" d="M317,190.5c-0.8,1-1.4,2.5-2.5,2.8c-2.7,0.9-5.5,1.2-8.9,1.9c0.5-1.3,0.7-1.9,1-2.6c-1.3,0.5-2.5,1.4-3.5,1.3
		c-0.9-0.1-1.8-1.3-2.6-2c0.2-0.2,0.3-0.4,0.5-0.7c1,0.4,1.9,0.7,2.9,1.1c0.5-2.4,2.5-2.5,4.2-2.6c2.9-0.1,5.8,0.2,8.7,0.4
		C317,190.2,317,190.3,317,190.5z"/>
	<path class="st4" d="M272.9,192.5c4.5-0.5,8.9-1.1,13.4-1.6c2.4-0.3,4.8-0.5,7.2-0.8c0.1,0.1,0.2,0.3,0.3,0.4c-0.3,0.3-0.6,1-1,1
		c-6,0.8-11.9,1.6-17.9,2.3c-0.7,0.1-1.4-0.6-2.1-1C272.8,192.7,272.8,192.5,272.9,192.5z"/>
	<path class="st0" d="M113.8,391.9c0.3-3.8,0.4-7.7,0.8-11.5c1.3-15,4.4-29.7,9.7-43.8c6.5-17.6,15.1-34.2,26.2-49.4
		c8.3-11.5,17.8-22,28.6-31.1c6.8-5.7,14.7-10.1,22.3-14.8c12.7-7.8,26.2-14.3,40.2-19.5c11.2-4.1,22.6-7,34.4-9
		c14.7-2.4,29.6-2.2,44.4-1.6c18.5,0.7,36.2,5.2,53.5,11.8c21,8.1,40.2,19.3,58.5,32.3c5.2,3.7,9.3,8.8,13.8,13.4
		c15.8,16.1,27.6,34.9,36.8,55.4c9.1,20.4,14.3,41.8,15.1,64.3c0,0.9,0.1,1.9,0.1,2.8c0,0.2,0.1,0.4,0.2,0.9
		c3.8,0.4,7.7,0.9,11.6,1.3c10.9,1.1,20,5.2,25,15.4c7,14.3,2.8,34-15.3,40.5c-5.1,1.8-10.6,2.5-15.9,3.6c-1.5,0.3-2.1,0.8-2.5,2.3
		c-3.6,14.8-7.6,29.5-14.3,43.2c-7.3,14.8-17,27.9-28.8,39.4c-19.1,18.5-41.1,32.5-65.9,41.7c-11,4.1-22.5,6.7-34,9.4
		c-8.6,2-17.4,3.5-26.2,4.5c-11.1,1.2-22.3,2.3-33.5,1.3c-9-0.8-18.1-1-26.9-2.4c-17-2.6-33.9-6.4-50.1-12.2
		c-17.3-6.2-33.1-15.3-47.9-26c-14.6-10.6-27.3-23.1-37.6-37.9c-8.6-12.3-14.8-25.8-19.1-40.2c-2-6.9-3.8-13.8-5.6-20.7
		c-0.4-1.6-1.1-2-2.6-2.3c-4.8-0.9-9.6-1.5-14.2-3c-14.2-4.5-21.3-16.6-19.9-31.5c1.2-12.2,11.2-22.8,24.7-24.5
		C103.9,393.1,108.8,392.5,113.8,391.9z M256.2,402.3c0-17.1-13.8-30.8-30.8-31c-16.9-0.1-31.3,13.5-31.3,31
		c0,17.3,13.9,31.2,31.2,31.2C242.3,433.5,256.3,419.4,256.2,402.3z M355.8,402.1c-0.1,17.4,13.7,31.3,31.2,31.3
		c16.6,0.1,30.8-14,30.9-30.6c0.1-17.6-13.7-31.6-31.1-31.6C369.2,371.3,355.6,385.8,355.8,402.1z M306.7,533.8
		c17.1,0.5,33.7-3.5,49.6-11c6.3-3,12.4-6.2,17.5-11c3.3-3.1,3.8-6.2,1.8-10.2c-3.2-6.4-8.8-8-15.3-4.3c-3.5,2-6.9,4.3-10.6,6.1
		c-15.5,7.8-32.1,10.3-49.3,9.6c-16.7-0.7-32-5.1-46-14.1c-2.2-1.4-4.6-2.5-7.1-3.2c-4.3-1.3-8.3,0.9-10.8,5.4
		c-2.3,4.1-1.7,7.9,1.9,11c2.8,2.3,5.7,4.5,8.8,6.3C265.5,528.8,285.1,534.3,306.7,533.8z"/>
	<path class="st2" d="M256.2,402.3c0,17.1-13.9,31.2-30.9,31.2c-17.3,0-31.2-13.9-31.2-31.2c0-17.4,14.4-31.1,31.3-31
		C242.4,371.4,256.2,385.1,256.2,402.3z"/>
	<path class="st2" d="M355.8,402.1c-0.2-16.3,13.4-30.8,30.9-30.8c17.4,0,31.2,13.9,31.1,31.6c-0.1,16.6-14.3,30.6-30.9,30.6
		C369.5,433.4,355.7,419.5,355.8,402.1z"/>
	<path class="st2" d="M306.7,533.8c-21.6,0.5-41.2-4.9-59.4-15.4c-3.1-1.8-6.1-4-8.8-6.3c-3.7-3.1-4.2-6.8-1.9-11
		c2.5-4.5,6.5-6.7,10.8-5.4c2.5,0.7,4.9,1.9,7.1,3.2c14.1,8.9,29.4,13.4,46,14.1c17.3,0.7,33.8-1.8,49.3-9.6c3.6-1.8,7-4.1,10.6-6.1
		c6.5-3.7,12-2.1,15.3,4.3c2,4,1.5,7.1-1.8,10.2c-5.1,4.8-11.2,8-17.5,11C340.4,530.3,323.8,534.3,306.7,533.8z"/>
</g>
</svg>
