<?xml version="1.0" encoding="utf-8"?>
<!-- Generator: Adobe Illustrator 26.0.1, SVG Export Plug-In . SVG Version: 6.00 Build 0)  -->
<svg version="1.1" id="Layer_1" xmlns="http://www.w3.org/2000/svg" xmlns:xlink="http://www.w3.org/1999/xlink" x="0px" y="0px"
	 viewBox="0 0 1920 1080" style="enable-background:new 0 0 1920 1080;" xml:space="preserve">
<style type="text/css">
	.st0{display:none;}
	.st1{fill:#FDFDFD;}
	.st2{display:none;fill:#010101;}
</style>
<g>
	<path class="st0" d="M0,1080C0,720,0,360,0,0c640,0,1280,0,1920,0c0,360,0,720,0,1080C1280,1080,640,1080,0,1080z M1143.4,349.2
		c-0.3-0.7-0.4-1-0.5-1.3c-2.3-14-4.3-28-6.9-41.9c-4.8-25-12.3-49-26.2-70.7c-14.8-23-34.5-40.4-58.3-53.2
		c-20.5-11-42.2-18.1-65.4-21.3c-36.1-5-70.6-0.1-103.8,14.6c-29.7,13.2-54.6,32.2-71.8,60.1c-6.7,11-12.3,22.8-16.8,34.9
		c-4.5,12.1-7.3,24.8-10,37.5c-2.5,11.7-4.2,23.6-5.5,35.5c-0.5,4.5-1.5,5.8-6.1,5.8c-29.2,0.2-58.4-1.4-87.5,2.8
		c-19.1,2.8-34.4,10.8-38.7,32.5c-2.6,13.2-4.6,26.6-5.7,40c-1.6,18.2-2.3,36.5-3,54.8c-0.6,14.3-0.8,28.6-1.1,42.9
		c-0.3,19-0.5,37.9-0.7,56.9c-0.3,48.5-0.7,97-0.7,145.5c0,18.4,1,36.9,1.2,55.3c0.3,21.1,2.1,42,7,62.6
		c4.9,20.7,13.7,39.4,28.2,55.2c19.4,21.2,44.2,34.4,70.2,45c31.8,13,65,21.8,99,27.2c19.2,3.1,38.4,5.5,57.8,7.2
		c21.4,1.8,42.9,3.6,64.4,3.2c27.1-0.5,54.2-2.8,81.2-5.3c17.5-1.6,35-4.5,52.3-8c23-4.7,45.7-10.7,67.9-18.7
		c25.9-9.4,50.5-20.8,72.1-38.3c22.6-18.1,35.8-41.8,42-69.6c5.9-26.4,6.8-53.4,7-80.3c0.3-28.9,0.1-57.7,0.1-86.6
		c-0.1-37-0.1-73.9-0.4-110.8c-0.2-17.8-0.9-35.5-1.5-53.2c-0.9-25.4-1.3-50.8-3-76.1c-1.1-16.6-3.3-33.3-6.4-49.6
		c-2.7-14.3-11.5-24.2-26.1-28.7c-15.1-4.7-30.6-4.9-46-5.5C1182.3,348.6,1163,349.2,1143.4,349.2z"/>
	<path class="st1" d="M1143.4,349.2c19.6,0,39-0.5,58.3,0.2c15.4,0.5,30.9,0.8,46,5.5c14.7,4.5,23.4,14.4,26.1,28.7
		c3.1,16.4,5.3,33,6.4,49.6c1.7,25.3,2.1,50.7,3,76.1c0.6,17.7,1.4,35.5,1.5,53.2c0.3,36.9,0.3,73.9,0.4,110.8
		c0,28.9,0.2,57.7-0.1,86.6c-0.3,26.9-1.2,53.9-7,80.3c-6.2,27.8-19.4,51.5-42,69.6c-21.6,17.4-46.2,28.9-72.1,38.3
		c-22.2,8-44.9,14.1-67.9,18.7c-17.3,3.5-34.8,6.3-52.3,8c-27,2.5-54.1,4.8-81.2,5.3c-21.4,0.4-43-1.3-64.4-3.2
		c-19.3-1.6-38.6-4.1-57.8-7.2c-34-5.4-67.2-14.2-99-27.2c-26-10.7-50.8-23.8-70.2-45c-14.4-15.8-23.2-34.4-28.2-55.2
		c-4.9-20.6-6.7-41.5-7-62.6c-0.2-18.4-1.2-36.9-1.2-55.3c0-48.5,0.4-97,0.7-145.5c0.1-19,0.3-37.9,0.7-56.9
		c0.2-14.3,0.5-28.6,1.1-42.9c0.8-18.3,1.4-36.6,3-54.8c1.2-13.4,3.1-26.8,5.7-40c4.3-21.7,19.6-29.7,38.7-32.5
		c29.1-4.2,58.3-2.7,87.5-2.8c4.6,0,5.6-1.3,6.1-5.8c1.3-11.9,3-23.8,5.5-35.5c2.7-12.6,5.5-25.4,10-37.5
		c4.4-12.1,10.1-23.9,16.8-34.9c17.1-27.9,42.1-46.9,71.8-60.1c33.2-14.7,67.7-19.6,103.8-14.6c23.2,3.2,44.9,10.2,65.4,21.3
		c23.8,12.9,43.6,30.3,58.3,53.2c13.9,21.7,21.4,45.7,26.2,70.7c2.7,13.9,4.6,27.9,6.9,41.9C1142.9,348.1,1143.1,348.4,1143.4,349.2
		z M772.8,407.4c-12.8,0.9-24.9,0.9-36.7,2.9c-15.7,2.7-24.9,7.8-28.9,26.2c-2.6,11.9-4,24-5,36.1c-1.2,14.6-1.7,29.2-2.1,43.8
		c-0.8,31.2-1.4,62.5-2,93.7c-0.4,19.1-0.7,38.3-1,57.4c-0.4,26.6-0.8,53.2-1.2,79.8c-0.3,19.2-0.4,38.4,3.1,57.4
		c3.7,20,11.9,37.7,26.4,52.3c15.1,15,33.2,25.6,52.4,33.6c19.1,8,39.2,14,59.1,19.8c13.2,3.8,26.8,6.3,40.4,8.4
		c15.2,2.3,30.5,4,45.8,5.2c15.8,1.2,31.8,2.3,47.6,1.7c19.3-0.7,38.6-2.7,57.8-4.9c12.9-1.5,25.8-3.5,38.3-6.6
		c17.9-4.4,35.8-9.5,53.3-15.3c24.5-8.1,47.4-19.3,67.6-36c16-13.2,25.9-29.8,31.3-49.5c5.5-20.3,5.4-41.2,5.4-62
		c-0.1-31.1-1.5-62.3-2.2-93.4c-0.5-26.4-0.6-52.9-1.2-79.3c-0.7-30.1-1.6-60.3-2.9-90.4c-0.7-16.3-2-32.6-4.3-48.7
		c-1.7-11.4-6.3-21.9-18.6-26.2c-15.5-5.3-31.6-5.5-47.9-5.5c0.6,15.8,1.2,31.1,1.8,46.1c11.9,8.1,19.8,18.5,23.2,32.4
		c5.2,21.3-0.6,39.6-16.5,53.8c-18.4,16.3-43.7,18.4-65.5,4.7c-17.9-11.2-27.8-35.1-23.5-55.6c2.6-12.7,8.7-22.8,18.3-31.1
		c1.1-1,1.9-3.1,1.9-4.6c-0.1-6.5-0.6-12.9-0.9-19.4c-0.4-8.7-0.7-17.4-1.1-26c-83.6,0-166.6,0-249.8,0c-0.6,14.2-1.1,28.1-1.7,42
		c-0.1,3.2-1.1,6.2,2.2,8.9c16.3,13.2,21.5,31.3,17.8,50.7c-6.3,32.8-38.3,51.1-69.5,41.3c-19.6-6.1-32-20-36.6-39.8
		c-4.4-19.5,0.7-37,15.7-50.6c5.7-5.2,9.9-10.2,8.1-18.3c-0.2-0.8,0.1-1.7,0.1-2.5C771.7,429.4,772.2,418.9,772.8,407.4z
		 M1080.5,348.9c-2-18.4-4.8-36.2-10.4-53.5c-7.4-22.6-19.9-41.2-40.2-54.4c-20.6-13.4-43.1-20.3-67.4-20.9
		c-24.1-0.6-46.7,5.6-67.6,17.8c-19.9,11.6-34.3,28.1-41.8,49.8c-4.6,13.3-7.7,27-10.9,40.7c-1.5,6.6-1.8,13.5-2.6,20.5
		C920.2,348.9,999.9,348.9,1080.5,348.9z"/>
	<path class="st2" d="M772.8,407.4c-0.5,11.5-1,22-1.5,32.5c0,0.8-0.3,1.7-0.1,2.5c1.8,8.1-2.4,13.1-8.1,18.3
		c-15,13.6-20.1,31.1-15.7,50.6c4.5,19.9,16.9,33.7,36.6,39.8c31.3,9.8,63.3-8.5,69.5-41.3c3.7-19.4-1.5-37.5-17.8-50.7
		c-3.3-2.7-2.4-5.7-2.2-8.9c0.6-13.9,1.1-27.8,1.7-42c83.2,0,166.3,0,249.8,0c0.4,8.6,0.7,17.3,1.1,26c0.3,6.5,0.8,12.9,0.9,19.4
		c0,1.6-0.7,3.7-1.9,4.6c-9.6,8.4-15.7,18.5-18.3,31.1c-4.3,20.6,5.7,44.5,23.5,55.6c21.8,13.6,47.1,11.6,65.5-4.7
		c15.9-14.1,21.7-32.4,16.5-53.8c-3.4-13.9-11.2-24.3-23.2-32.4c-0.6-14.9-1.2-30.3-1.8-46.1c16.3-0.1,32.4,0.1,47.9,5.5
		c12.3,4.3,17,14.8,18.6,26.2c2.3,16.1,3.6,32.4,4.3,48.7c1.4,30.1,2.2,60.3,2.9,90.4c0.6,26.4,0.7,52.9,1.2,79.3
		c0.6,31.1,2.1,62.3,2.2,93.4c0.1,20.7,0.2,41.6-5.4,62c-5.4,19.7-15.3,36.3-31.3,49.5c-20.2,16.7-43.1,27.9-67.6,36
		c-17.5,5.8-35.4,10.9-53.3,15.3c-12.6,3.1-25.4,5.1-38.3,6.6c-19.2,2.2-38.5,4.2-57.8,4.9c-15.8,0.5-31.8-0.5-47.6-1.7
		c-15.3-1.1-30.6-2.8-45.8-5.2c-13.6-2.1-27.2-4.6-40.4-8.4c-20-5.8-40-11.8-59.1-19.8c-19.2-8-37.4-18.6-52.4-33.6
		c-14.6-14.5-22.7-32.3-26.4-52.3c-3.5-19-3.4-38.2-3.1-57.4c0.4-26.6,0.8-53.2,1.2-79.8c0.3-19.1,0.6-38.3,1-57.4
		c0.6-31.2,1.2-62.5,2-93.7c0.4-14.6,0.9-29.2,2.1-43.8c1-12.1,2.4-24.3,5-36.1c4-18.4,13.2-23.5,28.9-26.2
		C747.9,408.3,760,408.4,772.8,407.4z"/>
	<path class="st2" d="M1080.5,348.9c-80.5,0-160.3,0-240.9,0c0.8-7,1-13.9,2.6-20.5c3.2-13.7,6.3-27.5,10.9-40.7
		c7.5-21.7,21.9-38.1,41.8-49.8c20.9-12.2,43.4-18.4,67.6-17.8c24.3,0.6,46.8,7.4,67.4,20.9c20.3,13.3,32.9,31.8,40.2,54.4
		C1075.7,312.7,1078.4,330.4,1080.5,348.9z"/>
</g>
</svg>
