<?xml version="1.0" encoding="utf-8"?>
<!-- Generator: Adobe Illustrator 26.0.1, SVG Export Plug-In . SVG Version: 6.00 Build 0)  -->
<svg version="1.1" id="Layer_1" xmlns="http://www.w3.org/2000/svg" xmlns:xlink="http://www.w3.org/1999/xlink" x="0px" y="0px"
	 viewBox="0 0 1920 1080" style="enable-background:new 0 0 1920 1080;" xml:space="preserve">
<style type="text/css">
	.st0{display:none;fill:#010101;}
	.st1{fill:#FDFDFC;}
	.st2{fill:#FDFDFD;}
	.st3{fill:#FDFCFC;}
	.st4{fill:#FCFCFC;}
	.st5{fill:#010101;}
	.st6{display:none;fill:#010201;}
	.st7{fill:#FCFCFB;}
	.st8{display:none;fill:#020202;}
	.st9{fill:#FEFEFE;}
</style>
<g>
	<path class="st0" d="M1554,0c66.7,0,133.3,0,200,0c2.6,5.5,5.3,10.9,7.6,16.5c8.6,20.5,17.5,40.9,25.5,61.7
		c10,26.2,20.4,52.5,28.6,79.3c10.7,35.2,19.8,70.9,28.8,106.5c5.4,21.4,9.8,43,13.4,64.7c4.3,25.5,7.8,51.2,10.8,77
		c2.6,22.6,5,45.3,6,68c1.3,27.4,1.4,54.9,1.4,82.4c-0.1,39.8-2.6,79.5-7.3,119c-3.4,28.8-7.9,57.5-12.7,86.1
		c-6.4,37.8-15,75.2-25.7,112.1c-7.3,25.4-14.7,50.8-23.6,75.6c-11.6,32.4-24.6,64.3-37.2,96.3c-4.7,11.8-10.2,23.2-15.4,34.8
		c-67,0-134,0-201,0c0.1-0.5,0.2-1,0.4-1.4c19.8-35.2,37.8-71.3,53.9-108.4c16.3-37.4,30.4-75.6,42.2-114.6
		c8.3-27.3,15.4-55.1,21.4-83c6.9-32.3,13.1-64.9,17.7-97.6c4.1-29.9,6.3-60.2,8.1-90.4c1.3-21.9,0.8-44,0.6-66
		c-0.4-36.4-3-72.8-8.2-108.9c-3.5-24.7-6.7-49.5-11.5-73.9c-8.4-42.6-18.9-84.7-32.6-125.8c-7.9-23.6-16.3-46.9-25.4-70
		c-8.5-21.6-17.7-43-27.6-63.9c-10.2-21.6-21.7-42.6-32.5-63.9C1557.3,8.2,1555.8,4,1554,0z"/>
	<path class="st0" d="M1500,1080c-70,0-140,0-210,0c1.2-1.9,2.4-3.9,3.8-5.8c13-18.1,26.7-35.8,39-54.4c12-18.2,23.2-37,33.5-56.3
		c13.5-25.2,26.6-50.7,38.3-76.8c19.5-43.6,34.9-88.7,46.5-135c10-40.1,18.3-80.4,21.9-121.6c2.2-24.7,4.1-49.4,4.9-74.2
		c1-31.6,0.3-63.2-3.7-94.7c-1.7-13.6-2.1-27.4-4.3-40.9c-3.5-22.1-7.2-44.2-12.4-65.9c-6.1-26-13.1-51.8-21.1-77.2
		c-12.8-41-28.6-80.9-48.1-119.1c-13.2-25.9-27.5-51.3-42.2-76.5c-16.7-28.8-35.8-56-57.1-81.6c70.3,0,140.7,0,211,0
		c11.5,20.7,23.7,41.1,34.2,62.2c13.7,27.6,26.8,55.5,38.9,83.8c15.4,36.3,27.9,73.7,38.6,111.7c9.4,33.1,17.3,66.6,23.4,100.5
		c6.6,36.4,11.5,73.1,14,110.1c2.3,34.7,3.8,69.5,1.8,104.3c-1.7,29.5-4.2,58.9-6.9,88.4c-1.5,15.7-3.6,31.3-6.5,46.8
		c-4.4,23.6-9.4,47-14.5,70.4c-7.6,34.6-17.8,68.4-29.7,101.7c-7.4,20.8-15,41.5-24,61.6c-13.7,30.8-28.3,61.2-43.2,91.4
		C1518.2,1049,1508.8,1064.3,1500,1080z"/>
	<path class="st0" d="M1018,1080c-112,0-224,0-336,0c0.4-0.7,0.8-1.8,1.4-1.9c2.6-0.5,5.2-0.7,7.8-1.1c26.4-4.2,52.4-10.1,77.9-18
		c34-10.5,66.9-24,98.3-40.8c27-14.5,52.7-31,77.1-49.6c30.8-23.6,58.5-50.3,83.3-80c28.1-33.7,51.7-70.4,70.7-110
		c10.2-21.2,19.3-42.8,26.7-65.1c10.3-31.2,19-62.8,23-95.5c2.5-20.2,4.9-40.5,5.8-60.9c1.3-29.6,0.1-59.2-4.8-88.4
		c-3-18.2-5.4-36.5-10.1-54.3c-6.2-23.4-13.8-46.6-21.8-69.5c-10.7-30.7-25.5-59.5-42.2-87.3c-16.3-27.1-34.9-52.5-55.7-76.4
		C989,146.7,954.7,116.7,916.6,91c-34.1-23-70.4-41.8-108.7-56.7c-28.7-11.1-58-20.2-88.2-26.3c-11-2.2-22.1-4-33.1-6.1
		c-0.9-0.2-1.7-1.3-2.5-1.9c111.3,0,222.7,0,334,0c0.3,0.5,0.4,1.2,0.9,1.6c12.6,10.2,25.3,20.2,37.7,30.6
		c30.3,25.4,57.1,54.3,81.6,85.1c26.3,33,49.3,68.3,69,105.6c20.8,39.3,37.7,80.1,50.5,122.6c8.9,29.4,16.5,59.1,20.4,89.6
		c2.8,22.2,6.4,44.4,7.6,66.7c2.4,43.9,1,87.8-5.6,131.4c-5.1,33.8-12.2,67.2-22.2,99.9c-15.4,50.5-36,98.8-62.3,144.6
		c-17.3,30.1-36.4,59.1-58.8,85.8c-13.3,15.9-26.9,31.6-41,46.8c-9.3,9.9-19.6,18.8-29.7,27.9c-9.9,8.9-20.1,17.6-30.1,26.3
		C1030.1,1069.8,1024,1074.9,1018,1080z"/>
	<path class="st0" d="M538,1080c-111.3,0-222.7,0-334,0c-2.3-2.1-4.5-4.3-6.9-6.3c-17.4-14.9-35.7-28.9-52.1-44.8
		c-18.7-18.2-36-37.8-53.4-57.3c-9.1-10.3-17.6-21.3-25.4-32.7c-12.3-17.9-24.4-36-35.5-54.6c-9.9-16.6-18.2-34.1-27.3-51.2
		c-1-1.8-2.3-3.4-3.5-5.1c0-192.3,0-384.7,0-577c2.9-5,5.7-10,8.6-15.1c13-22.9,25.2-46.3,39.3-68.5C68.4,135,92,104.6,118.9,77
		c16.9-17.3,34.8-33.8,52.8-50.1C182,17.5,193.2,8.9,204,0c113.3,0,226.7,0,340,0c-5.5,1-11.1,1.9-16.6,3.1
		c-21.6,4.9-43.3,9.3-64.7,15c-27.8,7.4-54.7,17.7-80.8,29.8c-28.7,13.3-56.2,28.8-82,47c-32.1,22.6-62.3,47.5-88.3,77.1
		c-10.5,12-21.3,23.8-30.9,36.5c-18.4,24.3-35.1,49.7-49.2,76.8c-13.6,26.1-25.2,53-34.6,80.8c-10.7,31.6-19.1,63.9-23.4,97.1
		c-2.5,19.4-4.7,39-5.2,58.6c-0.6,21.3-0.2,42.7,1.8,63.8c2.1,22.8,5.9,45.4,10.2,67.9c5.7,29.5,14.8,58,25.9,85.9
		c9.8,24.6,20.7,48.8,34.8,71.3c13,20.7,26,41.5,40.5,61.2c11.5,15.8,24.3,30.8,38,44.7c15.3,15.6,31.9,30.1,48.7,44
		c14.7,12.1,30,23.6,46.1,33.6c21.6,13.4,43.7,26.3,66.7,37.2c20.5,9.8,42.2,17.1,63.7,24.7c24.8,8.8,50.4,15,76.4,19.6
		C526.8,1076.7,532.4,1078.5,538,1080z"/>
	<path class="st0" d="M1242,1080c-58.3,0-116.7,0-175,0c0.7-0.9,1.3-1.9,2.1-2.6c7.6-6.7,15.7-12.9,22.9-20
		c14.6-14.4,29.4-28.6,42.7-44c18.1-21,35.8-42.4,51.9-64.9c14.6-20.4,27.4-42.1,39.9-63.8c21.8-37.7,38.7-77.7,52.7-118.9
		c10.8-32,19.7-64.4,25.7-97.6c3.4-18.7,5.9-37.6,8-56.5c1.9-17.5,3.4-35.1,3.9-52.7c0.7-26.6,0.8-53.2-2.8-79.7
		c-2.3-17.5-3.3-35.2-6.4-52.6c-3.7-21-8.2-41.9-13.9-62.4c-6.8-24.7-14.4-49.2-23-73.3c-14.8-41.4-34.4-80.7-57.1-118.4
		c-17.9-29.9-38.1-58.2-60.4-85.1c-18.5-22.3-38.3-43.4-59.5-63.2C1085,16.1,1076,8.1,1067,0c58.3,0,116.7,0,175,0
		c2.1,2.6,4.4,5.2,6.4,7.9c13.6,17.9,27.6,35.6,40.8,53.9c22.5,31.2,41.9,64.4,59.5,98.6c10.1,19.8,19.5,40,27.8,60.6
		c10,24.9,19.3,50.2,27.4,75.8c7.4,23.4,13.7,47.1,18.7,71.1c5.6,27,9.7,54.4,13.5,81.8c2.3,16.6,3.5,33.4,4,50.2
		c0.8,25.6,1,51.2,0.6,76.7c-0.2,14.1-1.9,28.2-3.5,42.2c-2.5,20.9-4.7,41.9-8.5,62.6c-4.3,23.2-10,46.1-15.5,69
		c-7.4,30.9-17.9,60.9-29.3,90.5c-12.9,33.4-28.1,65.8-45.2,97.2c-21.5,39.4-45.9,77-73.6,112.4
		C1257.3,1060.4,1249.6,1070.2,1242,1080z"/>
	<path class="st1" d="M538,1080c-5.6-1.5-11.2-3.3-16.9-4.3c-26-4.6-51.5-10.8-76.4-19.6c-21.5-7.6-43.2-14.9-63.7-24.7
		c-22.9-11-45.1-23.8-66.7-37.2c-16.1-10-31.4-21.6-46.1-33.6c-16.9-13.9-33.4-28.4-48.7-44c-13.7-13.9-26.5-28.9-38-44.7
		c-14.4-19.7-27.5-40.5-40.5-61.2c-14.1-22.5-24.9-46.7-34.8-71.3c-11.1-27.9-20.3-56.4-25.9-85.9c-4.3-22.5-8.1-45.1-10.2-67.9
		c-2-21.2-2.4-42.6-1.8-63.8c0.5-19.6,2.7-39.1,5.2-58.6c4.3-33.1,12.6-65.4,23.4-97.1c9.4-27.8,21-54.8,34.6-80.8
		c14.1-27.1,30.8-52.5,49.2-76.8c9.6-12.7,20.3-24.5,30.9-36.5c26-29.6,56.2-54.5,88.3-77.1c25.8-18.2,53.3-33.7,82-47
		c26.1-12.1,53-22.4,80.8-29.8c21.4-5.7,43.1-10.1,64.7-15C532.9,1.9,538.5,1,544,0c44,0,88,0,132,0c0.7,0,1.3,0,2,0c2,0,4,0,6,0
		c0.8,0.7,1.6,1.8,2.5,1.9c11,2.1,22.1,3.9,33.1,6.1c30.2,6,59.5,15.1,88.2,26.3C846.2,49.2,882.5,68,916.6,91
		c38.1,25.7,72.4,55.7,102.7,90.3c20.8,23.8,39.4,49.3,55.7,76.4c16.7,27.8,31.5,56.6,42.2,87.3c8,22.9,15.6,46,21.8,69.5
		c4.7,17.8,7.1,36.1,10.1,54.3c4.9,29.3,6.1,58.9,4.8,88.4c-0.9,20.3-3.3,40.6-5.8,60.9c-4,32.7-12.6,64.3-23,95.5
		c-7.4,22.3-16.5,43.9-26.7,65.1c-19,39.6-42.6,76.3-70.7,110c-24.8,29.7-52.5,56.4-83.3,80c-24.4,18.7-50,35.2-77.1,49.6
		c-31.4,16.8-64.2,30.3-98.3,40.8c-25.5,7.9-51.5,13.8-77.9,18c-2.6,0.4-5.2,0.6-7.8,1.1c-0.6,0.1-0.9,1.2-1.4,1.9
		C634,1080,586,1080,538,1080z M610.7,1052c274-1.4,507.1-215,512-505.1c4.7-279.4-215.6-516.8-510.3-518.6
		C338,26.7,106.3,241.9,99.7,529.1C93.1,810.8,314.8,1048.5,610.7,1052z"/>
	<path class="st2" d="M1754,1080c5.2-11.6,10.7-23.1,15.4-34.8c12.7-32,25.6-63.9,37.2-96.3c8.9-24.8,16.3-50.3,23.6-75.6
		c10.6-36.9,19.3-74.2,25.7-112.1c4.8-28.6,9.3-57.3,12.7-86.1c4.7-39.5,7.3-79.2,7.3-119c0-27.5-0.1-54.9-1.4-82.4
		c-1-22.7-3.4-45.4-6-68c-3-25.7-6.5-51.4-10.8-77c-3.7-21.7-8-43.4-13.4-64.7c-9-35.7-18.1-71.4-28.8-106.5
		c-8.2-26.9-18.5-53.1-28.6-79.3c-8-20.8-16.9-41.2-25.5-61.7c-2.3-5.6-5.1-11-7.6-16.5c20,0,40,0,60,0c6.8,16.3,14,32.4,20.2,48.9
		c11.6,30.6,23.2,61.1,33.6,92.1c7.8,23.4,14.4,47.2,20.4,71.1c6.6,26.1,12.6,52.5,17.8,78.9c4.8,24.3,8.1,48.8,12.1,73.2
		c0.1,0.3,1.2,0.5,1.9,0.8c0,117.3,0,234.7,0,352c-0.7,1.1-1.8,2.2-2,3.5c-2.1,12.5-3.6,25.1-6.1,37.6c-5.4,27.7-10.7,55.5-17,82.9
		c-5.5,23.8-12,47.4-18.9,70.8c-7.1,24-14.4,48-23.2,71.4c-12.2,32.6-25.8,64.6-38.8,96.8C1794,1080,1774,1080,1754,1080z"/>
	<path class="st2" d="M1500,1080c8.8-15.7,18.2-31,26.2-47.1c14.9-30.2,29.5-60.6,43.2-91.4c9-20.1,16.6-40.9,24-61.6
		c11.9-33.3,22.1-67.1,29.7-101.7c5.1-23.4,10.2-46.8,14.5-70.4c2.9-15.5,5-31.1,6.5-46.8c2.7-29.4,5.2-58.9,6.9-88.4
		c2-34.8,0.5-69.5-1.8-104.3c-2.5-37-7.4-73.6-14-110.1c-6.1-33.9-14-67.3-23.4-100.5c-10.7-38-23.2-75.4-38.6-111.7
		c-12-28.3-25.1-56.3-38.9-83.8c-10.5-21.2-22.8-41.5-34.2-62.2c18,0,36,0,54,0c1.8,4,3.3,8.2,5.3,12.1
		c10.8,21.3,22.3,42.3,32.5,63.9c9.9,21,19.1,42.3,27.6,63.9c9.1,23.1,17.6,46.5,25.4,70c13.8,41.2,24.3,83.3,32.6,125.8
		c4.8,24.4,7.9,49.2,11.5,73.9c5.1,36.1,7.8,72.4,8.2,108.9c0.3,22,0.7,44-0.6,66c-1.8,30.2-3.9,60.4-8.1,90.4
		c-4.5,32.7-10.7,65.3-17.7,97.6c-6,27.9-13.1,55.7-21.4,83c-11.8,39-26,77.2-42.2,114.6c-16.1,37.1-34.1,73.2-53.9,108.4
		c-0.2,0.4-0.3,0.9-0.4,1.4C1535.3,1080,1517.7,1080,1500,1080z"/>
	<path class="st2" d="M1242,1080c7.6-9.8,15.3-19.6,22.9-29.3c27.7-35.4,52-73,73.6-112.4c17.2-31.4,32.3-63.8,45.2-97.2
		c11.4-29.6,21.9-59.6,29.3-90.5c5.5-22.9,11.3-45.8,15.5-69c3.8-20.7,6-41.7,8.5-62.6c1.7-14,3.3-28.1,3.5-42.2
		c0.4-25.6,0.2-51.2-0.6-76.7c-0.5-16.8-1.7-33.6-4-50.2c-3.8-27.4-7.9-54.8-13.5-81.8c-5-24-11.3-47.8-18.7-71.1
		c-8.1-25.6-17.4-50.9-27.4-75.8c-8.3-20.6-17.6-40.9-27.8-60.6c-17.5-34.2-36.9-67.4-59.5-98.6c-13.2-18.3-27.1-36-40.8-53.9
		c-2.1-2.7-4.3-5.3-6.4-7.9c15.7,0,31.3,0,47,0c21.3,25.6,40.4,52.9,57.1,81.6c14.6,25.2,28.9,50.6,42.2,76.5
		c19.5,38.2,35.4,78.1,48.1,119.1c7.9,25.5,14.9,51.3,21.1,77.2c5.1,21.7,8.8,43.8,12.4,65.9c2.2,13.5,2.6,27.3,4.3,40.9
		c4,31.5,4.7,63.1,3.7,94.7c-0.7,24.8-2.7,49.5-4.9,74.2c-3.6,41.2-11.8,81.6-21.9,121.6c-11.6,46.4-27,91.5-46.5,135
		c-11.7,26.1-24.8,51.6-38.3,76.8c-10.3,19.2-21.5,38-33.5,56.3c-12.2,18.6-26,36.3-39,54.4c-1.3,1.9-2.5,3.9-3.8,5.8
		C1274,1080,1258,1080,1242,1080z"/>
	<path class="st3" d="M1067,0c9,8.1,18,16.1,26.9,24.4c21.2,19.8,40.9,40.9,59.5,63.2c22.3,26.9,42.5,55.2,60.4,85.1
		c22.6,37.7,42.2,76.9,57.1,118.4c8.6,24.1,16.2,48.6,23,73.3c5.7,20.5,10.1,41.4,13.9,62.4c3.1,17.4,4.1,35.1,6.4,52.6
		c3.5,26.5,3.4,53.1,2.8,79.7c-0.4,17.6-2,35.2-3.9,52.7c-2.1,18.9-4.6,37.8-8,56.5c-6,33.2-14.8,65.6-25.7,97.6
		c-14,41.3-31,81.2-52.7,118.9c-12.5,21.7-25.3,43.5-39.9,63.8c-16.1,22.5-33.8,43.9-51.9,64.9c-13.3,15.5-28.2,29.7-42.7,44
		c-7.2,7.1-15.2,13.3-22.9,20c-0.8,0.7-1.4,1.7-2.1,2.6c-16.3,0-32.7,0-49,0c6-5.1,12.1-10.2,18-15.4c10.1-8.7,20.2-17.4,30.1-26.3
		c10.1-9.1,20.5-18,29.7-27.9c14.1-15.2,27.7-30.9,41-46.8c22.3-26.7,41.4-55.7,58.8-85.8c26.3-45.8,47-94.1,62.3-144.6
		c10-32.7,17.1-66.1,22.2-99.9c6.6-43.6,8-87.5,5.6-131.4c-1.2-22.3-4.8-44.5-7.6-66.7c-3.9-30.5-11.5-60.2-20.4-89.6
		c-12.9-42.5-29.8-83.3-50.5-122.6c-19.7-37.4-42.7-72.6-69-105.6c-24.6-30.9-51.3-59.7-81.6-85.1c-12.4-10.4-25.2-20.4-37.7-30.6
		c-0.4-0.4-0.6-1.1-0.9-1.6C1034.3,0,1050.7,0,1067,0z"/>
	<path class="st0" d="M1920,365c-0.7-0.2-1.8-0.4-1.9-0.8c-4-24.4-7.4-48.9-12.1-73.2c-5.2-26.5-11.1-52.8-17.8-78.9
		c-6-23.9-12.6-47.7-20.4-71.1c-10.4-31-22-61.6-33.6-92.1C1828,32.4,1820.8,16.3,1814,0c35.3,0,70.7,0,106,0
		C1920,121.7,1920,243.3,1920,365z"/>
	<path class="st0" d="M1814,1080c13-32.3,26.7-64.3,38.8-96.8c8.8-23.4,16.1-47.4,23.2-71.4c6.9-23.4,13.4-47,18.9-70.8
		c6.4-27.5,11.6-55.2,17-82.9c2.4-12.4,4-25.1,6.1-37.6c0.2-1.2,1.3-2.3,2-3.5c0,121,0,242,0,363C1884.7,1080,1849.3,1080,1814,1080
		z"/>
	<path class="st0" d="M156,1080c-52,0-104,0-156,0c0-62,0-124,0-186c1,1.2,2.2,2.3,3.1,3.6c9,14.2,17.6,28.8,27.1,42.7
		c20.1,29.5,42,57.6,66.9,83.2C116,1043.1,136.3,1061.2,156,1080z"/>
	<path class="st0" d="M0,187C0,124.8,0,62.5,0,0c51.7,0,103.3,0,155,0c-3.4,3.3-6.9,6.5-10.3,9.8c-16.5,16.1-33.3,32.1-49.4,48.6
		C69.2,85,46.8,114.7,26,145.6C16.9,159.1,8.6,173.2,0,187z"/>
	<path class="st4" d="M156,1080c-19.7-18.8-40-36.9-59-56.4c-24.9-25.6-46.8-53.7-66.9-83.2c-9.5-13.9-18-28.5-27.1-42.7
		c-0.8-1.3-2-2.4-3.1-3.6c0-22,0-44,0-66c1.2,1.7,2.6,3.3,3.5,5.1c9.1,17.1,17.4,34.6,27.3,51.2C41.9,902.9,54,921,66.3,938.9
		c7.8,11.4,16.2,22.4,25.4,32.7c17.3,19.5,34.7,39.1,53.4,57.3c16.4,15.9,34.6,29.9,52.1,44.8c2.4,2,4.6,4.2,6.9,6.3
		C188,1080,172,1080,156,1080z"/>
	<path class="st4" d="M0,187c8.6-13.8,16.9-27.9,26-41.4C46.8,114.7,69.2,85,95.3,58.3c16.2-16.5,32.9-32.4,49.4-48.6
		c3.4-3.3,6.9-6.5,10.3-9.8c16.3,0,32.7,0,49,0c-10.8,8.9-22,17.5-32.4,26.9c-17.9,16.4-35.8,32.8-52.8,50.1
		c-26.9,27.5-50.4,57.9-71,90.4c-14.1,22.2-26.3,45.6-39.3,68.5C5.7,241,2.9,246,0,251C0,229.7,0,208.3,0,187z"/>
	<path class="st5" d="M678,0c-0.7,0-1.3,0-2,0C676.7,0,677.3,0,678,0z"/>
	<path class="st0" d="M610.7,1052c-295.9-3.5-517.6-241.2-511-522.9C106.3,241.9,338,26.7,612.4,28.3
		c294.7,1.8,515,239.2,510.3,518.6C1117.8,837,884.6,1050.6,610.7,1052z M206.8,544.7c4.4,219.1,178.9,402.9,412.6,398.7
		c216.8-3.9,396.9-177,395.1-408.3c-1.7-217.6-176.7-404.3-415.5-398.7C387,141.5,207.4,311.8,206.8,544.7z"/>
	<path class="st3" d="M206.8,544.7C207.4,311.8,387,141.5,599,136.5c238.8-5.7,413.8,181.1,415.5,398.7
		c1.8,231.3-178.3,404.4-395.1,408.3C385.7,947.7,211.2,763.8,206.8,544.7z M985.2,540.9c-0.8-202.6-159-373.1-373.5-374.7
		c-103.5-0.8-193.5,37-266.2,111c-75,76.3-111.8,169.4-108,276.4c6.8,189,156.6,357.7,371.5,360
		C811.9,915.6,982.6,754.6,985.2,540.9z"/>
	<path class="st6" d="M985.2,540.9c-2.7,213.8-173.4,374.8-376.2,372.6c-214.8-2.3-364.7-171-371.5-360c-3.8-106.9,33-200,108-276.4
		c72.7-74,162.7-111.7,266.2-111C826.3,167.8,984.5,338.3,985.2,540.9z M601.8,214.6C514,217,430.5,252.1,366.2,326.5
		c-64.1,74.2-90.6,161.3-77.1,258.9c22.3,160.8,165.9,293.7,350,278.1c177.1-15.1,315.2-170.1,294.4-359.2
		C914.2,327.5,767.3,216,601.8,214.6z"/>
	<path class="st4" d="M601.8,214.6c165.4,1.3,312.4,112.8,331.8,289.7c20.7,189.1-117.3,344.1-294.4,359.2
		c-184.1,15.6-327.7-117.3-350-278.1c-13.5-97.6,13-184.7,77.1-258.9C430.5,252.1,514,217,601.8,214.6z M611.4,842.1
		c164.8-0.8,303.1-130.8,301.9-305.1c-1.1-163.4-130.1-300-304.5-299c-165.8,0.9-295.4,131-299.4,294.4
		C305.1,705.5,442.8,841.2,611.4,842.1z"/>
	<path class="st0" d="M611.4,842.1c-168.5-0.8-306.2-136.5-302-309.7c4-163.4,133.6-293.5,299.4-294.4
		c174.4-0.9,303.4,135.7,304.5,299C914.5,711.3,776.2,841.2,611.4,842.1z M856.2,539.8c-0.5-140.4-116.6-253.7-261.6-244.6
		C469.8,303,357.3,408.8,366.4,556.2C374.3,684,480,788.4,617.3,784.9C755.5,781.3,856,669.5,856.2,539.8z"/>
	<path class="st7" d="M856.2,539.8c-0.2,129.7-100.6,241.5-238.9,245C480,788.4,374.3,684,366.4,556.2
		C357.3,408.8,469.8,303,594.5,295.2C739.5,286.2,855.7,399.5,856.2,539.8z M611.1,313.8c-124.5,0.8-219.2,95.5-225.5,212.9
		c-7.3,136.2,98.2,237.4,221.9,239.3c123.9,1.9,230.8-94.8,229.8-229.2C836.4,418.3,742.2,314.7,611.1,313.8z"/>
	<path class="st8" d="M611.1,313.8c131.1,0.9,225.4,104.5,226.2,223c1,134.5-105.9,231.1-229.8,229.2
		c-123.7-1.9-229.1-103.1-221.9-239.3C391.8,409.3,486.6,314.7,611.1,313.8z M419.9,538.9c0.2,105.3,82.4,189.8,186.9,191.9
		c107.6,2.2,195.5-82.1,195.2-191.8c-0.3-104.9-83.3-189.6-190.9-190C508.2,348.6,420.8,430.6,419.9,538.9z"/>
	<path class="st9" d="M419.9,538.9c0.9-108.3,88.3-190.3,191.2-189.9c107.5,0.4,190.6,85.1,190.9,190
		c0.3,109.7-87.6,194-195.2,191.8C502.3,728.7,420.1,644.2,419.9,538.9z"/>
</g>
</svg>
