<?xml version="1.0" encoding="utf-8"?>
<!-- Generator: Adobe Illustrator 26.0.1, SVG Export Plug-In . SVG Version: 6.00 Build 0)  -->
<svg version="1.1" id="Layer_1" xmlns="http://www.w3.org/2000/svg" xmlns:xlink="http://www.w3.org/1999/xlink" x="0px" y="0px"
	 viewBox="0 0 612 792" style="enable-background:new 0 0 612 792;" xml:space="preserve">
<style type="text/css">
	.st0{display:none;fill:#010000;}
	.st1{fill:#FEFEFE;}
	.st2{fill:#E11106;}
	.st3{fill:#E41206;}
	.st4{fill:#E61206;}
	.st5{fill:#E61306;}
	.st6{fill:#E51206;}
	.st7{display:none;fill:#020000;}
	.st8{fill:#E61307;}
	.st9{fill:#E21206;}
	.st10{fill:#E31206;}
	.st11{display:none;fill:#030000;}
</style>
<g>
	<path class="st0" d="M610.8,652c-203.4,0-406.8,0-610.1,0c0-170.5,0-341,0-511.5c203.3,0,406.7,0,610.1,0
		C610.8,311.2,610.8,481.6,610.8,652z M557.8,389.6c0.3-0.6,0.7-1.3,1-1.9c0.3-0.6,0.6-1.3,0.9-1.9c0.3-0.8,0.6-1.6,0.9-2.4
		c0.2-0.5,0.3-0.9,0.5-1.4c0.3-0.9,0.5-1.9,0.8-2.8c0-0.3,0.1-0.6,0.1-1c0.1-0.5,0.2-0.9,0.3-1.4c0-2.8,0-5.7,0-8.5
		c-0.6-2.2-1.1-4.4-1.7-6.6c-0.2-0.5-0.4-0.9-0.5-1.4c-1.5-2.7-2.9-5.5-4.4-8.2c-0.2-0.3-0.4-0.6-0.6-0.9c-1.3-1.6-2.6-3.1-3.9-4.7
		c-0.3-0.3-0.6-0.7-0.8-1c-2.7-2.9-5.6-5.5-9.6-6.6c-0.5-0.2-0.9-0.3-1.4-0.5c-1.7-0.4-3.5-0.8-5.2-1.2c-0.9-0.1-1.9-0.1-2.8-0.2
		c-0.8-0.1-1.7-0.3-2.5-0.3c-6.5,0-13.1-0.1-19.6,0c-4.2,0-8.3,0.1-12.5,0.2c-1.2,0-2.5,0-3.7,0c-1.4,0-2.9,0-4.3,0
		c-0.9-0.1-1.9-0.2-2.8-0.2c-10.5,0-21,0.1-31.4,0.1c-9,0-18-0.1-27-0.1c-9.4,0-18.8,0-28.1,0c-9.1,0-18.1,0.1-27.2,0.2
		c-0.5,0-0.9,0-1.4,0c-4.7,0-9.5,0-14.2,0c-1.6,0-3.2,0-4.7,0c-1.1,0-2.2,0-3.3,0c-1.9,0-3.8,0-5.7,0c-1.8,0-3.5,0-5.3,0.1
		c0.7-6,1.5-12,2-18.1c1.4-16.4,2.9-32.8,4-49.2c0.8-11.9,1.2-23.8,1.6-35.7c0.5-18.2,1.6-36.4-0.5-54.6c-0.7-6.1-2.2-12.2-8.5-14.9
		c-11.6-5-23.6-8.7-36.6-6.7c-7.6,1.2-15.2,2.6-22.4,5.7c-5,2.2-8.3,5.8-9.2,11.2c-0.8,5-1.8,10.1-1.8,15.2
		c-0.1,15.7-0.1,31.4,0.4,47.1c0.7,18.8,1.9,37.6,3.2,56.4c1,13.7,2.7,27.4,4.1,41.1c0.1,0.8-0.2,1.6-0.4,2.4c-0.3,0-0.6,0-0.9-0.1
		c-1.6,0-3.2,0-4.8,0c-0.5,0-0.9-0.1-1.4-0.1c-13.1-0.1-26.3-0.1-39.4-0.1c-10.6,0-21.3,0-31.9,0c-6.8,0-13.7,0.1-20.5,0.2
		c-0.9,0-1.9,0-2.8,0c-1.4,0-2.8,0-4.3,0c-3.8-0.1-7.6-0.2-11.3-0.2c-17,0-34,0-51,0c-7.6,0-15.3,0.1-22.9,0.2c-0.3,0-0.7,0-1,0
		c-3.2,0.5-6.3,1-9.5,1.5c-0.6,0.3-1.3,0.5-1.9,0.8c-1.3,0.7-2.7,1.2-3.9,2.1c-6.5,4.7-11.1,10.9-14.2,18.1
		c-2.6,6-3.4,12.2-2.2,18.7c1.6,9,6.3,16.2,12.6,22.5c4.4,4.4,9.6,7.1,15.9,7.4c0.3,0,0.6,0.1,0.9,0.1c1.7,0.1,3.5,0.3,5.2,0.4
		c1.6,6.6,3.1,13.2,4.9,19.7c6.1,22.3,12.2,44.7,18.4,67c4.8,17.2,9.5,34.4,14.6,51.6c3.3,11.1,6.9,22.1,10.7,33
		c3.1,8.9,9.7,14.3,19,15.8c4.8,0.8,9.7,1.2,14.6,1.2c42.4,0.1,84.7,0.2,127.1,0.2c44.7,0,89.5,0,134.2-0.1c10.2,0,20.5-0.1,30.7-1
		c10-0.9,17.1-6.3,20.8-15.9c1-2.6,2.1-5.3,2.9-8c6.6-22.3,13.3-44.6,19.7-67c6.9-24.3,13.5-48.7,20.1-73.1
		c2.1-7.7,3.9-15.6,5.8-23.4c1.4-0.1,2.8-0.2,4.2-0.4c0.5-0.1,0.9-0.1,1.4-0.2c0.8-0.1,1.6-0.1,2.4-0.2c0.3-0.1,0.6-0.2,1-0.3
		c6.8-1,11.7-4.8,15.8-10.1c0.7-0.9,1.5-1.8,2.2-2.7c0.3-0.5,0.6-0.9,1-1.4C556.2,392.2,557,390.9,557.8,389.6L557.8,389.6z"/>
	<path class="st1" d="M610.8,652c0-170.4,0-340.8,0-511.5c-203.4,0-406.8,0-610.1,0c0.1-0.2,0.1-0.4,0.2-0.5c0.6,0,1.3,0,1.9,0
		c202.8,0,405.6,0,608.5,0c0,1.1,0,2.3,0,3.4c0,168.8,0,337.6,0,506.4C611.3,650.6,611,651.3,610.8,652z"/>
	<path class="st2" d="M527.5,408.6c-1.9,7.8-3.7,15.6-5.8,23.4c-6.6,24.4-13.2,48.8-20.1,73.1c-6.4,22.4-13.1,44.7-19.7,67
		c-0.8,2.7-1.9,5.4-2.9,8c-3.7,9.5-10.9,15-20.8,15.9c-10.2,0.9-20.5,1-30.7,1c-44.7,0.1-89.5,0.1-134.2,0.1
		c-42.4,0-84.7,0-127.1-0.2c-4.9,0-9.8-0.5-14.6-1.2c-9.4-1.5-15.9-6.9-19-15.8c-3.8-10.9-7.4-21.9-10.7-33
		c-5.1-17.1-9.8-34.4-14.6-51.6c-6.2-22.3-12.3-44.6-18.4-67c-1.8-6.5-3.2-13.1-4.9-19.7c0.8-0.2,1.6-0.5,2.4-0.5
		c5.2,0,10.4,0,15.5,0c0,0.1,0,0.2,0,0.3c0.2,1.3,0.2,2.6,0.5,3.8c5.2,19.2,10.5,38.4,15.8,57.6c6.9,25.1,13.7,50.3,20.6,75.4
		c2.2,7.9,4.5,15.7,7.1,23.5c1.7,5.1,5.3,8.5,10.9,9.4c2,0.3,4.1,0.5,6.1,0.6c28.2,0.1,56.3,0.1,84.5,0.1c65.8,0,131.6,0,197.5,0
		c3,0,6-0.2,9-0.6c4.5-0.5,8.2-2.6,10.1-6.8c1.6-3.3,3-6.8,4-10.3c6-21.5,11.8-43,17.7-64.4c6.6-24.2,13.2-48.4,19.8-72.7
		c1.4-5.1,2.8-10.3,4.3-15.4c5.7,0,11.5-0.1,17.2-0.1C527.3,408.3,527.4,408.5,527.5,408.6z"/>
	<path class="st3" d="M273.6,337.1c0.1-0.8,0.4-1.6,0.4-2.4c-1.4-13.7-3.1-27.4-4.1-41.1c-1.4-18.8-2.5-37.6-3.2-56.4
		c-0.6-15.7-0.5-31.4-0.4-47.1c0-5.1,1-10.2,1.8-15.2c0.9-5.4,4.2-9,9.2-11.2c7.1-3.1,14.7-4.6,22.4-5.7c13-2,25,1.7,36.6,6.7
		c6.3,2.7,7.8,8.8,8.5,14.9c2.1,18.2,1.1,36.4,0.5,54.6c-0.4,11.9-0.8,23.8-1.6,35.7c-1.1,16.4-2.6,32.8-4,49.2
		c-0.5,6-1.3,12-2,18.1c-0.3,0.9-0.7,1.7-0.9,2.6c-0.4,1.9-0.5,3.8-0.8,5.8c-0.5,3.2-1,6.4-1.6,9.7c-2,6.5-3.5,13.2-6,19.5
		c-2.6,6.7-6.6,12.5-13.9,15c-2.1,0.6-4.1,1.3-6.2,1.9c-0.9,0.2-1.9,0.3-2.8,0.5c-0.9-1.3-1.9-2.3-3.3-0.5c-0.8-0.3-1.6-0.6-2.4-0.9
		c-1.1-0.5-2.2-0.9-3.3-1.4c-4.6-1.7-7.7-5-10.2-9.1c-4.2-7-6.4-14.7-8.3-22.5c-0.2-0.9-1-1.7-1.4-2.6c-0.4-2.4-0.8-4.7-1.2-7.1
		C274.6,344.3,274.1,340.7,273.6,337.1z M328.8,225.9c0,0-0.1,0-0.1,0c0-1.7,0-3.5,0-5.2c0-11.2,0-22.4-0.1-33.6
		c-0.1-7.7-1.6-9.6-8.3-11.5c-10.4-3-20.8-2.7-31.2,0.7c-3.3,1.1-5.2,3.2-5.6,6.5c-0.2,1.9-0.5,3.8-0.5,5.6
		c-0.1,10.3-0.2,20.7-0.1,31c0.2,13.9,0.5,27.8,1,41.6c0.7,17.8,1.3,35.6,2.5,53.4c0.8,12.8,2.3,25.6,3.9,38.3
		c0.8,6.4,2.6,12.6,5.5,18.5c3.5,7.1,16.3,6.8,19.1,1.2c1.8-3.6,3.6-7.2,4.6-11c3.3-12.2,4.2-24.8,5.2-37.4
		c1-13.8,1.8-27.7,2.4-41.5C327.8,263.6,328.2,244.8,328.8,225.9z"/>
	<path class="st4" d="M527.5,408.6c-0.1-0.1-0.2-0.3-0.3-0.3c-5.7,0-11.5,0.1-17.2,0.1c-5.2,0-10.4,0-15.7-0.1
		c-0.2-0.3-0.4-0.6-0.6-0.9c-0.1,0.3-0.3,0.6-0.4,0.9c-12.8,0-25.6,0-38.4,0c0.6-0.5,1.3-1,1.9-1.6c0.4-0.4,0.7-1,0.8-1.6
		c0-0.2-0.5-0.8-0.7-0.8c-0.5,0-1.1,0.3-1.6,0.6c-0.4,0.2-0.6,0.7-0.8,1c-4-0.7-8.4-0.4-9.6-5.7c2.5-0.1,4.7-0.3,6.9-0.4
		c0.8,2.4,0.9,2.4,2.7,0.8c0.6-0.5,1.5-0.8,2.3-1.1c0.9-0.4,1.9-0.7,2.7-1.3c0.3-0.2,0.4-1,0.3-1.5c0-0.2-0.8-0.6-1.1-0.5
		c-2.4,0.8-5.2-0.5-7.3,1.4c-0.3,0.2-1.2,0.2-1.4-0.1c-0.3-0.3-0.3-1-0.2-1.5c0.3-1.3,0.7-2.5,1.1-3.6c-3.5-0.2-6.4-0.5-9.2-0.5
		c-5.3-0.1-10.7,0-16-0.1c-5.2-0.1-10.4-0.4-15.6-0.4c-8.2-0.1-16.5,0-24.7,0c-4.8,0-9.7-0.4-14.5-0.4c-5.2-0.1-10.3,0-15.5,0
		c-6.6,0-13.3,0-19.9,0c-0.8,0-1.5-0.6-2.3-0.9c0.9,0,1.7-0.1,2.6-0.1c27.7,0,55.3,0,83,0c13.6,0,27.3,0.1,40.9,0.1
		c0.8,0,1.6,0,2.4,0c1.4,0,2.8,0,4.2,0c0.3,0,0.7,0,1,0l0.2,0c0,0,0.2,0.1,0.2,0.1c0.8,0,1.6,0,2.5,0c1.9,0,3.8,0,5.6,0
		c0.6,0,1.3,0,1.9,0c0.8,0,1.6,0,2.3,0c0.5,0,1,0,1.5,0c0.8,0,1.6,0,2.3,0c0.3,0,0.7,0,1,0c3.9,0,7.9,0,11.8,0c1,1.2,5.6,1.5,7,0.5
		c0.1-0.1,0.1-0.3,0.1-0.4c0.8,0,1.6,0,2.4,0c0.4,0.3,0.9,0.9,1.3,0.9c3.6,0.1,7.1,0.1,10.7,0c0.8,0,1.5-0.7,2.2-1
		c3.2-0.1,6.4,0,9.6-0.4c3.1-0.4,6.2-1.2,9.3-1.9c0.5-0.5,0.9-1,1.4-1.5c1.1-3,2.1-6,3.2-9c0.3-0.2,0.6-0.3,0.9-0.5
		c-0.2-0.1-0.5-0.3-0.7-0.4c0-2.4,0-4.7,0-7.1c-0.1-0.3-0.1-0.6-0.2-1c-2.4-11.6-5.6-11.9-11.6-12.5c-0.8-1.6-1.7-2.1-2.8-0.3
		c-6.8,0-13.5-0.1-20.3-0.1c-11.4,0-22.8-0.1-34.2-0.1c1-0.6,2-1.3,4.1-2.6c-0.7-0.2-1.3-0.3-1.8-0.5c-2.2-0.7-3.1,0.2-3.2,3.1
		c-0.3,0-0.6,0-0.9,0c-0.3-2.4-1.9-3.4-4-2.8c-0.5,0.2-1.6,0-1.9-0.4c-1.1-2-4.4-2.3-3.9-5.4c-0.6-0.1-1.3-0.4-1.8-0.2
		c-0.5,0.2-0.8,0.8-1.2,1.2c-1-0.5-1.9-0.8-2.2-1c-0.7-2.9-1.4-5.2-2-7.9c-2.8,0-5.6,0-8.4,0c-2.2,0-4.4-0.3-6.5-0.3
		c-3.1,0-6.2,0.3-9.3,0.2c-3.8-0.1-7.5-0.7-11.2-0.7c-5-0.1-10,0.3-15,0.3c-4.1,0-8.2-0.3-12.3-0.4c-6.3-0.1-12.6,0-18.9-0.1
		c-0.8,0-1.5-0.6-2.2-1c9.1-0.1,18.1-0.2,27.2-0.2c9.4,0,18.8,0,28.1,0c9,0,18,0.1,27,0.1c10.5,0,21-0.1,31.4-0.1
		c0.9,0,1.9,0.1,2.8,0.2c1.4,0,2.9,0,4.3,0c1.2,0,2.5,0,3.7,0c0.5,0.2,1,0.5,1.5,0.5c3,0.2,6,0.4,9.1,0.5c7.6,0.2,15.2,0.3,22.8,0.4
		c0.4,0,0.9-0.8,1.3-1.3c0.9,0.1,1.9,0.1,2.8,0.2c1.4,1.7,3.2,1.9,5.2,1.2c0.5,0.2,0.9,0.3,1.4,0.5c0.5,0.6,1,1.3,1.6,1.8
		c1.4,1.1,3.3,1.9,4.4,3.3c1.1,1.3,2.1,1.6,3.6,1.5c0.3,0.3,0.6,0.7,0.8,1c-0.7,0.7-1.3,1.4-1.6,1.7c1.3,0.9,2.7,1.9,4.1,2.8
		c0.4,0.2,0.9,0.1,1.4,0.2c0.2,0.3,0.4,0.6,0.6,0.9c-0.6,0.5-1.1,0.9-1.6,1.3c0.7,1.5,1.2,2.6,1.7,3.8c1,0.4,1.4,1.3,2,1.9
		c0.6,0.6,1.5,0.8,2.2,1.2c0.2,0.5,0.4,0.9,0.5,1.4c-0.9,0.6-1.9,1.2-2.8,2c-0.3,0.3-0.3,1.1-0.1,1.5c0.2,0.3,0.8,0.4,1.2,0.7
		c0.7,0.5,1.4,0.9,2.1,1.4c0.4,0.3,0.8,0.7,1.2,1.1c0,2.8,0,5.7,0,8.5c-0.4,0.1-0.7,0.2-1.1,0.4c0.2,0.4,0.5,0.7,0.7,1.1
		c0,0.3-0.1,0.6-0.1,1c-1.9,0.5-0.9,1.8-0.8,2.8c-0.2,0.5-0.3,0.9-0.5,1.4c-1.5,0.3-1.8,1.1-0.9,2.4c-0.3,0.6-0.6,1.3-0.9,1.9
		c-0.3,0.6-0.7,1.3-1,1.9c0,0,0,0,0,0c-2.2,0.4-2.6,2-2.4,3.9c-0.3,0.5-0.6,0.9-1,1.4c-1.5,0.3-2.7,0.8-2.2,2.7
		c-4.1,5.2-9,9.1-15.8,10.1c-0.3,0.1-0.6,0.2-1,0.3c-0.8,0.1-1.6,0.1-2.4,0.2c-0.5,0.1-0.9,0.1-1.4,0.2
		C530.3,408.4,528.9,408.5,527.5,408.6z M471.7,349.8c0.3-3.4-1.8-5.2-5-6.3c-0.4,0.4-0.9,0.7-1.6,1.3c-1.1-1.6-2-3-3.1-4.7
		c-0.3,0.7-0.6,1.7-1.2,2.7c-0.9,1.5-0.5,2,1.1,2.4c1.3,0.2,3.1-0.1,2.9,2.4c0,0.5,1.5,1.5,2.5,1.7
		C468.6,349.6,470.1,349.6,471.7,349.8z M465,393.8c-0.9-0.6-1.5-1.4-1.8-1.3c-0.6,0.2-1,0.9-1.5,1.4c0.5,0.4,1,1.1,1.5,1.1
		C463.6,395.2,464.1,394.5,465,393.8z M474.2,348.3c0.3,0.3,0.6,0.5,0.9,0.8c0.2-0.5,0.7-1.2,0.5-1.6c-0.3-0.8-1-1.6-1.5-2.3
		c-0.2,0.1-0.4,0.3-0.6,0.4C473.7,346.4,474,347.4,474.2,348.3z M465.4,341.6c0.2,0,0.4,0,0.6,0.1c0.4-0.8,0.9-1.5,1.3-2.3
		c-0.2-0.2-0.3-0.3-0.5-0.5c-0.6,0.3-1.4,0.6-1.7,1.1C464.9,340.3,465.3,341.1,465.4,341.6z M457.5,395.8c2-1.6,2-1.7-0.1-3.2
		C457.4,393.6,457.5,394.5,457.5,395.8z M468.4,394.6c0-0.2,0-0.5,0-0.7c-0.7,0-1.3,0-2,0c0,0.2,0,0.5,0,0.7
		C467.2,394.6,467.8,394.6,468.4,394.6z M473,342.3c0.4-0.4,0.8-0.8,0.8-0.9c-0.3-0.4-0.6-0.7-1-1c-0.2,0.3-0.6,0.6-0.6,0.8
		C472.2,341.6,472.6,341.9,473,342.3z M557.4,371.6c0.1-0.2,0.2-0.5,0.3-0.7c-0.5-0.2-1-0.4-1.5-0.6c-0.1,0.2-0.2,0.5-0.3,0.7
		C556.4,371.2,556.9,371.4,557.4,371.6z M551,365.6c-0.1,0.1-0.2,0.3-0.2,0.4c0,0.1,0.2,0.1,0.4,0.2c0.1-0.1,0.2-0.3,0.2-0.4
		C551.3,365.7,551.1,365.7,551,365.6z M555.6,385.5c0.1,0.1,0.3,0.2,0.4,0.2c0.1,0,0.1-0.2,0.2-0.4c-0.1-0.1-0.3-0.2-0.4-0.2
		C555.7,385.1,555.6,385.3,555.6,385.5z M461.8,404.4c0.1,0.1,0.3,0.2,0.4,0.2c0.1,0,0.1-0.2,0.2-0.4c-0.1-0.1-0.3-0.2-0.4-0.2
		C461.9,404.1,461.9,404.3,461.8,404.4z"/>
	<path class="st4" d="M273.6,337.1c0.5,3.6,1.1,7.2,1.6,10.8c0.4,2.4,0.8,4.7,1.2,7.1c-3.1,0.1-6.3,0.4-9.4,0.4
		c-43.8,0-87.5,0.1-131.3,0.1c-9.3,0-18.6-0.1-27.9-0.1c-0.1-0.3-0.2-0.7-0.4-1c-0.2,0.3-0.4,0.7-0.6,1c-1.9,0-3.8,0-5.7,0
		c-1.1-2.7-3.7-1.5-6.4-2.2c1.5-1.1,2.5-1.8,3.4-2.5c-0.4-0.7-1.2-1.5-1.1-2.1c0.3-1.6,1.1-3.1,1.8-4.9c1.1,0.2,2.2,0.5,3.4,0.8
		c1.1-4.5,1.6-5.1,5.1-5.4c2.1-0.2,4.2-0.4,6.3-0.5c8.8-0.2,17.5-0.4,26.3-0.5c8.4-0.1,16.9,0,25.3-0.1c0.8,0,1.5-0.6,2.3-1
		c1.4,0,2.8,0,4.3,0c0.9,1.7,1.9,1.7,2.8,0c6.8-0.1,13.7-0.2,20.5-0.2c10.6,0,21.3,0,31.9,0c13.1,0,26.3,0.1,39.4,0.1
		c0.5,0,0.9,0.1,1.4,0.1c1,0.3,2.1,0.6,3.7,1c-1.4,0.6-2.2,0.9-3,1.2c1.5,2.2,3.7,4.2,2,6.8c0.7,1.3,1.8,2.4,1.7,3.4
		c-0.1,1-1.4,1.9-2.3,2.9c1.1,2.1,3.1,1.1,5,1.1c-0.4-2.5-0.9-4.8-1.2-7.1c-0.4-3.1-0.8-6.2-1.1-9.3
		C272.9,337,273.2,337.1,273.6,337.1z M101.1,345.2c-0.9,1-1.6,1.8-2.3,2.5c0.7,0.4,1.4,0.9,2.2,1.2c1.7,0.6,3.3,1.1,5,1.7
		c0.3-2.6-0.2-3.1-3.4-3C102.3,346.9,101.9,346.3,101.1,345.2z M111,347.4c-0.6,0.9-1.3,1.5-1.2,1.9c0.1,0.5,0.9,0.9,1.3,1.4
		c0.4-0.5,1.1-0.9,1.2-1.5C112.4,348.7,111.6,348.2,111,347.4z M106.7,342.7c-0.7-0.6-1.1-1.2-1.4-1.1c-0.5,0.1-0.9,0.7-1.3,1
		c0.4,0.4,0.8,0.9,1.3,1C105.6,343.6,106.1,343.1,106.7,342.7z M109.3,340.1c-0.2-0.2-0.3-0.3-0.5-0.5c-0.3,0.4-0.6,0.8-0.9,1.3
		c0.1,0.1,0.3,0.2,0.4,0.3C108.6,340.8,108.9,340.5,109.3,340.1z"/>
	<path class="st5" d="M372.1,337c0.7,0.3,1.5,1,2.2,1c6.3,0.1,12.6,0,18.9,0.1c4.1,0,8.2,0.4,12.3,0.4c5,0,10-0.3,15-0.3
		c3.8,0,7.5,0.6,11.2,0.7c3.1,0.1,6.2-0.2,9.3-0.2c2.2,0,4.4,0.3,6.5,0.3c2.8,0.1,5.6,0,8.4,0c0.7,2.6,1.3,5,2,7.9
		c0.3,0.1,1.2,0.5,2.2,1c0.4-0.4,0.7-1.1,1.2-1.2c0.5-0.2,1.2,0.1,1.8,0.2c-0.5,3,2.8,3.4,3.9,5.4c0.2,0.4,1.3,0.6,1.9,0.4
		c2.1-0.7,3.6,0.3,4,2.8c-0.8,0-1.6,0.1-2.4,0.1c-41.5,0-82.9,0-124.4,0c-3.7,0-7.4-0.3-11.1-0.5c0.9-5.4,1.8-10.9,2.9-16.3
		c0.1-0.5,1-0.9,1.6-1.1c1-0.3,2.1-0.4,3.1-0.6c1.9,0,3.8,0,5.7,0c1.1,1.5,2.2,1.5,3.3,0c1.6,0,3.2,0,4.7,0c0.5,0.3,1,1,1.5,1
		c3.7,0.1,7.5,0.1,11.2,0c0.5,0,1-0.6,1.5-1C371.1,337,371.6,337,372.1,337z"/>
	<path class="st3" d="M167.4,337c-0.8,0.3-1.5,1-2.3,1c-8.4,0.1-16.9,0-25.3,0.1c-8.8,0.1-17.5,0.3-26.3,0.5c-2.1,0-4.2,0.3-6.3,0.5
		c-3.4,0.4-4,1-5.1,5.4c-1.2-0.3-2.3-0.5-3.4-0.8c-0.7,1.8-1.5,3.3-1.8,4.9c-0.1,0.6,0.7,1.5,1.1,2.1c-0.9,0.7-1.9,1.4-3.4,2.5
		c2.8,0.6,5.4-0.5,6.4,2.2c-0.6,0-1.3,0.1-1.9,0.1c-7.1,0.2-14.2,0.4-21.3,0.6c-4.2,0.1-6.9,2.1-8.4,6c-2.3,5.7-2.7,11.6-1.3,17.6
		c1.8,7.3,3.5,8.8,10.9,9.9c0.5,0.1,1.1,0.1,1.6,0.2c0.6,2.3,2.7,1.4,4.1,1.8c1.3,0.3,1.6-0.5,1.5-1.6c6.2,0.1,12.3,0.1,18.5,0.2
		c0.3,0,0.7,0,1,0c16.9,0,33.9-0.1,50.8-0.1c0.7,0,1.3,0.5,2,0.8c-1.8,0.1-3.6,0.2-5.4,0.3c-0.3,0-0.6,0-0.9,0
		c-10.9,0.2-21.8,0.3-32.7,0.5c-0.3,0-0.6,0-0.9,0c-0.6,0-1.3,0-1.9,0c-2.7,0.2-5.4,0.3-8.1,0.5c-0.5,0-0.9,0-1.4,0
		c-0.8-0.2-1.5-0.4-2.3-0.4c-3.1-0.1-6.2-0.1-9.2,0c-1.1,0.1-2.4,0.6-3.2,1.4c-0.3,0.2,0.5,1.7,0.9,2.6c0.2,0.4,0.4,0.8,0.8,1.5
		c0.8-1,1.5-1.8,2.1-2.6c0.2,0.1,0.3,0.2,0.5,0.3c-0.3,1.7-0.6,3.4-0.8,4.8c-0.8,0.3-1.5,0.5-2.1,0.9c-0.7,0.5-1.4,1.2-2,1.8
		c1.3,4,1.9,4.5,5.9,4.5c0.9,0,1.8-0.2,2.6,0.1c0.7,0.2,1.2,0.9,1.8,1.4c-5.2,0-10.4,0-15.5,0c-0.8,0-1.6,0.3-2.4,0.5
		c-1.7-0.1-3.5-0.3-5.2-0.4c-0.3,0-0.6-0.1-0.9-0.1c-6.3-0.3-11.5-3-15.9-7.4c-6.3-6.3-11-13.5-12.6-22.5
		c-1.2-6.5-0.4-12.7,2.2-18.7c3.2-7.3,7.7-13.5,14.2-18.1c1.2-0.9,2.6-1.4,3.9-2.1c0.3,0.3,0.7,0.6,1,1c0.3-0.6,0.6-1.1,0.9-1.7
		c3.2-0.5,6.3-1,9.5-1.5c0.3,0,0.7,0,1,0c7.6-0.1,15.3-0.2,22.9-0.2c17,0,34-0.1,51,0C159.9,336.7,163.7,336.9,167.4,337z
		 M87.7,391.6c-0.8,1.7-0.2,2.7,1.4,3.1c0.4,0.1,1.5-0.5,1.5-0.8C90.6,392.3,89.6,391.5,87.7,391.6z M85.7,399.4
		c-0.5,1.6,0.6,2.3,1.8,2.3c0.8,0,1.6-0.9,2.4-1.4c-0.1-0.1-0.3-0.3-0.4-0.4C88.2,399.7,87,399.6,85.7,399.4z M86.7,405
		c-0.5-0.3-0.9-0.7-1.2-0.6c-0.3,0-0.5,0.5-0.8,0.8c0.3,0.3,0.6,0.8,0.9,0.8C85.8,406,86.2,405.5,86.7,405z M81.2,404
		c-0.1-0.2-0.2-0.4-0.3-0.6c-0.5,0.3-0.9,0.5-1.4,0.8c0.1,0.2,0.2,0.4,0.3,0.6C80.3,404.5,80.7,404.3,81.2,404z M91.5,398.5
		c-0.1-0.1-0.3-0.2-0.4-0.1c-0.1,0-0.1,0.2-0.2,0.4c0.1,0.1,0.3,0.2,0.4,0.1C91.4,398.8,91.4,398.6,91.5,398.5z"/>
	<path class="st3" d="M272.6,337c0.4,3.1,0.7,6.2,1.1,9.3c0.3,2.3,0.8,4.6,1.2,7.1c-1.9,0.1-3.9,1-5-1.1c0.9-1.1,2.2-1.9,2.3-2.9
		c0.1-1-1-2.1-1.7-3.4c1.7-2.6-0.5-4.6-2-6.8c0.8-0.3,1.6-0.7,3-1.2c-1.6-0.4-2.7-0.7-3.7-1C269.4,337,271,337,272.6,337z"/>
	<path class="st2" d="M531.2,337.1c-0.4,0.4-0.9,1.3-1.3,1.3c-7.6-0.1-15.2-0.2-22.8-0.4c-3-0.1-6-0.3-9.1-0.5c-0.5,0-1-0.3-1.5-0.5
		c4.2-0.1,8.3-0.2,12.5-0.2c6.5,0,13.1,0,19.6,0C529.5,336.8,530.4,337,531.2,337.1z"/>
	<path class="st2" d="M342.7,337c-1,0.2-2.1,0.2-3.1,0.6c-0.6,0.2-1.5,0.7-1.6,1.1c-1,5.4-1.9,10.8-2.9,16.3c-0.3,0-0.6,0.1-1,0.1
		c0.5-3.2,1.1-6.4,1.6-9.7c0.3-1.9,0.5-3.9,0.8-5.8c0.2-0.9,0.6-1.7,0.9-2.6C339.2,337,341,337,342.7,337z"/>
	<path class="st2" d="M560.1,360.3c-0.7-0.4-1.6-0.7-2.2-1.2c-0.6-0.6-1-1.4-2-1.9c-0.5-1.2-1.1-2.3-1.7-3.8c0.4-0.3,1-0.8,1.6-1.3
		C557.1,354.8,558.6,357.5,560.1,360.3z"/>
	<path class="st2" d="M562.3,368.3c-0.4-0.4-0.8-0.8-1.2-1.1c-0.7-0.5-1.4-1-2.1-1.4c-0.4-0.3-1.1-0.3-1.2-0.7
		c-0.2-0.4-0.1-1.2,0.1-1.5c0.8-0.8,1.8-1.3,2.8-2C561.2,363.9,561.7,366.1,562.3,368.3z"/>
	<path class="st2" d="M550.3,345.5c-1.5,0.2-2.5-0.2-3.6-1.5c-1.1-1.4-3-2.2-4.4-3.3c-0.6-0.5-1.1-1.2-1.6-1.8
		C544.7,340.1,547.6,342.6,550.3,345.5z"/>
	<path class="st4" d="M370.7,337c-0.5,0.3-1,1-1.5,1c-3.7,0.1-7.5,0.1-11.2,0c-0.5,0-1-0.6-1.5-1C361.2,337,365.9,337,370.7,337z"/>
	<path class="st2" d="M555,351.2c-0.5-0.1-1,0-1.4-0.2c-1.4-0.9-2.8-1.9-4.1-2.8c0.3-0.3,0.9-1,1.6-1.7
		C552.4,348.1,553.7,349.6,555,351.2z"/>
	<path class="st2" d="M539.3,338.4c-2,0.7-3.8,0.5-5.2-1.2C535.8,337.6,537.6,338,539.3,338.4z"/>
	<path class="st2" d="M555.4,393.5c-0.2-1.9,0.2-3.4,2.4-3.9C557,390.9,556.2,392.2,555.4,393.5z"/>
	<path class="st2" d="M492.9,337c-1.4,0-2.9,0-4.3,0C490,337,491.5,337,492.9,337z"/>
	<path class="st2" d="M552.2,397.5c-0.5-1.9,0.8-2.4,2.2-2.7C553.7,395.7,553,396.6,552.2,397.5z"/>
	<path class="st4" d="M351.7,336.9c-1.1,1.5-2.2,1.5-3.3,0C349.5,337,350.6,337,351.7,336.9z"/>
	<path class="st6" d="M71.8,338.5c-0.3,0.6-0.6,1.1-0.9,1.7c-0.3-0.3-0.7-0.6-1-1C70.5,339,71.1,338.8,71.8,338.5z"/>
	<path class="st3" d="M174.5,337c-1,1.6-1.9,1.6-2.8,0C172.7,337,173.6,337,174.5,337z"/>
	<path class="st2" d="M561.1,382c-0.1-1.1-1.1-2.4,0.8-2.8C561.6,380.1,561.3,381.1,561.1,382z"/>
	<path class="st2" d="M559.7,385.8c-0.9-1.2-0.6-2,0.9-2.4C560.3,384.2,560,385,559.7,385.8z"/>
	<path class="st2" d="M562,378.2c-0.2-0.4-0.5-0.7-0.7-1.1c0.4-0.1,0.7-0.2,1.1-0.4C562.2,377.3,562.1,377.8,562,378.2z"/>
	<path class="st2" d="M557.8,389.6c0.3-0.6,0.7-1.3,1-1.9C558.5,388.4,558.1,389,557.8,389.6z"/>
	<path class="st2" d="M531.7,408.2c0.5-0.1,0.9-0.1,1.4-0.2C532.7,408.1,532.2,408.2,531.7,408.2z"/>
	<path class="st2" d="M77.9,408.1c0.3,0,0.6,0.1,0.9,0.1C78.5,408.1,78.2,408.1,77.9,408.1z"/>
	<path class="st2" d="M82.2,337c-0.3,0-0.7,0-1,0C81.5,337,81.9,337,82.2,337z"/>
	<path class="st2" d="M535.5,407.9c0.3-0.1,0.6-0.2,1-0.3C536.1,407.7,535.8,407.8,535.5,407.9z"/>
	<path class="st0" d="M494.3,408.4c5.2,0,10.4,0,15.7,0.1c-1.4,5.1-2.9,10.3-4.3,15.4c-6.6,24.2-13.2,48.4-19.8,72.7
		c-5.9,21.5-11.7,43-17.7,64.4c-1,3.5-2.4,7-4,10.3c-2,4.2-5.6,6.3-10.1,6.8c-3,0.3-6,0.6-9,0.6c-65.8,0-131.6,0-197.5,0
		c-28.2,0-56.3,0-84.5-0.1c-2,0-4.1-0.3-6.1-0.6c-5.6-0.8-9.2-4.2-10.9-9.4c-2.6-7.8-4.9-15.6-7.1-23.5
		c-6.9-25.1-13.7-50.2-20.6-75.4c-5.3-19.2-10.6-38.4-15.8-57.6c-0.3-1.2-0.4-2.5-0.5-3.8c6.6,0,13.3,0,19.9,0c9.2,0,18.3,0,27.5,0
		c1.4,0,2.8,0,4.3,0c1.1,0,2.2,0,3.3,0c0.8,0,1.6,0.1,2.4,0.1c34.2,0,68.5,0,102.7,0c53.1,0,106.2,0,159.3,0
		c11.2,0,22.4-0.1,33.6-0.1c12.8,0,25.6,0,38.4,0C493.7,408.4,494,408.4,494.3,408.4z M455.9,459.6c0.2,0,0.4-0.1,0.7-0.1
		c-1-4.4-1.4-9.1-3.1-13.2c-4.5-11.2-21.3-13.5-29-4.3c-3.1,3.7-5.6,7.8-6.4,12.5c-1.7,9.7-3,19.4-4.3,29.2
		c-1.2,9.3-2.1,18.6-3.2,27.9c-1.1,10.3-2.3,20.5-3.3,30.8c-0.3,2.8,0.3,5.5,2.3,7.7c4.6,5.3,15.7,7.3,21.9,3.9
		c3.9-2.1,4.9-6,5.8-9.9c4.9-20.7,9.9-41.5,14.7-62.3C453.7,474.6,456.2,467.3,455.9,459.6z M351.8,504.3c-0.3,0-0.7,0-1,0
		c0,13.3,0,26.6,0,40c0,4.9,2.2,8.5,6.8,10.1c3.1,1.1,6.4,1.8,9.7,1.8c8.6-0.2,12.2-3.5,13.3-11.7c1.5-10.4,2.8-20.9,4.3-31.3
		c2-14.5,4-29,6-43.5c1.1-7.8,0.8-15.4-2.1-22.8c-1.6-4-4-7.3-8.1-9.1c-7.3-3.1-18.6-3.2-24,7.5c-3,5.9-4.7,12.2-4.8,18.8
		C351.7,477.5,351.8,490.9,351.8,504.3z M175,436.4c-10.5,0.1-16.8,5.2-18.7,14.8c-1.3,6.4-1,12.9,0.5,19.2
		c4.4,18.5,8.7,37.1,13.1,55.6c1.7,7.1,3.4,14.2,5.3,21.3c0.7,2.8,2,5.2,4.9,6.6c6.1,3,12,1.9,17.7-0.8c4.8-2.2,6.9-6.1,6.4-11.3
		c-1.2-11.4-2.4-22.9-3.7-34.3c-1.4-12.5-2.8-25-4.2-37.6c-0.8-7.8-1.8-15.5-5.6-22.5C187.2,441,182.6,436.2,175,436.4z
		 M260.8,504.2c-0.4,0-0.7,0-1.1,0c0-13.2,0.1-26.3,0-39.5c-0.1-6.6-1.6-13-4.6-18.9c-3.2-6.4-8.3-10-15.6-9.9
		c-7.3,0.1-13.1,2.7-16.3,9.6c-2.7,6.1-3.8,12.6-3,19.2c1.4,12,3.2,24.1,4.8,36.1c1.5,11.1,3,22.2,4.6,33.2
		c0.6,4.5,1.2,9.1,2.1,13.5c0.8,4.2,3.6,6.7,7.7,7.8c3.6,1,7.2,1,10.8,0.2c8.1-2,10.6-5.2,10.6-13.5
		C260.8,529.5,260.8,516.8,260.8,504.2z M286.1,463.5c0,1.2-0.1,2.4,0,3.5c0.9,14.1,1.8,28.1,2.6,42.2c0.7,11.3,1.3,22.7,2,34
		c0.3,4.8,1.5,9.3,6.6,11.3c5.3,2.1,10.7,2.3,16.1,0.3c4-1.5,6.3-4.3,6.8-8.5c0.3-2.6,0.4-5.2,0.6-7.8c0.9-14.6,1.9-29.2,2.8-43.9
		c0.6-9,0.9-18.1,1.6-27.1c0.5-6.1-0.2-11.9-2-17.7c-2.5-8-7.2-13.5-16.1-14c-6.8-0.4-12.6,1.4-16.3,7.7
		C287.4,449.8,286.1,456.5,286.1,463.5z"/>
	<path class="st6" d="M122,408.4c-6.6,0-13.3,0-19.9,0c0-0.1,0-0.2,0-0.3c-0.6-0.5-1.1-1.2-1.8-1.4c-0.8-0.2-1.7-0.1-2.6-0.1
		c-4,0-4.6-0.5-5.9-4.5c0.7-0.6,1.3-1.3,2-1.8c0.6-0.4,1.4-0.6,2.1-0.9c0.2-1.4,0.5-3.1,0.8-4.8c-0.2-0.1-0.3-0.2-0.5-0.3
		c-0.6,0.8-1.3,1.6-2.1,2.6c-0.4-0.7-0.7-1.1-0.8-1.5c-0.4-0.9-1.1-2.4-0.9-2.6c0.9-0.7,2.1-1.3,3.2-1.4c3.1-0.2,6.1-0.1,9.2,0
		c0.8,0,1.5,0.3,2.3,0.4c0.2,0.3,0.4,0.6,0.6,0.9c0.3-0.3,0.5-0.6,0.8-0.9c2.7-0.2,5.4-0.3,8.1-0.5c0.3,0.5,0.6,0.9,0.8,1.4
		c0.4-0.5,0.7-0.9,1.1-1.4c0.3,0,0.6,0,0.9,0c1,1.9,2.1,3.8,3.4,6.2c-1.1,0.5-2.8,1.3-4.6,1.9c-1.1,0.4-2.3,0.2-3.5,0.4
		c-0.4,0.1-0.8,0.5-0.9,0.8c-0.1,0.2,0.2,0.7,0.5,0.9c0.6,0.7,1.2,1.3,1.9,1.9C118.5,404.9,121.5,404.9,122,408.4z M111.2,395.5
		c-0.2-0.4-0.4-0.9-0.5-1.3c-0.9,0.4-1.9,0.7-2.8,1.2c0,0,0.3,0.9,0.5,1.3C109.3,396.2,110.3,395.9,111.2,395.5z"/>
	<path class="st0" d="M328.8,225.9c-0.6,18.8-1,37.7-1.8,56.5c-0.6,13.9-1.3,27.7-2.4,41.5c-0.9,12.6-1.8,25.2-5.2,37.4
		c-1,3.8-2.9,7.5-4.6,11c-2.8,5.6-15.6,5.9-19.1-1.2c-2.9-5.9-4.7-12.1-5.5-18.5c-1.6-12.7-3-25.5-3.9-38.3
		c-1.2-17.8-1.8-35.6-2.5-53.4c-0.5-13.9-0.8-27.8-1-41.6c-0.1-10.3,0-20.6,0.1-31c0-1.9,0.3-3.8,0.5-5.6c0.4-3.4,2.2-5.4,5.6-6.5
		c10.3-3.4,20.7-3.7,31.2-0.7c6.6,1.9,8.1,3.8,8.3,11.5c0.2,11.2,0.1,22.4,0.1,33.6c0,1.7,0,3.5,0,5.2
		C328.7,225.9,328.7,225.9,328.8,225.9z M298.3,367.9c-0.1,4.1,3.2,7.6,7.3,7.7c4.1,0.1,7.6-3.2,7.7-7.4c0.1-3.9-3.2-7.4-7.2-7.6
		C301.9,360.6,298.4,363.8,298.3,367.9z"/>
	<path class="st7" d="M80.8,389.7c-0.5-0.1-1.1-0.1-1.6-0.2c-7.4-1.1-9.1-2.6-10.9-9.9c-1.4-6-1-11.9,1.3-17.6
		c1.5-3.9,4.3-5.9,8.4-6c7.1-0.2,14.2-0.4,21.3-0.6c0.6,0,1.3-0.1,1.9-0.1c1.9,0,3.8,0,5.7,0c0.3,0,0.6,0,1,0
		c9.3,0.1,18.6,0.1,27.9,0.1c43.8,0,87.5,0,131.3-0.1c3.1,0,6.3-0.3,9.4-0.4c0.5,0.9,1.2,1.6,1.4,2.6c1.8,7.8,4.1,15.6,8.3,22.5
		c2.4,4,5.6,7.4,10.2,9.1c-0.2,0.3-0.3,0.6-0.5,0.9c-2.2,0-4.4,0-6.6,0c-0.9,0-1.9,0-2.8,0c-3.2,0-6.3,0-9.5,0c-0.3,0-0.6,0-0.9,0
		c-0.5,0-0.9,0-1.4,0c-1.4,0-2.8,0-4.3,0c-2.1,0-4.1,0-6.2,0c-1.3,0-2.7,0.1-4,0.1c-0.3,0.1-0.5,0.2-0.8,0.3c-0.5,0.1-1,0.2-1.4,0.4
		c-1.1-1.3-2.1-1.3-3.2,0c-0.2,0-0.4,0-0.6,0c-0.8-0.2-1.5-0.5-2.3-0.7c-2.4,0-4.7,0-7.1,0c-0.3,0-0.6,0-0.9,0c-1.5,0-3.1,0-4.6,0.1
		c-2.2,0-4.3,0-6.5,0c-0.3,0.1-0.5,0.2-0.8,0.3c-0.3,0.1-0.6,0.2-1,0.4c-0.5-0.3-1.1-0.8-1.6-0.8c-7.4-0.1-14.8,0-22.2,0
		c-0.5,0-1.1,0.5-1.6,0.8c-3.8-0.2-7.6-0.4-11.4-0.7c-0.4,0-0.7,0-1.1,0c-0.9,0.1-1.8,0.2-2.8,0.3c-0.6-0.1-1.2-0.2-1.8-0.3
		c-1,0.2-1.9,0.4-2.9,0.6c-0.1,0-0.3-0.1-0.4-0.1c-0.4,0-0.7,0-1.1,0c-0.9-0.2-1.9-0.5-2.8-0.7c-0.5,0-0.9,0-1.4,0
		c-0.6,0.2-1.2,0.5-1.8,0.7c-0.2,0-0.4,0-0.6,0c-0.5-0.3-0.9-0.8-1.4-0.8c-1.6-0.1-3.1,0-4.7,0c-0.6,0-1.3,0-1.9,0c-3,0-6-0.1-9-0.1
		c-0.5,0-0.9,0.5-1.4,0.8c-0.1,0-0.2,0-0.3,0c-0.7-0.3-1.3-0.8-2-0.8c-16.9,0-33.9,0-50.8,0.1c-0.3,0-0.7,0-1,0
		c-6.2-0.1-12.3-0.1-18.5-0.2C84.5,389.8,82.6,389.7,80.8,389.7z"/>
	<path class="st7" d="M334.2,355c0.3,0,0.6-0.1,1-0.1c3.7,0.2,7.4,0.4,11.1,0.5c41.5,0,82.9,0,124.4,0c0.8,0,1.6-0.1,2.4-0.1
		c0.3,0,0.6,0,0.9,0c0.3,0,0.6,0,1,0c11.4,0,22.8,0.1,34.2,0.1c6.8,0,13.5,0.1,20.3,0.1c0.9,0.1,1.9,0.2,2.8,0.3
		c6.1,0.6,9.3,0.9,11.6,12.5c0.1,0.3,0.1,0.6,0.2,1c0,2.4,0,4.7,0,7.1c-0.1,0.3-0.1,0.6-0.2,0.9c-1.1,3-2.1,6-3.2,9
		c-0.5,0.5-0.9,1-1.4,1.5c-3.1,0.6-6.2,1.5-9.3,1.9c-3.2,0.4-6.4,0.3-9.6,0.4c-4.7,0-9.5,0.1-14.2,0.1c-0.8,0-1.6,0-2.4,0
		c-2.4,0-4.7,0-7.1,0c-3.9,0-7.9,0-11.8,0c-0.3,0-0.7,0-1,0c-0.8,0-1.6,0-2.3,0c-0.5,0-1,0-1.5,0c-0.8,0-1.6,0-2.3,0
		c-0.6,0-1.3,0-1.9,0c-1.9,0-3.8,0-5.6,0c-0.8,0-1.6,0-2.5,0l-0.2-0.1c0,0-0.2,0-0.2,0c-0.3,0-0.7,0-1,0c-1.4,0-2.8,0-4.2,0
		c-0.8,0-1.6,0-2.4,0c-13.6,0-27.3-0.1-40.9-0.1c-27.7,0-55.3,0-83,0c-0.9,0-1.7,0.1-2.6,0.1c-0.3,0-0.6,0-0.9,0
		c-0.6,0-1.3,0-1.9-0.1c-0.6,0-1.3,0-1.9,0c-0.5,0-1,0-1.5,0c-1.6,0-3.1,0-4.7,0c-0.3,0-0.7,0-1,0c-2.4,0-4.7,0-7.1,0
		c0-0.1,0-0.3,0-0.4c7.3-2.5,11.4-8.3,13.9-15C330.7,368.2,332.2,361.5,334.2,355z"/>
	<path class="st8" d="M328.5,390.1c0.6,0,1.3,0,1.9,0c0.3,0.3,0.7,0.7,1,1c0.3-0.3,0.6-0.6,0.9-0.9c0.3,0,0.6,0,0.9,0
		c0.8,0.3,1.5,0.9,2.3,0.9c6.6,0.1,13.3,0,19.9,0c5.2,0,10.3-0.1,15.5,0c4.8,0.1,9.7,0.4,14.5,0.4c8.2,0.1,16.5,0,24.7,0
		c5.2,0,10.4,0.3,15.6,0.4c5.3,0.1,10.7,0,16,0.1c2.9,0,5.7,0.3,9.2,0.5c-0.3,1.1-0.8,2.4-1.1,3.6c-0.1,0.5-0.1,1.2,0.2,1.5
		c0.2,0.3,1.1,0.3,1.4,0.1c2.2-2,4.9-0.7,7.3-1.4c0.3-0.1,1.1,0.3,1.1,0.5c0.1,0.5,0,1.2-0.3,1.5c-0.8,0.6-1.8,0.9-2.7,1.3
		c-0.8,0.4-1.7,0.6-2.3,1.1c-1.9,1.6-1.9,1.6-2.7-0.8c-2.2,0.1-4.4,0.3-6.9,0.4c1.2,5.3,5.6,5,9.6,5.7c0.2-0.3,0.4-0.8,0.8-1
		c0.5-0.3,1-0.5,1.6-0.6c0.2,0,0.8,0.6,0.7,0.8c-0.1,0.6-0.4,1.1-0.8,1.6c-0.6,0.6-1.3,1.1-1.9,1.6c-11.2,0-22.4,0.1-33.6,0.1
		c-53.1,0-106.2,0-159.3,0c-34.2,0-68.5,0-102.7,0c-0.8,0-1.6-0.1-2.4-0.1c-0.4-0.8-0.8-1.6-1.2-2.5c2.3-1.3,4.7-2.5,7.4-1.1
		c-0.1-1.9-0.2-3.4-0.3-5.7c-0.7,0.9-1.1,1.4-1.6,1.9c-0.6,0.7-1.3,1.3-1.9,1.9c-0.5-0.7-1-1.3-1.4-2c-0.2-0.4-0.3-0.9-0.6-1.2
		c-0.8-0.7-1.6-1.4-2.6-2.2c-1.1,0.8-2.7,2.2-3.9-0.7c1.2-0.4,2.3-0.7,3.3-1c0-0.2-0.1-0.4-0.1-0.6c-0.7-0.2-1.4-0.5-2.3-0.8
		c0.2-1.1,0.3-2.3,0.5-3.4c0.3,0,0.6,0,0.9,0c0.4,0.5,0.8,1.3,1.3,1.6c1.1,0.6,1.9,1.2,1.2,2.6c-0.2,0.4,0,0.9,0,1.6
		c1-0.5,1.7-0.9,2.5-1.3c0.2,0.7,0.3,1.3,0.6,2.5c0.8-1.3,1.9-2.4,1.7-2.9c-0.4-1-1.6-1.7-2.5-2.5c0.1-0.2,0.1-0.4,0.2-0.6
		c1.7,0.5,3.4,0.9,4.4,1.2c1.8-0.5,3.1-1.1,4.4-1.1c4.4-0.1,8.8,0,13.2-0.1c0.8,0,1.5-0.6,2.3-0.9c0.5-0.1,0.9-0.2,1.4-0.3
		c0.4,0,0.7,0,1.1,0c0.3,2.4,2.1,0.9,3.2,1.2c1.1,0.3,2-0.1,1.9-1.5c0.9-0.1,1.8-0.2,2.8-0.3c0,0.3,0,0.6,0.1,0.9c0,0.3,0,0.6,0,0.8
		c0.3-0.3,0.6-0.6,1-0.8c0-0.3,0-0.6,0.1-0.9c3.8,0.2,7.6,0.4,11.4,0.7c5.1,0.1,10.2,0.2,15.3,0.2c3.4,0,6.8-0.2,10.1-0.2
		c0.3-0.1,0.6-0.2,1-0.4c0.3,0.2,0.7,0.4,1,0.6c1.1,0,2.2,0.1,3.2,0c1-0.1,2-0.6,3-0.9c1.5,0,3.1,0,4.6-0.1c0.1,0.4,0.2,0.9,0.4,1.3
		c0.1,0,0.3,0,0.4,0c0.1-0.4,0.1-0.8,0.2-1.2c2.4,0,4.7,0,7.1,0c0.8,0.2,1.5,0.5,2.3,0.7c0.2,0,0.4,0,0.6,0c1.1,0,2.1,0,3.2,0
		c0.5-0.1,1-0.2,1.4-0.4c0.3,0.2,0.7,0.4,1,0.6c1.2-0.4,2.9,1,3.8-1c2.1,0,4.1,0,6.2,0c1.3,1.4,3,1.4,4.3,0c0.5,0,0.9,0,1.4,0
		c0.1,0.3,0.2,0.5,0.4,0.8c0.2-0.3,0.4-0.5,0.6-0.8c3.2,0,6.3,0,9.5,0c1,1.5,1.9,1.5,2.8,0c2.2,0,4.4,0,6.6,0
		c1.3,0.2,2.6,0.4,3.8,0.6c0.8,0.3,1.6,0.6,2.4,0.9c1.1,0.2,2.2,0.3,3.3,0.5c0.9-0.2,1.9-0.3,2.8-0.5c2.1-0.5,4.1-1,6.2-1.5
		c2.4,0,4.7,0,7.1,0c0.3,0,0.7,0,1,0c1.6,0,3.1,0,4.7,0C327.5,390,328,390,328.5,390.1z"/>
	<path class="st2" d="M314.3,390c-2.1,0.5-4.1,1-6.2,1.5c2.1-0.6,4.1-1.3,6.2-1.9C314.3,389.8,314.3,389.9,314.3,390z"/>
	<path class="st2" d="M299.6,390.6c-1.3-0.2-2.6-0.4-3.8-0.6c0.2-0.3,0.3-0.6,0.5-0.9C297.4,389.6,298.5,390.1,299.6,390.6z"/>
	<path class="st2" d="M305.3,392c-1.1-0.2-2.2-0.3-3.3-0.5C303.4,389.6,304.3,390.7,305.3,392z"/>
	<path class="st5" d="M471.7,349.8c-1.6-0.2-3.1-0.1-4.5-0.5c-1-0.3-2.6-1.2-2.5-1.7c0.2-2.5-1.6-2.1-2.9-2.4
		c-1.6-0.3-2-0.9-1.1-2.4c0.6-0.9,0.9-2,1.2-2.7c1.1,1.7,2.1,3.1,3.1,4.7c0.7-0.6,1.2-1,1.6-1.3
		C469.9,344.5,472.1,346.4,471.7,349.8z"/>
	<path class="st2" d="M506.1,390c4.7,0,9.5-0.1,14.2-0.1c-0.7,0.4-1.5,1-2.2,1c-3.6,0.1-7.1,0.1-10.7,0
		C507,391,506.6,390.4,506.1,390z"/>
	<path class="st5" d="M474.9,355.3c-0.3,0-0.6,0-1,0c0.1-2.8,1-3.7,3.2-3.1c0.6,0.2,1.2,0.3,1.8,0.5
		C476.9,354,475.9,354.7,474.9,355.3z"/>
	<path class="st2" d="M496.7,390c2.4,0,4.7,0,7.1,0c0,0.2,0,0.4-0.1,0.4C502.2,391.5,497.7,391.2,496.7,390z"/>
	<path class="st8" d="M465,393.8c-0.8,0.6-1.4,1.3-1.8,1.3c-0.5,0-1-0.7-1.5-1.1c0.5-0.5,0.9-1.2,1.5-1.4
		C463.5,392.5,464.1,393.2,465,393.8z"/>
	<path class="st5" d="M474.2,348.3c-0.2-0.9-0.5-1.8-0.7-2.8c0.2-0.1,0.4-0.3,0.6-0.4c0.5,0.8,1.2,1.5,1.5,2.3
		c0.2,0.4-0.3,1.1-0.5,1.6C474.8,348.8,474.5,348.5,474.2,348.3z"/>
	<path class="st5" d="M465.4,341.6c-0.1-0.6-0.5-1.4-0.3-1.7c0.3-0.5,1.1-0.7,1.7-1.1c0.2,0.2,0.3,0.3,0.5,0.5
		c-0.4,0.8-0.9,1.5-1.3,2.3C465.8,341.7,465.6,341.7,465.4,341.6z"/>
	<path class="st8" d="M457.5,395.8c-0.1-1.3-0.1-2.2-0.1-3.2C459.5,394.1,459.5,394.2,457.5,395.8z"/>
	<path class="st2" d="M532.2,355.8c-0.9-0.1-1.9-0.2-2.8-0.3C530.5,353.7,531.4,354.2,532.2,355.8z"/>
	<path class="st8" d="M468.4,394.6c-0.6,0-1.3,0-1.9,0c0-0.2,0-0.5,0-0.7c0.7,0,1.3,0,2,0C468.5,394.2,468.5,394.4,468.4,394.6z"/>
	<path class="st5" d="M473,342.3c-0.4-0.5-0.7-0.8-0.8-1.2c0-0.2,0.4-0.5,0.6-0.8c0.3,0.3,0.7,0.6,1,1
		C473.8,341.5,473.3,341.9,473,342.3z"/>
	<path class="st2" d="M557.4,371.6c-0.5-0.2-1-0.4-1.5-0.6c0.1-0.2,0.2-0.5,0.3-0.7c0.5,0.2,1,0.4,1.5,0.6
		C557.6,371.1,557.5,371.3,557.4,371.6z"/>
	<path class="st2" d="M459.7,390c0.8,0,1.6,0,2.4,0C461.3,390,460.5,390,459.7,390z"/>
	<path class="st2" d="M475.8,390c0.6,0,1.3,0,1.9,0C477.1,390,476.4,390,475.8,390z"/>
	<path class="st2" d="M467.7,390.1c0.8,0,1.6,0,2.5,0C469.3,390,468.5,390,467.7,390.1z"/>
	<path class="st2" d="M539.3,387.7c0.5-0.5,0.9-1,1.4-1.5C540.2,386.7,539.8,387.2,539.3,387.7z"/>
	<path class="st2" d="M480.1,390c0.5,0,1,0,1.5,0C481,390,480.6,390,480.1,390z"/>
	<path class="st2" d="M494.3,408.4c-0.3,0-0.6,0-1,0c0.1-0.3,0.3-0.6,0.4-0.9C493.9,407.8,494.1,408.1,494.3,408.4z"/>
	<path class="st2" d="M466.3,390c0.3,0,0.7,0,1,0C467,390,466.7,390,466.3,390z"/>
	<path class="st2" d="M544,369.3c-0.1-0.3-0.1-0.6-0.2-1C543.9,368.6,543.9,368.9,544,369.3z"/>
	<path class="st2" d="M551,365.6c0.1,0.1,0.3,0.1,0.4,0.2c0,0.1-0.1,0.3-0.2,0.4c-0.1-0.1-0.3-0.1-0.4-0.2
		C550.8,365.9,551,365.8,551,365.6z"/>
	<path class="st2" d="M555.6,385.5c0.1-0.1,0.1-0.3,0.2-0.4c0.1,0,0.3,0.1,0.4,0.2c-0.1,0.1-0.1,0.3-0.2,0.4
		C555.9,385.7,555.7,385.5,555.6,385.5z"/>
	<path class="st2" d="M483.9,390c0.3,0,0.7,0,1,0C484.5,390,484.2,390,483.9,390z"/>
	<path class="st8" d="M461.8,404.4c0.1-0.1,0.1-0.3,0.2-0.4c0.1,0,0.3,0.1,0.4,0.2c-0.1,0.1-0.1,0.3-0.2,0.4
		C462.1,404.6,461.9,404.5,461.8,404.4z"/>
	<path class="st2" d="M543.9,377.2c0.1-0.3,0.1-0.6,0.2-0.9c0.2,0.1,0.5,0.3,0.7,0.4C544.5,376.9,544.2,377.1,543.9,377.2z"/>
	<path class="st3" d="M101.1,345.2c0.7,1.1,1.2,1.7,1.6,2.4c3.1-0.1,3.7,0.4,3.4,3c-1.7-0.6-3.4-1.1-5-1.7c-0.8-0.3-1.5-0.8-2.2-1.2
		C99.5,346.9,100.2,346.2,101.1,345.2z"/>
	<path class="st3" d="M111,347.4c0.7,0.8,1.4,1.3,1.4,1.7c-0.1,0.5-0.8,1-1.2,1.5c-0.5-0.5-1.2-0.8-1.3-1.4
		C109.7,348.8,110.4,348.3,111,347.4z"/>
	<path class="st3" d="M106.7,342.7c-0.6,0.4-1.1,1-1.4,0.9c-0.5-0.1-0.9-0.7-1.3-1c0.4-0.4,0.8-0.9,1.3-1
		C105.6,341.5,106.1,342.1,106.7,342.7z"/>
	<path class="st3" d="M109.3,340.1c-0.3,0.4-0.6,0.8-1,1.1c-0.1-0.1-0.3-0.2-0.4-0.3c0.3-0.4,0.6-0.8,0.9-1.3
		C108.9,339.8,109.1,339.9,109.3,340.1z"/>
	<path class="st3" d="M107.8,355.3c-0.3,0-0.6,0-1,0c0.2-0.3,0.4-0.7,0.6-1C107.5,354.6,107.6,355,107.8,355.3z"/>
	<path class="st4" d="M152.3,391c-0.2,1.1-0.3,2.3-0.5,3.4c0.9,0.3,1.6,0.5,2.3,0.8c0,0.2,0.1,0.4,0.1,0.6c-1.1,0.3-2.1,0.6-3.3,1
		c1.3,3,2.8,1.5,3.9,0.7c1,0.8,1.8,1.5,2.6,2.2c0.3,0.3,0.4,0.8,0.6,1.2c0.5,0.7,1,1.3,1.4,2c0.6-0.6,1.3-1.3,1.9-1.9
		c0.4-0.5,0.8-1,1.6-1.9c0.1,2.2,0.2,3.8,0.3,5.7c-2.7-1.4-5.1-0.2-7.4,1.1c0.4,0.9,0.8,1.7,1.2,2.5c-1.1,0-2.2,0-3.3,0
		c0-2.9,0-2.9-3.1-2.4c-0.5-0.8-0.9-1.5-1.4-2.2c-0.2,0.1-0.4,0.2-0.5,0.3c0.2,1.5,0.5,2.9,0.7,4.4c-9.2,0-18.3,0-27.5,0
		c-0.4-3.5-3.5-3.4-5.6-4.6c-0.6-0.6-1.3-1.3-1.9-1.9c-0.2-0.3-0.6-0.7-0.5-0.9c0.2-0.3,0.6-0.7,0.9-0.8c1.2-0.2,2.4-0.1,3.5-0.4
		c1.8-0.6,3.4-1.4,4.6-1.9c-1.3-2.4-2.4-4.3-3.4-6.2C130.5,391.3,141.4,391.2,152.3,391z M149.9,394.8c0.2-0.3,0.4-0.6,0.6-1
		c-0.7-0.3-1.3-0.7-2-1c-0.1,0.3-0.3,0.5-0.4,0.8C148.7,394,149.3,394.4,149.9,394.8z M149.7,400.2c0.2-0.3,0.4-0.5,0.6-0.8
		c-0.5-0.4-0.9-0.8-1.4-1.2c-0.2,0.2-0.4,0.4-0.6,0.7C148.8,399.3,149.3,399.7,149.7,400.2z M124.1,406.9c0-0.2,0-0.4,0-0.6
		c-0.5,0-0.9,0.1-1.4,0.1c0,0.2,0,0.3,0,0.5C123.2,406.9,123.6,406.9,124.1,406.9z M138.4,392.9c-0.2-0.1-0.3-0.3-0.5-0.4
		c-0.2,0.3-0.4,0.6-0.7,1c0.1,0.1,0.3,0.2,0.4,0.3C138,393.5,138.2,393.2,138.4,392.9z M146.4,396.4c-0.1-0.1-0.1-0.3-0.2-0.4
		c-0.1,0-0.3,0.1-0.4,0.1c0.1,0.1,0.1,0.3,0.2,0.4C146.1,396.5,146.3,396.4,146.4,396.4z"/>
	<path class="st4" d="M182.6,391c-0.8,0.3-1.5,0.9-2.3,0.9c-4.4,0.1-8.8,0-13.2,0.1c-1.3,0-2.6,0.7-4.4,1.1c-1-0.3-2.7-0.8-4.4-1.2
		c-0.1,0.2-0.1,0.4-0.2,0.6c0.9,0.8,2.1,1.5,2.5,2.5c0.2,0.5-0.9,1.6-1.7,2.9c-0.3-1.2-0.5-1.8-0.6-2.5c-0.8,0.4-1.5,0.8-2.5,1.3
		c0-0.7-0.1-1.3,0-1.6c0.7-1.4-0.1-2-1.2-2.6c-0.6-0.3-0.9-1-1.3-1.6c1.8-0.1,3.6-0.2,5.4-0.3c0.1,0,0.2,0,0.3,0
		c3.1,0.1,6.2,0.2,9.3,0.2c0.4,0,0.7-0.6,1.1-0.9c0.6,0,1.3,0,1.9,0c0.4,0.3,0.8,0.9,1.3,0.9c1.6,0,3.2-0.1,4.8-0.2
		c0.2,0,0.4,0,0.6,0c0.6-0.2,1.2-0.5,1.8-0.7c0.5,0,0.9,0,1.4,0C181.7,390.4,182.1,390.7,182.6,391z"/>
	<path class="st6" d="M80.8,389.7c1.9,0,3.8,0.1,5.7,0.1c0.1,1.1-0.3,1.9-1.5,1.6C83.4,391.1,81.4,392,80.8,389.7z"/>
	<path class="st6" d="M87.7,391.6c1.9,0,2.8,0.7,2.8,2.3c0,0.3-1,0.9-1.5,0.8C87.6,394.2,87,393.2,87.7,391.6z"/>
	<path class="st6" d="M85.7,399.4c1.3,0.2,2.5,0.3,3.8,0.5c0.1,0.1,0.3,0.3,0.4,0.4c-0.8,0.5-1.6,1.4-2.4,1.4
		C86.3,401.7,85.1,401,85.7,399.4z"/>
	<path class="st6" d="M86.7,405c-0.5,0.5-0.8,0.9-1.1,0.9c-0.3,0-0.6-0.5-0.9-0.8c0.3-0.3,0.5-0.7,0.8-0.8
		C85.7,404.3,86.1,404.7,86.7,405z"/>
	<path class="st4" d="M118.6,391.5c-0.4,0.5-0.7,0.9-1.1,1.4c-0.3-0.5-0.6-0.9-0.8-1.4C117.4,391.5,118,391.5,118.6,391.5z"/>
	<path class="st6" d="M81.2,404c-0.5,0.3-0.9,0.5-1.4,0.8c-0.1-0.2-0.2-0.4-0.3-0.6c0.5-0.3,0.9-0.5,1.4-0.8
		C81,403.6,81.1,403.8,81.2,404z"/>
	<path class="st4" d="M108.7,392c-0.3,0.3-0.5,0.6-0.8,0.9c-0.2-0.3-0.4-0.6-0.6-0.9C107.8,392,108.2,392,108.7,392z"/>
	<path class="st6" d="M91.5,398.5c-0.1,0.1-0.1,0.3-0.2,0.4c-0.1,0-0.3-0.1-0.4-0.1c0.1-0.1,0.1-0.3,0.2-0.4
		C91.2,398.3,91.3,398.4,91.5,398.5z"/>
	<path class="st2" d="M104.9,390c0.3,0,0.7,0,1,0C105.6,390,105.2,390,104.9,390z"/>
	<path class="st9" d="M455.9,459.6c0.2,7.7-2.2,14.9-3.9,22.3c-4.8,20.8-9.7,41.5-14.7,62.3c-0.9,3.8-1.9,7.7-5.8,9.9
		c-6.2,3.4-17.3,1.4-21.9-3.9c-1.9-2.2-2.5-5-2.3-7.7c1-10.3,2.2-20.5,3.3-30.8c1-9.3,2-18.7,3.2-27.9c1.3-9.7,2.5-19.5,4.3-29.2
		c0.8-4.6,3.3-8.8,6.4-12.5c7.7-9.3,24.5-6.9,29,4.3c1.7,4.2,2.1,8.8,3.1,13.2C456.4,459.5,456.2,459.6,455.9,459.6z M443.8,458.8
		c-0.1,0-0.3-0.1-0.4-0.1c-0.1-1.3,0-2.7-0.2-4c-0.3-2.8-1.8-4.5-4.2-5c-3.1-0.6-5.1,0.2-6.6,2.8c-0.6,1.2-1.3,2.4-1.6,3.7
		c-1.6,8.7-3.3,17.3-4.7,26c-2,12.6-3.8,25.2-5.5,37.9c-0.9,6.7-1.9,13.4-2.5,20.1c-0.3,2.7,1,4.2,3.3,4.7c3,0.7,4.6,0,5.7-2.8
		c0.6-1.6,1.1-3.3,1.4-5c3.8-18.7,7.5-37.4,11.2-56.1C441.1,473.7,442.4,466.3,443.8,458.8z"/>
	<path class="st10" d="M351.8,504.3c0-13.4-0.1-26.8,0.1-40.2c0.1-6.6,1.8-12.9,4.8-18.8c5.4-10.7,16.7-10.7,24-7.5
		c4.1,1.8,6.5,5,8.1,9.1c2.9,7.4,3.2,15,2.1,22.8c-2,14.5-4,29-6,43.5c-1.4,10.4-2.8,20.9-4.3,31.3c-1.2,8.2-4.7,11.5-13.3,11.7
		c-3.2,0.1-6.6-0.7-9.7-1.8c-4.6-1.6-6.8-5.2-6.8-10.1c0-13.3,0-26.6,0-40C351.1,504.3,351.5,504.3,351.8,504.3z M361.1,532.8
		c0,3.2-0.1,5.7,0,8.1c0.2,3.5,1.5,4.6,4.9,4.6c2.9,0,4.3-1.2,4.7-4.8c1.5-13.5,2.9-26.9,4.3-40.4c1.1-10.3,2.3-20.5,3.1-30.8
		c0.4-5.2,0.3-10.5-0.2-15.7c-0.3-3.4-2.3-4.6-5.4-4.8c-2.7-0.2-4.8,1-5.5,4.1c-1.1,4.5-2,9.1-2.4,13.6c-0.6,7.5-0.7,15.1-1.1,22.7
		C362.6,504.1,361.8,518.8,361.1,532.8z"/>
	<path class="st9" d="M175,436.4c7.6-0.2,12.2,4.6,15.7,11.1c3.8,7.1,4.8,14.8,5.6,22.5c1.3,12.5,2.8,25,4.2,37.6
		c1.3,11.4,2.5,22.9,3.7,34.3c0.5,5.2-1.6,9.1-6.4,11.3c-5.8,2.7-11.7,3.8-17.7,0.8c-2.8-1.4-4.1-3.9-4.9-6.6
		c-1.9-7.1-3.6-14.2-5.3-21.3c-4.4-18.5-8.7-37.1-13.1-55.6c-1.5-6.4-1.8-12.8-0.5-19.2C158.2,441.6,164.5,436.5,175,436.4z
		 M193.5,539.4c0-0.7,0.1-1.4,0-2.1c-1.7-12.2-3.5-24.3-5.2-36.5c-1.7-11.5-3.2-23.1-5.2-34.6c-0.8-4.7-2.4-9.3-3.9-13.8
		c-0.8-2.4-2.9-3.4-5.6-3c-3.3,0.5-5.1,2.2-5.1,5.7c0.1,4.7,0.3,9.5,1.2,14.1c3.8,19.8,7.8,39.6,11.7,59.3c0.9,4.3,1.8,8.6,2.9,12.9
		c0.8,2.9,2.3,3.8,5.1,3.5C192.5,544.7,193.6,543.3,193.5,539.4z"/>
	<path class="st10" d="M260.8,504.2c0,12.6,0,25.2,0,37.9c0,8.3-2.6,11.5-10.6,13.5c-3.6,0.9-7.2,0.8-10.8-0.2
		c-4.1-1.1-6.9-3.6-7.7-7.8c-0.9-4.5-1.5-9-2.1-13.5c-1.5-11.1-3.1-22.2-4.6-33.2c-1.6-12-3.4-24-4.8-36.1c-0.8-6.6,0.3-13.1,3-19.2
		c3.1-6.9,9-9.6,16.3-9.6c7.4-0.1,12.4,3.4,15.6,9.9c3,6,4.5,12.3,4.6,18.9c0.1,13.2,0,26.3,0,39.5
		C260.1,504.2,260.4,504.2,260.8,504.2z M232.6,460.7c1.2,12.7,2.5,25.1,3.7,37.5c0.9,8.6,1.7,17.2,2.7,25.9
		c0.6,5.9,1.2,11.7,2.1,17.6c0.5,3.2,2.1,4.2,5.4,3.9c2.7-0.2,4-1.4,4-4.5c0-5.2-0.2-10.4-0.4-15.6c-1-20.1-1.8-40.1-3-60.2
		c-0.3-4.3-1.4-8.7-2.6-12.9c-0.8-2.6-2.8-3.5-5.4-3.3c-3.1,0.3-4.5,1.3-5.2,4.2C233.2,455.8,232.9,458.4,232.6,460.7z"/>
	<path class="st10" d="M286.1,463.5c0-7,1.2-13.8,4.9-19.9c3.7-6.3,9.6-8.1,16.3-7.7c8.9,0.5,13.6,6,16.1,14
		c1.8,5.8,2.5,11.7,2,17.7c-0.7,9-1.1,18.1-1.6,27.1c-0.9,14.6-1.8,29.2-2.8,43.9c-0.2,2.6-0.3,5.2-0.6,7.8
		c-0.5,4.2-2.8,7.1-6.8,8.5c-5.4,2-10.8,1.9-16.1-0.3c-5.1-2-6.3-6.5-6.6-11.3c-0.7-11.3-1.3-22.6-2-34c-0.9-14.1-1.8-28.1-2.6-42.2
		C286,465.9,286.1,464.7,286.1,463.5z M312,495.4c0.2-5.9,0.6-16.9,0.7-27.9c0-4.7-0.5-9.4-1.3-14.1c-0.5-3.2-2.6-4.5-5.5-4.6
		c-3-0.1-4.9,1.1-5.6,4.4c-0.8,4-1.5,8.1-1.4,12.1c0.2,17.1,0.7,34.2,1.2,51.3c0.2,8.2,0.5,16.4,1,24.6c0.2,3.2,1.6,4.3,4.5,4.4
		c3.2,0.1,4.5-1,5-4.1c0.2-1.1,0.4-2.2,0.4-3.3C311.3,525.6,311.6,513,312,495.4z"/>
	<path class="st8" d="M149.4,408.4c-0.2-1.5-0.5-2.9-0.7-4.4c0.2-0.1,0.4-0.2,0.5-0.3c0.4,0.7,0.9,1.4,1.4,2.2c3-0.5,3-0.5,3.1,2.4
		C152.3,408.4,150.9,408.4,149.4,408.4z"/>
	<path class="st6" d="M111.2,395.5c-0.9,0.4-1.9,0.8-2.8,1.2c-0.2-0.5-0.5-1.3-0.5-1.3c0.9-0.5,1.8-0.8,2.8-1.2
		C110.8,394.6,111,395,111.2,395.5z"/>
	<path class="st9" d="M298.3,367.9c0.1-4.1,3.6-7.3,7.8-7.2c4,0.1,7.4,3.6,7.2,7.6c-0.1,4.2-3.6,7.5-7.7,7.4
		C301.5,375.6,298.1,372,298.3,367.9z"/>
	<path class="st6" d="M230.9,390.8c-3.4,0.1-6.8,0.2-10.1,0.2c-5.1,0-10.2-0.1-15.3-0.2c0.5-0.3,1.1-0.8,1.6-0.8
		c7.4-0.1,14.8-0.1,22.2,0C229.8,390,230.3,390.5,230.9,390.8z"/>
	<path class="st3" d="M169.3,390c-0.4,0.3-0.7,0.9-1.1,0.9c-3.1,0-6.2-0.1-9.3-0.2c0.5-0.3,0.9-0.8,1.4-0.8
		C163.3,389.9,166.3,390,169.3,390z"/>
	<path class="st4" d="M190.2,390.4c0.2,1.5-0.8,1.8-1.9,1.5c-1.1-0.3-3,1.2-3.2-1.2c0.1,0,0.3,0,0.4,0.1c1-0.2,1.9-0.4,2.9-0.6
		C189,390.2,189.6,390.3,190.2,390.4z"/>
	<path class="st6" d="M239.1,390.1c-1,0.3-2,0.7-3,0.9c-1,0.2-2.1,0-3.2,0c-0.1-0.3-0.1-0.6-0.2-0.9
		C234.8,390.1,236.9,390.1,239.1,390.1z"/>
	<path class="st3" d="M177.3,390.8c-1.6,0.1-3.2,0.2-4.8,0.2c-0.4,0-0.9-0.6-1.3-0.9c1.6,0,3.1-0.1,4.7,0
		C176.4,390,176.9,390.5,177.3,390.8z"/>
	<path class="st6" d="M274.5,390c-1.2,1.4-3,1.4-4.3,0C271.7,390,273.1,390,274.5,390z"/>
	<path class="st6" d="M264.1,390.1c-0.8,1.9-2.6,0.6-3.8,1c-0.1-0.3-0.1-0.6-0.2-0.9C261.4,390.1,262.7,390.1,264.1,390.1z"/>
	<path class="st4" d="M289.2,390c-0.9,1.6-1.9,1.5-2.8,0C287.3,390,288.2,390,289.2,390z"/>
	<path class="st3" d="M188.4,390.1c-1,0.2-1.9,0.4-2.9,0.6C186.5,390.6,187.4,390.3,188.4,390.1z"/>
	<path class="st3" d="M182.6,391c-0.5-0.3-0.9-0.7-1.4-1c0.9,0.2,1.9,0.5,2.8,0.7C183.5,390.8,183.1,390.9,182.6,391z"/>
	<path class="st6" d="M257.9,390.8c-1.1,0-2.1,0-3.2,0C255.7,389.4,256.8,389.4,257.9,390.8z"/>
	<path class="st6" d="M254.1,390.8c-0.8-0.2-1.5-0.5-2.3-0.7C252.5,390.3,253.3,390.5,254.1,390.8z"/>
	<path class="st4" d="M244.7,390c-0.1,0.4-0.1,0.8-0.2,1.2c-0.1,0-0.3,0-0.4,0c-0.1-0.4-0.2-0.9-0.4-1.3
		C244,390.1,244.3,390,244.7,390z"/>
	<path class="st3" d="M179.8,390c-0.6,0.3-1.2,0.5-1.8,0.7C178.5,390.5,179.1,390.3,179.8,390z"/>
	<path class="st6" d="M276.9,390c-0.2,0.3-0.4,0.5-0.6,0.8c-0.1-0.3-0.2-0.5-0.4-0.8C276.2,390,276.6,390,276.9,390z"/>
	<path class="st3" d="M193,391c0-0.3,0-0.6-0.1-0.9c0.4,0,0.7,0,1.1,0c0,0.3,0,0.6-0.1,0.9C193.7,391,193.3,391,193,391z"/>
	<path class="st4" d="M260.1,390.1c0.1,0.3,0.1,0.6,0.2,0.9c-0.3-0.2-0.7-0.4-1-0.6C259.6,390.3,259.8,390.2,260.1,390.1z"/>
	<path class="st4" d="M232.6,390.1c0.1,0.3,0.1,0.6,0.2,0.9c-0.3-0.2-0.7-0.4-1-0.6C232.1,390.3,232.3,390.2,232.6,390.1z"/>
	<path class="st4" d="M332.3,390.1c-0.3,0.3-0.6,0.6-0.9,0.9c-0.3-0.3-0.7-0.7-1-1C331,390,331.7,390,332.3,390.1z"/>
	<path class="st2" d="M328.5,390.1c-0.5,0-1,0-1.5,0C327.5,390,328,390,328.5,390.1z"/>
	<path class="st2" d="M322.4,390c-0.3,0-0.7,0-1,0C321.7,390,322,390,322.4,390z"/>
	<path class="st4" d="M193,391c0.3,0,0.6,0,0.9,0c-0.3,0.3-0.6,0.6-1,0.8C193,391.6,193,391.3,193,391z"/>
	<path class="st8" d="M149.9,394.8c-0.6-0.4-1.3-0.8-1.9-1.1c0.1-0.3,0.3-0.5,0.4-0.8c0.7,0.3,1.3,0.7,2,1
		C150.3,394.2,150.1,394.5,149.9,394.8z"/>
	<path class="st8" d="M149.7,400.2c-0.4-0.4-0.9-0.9-1.3-1.3c0.2-0.2,0.4-0.4,0.6-0.7c0.5,0.4,0.9,0.8,1.4,1.2
		C150.1,399.6,149.9,399.9,149.7,400.2z"/>
	<path class="st6" d="M124.1,406.9c-0.5,0-0.9,0-1.4,0c0-0.2,0-0.3,0-0.5c0.5,0,0.9-0.1,1.4-0.1
		C124.1,406.5,124.1,406.7,124.1,406.9z"/>
	<path class="st8" d="M138.4,392.9c-0.2,0.3-0.5,0.6-0.7,0.9c-0.1-0.1-0.3-0.2-0.4-0.3c0.2-0.3,0.4-0.6,0.7-1
		C138.1,392.6,138.3,392.8,138.4,392.9z"/>
	<path class="st8" d="M146.4,396.4c-0.1,0.1-0.3,0.2-0.4,0.1c-0.1,0-0.1-0.2-0.2-0.4c0.1-0.1,0.3-0.2,0.4-0.1
		C146.3,396,146.4,396.2,146.4,396.4z"/>
	<path class="st11" d="M443.8,458.8c-1.4,7.4-2.7,14.9-4.1,22.3c-3.7,18.7-7.4,37.4-11.2,56.1c-0.3,1.7-0.8,3.4-1.4,5
		c-1.1,2.8-2.7,3.4-5.7,2.8c-2.3-0.5-3.6-2-3.3-4.7c0.7-6.7,1.6-13.4,2.5-20.1c1.8-12.6,3.6-25.3,5.5-37.9c1.4-8.7,3-17.3,4.7-26
		c0.2-1.3,0.9-2.5,1.6-3.7c1.5-2.7,3.5-3.5,6.6-2.8c2.4,0.5,3.9,2.2,4.2,5c0.2,1.3,0.1,2.7,0.2,4
		C443.5,458.8,443.6,458.8,443.8,458.8z"/>
	<path class="st11" d="M361.1,532.8c0.7-13.9,1.5-28.6,2.3-43.3c0.4-7.6,0.5-15.1,1.1-22.7c0.4-4.6,1.3-9.2,2.4-13.6
		c0.8-3.1,2.8-4.3,5.5-4.1c3.2,0.2,5.1,1.4,5.4,4.8c0.5,5.2,0.6,10.5,0.2,15.7c-0.8,10.3-2,20.5-3.1,30.8
		c-1.4,13.5-2.8,26.9-4.3,40.4c-0.4,3.6-1.8,4.8-4.7,4.8c-3.4,0-4.7-1.1-4.9-4.6C361,538.4,361.1,536,361.1,532.8z"/>
	<path class="st11" d="M193.5,539.4c0.1,3.8-1,5.3-4.2,5.6c-2.8,0.3-4.3-0.6-5.1-3.5c-1.1-4.3-2.1-8.6-2.9-12.9
		c-4-19.8-8-39.5-11.7-59.3c-0.9-4.6-1.1-9.4-1.2-14.1c-0.1-3.6,1.8-5.2,5.1-5.7c2.6-0.4,4.7,0.6,5.6,3c1.6,4.5,3.1,9.1,3.9,13.8
		c2,11.5,3.5,23,5.2,34.6c1.8,12.2,3.5,24.3,5.2,36.5C193.6,538,193.5,538.7,193.5,539.4z"/>
	<path class="st11" d="M232.6,460.7c0.3-2.3,0.6-4.9,1.1-7.4c0.7-2.9,2.1-4,5.2-4.2c2.5-0.2,4.6,0.6,5.4,3.3
		c1.2,4.2,2.4,8.5,2.6,12.9c1.2,20.1,2.1,40.1,3,60.2c0.2,5.2,0.5,10.4,0.4,15.6c0,3.1-1.3,4.3-4,4.5c-3.3,0.3-4.9-0.7-5.4-3.9
		c-0.9-5.8-1.4-11.7-2.1-17.6c-0.9-8.6-1.8-17.2-2.7-25.9C235,485.8,233.8,473.4,232.6,460.7z"/>
	<path class="st11" d="M312,495.4c-0.4,17.6-0.7,30.3-1,42.9c0,1.1-0.2,2.2-0.4,3.3c-0.5,3.1-1.9,4.2-5,4.1
		c-2.9-0.1-4.3-1.2-4.5-4.4c-0.4-8.2-0.7-16.4-1-24.6c-0.5-17.1-1-34.2-1.2-51.3c-0.1-4,0.6-8.2,1.4-12.1c0.7-3.2,2.7-4.4,5.6-4.4
		c2.9,0.1,5,1.4,5.5,4.6c0.8,4.6,1.3,9.4,1.3,14.1C312.6,478.5,312.1,489.4,312,495.4z"/>
</g>
</svg>
