<?xml version="1.0" encoding="utf-8"?>
<!-- Generator: Adobe Illustrator 26.0.1, SVG Export Plug-In . SVG Version: 6.00 Build 0)  -->
<svg version="1.1" id="Layer_1" xmlns="http://www.w3.org/2000/svg" xmlns:xlink="http://www.w3.org/1999/xlink" x="0px" y="0px"
	 viewBox="0 0 612 792" style="enable-background:new 0 0 612 792;" xml:space="preserve">
<style type="text/css">
	.st0{display:none;}
	.st1{fill:#FFFFFF;}
</style>
<g>
	<path class="st0" d="M0,651.5c0-170.7,0-341.4,0-512.1c203.8,0,407.5,0,611.3,0c0,170.7,0,341.4,0,512.1
		C407.5,651.5,203.8,651.5,0,651.5z M337.4,335.9c0-0.4,0-0.8,0-1.3c0.6-5.2,1.4-10.5,1.9-15.7c1.6-19.3,3.4-38.7,4.6-58.1
		c0.9-14.3,1.1-28.6,1.6-42.9c0.4-13.3,0.7-26.5-0.9-39.7c-0.9-7.7-4-13.9-11.9-16.3c-11.3-3.5-22.5-7.4-34.7-4.9
		c-7.2,1.5-14.4,2.6-21.2,5.7c-4.9,2.2-8.3,5.7-9,11.1c-1,7.6-2.2,15.2-2.1,22.8c0.2,21.7,0.9,43.4,1.7,65.1
		c0.4,11.2,1.3,22.4,2.2,33.5c0.8,9.3,1.8,18.7,2.8,28c0.4,4.2,0.9,8.4,1.4,12.7c-22.9,0-45.7,0-68.4,0c-41,0-82.1-0.1-123.1,0.1
		c-4.2,0-8.6,0.7-12.5,2.2c-7.8,3-12.7,9.3-16.7,16.4c-3.3,5.7-5,11.8-4.8,18.5c0.3,9,4.2,16.6,9.7,23.4c4.8,5.9,10.7,10.4,18.7,11
		c2.5,0.2,3.2,1.2,3.8,3.6c5,19.3,10.2,38.5,15.4,57.7c6.7,24.3,13.4,48.6,20.4,72.8c3.9,13.5,8.3,27,12.8,40.3
		c3.2,9.5,10.1,15.2,20,16.6c7.2,1,14.6,1.3,21.9,1.3c79.4,0.1,158.8,0.1,238.2,0.1c15,0,30.1,0,45.1-0.5c4.7-0.1,9.6-1.1,14.1-2.7
		c7.9-2.9,12.3-9.4,14.6-17.2c6.6-21.9,13.4-43.8,19.8-65.8c6.3-21.8,12.1-43.7,18.1-65.6c3.5-12.8,6.8-25.7,10.2-38.6
		c0.3-1.1,0.8-1.7,2-1.8c4.3-0.4,8.4-1.3,12-3.8c13.8-9.6,25.1-30.2,12.2-50.6c-4.2-6.7-9.1-13-17-15.3c-4.8-1.4-9.9-1.9-14.9-1.9
		c-53.1-0.1-106.3-0.1-159.4-0.1C356.6,335.9,347.2,335.9,337.4,335.9z"/>
	<path class="st1" d="M0,651.5c203.8,0,407.5,0,611.3,0c-0.1,0.2-0.1,0.4-0.2,0.5c-0.6,0-1.3,0-1.9,0c-202.3,0-404.7,0-607,0
		C1.4,652,0.7,651.7,0,651.5z"/>
	<path class="st1" d="M337.4,335.9c9.7,0,19.1,0,28.6,0c53.1,0,106.3-0.1,159.4,0.1c5,0,10.2,0.5,14.9,1.9c7.9,2.3,12.8,8.6,17,15.3
		c12.8,20.4,1.6,41-12.2,50.6c-3.6,2.5-7.8,3.4-12,3.8c-1.2,0.1-1.7,0.6-2,1.8c-3.4,12.9-6.7,25.8-10.2,38.6
		c-5.9,21.9-11.8,43.8-18.1,65.6c-6.3,22-13.1,43.9-19.8,65.8c-2.4,7.8-6.7,14.3-14.6,17.2c-4.4,1.6-9.4,2.6-14.1,2.7
		c-15,0.4-30,0.5-45.1,0.5c-79.4,0-158.8,0-238.2-0.1c-7.3,0-14.7-0.4-21.9-1.3c-9.9-1.3-16.8-7.1-20-16.6
		c-4.5-13.4-8.9-26.8-12.8-40.3c-7-24.2-13.7-48.5-20.4-72.8c-5.3-19.2-10.4-38.4-15.4-57.7c-0.6-2.3-1.3-3.4-3.8-3.6
		c-8-0.6-13.8-5-18.7-11c-5.5-6.8-9.4-14.3-9.7-23.4c-0.2-6.7,1.5-12.8,4.8-18.5c4-7,8.9-13.4,16.7-16.4c3.9-1.5,8.3-2.2,12.5-2.2
		c41-0.2,82.1-0.1,123.1-0.1c22.8,0,45.5,0,68.4,0c-0.5-4.3-1-8.5-1.4-12.7c-1-9.3-2-18.7-2.8-28c-0.9-11.2-1.8-22.3-2.2-33.5
		c-0.8-21.7-1.5-43.4-1.7-65.1c-0.1-7.6,1.1-15.2,2.1-22.8c0.7-5.3,4.1-8.9,9-11.1c6.8-3.1,14-4.2,21.2-5.7
		c12.2-2.5,23.4,1.4,34.7,4.9c7.9,2.4,11,8.6,11.9,16.3c1.6,13.2,1.3,26.5,0.9,39.7c-0.4,14.3-0.7,28.6-1.6,42.9
		c-1.2,19.4-3,38.7-4.6,58.1c-0.4,5.3-1.3,10.5-1.9,15.7C337.4,335,337.4,335.5,337.4,335.9z M97.8,407.9c1.7,5.9,3.4,11.7,5,17.5
		c6.6,24.3,13.1,48.5,19.7,72.8c5,18.3,10,36.6,15.1,54.9c1.8,6.3,3.8,12.5,6,18.7c1.7,4.8,5.3,7.8,10.4,8.5
		c2.3,0.3,4.6,0.6,6.8,0.7c11.8,0.1,23.6,0.1,35.3,0.1c80.4,0,160.9,0,241.3,0c6.2,0,12.3-0.2,18.5-0.6c5-0.3,8.9-2.7,11.1-7.4
		c1.3-2.7,2.5-5.5,3.3-8.3c5.8-20.8,11.5-41.6,17.2-62.4c6.8-24.7,13.4-49.4,20.2-74.1c1.8-6.7,3.8-13.4,5.7-20.3
		C374.9,407.9,236.4,407.9,97.8,407.9z M282.8,240.1c0.9,20.2,1.9,46.6,3.4,72.9c0.7,12.8,2.3,25.6,3.8,38.4
		c0.8,6.6,2.4,13.2,5.8,19.1c3.7,6.4,14.3,7.5,18.5,1.4c2.4-3.4,4-7.5,5.1-11.5c3.4-12.1,4.2-24.7,5.2-37.2
		c1.1-14.1,1.8-28.2,2.4-42.3c0.6-14.7,1-29.5,1.4-44.3c0.3-10.3,0.5-20.5,0.4-30.8c0-7.8-0.4-15.6-0.8-23.4c-0.2-3.5-1.9-6-5.4-6.9
		c-3.3-0.8-6.6-1.5-9.9-2.3c-8.4-1.9-16.4,0-24.4,2.4c-2.5,0.8-4.2,2.4-4.6,5.2c-0.3,2.3-0.8,4.7-0.8,7
		C282.8,203.2,282.8,218.6,282.8,240.1z M334.2,354.7c-0.8,3-1.5,6.4-2.5,9.7c-2.1,7-4.4,13.9-9.6,19.3c-1.9,2-4.4,3.5-6.8,5.4
		c6,0,11.9,0,17.7,0c30.6,0,61.2,0,91.8,0c25.4,0,50.7,0,76.1,0c11.2,0,22.4-0.4,33.7-0.6c3.6-0.1,6.1-1.9,7.5-5.1
		c3-7,3-14.1,0.6-21.2c-1.5-4.4-4.5-6.7-9.1-6.9c-3.1-0.2-6.2-0.4-9.2-0.4c-53.2,0-106.4,0-159.6-0.1
		C354.6,354.7,344.6,354.7,334.2,354.7z M277,354.6c-2.5,0-4.7,0-7,0c-56.1,0-112.3,0-168.4,0.1c-8.5,0-17,0.5-25.6,0.8
		c-3.4,0.1-5.5,2.3-6.7,5.2c-3.1,7.4-3.2,14.8-0.2,22.3c1.3,3.2,3.5,5,6.9,5.4c2.1,0.2,4.2,0.5,6.4,0.5c24.4,0.1,48.9,0.1,73.3,0.2
		c27.6,0,55.2,0,82.8,0c18.5,0,37,0,55.5,0c0.6,0,1.2-0.1,2-0.2C282.6,381,280.6,367.3,277,354.6z M515.2,406.9c5.3,0,10.4,0,15.5,0
		c0.1-0.3,0.1-0.6,0.2-0.9c-0.7-0.2-1.3-0.6-2-0.6C517.5,404.9,516.4,405.1,515.2,406.9z M96,407c0.1-0.2,0.2-0.5,0.3-0.7
		c-0.7-0.3-1.4-0.9-2.1-0.9c-4.1-0.1-8.2-0.1-12.3,0c-0.5,0-1,0.5-1.4,0.8c0.4,0.3,0.9,0.8,1.4,0.8C86.6,407.1,91.3,407,96,407z"/>
	<path class="st0" d="M97.8,407.9c138.6,0,277.1,0,415.7,0c-1.9,6.9-3.9,13.6-5.7,20.3c-6.7,24.7-13.4,49.4-20.2,74.1
		c-5.7,20.8-11.4,41.6-17.2,62.4c-0.8,2.9-2,5.6-3.3,8.3c-2.2,4.7-6.1,7-11.1,7.4c-6.1,0.4-12.3,0.6-18.5,0.6
		c-80.4,0-160.9,0-241.3,0c-11.8,0-23.6,0-35.3-0.1c-2.3,0-4.6-0.4-6.8-0.7c-5.2-0.7-8.7-3.7-10.4-8.5c-2.2-6.1-4.3-12.4-6-18.7
		c-5.1-18.3-10.1-36.6-15.1-54.9c-6.6-24.3-13.1-48.5-19.7-72.8C101.2,419.6,99.5,413.8,97.8,407.9z M325.6,461.1
		c-0.5-2.6-1-7.1-2.2-11.5c-2.3-8.1-7-14-16.1-14.5c-6.8-0.4-12.7,1.3-16.4,7.6c-4.3,7.3-5.5,15.4-5,23.7c0.7,11,1.4,22,2.1,33.1
		c0.9,14.4,1.7,28.8,2.6,43.2c0.3,4.8,1.5,9.3,6.7,11.3c5.1,2,10.3,2.2,15.5,0.5c4.5-1.5,7.2-4.4,7.6-9.2c0.7-9.5,1.3-19,1.9-28.6
		c0.6-9.1,1.2-18.1,1.7-27.2C324.5,480.8,325,472,325.6,461.1z M456.6,459c-0.6-3.6-0.9-7.3-1.8-10.9c-1.7-7-6.5-10.9-13.4-12.1
		c-6.6-1.2-12.8-0.2-17,5.6c-2.3,3.2-4.2,6.7-5.7,10.3c-3.4,8.3-3.2,17.3-4.3,26c-1.3,10.6-2.4,21.3-3.5,32
		c-1.2,10.6-2.4,21.1-3.5,31.7c-0.4,4.4,1.2,8.1,5.2,10.4c4.4,2.5,9,3.5,14.1,2.9c5.2-0.6,8.4-3.3,9.8-8.2c0.6-2.3,1.2-4.6,1.8-6.8
		c4.7-19.7,9.3-39.3,13.9-59C453.9,473.7,456.3,466.6,456.6,459z M351.8,503.4c-0.3,0-0.7,0-1,0c0,13.5,0,27,0,40.5
		c0,4.6,2.2,7.8,6.3,9.7c4.8,2.2,9.7,2.5,14.8,1.3c4.7-1.1,7.6-4.1,8.3-8.9c1.3-8.5,2.5-17,3.7-25.5c2.4-17,4.6-34,7-51
		c1.1-7.9,1-15.7-1.9-23.3c-2.8-7.3-8.3-10.6-15.9-11c-7.1-0.3-12.5,2.4-16.1,8.7c-3.3,6-5.1,12.4-5.2,19.2
		C351.6,476.5,351.8,490,351.8,503.4z M175.9,435.7c-8.6-0.6-15.9,3.5-18.5,9.9c-2.5,6.3-3,12.8-1.8,19.3c1.4,8,3.4,15.8,5.2,23.7
		c2.8,12.2,5.7,24.4,8.6,36.5c1.7,7.3,3.5,14.6,5.3,21.8c1.2,4.7,4.4,7.5,9.2,8c2.6,0.3,5.4,0.3,8-0.3c7.1-1.5,13.4-5,11.7-15.4
		c-0.5-2.9-0.7-5.8-1-8.7c-1.2-11.2-2.4-22.4-3.7-33.6c-1.2-10.7-2.4-21.5-3.5-32.2c-0.8-7.5-2.7-14.6-6.9-20.9
		C185.5,438.9,181.3,435.8,175.9,435.7z M260.7,503.7c-0.4,0-0.7,0-1.1,0c0-13.3,0.1-26.7,0-40c0-5.4-1.2-10.6-3.2-15.7
		c-2.9-7.2-7.4-12.4-15.8-12.9c-8-0.5-14.9,3.3-17.8,10.3c-2.5,6.2-3.5,12.7-2.7,19.3c1.6,13.3,3.6,26.6,5.4,39.8
		c1.3,9.9,2.7,19.8,4,29.8c0.6,4.4,1.2,8.7,2.1,13.1c0.8,4,3.5,6.4,7.4,7.5c4.6,1.3,9.2,1,13.7-0.5c5.1-1.7,8-5.2,7.9-10.7
		c0-1.7,0.1-3.3,0.1-5C260.7,526.9,260.7,515.3,260.7,503.7z"/>
	<path class="st0" d="M282.8,240.1c0-21.5,0-36.9,0-52.3c0-2.3,0.5-4.7,0.8-7c0.4-2.7,2-4.4,4.6-5.2c8-2.4,16-4.3,24.4-2.4
		c3.3,0.7,6.6,1.4,9.9,2.3c3.5,0.9,5.2,3.4,5.4,6.9c0.4,7.8,0.8,15.6,0.8,23.4c0,10.3-0.2,20.5-0.4,30.8
		c-0.4,14.8-0.7,29.5-1.4,44.3c-0.6,14.1-1.3,28.2-2.4,42.3c-1,12.5-1.8,25.1-5.2,37.2c-1.1,4-2.7,8.1-5.1,11.5
		c-4.2,6.1-14.9,5-18.5-1.4c-3.4-5.9-5-12.5-5.8-19.1c-1.5-12.8-3.1-25.5-3.8-38.4C284.7,286.7,283.7,260.4,282.8,240.1z
		 M298.1,367.3c0,4.1,3.3,7.5,7.4,7.6c4.2,0.1,7.6-3.3,7.7-7.6c0.1-4.1-3.4-7.5-7.8-7.5C301.5,359.9,298.1,363.3,298.1,367.3z"/>
	<path class="st0" d="M334.2,354.7c10.4,0,20.5,0,30.5,0c53.2,0,106.4,0,159.6,0.1c3.1,0,6.2,0.3,9.2,0.4c4.6,0.2,7.7,2.5,9.1,6.9
		c2.4,7.1,2.4,14.2-0.6,21.2c-1.4,3.3-3.9,5.1-7.5,5.1c-11.2,0.2-22.4,0.6-33.7,0.6c-25.4,0.1-50.7,0-76.1,0c-30.6,0-61.2,0-91.8,0
		c-5.8,0-11.7,0-17.7,0c2.4-1.9,4.9-3.4,6.8-5.4c5.2-5.4,7.5-12.3,9.6-19.3C332.7,361,333.4,357.7,334.2,354.7z"/>
	<path class="st0" d="M277,354.6c3.6,12.7,5.6,26.4,18.9,34.2c-0.8,0.1-1.4,0.2-2,0.2c-18.5,0-37,0-55.5,0c-27.6,0-55.2,0-82.8,0
		c-24.4,0-48.9-0.1-73.3-0.2c-2.1,0-4.3-0.3-6.4-0.5c-3.4-0.4-5.6-2.2-6.9-5.4c-3-7.5-2.9-14.9,0.2-22.3c1.2-2.9,3.3-5.1,6.7-5.2
		c8.5-0.3,17-0.8,25.6-0.8c56.1-0.1,112.3-0.1,168.4-0.1C272.3,354.6,274.6,354.6,277,354.6z"/>
	<path class="st0" d="M515.2,406.9c1.2-1.8,2.3-1.9,13.7-1.5c0.7,0,1.3,0.4,2,0.6c-0.1,0.3-0.1,0.6-0.2,0.9
		C525.6,406.9,520.5,406.9,515.2,406.9z"/>
	<path class="st0" d="M96,407c-4.7,0-9.4,0-14.1,0c-0.5,0-0.9-0.5-1.4-0.8c0.5-0.3,1-0.8,1.4-0.8c4.1-0.1,8.2-0.1,12.3,0
		c0.7,0,1.4,0.6,2.1,0.9C96.2,406.6,96.1,406.8,96,407z"/>
	<path class="st1" d="M325.6,461.1c-0.6,10.8-1.1,19.7-1.7,28.5c-0.5,9.1-1.1,18.1-1.7,27.2c-0.6,9.5-1.2,19-1.9,28.6
		c-0.4,4.8-3.1,7.8-7.6,9.2c-5.2,1.7-10.4,1.5-15.5-0.5c-5.1-2-6.4-6.5-6.7-11.3c-0.9-14.4-1.7-28.8-2.6-43.2
		c-0.7-11-1.4-22-2.1-33.1c-0.5-8.3,0.6-16.4,5-23.7c3.7-6.3,9.6-8,16.4-7.6c9.2,0.5,13.9,6.4,16.1,14.5
		C324.7,454,325.2,458.6,325.6,461.1z M311.7,497.9C311.7,497.9,311.7,497.9,311.7,497.9c0.3-10.9,0.7-21.8,0.8-32.7
		c0-3.9-0.4-7.9-1.1-11.7c-0.7-3.8-2.7-5.4-5.8-5.4c-3,0-5,1.5-5.6,5.3c-0.7,4.6-1.1,9.2-1.1,13.9c0.4,22.7,1,45.4,1.6,68.1
		c0.1,2.3,0.4,4.6,0.9,6.8c0.5,2.2,2.3,2.7,4.4,2.7c2,0,3.7-0.5,4.2-2.7c0.5-2.3,0.9-4.7,0.9-7C311.2,522.9,311.4,510.4,311.7,497.9
		z"/>
	<path class="st1" d="M456.6,459c-0.2,7.6-2.6,14.7-4.3,21.9c-4.6,19.7-9.2,39.4-13.9,59c-0.5,2.3-1.1,4.6-1.8,6.8
		c-1.4,5-4.7,7.6-9.8,8.2c-5.1,0.6-9.7-0.5-14.1-2.9c-4-2.3-5.6-6-5.2-10.4c1-10.6,2.3-21.2,3.5-31.7c1.2-10.7,2.2-21.3,3.5-32
		c1.1-8.7,0.9-17.7,4.3-26c1.5-3.6,3.4-7.1,5.7-10.3c4.2-5.9,10.4-6.8,17-5.6c6.8,1.2,11.7,5.2,13.4,12.1
		C455.6,451.7,456,455.4,456.6,459z M443.9,458.1c-0.2,0-0.4-0.1-0.6-0.1c0-1.3,0.1-2.5,0-3.8c-0.3-2.9-1.9-4.8-4.3-5.2
		c-3.1-0.6-5.1,0.2-6.5,3c-0.7,1.2-1.3,2.6-1.6,3.9c-1.6,8.5-3.3,17-4.6,25.5c-2.3,15.1-4.5,30.2-6.6,45.4
		c-0.6,4.2-1.2,8.4-1.5,12.6c-0.2,2.8,1.1,4.4,3.4,4.9c3,0.6,4.6-0.1,5.7-3.1c0.6-1.5,1-3.1,1.3-4.8c3.8-18.8,7.5-37.5,11.2-56.3
		C441.3,472.8,442.6,465.5,443.9,458.1z"/>
	<path class="st1" d="M351.8,503.4c0-13.4-0.1-26.8,0.1-40.3c0.1-6.8,1.8-13.2,5.2-19.2c3.5-6.3,8.9-9,16.1-8.7
		c7.6,0.4,13.1,3.7,15.9,11c2.9,7.6,3,15.4,1.9,23.3c-2.4,17-4.6,34-7,51c-1.2,8.5-2.4,17-3.7,25.5c-0.7,4.8-3.6,7.8-8.3,8.9
		c-5.1,1.2-10,0.9-14.8-1.3c-4.1-1.9-6.3-5.2-6.3-9.7c0-13.5,0-27,0-40.5C351.1,503.4,351.4,503.4,351.8,503.4z M361,534.2
		C361,534.2,361.1,534.2,361,534.2c0.1,2.1,0,4.1,0.1,6.2c0.1,2.9,1.3,4.2,3.8,4.5c3.1,0.4,4.6-0.5,5.4-3.6c0.4-1.5,0.7-3.1,0.8-4.6
		c0.8-7.2,1.5-14.4,2.2-21.6c0.8-8.2,1.7-16.5,2.5-24.7c0.7-7.2,1.5-14.4,2.2-21.6c0.5-5.3,1.2-10.7-0.3-16
		c-0.9-3.1-2.3-4.2-5.4-4.3c-2.7-0.1-4.6,0.9-5.5,3.9c-0.9,2.8-1.8,5.8-2,8.7c-0.7,9.4-1.1,18.7-1.6,28.1
		C362.6,504.1,361.8,519.1,361,534.2z"/>
	<path class="st1" d="M175.9,435.7c5.3,0.1,9.5,3.2,12.7,8.1c4.1,6.4,6,13.5,6.9,20.9c1.2,10.7,2.4,21.5,3.5,32.2
		c1.2,11.2,2.4,22.4,3.7,33.6c0.3,2.9,0.5,5.8,1,8.7c1.8,10.4-4.6,13.8-11.7,15.4c-2.6,0.6-5.3,0.6-8,0.3c-4.8-0.5-8-3.3-9.2-8
		c-1.9-7.2-3.6-14.5-5.3-21.8c-2.9-12.2-5.8-24.3-8.6-36.5c-1.8-7.9-3.9-15.8-5.2-23.7c-1.1-6.5-0.7-13.1,1.8-19.3
		C160,439.2,167.4,435.1,175.9,435.7z M168,457.8c-0.1,0-0.2,0-0.3,0c0.4,2.8,0.6,5.6,1.1,8.4c3.6,18.8,7.3,37.5,11.1,56.3
		c1.2,6.2,2.6,12.5,4.2,18.6c0.7,2.7,2.5,3.6,5.2,3.1c2.7-0.5,3.8-1.7,3.9-4.5c0-0.9,0.1-1.9,0-2.8c-1.8-12.2-3.5-24.5-5.3-36.7
		c-1.7-11.4-3.2-22.9-5.2-34.3c-0.8-4.7-2.2-9.3-3.8-13.8c-1.2-3.3-3.1-3.8-6.5-3.2c-2.5,0.5-3.9,2.2-4.3,5.3
		C167.9,455.4,168,456.6,168,457.8z"/>
	<path class="st1" d="M260.7,503.7c0,11.6,0,23.2,0,34.8c0,1.7-0.1,3.3-0.1,5c0,5.6-2.8,9-7.9,10.7c-4.5,1.5-9.1,1.9-13.7,0.5
		c-3.9-1.1-6.6-3.5-7.4-7.5c-0.9-4.3-1.5-8.7-2.1-13.1c-1.4-9.9-2.7-19.8-4-29.8c-1.8-13.3-3.8-26.5-5.4-39.8
		c-0.8-6.6,0.2-13.1,2.7-19.3c2.9-6.9,9.8-10.8,17.8-10.3c8.4,0.6,12.9,5.7,15.8,12.9c2,5,3.2,10.3,3.2,15.7c0.1,13.3,0,26.7,0,40
		C259.9,503.7,260.3,503.7,260.7,503.7z M250.2,534.2c0,0,0.1,0,0.1,0c-0.3-5.7-0.7-11.5-1-17.2c-0.9-17.2-1.5-34.4-2.6-51.5
		c-0.3-4.6-1.6-9.3-2.7-13.8c-0.5-2.2-2.4-3.2-4.7-3.2c-3.9,0-6.1,1.8-6.3,6.4c-0.2,5.2,0,10.5,0.4,15.8c0.7,8.8,1.6,17.6,2.5,26.4
		c1,10.4,2.1,20.7,3.2,31.1c0.5,4.5,1,9.1,1.8,13.6c0.5,2.8,2.3,3.7,5.3,3.4c2.4-0.3,3.7-1.6,3.8-4.3
		C250.3,538.5,250.2,536.3,250.2,534.2z"/>
	<path class="st1" d="M298.1,367.3c0-4,3.4-7.4,7.3-7.4c4.3,0,7.8,3.4,7.8,7.5c-0.1,4.3-3.5,7.7-7.7,7.6
		C301.4,374.8,298.1,371.4,298.1,367.3z"/>
	<path class="st0" d="M311.7,497.9c-0.3,12.5-0.5,24.9-0.9,37.4c-0.1,2.3-0.4,4.7-0.9,7c-0.5,2.1-2.2,2.7-4.2,2.7
		c-2.1,0-3.9-0.5-4.4-2.7c-0.5-2.2-0.8-4.5-0.9-6.8c-0.6-22.7-1.2-45.4-1.6-68.1c-0.1-4.6,0.3-9.3,1.1-13.9c0.6-3.8,2.7-5.3,5.6-5.3
		c3.1,0,5.2,1.6,5.8,5.4c0.7,3.9,1.2,7.8,1.1,11.7C312.4,476.1,312,487,311.7,497.9C311.7,497.9,311.7,497.9,311.7,497.9z"/>
	<path class="st0" d="M443.9,458.1c-1.4,7.3-2.7,14.7-4.1,22c-3.7,18.8-7.4,37.5-11.2,56.3c-0.3,1.6-0.7,3.2-1.3,4.8
		c-1.1,3-2.7,3.8-5.7,3.1c-2.3-0.5-3.7-2.1-3.4-4.9c0.3-4.2,0.9-8.4,1.5-12.6c2.2-15.1,4.3-30.3,6.6-45.4c1.3-8.5,3-17,4.6-25.5
		c0.3-1.4,0.9-2.7,1.6-3.9c1.5-2.7,3.4-3.6,6.5-3c2.4,0.5,4.1,2.4,4.3,5.2c0.1,1.3,0,2.5,0,3.8C443.5,458.1,443.7,458.1,443.9,458.1
		z"/>
	<path class="st0" d="M361,534.2c0.8-15,1.6-30.1,2.4-45.1c0.5-9.4,0.9-18.8,1.6-28.1c0.2-2.9,1.1-5.9,2-8.7c0.9-2.9,2.7-4,5.5-3.9
		c3.1,0.1,4.5,1.2,5.4,4.3c1.5,5.3,0.7,10.7,0.3,16c-0.6,7.2-1.5,14.4-2.2,21.6c-0.8,8.2-1.7,16.5-2.5,24.7
		c-0.7,7.2-1.5,14.4-2.2,21.6c-0.2,1.6-0.4,3.1-0.8,4.6c-0.8,3-2.3,4-5.4,3.6c-2.6-0.3-3.7-1.6-3.8-4.5
		C361,538.3,361.1,536.2,361,534.2C361.1,534.2,361,534.2,361,534.2z"/>
	<path class="st0" d="M168,457.8c0-1.2-0.1-2.4,0-3.5c0.4-3.1,1.8-4.8,4.3-5.3c3.4-0.6,5.3-0.1,6.5,3.2c1.7,4.4,3,9.1,3.8,13.8
		c1.9,11.4,3.5,22.9,5.2,34.3c1.8,12.2,3.6,24.5,5.3,36.7c0.1,0.9,0.1,1.9,0,2.8c-0.1,2.8-1.2,4.1-3.9,4.5c-2.7,0.5-4.6-0.4-5.2-3.1
		c-1.5-6.2-2.9-12.4-4.2-18.6c-3.8-18.8-7.4-37.5-11.1-56.3c-0.5-2.8-0.8-5.6-1.1-8.4C167.8,457.8,167.9,457.8,168,457.8z"/>
	<path class="st0" d="M250.2,534.2c0,2.1,0.1,4.3,0,6.4c-0.2,2.7-1.4,4-3.8,4.3c-3.1,0.3-4.8-0.5-5.3-3.4c-0.8-4.5-1.4-9-1.8-13.6
		c-1.1-10.3-2.2-20.7-3.2-31.1c-0.9-8.8-1.8-17.6-2.5-26.4c-0.4-5.2-0.6-10.5-0.4-15.8c0.2-4.6,2.3-6.4,6.3-6.4
		c2.3,0,4.2,1.1,4.7,3.2c1.1,4.6,2.4,9.2,2.7,13.8c1.1,17.2,1.7,34.3,2.6,51.5c0.3,5.7,0.7,11.5,1,17.2
		C250.3,534.2,250.2,534.2,250.2,534.2z"/>
</g>
</svg>
