<?xml version="1.0" encoding="utf-8"?>
<!-- Generator: Adobe Illustrator 27.3.1, SVG Export Plug-In . SVG Version: 6.00 Build 0)  -->
<svg version="1.1" id="Layer_1" xmlns="http://www.w3.org/2000/svg" xmlns:xlink="http://www.w3.org/1999/xlink" x="0px" y="0px"
	 viewBox="0 0 1115 1080" style="enable-background:new 0 0 1115 1080;" xml:space="preserve">
<style type="text/css">
	.st0{display:none;}
	.st1{fill:#FFFFFF;}
</style>
<g>
	<path class="st0" d="M1115,1080c-371.67,0-743.33,0-1115,0C0,720,0,360,0,0c371.67,0,743.33,0,1115,0C1115,360,1115,720,1115,1080z
		 M148.78,38.01c-8.17,1.39-17.29,2.77-26.33,4.53c-5.7,1.11-13.58,10.73-13.64,16.54c-0.1,9.83-0.09,19.67,0.19,29.5
		c0.53,18.24,1.33,36.46,1.96,54.7c0.67,19.35,1.33,38.69,1.9,58.04c0.75,25.51,1.46,51.03,2.1,76.54
		c0.43,17.15,0.89,34.3,0.97,51.46c0.19,35.74,0.43,71.49,0.1,107.22c-0.32,34.92-1.22,69.85-2.07,104.76
		c-0.35,14.25-1.17,28.49-1.9,42.73c-0.97,18.84-2.02,37.68-3.11,56.51c-0.34,5.95-0.88,11.9-1.37,17.84
		c-1.19,14.3-2.4,28.6-3.61,42.9c-0.74,8.74-1.38,17.49-2.22,26.22c-1.53,15.95-3.22,31.89-4.76,47.84
		c-1.11,11.52-1.94,23.06-3.14,34.57c-1.85,17.73-3.98,35.44-5.86,53.16c-1.47,13.81-2.58,27.66-4.13,41.46
		c-2.15,19.18-4.72,38.31-6.81,57.5c-1.72,15.79-2.73,31.67-4.6,47.44c-1.23,10.3-0.76,20.14,4.6,29.2
		c1.27,2.16,3.49,4.38,5.77,5.22c15.13,5.52,31.02,5.98,46.86,6.01c68.06,0.14,136.11,0.1,204.17,0.11c85.3,0.01,170.6,0.01,255.9,0
		c129.28-0.01,258.57,0.06,387.85-0.11c18.38-0.02,36.95,0.53,54.7-5.91c1.51-0.55,3.84-0.86,4.32-1.94
		c2.41-5.4,5.7-10.92,6.1-16.58c0.7-9.71-0.1-19.59-1.01-29.33c-1.61-17.13-3.8-34.2-5.7-51.3c-1.09-9.82-2.03-19.65-3.14-29.47
		c-0.87-7.7-2.01-15.38-2.82-23.09c-1.19-11.37-2.07-22.76-3.29-34.13c-1.47-13.81-3.27-27.59-4.71-41.41
		c-1.55-15-2.79-30.03-4.26-45.03c-1.87-18.95-3.96-37.88-5.72-56.84c-1.25-13.51-2.09-27.06-3.15-40.59
		c-1.61-20.51-3.45-41-4.83-61.52c-1.26-18.72-2.21-37.46-2.99-56.2c-0.84-20.1-1.66-40.21-1.88-60.32
		c-0.36-33.67-0.39-67.34-0.28-101.01c0.1-27.9,0.47-55.79,0.98-83.69c0.51-28.12,1.28-56.24,2.02-84.35
		c0.53-20.1,1.22-40.2,1.8-60.3c0.48-16.63,0.96-33.25,1.31-49.88c0.41-19.39,1.33-38.81,0.55-58.17
		c-0.21-5.15-4.65-12.05-9.17-14.64c-6.13-3.51-14.13-4.41-21.44-5.04c-11.34-0.98-22.79-1.05-34.19-1.06
		c-116.67-0.08-233.33-0.08-350-0.09C443.83,38,296.85,38.01,148.78,38.01z"/>
	<path class="st1" d="M148.78,38.01c148.07,0,295.05-0.01,442.02,0c116.67,0.01,233.33,0.01,350,0.09
		c11.4,0.01,22.85,0.08,34.19,1.06c7.32,0.63,15.32,1.53,21.44,5.04c4.51,2.58,8.96,9.49,9.17,14.64
		c0.77,19.35-0.15,38.77-0.55,58.17c-0.35,16.63-0.83,33.26-1.31,49.88c-0.57,20.1-1.27,40.2-1.8,60.3
		c-0.74,28.12-1.51,56.23-2.02,84.35c-0.5,27.89-0.88,55.79-0.98,83.69c-0.12,33.67-0.09,67.35,0.28,101.01
		c0.22,20.11,1.04,40.22,1.88,60.32c0.78,18.74,1.73,37.49,2.99,56.2c1.38,20.52,3.22,41.01,4.83,61.52
		c1.06,13.53,1.9,27.08,3.15,40.59c1.76,18.96,3.86,37.89,5.72,56.84c1.48,15.01,2.71,30.04,4.26,45.03
		c1.43,13.82,3.23,27.59,4.71,41.41c1.21,11.36,2.1,22.76,3.29,34.13c0.81,7.71,1.95,15.38,2.82,23.09
		c1.11,9.82,2.05,19.65,3.14,29.47c1.9,17.1,4.09,34.17,5.7,51.3c0.91,9.74,1.71,19.63,1.01,29.33c-0.41,5.66-3.7,11.18-6.1,16.58
		c-0.48,1.08-2.8,1.39-4.32,1.94c-17.74,6.44-36.31,5.88-54.7,5.91c-129.28,0.17-258.57,0.11-387.85,0.11
		c-85.3,0-170.6,0.01-255.9,0c-68.06-0.01-136.11,0.03-204.17-0.11c-15.84-0.03-31.73-0.49-46.86-6.01
		c-2.28-0.83-4.5-3.06-5.77-5.22c-5.36-9.06-5.82-18.9-4.6-29.2c1.88-15.77,2.88-31.65,4.6-47.44c2.09-19.19,4.66-38.32,6.81-57.5
		c1.55-13.8,2.66-27.65,4.13-41.46c1.88-17.73,4.01-35.43,5.86-53.16c1.2-11.51,2.03-23.05,3.14-34.57
		c1.54-15.95,3.23-31.89,4.76-47.84c0.84-8.73,1.49-17.48,2.22-26.22c1.2-14.3,2.42-28.6,3.61-42.9c0.49-5.94,1.03-11.89,1.37-17.84
		c1.08-18.83,2.14-37.67,3.11-56.51c0.73-14.24,1.56-28.48,1.9-42.73c0.85-34.92,1.75-69.84,2.07-104.76
		c0.33-35.74,0.09-71.48-0.1-107.22c-0.09-17.15-0.55-34.31-0.97-51.46c-0.63-25.51-1.34-51.03-2.1-76.54
		c-0.57-19.35-1.23-38.7-1.9-58.04c-0.63-18.23-1.43-36.46-1.96-54.7c-0.29-9.83-0.3-19.67-0.19-29.5
		c0.06-5.81,7.94-15.43,13.64-16.54C131.49,40.78,140.61,39.39,148.78,38.01z M557.23,946.99c0,0.02,0,0.03,0,0.05
		c101.33,0,202.66,0.18,303.98-0.15c21.32-0.07,42.83,2.59,64-2.79c3.77-0.96,6.06-2.27,8.06-5.87c3.25-5.88,2.64-11.54,1.87-17.7
		c-2.61-20.96-4.72-41.97-7.23-62.94c-2.14-17.83-4.71-35.62-6.85-53.45c-2.48-20.65-4.83-41.32-6.97-62.02
		c-2.19-21.26-4.27-42.54-6.01-63.84c-1.91-23.39-3.45-46.81-4.99-70.23c-0.84-12.7-1.54-25.42-1.99-38.15
		c-0.63-17.5-1.07-35.02-1.4-52.53c-0.53-28.3-1.05-56.61-1.3-84.91c-0.13-14.18,0.28-28.36,0.55-42.53
		c0.57-29.69,1.19-59.37,1.84-89.05c0.21-9.77,0.51-19.55,0.9-29.31c0.72-18.2,1.54-36.4,2.33-54.6c0.35-8.08,0.72-16.15,1.09-24.23
		c0.62-13.55,1.35-27.1,1.83-40.65c0.14-4.08-4.26-9.59-8.32-10.11c-9.51-1.22-19.08-2.81-28.62-2.82
		c-209.66-0.16-419.31-0.15-628.97,0c-8.01,0.01-16.04,1.59-24.01,2.79c-4.88,0.73-9.06,6.09-8.95,11.08
		c0.18,8.14,0.5,16.28,0.92,24.41c0.94,18.57,2.12,37.13,2.92,55.7c1.17,27.17,2.13,54.36,3.09,81.54
		c0.43,12.11,0.78,24.23,0.93,36.34c0.31,24.22,0.76,48.45,0.6,72.67c-0.25,36.38-0.93,72.75-1.52,109.13
		c-0.2,12.13-0.45,24.27-1.07,36.38c-1.16,23.02-2.57,46.03-3.94,69.04c-0.6,10.09-1.21,20.19-2.1,30.26
		c-1.49,16.8-3.21,33.59-4.85,50.38c-1.53,15.65-3,31.31-4.66,46.95c-0.95,9.02-2.26,18.01-3.33,27.02
		c-1.26,10.65-2.37,21.31-3.64,31.95c-1.75,14.56-3.55,29.11-5.4,43.65c-1.53,11.97-3.3,23.91-4.71,35.89
		c-0.98,8.37-1.84,16.78-2.18,25.19c-0.3,7.36,4.53,12.94,10.34,14.53c11.47,3.13,23.11,2.94,34.8,2.94
		C335.24,946.98,446.23,946.99,557.23,946.99z"/>
	<path class="st0" d="M557.23,946.99c-110.99,0-221.99-0.01-332.98,0.01c-11.69,0-23.34,0.19-34.8-2.94
		c-5.81-1.59-10.64-7.17-10.34-14.53c0.34-8.41,1.2-16.82,2.18-25.19c1.41-11.98,3.18-23.92,4.71-35.89
		c1.85-14.54,3.66-29.1,5.4-43.65c1.28-10.64,2.38-21.31,3.64-31.95c1.06-9.01,2.37-18,3.33-27.02c1.65-15.64,3.13-31.3,4.66-46.95
		c1.64-16.79,3.36-33.57,4.85-50.38c0.9-10.07,1.5-20.16,2.1-30.26c1.37-23.01,2.78-46.02,3.94-69.04
		c0.61-12.11,0.87-24.25,1.07-36.38c0.59-36.38,1.27-72.75,1.52-109.13c0.16-24.22-0.29-48.45-0.6-72.67
		c-0.15-12.12-0.51-24.23-0.93-36.34c-0.96-27.18-1.93-54.36-3.09-81.54c-0.8-18.57-1.98-37.13-2.92-55.7
		c-0.41-8.13-0.73-16.27-0.92-24.41c-0.11-4.99,4.07-10.35,8.95-11.08c7.97-1.19,16-2.78,24.01-2.79
		c209.66-0.15,419.31-0.16,628.97,0c9.54,0.01,19.11,1.6,28.62,2.82c4.05,0.52,8.46,6.02,8.32,10.11
		c-0.48,13.56-1.21,27.1-1.83,40.65c-0.37,8.08-0.74,16.15-1.09,24.23c-0.79,18.2-1.61,36.4-2.33,54.6
		c-0.39,9.77-0.68,19.54-0.9,29.31c-0.65,29.68-1.27,59.37-1.84,89.05c-0.27,14.18-0.68,28.36-0.55,42.53
		c0.25,28.31,0.77,56.61,1.3,84.91c0.33,17.51,0.77,35.03,1.4,52.53c0.45,12.72,1.15,25.44,1.99,38.15
		c1.55,23.42,3.09,46.84,4.99,70.23c1.74,21.3,3.82,42.58,6.01,63.84c2.14,20.69,4.49,41.36,6.97,62.02
		c2.14,17.83,4.71,35.62,6.85,53.45c2.52,20.97,4.62,41.99,7.23,62.94c0.77,6.17,1.38,11.83-1.87,17.7c-2,3.61-4.28,4.92-8.06,5.87
		c-21.16,5.38-42.68,2.72-64,2.79c-101.33,0.33-202.66,0.15-303.98,0.15C557.23,947.02,557.23,947,557.23,946.99z M388.77,329.61
		c5.38,0,9.95-0.08,14.52,0.02c7.99,0.17,12.89-2.61,13.69-8.05c0.43-2.94,0.85-5.93,0.86-8.89c0.05-22.65,0.02-45.3-0.06-67.96
		c-0.01-2.31-0.42-4.63-0.75-6.93c-0.7-4.97-3.72-7.59-10.9-7.8c-18.04-0.52-36.1-0.79-54.15-0.79
		c-23.78,0.01-47.56,0.14-71.34,0.72c-8.14,0.2-11.73,2.59-11.69,11.81c0.08,17.22-0.17,34.45-0.19,51.67
		c-0.01,8.66,0.07,17.32,0.29,25.97c0.12,4.63,1.92,8.4,7.05,9.1c5.18,0.7,10.41,1.24,15.63,1.37c3.03,0.07,4.15,1.13,4.24,4.02
		c0.26,7.96,0.37,15.94,1.04,23.87c1.89,22.35,2.74,44.9,6.45,66.96c3.76,22.4,9.46,44.45,17.05,66.13
		c8.22,23.49,19.71,45.22,31.4,66.84c7.23,13.38,16.5,25.9,26.3,37.6c11.61,13.87,23.89,27.45,37.51,39.28
		c12.3,10.68,24.57,21.71,39.4,29.41c15.03,7.79,29.37,16.8,46.02,21.12c9.94,2.58,19.32,7.21,29.95,7.13
		c3.9-0.03,7.78,1.24,11.7,1.58c6.43,0.55,12.89,1.21,19.32,1.09c5.73-0.11,11.45-1.17,17.17-1.87c6.06-0.74,12.49-0.47,18.09-2.5
		c17.51-6.34,35.62-10.87,52.06-20.42c22.99-13.36,44-28.92,62.88-47.62c18.78-18.6,34.88-39.31,48.62-61.7
		c12.92-21.07,24.19-43.08,32.3-66.64c5.26-15.26,10.57-30.46,13.62-46.3c2.84-14.7,5.25-29.5,7.31-44.33
		c1.7-12.25,3.09-24.58,3.73-36.92c0.63-12.07,0.14-24.2,0.14-36.08c6.89-0.54,12.35-0.79,17.77-1.43
		c7.7-0.9,10.21-3.88,10.22-11.78c0.02-25.13,0.03-50.26,0-75.39c-0.01-8.2-3.1-11.62-11.16-11.85c-13.09-0.38-26.18-0.6-39.28-0.71
		c-15.22-0.13-30.44-0.19-45.65-0.07c-13.79,0.1-27.58,0.29-41.36,0.82c-6.97,0.27-10.2,1.74-10.58,9.98
		c-0.2,4.27-0.46,8.54-0.44,12.8c0.1,22.22,0.24,44.45,0.47,66.67c0.06,5.71,2.28,8.6,7.9,9.37c6.49,0.89,13.09,1.03,19.81,1.5
		c0.07,0.56,0.25,1.19,0.22,1.82c-0.64,12.39-1.13,24.79-2.04,37.17c-0.73,9.89-1.41,19.84-3.12,29.59
		c-3.76,21.37-7.77,42.72-15.45,63.14c-6.99,18.57-14.84,36.81-26.25,53.09c-9.45,13.48-19.11,27.01-30.29,39.02
		c-11.79,12.65-25.67,23.41-41.27,31.22c-8.76,4.39-18.13,8.23-27.66,10.24c-11.47,2.42-23.2,3.43-35.26,1.6
		c-13.56-2.05-26.36-5.95-38.04-12.56c-10.1-5.72-19.21-13.22-28.6-20.15c-13.74-10.15-24.11-23.56-34.01-37.15
		c-10.38-14.26-19.8-29.31-26.07-45.95c-6.21-16.49-13.2-32.87-17.36-49.91c-4.36-17.86-6.22-36.39-8.32-54.72
		C390.44,361.54,389.91,346.1,388.77,329.61z"/>
	<path class="st1" d="M388.77,329.61c1.15,16.49,1.68,31.93,3.43,47.23c2.1,18.33,3.96,36.86,8.32,54.72
		c4.16,17.04,11.15,33.41,17.36,49.91c6.27,16.63,15.69,31.69,26.07,45.95c9.89,13.59,20.27,27.01,34.01,37.15
		c9.39,6.93,18.5,14.44,28.6,20.15c11.68,6.61,24.49,10.51,38.04,12.56c12.06,1.83,23.79,0.81,35.26-1.6
		c9.53-2.01,18.9-5.85,27.66-10.24c15.6-7.81,29.49-18.57,41.27-31.22c11.18-12,20.85-25.54,30.29-39.02
		c11.41-16.29,19.26-34.52,26.25-53.09c7.68-20.42,11.7-41.77,15.45-63.14c1.71-9.75,2.39-19.7,3.12-29.59
		c0.91-12.37,1.39-24.78,2.04-37.17c0.03-0.63-0.15-1.26-0.22-1.82c-6.72-0.48-13.32-0.61-19.81-1.5c-5.62-0.77-7.84-3.66-7.9-9.37
		c-0.23-22.22-0.37-44.45-0.47-66.67c-0.02-4.27,0.25-8.54,0.44-12.8c0.38-8.24,3.6-9.71,10.58-9.98
		c13.78-0.53,27.57-0.71,41.36-0.82c15.22-0.11,30.44-0.06,45.65,0.07c13.09,0.11,26.19,0.33,39.28,0.71
		c8.06,0.23,11.15,3.66,11.16,11.85c0.02,25.13,0.02,50.26,0,75.39c-0.01,7.89-2.52,10.87-10.22,11.78
		c-5.42,0.64-10.88,0.89-17.77,1.43c0,11.89,0.49,24.01-0.14,36.08c-0.64,12.34-2.03,24.67-3.73,36.92
		c-2.06,14.83-4.47,29.63-7.31,44.33c-3.06,15.84-8.37,31.04-13.62,46.3c-8.12,23.56-19.38,45.57-32.3,66.64
		c-13.73,22.39-29.84,43.1-48.62,61.7c-18.89,18.71-39.89,34.27-62.88,47.62c-16.44,9.55-34.55,14.08-52.06,20.42
		c-5.6,2.03-12.03,1.76-18.09,2.5c-5.72,0.69-11.43,1.76-17.17,1.87c-6.43,0.12-12.89-0.54-19.32-1.09
		c-3.92-0.34-7.81-1.61-11.7-1.58c-10.63,0.08-20.01-4.56-29.95-7.13c-16.65-4.32-30.99-13.32-46.02-21.12
		c-14.83-7.69-27.1-18.72-39.4-29.41c-13.62-11.83-25.9-25.41-37.51-39.28c-9.79-11.7-19.06-24.22-26.3-37.6
		c-11.69-21.63-23.18-43.35-31.4-66.84c-7.59-21.68-13.29-43.73-17.05-66.13c-3.71-22.06-4.56-44.61-6.45-66.96
		c-0.67-7.93-0.78-15.91-1.04-23.87c-0.09-2.89-1.21-3.95-4.24-4.02c-5.22-0.13-10.45-0.66-15.63-1.37c-5.13-0.7-6.93-4.47-7.05-9.1
		c-0.22-8.66-0.3-17.32-0.29-25.97c0.02-17.22,0.27-34.45,0.19-51.67c-0.04-9.22,3.56-11.61,11.69-11.81
		c23.77-0.57,47.56-0.71,71.34-0.72c18.05-0.01,36.11,0.27,54.15,0.79c7.18,0.21,10.2,2.83,10.9,7.8c0.33,2.3,0.74,4.62,0.75,6.93
		c0.08,22.65,0.11,45.3,0.06,67.96c-0.01,2.97-0.42,5.95-0.86,8.89c-0.8,5.43-5.7,8.21-13.69,8.05
		C398.72,329.53,394.15,329.61,388.77,329.61z"/>
</g>
</svg>
