<?xml version="1.0" encoding="utf-8"?>
<!-- Generator: Adobe Illustrator 27.3.1, SVG Export Plug-In . SVG Version: 6.00 Build 0)  -->
<svg version="1.1" id="Layer_1" xmlns="http://www.w3.org/2000/svg" xmlns:xlink="http://www.w3.org/1999/xlink" x="0px" y="0px"
	 viewBox="0 0 1415 1286" style="enable-background:new 0 0 1415 1286;" xml:space="preserve">
<style type="text/css">
	.st0{display:none;}
	.st1{fill:#FFFFFF;}
</style>
<g>
	<path class="st0" d="M0,0c471.67,0,943.33,0,1415,0c0,428.67,0,857.33,0,1286c-471.67,0-943.33,0-1415,0C0,857.33,0,428.67,0,0z
		 M770.9,845.51c0-1.04-0.09-1.87,0.01-2.68c1.34-10.98,2.71-21.96,4.06-32.94c1.73-14.11,3.37-28.23,5.19-42.33
		c2.53-19.53,5.23-39.03,7.78-58.55c1.93-14.76,3.73-29.54,5.62-44.3c2.46-19.2,4.98-38.39,7.41-57.59
		c1.8-14.25,3.44-28.53,5.27-42.78c2.19-17.05,4.55-34.08,6.73-51.13c1.49-11.65,2.65-23.35,4.18-35c2.5-19,5.28-37.96,7.75-56.96
		c1.88-14.43,3.38-28.9,5.24-43.33c1.88-14.6,4.09-29.16,5.97-43.76c2.13-16.55,4.01-33.13,6.09-49.68
		c2.21-17.57,4.6-35.12,6.79-52.7c1.86-14.95,3.93-29.89,5.21-44.89c1.36-15.86,2.75-31.81,2.51-47.69
		c-0.19-12.59-3.71-19.35-20.06-19.38c-27.44-0.05-54.89-0.15-82.33-0.13c-39.93,0.04-79.87,0.19-119.8,0.25
		c-28.46,0.04-56.91,0.03-85.37,0.01c-32.96-0.02-65.93-0.09-98.89-0.1c-30.14-0.01-60.28,0.04-90.41,0.02
		c-26.31-0.02-52.62-0.14-78.93-0.15c-32.8-0.02-65.59-0.01-98.39,0.03c-20.49,0.02-40.98,0.1-61.47,0.21
		c-6.4,0.03-12.08,2.09-14.69,8.29c-1.56,3.7-2.41,8.06-2.24,12.06c0.63,14.71,1.67,29.41,2.85,44.08
		c0.91,11.23,2.14,22.44,3.47,33.63c1.71,14.3,3.69,28.56,5.52,42.84c1.58,12.28,3.11,24.57,4.68,36.86
		c1.43,11.13,2.91,22.26,4.31,33.4c1.88,15.08,3.64,30.18,5.55,45.25c2.09,16.41,4.36,32.79,6.43,49.2
		c2.16,17.05,4.1,34.12,6.28,51.17c2.15,16.88,4.58,33.72,6.71,50.6c2.21,17.55,4.14,35.14,6.31,52.7
		c2.19,17.74,4.52,35.46,6.77,53.2c1.75,13.78,3.43,27.56,5.21,41.33c1.53,11.79,3.22,23.55,4.73,35.34
		c1.5,11.8,2.81,23.62,4.29,35.42c1.87,14.91,3.84,29.8,5.73,44.71c1.6,12.62,3.14,25.24,4.71,37.86
		c2.11,17.04,4.22,34.09,6.34,51.13c1.75,14.11,3.49,28.22,5.29,42.33c1.52,11.95,3.17,23.89,4.65,35.84
		c1.5,12.15,2.77,24.32,4.31,36.46c2.16,17.06,4.5,34.09,6.71,51.14c1.8,13.91,3.47,27.83,5.27,41.73
		c1.53,11.8,3.14,23.58,4.74,35.37c2.01,14.91,3.85,29.85,6.15,44.71c1.22,7.89,4.17,15.41,12.94,17.46
		c7.14,1.67,14.59,2.6,21.92,2.74c19.65,0.38,39.31,0.16,58.96,0.16c73.46,0,146.91,0,220.37-0.06c3.12,0,6.25-0.47,9.36-0.84
		c4.46-0.52,8.92-1.72,13.37-1.63c16.38,0.33,32.76,1.52,49.14,1.57c57.98,0.18,115.96,0,173.94-0.02
		c44.87-0.01,89.74,0.04,134.62,0.04c52.91,0.01,105.82-0.02,158.73-0.01c28.55,0.01,57.1,0.2,85.65,0.07
		c36.09-0.16,72.18-0.32,108.26-1.06c8.62-0.18,17.27-2.33,25.77-4.21c4.15-0.92,6.52-4.42,6.8-8.87c0.26-4.15,0.65-8.3,0.57-12.45
		c-0.43-23.26-0.28-46.56-1.77-69.75c-0.9-14.09-3.47-28.24-6.95-41.95c-6.59-25.93-20.69-46.99-43.97-61.2
		c-19.03-11.61-40.45-16.32-61.67-21.79c-11.57-2.98-23.16-6.54-34.04-11.39c-12.89-5.75-20.8-17.4-27.79-29.08
		c-11.63-19.4-26.77-35.7-44.91-48.6c-23.19-16.48-47.63-31.2-71.52-46.69c-14.64-9.49-29.81-18.29-43.8-28.67
		c-28.6-21.23-58.3-40.5-90.88-55.06c-8.43-3.76-17.16-6.92-25.95-9.73c-2.64-0.85-5.95,0.39-8.95,0.67
		c0.29,3.01,0.56,6.02,0.88,9.03c0.03,0.3,0.34,0.57,0.49,0.86c3.63,7.22,7.44,14.35,10.85,21.68c6.85,14.73,1.09,35.81-11.64,43.89
		C825.53,827.24,799.31,838.39,770.9,845.51z"/>
	<path class="st1" d="M770.9,845.51c28.41-7.12,54.64-18.26,79.02-33.75c12.73-8.08,18.49-29.16,11.64-43.89
		c-3.41-7.32-7.22-14.46-10.85-21.68c-0.15-0.3-0.46-0.56-0.49-0.86c-0.32-3.01-0.59-6.02-0.88-9.03c3-0.28,6.31-1.52,8.95-0.67
		c8.79,2.82,17.52,5.97,25.95,9.73c32.58,14.55,62.27,33.83,90.88,55.06c13.99,10.38,29.15,19.17,43.8,28.67
		c23.89,15.49,48.34,30.21,71.52,46.69c18.14,12.9,33.28,29.2,44.91,48.6c6.99,11.67,14.9,23.32,27.79,29.08
		c10.88,4.86,22.47,8.41,34.04,11.39c21.23,5.47,42.64,10.18,61.67,21.79c23.29,14.21,37.39,35.27,43.97,61.2
		c3.48,13.7,6.04,27.86,6.95,41.95c1.49,23.19,1.34,46.5,1.77,69.75c0.08,4.14-0.31,8.3-0.57,12.45c-0.28,4.45-2.65,7.95-6.8,8.87
		c-8.5,1.88-17.14,4.03-25.77,4.21c-36.08,0.74-72.17,0.89-108.26,1.06c-28.55,0.13-57.1-0.07-85.65-0.07
		c-52.91-0.01-105.82,0.02-158.73,0.01c-44.87,0-89.74-0.05-134.62-0.04c-57.98,0.01-115.96,0.19-173.94,0.02
		c-16.38-0.05-32.75-1.24-49.14-1.57c-4.44-0.09-8.9,1.11-13.37,1.63c-3.11,0.36-6.24,0.83-9.36,0.84
		c-73.46,0.06-146.91,0.06-220.37,0.06c-19.66,0-39.31,0.21-58.96-0.16c-7.33-0.14-14.78-1.08-21.92-2.74
		c-8.77-2.05-11.72-9.56-12.94-17.46c-2.3-14.86-4.14-29.8-6.15-44.71c-1.59-11.79-3.21-23.58-4.74-35.37
		c-1.8-13.91-3.48-27.83-5.27-41.73c-2.21-17.05-4.55-34.08-6.71-51.14c-1.54-12.14-2.81-24.32-4.31-36.46
		c-1.48-11.96-3.13-23.89-4.65-35.84c-1.79-14.11-3.53-28.22-5.29-42.33c-2.12-17.04-4.23-34.09-6.34-51.13
		c-1.57-12.62-3.11-25.24-4.71-37.86c-1.89-14.91-3.86-29.8-5.73-44.71c-1.48-11.8-2.79-23.62-4.29-35.42
		c-1.5-11.79-3.2-23.56-4.73-35.34c-1.78-13.77-3.46-27.56-5.21-41.33c-2.25-17.73-4.58-35.45-6.77-53.2
		c-2.17-17.56-4.1-35.15-6.31-52.7c-2.13-16.88-4.55-33.72-6.71-50.6c-2.18-17.04-4.12-34.12-6.28-51.17
		c-2.08-16.41-4.35-32.79-6.43-49.2c-1.92-15.08-3.67-30.17-5.55-45.25c-1.39-11.14-2.88-22.27-4.31-33.4
		c-1.57-12.28-3.11-24.57-4.68-36.86c-1.84-14.28-3.81-28.55-5.52-42.84c-1.34-11.19-2.57-22.4-3.47-33.63
		c-1.19-14.68-2.22-29.37-2.85-44.08c-0.17-4,0.68-8.36,2.24-12.06c2.61-6.2,8.29-8.25,14.69-8.29c20.49-0.11,40.98-0.19,61.47-0.21
		c32.8-0.04,65.59-0.05,98.39-0.03c26.31,0.02,52.62,0.13,78.93,0.15c30.14,0.02,60.28-0.03,90.41-0.02
		c32.96,0.01,65.93,0.08,98.89,0.1c28.46,0.02,56.91,0.03,85.37-0.01c39.93-0.06,79.87-0.22,119.8-0.25
		c27.44-0.03,54.89,0.08,82.33,0.13c16.35,0.03,19.87,6.79,20.06,19.38c0.24,15.89-1.16,31.83-2.51,47.69
		c-1.28,15-3.35,29.94-5.21,44.89c-2.19,17.58-4.58,35.13-6.79,52.7c-2.08,16.55-3.96,33.13-6.09,49.68
		c-1.88,14.6-4.09,29.16-5.97,43.76c-1.86,14.43-3.35,28.9-5.24,43.33c-2.48,19-5.26,37.96-7.75,56.96
		c-1.53,11.65-2.69,23.34-4.18,35c-2.17,17.05-4.54,34.08-6.73,51.13c-1.83,14.25-3.47,28.53-5.27,42.78
		c-2.43,19.2-4.95,38.39-7.41,57.59c-1.89,14.77-3.69,29.54-5.62,44.3c-2.56,19.52-5.26,39.02-7.78,58.55
		c-1.82,14.1-3.46,28.22-5.19,42.33c-1.35,10.98-2.72,21.96-4.06,32.94C770.81,843.63,770.9,844.46,770.9,845.51z M540.58,1110
		c0.7-8.69,1.33-18.09,2.25-27.47c1.96-19.93,5.18-39.5,12.85-58.27c11.19-27.41,30.14-46.31,58.44-55.18
		c12.27-3.85,24.88-6.69,37.4-9.68c9.94-2.38,15.69-8.83,19.6-17.84c3.21-7.39,6.15-15.22,10.96-21.52
		c6.79-8.92,7.87-18.83,8.8-29.21c0.95-10.67,2.45-21.29,3.69-31.93c1.49-12.82,3-25.63,4.41-38.45
		c1.52-13.82,2.86-27.66,4.42-41.48c1.43-12.64,3.1-25.26,4.59-37.89c1.59-13.46,3.11-26.94,4.63-40.41
		c1.48-13.14,2.9-26.29,4.4-39.43c1.19-10.5,2.47-21,3.69-31.5c1.12-9.69,2.22-19.37,3.29-29.07c1.13-10.21,2.15-20.42,3.32-30.62
		c1.51-13.15,3.18-26.28,4.67-39.43c1.25-11.01,2.28-22.04,3.54-33.04c1.42-12.49,3.02-24.97,4.49-37.46
		c1.63-13.81,3.2-27.63,4.8-41.45c1.4-12.17,2.83-24.33,4.18-36.5c1.76-15.8,3.38-31.61,5.19-47.39
		c1.51-13.16,3.33-26.28,4.78-39.44c1.54-13.98,3.11-27.97,4.11-42c1-14.06,1.71-28.17,1.77-42.26c0.04-8.72-4.24-12.36-12.95-12.97
		c-1.66-0.12-3.33-0.03-5-0.01c-14.11,0.12-28.22,0.35-42.33,0.33c-36.93-0.05-73.86-0.29-110.79-0.32
		c-30.59-0.02-61.18,0.2-91.77,0.2c-27.13,0-54.27-0.2-81.4-0.24c-25.61-0.04-51.22,0.01-76.83,0.01
		c-44.44,0-88.89-0.06-133.33,0.04c-11.64,0.03-15.57,3.87-15.36,15.57c0.22,12.44,0.83,24.9,1.92,37.3
		c1.79,20.48,3.94,40.94,6.23,61.37c3.26,29.13,6.87,58.23,10.18,87.35c2.08,18.27,3.78,36.59,5.83,54.86
		c2.14,19.09,4.56,38.15,6.73,57.23c1.54,13.49,2.79,27,4.32,40.49c2.18,19.27,4.54,38.52,6.71,57.78
		c1.82,16.16,3.41,32.35,5.24,48.52c1.84,16.28,3.91,32.53,5.74,48.81c1.48,13.16,2.65,26.36,4.17,39.52
		c2.18,18.92,4.33,37.85,6.93,56.72c2.01,14.57,4.42,29.09,7.18,43.53c1.59,8.28,3.04,8.99,11.46,8.99
		c53.15,0.01,106.31-0.09,159.46,0.05c30.13,0.08,60.27,0.39,90.4,0.92c11.05,0.19,16.57,4.46,18.54,14.79
		c2.87,15.02,2.88,30.13,0.58,45.09c-2.37,15.39-8.44,16.19-19.16,16.88c-14.45,0.93-28.98,0.85-43.47,0.86
		c-28.31,0.03-56.62-0.27-84.93-0.27c-26.39,0-52.78,0.25-79.17,0.35c-13.03,0.05-26.07-0.06-39.1,0.07
		c-5.6,0.06-7.08,1.56-6.74,7.26c0.46,7.78,1.25,15.54,2.14,23.29c1.49,12.98,3.25,25.93,4.75,38.91
		c1.48,12.82,2.68,25.68,4.19,38.5c1.85,15.77,3.66,31.55,5.9,47.26c2.04,14.3,3.64,16.69,13.69,18.78
		c4.04,0.84,8.25,1.11,12.39,1.12C391.6,1110.01,466.05,1110,540.58,1110z M915.86,840.29c-1.62,1.95-2.8,3.55-4.16,4.98
		c-11.71,12.2-22.49,25.53-35.41,36.28c-17.64,14.67-39.53,22.06-60.65,30.5c-14.01,5.6-28.09,11.22-41.46,18.14
		c-8.53,4.42-16.32,10.75-18.01,21.62c-1.01,6.52-0.3,8.19,5.85,10.53c3.5,1.33,7.06,2.51,10.58,3.79
		c12.13,4.43,22.32,10.78,24.84,24.84c2.02,11.26,1.43,22.31-5.24,31.87c-2.88,4.12-7.35,7.96-11.95,9.84
		c-6.73,2.76-14.16,4.57-21.42,5.13c-16.19,1.24-32.45,1.74-48.7,2.02c-18.59,0.33-37.08,1.52-55.31,5.23
		c-14.4,2.94-27.43,8.45-35.4,21.87c-4.12,6.94-6.87,14.53-6.12,22.6c1.02,11.05,8.83,16.34,18.57,19.5
		c16.33,5.31,33.37,5.27,50.16,5.73c29.75,0.82,59.53,0.39,89.3,0.45c22.6,0.04,45.21-0.04,67.81,0.02
		c35.48,0.1,70.97,0.37,106.45,0.39c24.83,0.01,49.67-0.38,74.5-0.39c22.7-0.01,45.41,0.38,68.11,0.34
		c31.44-0.05,62.87-0.17,94.31-0.62c13.93-0.2,27.9-0.79,41.77-2.1c19.36-1.82,24.24-17.6,19.44-32.76
		c-4.28-13.53-14.95-20.4-27.29-25.08c-19.39-7.35-39.96-8.52-60.28-9.78c-24.11-1.51-48.34-1.09-72.49-2.17
		c-11.01-0.49-22.03-2.11-32.89-4.06c-7.13-1.28-11.91-6.58-12.61-13.71c-1.02-10.37-1.03-20.86-1.11-31.3
		c-0.1-13.09,4.2-23.4,17.44-28.86c8.58-3.54,9.16-7.41,4.62-15.67c-7-12.73-16.81-23.24-28.41-31.39
		c-17.29-12.15-35.7-22.7-53.48-34.16c-13.17-8.48-26.26-17.11-39.1-26.09C930.55,852.54,923.58,846.42,915.86,840.29z"/>
	<path class="st0" d="M540.58,1110c-74.53,0-148.98,0.02-223.43-0.05c-4.13,0-8.35-0.28-12.39-1.12
		c-10.05-2.08-11.65-4.48-13.69-18.78c-2.24-15.71-4.05-31.49-5.9-47.26c-1.5-12.82-2.7-25.68-4.19-38.5
		c-1.5-12.98-3.26-25.93-4.75-38.91c-0.89-7.74-1.68-15.51-2.14-23.29c-0.34-5.69,1.14-7.2,6.74-7.26
		c13.03-0.13,26.06-0.02,39.1-0.07c26.39-0.1,52.78-0.34,79.17-0.35c28.31,0,56.62,0.29,84.93,0.27
		c14.49-0.01,29.02,0.07,43.47-0.86c10.73-0.69,16.79-1.48,19.16-16.88c2.3-14.96,2.29-30.07-0.58-45.09
		c-1.97-10.33-7.49-14.6-18.54-14.79c-30.13-0.52-60.27-0.84-90.4-0.92c-53.15-0.14-106.31-0.04-159.46-0.05
		c-8.42,0-9.87-0.71-11.46-8.99c-2.76-14.44-5.18-28.97-7.18-43.53c-2.6-18.87-4.75-37.8-6.93-56.72
		c-1.52-13.16-2.68-26.36-4.17-39.52c-1.83-16.28-3.9-32.53-5.74-48.81c-1.82-16.16-3.42-32.35-5.24-48.52
		c-2.17-19.27-4.54-38.52-6.71-57.78c-1.52-13.49-2.78-27-4.32-40.49c-2.18-19.08-4.59-38.14-6.73-57.23
		c-2.05-18.28-3.75-36.59-5.83-54.86c-3.31-29.13-6.91-58.22-10.18-87.35c-2.29-20.43-4.44-40.89-6.23-61.37
		c-1.08-12.4-1.7-24.85-1.92-37.3c-0.21-11.7,3.72-15.54,15.36-15.57c44.44-0.1,88.89-0.03,133.33-0.04
		c25.61,0,51.22-0.05,76.83-0.01c27.13,0.04,54.27,0.24,81.4,0.24c30.59,0,61.18-0.23,91.77-0.2c36.93,0.03,73.86,0.26,110.79,0.32
		c14.11,0.02,28.22-0.22,42.33-0.33c1.67-0.01,3.34-0.1,5,0.01c8.71,0.62,12.99,4.25,12.95,12.97c-0.07,14.09-0.77,28.2-1.77,42.26
		c-1,14.03-2.57,28.02-4.11,42c-1.45,13.16-3.27,26.29-4.78,39.44c-1.81,15.79-3.44,31.6-5.19,47.39
		c-1.35,12.17-2.78,24.33-4.18,36.5c-1.59,13.82-3.17,27.64-4.8,41.45c-1.47,12.49-3.06,24.96-4.49,37.46
		c-1.25,11-2.29,22.04-3.54,33.04c-1.49,13.15-3.16,26.28-4.67,39.43c-1.17,10.2-2.19,20.42-3.32,30.62
		c-1.07,9.69-2.17,19.38-3.29,29.07c-1.21,10.5-2.49,21-3.69,31.5c-1.49,13.14-2.91,26.29-4.4,39.43
		c-1.52,13.47-3.04,26.95-4.63,40.41c-1.49,12.63-3.16,25.25-4.59,37.89c-1.56,13.82-2.9,27.66-4.42,41.48
		c-1.41,12.82-2.92,25.64-4.41,38.45c-1.23,10.64-2.73,21.26-3.69,31.93c-0.93,10.38-2.01,20.29-8.8,29.21
		c-4.8,6.31-7.75,14.13-10.96,21.52c-3.91,9.01-9.66,15.47-19.6,17.84c-12.53,2.99-25.13,5.84-37.4,9.68
		c-28.31,8.87-47.25,27.77-58.44,55.18c-7.67,18.78-10.89,38.35-12.85,58.27C541.91,1091.9,541.28,1101.31,540.58,1110z
		 M670.02,529.28c0.72-109.21-89.71-189.3-189.78-188.87c-99.23,0.43-188.28,78.26-189.07,188.74
		C290.37,640,381.62,723.44,487.64,719.99C580.46,716.96,671.25,641.82,670.02,529.28z"/>
	<path class="st0" d="M915.86,840.29c7.72,6.13,14.7,12.24,22.25,17.53c12.83,8.98,25.93,17.61,39.1,26.09
		c17.79,11.46,36.19,22.01,53.48,34.16c11.61,8.15,21.42,18.66,28.41,31.39c4.54,8.27,3.96,12.13-4.62,15.67
		c-13.24,5.46-17.55,15.78-17.44,28.86c0.08,10.44,0.09,20.93,1.11,31.3c0.7,7.13,5.49,12.43,12.61,13.71
		c10.86,1.95,21.88,3.57,32.89,4.06c24.15,1.07,48.38,0.66,72.49,2.17c20.33,1.27,40.9,2.43,60.28,9.78
		c12.35,4.68,23.01,11.55,27.29,25.08c4.8,15.16-0.08,30.94-19.44,32.76c-13.87,1.31-27.84,1.9-41.77,2.1
		c-31.43,0.45-62.87,0.57-94.31,0.62c-22.7,0.04-45.41-0.35-68.11-0.34c-24.83,0.01-49.67,0.4-74.5,0.39
		c-35.48-0.02-70.97-0.29-106.45-0.39c-22.6-0.06-45.21,0.02-67.81-0.02c-29.77-0.05-59.55,0.38-89.3-0.45
		c-16.79-0.47-33.83-0.42-50.16-5.73c-9.74-3.17-17.55-8.46-18.57-19.5c-0.75-8.07,2-15.66,6.12-22.6
		c7.97-13.43,21-18.94,35.4-21.87c18.23-3.72,36.72-4.9,55.31-5.23c16.24-0.29,32.51-0.78,48.7-2.02
		c7.26-0.56,14.69-2.37,21.42-5.13c4.6-1.88,9.07-5.72,11.95-9.84c6.68-9.56,7.26-20.61,5.24-31.87
		c-2.52-14.06-12.72-20.41-24.84-24.84c-3.52-1.28-7.08-2.46-10.58-3.79c-6.14-2.34-6.86-4.01-5.85-10.53
		c1.69-10.87,9.47-17.2,18.01-21.62c13.37-6.92,27.45-12.54,41.46-18.14c21.12-8.45,43.01-15.84,60.65-30.5
		c12.92-10.75,23.71-24.07,35.41-36.28C913.06,843.84,914.24,842.24,915.86,840.29z"/>
	<path class="st1" d="M670.02,529.28c1.22,112.54-89.57,187.69-182.38,190.71C381.62,723.44,290.37,640,291.17,529.15
		c0.79-110.48,89.84-188.31,189.07-188.74C580.31,339.98,670.74,420.07,670.02,529.28z M480.83,406.77
		c-62.73-0.02-124.1,50.73-123.28,124.55c0.8,71.59,57.35,119.88,117.59,122.38c70.96,2.94,126.2-52.31,128.91-117.19
		C607.29,458.91,544.47,406.82,480.83,406.77z"/>
	<path class="st0" d="M480.83,406.77c63.64,0.05,126.46,52.14,123.22,129.73c-2.71,64.88-57.95,120.14-128.91,117.19
		c-60.24-2.5-116.8-50.79-117.59-122.38C356.73,457.5,418.1,406.75,480.83,406.77z"/>
</g>
</svg>
