<svg id="Layer_1" data-name="Layer 1" xmlns="http://www.w3.org/2000/svg" viewBox="0 0 392.56 645.67"><defs><style>.cls-1{fill:#010101;}</style></defs><path class="cls-1" d="M905.8,619.48c49.08,18.91,131.74-.53,164.85-33.14l46.9,50.26c-8.69,10.57-19.37,18.16-31,24.32-32,16.94-66.3,27.3-101.92,32.78-20.39,3.14-41.15,4-61.71.77-11.94-1.86-23.77-4.53-35.57-7.19-3.93-.88-5.72-.35-7.17,3.79-11.65,33.38-23.61,66.65-35.36,100-1,3-2.44,4.08-5.68,4-12-.21-23.9-.09-36.38-.09,5.32-15,10.44-29.52,15.62-44,8.86-24.86,17.69-49.74,26.7-74.54,1.23-3.4,1-5.28-2.46-7.1a219.1,219.1,0,0,1-50.52-37.06,222.46,222.46,0,0,1-25-29.14A217,217,0,0,1,736.33,543a235.58,235.58,0,0,1-10.6-55.17c-2-28.31,1.58-55.87,9.71-82.74,4-13.26,10.14-26,16.44-38.4,9.63-18.93,22.56-35.78,37.33-51a203.62,203.62,0,0,1,29.17-25c15.93-11.11,32.92-20.53,51.37-27.24a227.84,227.84,0,0,1,122.11-10.64c3.69.66,4.43-1.25,5.39-3.95,11.15-31.44,22.45-62.82,33.48-94.29,1.36-3.88,3-5.37,7.26-5.24,11.47.34,23,.12,35.22.12L1033.1,262.3c30.73,10.92,61.53,20.9,84.64,46.05l-47.08,50.52c-16.74-17-38.23-24.49-60.61-31.95Q957.87,473.37,905.8,619.48ZM871.07,603q50.53-141.81,101-283.55a153.59,153.59,0,0,0-166.34,106C782.13,499.78,817.46,571.27,871.07,603Z" transform="translate(-725.18 -149.42)"/></svg>