<?xml version="1.0" encoding="utf-8"?>
<!-- Generator: Adobe Illustrator 26.0.1, SVG Export Plug-In . SVG Version: 6.00 Build 0)  -->
<svg version="1.1" id="Layer_1" xmlns="http://www.w3.org/2000/svg" xmlns:xlink="http://www.w3.org/1999/xlink" x="0px" y="0px"
	 viewBox="0 0 612 792" style="enable-background:new 0 0 612 792;" xml:space="preserve">
<style type="text/css">
	.st0{display:none;}
	.st1{display:none;fill:#FEFEFE;}
	.st2{fill:#6A6A6A;}
</style>
<g>
	<path class="st0" d="M612,139.5c0,171,0,342.1,0,513.1c-204,0-408,0-612,0c0-171,0-342,0-513.1C204.2,139.5,408.1,139.5,612,139.5z
		 M305.9,369.5c-0.6-0.5-0.9-0.7-1.1-1c-36.6-36.6-73.2-73.2-109.8-109.9c-11.4-11.4-22.8-22.8-34.3-34.3c-0.9-0.9-1.6-1.9-3.1-0.5
		c-8.3,8.4-16.7,16.7-25.4,25.4c49.1,49,98,97.9,147.1,147c-48.8,48.8-97.6,97.6-146.7,146.6c8.9,8.7,17.6,17.3,26.4,26
		c48.9-48.9,97.6-97.7,146.9-147c3.3,3.5,6.2,6.6,9.1,9.6c19.1,19.2,38.3,38.3,57.4,57.4c12.4,12.4,24.6,24.8,37,37.2
		c13.8,13.8,27.8,27.5,41.5,41.4c1.6,1.7,2.4,1.6,3.9,0.1c7.4-7.5,14.9-14.9,22.3-22.4c2.2-2.2,2.2-2.2,0-4.4
		c-44.3-44.3-88.7-88.7-133-133c-3.9-3.9-7.9-7.7-11.9-11.7c0.7-0.8,1.2-1.3,1.7-1.8c29.8-29.8,59.7-59.7,89.5-89.5
		c13.5-13.5,27-27,40.4-40.4c4.5-4.5,8.9-9,13.4-13.4c1.5-1.4,1.1-2.2-0.2-3.4c-7.5-7.4-14.9-14.9-22.4-22.3
		c-2.2-2.2-2.2-2.2-4.4-0.1c-47.4,47.4-94.7,94.7-142.1,142.1C307.6,368.1,306.8,368.7,305.9,369.5z"/>
	<path class="st1" d="M612,139.5c-203.9,0-407.8,0-612,0c0,171.1,0,342.1,0,513.1c-0.2-0.1-0.4-0.1-0.5-0.2c0-0.6,0-1.3,0-1.9
		c0-170.4,0-340.9,0-511.4c1.4,0,2.8,0,4.2,0c202.1,0,404.1,0,606.2,0C610.6,139,611.3,139.3,612,139.5z"/>
	<path class="st2" d="M305.9,369.5c0.9-0.8,1.7-1.4,2.4-2.1c47.4-47.4,94.8-94.7,142.1-142.1c2.2-2.2,2.2-2.2,4.4,0.1
		c7.4,7.4,14.9,14.9,22.4,22.3c1.2,1.2,1.6,2,0.2,3.4c-4.5,4.4-9,8.9-13.4,13.4c-13.5,13.5-27,27-40.4,40.4
		c-29.8,29.8-59.7,59.7-89.5,89.5c-0.5,0.5-1,1-1.7,1.8c4,3.9,8,7.8,11.9,11.7c44.4,44.3,88.7,88.7,133,133c2.2,2.2,2.2,2.2,0,4.4
		c-7.4,7.5-14.9,14.9-22.3,22.4c-1.5,1.5-2.3,1.6-3.9-0.1c-13.8-13.9-27.7-27.6-41.5-41.4c-12.4-12.4-24.6-24.8-37-37.2
		c-19.1-19.2-38.3-38.3-57.4-57.4c-3-3-5.8-6.1-9.1-9.6c-49.2,49.2-98,98.1-146.9,147c-8.8-8.7-17.5-17.2-26.4-26
		c49.1-49.1,97.9-97.9,146.7-146.6c-49.1-49-98.1-98-147.1-147c8.7-8.7,17.1-17,25.4-25.4c1.4-1.4,2.1-0.4,3.1,0.5
		c11.4,11.4,22.8,22.8,34.3,34.3c36.6,36.6,73.2,73.2,109.8,109.9C305.1,368.8,305.4,369,305.9,369.5z"/>
</g>
</svg>
