<?xml version="1.0" encoding="utf-8"?>
<!-- Generator: Adobe Illustrator 26.0.1, SVG Export Plug-In . SVG Version: 6.00 Build 0)  -->
<svg version="1.1" id="Layer_1" xmlns="http://www.w3.org/2000/svg" xmlns:xlink="http://www.w3.org/1999/xlink" x="0px" y="0px"
	 viewBox="0 0 612 792" style="enable-background:new 0 0 612 792;" xml:space="preserve">
<style type="text/css">
	.st0{display:none;}
	.st1{fill:#FFFFFF;}
</style>
<g>
	<path class="st0" d="M612,139.9c0,170.9,0,341.8,0,512.7c-204,0-408,0-612,0c0-170.9,0-341.8,0-512.7
		C204,139.9,408,139.9,612,139.9z M425.4,250.4C385.8,290.1,346,329.9,306,369.9c-40.2-40.2-80-80.1-119.8-119.8
		c-8.9,8.9-17.6,17.6-26.6,26.6c39.8,39.7,79.7,79.6,119.9,119.7c-40,39.8-79.8,79.6-119.4,119.1c8.9,8.9,17.6,17.6,26.3,26.3
		c39.7-39.7,79.4-79.4,119.5-119.5c40.2,40.2,80.1,80.1,119.8,119.8c8.9-8.9,17.7-17.6,26.7-26.6c-39.8-39.7-79.7-79.5-120.1-119.8
		c39.9-39.8,79.8-79.6,119.4-119.1C443,268,434.3,259.3,425.4,250.4z"/>
	<path class="st1" d="M612,139.9c-204,0-408,0-612,0c0.1-0.2,0.2-0.4,0.2-0.5c0.6,0,1.3,0,1.9,0c202.6,0,405.1,0,607.7,0
		C610.6,139.4,611.3,139.7,612,139.9z"/>
	<path class="st1" d="M425.4,250.4c8.9,8.9,17.6,17.5,26.3,26.2c-39.7,39.6-79.5,79.3-119.4,119.1c40.4,40.3,80.3,80.2,120.1,119.8
		c-9,9-17.8,17.7-26.7,26.6c-39.6-39.6-79.6-79.6-119.8-119.8c-40.1,40.1-79.8,79.8-119.5,119.5c-8.7-8.7-17.4-17.4-26.3-26.3
		c39.6-39.5,79.5-79.3,119.4-119.1c-40.2-40.2-80.1-80-119.9-119.7c9-9,17.7-17.7,26.6-26.6c39.7,39.8,79.6,79.6,119.8,119.8
		C346,329.9,385.8,290.1,425.4,250.4z"/>
</g>
</svg>
