<?xml version="1.0" encoding="utf-8"?>
<!-- Generator: Adobe Illustrator 26.0.1, SVG Export Plug-In . SVG Version: 6.00 Build 0)  -->
<svg version="1.1" id="Layer_1" xmlns="http://www.w3.org/2000/svg" xmlns:xlink="http://www.w3.org/1999/xlink" x="0px" y="0px"
	 viewBox="0 0 612 792" style="enable-background:new 0 0 612 792;" xml:space="preserve">
<style type="text/css">
	.st0{display:none;fill:#010000;}
	.st1{fill:#FEFEFE;}
	.st2{fill:#E51306;}
</style>
<g>
	<path class="st0" d="M612,139.9c0,170.9,0,341.8,0,512.7c-204,0-408,0-612,0c0-170.9,0-341.8,0-512.7
		C204,139.9,408,139.9,612,139.9z M305.8,370.1c-40.2-40.1-80.1-80-120.1-119.9c-0.6,0.6-1.3,1.2-2.1,2c-7,7-14,14-21,21
		c-3.1,3.1-3.1,3.1-0.1,6.4c0.4,0.4,0.7,0.9,1.1,1.3c12.4,12.3,24.8,24.7,37.2,37c25.5,25.5,51,51,76.6,76.4
		c1.8,1.8,1.6,2.7-0.1,4.3c-11.2,11.1-22.2,22.3-33.4,33.4c-12.3,12.3-24.7,24.4-37,36.7c-12.6,12.6-25.1,25.2-37.7,37.8
		c-3.1,3.1-6.3,6.1-9.4,9.1c9.1,9.1,17.8,17.8,26.7,26.6c0.2-0.1,0.6-0.4,0.9-0.7c6.6-6.5,13.2-13,19.7-19.6
		c15-15,30-30.1,45.1-45.1c17.3-17.3,34.7-34.6,52-52c1.4-1.4,2.2-1.4,3.6,0c14.3,14.4,28.6,28.6,42.9,42.9
		c15.3,15.3,30.6,30.5,45.8,45.8c9,9,18,18.1,27,27.1c2.1,2.1,2.8,2.1,5-0.1c3-3,5.9-5.9,8.9-8.9c5.1-5,10.2-9.9,15.4-15
		c-40.4-40.3-80.4-80.2-120.7-120.4c40.1-40,79.9-79.7,119.6-119.3c-8.7-8.7-17.4-17.4-26.4-26.3C385.6,290.1,345.8,330,305.8,370.1
		z"/>
	<path class="st1" d="M612,139.9c-204,0-408,0-612,0c0.1-0.2,0.2-0.4,0.2-0.5c0.6,0,1.3,0,1.9,0c202.6,0,405.1,0,607.7,0
		C610.6,139.4,611.3,139.7,612,139.9z"/>
	<path class="st2" d="M305.8,370.1c40.1-40.1,79.9-80,119.6-119.7c9,9,17.7,17.6,26.4,26.3C412,316.3,372.2,356,332.1,396
		c40.3,40.2,80.3,80.1,120.7,120.4c-5.3,5.1-10.4,10.1-15.4,15c-3,2.9-5.9,5.9-8.9,8.9c-2.2,2.2-2.9,2.2-5,0.1c-9-9-18-18.1-27-27.1
		c-15.3-15.3-30.5-30.5-45.8-45.8c-14.3-14.3-28.7-28.6-42.9-42.9c-1.4-1.4-2.3-1.4-3.6,0c-17.3,17.4-34.7,34.7-52,52
		c-15,15-30,30.1-45.1,45.1c-6.5,6.5-13.1,13.1-19.7,19.6c-0.3,0.3-0.7,0.6-0.9,0.7c-8.8-8.8-17.5-17.5-26.7-26.6
		c3.1-3,6.3-6,9.4-9.1c12.6-12.6,25.1-25.2,37.7-37.8c12.3-12.3,24.7-24.5,37-36.7c11.1-11.1,22.2-22.3,33.4-33.4
		c1.7-1.6,1.8-2.6,0.1-4.3c-25.6-25.4-51.1-50.9-76.6-76.4c-12.4-12.3-24.8-24.7-37.2-37c-0.4-0.4-0.7-0.9-1.1-1.3
		c-3-3.3-3-3.3,0.1-6.4c7-7,14-14,21-21c0.7-0.7,1.5-1.4,2.1-2C225.7,290.1,265.6,329.9,305.8,370.1z"/>
</g>
</svg>
