<?xml version="1.0" encoding="utf-8"?>
<!-- Generator: Adobe Illustrator 26.0.1, SVG Export Plug-In . SVG Version: 6.00 Build 0)  -->
<svg version="1.1" id="Layer_1" xmlns="http://www.w3.org/2000/svg" xmlns:xlink="http://www.w3.org/1999/xlink" x="0px" y="0px"
	 viewBox="0 0 612 792" style="enable-background:new 0 0 612 792;" xml:space="preserve">
<style type="text/css">
	.st0{display:none;}
	.st1{fill:#FEFEFE;}
	.st2{fill:#6A6A6A;}
</style>
<g>
	<path class="st0" d="M612,139.9c0,170.9,0,341.8,0,512.7c-204,0-408,0-612,0c0-170.9,0-341.8,0-512.7
		C204,139.9,408,139.9,612,139.9z M331.9,396.2c1.2-0.9,1.9-1.3,2.4-1.9c38.5-38.5,77-77,115.6-115.4c1.7-1.7,1.5-2.6-0.1-4.1
		c-3.9-3.7-7.6-7.5-11.4-11.3c-3.4-3.5-6.8-7.1-10.2-10.5c-2.5-2.5-2.6-2.5-5.1,0c-34.3,34.3-68.7,68.6-103,102.9
		c-4.8,4.8-9.5,9.6-13.7,13.8c-1.2-0.8-2.2-1.3-3-2.1c-27.2-27.1-54.3-54.2-81.5-81.4c-11.5-11.5-23-22.9-34.4-34.4
		c-0.9-0.9-1.7-1.7-2.9-0.5c-8.3,8.4-16.7,16.8-25.4,25.6c39.9,39.9,79.8,79.7,120.1,120c-39.7,39.6-79.5,79.4-119.6,119.4
		c0.9,0.7,1.6,1.3,2.3,1.9c7.2,7.1,14.4,14.3,21.5,21.4c2.6,2.6,2.5,2.7,5.2,0.1c37.5-37.5,75-75,112.5-112.4
		c1.5-1.5,2.9-3.1,4.6-4.8c2.3,2.3,4.3,4.4,6.4,6.5c37.2,37.2,74.5,74.4,111.7,111.6c1.5,1.5,2.4,1.7,4,0.1
		c7.4-7.6,14.9-15.1,22.5-22.5c1.6-1.5,1.5-2.4,0-4c-37-36.9-73.9-73.8-110.9-110.7C337.2,401.1,334.8,398.9,331.9,396.2z"/>
	<path class="st1" d="M612,139.9c-204,0-408,0-612,0c0.1-0.2,0.2-0.4,0.2-0.5c0.6,0,1.3,0,1.9,0c202.6,0,405.1,0,607.7,0
		C610.6,139.4,611.3,139.7,612,139.9z"/>
	<path class="st2" d="M331.9,396.2c2.9,2.7,5.3,4.9,7.7,7.3c37,36.9,73.9,73.8,110.9,110.7c1.6,1.6,1.6,2.4,0,4
		c-7.6,7.4-15.1,14.9-22.5,22.5c-1.6,1.6-2.5,1.4-4-0.1c-37.2-37.2-74.4-74.4-111.7-111.6c-2-2-4.1-4.1-6.4-6.5
		c-1.6,1.7-3.1,3.3-4.6,4.8c-37.5,37.5-75,75-112.5,112.4c-2.6,2.6-2.6,2.6-5.2-0.1c-7.1-7.2-14.3-14.3-21.5-21.4
		c-0.7-0.7-1.4-1.2-2.3-1.9c40.1-40,79.9-79.8,119.6-119.4c-40.3-40.2-80.2-80.1-120.1-120c8.7-8.8,17.1-17.2,25.4-25.6
		c1.3-1.3,2.1-0.4,2.9,0.5c11.5,11.5,23,22.9,34.4,34.4c27.2,27.1,54.3,54.3,81.5,81.4c0.8,0.8,1.8,1.3,3,2.1
		c4.2-4.3,8.9-9.1,13.7-13.8c34.3-34.3,68.6-68.6,103-102.9c2.4-2.4,2.5-2.5,5.1,0c3.5,3.5,6.8,7.1,10.2,10.5
		c3.7,3.8,7.5,7.6,11.4,11.3c1.6,1.5,1.8,2.4,0.1,4.1c-38.6,38.4-77.1,76.9-115.6,115.4C333.8,394.8,333.1,395.2,331.9,396.2z"/>
</g>
</svg>
