<svg id="Layer_1" data-name="Layer 1" xmlns="http://www.w3.org/2000/svg" viewBox="0 0 386.34 386.9"><defs><style>.cls-1{fill:#2a2a2a;}</style></defs><path class="cls-1" d="M755.22,683.58,913.54,525.41l-159-158.76c5.85-5.64,10.88-10.41,15.82-15.28,5.58-5.5,11.13-11,16.58-16.65,2.05-2.11,3.66-2.29,5.83-.09,13.08,13.19,26.26,26.3,39.39,39.44q20.16,20.18,40.3,40.38c14,14.06,27.87,28.19,41.85,42.25q16,16.07,32.05,32a10,10,0,0,0,2,1.23L1107,331.13c11.5,11.58,22.29,22.38,32.91,33.35.59.61.21,3.15-.58,3.95q-22.14,22.47-44.51,44.71-23.46,23.42-47,46.75c-21.69,21.59-43.37,43.2-65.65,65.38l158.66,158.62L1106.72,718,948.56,559.61c-4.88,4.69-9.71,9.17-14.38,13.83Q905,602.63,875.81,631.92q-18.12,18.2-36.18,36.43-22.53,22.59-45.12,45.12c-4.6,4.6-4.63,4.58-9.29-.05Z" transform="translate(-754.53 -331.13)"/></svg>