<?xml version="1.0" encoding="utf-8"?>
<!-- Generator: Adobe Illustrator 26.0.1, SVG Export Plug-In . SVG Version: 6.00 Build 0)  -->
<svg version="1.1" id="Layer_1" xmlns="http://www.w3.org/2000/svg" xmlns:xlink="http://www.w3.org/1999/xlink" x="0px" y="0px"
	 viewBox="0 0 612 792" style="enable-background:new 0 0 612 792;" xml:space="preserve">
<style type="text/css">
	.st0{display:none;fill:#000001;}
	.st1{display:none;fill:#FEFEFE;}
	.st2{fill:#0066E8;}
</style>
<g>
	<path class="st0" d="M0,708.1C0,499.5,0,290.9,0,82.3c204,0,408,0,612,0c0,208.6,0,417.2,0,625.8C408,708.1,204,708.1,0,708.1z
		 M293.4,604.4c17.8-0.4,31.6-0.3,45.3-1c13.8-0.7,27.5-1.8,41.3-3.1c19.3-1.8,38.4-4.6,57.3-9.1c14.3-3.5,28.2-8.1,40.6-16.4
		c11.9-7.9,20.2-18.4,23-32.7c2.3-11.9,1.1-23.6-1.8-35.2c-5-19.9-14.1-37.7-27.1-53.4c-8.5-10.3-18.3-19.1-30.2-25.5
		c-17.7-9.5-37-13.1-56.7-13.7c-17.7-0.5-35.4-0.2-53.1,0.4c-27.3,1-54.5-0.2-81.8-0.8c-17.7-0.4-35.4,0.1-52.8,3.5
		c-15.8,3.1-30.3,8.9-43.1,18.9c-11.6,9.1-21,20.2-28.6,32.8c-10.7,17.6-17.8,36.5-18.9,57.3c-1.1,20.6,6.5,36.9,23.8,48.4
		c10.8,7.2,22.8,11.7,35.2,15c25.6,6.8,51.7,10,78,12.1C261.6,603.2,279.5,603.7,293.4,604.4z M304.3,376.1
		c64.6-0.2,113.7-55.7,107.9-118.4c-5.2-56.3-54.9-103-117.3-97.7c-57.4,4.8-103.1,54.5-98.7,115.9
		C200.4,333.5,248.4,376.1,304.3,376.1z"/>
	<path class="st1" d="M0,708.1c204,0,408,0,612,0c-0.1,0.2-0.2,0.5-0.3,0.5c-0.7,0-1.4,0-2.1,0c-202.4,0-404.8,0-607.2,0
		C1.6,708.6,0.8,708.3,0,708.1z"/>
	<path class="st2" d="M293.4,604.4c-13.8-0.7-31.8-1.1-49.7-2.6c-26.3-2.1-52.4-5.3-78-12.1c-12.4-3.3-24.4-7.8-35.2-15
		c-17.3-11.5-24.9-27.8-23.8-48.4c1.1-20.8,8.2-39.6,18.9-57.3c7.6-12.6,17-23.7,28.6-32.8c12.7-10,27.3-15.8,43.1-18.9
		c17.5-3.4,35.1-3.9,52.8-3.5c27.2,0.6,54.5,1.8,81.8,0.8c17.7-0.7,35.4-0.9,53.1-0.4c19.8,0.6,39,4.1,56.7,13.7
		c11.9,6.4,21.7,15.2,30.2,25.5c13,15.8,22.1,33.6,27.1,53.4c2.9,11.6,4.2,23.3,1.8,35.2c-2.8,14.3-11.1,24.8-23,32.7
		c-12.4,8.3-26.3,12.9-40.6,16.4c-18.8,4.5-38,7.3-57.3,9.1c-13.7,1.3-27.5,2.4-41.3,3.1C324.9,604,311.2,604,293.4,604.4z"/>
	<path class="st2" d="M304.3,376.1c-55.9,0-103.9-42.6-108.1-100.3c-4.4-61.4,41.3-111.1,98.7-115.9c62.3-5.2,112.1,41.4,117.3,97.7
		C418,320.4,368.9,375.9,304.3,376.1z"/>
</g>
</svg>
