<?xml version="1.0" encoding="utf-8"?>
<!-- Generator: Adobe Illustrator 27.3.1, SVG Export Plug-In . SVG Version: 6.00 Build 0)  -->
<svg version="1.1" id="Layer_1" xmlns="http://www.w3.org/2000/svg" xmlns:xlink="http://www.w3.org/1999/xlink" x="0px" y="0px"
	 viewBox="0 0 1115 1080" style="enable-background:new 0 0 1115 1080;" xml:space="preserve">
<style type="text/css">
	.st0{display:none;fill:#FAF9F8;}
	.st1{fill:#ED1B45;}
</style>
<g>
	<path class="st0" d="M0,1080C0,720.02,0,360.04,0,0c371.62,0,743.24,0,1114.99,0c0,359.96,0,719.98,0.01,1080
		C743.34,1080,371.67,1080,0,1080z M23.02,148.03c-0.41,0.48-1.78,1.34-1.91,2.36c-0.85,6.62-1.49,13.27-2.06,19.93
		c-0.09,1.04,0.62,2.14,0.82,3.23c0.18,1,0.32,2.05,0.21,3.05c-0.65,6.01-1.49,12-2.02,18.03c-0.16,1.88,0.81,3.85,0.67,5.73
		c-0.36,4.72-1.41,9.4-1.56,14.12c-0.29,8.85-0.02,17.72-0.22,26.57c-0.19,8.43-0.84,16.84-0.98,25.27
		c-0.08,4.75,0.82,9.53,0.66,14.27c-0.19,5.57-1.55,11.13-1.54,16.69c0.02,16.28,0.66,32.56,0.68,48.84
		c0.02,12.26-0.66,24.52-0.82,36.78c-0.15,11.37-0.14,22.74,0,34.11c0.1,7.59,0.71,15.17,0.81,22.76
		c0.15,11.37,0.17,22.74,0.03,34.11c-0.14,11.59-0.59,23.18-0.8,34.77c-0.11,6.16-0.42,12.37,0.12,18.49
		c0.52,5.86,0.48,11.58,0.05,17.44c-0.45,6.22,0.56,12.53,0.73,18.81c0.45,16.28,0.81,32.55,1.17,48.83
		c0.05,2.33-0.21,4.67-0.04,6.99c1.29,18.44,2.62,36.88,4.01,55.32c0.6,7.91,0.92,15.87,2.16,23.68c1.91,11.97,4.07,23.93,6.92,35.7
		c4.38,18.07,10.07,35.49,22.41,50.29c8.98,10.78,20.05,18.28,32.78,22.41c12.09,3.92,25.07,5.11,37.67,7.42
		c4.27,0.79,8.72,4.96,8.95,9.31c0.74,14.12,1.75,28.24,1.8,42.37c0.22,62.83,0.12,125.67,0.21,188.5
		c0.02,10.62,0.23,10.18,10.82,10.88c8.44,0.56,14.83-1.46,20.41-8.31c12.09-14.86,24.93-29.09,37.34-43.69
		c38.63-45.44,77.09-91.03,115.86-136.35c14.71-17.19,29.97-33.93,45.24-50.64c7.35-8.05,17.07-11.08,27.82-11.09
		c72.01-0.06,144.01,0.07,216.02-0.21c115.95-0.46,231.9-0.99,347.85-2.02c17.45-0.15,34.99-2.45,52.29-5.05
		c19.99-3.01,37.77-10.8,52.42-25.84c11.16-11.46,16.98-25.6,21.67-39.8c7.46-22.54,10.32-46.31,12.35-69.99
		c1.81-21.1,2.9-42.27,4.02-63.43c0.66-12.42,0.83-24.86,1.08-37.3c0.39-19.44,0.77-38.88,0.96-58.33c0.17-17,0.1-34,0.11-51
		c0.02-17.17-0.16-34.34,0.06-51.5c0.21-16.47-0.44-32.93-0.21-49.41c0.28-20.6-0.59-41.22-0.9-61.83
		c-0.34-22.44-1.13-44.9-0.72-67.33c0.28-15.8-3.05-31.27-2.47-47.11c0.38-10.4-1.7-20.9-2.82-31.33c-0.3-2.8-1.43-5.53-1.66-8.33
		c-0.68-8.33-0.59-16.76-1.78-25.01c-1.18-8.14-3.74-16.07-5.35-24.15c-1.99-9.94-3.9-19.82-11.12-27.66
		c-0.77-0.83-0.84-2.28-1.32-3.41c-1.9-4.56-2.8-10.06-5.95-13.49c-9.04-9.84-18.63-19.28-31.68-24.05
		c-4.24-1.55-8.1-4.68-12.42-5.38c-17.26-2.79-34.58-5.54-51.98-7.1c-16.62-1.49-33.37-1.54-50.07-2.05
		c-3.73-0.11-7.49,0.89-11.22,0.76c-7.92-0.27-15.82-1.38-23.73-1.4c-96.51-0.18-193.02-0.38-289.53-0.26
		c-125.49,0.16-250.97,0.5-376.45,0.99c-23.55,0.09-47.12,0.92-70.65,2.04c-13.63,0.65-27.19,2.71-40.8,3.87
		c-15.25,1.29-28.87,7.97-40.97,15.94c-9.61,6.33-18.61,15.22-23.19,26.97c-3.35,8.6-7.59,16.88-10.56,25.6
		c-2.34,6.88-3.43,14.2-4.93,21.36c-1.66,7.86-3.49,15.7-4.6,23.65C22.46,137.3,23.02,142.33,23.02,148.03z"/>
	<path class="st1" d="M23.02,148.03c0-5.7-0.55-10.74,0.13-15.6c1.11-7.94,2.94-15.79,4.6-23.65c1.51-7.15,2.59-14.47,4.93-21.36
		c2.97-8.72,7.22-17,10.56-25.6c4.57-11.76,13.57-20.64,23.19-26.97c12.1-7.97,25.72-14.64,40.97-15.94
		c13.61-1.15,27.17-3.22,40.8-3.87c23.53-1.12,47.1-1.95,70.65-2.04c125.48-0.49,250.97-0.83,376.45-0.99
		c96.51-0.12,193.02,0.08,289.53,0.26c7.91,0.01,15.81,1.13,23.73,1.4c3.73,0.13,7.49-0.87,11.22-0.76
		c16.7,0.5,33.45,0.56,50.07,2.05c17.4,1.56,34.72,4.31,51.98,7.1c4.31,0.7,8.18,3.83,12.42,5.38
		c13.05,4.77,22.64,14.21,31.68,24.05c3.15,3.43,4.05,8.93,5.95,13.49c0.47,1.13,0.55,2.58,1.32,3.41
		c7.22,7.84,9.13,17.72,11.12,27.66c1.62,8.09,4.17,16.02,5.35,24.15c1.19,8.25,1.1,16.68,1.78,25.01c0.23,2.8,1.36,5.53,1.66,8.33
		c1.12,10.44,3.21,20.94,2.82,31.33c-0.58,15.83,2.75,31.31,2.47,47.11c-0.4,22.43,0.39,44.89,0.72,67.33
		c0.31,20.61,1.18,41.23,0.9,61.83c-0.22,16.48,0.43,32.93,0.21,49.41c-0.22,17.16-0.04,34.33-0.06,51.5c-0.02,17,0.06,34-0.11,51
		c-0.2,19.44-0.57,38.89-0.96,58.33c-0.25,12.44-0.42,24.88-1.08,37.3c-1.12,21.16-2.21,42.33-4.02,63.43
		c-2.04,23.67-4.89,47.44-12.35,69.99c-4.7,14.2-10.51,28.34-21.67,39.8c-14.65,15.04-32.43,22.83-52.42,25.84
		c-17.3,2.61-34.84,4.9-52.29,5.05c-115.95,1.03-231.9,1.56-347.85,2.02c-72.01,0.28-144.01,0.16-216.02,0.21
		c-10.75,0.01-20.47,3.04-27.82,11.09c-15.27,16.71-30.52,33.44-45.24,50.64c-38.77,45.32-77.23,90.91-115.86,136.35
		c-12.41,14.6-25.25,28.83-37.34,43.69c-5.58,6.85-11.97,8.87-20.41,8.31c-10.59-0.7-10.8-0.26-10.82-10.88
		c-0.1-62.83,0.01-125.67-0.21-188.5c-0.05-14.13-1.06-28.25-1.8-42.37c-0.23-4.35-4.67-8.53-8.95-9.31
		c-12.6-2.31-25.58-3.5-37.67-7.42c-12.73-4.13-23.8-11.63-32.78-22.41c-12.34-14.81-18.03-32.23-22.41-50.29
		c-2.85-11.77-5.01-23.74-6.92-35.7c-1.25-7.81-1.57-15.77-2.16-23.68c-1.39-18.43-2.72-36.87-4.01-55.32
		c-0.16-2.32,0.1-4.66,0.04-6.99c-0.37-16.28-0.72-32.56-1.17-48.83c-0.17-6.28-1.19-12.59-0.73-18.81
		c0.43-5.87,0.46-11.59-0.05-17.44c-0.54-6.12-0.23-12.33-0.12-18.49c0.21-11.59,0.66-23.18,0.8-34.77
		c0.14-11.37,0.12-22.74-0.03-34.11c-0.1-7.59-0.72-15.17-0.81-22.76c-0.14-11.37-0.15-22.74,0-34.11
		c0.16-12.26,0.84-24.52,0.82-36.78c-0.02-16.28-0.66-32.56-0.68-48.84c-0.01-5.56,1.35-11.11,1.54-16.69
		c0.16-4.74-0.74-9.52-0.66-14.27c0.14-8.42,0.79-16.84,0.98-25.27c0.2-8.85-0.07-17.72,0.22-26.57c0.15-4.72,1.2-9.4,1.56-14.12
		c0.14-1.88-0.83-3.85-0.67-5.73c0.52-6.02,1.37-12.02,2.02-18.03c0.11-1-0.03-2.05-0.21-3.05c-0.2-1.1-0.91-2.19-0.82-3.23
		c0.57-6.65,1.2-13.31,2.06-19.93C21.24,149.37,22.61,148.51,23.02,148.03z M181.73,953.55c0.49,0.19,0.98,0.37,1.47,0.56
		c0.9-1.11,1.85-2.18,2.69-3.33c10.45-14.42,20.85-28.88,31.33-43.28c32.8-45.09,65.53-90.24,98.56-135.17
		c5.4-7.34,12.23-13.7,22.19-14.5c9.39-0.75,18.81-1.76,28.22-1.77c102.5-0.13,205.02,0.6,307.51-0.27
		c100.52-0.86,201.12,4.08,301.55-3.18c10.16-0.73,20.83-4.55,29.78-9.57c17.4-9.76,26.69-26.58,31.5-45.31
		c5.02-19.56,6.78-39.76,7.44-59.94c0.7-21.43,0.83-42.87,1.05-64.31c0.15-14.86,0.03-29.73,0.03-44.59c0-21.24,0-42.48,0-63.73
		c0-21.58-0.09-43.15,0.03-64.73c0.11-18.98,0.64-37.96,0.64-56.95c0-19.46-0.51-38.93-0.64-58.39
		c-0.13-18.88,0.17-37.76-0.15-56.63c-0.27-15.63-1.06-31.25-1.83-46.87c-0.46-9.35-0.84-18.75-2.07-28.02
		c-2.2-16.63-5.06-33.05-13.58-48.08c-5.15-9.09-11.36-16.78-20.34-21.92c-8.56-4.9-17.32-9.57-27.42-10.68
		c-8.65-0.96-17.31-1.9-25.94-2.98c-2.17-0.27-4.28-1.49-6.42-1.49c-7.96,0.01-15.92,0.54-23.88,0.54
		c-241.85,0.03-483.69,0-725.54,0.05c-12.46,0-24.93,0.42-37.37,1.06c-7.72,0.4-15.63,0.65-23.04,2.59
		c-12.84,3.36-25.82,6.63-35.75,16.88c-4.57,4.72-9.8,8.55-12.39,14.97c-2.93,7.26-6.47,14.28-9.69,21.42
		c-0.31,0.69-0.28,1.54-0.4,2.31c-0.92,5.95-1.86,11.89-2.76,17.85c-1.65,11.01-3.96,21.97-4.74,33.04
		c-0.93,13.29-0.65,26.68-0.69,40.02c-0.02,5.27,0.73,10.54,0.72,15.81c-0.23,118.77-0.54,237.55-0.73,356.32
		c-0.02,12.93,0.68,25.87,1.01,38.8c0.07,2.66-0.31,5.36-0.01,7.99c1.91,16.52,3.5,33.1,6.09,49.52
		c3.13,19.82,10.1,37.66,26.52,51.06c9.31,7.6,20.01,11.53,30.98,13.84c12.38,2.6,25.34,2.44,38.05,3.48
		c4.1,0.34,8.23,0.47,12.3,1.06c4.63,0.68,7.45,7.33,6.91,14.18c-1.13,14.3-2.02,28.62-2.85,42.94c-0.49,8.43-0.65,16.89-1.05,25.33
		c-0.29,6.27-0.69,12.53-1.11,18.79c-0.89,13.16-1.89,26.31-2.72,39.48c-0.54,8.6-0.76,17.22-1.29,25.82
		C183.26,933.57,182.45,943.56,181.73,953.55z"/>
	<path class="st0" d="M181.73,953.55c0.73-9.99,1.53-19.98,2.15-29.99c0.53-8.6,0.75-17.22,1.29-25.82
		c0.83-13.16,1.83-26.32,2.72-39.48c0.42-6.26,0.82-12.52,1.11-18.79c0.4-8.44,0.55-16.89,1.05-25.33
		c0.84-14.32,1.72-28.64,2.85-42.94c0.54-6.85-2.27-13.5-6.91-14.18c-4.06-0.6-8.2-0.73-12.3-1.06
		c-12.71-1.04-25.67-0.88-38.05-3.48c-10.97-2.31-21.67-6.24-30.98-13.84c-16.42-13.4-23.4-31.24-26.52-51.06
		c-2.59-16.42-4.17-33-6.09-49.52c-0.3-2.63,0.08-5.33,0.01-7.99c-0.33-12.93-1.03-25.87-1.01-38.8
		c0.19-118.77,0.5-237.55,0.73-356.32c0.01-5.27-0.74-10.54-0.72-15.81c0.05-13.35-0.24-26.73,0.69-40.02
		c0.78-11.07,3.09-22.03,4.74-33.04c0.89-5.95,1.84-11.9,2.76-17.85c0.12-0.77,0.09-1.62,0.4-2.31c3.22-7.14,6.76-14.16,9.69-21.42
		c2.59-6.42,7.82-10.25,12.39-14.97c9.92-10.25,22.91-13.52,35.75-16.88c7.4-1.94,15.32-2.2,23.04-2.59
		c12.44-0.64,24.91-1.06,37.37-1.06c241.85-0.05,483.69-0.02,725.54-0.05c7.96,0,15.92-0.53,23.88-0.54c2.14,0,4.25,1.22,6.42,1.49
		c8.64,1.08,17.29,2.03,25.94,2.98c10.09,1.11,18.86,5.78,27.42,10.68c8.98,5.14,15.19,12.84,20.34,21.92
		c8.52,15.03,11.38,31.45,13.58,48.08c1.23,9.27,1.61,18.66,2.07,28.02c0.76,15.62,1.56,31.24,1.83,46.87
		c0.32,18.87,0.02,37.76,0.15,56.63c0.13,19.46,0.64,38.93,0.64,58.39c0,18.98-0.53,37.96-0.64,56.95
		c-0.12,21.57-0.03,43.15-0.03,64.73c0,21.24,0,42.48,0,63.73c0,14.86,0.12,29.73-0.03,44.59c-0.22,21.44-0.35,42.89-1.05,64.31
		c-0.66,20.18-2.42,40.38-7.44,59.94c-4.81,18.73-14.1,35.55-31.5,45.31c-8.95,5.02-19.62,8.84-29.78,9.57
		c-100.43,7.26-201.02,2.32-301.55,3.18c-102.5,0.88-205.01,0.15-307.51,0.27c-9.41,0.01-18.82,1.02-28.22,1.77
		c-9.96,0.8-16.79,7.15-22.19,14.5c-33.03,44.93-65.75,90.08-98.56,135.17c-10.48,14.4-20.88,28.86-31.33,43.28
		c-0.84,1.15-1.79,2.22-2.69,3.33C182.71,953.93,182.22,953.74,181.73,953.55z M970.25,412.14
		c-0.27-65.97-52.89-118.04-118.34-118.24c-65.04-0.2-122.24,52.61-118.49,126.09c2.8,54.95,48.57,113.21,123.57,110.64
		C919.3,528.49,969.93,477.88,970.25,412.14z M146.92,411.68c-0.97,61.69,49.85,122.21,125.02,119.08
		C324,528.59,389.19,484.33,383,400.98c-4.16-55.99-51.07-106.41-117.21-107.04C200.21,293.31,147.01,346.75,146.92,411.68z
		 M440.01,412.04c0.65,67.24,52.35,114.73,110.95,118.7c33.95,2.3,64.21-8.84,88.93-32.48c28.08-26.85,39.93-60.12,36.27-98.87
		c-5.19-54.95-52.01-105.17-117.36-105.46C493.28,293.63,440.37,346.6,440.01,412.04z"/>
	<path class="st1" d="M970.25,412.14c-0.32,65.74-50.95,116.35-113.26,118.49c-75,2.57-120.77-55.69-123.57-110.64
		c-3.75-73.49,53.45-126.29,118.49-126.09C917.36,294.1,969.98,346.17,970.25,412.14z M925.1,411.7
		c1.07-38.66-31.42-70.72-68.94-72.92c-42.28-2.48-79.28,31.77-78.09,76.27c0.93,34.52,30.58,72.52,76.81,70.87
		C891.89,484.59,926.05,454.06,925.1,411.7z"/>
	<path class="st1" d="M146.92,411.68c0.1-64.93,53.29-118.37,118.86-117.74c66.14,0.63,113.05,51.05,117.21,107.04
		c6.19,83.35-59,127.61-111.06,129.78C196.77,533.89,145.95,473.38,146.92,411.68z M265.58,338.96
		c-40.27-0.87-73.95,31.07-74.13,72.92c-0.18,40.27,30.32,72.81,72.43,74.02c20.9,0.6,38.9-7.01,53.73-21.81
		c16.98-16.94,22.65-37.74,20.57-61.13C335.25,369.84,304.27,337.92,265.58,338.96z"/>
	<path class="st1" d="M440.01,412.04c0.36-65.44,53.27-118.4,118.79-118.11c65.36,0.29,112.17,50.51,117.36,105.46
		c3.66,38.75-8.19,72.02-36.27,98.87c-24.72,23.64-54.98,34.78-88.93,32.48C492.36,526.77,440.67,479.27,440.01,412.04z
		 M558.23,485.93c39.72,0.18,73.44-31.23,73.97-73.46c0.45-36.53-29.28-74.85-77.07-73.74c-37.39,0.86-69.72,33.81-70.16,72.92
		C484.52,451.88,517.49,485.96,558.23,485.93z"/>
	<path class="st0" d="M925.1,411.7c0.95,42.36-33.21,72.89-70.22,74.21c-46.23,1.65-75.89-36.35-76.81-70.87
		c-1.19-44.5,35.81-78.74,78.09-76.27C893.68,340.98,926.17,373.04,925.1,411.7z"/>
	<path class="st0" d="M265.58,338.96c38.69-1.04,69.66,30.89,72.6,64c2.08,23.39-3.59,44.19-20.57,61.13
		c-14.83,14.8-32.83,22.4-53.73,21.81c-42.12-1.2-72.61-33.75-72.43-74.02C191.64,370.02,225.31,338.09,265.58,338.96z"/>
	<path class="st0" d="M558.23,485.93c-40.74,0.03-73.71-34.05-73.26-74.29c0.44-39.11,32.77-72.06,70.16-72.92
		c47.79-1.1,77.52,37.21,77.07,73.74C631.68,454.7,597.96,486.11,558.23,485.93z"/>
</g>
</svg>
