<?xml version="1.0" encoding="utf-8"?>
<!-- Generator: Adobe Illustrator 27.3.1, SVG Export Plug-In . SVG Version: 6.00 Build 0)  -->
<svg version="1.1" id="Layer_1" xmlns="http://www.w3.org/2000/svg" xmlns:xlink="http://www.w3.org/1999/xlink" x="0px" y="0px"
	 viewBox="0 0 1115 1080" style="enable-background:new 0 0 1115 1080;" xml:space="preserve">
<style type="text/css">
	.st0{display:none;fill:#FAF9F8;}
	.st1{fill:#636363;}
</style>
<g>
	<path class="st0" d="M1115,1080c-371.67,0-743.33,0-1115,0C0,720,0,360,0,0c371.67,0,743.33,0,1115,0C1115,360,1115,720,1115,1080z
		 M133.39,944.82c0.13,0,0.26,0,0.39,0c0,35.83-0.07,71.66,0.04,107.49c0.05,14.93,0.42,11.92,13.45,12.88
		c7.72,0.57,12.83-2.35,17.52-8.01c9.57-11.53,19.62-22.68,29.34-34.09c53.69-63.03,107.23-126.18,161.13-189.03
		c6.49-7.57,13.72-15.23,24.46-17.13c5-0.89,10.09-1.68,15.16-1.79c12.66-0.29,25.33-0.18,38-0.2
		c161.92-0.29,323.84-0.56,485.76-0.9c10.28-0.02,20.56-0.73,30.85-0.88c21.12-0.31,42.05-2.08,62.86-5.99
		c12.49-2.35,24.28-7.02,34.52-13.67c18.42-11.97,28.61-30.93,34.86-51.34c6.97-22.75,10.26-46.4,12.21-70.12
		c1.72-20.93,2.87-41.91,3.99-62.88c0.65-12.09,0.83-24.2,1.06-36.31c0.41-20.94,0.82-41.87,0.99-62.81
		c0.18-21.51-0.12-43.03,0.19-64.54c0.14-10.02-1.54-19.89-0.39-30.07c1.33-11.7-0.1-23.68,0.43-35.5
		c0.39-8.71-1.32-17.18-0.54-26.07c2.05-23.51-0.73-47.15-0.41-70.76c0.22-15.81-0.77-31.64-1.27-47.45
		c-0.26-8.28-0.51-16.57-1.04-24.83c-0.25-3.85-1.53-7.65-1.68-11.49c-0.14-3.55,1.16-7.18,0.87-10.7
		c-1.15-14.09-3.1-28.12-3.95-42.22c-0.81-13.51-1.33-26.98-6.15-39.83c-0.51-1.36-1.25-2.67-1.56-4.08
		c-1.79-8.04-2.33-16.59-5.48-24.04c-5.34-12.63-10.01-25.71-21.1-35.36c-7.7-6.7-15.12-13.2-24.97-16.37
		c-4.84-1.56-9.53-3.69-14.45-4.86c-9.25-2.21-18.54-4.82-27.96-5.64c-18.77-1.62-37.62-2.37-56.46-3.06
		c-16.13-0.59-32.28-0.92-48.41-0.84c-246.37,1.17-492.76-3.7-739.11,2.81c-11.22,0.3-22.48,1.38-33.59,3.01
		c-21.7,3.17-41.49,10.13-57.54,26.57C43.86,56.47,37.86,70.91,33.3,85.69c-5.29,17.14-9.44,34.81-10.53,52.99
		c-0.74,12.45-2.64,24.83-3.57,37.28c-0.56,7.39,0.04,14.86-0.42,22.26c-0.67,10.84-2.17,21.63-2.69,32.47
		c-0.65,13.6-0.32,27.22-0.87,40.84c-0.86,21.31-0.25,42.67-0.27,64.01c-0.02,25.01-0.04,50.03-0.05,75.04
		c-0.01,16.85-0.1,33.7,0.03,50.54c0.26,33.94,0.48,67.89,1.04,101.83c0.35,21.39,1.21,42.78,2.02,64.17
		c0.46,12.05,0.76,24.15,2.08,36.13c2.26,20.5,4.63,41.03,8.11,61.35c4.12,24.04,11.4,46.92,29.19,65.1
		c7.43,7.59,16.45,12.41,25.93,16.2c12.47,4.98,25.83,6.73,39.15,8.19c4.29,0.47,8.95,4.56,9.39,8.35
		c0.66,5.61,1.45,11.25,1.47,16.88C133.46,874.49,133.39,909.65,133.39,944.82z"/>
	<path class="st1" d="M133.39,944.82c0-35.16,0.07-70.33-0.07-105.49c-0.02-5.63-0.82-11.27-1.47-16.88
		c-0.44-3.8-5.1-7.88-9.39-8.35c-13.33-1.46-26.68-3.21-39.15-8.19c-9.48-3.79-18.5-8.61-25.93-16.2
		c-17.79-18.18-25.06-41.06-29.19-65.1c-3.49-20.32-5.85-40.85-8.11-61.35c-1.32-11.97-1.62-24.07-2.08-36.13
		c-0.82-21.38-1.67-42.77-2.02-64.17c-0.56-33.94-0.78-67.88-1.04-101.83c-0.13-16.85-0.04-33.7-0.03-50.54
		c0.01-25.01,0.03-50.03,0.05-75.04c0.02-21.34-0.59-42.71,0.27-64.01c0.55-13.63,0.22-27.25,0.87-40.84
		c0.52-10.84,2.02-21.63,2.69-32.47c0.46-7.4-0.14-14.87,0.42-22.26c0.94-12.45,2.83-24.83,3.57-37.28
		c1.09-18.18,5.24-35.85,10.53-52.99c4.56-14.78,10.56-29.22,22.1-41.03c16.06-16.44,35.84-23.39,57.54-26.57
		c11.11-1.62,22.37-2.71,33.59-3.01c246.35-6.51,492.74-1.64,739.11-2.81c16.14-0.08,32.29,0.25,48.41,0.84
		c18.83,0.69,37.69,1.43,56.46,3.06c9.42,0.82,18.71,3.43,27.96,5.64c4.92,1.18,9.61,3.3,14.45,4.86
		c9.85,3.18,17.28,9.68,24.97,16.37c11.09,9.65,15.76,22.73,21.1,35.36c3.15,7.45,3.69,16,5.48,24.04c0.31,1.41,1.05,2.71,1.56,4.08
		c4.82,12.85,5.34,26.32,6.15,39.83c0.84,14.1,2.79,28.13,3.95,42.22c0.29,3.52-1.01,7.15-0.87,10.7c0.15,3.85,1.43,7.64,1.68,11.49
		c0.54,8.27,0.78,16.55,1.04,24.83c0.5,15.82,1.49,31.64,1.27,47.45c-0.32,23.61,2.46,47.25,0.41,70.76
		c-0.77,8.89,0.93,17.36,0.54,26.07c-0.53,11.82,0.9,23.81-0.43,35.5c-1.16,10.18,0.53,20.05,0.39,30.07
		c-0.31,21.51-0.01,43.03-0.19,64.54c-0.18,20.94-0.59,41.88-0.99,62.81c-0.24,12.11-0.42,24.22-1.06,36.31
		c-1.12,20.97-2.27,41.95-3.99,62.88c-1.95,23.72-5.24,47.37-12.21,70.12c-6.25,20.41-16.45,39.38-34.86,51.34
		c-10.25,6.66-22.03,11.32-34.52,13.67c-20.8,3.91-41.74,5.69-62.86,5.99c-10.29,0.15-20.57,0.85-30.85,0.88
		c-161.92,0.34-323.84,0.61-485.76,0.9c-12.67,0.02-25.34-0.08-38,0.2c-5.07,0.12-10.15,0.9-15.16,1.79
		c-10.74,1.91-17.97,9.57-24.46,17.13c-53.9,62.85-107.44,126-161.13,189.03c-9.72,11.41-19.77,22.56-29.34,34.09
		c-4.7,5.66-9.81,8.57-17.52,8.01c-13.03-0.96-13.41,2.05-13.45-12.88c-0.11-35.83-0.04-71.66-0.04-107.49
		C133.65,944.82,133.52,944.82,133.39,944.82z M181.94,953.67c0.38,0.14,0.76,0.27,1.14,0.41c0.9-1.05,1.87-2.05,2.68-3.17
		c11.34-15.63,22.62-31.3,33.98-46.92c31.92-43.89,63.75-87.85,95.91-131.56c5.29-7.19,11.93-13.65,21.72-14.48
		c9.72-0.83,19.47-1.86,29.2-1.86c166.98-0.11,333.96,0.06,500.93-0.19c35.7-0.05,71.57,2.69,107.06-3.14
		c10.35-1.7,21.15-4.53,30.19-9.61c17.53-9.85,26.85-26.8,31.73-45.75c5.02-19.45,6.44-39.53,7.3-59.54
		c0.84-19.42,0.97-38.88,1.06-58.32c0.16-31.51,0.04-63.02,0.04-94.53c0-21.51,0-43.03,0-64.54c0-21.35,0-42.69,0-64.04
		c0-22.85,0.01-45.69,0-68.54c-0.01-19.35,0.08-38.69-0.09-58.04c-0.16-17.74-0.35-35.48-1.04-53.2c-0.32-8.28-1.38-16.6-2.94-24.75
		c-2.38-12.43-2.91-25.34-9.06-36.89c-3.1-5.82-4.76-12.71-8.86-17.61c-10.77-12.87-26.85-21.65-43.68-24.4
		c-10.22-1.67-20.64-2.2-30.99-2.93c-8.26-0.58-16.55-0.96-24.83-0.96c-168.31-0.06-336.62-0.58-504.93,0.15
		c-91.5,0.4-183.07-3.79-274.47,2.95c-14,1.03-27.04,6-38.98,14.56c-13.76,9.86-20.38,24.09-24.39,38.83
		c-6.56,24.13-8.55,49.2-8.61,74.31c-0.31,129.93-0.69,259.85-0.97,389.78c-0.02,9.11,0.68,18.21,0.96,27.32
		c0.38,12.77,0.12,25.59,1.16,38.3c0.92,11.19,2.9,22.33,5.02,33.37c3.77,19.54,10.5,37.37,27.04,50.44
		c9.26,7.32,19.81,11.43,30.65,13.39c15.72,2.84,31.89,3.19,47.88,4.45c5.56,0.44,8.23,2.28,8.21,7.75
		c-0.03,10.48-0.5,20.96-1,31.43c-0.87,18.32-1.81,36.64-2.91,54.94c-0.86,14.32-2.13,28.62-3.02,42.94
		c-0.53,8.59-0.6,17.21-1.03,25.81c-0.36,7.26-0.96,14.5-1.42,21.75C182.34,945.61,182.16,949.64,181.94,953.67z"/>
	<path class="st0" d="M181.94,953.67c0.22-4.03,0.4-8.06,0.65-12.09c0.46-7.25,1.06-14.49,1.42-21.75c0.43-8.6,0.5-17.22,1.03-25.81
		c0.89-14.32,2.16-28.62,3.02-42.94c1.11-18.31,2.04-36.62,2.91-54.94c0.5-10.47,0.96-20.95,1-31.43c0.02-5.47-2.65-7.31-8.21-7.75
		c-15.99-1.26-32.16-1.62-47.88-4.45c-10.84-1.96-21.39-6.07-30.65-13.39c-16.54-13.07-23.27-30.9-27.04-50.44
		c-2.13-11.04-4.11-22.18-5.02-33.37c-1.04-12.71-0.78-25.53-1.16-38.3c-0.27-9.11-0.98-18.22-0.96-27.32
		c0.27-129.93,0.66-259.85,0.97-389.78c0.06-25.11,2.05-50.18,8.61-74.31c4.01-14.74,10.63-28.97,24.39-38.83
		C116.96,78.2,130,73.23,144,72.2c91.41-6.74,182.98-2.55,274.47-2.95c168.31-0.73,336.62-0.21,504.93-0.15
		c8.28,0,16.57,0.38,24.83,0.96c10.35,0.73,20.77,1.26,30.99,2.93c16.83,2.75,32.91,11.53,43.68,24.4c4.1,4.91,5.76,11.8,8.86,17.61
		c6.15,11.55,6.68,24.46,9.06,36.89c1.56,8.14,2.62,16.47,2.94,24.75c0.69,17.72,0.88,35.47,1.04,53.2
		c0.17,19.35,0.08,38.69,0.09,58.04c0.01,22.85,0,45.69,0,68.54c0,21.35,0,42.69,0,64.04c0,21.51,0,43.03,0,64.54
		c0,31.51,0.12,63.02-0.04,94.53c-0.1,19.44-0.23,38.9-1.06,58.32c-0.86,20.01-2.29,40.09-7.3,59.54
		c-4.89,18.95-14.2,35.9-31.73,45.75c-9.04,5.08-19.83,7.91-30.19,9.61c-35.48,5.83-71.35,3.08-107.06,3.14
		c-166.98,0.24-333.96,0.08-500.93,0.19c-9.74,0.01-19.48,1.03-29.2,1.86c-9.8,0.84-16.43,7.29-21.72,14.48
		c-32.16,43.71-63.99,87.67-95.91,131.56c-11.36,15.62-22.64,31.29-33.98,46.92c-0.81,1.12-1.78,2.12-2.68,3.17
		C182.7,953.94,182.32,953.81,181.94,953.67z M439.96,411.99c-0.17,33.86,14.81,65.89,37.82,87c25.11,23.04,55.04,34.06,88.81,31.73
		c30.1-2.07,56.49-14.23,77.45-36.47c25.2-26.75,35.53-58.66,32.09-95.21c-5.04-53.53-51.72-104.91-117.28-105.13
		C493.23,293.68,440.36,346.63,439.96,411.99z M970.17,412.62c0.39-64.51-51.71-118.25-117.85-118.76
		c-63.02-0.48-121.77,50.43-119.01,124.04c2.2,58.79,50.38,116.57,126.06,112.68C920.04,527.46,969.51,477.99,970.17,412.62z
		 M146.89,412.37c-0.51,61.76,50.22,122.07,126.02,118.37c51.97-2.54,115.79-46.57,110.14-129.34
		c-3.82-55.88-51.82-107.49-117.98-107.46C198.85,293.97,146.71,347.81,146.89,412.37z"/>
	<path class="st1" d="M439.96,411.99c0.4-65.36,53.27-118.31,118.88-118.09c65.56,0.22,112.25,51.6,117.28,105.13
		c3.44,36.55-6.89,68.47-32.09,95.21c-20.96,22.24-47.34,34.4-77.45,36.47c-33.78,2.33-63.71-8.69-88.81-31.73
		C454.77,477.88,439.8,445.85,439.96,411.99z M558.75,338.77c-40.31-0.22-73.45,32.29-73.74,72.34
		c-0.3,41.28,32.21,74.67,72.87,74.84c41.13,0.18,74.03-32.42,74.17-73.5C632.2,371.06,598.64,338.64,558.75,338.77z"/>
	<path class="st1" d="M970.17,412.62c-0.66,65.38-50.13,114.84-110.8,117.96c-75.68,3.9-123.85-53.89-126.06-112.68
		c-2.76-73.61,55.98-124.52,119.01-124.04C918.46,294.36,970.56,348.11,970.17,412.62z M925,412.36
		c1.49-37.92-30.6-73.58-73.51-73.63c-39.23-0.05-75.55,32.21-73.3,77.74c1.88,38.03,33.64,71.22,77.08,69.42
		C896.44,484.19,926.4,448.97,925,412.36z"/>
	<path class="st1" d="M146.89,412.37c-0.18-64.56,51.96-118.4,118.18-118.44c66.16-0.03,114.16,51.58,117.98,107.46
		c5.65,82.78-58.17,126.81-110.14,129.34C197.11,534.44,146.38,474.13,146.89,412.37z M191.77,412.41
		c-0.3,39.58,32.41,74.6,75.54,73.51c19.59-0.49,36.46-7.96,50.36-21.91c16.83-16.9,22.45-37.55,20.45-60.78
		c-2.74-31.89-31.7-64.58-72.94-64.48C224.38,338.86,191.65,371.67,191.77,412.41z"/>
	<path class="st0" d="M558.75,338.77c39.89-0.13,73.44,32.28,73.3,73.67c-0.14,41.09-33.05,73.68-74.17,73.5
		c-40.66-0.18-73.17-33.56-72.87-74.84C485.3,371.07,518.44,338.56,558.75,338.77z"/>
	<path class="st0" d="M925,412.36c1.4,36.6-28.56,71.82-69.73,73.52c-43.44,1.79-75.2-31.39-77.08-69.42
		c-2.25-45.53,34.07-77.78,73.3-77.74C894.39,338.78,926.49,374.44,925,412.36z"/>
	<path class="st0" d="M191.77,412.41c-0.12-40.75,32.6-73.55,73.4-73.65c41.24-0.11,70.2,32.59,72.94,64.48
		c2,23.23-3.62,43.88-20.45,60.78c-13.9,13.95-30.77,21.42-50.36,21.91C224.18,487.02,191.47,451.99,191.77,412.41z"/>
</g>
</svg>
