<?xml version="1.0" encoding="utf-8"?>
<!-- Generator: Adobe Illustrator 26.0.1, SVG Export Plug-In . SVG Version: 6.00 Build 0)  -->
<svg version="1.1" id="Layer_1" xmlns="http://www.w3.org/2000/svg" xmlns:xlink="http://www.w3.org/1999/xlink" x="0px" y="0px"
	 viewBox="0 0 612 792" style="enable-background:new 0 0 612 792;" xml:space="preserve">
<style type="text/css">
	.st0{display:none;fill:#CDCDCD;}
	.st1{fill:#FEFEFE;}
	.st2{fill:#CA1B16;}
	.st3{fill:#CA2520;}
	.st4{fill:#CA231E;}
	.st5{fill:#CA241F;}
	.st6{fill:#CA211D;}
	.st7{fill:#CA1712;}
	.st8{fill:#CA2925;}
	.st9{fill:#CA1F1A;}
	.st10{fill:#CA2420;}
	.st11{fill:#CA1611;}
</style>
<g>
	<path class="st0" d="M610.8,698c-203.6,0-407.2,0-610.8,0c0-197.6,0-395.2,0-592.8c200.6,0,401.3,0,601.9,0c8.9,0,8.9,0,8.9,8.9
		C610.8,308.7,610.8,503.4,610.8,698z M555.6,470c-3.7,0-7.2,0-11.7,0c5.4,4.5,13.8,6.3,15.8,4c2.1-2.3,2.2-10.7-0.3-14
		C558.1,463.5,557,466.5,555.6,470z M367,344.1c-0.1,0.7-0.2,1.3-0.2,2c4.4,4,6.9,4.2,11.6-0.4C373.9,345,370.4,344.5,367,344.1z
		 M171.6,348.1c4.5,4.2,7.9,3.6,11.9-1.7C178.7,347.1,175.2,347.6,171.6,348.1z M137.9,361.3c0.3,1.2,0.6,2.4,0.9,3.5
		c3.3-0.9,6.7-1.9,10-2.8c-0.3-1.1-0.6-2.2-0.8-3.2C144.6,359.6,141.2,360.4,137.9,361.3z M337.2,341.7c0.2-1.2,0.5-2.4,0.7-3.6
		c-3.4-0.6-6.9-1.2-10.3-1.7c-0.2,1.1-0.4,2.2-0.6,3.3C330.4,340.3,333.8,341,337.2,341.7z M287.5,333.9c-0.1,1-0.2,2.1-0.3,3.1
		c3.4,0,6.9,0,10.3,0c0-0.8,0.1-1.6,0.1-2.4C294.3,334.3,290.9,334.1,287.5,333.9z M218.9,341.2c-0.2-0.8-0.3-1.6-0.5-2.4
		c-3.7-1.6-6.9-1.2-9.5,2.3c0.1,0.7,0.3,1.4,0.4,2.2C212.5,342.5,215.7,341.9,218.9,341.2z M448.9,376.8c0.3-0.7,0.7-1.5,1-2.2
		c-2.1-3.4-4.9-5.1-8.8-3.8c-0.3,0.7-0.6,1.4-0.9,2C443.1,374.1,446,375.4,448.9,376.8z M510.5,415.7c0.3-0.7,0.6-1.4,1-2.1
		c-2.3-3.3-4.8-6.1-11.3-2.9C504.5,412.7,507.5,414.2,510.5,415.7z M405.2,355.3c-0.2,0.7-0.3,1.4-0.5,2.1c4.4,4.3,6,4.7,11.2,0.8
		C411.6,357,408.4,356.1,405.2,355.3z M247.6,335.1c0.1,1.1,0.2,2.2,0.3,3.3c3.3-0.3,6.5-0.6,9.8-0.9c-0.1-1.1-0.2-2.2-0.3-3.4
		C254.2,334.5,250.9,334.8,247.6,335.1z"/>
	<path class="st1" d="M610.8,698c0-194.6,0-389.3,0-583.9c0-8.9,0-8.9-8.9-8.9c-200.6,0-401.3,0-601.9,0c1.4-0.4,2.8-1.1,4.1-1.1
		c22.1-0.1,44.3-0.1,66.4-0.1c180.4,0,360.8,0,541.5,0c0,3.1,0,6.1,0,9.2c0,193.2,0,386.3,0,579.5C612,694.4,611.2,696.2,610.8,698z
		"/>
	<path class="st2" d="M555.6,470c1.4-3.6,2.5-6.6,3.8-10c2.6,3.3,2.4,11.8,0.3,14c-2,2.2-10.4,0.4-15.8-4
		C548.5,470,551.9,470,555.6,470z"/>
	<path class="st3" d="M367,344.1c3.4,0.5,6.9,0.9,11.3,1.5c-4.7,4.6-7.1,4.4-11.6,0.4C366.8,345.4,366.9,344.7,367,344.1z"/>
	<path class="st4" d="M171.6,348.1c3.5-0.5,7.1-1,11.9-1.7C179.5,351.7,176.1,352.3,171.6,348.1z"/>
	<path class="st5" d="M137.9,361.3c3.3-0.8,6.7-1.7,10-2.5c0.3,1.1,0.6,2.2,0.8,3.2c-3.3,0.9-6.7,1.9-10,2.8
		C138.4,363.6,138.2,362.4,137.9,361.3z"/>
	<path class="st6" d="M337.2,341.7c-3.4-0.7-6.8-1.3-10.2-2c0.2-1.1,0.4-2.2,0.6-3.3c3.4,0.6,6.9,1.2,10.3,1.7
		C337.7,339.3,337.4,340.5,337.2,341.7z"/>
	<path class="st7" d="M287.5,333.9c3.4,0.2,6.8,0.5,10.1,0.7c0,0.8-0.1,1.6-0.1,2.4c-3.4,0-6.9,0-10.3,0
		C287.4,335.9,287.4,334.9,287.5,333.9z"/>
	<path class="st8" d="M218.9,341.2c-3.2,0.7-6.4,1.4-9.6,2c-0.1-0.7-0.3-1.4-0.4-2.2c2.6-3.5,5.9-3.9,9.5-2.3
		C218.5,339.6,218.7,340.4,218.9,341.2z"/>
	<path class="st9" d="M448.9,376.8c-2.9-1.3-5.8-2.7-8.7-4c0.3-0.7,0.6-1.4,0.9-2c3.9-1.3,6.7,0.4,8.8,3.8
		C449.5,375.3,449.2,376,448.9,376.8z"/>
	<path class="st10" d="M510.5,415.7c-3-1.5-6-3-10.3-5.1c6.5-3.2,8.9-0.3,11.3,2.9C511.1,414.2,510.8,415,510.5,415.7z"/>
	<path class="st4" d="M405.2,355.3c3.2,0.9,6.4,1.7,10.7,2.9c-5.1,3.8-6.8,3.5-11.2-0.8C404.9,356.6,405.1,355.9,405.2,355.3z"/>
	<path class="st11" d="M247.6,335.1c3.3-0.3,6.5-0.6,9.8-0.9c0.1,1.1,0.2,2.2,0.3,3.4c-3.3,0.3-6.5,0.6-9.8,0.9
		C247.8,337.3,247.7,336.2,247.6,335.1z"/>
</g>
</svg>
