<?xml version="1.0" encoding="utf-8"?>
<!-- Generator: Adobe Illustrator 26.0.1, SVG Export Plug-In . SVG Version: 6.00 Build 0)  -->
<svg version="1.1" id="Layer_1" xmlns="http://www.w3.org/2000/svg" xmlns:xlink="http://www.w3.org/1999/xlink" x="0px" y="0px"
	 viewBox="0 0 612 792" style="enable-background:new 0 0 612 792;" xml:space="preserve">
<style type="text/css">
	.st0{display:none;fill:#CDCDCD;}
	.st1{fill:#FEFEFE;}
	.st2{fill:#5B486E;}
	.st3{fill:#5C496F;}
	.st4{fill:#57446B;}
	.st5{fill:#5A476D;}
	.st6{fill:#5C496E;}
	.st7{fill:#514063;}
	.st8{fill:#554368;}
	.st9{fill:#4D3C60;}
	.st10{fill:#48375B;}
	.st11{fill:#544267;}
	.st12{fill:#574469;}
	.st13{fill:#3A2B4B;}
	.st14{display:none;fill:#CAC9CA;}
	.st15{display:none;fill:#CCCCCC;}
	.st16{display:none;fill:#C9C9C9;}
	.st17{display:none;fill:#CACACA;}
	.st18{fill:#58476A;}
	.st19{display:none;fill:#C6C6C7;}
	.st20{display:none;fill:#C8C8C9;}
	.st21{fill:#5A486D;}
</style>
<g>
	<path class="st0" d="M2.2,91C205,91,407.9,91,611,91c0,202.9,0,405.9,0,608.8c-199.9,0-399.7,0-599.6,0c-9.2,0-9.2,0-9.2-9.2
		C2.2,490.7,2.2,290.9,2.2,91z M38.8,563.8c-7.9-0.1-15.8-0.3-23.7-0.2c-1.4,0-2.8,1.5-4.2,2.3c0,0.8,0,1.6,0,2.3
		c-0.4,4.9-0.8,9.7-1.1,14.6c-0.4,8.7-0.4,8.7,8.3,8.8c99.8,0,199.7,0,299.5,0c22.3,0,44.6-0.3,66.9-0.4c5.3-0.4,10.6-0.8,15.8-1.2
		c4.2-2.7,8.4-5.3,12.6-8c1.8-1.6,3.7-3.2,5.5-4.7c-3.5,12.7-2.8,25.3,2.2,37.5c3.4,8.1,7.6,8.8,13.6,2.7c1.7-1.7,3.3-3.6,5.2-5.1
		c33.8-27.4,68.9-52.7,107.7-72.5c14.6-7.4,29.5-14.3,44.3-21.4c6.3-3,7.5-6.3,3.5-11.8c-2.4-3.2-5.3-6.2-8.5-8.6
		c-20.9-15.6-44.4-18.3-69.3-12.9c-3.6,0.8-7.3,1.1-11,1.7c2.1-2.3,4.2-4.7,6.3-7c5.4-6.4,2.6-13.1,0.8-19.8
		c-3.9-8.8-7.5-17.8-11.9-26.4c-12-23.4-24.3-46.6-36.5-69.8c-5.7-10.6-11.3-21.1-17-31.7c0.3-3.6,0.7-7.3,1-10.9
		c3.2,1,6.4,2.1,9.6,3.1c4.2,1.4,8.3,3.2,12.6,4.3c13.1,3.5,20.5-2.2,20.6-15.4c0-18.4,0-36.9,0-55.3c0-12.6-6.6-18.7-19-15.6
		c-12.5,3.1-25.1,6.9-33.9,17.6c-0.6,0.8-2,0.9-3,1.3c-1.3-3.9-2.5-7.9-3.8-11.8c-1.4-4-2.5-8-4.1-11.8c-3.8-8.7-9.4-15.9-19-18.7
		c-1.1-0.5-2.2-0.9-3.4-1.4c-2.6-5.2-4.9-10.4-7.7-15.4c-8.3-14.5-23.1-15.3-32.8-1.9c-10.2,14.2-10.2,41.1,0,55.3
		c9.4,13.1,23.3,12.8,32.1-0.7c1.8-2.8,3.8-5.5,5.7-8.2c0.6,0.7,1.3,1.3,1.9,2c1.3,2.5,2.6,4.9,3.9,7.4c0.7,2.7,1.4,5.4,2.2,8
		c-2.8,1.1-5.7,1.9-8.4,3.4c-7.2,3.9-14.4,6.4-22.9,4.1c-6.7-1.7-13.7-2.2-20.6-3.3c-17.2-4.2-33.2-11.2-48-21
		c-1.9-1.3-3.4-3.2-5.1-4.9c0.2-2.5,0.4-4.9,0.5-7.4c1.1-4.5,4-5.4,8.3-4.6c4,0.7,8,1,12,1.1c4,0.1,6-2.1,5.6-6.2
		c-0.4-4.6-1.3-9.2-1.4-13.9c0-1.9,0.9-5,2.3-5.7c6.1-3,5.6-7.8,4.4-13c-1.4-6.3-3-12.5-4.6-19.3c6-1.5,11.8-2.8,17.9-4.3
		c-3.6-7.7-7-15.3-15.2-14.3c-10.3,1.2-16.2-3.4-21.6-10.6c-1.2-1.6-2.8-2.9-4.3-4.3c-20.2-19.4-50.3-19-68.4,1
		c-18,19.9-15.2,49.9,6.3,68c1.3,1.1,2.3,2.7,3.4,4.1c-0.1,4.1-0.3,8.1-0.4,12.2c-5.8,0.5-10.3,3-13.8,7.8
		c-5.9,8.1-11.1,16.8-12.1,26.9c-2.3,23-4.7,46-5.7,69c-0.9,22.3-0.1,44.7,10.3,65.3c-7.2-0.1-14.3-0.2-21.5-0.2
		c-0.1-12-0.1-23.9-0.2-35.9c-0.2-31.2,0-62.4-0.6-93.6C207,251,203.5,248.1,190,248c-37.9-0.2-75.8-0.2-113.7-0.1
		c-13.6,0.1-17.9,3.8-18.3,17.1c-0.7,26.1-0.7,52.3-0.8,78.4c-0.1,17.2,0,34.5,0.3,51.7c0.2,10.8,3.2,13.5,13.8,13.9
		c5.1,0.2,10.1,0.6,15.2,0.9c0,3.7,0.1,7.3,0.1,11c0.6,5.4,0.9,10.9,2,16.2c1.5,7.1,5.9,12,13.3,13.4c6,1.1,12,1.4,18,2.5
		c2,0.4,3.7,2.1,5.5,3.2c0,0.4-0.1,0.8-0.1,1.2c-2,3.2-3.9,6.5-5.9,9.7c-2.7,1.7-5.4,3.6-8.2,5c-20,10.3-36.8,24.4-49.6,43
		c-10.1,14.7-16,31.4-21.7,48.1C39.5,563.4,39.1,563.6,38.8,563.8z M534.1,586.6c0.2,1.6,0.5,3.2,0.6,4.8c0.2,5.9-3,10.6-8.7,12.5
		c-5.3,1.8-12.1,0.1-14.2-5.2c-3.3-8.3-9.6-8.9-16.8-8.7c-7,0.2-9.7,3.5-8,10.3c3.6,14.2,12.7,23.4,26.9,26.8
		c14.3,3.4,26.8-0.9,36-12.1c9-11,11.2-23.5,5.1-36.9c-4.6-11.6-13.3-18.4-25.2-20.9c-2.4-0.5-6.4,0.7-7.9,2.6
		c-4.1,5.2-0.2,17.4,5.7,20.9C530.1,582,532,584.5,534.1,586.6z M602.7,587.5c0.3-13.8-3.6-27.9-11.5-40.9c-4-6.7-9.5-9.9-14-8.5
		c-5.4,1.6-10.2,9.1-10,16c0.1,2.6,0.6,5.2,1.4,7.7c1.2,3.9,3.1,7.5,4.2,11.4c6.8,22.5,2.3,42.5-15.1,58.2
		c-17.2,15.6-37.8,18.7-58.8,8.9c-8.5-3.9-15.4-11.5-22.6-17.9c-4.6-4.1-8.8-8.4-15.4-8.9c-11.2-0.8-16.4,6.2-12.2,16.3
		c1.1,2.6,2.5,5.1,4,7.4c19.6,28.7,58.2,41.2,92.9,30.2C579.4,656.8,602.9,624.4,602.7,587.5z M143,674.2
		c27.5-0.2,47.7-7.4,64.9-21.7c7.6-6.3,14.2-14.4,19.9-22.6c4.3-6.3,1.6-11.2-5.8-13.3c-11.2-3.2-21.9-2.8-31.5,8.7
		c-23.2,28-64.1,27.3-86.7-1c-6.7-8.3-14.8-10.5-24.7-9.1c-14.3,2.1-17.5,9.1-8.4,20.6C90.3,660.7,116.2,673.4,143,674.2z
		 M147.2,628c11.8-0.4,22.7-3.2,31.8-10.8c5.6-4.6,5.1-8.8-1.3-12.3c-6-3.4-12.2-4.1-18.6-0.7c-7.7,4.1-15.6,4.1-23.3-0.1
		c-5.9-3.2-11.7-2.5-17.5,0.4c-7.5,3.7-8.1,8-1.6,13.2C125.7,624.8,136.2,627.5,147.2,628z"/>
	<path class="st1" d="M2.2,91c0,199.9,0,399.7,0,599.6c0,9.2,0,9.2,9.2,9.2c199.9,0,399.7,0,599.6,0c-1.6,0.4-3.2,1.2-4.9,1.2
		c-28.8,0.1-57.6,0.1-86.4,0.1c-172.9,0-345.8,0-518.7,0C1,499.5,1,298,1.1,96.5C1.1,94.7,1.8,92.8,2.2,91z"/>
	<path class="st2" d="M384.5,591.1c-22.3,0.2-44.6,0.4-66.9,0.4c-99.8,0-199.7,0-299.5,0c-8.7,0-8.8,0-8.3-8.8
		c0.2-4.9,0.7-9.7,1.1-14.6c9.3,0,18.6,0.2,27.9,0c10.2-0.1,10.2-0.2,11,9.8c0,0.2,0.4,0.3,1.2,0.9c0-1.8,0-3.2,0-4.6
		c0.3-11.3,0.3-11.3-11.2-11.1c5.7-16.7,11.6-33.4,21.7-48.1c12.8-18.6,29.5-32.7,49.6-43c2.9-1.5,5.5-3.3,8.2-5
		c3.6-1.2,7.1-2.4,10.7-3.6c8.1-1.2,16.2-2.4,24.3-3.7c11.3,0.4,22.7-0.1,33.9,1.4c24.5,3.2,44.9,13.7,57.3,36.2
		c8.1,14.6,12,30.4,12.6,47.1c0.2,6.6,0,13.2,0,20.3c4.7,0,8.1,0,11.6,0c37.5-0.1,74.9-0.2,112.4-0.3c0.4,2.5,1.9,5.6,1,7.5
		C379.8,579,382.7,584.9,384.5,591.1z M73.7,564.4c51.5,0,103.1,0,155.5,0c-0.7-10.1-0.6-19.6-2-29c-4.1-26.8-16.6-39.6-43.3-44.4
		c-8.1-1.5-16.5-2-24.8-1.6C118,491.6,85.1,522.8,73.7,564.4z"/>
	<path class="st2" d="M86.4,410c-5.1-0.3-10.1-0.7-15.2-0.9c-10.7-0.4-13.6-3.1-13.8-13.9c-0.3-17.2-0.3-34.5-0.3-51.7
		c0.1-26.1,0.1-52.3,0.8-78.4c0.4-13.3,4.7-17.1,18.3-17.1c37.9-0.1,75.8-0.1,113.7,0.1c13.5,0.1,17.1,3,17.3,16.2
		c0.6,31.2,0.5,62.4,0.6,93.6c0.1,12,0.1,23.9,0.2,35.9c-0.4,12.6-4.1,16.2-16.6,16.2C156.5,410,121.4,410,86.4,410z M102,274.7
		c-16.3-3.1-21.5,0.7-21.6,16.3c-0.2,28.4-0.1,56.8,0,85.2c0,9.5,2.4,11.8,12,11.8c26.6,0.1,53.2,0.1,79.7,0
		c10.2,0,12.5-2.3,12.5-12.7c0.1-28.2,0.1-56.4,0-84.6c-0.1-15.1-2.7-17.5-18-16.9c-1,0-1.9,0.2-3.8,0.5c0,8.3,0,16.5,0,25
		c-19.4,0-37.8,0-56.3,0c-3.5,0-4.6-1.7-4.6-4.9C102.1,287.8,102,281.2,102,274.7z M138.5,272.2c0.7-4.7,0-7.4-6-7.4
		c-6,0-6.2,2.7-6.3,7.3c-0.1,4.8,1,6.8,6.3,6.7C137.6,278.7,139.7,277.2,138.5,272.2z"/>
	<path class="st2" d="M506.3,486.7c3.7-0.5,7.4-0.9,11-1.7c24.9-5.5,48.3-2.7,69.3,12.9c3.2,2.4,6.1,5.4,8.5,8.6
		c4,5.5,2.8,8.8-3.5,11.8c-14.8,7.1-29.7,14-44.3,21.4c-38.8,19.8-74,45.1-107.7,72.5c-1.9,1.5-3.5,3.4-5.2,5.1
		c-6,6.1-10.2,5.4-13.6-2.7c-5.1-12.2-5.8-24.7-2.2-37.5c1.1-3.7,1.7-7.5,3.2-11c6.7-15.8,17.4-29,28.9-41.5
		C466.3,507.8,486,496.8,506.3,486.7z M528.7,510.9c-32.3-4.9-76.6,23.4-81.2,51.5C474.5,545.3,501.2,528.4,528.7,510.9z"/>
	<path class="st2" d="M305.9,242.1c1.7,1.6,3.2,3.6,5.1,4.9c14.7,9.9,30.8,16.8,48,21c-0.1,6.7-1.6,14.2,8.6,14.9
		c0.4,0,0.7,1.3,1.1,2c-14.7-0.3-29.2-2.3-42.8-8.1c-11.9-5.1-23.1-11.7-34.7-17.3c-2.1-1-5.3-1.7-7.1-0.8
		c-4.6,2.2-3.6,7.3,1.4,10.1c26,14,53.8,21.3,83.2,22.2c-0.5,0.6-0.9,1.8-1.4,1.8c-5.3-0.1-6.5,3.7-6.4,7.6
		c0.1,4.1,1.1,8.2,1.7,12.3c-10.9-1-21.9-1.1-32.6-3.2c-12.4-2.5-24.5-6.7-36.8-10.2c-8.5-4.1-17.1-8.1-25.6-12.2
		c-1.3-1.2-2.4-2.8-3.9-3.7c-6-3.5-10-8.3-10.6-15.4c-0.4-5.2-0.7-10.4-1.1-15.4c0.1,0-0.5,0.1-0.6,0.3c-0.4,0.9-0.7,1.8-0.9,2.8
		c-6.1,31.3-6.4,62.8-4,94.4c1.4,17.8,5.2,34.6,22.6,44.4c-0.1,1.1-0.2,2.2-0.3,3.2c-2.9,0.6-5.9,1.2-8.8,1.9
		c-11,2.6-21.8,3.9-30.5-5.7c-10.4-20.7-11.2-43-10.3-65.3c0.9-23,3.3-46,5.7-69c1-10.1,6.2-18.7,12.1-26.9c3.5-4.8,8-7.3,13.8-7.8
		c7.5,1.2,15.1,2.4,22.6,3.6c4.5,1.5,9.1,3.1,13.6,4.6C293.3,236.2,299.6,239.1,305.9,242.1z"/>
	<path class="st2" d="M251.2,212.8c-1.1-1.4-2.1-2.9-3.4-4.1c-21.5-18-24.3-48.1-6.3-68c18.1-20,48.2-20.4,68.4-1
		c1.5,1.4,3.1,2.7,4.3,4.3c5.4,7.2,11.3,11.9,21.6,10.6c8.2-1,11.6,6.6,15.2,14.3c-6.1,1.5-11.9,2.8-17.9,4.3
		c1.6,6.8,3.2,13,4.6,19.3c1.2,5.2,1.6,10-4.4,13c-1.4,0.7-2.3,3.7-2.3,5.7c0.1,4.6,1,9.2,1.4,13.9c0.4,4-1.6,6.3-5.6,6.2
		c-4-0.1-8.1-0.4-12-1.1c-4.3-0.8-7.2,0.1-8.3,4.6c-6.2-2.5-12.4-5-18.6-7.5c1.7-8.5,6.3-12.6,14.7-13.4c8.2-0.7,8.2-0.7,7.7-8.6
		c-0.3-4.8-1.3-9.4,3.9-13c3-2.1-1.8-14.9-5.4-15.6c-4-0.8-10.9,4-11.8,8.5c-1.2,6.3-2,12.8-3.5,19.1c-2.8,11.3-7.7,14.8-19.5,14.8
		C266.4,216.9,258.8,214.8,251.2,212.8z M297.8,159.4c0.2-0.7,0.4-1.4,0.5-2.2c-4.1-2.3-8-5.2-12.4-6.9c-11.2-4.1-24,1.2-29.5,11.7
		c-5.6,10.9-2.8,24.5,6.4,31.1c6.8,4.9,12.2,2.7,13.2-5.5c0.6-5,1.3-10,1.4-15.1c0.1-6.4,3.3-9.6,9.2-10.7
		C290.5,161.2,294.2,160.3,297.8,159.4z"/>
	<path class="st2" d="M602.7,587.5c0.2,36.9-23.3,69.3-57.1,80c-34.7,11-73.3-1.5-92.9-30.2c-1.6-2.3-3-4.8-4-7.4
		c-4.2-10.1,1.1-17.1,12.2-16.3c6.6,0.4,10.8,4.8,15.4,8.9c7.2,6.4,14.1,13.9,22.6,17.9c21,9.8,41.5,6.6,58.8-8.9
		c17.4-15.7,22-35.7,15.1-58.2c-1.2-3.9-3-7.5-4.2-11.4c-0.8-2.5-1.3-5.1-1.4-7.7c-0.2-6.9,4.6-14.4,10-16c4.5-1.3,10,1.8,14,8.5
		C599.1,559.6,603,573.7,602.7,587.5z"/>
	<path class="st3" d="M143,674.2c-26.7-0.8-52.6-13.5-72.4-38.3c-9.1-11.4-5.9-18.5,8.4-20.6c9.9-1.4,18.1,0.7,24.7,9.1
		c22.6,28.3,63.5,29,86.7,1c9.6-11.5,20.3-11.9,31.5-8.7c7.4,2.1,10.1,7,5.8,13.3c-5.7,8.2-12.2,16.2-19.9,22.6
		C190.7,666.8,170.5,674.1,143,674.2z"/>
	<path class="st4" d="M125.3,456.3c-1.8-1.1-3.5-2.8-5.5-3.2c-5.9-1.1-12-1.5-18-2.5c-7.4-1.4-11.8-6.3-13.3-13.4
		c-1.1-5.3-1.4-10.8-2-16.2c10.5,0,21,0,31.4,0c0.1,5.4,3.2,7.2,8.3,7.2c10.7-0.2,21.4,0,32.2,0c39.2,0.1,78.5,0.2,117.7,0.2
		c-2.8,8.1-5.7,16.2-8.5,24.4c-2,0.1-4,0.3-6.1,0.3c-33,0-66.1,0-99.1,0.1c-2.4,0-4.8,0.6-7.1,0.9c-8.1-0.1-16.1-0.3-24.2,0
		C129.2,454,127.2,455.4,125.3,456.3z"/>
	<path class="st5" d="M465,363.7c12.2,23.3,24.5,46.5,36.5,69.8c4.4,8.6,7.9,17.6,11.9,26.4c-8.3,2.9-16.6,5.8-24.9,8.5
		c-2.8,0.9-5.9,0.9-8.8,1.3c4.9-6.5,2-12.6-1.1-18.7c-13.7-26.6-27.4-53.2-41-79.7C446.7,368.7,455.8,366.2,465,363.7z"/>
	<path class="st6" d="M435.9,261.1c1-0.4,2.4-0.5,3-1.3c8.8-10.6,21.4-14.4,33.9-17.6c12.4-3.1,19,2.9,19,15.6c0,18.4,0,36.9,0,55.3
		c0,13.2-7.4,18.9-20.6,15.4c-4.3-1.1-8.4-2.8-12.6-4.3c-0.2-5.1-0.1-10.3-0.5-15.4c-0.3-4.1-1.1-8.1-1.8-12.1c1.2,0,2.3,0,3.5,0
		c3,1.4,6,2.9,9.6,4.6c0-10.6,0-19.5,0-30.3c-6.4,3.4-11.5,6-16.6,8.7c-5.3-2-10.6-4.1-16-6.1C436.6,269.4,436.2,265.3,435.9,261.1z
		"/>
	<path class="st6" d="M402.9,246.4c-1.9,2.7-3.9,5.4-5.7,8.2c-8.8,13.5-22.7,13.9-32.1,0.7c-10.2-14.2-10.2-41.1,0-55.3
		c9.6-13.4,24.5-12.6,32.8,1.9c2.8,5,5.2,10.3,7.7,15.4c-0.3,4.1-0.5,8.1-0.9,12.2C404.1,235.2,403.5,240.8,402.9,246.4z
		 M387.9,227.7c-1.1-3.9-1.5-7.8-3.2-11.1c-2-4-6-4-7.9,0.1c-3.5,7.3-3.6,15,0.1,22.2c2.1,4.1,5.7,4,7.7-0.2
		C386.3,235.3,386.9,231.5,387.9,227.7z"/>
	<path class="st2" d="M555,578c6.1,13.4,3.9,25.9-5.1,36.9c-9.2,11.3-21.7,15.5-36,12.1c-14.3-3.4-23.4-12.6-26.9-26.8
		c-1.7-6.8,1.1-10.1,8-10.3c7.1-0.2,13.5,0.5,16.8,8.7c2.1,5.2,8.9,6.9,14.2,5.2c5.7-1.9,8.9-6.5,8.7-12.5c-0.1-1.6-0.4-3.2-0.6-4.8
		C540.5,582.3,547.1,578.5,555,578z"/>
	<path class="st3" d="M449.1,321.1c-0.3,3.6-0.7,7.3-1,10.9c-1.3,0.3-2.8,0.4-3.9,1.1c-6.6,4.2-13.1,8.5-19.6,12.7
		c-2.4-0.5-4.7-1-7.1-1.6c-1.7-1-3.3-2.5-5.2-3c-6.2-1.8-10.7-5.3-13.6-11.1c-0.6-1.2-2-1.9-3-2.9c-0.1-4.3-0.2-8.7-0.4-13
		c1.4-4.8,2.8-9.6,4.2-14.5c1.6-1,3.4-1.8,4.8-2.9c7.2-5.8,15.2-7.7,24.2-5.5c2.3,0.6,4.6,1,7,1.4c3.3,2.9,6.6,5.9,9.9,8.8
		C446.6,308.2,447.8,314.6,449.1,321.1z M422.1,326.1c5.1-0.1,8.8-4,8.7-9c-0.2-4.9-4.3-8.8-9.1-8.7c-4.8,0.1-8.8,4.4-8.7,9.1
		C413,322.3,417.1,326.2,422.1,326.1z"/>
	<path class="st7" d="M479.6,469.7c3-0.4,6-0.4,8.8-1.3c8.4-2.6,16.6-5.6,24.9-8.5c1.8,6.7,4.6,13.4-0.8,19.8
		c-1.9-0.4-4.1-1.6-5.5-0.9c-10.2,4.4-20.9,8.1-30.1,14.1c-11.5,7.6-22,17-32.5,26.2c-13.2,11.6-24,25.2-30,42
		c-2.4,6.7-5.5,13.6-1.5,20.9c-4.2,2.7-8.4,5.3-12.6,8c1-9.6-1.6-19.6,3.2-28.9c0.8-1.5-0.5-4.1-0.8-6.2
		C428.3,526.5,454,498.1,479.6,469.7z"/>
	<path class="st8" d="M399.5,299.8c-1.4,4.8-2.8,9.6-4.2,14.5c-10.9-0.6-21.8-1.1-32.7-1.7c-0.6-4.1-1.6-8.2-1.7-12.3
		c-0.1-4,1.1-7.7,6.4-7.6c0.5,0,0.9-1.2,1.4-1.8c2.4,0,4.9,0.2,7.2-0.1c1.7-0.3,3.2-1.3,4.8-2c-1.6-1-3.2-2.3-5-2.8
		c-2.3-0.7-4.7-0.7-7.1-1c-0.4-0.7-0.7-2-1.1-2c-10.3-0.8-8.7-8.2-8.6-14.9c6.9,1.1,13.9,1.5,20.6,3.3c8.5,2.2,15.7-0.2,22.9-4.1
		c2.6-1.4,5.6-2.3,8.4-3.4c6.2,2.6,6.6,4.7,2,9.3c-3,3.1-5.6,6.7-8.1,10.2c-0.3,0.4,0.8,1.9,1.2,2.9c-2,0.6-4,1.3-6.4,2.1
		C399.5,292,399.5,295.9,399.5,299.8z"/>
	<path class="st9" d="M118,421c-10.5,0-21,0-31.4,0c0-3.7-0.1-7.3-0.1-11c35,0,70.1,0,105.1,0c12.5,0,16.1-3.7,16.6-16.2
		c7.2,0.1,14.3,0.2,21.5,0.2c8.7,9.6,19.5,8.3,30.5,5.7c2.9-0.7,5.8-1.3,8.8-1.9c-0.5,1.2-0.8,3.2-1.6,3.6
		c-4.8,1.9-9.7,4.7-14.5,4.7c-8.1-0.1-16.2-2.2-24.4-3.2c-2.7-0.3-6.3-1.2-7.9,0.1c-4.6,3.7-8.4,8.4-12.4,12.7c-2,0.1-4,0.2-6.1,0.2
		c-24.9,0-49.8,0.1-74.7,0.1C123.1,416,119.4,416.3,118,421z"/>
	<path class="st3" d="M147.2,628c-11-0.6-21.5-3.2-30.4-10.3c-6.5-5.2-5.8-9.5,1.6-13.2c5.8-2.9,11.6-3.6,17.5-0.4
		c7.7,4.2,15.5,4.2,23.3,0.1c6.4-3.4,12.5-2.7,18.6,0.7c6.3,3.5,6.9,7.7,1.3,12.3C169.8,624.8,159,627.6,147.2,628z"/>
	<path class="st10" d="M413,582c-4-7.3-0.9-14.2,1.5-20.9c6-16.8,16.8-30.4,30-42c10.4-9.2,20.9-18.6,32.5-26.2
		c9.1-6,19.9-9.7,30.1-14.1c1.4-0.6,3.7,0.6,5.5,0.9c-2.1,2.3-4.2,4.7-6.3,7c-20.3,10.1-39.9,21.1-55.6,38
		c-11.5,12.5-22.2,25.7-28.9,41.5c-1.5,3.5-2.2,7.3-3.2,11C416.7,578.8,414.9,580.4,413,582z"/>
	<path class="st11" d="M424.5,345.8c6.5-4.3,13-8.6,19.6-12.7c1.1-0.7,2.6-0.7,3.9-1.1c5.7,10.6,11.3,21.1,17,31.7
		c-9.2,2.5-18.3,5.1-27.5,7.6C433.2,362.8,428.8,354.3,424.5,345.8z"/>
	<path class="st7" d="M406,286.2c-0.4-1-1.6-2.5-1.2-2.9c2.5-3.5,5.1-7.1,8.1-10.2c4.5-4.6,4.2-6.7-2-9.3c-0.7-2.7-1.4-5.4-2.2-8
		c2.6-0.4,5.3-0.6,7.9-1.2c3.8-0.9,7.7-1.9,11.4-3c1.5-0.4,2.7-1.4,4.1-2.2c1.3,3.9,2.5,7.9,3.8,11.8c0.3,4.2,0.7,8.3,1,12.5
		c-2.5,2.9-4.9,5.8-7.4,8.6C420.7,277.9,413.5,283,406,286.2z"/>
	<path class="st12" d="M555,578c-7.9,0.5-14.5,4.3-20.9,8.6c-2.2-2-4.1-4.6-6.6-6c-5.9-3.5-9.8-15.7-5.7-20.9
		c1.5-1.9,5.5-3.1,7.9-2.6C541.7,559.6,550.5,566.4,555,578z"/>
	<path class="st8" d="M432.1,249.3c-1.4,0.7-2.7,1.7-4.1,2.2c-3.8,1.1-7.6,2.2-11.4,3c-2.6,0.6-5.3,0.8-7.9,1.2
		c-1.3-2.5-2.6-4.9-3.9-7.4c1.1-1.8,2.9-3.5,3.1-5.4c0.6-8.1,0.8-16.2,1.1-24.2c9.7,2.9,15.2,10,19,18.7
		C429.6,241.3,430.7,245.3,432.1,249.3z"/>
	<path class="st8" d="M402.7,554.9c0.3,2.1,1.6,4.7,0.8,6.2c-4.7,9.3-2.2,19.3-3.2,28.9c-5.3,0.4-10.6,0.8-15.8,1.2
		c-1.8-6.2-4.7-12.1-1.5-18.9c0.9-1.9-0.6-5-1-7.5C390.2,564,397.2,560.9,402.7,554.9z"/>
	<path class="st11" d="M449.1,321.1c-1.2-6.5-2.4-12.9-3.7-19.4c3.9-1.1,5.5-7.3,11-4.9c0.6,4,1.4,8,1.8,12.1
		c0.4,5.1,0.4,10.2,0.5,15.4C455.4,323.2,452.3,322.1,449.1,321.1z"/>
	<path class="st9" d="M251.2,212.8c7.6,2,15.2,4.1,22.7,6.1c-0.2,3.2-0.3,6.4-0.5,9.7c-7.5-1.2-15.1-2.4-22.6-3.6
		C250.9,220.9,251.1,216.9,251.2,212.8z"/>
	<path class="st13" d="M125.3,456.3c1.9-0.8,3.9-2.3,5.8-2.3c8.1-0.2,16.1,0,24.2,0c-0.3,2-0.7,4-1,6c-8.1,1.2-16.2,2.4-24.3,3.7
		c-1.6-2-3.2-4.1-4.8-6.1C125.2,457.1,125.3,456.7,125.3,456.3z"/>
	<path class="st7" d="M287.8,227.2c6.2,2.5,12.4,5,18.6,7.5c-0.2,2.5-0.4,4.9-0.5,7.4c-6.3-2.9-12.6-5.9-18.9-8.8
		C287.3,231.2,287.6,229.2,287.8,227.2z"/>
	<path class="st9" d="M408.9,218.7c-0.3,8.1-0.4,16.2-1.1,24.2c-0.1,1.9-2,3.6-3.1,5.4c-0.6-0.7-1.3-1.3-1.9-2
		c0.6-5.6,1.3-11.2,1.8-16.8c0.4-4.1,0.6-8.1,0.9-12.2C406.7,217.8,407.8,218.3,408.9,218.7z"/>
	<path class="st13" d="M39.8,563.3c11.5-0.2,11.5-0.2,11.2,11.1c0,1.4,0,2.8,0,4.6c-0.8-0.5-1.2-0.7-1.2-0.9c-0.8-10-0.8-9.9-11-9.8
		c-9.3,0.1-18.6,0-27.9,0c0-0.8,0-1.6,0-2.3c7.4,0,14.8,0.1,22.2-0.1c1.9-0.1,3.8-1.3,5.7-2C39.1,563.6,39.5,563.4,39.8,563.3z"/>
	<path class="st3" d="M38.8,563.8c-1.9,0.7-3.8,1.9-5.7,2c-7.4,0.2-14.8,0.1-22.2,0.1c1.4-0.8,2.8-2.3,4.2-2.3
		C23,563.5,30.9,563.7,38.8,563.8z"/>
	<path class="st10" d="M125.2,457.5c1.6,2,3.2,4.1,4.8,6.1c-3.6,1.2-7.1,2.4-10.7,3.6C121.3,464,123.3,460.7,125.2,457.5z"/>
	<path class="st0" d="M73.7,564.4c11.5-41.6,44.3-72.8,85.4-74.9c8.2-0.4,16.7,0.1,24.8,1.6c26.8,4.8,39.2,17.6,43.3,44.4
		c1.4,9.3,1.4,18.9,2,29C176.7,564.4,125.2,564.4,73.7,564.4z"/>
	<path class="st14" d="M154.3,459.9c0.3-2,0.7-4,1-6c2.4-0.3,4.8-0.9,7.1-0.9c33-0.1,66.1,0,99.1-0.1c2,0,4-0.2,6.1-0.3
		c1.9,0.1,3.7,0.2,5.6,0.3c-0.3,2.6-0.4,5.2-1,7.7c-3,12.6-6.8,25-9.1,37.8c-4.8,26.9,6.9,47,30.9,53.5c7.8,2.1,15.9,3,24,3.7
		c18.1,1.6,36.1,0.6,53.7-3.6c23.8-5.7,42-19.4,55.8-39.3c25.8-37.2,30-76.5,10.8-117.8c-4.2-10.2-8.4-20.4-12.5-30.5
		c-2.8-6.7-5.6-13.4-8.3-20.1c2.4,0.5,4.7,1,7.1,1.6c4.3,8.5,8.7,17,13,25.4c13.7,26.6,27.4,53.2,41,79.7c3.1,6,6,12.1,1.1,18.7
		c-25.6,28.4-51.3,56.8-76.9,85.2c-5.6,6-12.5,9.1-20.6,9.8c-37.5,0.1-74.9,0.2-112.4,0.3c-3.4,0-6.8,0-11.6,0
		c0-7.1,0.2-13.7,0-20.3c-0.6-16.7-4.5-32.5-12.6-47.1c-12.4-22.5-32.8-33-57.3-36.2C177.1,459.9,165.6,460.3,154.3,459.9z"/>
	<path class="st15" d="M102,274.7c0,6.5,0.1,13.2,0,19.8c0,3.2,1.1,4.9,4.6,4.9c18.4-0.1,36.9,0,56.3,0c0-8.5,0-16.7,0-25
		c1.9-0.2,2.8-0.5,3.8-0.5c15.3-0.6,18,1.8,18,16.9c0.1,28.2,0.1,56.4,0,84.6c0,10.4-2.3,12.6-12.5,12.7c-26.6,0.1-53.2,0.1-79.7,0
		c-9.6,0-11.9-2.3-12-11.8c-0.1-28.4-0.2-56.8,0-85.2C80.5,275.4,85.8,271.5,102,274.7z"/>
	<path class="st14" d="M138.5,272.2c1.1,5.1-0.9,6.6-6,6.6c-5.3,0.1-6.4-1.9-6.3-6.7c0.1-4.6,0.3-7.3,6.3-7.3
		C138.6,264.8,139.3,267.5,138.5,272.2z"/>
	<path class="st16" d="M528.7,510.9c-27.5,17.4-54.2,34.4-81.2,51.5C452,534.4,496.4,506.1,528.7,510.9z"/>
	<path class="st15" d="M362.6,312.6c10.9,0.6,21.8,1.1,32.7,1.7c0.1,4.3,0.2,8.7,0.4,13c-1.3,1.9-3.7,3.7-3.9,5.6
		c-0.3,5.4-0.9,11.2,0.8,16.1c5,14.8,11,29.3,16.5,43.9c2.8,7.4,5.6,14.8,8.2,22.2c12.6,34.9,6.7,66.6-17.2,94.8
		c-2.5,2.9-6.3,4.7-9.5,7c-1.6-0.5-3.2-1.1-4.7-1.6c-4.9-1.4-9.9-2.8-14.8-4.2c-1.9-0.9-3.8-1.9-5.8-2.8c2.2-5.6,4.4-10.6,6.1-15.8
		c8.3-25.1,17-50.2,24.5-75.6c3.5-11.9,1.5-23.6-10.5-30.9c-4.5-2.7-9.3-5.1-14.3-6.5c-23.1-6.7-46.4-13-69.5-19.5
		c-10-2.8-12.2-5.5-11.9-16c0.4-11.3,1.4-22.6,2.2-33.9c0.3-2.7,0.5-5.5,0.8-8.2c0.2-0.9,0.4-1.8,0.6-2.7
		c12.2,3.5,24.3,7.7,36.8,10.2C340.7,311.5,351.7,311.6,362.6,312.6z"/>
	<path class="st17" d="M269.1,394.6c-17.3-9.8-21.2-26.6-22.6-44.4c-2.4-31.6-2.1-63.2,4-94.4c0.2-1,0.5-1.9,0.9-2.8
		c0.1-0.3,0.7-0.4,0.6-0.3c0.3,5.1,0.6,10.3,1.1,15.4c0.6,7.1,4.6,11.9,10.6,15.4c1.5,0.9,2.6,2.4,3.9,3.7c-0.3,2-0.6,4-1,6.1
		c-0.4,2.8-0.7,5.6-1.1,8.3c-0.3,20-1.2,40.1-0.7,60.1c0.3,12.5,7.8,20.3,20.3,23.1c17,3.8,34,7.8,50.9,12.2
		c9.2,2.4,18.4,5.1,27.2,8.5c6.8,2.6,8.3,6.5,6.9,13.6c-0.5,2.6-1.1,5.2-2,7.6c-8.2,22.7-16.5,45.3-24.9,68c-3,8-5.7,8.9-14.5,5.3
		c0.4-1.5,0.7-3.1,1.3-4.6c7.7-19.6,15.5-39.2,22.9-58.9c1.7-4.6,2-9.8,2.5-14.8c0.4-4-1.9-6.4-5.8-7.3
		c-23.7-5.4-47.4-10.8-71.1-16.2C275.4,396.9,272.3,395.7,269.1,394.6z"/>
	<path class="st18" d="M269.1,394.6c3.2,1.2,6.3,2.3,9.5,3.5c-0.3,8.8-5.1,14.6-13.2,17c-4.7,1.4-9.1,3.8-13.6,5.8
		c-14.4-3.5-29-5.7-43.9-5.2c4.1-4.3,7.9-9,12.4-12.7c1.6-1.3,5.3-0.4,7.9-0.1c8.1,1.1,16.2,3.1,24.4,3.2c4.8,0,9.8-2.8,14.5-4.7
		c0.9-0.3,1.1-2.3,1.6-3.6C269,396.7,269,395.6,269.1,394.6z"/>
	<path class="st16" d="M287.8,227.2c-0.3,2-0.5,4-0.8,6.1c-4.5-1.5-9.1-3.1-13.6-4.6c0.2-3.2,0.3-6.4,0.5-9.7
		c11.8,0,16.7-3.5,19.5-14.8c1.6-6.3,2.3-12.7,3.5-19.1c0.9-4.5,7.8-9.3,11.8-8.5c3.6,0.8,8.4,13.6,5.4,15.6
		c-5.1,3.6-4.2,8.2-3.9,13c0.5,7.8,0.5,7.8-7.7,8.6C294.1,214.5,289.5,218.7,287.8,227.2z"/>
	<path class="st19" d="M368.7,284.9c2.4,0.3,4.8,0.3,7.1,1c1.8,0.5,3.3,1.9,5,2.8c-1.6,0.7-3.2,1.8-4.8,2c-2.4,0.4-4.8,0.1-7.2,0.1
		c-29.5-0.9-57.2-8.2-83.2-22.2c-5.1-2.7-6-7.9-1.4-10.1c1.9-0.9,5.1-0.2,7.1,0.8c11.6,5.7,22.9,12.3,34.7,17.3
		C339.4,282.5,354,284.6,368.7,284.9z"/>
	<path class="st10" d="M266.7,293.1c0.3-2,0.6-4,1-6.1c8.5,4.1,17.1,8.1,25.6,12.2c-0.2,0.9-0.4,1.8-0.6,2.7
		c-2.5-0.8-4.9-1.5-7.4-2.3C279.1,297.5,272.9,295.3,266.7,293.1z"/>
	<path class="st17" d="M297.8,159.4c-3.7,0.8-7.4,1.8-11.1,2.5c-5.9,1.2-9.1,4.4-9.2,10.7c-0.1,5-0.8,10.1-1.4,15.1
		c-1,8.2-6.4,10.4-13.2,5.5c-9.2-6.7-12-20.3-6.4-31.1c5.4-10.5,18.3-15.9,29.5-11.7c4.4,1.6,8.3,4.5,12.4,6.9
		C298.2,158,298,158.7,297.8,159.4z"/>
	<path class="st20" d="M208,415.7c14.9-0.5,29.4,1.7,43.9,5.2c8.9,2.1,17.8,4.3,26.7,6.4c-0.8,0.4-1.6,0.7-2.3,1.1
		c-39.2-0.1-78.5-0.2-117.7-0.2c-10.7,0-21.4-0.1-32.2,0c-5.1,0.1-8.2-1.7-8.3-7.2c1.4-4.7,5.1-5,9.2-5c24.9,0,49.8,0,74.7-0.1
		C203.9,415.9,205.9,415.8,208,415.7z"/>
	<path class="st9" d="M276.2,428.3c0.8-0.4,1.6-0.7,2.3-1.1c1.9-5.1,6.2-5.2,10.5-5.1c9,0.1,18.2,5,20,10.6
		c-0.3,0.2-0.7,0.3-1.1,0.4c-5.8-1.6-11.6-3-17.3-4.8c-6.8-2.2-7.9-1.8-10.2,4.8c-2.3,6.6-4.8,13.2-7.2,19.8
		c-1.9-0.1-3.7-0.2-5.6-0.3C270.5,444.6,273.3,436.5,276.2,428.3z"/>
	<path class="st10" d="M456.4,296.7c-5.5-2.4-7.1,3.9-11,4.9c-3.3-2.9-6.6-5.9-9.9-8.8c-2-3.5-4-7.1-6-10.6c2.5-2.9,4.9-5.8,7.4-8.6
		c5.3,2,10.6,4.1,16,6.1c2.3,5.7,4.7,11.4,7,17.1C458.7,296.7,457.5,296.7,456.4,296.7z"/>
	<path class="st16" d="M459.8,296.7c-2.3-5.7-4.7-11.4-7-17.1c5.1-2.7,10.1-5.3,16.6-8.7c0,10.9,0,19.7,0,30.3
		C465.8,299.6,462.8,298.2,459.8,296.7z"/>
	<path class="st20" d="M387.9,227.7c-1.1,3.8-1.6,7.6-3.2,11c-2,4.2-5.6,4.3-7.7,0.2c-3.7-7.3-3.6-14.9-0.1-22.2
		c1.9-4.1,5.8-4.1,7.9-0.1C386.4,219.9,386.9,223.8,387.9,227.7z"/>
	<path class="st12" d="M409.1,392.9c-5.6-14.6-11.6-29.1-16.5-43.9c-1.7-4.9-1.1-10.7-0.8-16.1c0.1-1.9,2.5-3.8,3.9-5.6
		c1,1,2.4,1.7,3,2.9c2.9,5.7,7.4,9.3,13.6,11.1c1.9,0.5,3.5,2,5.2,3c2.8,6.7,5.6,13.4,8.3,20.1c4.2,10.2,8.4,20.4,12.5,30.5
		c-1.6,1.6-3.3,4.4-4.9,4.4c-5.7,0-11.4-1.1-17.6-1.8c-0.1-0.7-0.2-2.4-0.5-4.6C413.1,392.9,411.1,392.9,409.1,392.9z"/>
	<path class="st19" d="M429.5,282.2c2,3.5,4,7.1,6,10.6c-2.3-0.5-4.7-0.9-7-1.4c-9-2.2-17-0.3-24.2,5.5c-1.5,1.2-3.2,2-4.8,2.9
		c0-3.9,0-7.8,0-11.5c2.5-0.8,4.4-1.4,6.4-2.1C413.5,283,420.7,277.9,429.5,282.2z"/>
	<path class="st20" d="M422.1,326.1c-5,0.1-9.1-3.7-9.2-8.5c-0.1-4.8,4-9,8.7-9.1c4.8-0.1,8.9,3.8,9.1,8.7
		C430.9,322,427.1,326,422.1,326.1z"/>
	<path class="st2" d="M409.1,392.9c2,0,3.9,0,6.2,0c0.2,2.2,0.4,3.9,0.5,4.6c6.2,0.7,11.9,1.8,17.6,1.8c1.6,0,3.3-2.9,4.9-4.4
		c19.2,41.4,15,80.6-10.8,117.8c-13.8,19.9-32.1,33.6-55.8,39.3c-17.7,4.2-35.7,5.2-53.7,3.6c-8-0.7-16.2-1.6-24-3.7
		c-24-6.5-35.7-26.6-30.9-53.5c2.3-12.7,6.1-25.2,9.1-37.8c0.6-2.5,0.7-5.1,1-7.7c2.4-6.6,4.9-13.2,7.2-19.8c2.4-6.7,3.4-7,10.2-4.8
		c5.7,1.9,11.5,3.2,17.3,4.8c-1.9,6-4,11.9-5.5,18c-4.5,18.4-9.3,36.8-13,55.3c-2,9.8,2.7,17.2,10,19.4c1.8,1.1,3.5,2.9,5.5,3.3
		c7.3,1.5,14.6,2.6,22,3.8c11.8-0.8,23.5-1.5,35.3-2.3c4.1-0.9,8.5-1.1,12.1-3c5.8-3,11-7.1,16.4-10.8c3.2-2.3,7-4.1,9.5-7
		c24-28.2,29.9-59.9,17.2-94.8C414.7,407.7,411.9,400.3,409.1,392.9z"/>
	<path class="st21" d="M309,432.8c-1.7-5.6-10.9-10.5-20-10.6c-4.4-0.1-8.7,0-10.5,5.1c-8.9-2.1-17.8-4.3-26.7-6.4
		c4.5-2,8.9-4.4,13.6-5.8c8-2.4,12.8-8.1,13.2-17c23.7,5.4,47.4,10.8,71.1,16.2c3.9,0.9,6.2,3.3,5.8,7.3c-0.5,5-0.8,10.2-2.5,14.8
		c-7.4,19.7-15.2,39.3-22.9,58.9c-0.6,1.5-0.9,3.1-1.3,4.6c8.8,3.6,11.5,2.7,14.5-5.3c8.4-22.6,16.6-45.3,24.9-68
		c0.9-2.5,1.4-5.1,2-7.6c1.4-7.1-0.1-11-6.9-13.6c-8.9-3.3-18-6.1-27.2-8.5c-16.9-4.3-33.9-8.3-50.9-12.2
		c-12.5-2.8-20-10.6-20.3-23.1c-0.5-20,0.4-40.1,0.7-60.1c2.2,0.9,4.3,2.1,6.5,2.8c6.5,2.1,13.1,4,19.7,5.9
		c-0.8,11.3-1.8,22.6-2.2,33.9c-0.4,10.5,1.9,13.2,11.9,16c23.2,6.5,46.4,12.8,69.5,19.5c5,1.4,9.8,3.8,14.3,6.5
		c12,7.3,14,19,10.5,30.9c-7.5,25.4-16.2,50.4-24.5,75.6c-1.7,5.2-3.9,10.2-6.1,15.8c2,1,3.9,1.9,5.8,2.8c-1.8,1.4-3.3,3.6-5.3,4.1
		c-20.9,6.1-41.6,6.8-61.7-3.1c1.2-2.5,2.5-5.1,3.6-7.6c0.5-1.3,1.6-3.3,1.1-3.8c-4.7-5.3-1.4-10.5,0.2-15.4
		c4.7-15.1,9.8-30,15-44.9c1.7-4.8,0.2-6.9-4.7-7.2C315.9,433.1,312.5,433,309,432.8z"/>
	<path class="st11" d="M304.2,512.3c20.1,9.8,40.8,9.1,61.7,3.1c2-0.6,3.5-2.7,5.3-4.1c4.9,1.4,9.9,2.8,14.8,4.2
		c-4.3,2.7-8.5,5.6-13.1,7.9c-4.5,2.3-9.3,4-13.9,5.9c-7.3-1.5-14.6-3.3-22-4.3c-2.6-0.3-5.4,1.4-8.1,2.2c-8.2-2.5-16.4-5-24.6-7.5
		C304.2,517.1,304.2,514.7,304.2,512.3z"/>
	<path class="st11" d="M291.9,310.2c-6.6-2-13.2-3.9-19.7-5.9c-2.2-0.7-4.4-1.8-6.5-2.8c0.4-2.8,0.7-5.6,1.1-8.3
		c6.2,2.2,12.4,4.4,18.6,6.5c2.4,0.8,4.9,1.6,7.4,2.3C292.4,304.7,292.2,307.4,291.9,310.2z"/>
	<path class="st10" d="M359,529.2c4.6-1.9,9.4-3.6,13.9-5.9c4.5-2.3,8.7-5.2,13.1-7.9c1.6,0.5,3.2,1.1,4.7,1.6
		c-5.4,3.6-10.6,7.8-16.4,10.8c-3.6,1.9-8.1,2-12.1,3C361.1,530.2,360,529.7,359,529.2z"/>
	<path class="st17" d="M304.2,512.3c0,2.4,0.1,4.9,0.1,7.3c-0.8,1.2-1.7,2.4-2.5,3.6c-0.8,0.9-1.6,1.8-2.3,2.7
		c-7.3-2.3-12-9.6-10-19.4c3.7-18.6,8.5-36.9,13-55.3c1.5-6.1,3.7-12,5.5-18c0.4,0,0.7-0.2,1.1-0.4c3.4,0.2,6.9,0.3,10.3,0.5
		c4.8,0.3,6.3,2.4,4.7,7.2c-5.2,14.9-10.3,29.8-15,44.9c-1.5,4.9-4.9,10.2-0.2,15.4c0.5,0.5-0.5,2.6-1.1,3.8
		C306.6,507.2,305.4,509.7,304.2,512.3z"/>
	<path class="st19" d="M359,529.2c1.1,0.5,2.1,1.1,3.2,1.6c-11.8,0.8-23.5,1.5-35.3,2.3c0.2-1.1,0.4-2.3,0.6-3.4
		c0.5-0.9,0.9-1.7,1.4-2.6c2.7-0.8,5.6-2.5,8.1-2.2C344.4,525.9,351.7,527.7,359,529.2z"/>
	<path class="st10" d="M327.5,529.6c-0.2,1.1-0.4,2.3-0.6,3.4c-7.3-1.2-14.7-2.3-22-3.8c-2-0.4-3.7-2.2-5.5-3.3
		c0.8-0.9,1.6-1.8,2.3-2.7c8.3,1.9,16.6,3.7,24.8,5.6C326.9,528.9,327.2,529.4,327.5,529.6z"/>
	<path class="st7" d="M327.5,529.6c-0.3-0.3-0.6-0.7-0.9-0.8c-8.3-1.9-16.6-3.8-24.8-5.6c0.8-1.2,1.7-2.4,2.5-3.6
		c8.2,2.5,16.4,5,24.6,7.5C328.4,527.9,328,528.8,327.5,529.6z"/>
</g>
</svg>
