<?xml version="1.0" encoding="utf-8"?>
<!-- Generator: Adobe Illustrator 26.0.1, SVG Export Plug-In . SVG Version: 6.00 Build 0)  -->
<svg version="1.1" id="Layer_1" xmlns="http://www.w3.org/2000/svg" xmlns:xlink="http://www.w3.org/1999/xlink" x="0px" y="0px"
	 viewBox="0 0 612 792" style="enable-background:new 0 0 612 792;" xml:space="preserve">
<style type="text/css">
	.st0{display:none;fill:#010101;}
	.st1{display:none;fill:#FEFEFE;}
	.st2{fill:#F8270F;}
	.st3{fill:#E5E5E5;}
	.st4{fill:#BC1307;}
</style>
<g>
	<path class="st0" d="M0,641.3c0-163.4,0-326.8,0-490.2c204,0,408,0,612,0c0,163.4,0,326.8,0,490.2C408,641.3,204,641.3,0,641.3z
		 M322,441.9c3.9-6,7.8-11.7,11.3-17.7c2.8-4.6,4.5-9.8,4.9-15.2c0.4-5.4-1.4-12.1-9-13.9c-4-1-8.2-1.3-12.3-1.1
		c-10,0.5-15.8,5.9-17.7,15.7c-1.3,6.9-0.7,13.7,1.1,20.4c1.7,6.4,0.6,5.7,6.5,3.5c0.2-0.1,0.4-0.3,0.6-0.2c0.8,0.1,1.9,0,2.4,0.5
		c13.8,12.8,27.5,25.7,41.3,38.6c5.6,5.3,8.8,11.7,7.7,19.6c-0.5,3.5-0.8,7.1-1.4,10.5c-4.7,24.7-9.5,49.4-14.3,74.1
		c-0.9,4.5-1.7,9.1-2.5,13.6c-0.2,1.4,0,2.7,2,2.1c9.5-2.8,18.9-5.8,27.1-11.4c19.1-13.1,34.1-30,44.4-50.9
		c8.3-17,12.2-34.8,11.5-53.7c-0.3-9-1.9-17.9-4.2-26.6c-3.9-15.1-9.7-29.4-18.3-42.5c-0.6-1-1.8-1.6-2.7-2.4
		c-0.2,1.2-0.6,2.4-0.5,3.6c0.2,3.9,0.8,7.8,0.7,11.7c-0.3,12.1-8.2,18.5-19.6,16.2c-10.5-2.1-17.5-10.7-17.2-21.3
		c0.1-4.5,1-9,1.6-13.5c0.7-5.2,2-10.5,1.9-15.7c-0.2-7.1-1.2-14.3-2.4-21.4c-2.2-13.1-8-24.8-14.2-36.4c-3.3-6.2-7.1-12.3-9.4-18.9
		c-6.1-17.6-9.8-35.6-7.6-54.5c1.7-14,3.8-28,7.7-41.6c0.9-3.1,1.9-6.2,2.7-9.3c0.2-0.6-0.2-1.4-0.3-2.1c-0.7,0.1-1.5,0.1-2.1,0.5
		c-0.9,0.5-1.7,1.1-2.3,1.8c-13.4,13.4-24.5,28.4-30.8,46.5c-5.1,14.6-8.8,29.5-10,45c-0.9,11.9,0.6,23.6,3.3,35.1
		c1.7,7.3,2.7,14.6,1.1,22c-2,9.5-10.7,14.4-20,11.3c-0.3-0.1-0.7-0.3-1-0.5c-4.6-3.6-8.1-8.1-10-13.7c-2.1-6.4-0.9-12.7,0.3-19
		c3.5-18.1,1.4-35.5-5.7-52.4c-2.2-5.2-5-10-9.1-14c-0.7-0.7-2-1.2-3-1c-0.5,0.1-1,1.7-1.1,2.7c-0.1,3.8,0,7.6,0,11.3
		c-0.1,12.9-1.8,25.6-6.9,37.4c-3.7,8.6-7.9,17-12.7,25c-16.2,27-29.7,55.3-38.7,85.5c-6.3,20.9-10.5,42.1-7.5,64.1
		c1.3,9.4,3.3,18.6,7,27.3c6.3,14.6,15.7,27.2,25.5,39.5c0.4,0.6,1.1,0.9,1.9,1.6c0.4-1.1,0.8-1.8,0.9-2.6
		c3.1-15.9,6.1-31.7,9.1-47.6c2.4-12.1,4.8-24.1,7.2-36.2c1.8-9,6.8-15.2,15.7-18.2c8.6-2.9,17-6.3,25.5-9.4
		c4.4-1.6,8.8-3.3,13.2-4.9c2-0.7,2.7-1.9,1.8-4c-0.8-2-1.5-4.1-2-6.3c-2.7-11.4-2.4-22.4,4.4-32.4c1-1.6,2.6-3,4.2-3.9
		c13.2-7.1,26.1-5.2,38.6,2c0.4,0.2,0.8,0.7,1,1.2c4.2,8,5.4,16.2,0.9,24.5c-3.8,6.9-7.9,13.6-12.1,20.2c-1.3,2.1-3.2,3.7-4.8,5.7
		C324.4,444.3,323,442.9,322,441.9z M64.2,398.5c0.6,8.5,1,17.1,1.8,25.6c0.5,5.5,1.6,10.9,2.7,16.3c0.6,3,1.8,6.1,4.9,7.5
		c5.3,2.4,14.7-0.5,14.8-9.2c0-1.8,0-3.6-0.3-5.4c-0.7-6.2-1.9-12.4-2.3-18.7c-1.7-25,0.3-49.7,6.7-74c12-45,35.6-82.8,71.3-112.8
		c37.2-31.3,80.4-48.3,129-51.4c25.2-1.6,49.9,1.1,74,8.2c45.2,13.2,82.7,38.2,111.9,75.1c26.6,33.6,42,71.9,46.4,114.5
		c2,19,1.4,37.9-1.6,56.7c-4.1,25.3-12.2,49.2-24.7,71.6c-18,32.4-42.5,58.7-73.6,78.8c-30.5,19.6-63.9,31-100,34.2
		c-21.3,1.9-42.5,0.7-63.5-3.6c-25.4-5.2-49.1-14.5-71.1-28c-33.6-20.7-59.9-48.6-79.1-83.1c-2.3-4.1-4.3-8.3-6.7-12.3
		c-3.1-5.1-7.2-6.6-12.8-4.7c-4.7,1.6-7.5,4.8-6.3,10.2c0.6,2.6,1.6,5.2,2.8,7.6c7.6,16.3,17.5,31,28.7,45
		c21.5,26.8,47.5,48.2,78.1,63.9c41.2,21,84.9,29.6,131.1,25.8c18.1-1.5,35.8-5,53-10.6c41.3-13.4,76.8-36.1,105.7-68.5
		c35.9-40.1,56-87.1,60.9-140.6c2.3-24.9,0.5-49.6-5.1-73.9c-9.5-41.5-28.5-78.1-57.4-109.3c-41.3-44.5-92.3-70.2-152.8-76.9
		c-22.9-2.6-45.7-1.6-68.3,2.5c-24.7,4.5-48.1,12.6-70.2,24.4c-38.4,20.5-69.1,49.2-92,86.2C76.3,309,64.6,352.1,64.2,398.5z
		 M305.3,465.7c5,0,8.9-3.4,9.4-8.3c0.5-4.5-3-9.3-7.6-10.1c-0.6-0.1-1.6,0.1-2,0.5c-0.3,0.3-0.1,1.3,0.2,1.8
		c0.3,0.9,1.1,1.7,1.3,2.6c0.2,1,0.2,2.5-0.4,3.2c-1,1.2-2.6,1.1-3.9,0.1c-0.8-0.7-1.2-1.7-2-2.4c-0.6-0.6-1.5-1.4-2.1-1.3
		c-0.6,0.1-1.3,1.1-1.6,1.9C294.6,459.5,299.1,465.7,305.3,465.7z"/>
	<path class="st1" d="M0,641.3c204,0,408,0,612,0c-0.1,0.2-0.1,0.4-0.2,0.4c-0.6,0-1.2,0-1.8,0c-202.6,0-405.3,0-607.9,0
		C1.4,641.7,0.7,641.4,0,641.3z"/>
	<path class="st2" d="M327,454.7c1.3,1.3,3,3,5,5.1c2.1-2.4,4.5-4.6,6.1-7.2c5.3-8.4,10.5-16.9,15.3-25.6
		c5.7-10.4,4.3-20.8-1.1-30.9c-0.3-0.6-0.8-1.2-1.3-1.5c-15.9-9-32.1-11.4-48.9-2.5c-2.1,1.1-4,2.9-5.4,4.9c-8.6,12.7-9,26.6-5.5,41
		c0.6,2.7,1.4,5.4,2.5,7.9c1.1,2.7,0.2,4.2-2.3,5.1c-5.6,2.1-11.1,4.1-16.7,6.2c-10.8,4-21.4,8.2-32.3,11.9
		c-11.3,3.9-17.6,11.7-19.9,23.1c-3.1,15.2-6.2,30.5-9.2,45.7c-3.9,20-7.7,40.1-11.6,60.2c-0.2,1-0.7,1.9-1.1,3.3
		c-1-0.9-1.9-1.4-2.4-2.1c-12.4-15.6-24.4-31.5-32.3-50c-4.7-11.1-7.3-22.7-8.9-34.6c-3.8-27.8,1.6-54.6,9.5-81.1
		c11.4-38.2,28.5-73.9,48.9-108.1c6.1-10.1,11.4-20.8,16.1-31.6c6.5-15,8.7-31,8.8-47.3c0-4.8-0.1-9.6,0-14.3c0-1.2,0.7-3.3,1.3-3.4
		c1.2-0.2,2.8,0.4,3.8,1.3c5.2,5,8.7,11.1,11.5,17.7c9,21.3,11.7,43.4,7.2,66.2c-1.6,8-3.1,16-0.4,24.1c2.4,7.1,6.8,12.8,12.6,17.4
		c0.4,0.3,0.8,0.5,1.2,0.7c11.7,3.9,22.8-2.3,25.3-14.3c2-9.4,0.7-18.6-1.4-27.8c-3.3-14.6-5.2-29.4-4.1-44.4
		c1.4-19.6,6.1-38.4,12.6-56.9c8-22.9,22-41.8,39-58.8c0.9-0.9,1.9-1.7,3-2.2c0.8-0.4,1.8-0.4,2.6-0.6c0.1,0.9,0.6,1.9,0.4,2.7
		c-1.1,4-2.3,7.9-3.5,11.8c-4.9,17.2-7.6,34.8-9.7,52.6c-2.8,23.9,1.8,46.7,9.6,68.9c2.9,8.3,7.7,16,11.9,23.8
		c7.9,14.6,15.1,29.5,17.9,46c1.5,8.9,2.8,18,3,27c0.2,6.6-1.5,13.2-2.4,19.9c-0.7,5.7-1.8,11.4-2,17.1c-0.4,13.5,8.5,24.3,21.7,27
		c14.3,2.9,24.3-5.2,24.7-20.5c0.1-4.9-0.7-9.9-0.9-14.9c-0.1-1.5,0.4-3.1,0.6-4.6c1.2,1,2.6,1.8,3.5,3
		c10.9,16.5,18.3,34.6,23.2,53.7c2.9,11,4.9,22.2,5.3,33.6c0.9,23.9-4.1,46.5-14.6,67.9c-12.9,26.5-31.9,47.8-56.1,64.4
		c-10.4,7.1-22.3,10.9-34.2,14.4c-2.6,0.8-2.9-0.8-2.5-2.6c1-5.7,2-11.5,3.1-17.2c6-31.2,12.1-62.4,18-93.7
		c0.8-4.4,1.2-8.9,1.8-13.3c1.4-10.1-2.6-18.1-9.7-24.8c-17.3-16.3-34.7-32.6-52.2-48.8c-0.6-0.6-2-0.4-3-0.6
		c-0.2,0-0.5,0.2-0.8,0.3c-7.5,2.7-6.2,3.6-8.3-4.4c-2.2-8.5-3.1-17.1-1.4-25.8c2.3-12.3,9.7-19.2,22.3-19.8
		c5.2-0.2,10.6,0.1,15.6,1.3c9.5,2.3,11.9,10.9,11.3,17.6c-0.6,6.9-2.7,13.3-6.3,19.2C336.8,439.8,331.9,447.1,327,454.7z"/>
	<path class="st3" d="M1,399.9c0.5-58.7,15.3-113.2,46.2-163.2c28.9-46.7,67.8-83,116.3-109c27.9-14.9,57.6-25.2,88.7-30.8
		c28.6-5.2,57.4-6.4,86.3-3.2c76.4,8.5,141,41,193.2,97.3c36.6,39.5,60.5,85.8,72.6,138.3c7.1,30.8,9.4,62,6.5,93.5
		c-6.2,67.6-31.7,127.1-77.1,177.7c-36.7,41-81.4,69.6-133.7,86.6c-21.8,7.1-44.2,11.5-67,13.4c-58.4,4.8-113.7-6-165.8-32.6
		c-38.7-19.8-71.6-46.9-98.8-80.8c-14.2-17.7-26.7-36.3-36.3-56.9c-1.4-3.1-2.7-6.3-3.5-9.7c-1.6-6.8,2-10.8,7.9-12.9
		c7.1-2.4,12.2-0.5,16.1,6c3.1,5,5.6,10.4,8.5,15.6c24.2,43.6,57.4,78.8,100,105c27.8,17.2,57.9,28.9,89.9,35.4
		c26.5,5.4,53.3,6.9,80.2,4.5c45.7-4.1,87.9-18.5,126.5-43.3c39.4-25.3,70.4-58.6,93.1-99.6c15.7-28.3,26.1-58.6,31.2-90.5
		c3.8-23.8,4.6-47.7,2.1-71.8c-5.6-53.9-25-102.4-58.6-144.8c-37-46.7-84.3-78.3-141.5-95c-30.6-8.9-61.8-12.4-93.6-10.4
		c-61.5,3.9-116,25.4-163.1,65C82.1,221.8,52.2,269.6,37,326.5c-8.2,30.7-10.6,61.9-8.5,93.5c0.5,7.9,2,15.7,2.9,23.6
		c0.3,2.3,0.4,4.6,0.3,6.9c-0.1,11.1-12.1,14.7-18.8,11.7c-3.9-1.8-5.5-5.6-6.3-9.4C5.3,446,4,439.1,3.3,432.2
		C2.2,421.4,1.7,410.6,1,399.9z"/>
	<path class="st4" d="M305.9,484.8c-7.9,0-13.6-7.8-11-15.4c0.3-1,1.2-2.2,2-2.4c0.7-0.1,1.9,0.9,2.6,1.7c0.9,0.9,1.5,2.2,2.5,3.1
		c1.6,1.3,3.6,1.4,4.9-0.1c0.7-0.9,0.7-2.7,0.5-4c-0.2-1.2-1.2-2.2-1.6-3.3c-0.3-0.7-0.6-2-0.2-2.3c0.6-0.5,1.7-0.8,2.6-0.6
		c5.8,1.1,10.2,7.1,9.6,12.8C317.1,480.5,312.2,484.8,305.9,484.8z"/>
</g>
</svg>
