<?xml version="1.0" encoding="utf-8"?>
<!-- Generator: Adobe Illustrator 26.0.1, SVG Export Plug-In . SVG Version: 6.00 Build 0)  -->
<svg version="1.1" id="Layer_1" xmlns="http://www.w3.org/2000/svg" xmlns:xlink="http://www.w3.org/1999/xlink" x="0px" y="0px"
	 viewBox="0 0 612 792" style="enable-background:new 0 0 612 792;" xml:space="preserve">
<style type="text/css">
	.st0{display:none;}
	.st1{fill:#EF1E0B;}
	.st2{fill:#E71A0A;}
	.st3{fill:#EA1B0A;}
	.st4{fill:#E81A0A;}
	.st5{fill:#E6190A;}
	.st6{fill:#E8190A;}
	.st7{fill:#EC1B0A;}
	.st8{fill:#E71909;}
	.st9{fill:#E81709;}
	.st10{fill:#E51809;}
	.st11{fill:#E91A0A;}
	.st12{fill:#EA1A0A;}
</style>
<g>
	<path class="st0" d="M-368,936c0-360,0-720,0-1080c449,0,898,0,1347,0c0,360,0,720,0,1080C530,936,81,936-368,936z M456.8,433.1
		c2.2,3.7,9.7,6.9,12.7,5.9c0.7-0.2,1.9-0.7,2-1.2c1.1-4.1,2-8.3,2.9-12.4c-0.6-0.3-1.1-0.5-1.7-0.8c-1.4,1.6-2.8,3.3-4.2,4.9
		c-2.4-2.4-3.6-6.6-8.8-5.1c1.3,2.8,2.4,5.3,3.8,8.3C460.9,432.9,459.2,433,456.8,433.1z M137.9,388.4c-4.9,0.2-9.2,3.7-10.7,8.6
		C132.4,396.7,136,393.9,137.9,388.4z M444,403.2c1.4,5.4,5.6,9.2,9.8,9.3C452.8,406.9,449.4,403.5,444,403.2z M158.9,371.7
		c-0.3-0.5-0.7-1.1-1-1.6c-3.8,2.5-7.6,5-11.4,7.5C152.3,379.1,156.3,376.7,158.9,371.7z M404,366.3c-0.5,0.8-1.1,1.5-1.6,2.3
		c3.4,2.4,6.8,4.9,10.2,7.3c0.2,0.2,1.4-0.4,1.5-0.8c0.2-0.6,0.3-1.8-0.1-2.1C410.8,370.6,407.4,368.5,404,366.3z M194.1,350.1
		c0.2,0.6,0.4,1.1,0.6,1.7c4.1-1.5,8.2-3,12.4-4.6C202.8,344.6,197.4,346.3,194.1,350.1z M433.8,393.6c0.1-6.6-4.7-10.1-10.7-8.6
		C427,388.2,430.4,390.9,433.8,393.6z M259.8,333.7c-0.1-0.7-0.2-1.4-0.2-2.1c-4.4,0.5-8.8,1.1-13.2,1.6c0.1,0.6,0.2,1.3,0.2,1.9
		C251.2,337.3,255.4,335,259.8,333.7z M182.4,358.4c-0.4-0.7-0.7-1.5-1.1-2.2c-3.5,1.6-7,3.2-10.5,4.9c-0.4,0.2-0.8,1.6-0.5,2
		c0.3,0.5,1.6,1,2,0.7C175.8,362.1,179.1,360.2,182.4,358.4z M391.3,360c0.3-0.5,0.6-1.1,0.8-1.6c-4.1-1.9-8.3-3.8-12.4-5.7
		C381.7,357.8,387.6,360.8,391.3,360z M368.4,346.3c-5.5-1.4-9.7-2.5-13.9-3.6c-0.1,0.5-0.2,1-0.4,1.4
		C360.9,348.7,363.9,349.5,368.4,346.3z M273,330.8c5.2,5.6,9.5,1.7,13.7,1.4c0-0.5,0-1,0-1.4C282.6,330.8,278.4,330.8,273,330.8z
		 M328.4,335c3.6,5.2,8.1,6.2,13.5,3C336.8,336.8,332.6,335.9,328.4,335z M300.4,330.8c4.4,4.9,9.3,5.3,14.1,1.5
		C309.7,331.8,305.6,331.4,300.4,330.8z M219.8,339.6c0.2,0.9,0.5,1.9,0.7,2.8c4.1-1.2,8.2-2.5,12.4-3.7c-0.2-0.8-0.5-1.6-0.7-2.4
		C228.1,337.4,223.9,338.5,219.8,339.6z"/>
	<path class="st1" d="M580.9,471.4c4.1-0.2,7.2-0.3,11.9-0.6c-2.4-5.3-4.5-9.7-6.7-14.6c9.1-2.7,11.3,4.7,15.5,9
		c2.4-2.8,4.9-5.7,7.4-8.6c1,0.5,2,0.9,3,1.4c-1.7,7.3-3.2,14.6-5.1,21.9c-0.3,1-2.2,1.7-3.5,2.1C598,483.6,584.8,477.8,580.9,471.4
		z"/>
	<path class="st2" d="M18.8,392.7c-3.3,9.6-9.7,14.6-18.8,15.1C2.5,399.3,10.1,392.9,18.8,392.7z"/>
	<path class="st3" d="M558.4,418.7c9.4,0.4,15.5,6.5,17.3,16.3C568.2,434.9,560.8,428.2,558.4,418.7z"/>
	<path class="st4" d="M55.8,363.1c-4.5,8.8-11.7,13.1-21.8,10.3c6.7-4.4,13.3-8.8,20-13.2C54.6,361.2,55.2,362.2,55.8,363.1z"/>
	<path class="st5" d="M487.9,353.6c5.9,3.9,11.9,7.6,17.8,11.7c0.7,0.5,0.6,2.6,0.2,3.7c-0.3,0.8-2.3,1.7-2.7,1.4
		c-6.1-4.2-12.1-8.5-18-12.8C486,356.3,486.9,355,487.9,353.6z"/>
	<path class="st6" d="M117.8,325.1c5.8-6.7,15.3-9.8,22.9-5.1c-7.3,2.7-14.5,5.4-21.8,8C118.6,327.1,118.2,326.1,117.8,325.1z"/>
	<path class="st7" d="M540.3,401.8c-6-4.8-11.9-9.6-18.9-15.2C532,383.9,540.4,390.1,540.3,401.8z"/>
	<path class="st6" d="M233.6,296.2c-7.6,2.2-15.1,6.3-23.4,2.6c-0.1-1.1-0.3-2.3-0.4-3.4c7.8-0.9,15.6-1.9,23.4-2.8
		C233.3,293.8,233.4,295,233.6,296.2z"/>
	<path class="st4" d="M97.2,339.7c-5.9,3.2-11.7,6.5-17.6,9.5c-0.8,0.4-3-0.4-3.6-1.3c-0.5-0.7,0.1-3.1,0.9-3.5
		c6.1-3.1,12.3-5.8,18.4-8.6C95.9,337.1,96.6,338.4,97.2,339.7z"/>
	<path class="st8" d="M465.4,342.5c-6.6,1.4-17-4-20.5-12.9c7.3,3.3,14.6,6.7,21.9,10C466.4,340.6,465.9,341.6,465.4,342.5z"/>
	<path class="st4" d="M425.1,318.3c-7.9,5.6-13.2,4.3-25.1-3.8c0.2-0.8,0.4-1.7,0.7-2.5C408,313.9,415.3,315.8,425.1,318.3z"/>
	<path class="st9" d="M256.9,291.1c9.6,0,16.9,0,24.2,0c0,0.8,0,1.7-0.1,2.5C273.6,294.1,266.1,300.9,256.9,291.1z"/>
	<path class="st10" d="M354.6,298.4c7.4,1.6,14.8,3.2,23.9,5.2C368.9,309.2,361,307.6,354.6,298.4z"/>
	<path class="st11" d="M305.2,291.1c9.2,1,16.4,1.8,24.8,2.7C321.6,300.4,312.9,299.6,305.2,291.1z"/>
	<path class="st12" d="M163.1,306.6c7.3-1.9,14.6-3.8,21.9-5.8c0.4,1.4,0.8,2.8,1.2,4.2c-7.3,2.2-14.5,4.3-21.8,6.5
		C164,309.9,163.6,308.2,163.1,306.6z"/>
</g>
</svg>
