<?xml version="1.0" encoding="utf-8"?>
<!-- Generator: Adobe Illustrator 26.0.1, SVG Export Plug-In . SVG Version: 6.00 Build 0)  -->
<svg version="1.1" id="Layer_1" xmlns="http://www.w3.org/2000/svg" xmlns:xlink="http://www.w3.org/1999/xlink" x="0px" y="0px"
	 viewBox="0 0 612 792" style="enable-background:new 0 0 612 792;" xml:space="preserve">
<style type="text/css">
	.st0{display:none;}
	.st1{fill:#FEFEFE;}
	.st2{fill:#898989;}
	.st3{fill:#8A8A8A;}
	.st4{fill:#3B3B3A;}
	.st5{display:none;fill:#010101;}
	.st6{display:none;fill:#030303;}
</style>
<g>
	<path class="st0" d="M612,139.5c0,171,0,342.1,0,513.1c-204,0-408,0-612,0c0-171,0-342,0-513.1C204.2,139.5,408.1,139.5,612,139.5z
		 M525.9,593.2c0.1-1.3,0.2-2.7,0.2-4c0-54,0-108,0.1-162c0-11.6,0.2-23.1-0.1-34.7c-0.2-6.1-1-9.1-6.6-10.2
		c-3.4-0.7-7.1-0.4-10.5,0.3c-3.6,0.8-5.7,4.5-5.7,8.2c0,37.2,0.1,74.4,0,111.6c-0.1,26.8-0.3,53.6-0.5,80.4c0,1.9-0.3,4-1.1,5.7
		c-1.7,3.5-5.4,3.7-8.6,3.7c-50.3,0.1-100.6,0.1-150.9,0.1c-51.8,0-103.6,0.1-155.4,0c-23.2,0-46.3-0.3-69.5-0.5
		c-6.9-0.1-9.3-2.4-9.4-8.7c0-3.6-0.1-7.3-0.1-10.9c0-84.5,0-169,0-253.5c0-30.5,0.1-61,0.1-91.4c0-3.4,3.3-8.5,6.1-8.9
		c5-0.7,10.1-1.7,15.2-1.7c64.1-0.2,128.3-0.1,192.4-0.2c14.1,0,28.1-0.2,42.2-0.4c2.5,0,5-0.7,7.4-1.3c2.3-0.5,3.9-2,4.1-4.3
		c0.4-3.2,0.7-6.4,0.5-9.6c-0.1-2.3-1.1-4.7-3.7-5.5c-1.9-0.6-4-1-6-1c-6.7-0.3-13.4-0.6-20.1-0.6c-26-0.1-51.9-0.2-77.9-0.2
		c-24.2,0-48.4,0-72.7,0c-22.5,0-45,0-67.4,0.2c-11.3,0.1-22.6-0.2-33.8,1.5c-4.4,0.7-6.5,3.7-8.9,6.7c-0.3,0.3-0.3,0.9-0.3,1.3
		c-0.1,3.5-0.3,7-0.3,10.4c0,100.5,0,201,0,301.4c0,29.9,0.2,59.9,0.3,89.8c0,6.2,2.5,9.2,8,9.9c2.6,0.3,5.2,0.5,7.8,0.5
		c8.2,0.1,16.3,0.1,24.5,0.1c80.4,0,160.7,0,241.1,0c49.3,0,98.7,0,148-0.1c2.2,0,4.5-0.7,6.6-1.4c2.7-0.9,4-3,4.1-5.8
		c0.2-4.2,0.3-8.5,0.5-12.7C525.7,594.5,525.8,593.8,525.9,593.2z M508,172c-1.5,0.3-3.3,0.3-4.5,1.1c-2.8,1.7-5.7,3.6-8,5.9
		c-22.2,22-44.3,44.1-66.4,66.2c-45.3,45.3-90.6,90.6-135.9,135.9c-1.6,1.6-2.9,3.6-4,5.5c-1.7,3.2-3.2,6.5-4.6,9.8
		c-4,9.8-8.1,19.6-11.7,29.6c-2.7,7.5-4.8,15.3-7.1,22.9c-0.2,0.5-0.1,1.4,0.3,1.7c0.3,0.3,1.1,0.2,1.6,0.1
		c8.1-2.4,16.3-4.6,24.4-7.3c12.3-4.2,24.6-8.6,36.8-13.1c2.9-1.1,6-2.5,8.1-4.6c19.1-18.8,37.9-37.8,56.9-56.7
		c43.6-43.6,87.2-87.2,130.8-130.8c6-6,12.1-11.9,17.7-18.2c5.4-6.1,5.8-11.3,0.2-17.5c-8.2-9-17-17.5-25.7-26
		C514.5,174.2,511.8,172,508,172z"/>
	<path class="st1" d="M612,139.5c-203.9,0-407.8,0-612,0c0,171.1,0,342.1,0,513.1c-0.2-0.1-0.4-0.1-0.5-0.2c0-0.6,0-1.3,0-1.9
		c0-170.4,0-340.9,0-511.4c1.4,0,2.8,0,4.2,0c202.1,0,404.1,0,606.2,0C610.6,139,611.3,139.3,612,139.5z"/>
	<path class="st2" d="M525.6,595.1c-0.2,4.2-0.3,8.5-0.5,12.7c-0.1,2.8-1.4,4.9-4.1,5.8c-2.1,0.7-4.4,1.4-6.6,1.4
		c-49.3,0.1-98.7,0.1-148,0.1c-80.4,0-160.7,0-241.1,0c-8.2,0-16.3,0-24.5-0.1c-2.6,0-5.2-0.2-7.8-0.5c-5.5-0.7-8-3.7-8-9.9
		c-0.1-29.9-0.3-59.9-0.3-89.8c0-100.5,0-201,0-301.4c0-3.5,0.2-7,0.3-10.4c0-0.5,0-1,0.3-1.3c2.4-3,4.4-6,8.9-6.7
		c11.2-1.7,22.5-1.4,33.8-1.5c22.5-0.2,45-0.2,67.4-0.2c24.2,0,48.4,0,72.7,0c26,0,51.9,0.1,77.9,0.2c6.7,0,13.4,0.3,20.1,0.6
		c2,0.1,4.1,0.4,6,1c2.5,0.8,3.5,3.2,3.7,5.5c0.2,3.2-0.1,6.4-0.5,9.6c-0.3,2.3-1.8,3.8-4.1,4.3c-2.5,0.5-4.9,1.2-7.4,1.3
		c-14.1,0.2-28.1,0.4-42.2,0.4c-64.1,0.1-128.3,0.1-192.4,0.2c-5.1,0-10.2,1-15.2,1.7c-2.8,0.4-6.1,5.5-6.1,8.9
		c0,30.5-0.1,61-0.1,91.4c0,84.5,0,169,0,253.5c0,3.6,0,7.3,0.1,10.9c0.1,6.3,2.5,8.6,9.4,8.7c23.2,0.2,46.3,0.5,69.5,0.5
		c51.8,0.1,103.6,0,155.4,0c50.3,0,100.6,0,150.9-0.1c3.2,0,6.9-0.1,8.6-3.7c0.8-1.7,1.1-3.8,1.1-5.7c0.2-26.8,0.4-53.6,0.5-80.4
		c0.1-37.2,0-74.4,0-111.6c0-3.7,2.1-7.4,5.7-8.2c3.4-0.7,7.1-1,10.5-0.3c5.6,1.1,6.4,4.1,6.6,10.2c0.3,11.6,0.1,23.1,0.1,34.7
		c0,54,0,108-0.1,162c0,1.3-0.1,2.7-0.2,4C525.8,593.8,525.7,594.5,525.6,595.1z"/>
	<path class="st3" d="M508,172c3.8,0,6.6,2.2,8.9,4.5c8.7,8.6,17.4,17.1,25.7,26c5.6,6.1,5.2,11.4-0.2,17.5
		c-5.6,6.3-11.7,12.2-17.7,18.2c-43.6,43.6-87.2,87.2-130.8,130.8C374.9,388,356,407,337,425.7c-2.2,2.1-5.2,3.5-8.1,4.6
		c-12.2,4.5-24.5,9-36.8,13.1c-8,2.7-16.2,4.9-24.4,7.3c-0.5,0.2-1.4,0.2-1.6-0.1c-0.3-0.4-0.4-1.2-0.3-1.7
		c2.3-7.7,4.4-15.4,7.1-22.9c3.6-10,7.7-19.7,11.7-29.6c1.4-3.3,2.9-6.6,4.6-9.8c1.1-2,2.4-4,4-5.5c45.3-45.3,90.6-90.6,135.9-135.9
		c22.1-22.1,44.2-44.2,66.4-66.2c2.3-2.3,5.2-4.1,8-5.9C504.7,172.3,506.4,172.3,508,172z M492.6,238.1c-0.7-1-1.2-1.9-1.9-2.6
		c-2.6-2.7-5.2-5.3-7.9-7.9c-3.7-3.6-3.3-4.1-8.5-0.2c-0.1,0-0.1,0.1-0.2,0.2c-7.4,7.2-14.9,14.4-22.3,21.7
		c-39.4,39.4-78.8,78.8-118.1,118.2c-3.3,3.3-6.1,7-9.2,10.5c-1.1,1.3-0.8,2.5,0.3,3.6c3.5,3.6,7,7.1,10.6,10.6c1,1,2.2,1.2,3.4,0.2
		c3.6-3.1,7.5-6.1,10.9-9.5c38.7-38.6,77.4-77.3,116.1-115.9c7.8-7.8,15.5-15.8,23.2-23.8C490.3,241.7,491.3,239.9,492.6,238.1z
		 M519.9,212.4c-0.3-0.4-0.5-0.9-0.8-1.2c-4.3-4.4-8.7-8.7-13.1-13.1c-1.2-1.2-2.2-0.9-3.3,0.1c-3.1,3.1-6.3,6.2-9.3,9.4
		c-0.4,0.4-0.5,1.7-0.2,2.1c4.4,4.5,8.9,9,13.4,13.4c1.1,1.1,2,0.8,3-0.2c3-3.1,6.1-6.2,9.2-9.2
		C519.2,213.4,519.5,212.9,519.9,212.4z M289.2,427.4c0.9-0.2,1.4-0.3,1.9-0.5c9.2-4.8,18.4-9.5,27.5-14.3c1.6-0.8,1.5-2,0.4-3.1
		c-3.9-4-7.9-8-11.9-11.9c-1.2-1.2-2.2-1-3,0.5c-0.7,1.3-1.3,2.7-2,4C298,410.5,293.7,418.7,289.2,427.4z"/>
	<path class="st4" d="M525.6,595.1c0.1-0.6,0.2-1.3,0.3-1.9C525.8,593.8,525.7,594.5,525.6,595.1z"/>
	<path class="st5" d="M492.6,238.1c-1.3,1.8-2.3,3.6-3.7,5c-7.7,8-15.4,15.9-23.2,23.8c-38.7,38.7-77.3,77.3-116.1,115.9
		c-3.4,3.4-7.2,6.3-10.9,9.5c-1.2,1-2.3,0.8-3.4-0.2c-3.6-3.5-7.1-7-10.6-10.6c-1-1-1.4-2.3-0.3-3.6c3-3.5,5.9-7.2,9.2-10.5
		c39.3-39.5,78.7-78.9,118.1-118.2c7.3-7.3,14.8-14.5,22.3-21.7c0.1-0.1,0.1-0.1,0.2-0.2c5.2-4,4.8-3.5,8.5,0.2
		c2.6,2.6,5.3,5.2,7.9,7.9C491.4,236.2,491.9,237.1,492.6,238.1z"/>
	<path class="st6" d="M519.9,212.4c-0.4,0.5-0.7,1-1,1.3c-3.1,3.1-6.2,6.1-9.2,9.2c-1,1-1.9,1.3-3,0.2c-4.5-4.5-9-8.9-13.4-13.4
		c-0.3-0.3-0.2-1.7,0.2-2.1c3-3.2,6.2-6.3,9.3-9.4c1.1-1.1,2.1-1.3,3.3-0.1c4.4,4.4,8.7,8.7,13.1,13.1
		C519.4,211.6,519.6,212,519.9,212.4z"/>
	<path class="st6" d="M289.2,427.4c4.5-8.7,8.7-17,13-25.2c0.7-1.3,1.3-2.7,2-4c0.8-1.5,1.8-1.7,3-0.5c4,4,8,7.9,11.9,11.9
		c1.1,1.1,1.2,2.2-0.4,3.1c-9.2,4.8-18.4,9.6-27.5,14.3C290.7,427.2,290.1,427.2,289.2,427.4z"/>
</g>
</svg>
