<?xml version="1.0" encoding="utf-8"?>
<!-- Generator: Adobe Illustrator 26.0.1, SVG Export Plug-In . SVG Version: 6.00 Build 0)  -->
<svg version="1.1" id="Layer_1" xmlns="http://www.w3.org/2000/svg" xmlns:xlink="http://www.w3.org/1999/xlink" x="0px" y="0px"
	 viewBox="0 0 612 792" style="enable-background:new 0 0 612 792;" xml:space="preserve">
<style type="text/css">
	.st0{display:none;fill:#010101;}
	.st1{fill:#FEFEFE;}
	.st2{fill:#8D8D8C;}
	.st3{fill:#8D8D8D;}
	.st4{fill:#858585;}
	.st5{fill:#6F6F6F;}
	.st6{fill:#7D7D7D;}
	.st7{fill:#7E7E7E;}
	.st8{fill:#6C6C6C;}
	.st9{fill:#747474;}
	.st10{fill:#818281;}
	.st11{fill:#636363;}
	.st12{fill:#373737;}
	.st13{fill:#393938;}
	.st14{fill:#696969;}
	.st15{fill:#676767;}
	.st16{fill:#6A6A6A;}
	.st17{fill:#8A8A89;}
	.st18{fill:#656565;}
	.st19{fill:#646464;}
	.st20{fill:#757575;}
	.st21{fill:#555555;}
	.st22{fill:#444443;}
	.st23{fill:#464646;}
	.st24{fill:#585858;}
</style>
<g>
	<path class="st0" d="M0,139c203.8,0,407.6,0,611.3,0c0,170.8,0,341.7,0,512.5c-203.7,0-407.5,0-611.3,0C0,480.5,0,309.7,0,139z
		 M565.5,224.8c-0.1-0.4-0.1-0.8-0.2-1.3c0-1,0-1.9,0-2.9c-0.2-5.6-1-10.9-4.3-15.7c-1.2-1.5-2.5-2.9-3.7-4.4c-2.8-2.8-6.2-4.6-10-5
		c-9.6-1-19.3-2.2-29-2.3c-27.6-0.5-55.2-0.6-82.8-0.7c-94.5-0.1-189,0-283.5,0c-27.4,0-54.7-0.4-82,1.9c-6,0.5-11.8,1.9-16.4,6.4
		c-1.1,1.3-2.1,2.7-3.2,4c-3.4,4.7-3.9,10.2-4.5,15.7c-0.2,3.2-0.5,6.3-0.7,9.5c0,0.3,0,0.6-0.1,0.9c0,0.3,0,0.6,0,0.9
		c-0.1,3-0.3,6-0.4,9c0,1.1,0,2.2-0.1,3.3c-0.1,2.1-0.1,4.1-0.2,6.2c-0.2,12.1-0.5,24.2-0.6,36.3c-0.1,63.8-0.1,127.5-0.2,191.3
		c0,12.2,0.1,24.5,0.1,36.7c0,6.3,0,12.6,0,19c0.2,6.7,0.1,13.5,0.6,20.2c0.3,3.3,1.7,6.4,2.6,9.7c0.8,1.3,1.6,2.6,2.4,4
		c0,0.2,0.1,0.3,0.2,0.3c0.2,0.2,0.4,0.5,0.6,0.7c0.9,0.9,1.7,1.9,2.6,2.7c4.5,3.8,9.9,5.6,15.5,6c11.3,0.9,22.7,1.6,34.1,1.7
		c41.7,0.3,83.4,0.3,125,0.3c71.6,0,143.1,0.1,214.7,0c27.8,0,55.7-0.3,83.5-0.7c8.1-0.1,16.3-0.4,24.2-2.9
		c4.8-1.5,9.2-3.8,12.1-8.2c0.7-1.1,1.5-2.3,2.2-3.4c3.2-5.8,3.1-12.2,3.2-18.6c0.1-4.1,0.2-8.2,0.2-12.4c0-6.3,0-12.7,0-19
		c0-0.7,0.1-1.4,0.1-2.1c-0.1-77.3-0.2-154.6-0.3-231.8c0-10-0.3-19.9-0.4-29.9c-0.1-2.4-0.1-4.8-0.2-7.1c0-0.6,0-1.3,0-1.9
		c-0.1-3.2-0.3-6.3-0.4-9.5C566,229.6,565.7,227.2,565.5,224.8z"/>
	<path class="st1" d="M0,139c0,170.7,0,341.5,0,512.5c203.8,0,407.6,0,611.3,0c-0.1,0.2-0.1,0.4-0.2,0.5c-0.6,0-1.3,0-1.9,0
		c-203.2,0-406.4,0-609.7,0c0-1.1,0-2.3,0-3.4c0-169.1,0-338.3,0-507.4C-0.5,140.4-0.2,139.7,0,139z"/>
	<path class="st2" d="M53.5,201c4.5-4.5,10.3-5.9,16.4-6.4c27.3-2.3,54.7-1.9,82-1.9c94.5-0.1,189-0.1,283.5,0
		c27.6,0,55.2,0.2,82.8,0.7c9.7,0.2,19.4,1.3,29,2.3c3.8,0.4,7.2,2.2,10,5c-0.3,1-0.4,2.3-1,3.1c-2.8,3.6-5.8,7.1-8.7,10.8
		c-2.4,3.1-4.7,6.2-7.1,9.3c-0.5-0.3-1.1-0.6-1.6-0.8c-3.8-3.3-8.2-5.4-13-6.6c-10.4-2.6-21-2.8-31.6-2.8
		c-31.3,0.1-62.6,0.7-93.9,0.8c-79.9,0.4-159.7,0.6-239.6-0.7c-21.7-0.4-43.5-1-65.2,0.9c-8.5,0.8-16.5,2.7-23.2,8.4
		c-0.2,0.1-0.5,0.1-0.7,0.2c-1.1-0.9-2.3-1.6-3.2-2.6c-4.7-5.7-9.3-11.4-14-17.2C54,202.6,53.9,201.7,53.5,201z"/>
	<path class="st3" d="M561.9,567.7c-2.9,4.4-7.2,6.7-12.1,8.2c-7.9,2.5-16,2.8-24.2,2.9c-27.8,0.3-55.7,0.6-83.5,0.7
		c-71.6,0.1-143.1,0.1-214.7,0c-41.7,0-83.4-0.1-125-0.3c-11.4-0.1-22.7-0.8-34.1-1.7c-5.6-0.5-11-2.3-15.5-6
		c-1-0.8-1.8-1.8-2.6-2.7c-0.2-0.2-0.4-0.5-0.6-0.7c-0.2,0-0.2-0.1-0.2-0.3c0.6-0.4,1.2-0.8,1.6-1.3c4.4-5.3,8.8-10.6,13.2-15.9
		c0.6-0.7,1.5-1,2.3-1.6c1.2,1.1,2.5,2.2,3.7,3.3c6.5,5.4,14.3,7.7,22.3,8.5c9.8,1.1,19.7,1.6,29.6,1.6c34.6-0.2,69.1-1.2,103.7-1.2
		c70.9,0,141.7,0.5,212.6,0.7c24.3,0.1,48.6,0.4,72.8-0.2c12.6-0.3,24.8-3.4,34.1-13.2c3.3,4,6.6,8,10,12
		C557.3,562.9,559.6,565.3,561.9,567.7z"/>
	<path class="st4" d="M43.8,514.8c0-12.2-0.1-24.5-0.1-36.7c0-63.8,0.1-127.5,0.2-191.3c0-12.1,0.4-24.2,0.6-36.3
		c1,0.4,2.2,0.6,3,1.2c3.2,2.4,6.3,5.1,9.6,7.5c2.4,1.8,5,3.4,7.5,5c0,0.8,0.1,1.6,0.1,2.4c-0.1,69.9-0.2,139.9-0.3,209.8
		c0,9.2-0.5,18.3-0.7,27.5c-3.7,2.1-7.4,4.2-11.1,6.2C49.5,511.7,46.6,513.3,43.8,514.8z"/>
	<path class="st4" d="M566.9,250.5c0.1,10,0.4,19.9,0.4,29.9c0.1,77.3,0.2,154.6,0.3,231.8c0,0.7-0.1,1.4-0.1,2.1
		c-1-0.3-2.2-0.4-3.1-0.9c-2.7-1.5-5.3-3.3-8.1-4.8c-2.8-1.6-5.7-3.1-8.5-4.7c0-0.4-0.1-0.8-0.1-1.2c-0.3-17.4-0.8-34.8-0.9-52.1
		c-0.1-49.9-0.1-99.9-0.1-149.8c0-12.2,0.1-24.3,0.2-36.5c0.7-0.3,1.5-0.5,2.1-0.9c3.2-2.4,6.3-4.9,9.5-7.2
		C561.2,254.2,564.1,252.4,566.9,250.5z"/>
	<path class="st5" d="M47,563.7c-0.9-3.2-2.3-6.4-2.6-9.7c-0.5-6.7-0.5-13.5-0.6-20.2c2.4-1.7,4.8-3.4,7.2-5.2
		c3.8-2.8,7.7-5.7,11.5-8.6c-0.1,1.6-0.2,3.1-0.3,4.7c-0.2,2.3-0.2,4.7-0.7,7c-0.9,4.8-0.3,9.2,2,13.4c-0.6,0.4-1.4,0.7-1.9,1.2
		c-4.1,5.1-8.1,10.2-12.1,15.3C48.9,562.6,47.9,563.1,47,563.7z"/>
	<path class="st5" d="M45.8,220.6c0.6-5.5,1.1-11,4.5-15.7c0.8,0.5,1.7,0.9,2.2,1.6c2.5,3.1,4.9,6.4,7.3,9.5
		c2.8,3.5,5.7,6.9,8.5,10.3c-2.6,3.7-3.8,7.8-4,12.3c-0.7-0.4-1.7-0.6-2.2-1.2c-4.9-5.3-9.7-10.7-14.6-16
		C47.2,221,46.4,220.9,45.8,220.6z"/>
	<path class="st5" d="M561,205c3.3,4.7,4.1,10.1,4.3,15.7c-0.7,0.3-1.6,0.4-2,0.9c-3.5,3.9-6.9,7.8-10.5,11.7
		c-1.9,2-3.9,3.9-5.9,5.9c-0.1-4.6-1.2-9-4-12.8c0.5-0.4,1.1-0.7,1.4-1.2c4.2-5.3,8.2-10.7,12.5-15.9C558,207.7,559.5,206.4,561,205
		z"/>
	<path class="st6" d="M566.9,250.5c-2.8,1.9-5.7,3.7-8.4,5.6c-3.2,2.3-6.3,4.8-9.5,7.2c-0.6,0.4-1.4,0.6-2.1,0.9
		c0-5.2,0-10.4,0.1-15.7c0.7-0.4,1.6-0.7,2.2-1.2c4.9-4.7,9.8-9.5,14.8-14.2c0.6-0.6,1.6-0.8,2.4-1.2c0.1,3.2,0.3,6.3,0.4,9.5
		c0,0.6,0,1.3,0,1.9C566.8,245.8,566.8,248.2,566.9,250.5z"/>
	<path class="st6" d="M64.4,264.3c-2.5-1.7-5.1-3.2-7.5-5c-3.2-2.4-6.3-5.1-9.6-7.5c-0.8-0.6-2-0.8-3-1.2c0.1-2.1,0.1-4.1,0.2-6.2
		c0-1.1,0-2.2,0.1-3.3c0.1-3,0.3-6,0.4-9c0.9,0.5,1.9,0.8,2.6,1.4c4.9,4.7,9.8,9.5,14.8,14.2c0.5,0.5,1.3,0.7,2,1
		C64.4,253.9,64.4,259.1,64.4,264.3z"/>
	<path class="st7" d="M547.8,503.9c2.9,1.6,5.7,3.1,8.5,4.7c2.7,1.6,5.3,3.3,8.1,4.8c0.9,0.5,2.1,0.6,3.1,0.9c0,6.3,0,12.7,0,19
		c-0.7-0.2-1.6-0.3-2.1-0.7c-1.7-1.2-3.3-2.7-5-3.9c-3.8-2.9-7.7-5.8-11.6-8.7C548.5,514.7,548.2,509.3,547.8,503.9z"/>
	<path class="st7" d="M62.5,520.1c-3.8,2.9-7.7,5.7-11.5,8.6c-2.4,1.8-4.8,3.5-7.2,5.2c0-6.3,0-12.6,0-19c2.9-1.6,5.7-3.1,8.6-4.7
		c3.7-2.1,7.4-4.1,11.1-6.2C63.1,509.3,62.8,514.7,62.5,520.1z"/>
	<path class="st8" d="M567.3,545.7c-0.1,6.4,0,12.7-3.2,18.6c-0.4-0.4-0.9-0.7-1.2-1.1c-4.4-5.6-8.8-11.2-13.3-16.7
		c-0.5-0.6-1.3-0.8-1.9-1.2c0.8-2.4,1.9-4.8,2.3-7.3c0.3-2.4-0.1-4.9-0.2-7.4c0.6,0.4,1.2,0.7,1.7,1.2c4.4,4.2,8.8,8.5,13.2,12.7
		C565.4,545,566.4,545.3,567.3,545.7z"/>
	<path class="st9" d="M64.3,248.6c-0.7-0.3-1.5-0.5-2-1c-4.9-4.7-9.8-9.5-14.8-14.2c-0.7-0.6-1.7-0.9-2.6-1.4c0-0.3,0-0.6,0-0.9
		c0-0.3,0-0.6,0.1-0.9c0.2-3.2,0.5-6.3,0.7-9.5c0.6,0.3,1.4,0.4,1.8,0.8c4.9,5.3,9.7,10.7,14.6,16c0.5,0.6,1.4,0.8,2.2,1.2
		c0,0.5,0.1,0.9,0.1,1.4C64.5,242.9,64.4,245.8,64.3,248.6z"/>
	<path class="st9" d="M566.2,232c-0.8,0.4-1.8,0.6-2.4,1.2c-4.9,4.7-9.8,9.5-14.8,14.2c-0.6,0.6-1.4,0.8-2.2,1.2
		c-0.1-2.8-0.1-5.7-0.2-8.5c0-0.3,0.1-0.6,0.1-1c2-2,4-3.9,5.9-5.9c3.5-3.9,6.9-7.8,10.5-11.7c0.5-0.5,1.3-0.6,2-0.9
		c0,1,0,1.9,0,2.9c0.1,0.4,0.1,0.8,0.2,1.3C565.7,227.2,566,229.6,566.2,232z"/>
	<path class="st9" d="M567.3,545.7c-0.9-0.4-1.9-0.7-2.6-1.4c-4.5-4.2-8.8-8.5-13.2-12.7c-0.5-0.5-1.1-0.8-1.7-1.2
		c-0.2-1.9-0.4-3.8-0.7-5.7c-0.1-1.6-0.2-3.1-0.3-4.7c3.9,2.9,7.7,5.8,11.6,8.7c1.7,1.3,3.3,2.7,5,3.9c0.6,0.4,1.4,0.5,2.1,0.7
		C567.4,537.5,567.3,541.6,567.3,545.7z"/>
	<path class="st10" d="M561,205c-1.4,1.4-3,2.7-4.2,4.2c-4.2,5.3-8.3,10.6-12.5,15.9c-0.4,0.5-1,0.8-1.4,1.2
		c-0.8-0.9-1.6-1.8-2.4-2.7c2.4-3.1,4.6-6.3,7.1-9.3c2.9-3.6,5.9-7.1,8.7-10.8c0.6-0.8,0.7-2,1-3.1C558.5,202,559.7,203.5,561,205z"
		/>
	<path class="st10" d="M68.4,226.4c-2.8-3.4-5.7-6.8-8.5-10.3c-2.5-3.1-4.8-6.4-7.3-9.5c-0.6-0.7-1.5-1.1-2.2-1.6
		c1.1-1.3,2.1-2.7,3.2-4c0.3,0.8,0.5,1.7,1,2.3c4.6,5.8,9.2,11.5,14,17.2c0.9,1,2.1,1.8,3.2,2.6C70.6,224.1,69.5,225.3,68.4,226.4z"
		/>
	<path class="st10" d="M47,563.7c0.9-0.6,1.9-1.2,2.5-2c4.1-5.1,8.1-10.2,12.1-15.3c0.5-0.6,1.3-0.8,1.9-1.2
		c0.6,0.6,1.2,1.3,1.8,1.9c0.4,0.6,0.7,1.2,1.1,1.9c-0.8,0.5-1.7,0.9-2.3,1.6c-4.4,5.3-8.8,10.6-13.2,15.9c-0.4,0.5-1.1,0.9-1.6,1.3
		C48.6,566.4,47.8,565,47,563.7z"/>
	<path class="st10" d="M547.7,545.2c0.6,0.4,1.5,0.7,1.9,1.2c4.5,5.6,8.9,11.2,13.3,16.7c0.3,0.4,0.8,0.7,1.2,1.1
		c-0.7,1.1-1.5,2.3-2.2,3.4c-2.2-2.4-4.6-4.7-6.7-7.2c-3.4-3.9-6.6-8-10-12c0-0.1,0-0.3,0.1-0.4
		C546.1,547.1,546.9,546.2,547.7,545.2z"/>
	<path class="st11" d="M44.7,241c0,1.1,0,2.2-0.1,3.3C44.6,243.3,44.6,242.1,44.7,241z"/>
	<path class="st11" d="M566.7,243.4c0-0.6,0-1.3,0-1.9C566.6,242.1,566.7,242.8,566.7,243.4z"/>
	<path class="st11" d="M565.5,224.8c-0.1-0.4-0.1-0.8-0.2-1.3C565.3,223.9,565.4,224.3,565.5,224.8z"/>
	<path class="st11" d="M45.1,230.1c0,0.3,0,0.6-0.1,0.9C45.1,230.8,45.1,230.4,45.1,230.1z"/>
	<path class="st10" d="M49.6,568c0.2,0.2,0.4,0.5,0.6,0.7C50,568.5,49.8,568.2,49.6,568z"/>
	<path class="st0" d="M72.4,222.9c6.7-5.7,14.8-7.6,23.2-8.4c21.7-1.9,43.5-1.3,65.2-0.9c79.9,1.4,159.7,1.1,239.6,0.7
		c31.3-0.1,62.6-0.7,93.9-0.8c10.6,0,21.2,0.2,31.6,2.8c4.8,1.2,9.2,3.4,13,6.6c-0.7,0.7-1.4,1.3-2.1,2c-0.5,0.4-1,0.8-1.4,1.2
		c-1.7,1.3-3.4,2.7-5.2,4c-1.9,1.6-3.8,3.2-5.6,4.8c-1.3,1.1-2.6,2.2-3.9,3.2c-0.6,0.5-1.2,1-1.8,1.5c-0.9,0.7-1.8,1.3-2.6,2
		c-5.5,4.7-11,9.4-16.6,14c-5.8,4.8-11.7,9.5-17.6,14.3c-4.6,3.7-9.2,7.5-13.7,11.3c-2.1,1.8-4.1,3.7-6.2,5.6l0,0
		c-0.6,0.3-1.2,0.7-1.7,1c-0.5,0.5-0.9,1-1.4,1.5c-0.6,0.4-1.3,0.9-1.9,1.3c-0.3,0.3-0.6,0.7-0.9,1c-0.3,0.2-0.6,0.3-1,0.5
		c-0.3,0.3-0.6,0.6-1,0.9c-0.8,0.6-1.6,1.3-2.4,1.9c-1.3,1.1-2.5,2.2-3.8,3.2c-0.7,0.6-1.3,1.3-2,1.9c0,0-0.1,0-0.1,0
		c-0.6,0.3-1.2,0.7-1.7,1c-1.6,1.4-3.2,2.9-4.7,4.3c-0.3,0.2-0.6,0.3-1,0.5c-18.5,15.4-37.1,30.7-55.6,46.1
		c-8.4,6.9-16.7,13.9-25.1,20.9c-2.3,1.9-4.6,3.8-7,5.8c-1.1,0.9-2.2,1.8-3.3,2.6c-7.5,5.5-14.9,11.3-22.7,16.3
		c-7.2,4.7-15.2,7.4-24.1,5.8c-6.5-1.2-12.4-4-17.7-7.8c-8-5.6-15.7-11.7-23.5-17.6c-2.7-2.1-5.3-4.3-8-6.4c-0.6-0.7-1.2-1.4-1.9-2
		c-29.3-24.1-58.5-48.2-87.8-72.3c-6.4-5.2-12.7-10.5-19.1-15.7c-4.4-3.7-8.9-7.3-13.3-11c-4.9-4.1-9.9-8.3-14.8-12.5
		c-0.5-0.4-0.9-0.7-1.4-1.1c-2.2-1.8-4.4-3.7-6.7-5.5c-0.4-0.4-0.9-0.9-1.3-1.3c-8.2-6.7-16.4-13.4-24.6-20.1
		c-1.5-1.2-3-2.5-4.4-3.7c-0.8-0.6-1.6-1.3-2.4-1.9C73.5,223.9,72.9,223.4,72.4,222.9z"/>
	<path class="st12" d="M536.7,224.9c0.7-0.7,1.4-1.3,2.1-2c0.5,0.3,1.1,0.6,1.6,0.8c0.8,0.9,1.6,1.8,2.4,2.7c2.8,3.8,3.8,8.1,4,12.8
		c0,0.3-0.1,0.6-0.1,1c-1.6,1.1-3.1,2.2-4.7,3.4c-0.7-4.2-1.2-8.5-2.2-12.6C539.3,228.7,537.8,226.9,536.7,224.9z"/>
	<path class="st12" d="M72.4,222.9c0.5,0.5,1.1,1,1.6,1.6c-1,1.6-2.4,3.1-2.8,4.8c-1.2,4.4-2,8.9-2.9,13.3c-1.3-0.8-2.5-1.6-3.8-2.4
		c0-0.5-0.1-0.9-0.1-1.4c0.2-4.5,1.3-8.6,4-12.3c1.1-1.1,2.2-2.2,3.3-3.3C71.9,223,72.2,222.9,72.4,222.9z"/>
	<path class="st0" d="M545.3,548.1c-0.1,0.1-0.1,0.3-0.1,0.4c-9.3,9.8-21.4,12.9-34.1,13.2c-24.3,0.6-48.5,0.3-72.8,0.2
		c-70.9-0.2-141.7-0.7-212.6-0.7c-34.6,0-69.1,1-103.7,1.2c-9.9,0.1-19.8-0.5-29.6-1.6c-8-0.9-15.8-3.2-22.3-8.5
		c-1.3-1.1-2.5-2.2-3.7-3.3c-0.4-0.6-0.7-1.2-1.1-1.9c0.8-0.9,1.7-1.9,2.5-2.8c0.6-0.6,1.3-1.1,1.9-1.7c1.3-1,2.6-2,3.9-3
		c3.5-2.7,6.9-5.5,10.4-8.2c5.4-4.4,10.8-8.9,16.2-13.4c5.2-4.2,10.5-8.3,15.7-12.5c20.4-16.6,40.8-33.2,61.2-49.8
		c23.4-19.1,46.8-38.1,70.2-57.2c1.3-1.1,2.8-1.9,4.3-2.8c5.4,4.3,10.8,8.7,16.3,13c9.8,7.5,21,11.9,33.2,13.5
		c12.2,1.6,23.5-2.1,33.7-8.1c8.9-5.2,16.7-12.1,24.9-18.3c0.7,0.4,1.6,0.7,2.2,1.2c5.3,4.3,10.6,8.5,15.8,12.8
		c17.1,13.9,34.1,27.8,51.2,41.8c6.8,5.5,13.6,11,20.4,16.5c6.8,5.5,13.7,11,20.5,16.5c0.3,0.3,0.7,0.6,1,0.8c1.2,1,2.5,2,3.7,3
		c2.6,2.2,5.2,4.4,7.8,6.5c17,13.8,34,27.6,51,41.4c1.8,1.4,3.5,2.9,5.3,4.3c1.1,0.8,2.2,1.7,3.3,2.5c0.5,0.4,1,0.8,1.5,1.2
		C544,545.6,544.7,546.8,545.3,548.1z"/>
	<path class="st0" d="M64.5,240.1c1.3,0.8,2.5,1.6,3.8,2.4c1.6,1.4,3.2,2.8,4.8,4.2c1.9,1.6,3.8,3.2,5.7,4.8
		c0.7,0.7,1.4,1.5,2.2,2.1c5.5,4.6,11,9.3,16.5,13.9c13.2,11.1,26.5,22.3,39.7,33.4c15.4,12.9,30.8,25.8,46.1,38.7
		c14.7,12.3,29.3,24.6,43.9,36.9c2.4,2,4.6,4.2,6.8,6.4c-5.7,4.6-11.3,9.2-17,13.9c-7.1,5.9-14.1,11.8-21.2,17.7
		c-0.6,0.5-1.2,1-1.9,1.6c-1.4,1.2-2.8,2.3-4.3,3.5c-1,0.8-2,1.5-3,2.3c-16.6,13.7-33.1,27.4-49.7,41
		c-14.6,12.1-29.2,24.2-43.8,36.3c-5.4,4.5-10.7,9.1-16.1,13.6c-1.7,1.4-3.5,2.9-5.2,4.3c-1.7,1.4-3.5,2.9-5.2,4.3
		c-1.6,1.1-3.1,2.2-4.7,3.3c0.1-1.6,0.2-3.1,0.3-4.7c0.3-5.4,0.6-10.8,0.9-16.1c0.3-9.2,0.7-18.3,0.7-27.5
		c0.2-69.9,0.2-139.9,0.3-209.8c0-0.8-0.1-1.6-0.1-2.4c0-5.2,0-10.4-0.1-15.7C64.4,245.8,64.5,242.9,64.5,240.1z"/>
	<path class="st0" d="M542,243.5c1.6-1.1,3.1-2.2,4.7-3.4c0.1,2.8,0.1,5.7,0.2,8.5c0,5.2,0,10.4-0.1,15.7
		c-0.1,12.2-0.2,24.3-0.2,36.5c0,49.9,0,99.9,0.1,149.8c0,17.4,0.6,34.8,0.9,52.1c0,0.4,0.1,0.8,0.1,1.2c0.3,5.4,0.7,10.8,1,16.1
		c0.1,1.6,0.2,3.1,0.3,4.7c-1.3-0.9-2.5-1.8-3.8-2.7c-1.6-1.3-3.2-2.6-4.7-3.8c-1.9-1.6-3.8-3.2-5.7-4.7c-0.1-0.1-0.2-0.3-0.3-0.4
		c-16.7-13.8-33.4-27.7-50.1-41.5c-3-2.5-6.2-4.8-9.3-7.2l0,0c-2.6-2.2-5.1-4.4-7.7-6.5l0,0c-0.8-0.7-1.6-1.3-2.4-2
		c-0.4-0.4-0.9-0.7-1.3-1.1c-0.5-0.4-1-0.9-1.5-1.3c-2.9-2.4-5.8-4.9-8.7-7.3c-22.9-19-45.9-38-68.8-57c-2.6-2.1-5.2-4.3-7.9-6.6
		c3.5-3,6.7-5.8,9.9-8.6c0.8-0.7,1.6-1.3,2.4-2c0.3-0.3,0.6-0.5,1-0.8c0.8-0.7,1.6-1.3,2.4-2c0.1-0.1,0.3-0.3,0.4-0.4
		c1-0.8,1.9-1.6,2.9-2.4c1-0.9,1.9-1.7,2.9-2.6c1.6-1.3,3.2-2.7,4.7-4l0,0c1-0.7,2.1-1.4,3.1-2.2c7.5-6.2,14.9-12.5,22.3-18.7
		c15.4-13,30.8-25.9,46.3-38.9c13.4-11.2,26.8-22.4,40.1-33.7c5.8-4.9,11.5-9.9,17.3-14.8c2-1.7,3.9-3.5,5.9-5.2
		C539.7,245.4,540.8,244.4,542,243.5z"/>
	<path class="st13" d="M62.2,524.8c1.6-1.1,3.1-2.2,4.7-3.3c-0.9,6-1.8,11.9-0.9,17.9c0.3,1.7,1.3,3.3,1.9,4.9
		c-0.8,0.9-1.7,1.9-2.5,2.8c-0.6-0.6-1.2-1.3-1.8-1.9c-2.3-4.2-2.9-8.7-2-13.4C62,529.5,62,527.1,62.2,524.8z"/>
	<path class="st13" d="M545.3,522.1c1.3,0.9,2.5,1.8,3.8,2.7c0.2,1.9,0.4,3.8,0.7,5.7c0.1,2.5,0.6,5,0.2,7.4
		c-0.4,2.5-1.5,4.9-2.3,7.3c-0.8,1-1.6,1.9-2.3,2.9c-0.7-1.3-1.3-2.5-2-3.8c0.6-0.8,1.8-1.5,1.8-2.3c0.4-3.3,0.5-6.7,0.5-10.1
		C545.8,528.6,545.5,525.3,545.3,522.1z"/>
	<path class="st14" d="M189.8,419.6c1.4-1.2,2.8-2.3,4.3-3.5c0.6-0.5,1.2-1,1.9-1.6c7.1-5.9,14.1-11.8,21.2-17.7
		c5.6-4.7,11.3-9.3,17-13.9c0.7-0.1,1.4-0.2,2.8-0.3c-2.3-2.1-4-3.8-5.8-5.5c-5.2-4.9-11.4-8.6-15.2-14.9c-0.2-0.3-0.6-0.5-0.9-0.7
		c-2.7-0.8-4.3-3.1-6.1-5c-1.3-1.4-2.4-3.1-3.7-4.5c-3.2-3.4-7.7-5.6-9.9-10.1c-0.2-0.4-0.9-0.6-1.3-0.9c-1.5-1.1-3.2-2-4.3-3.3
		c-1.8-2.1-2.8-5-6.1-5.4c-0.2,0-0.5-0.3-0.5-0.4c-0.6-2.2-2.5-2.8-4.1-3.9c-0.6-0.4-0.9-1.2-1.3-1.8c-0.4-0.6-0.8-1.3-1.3-1.8
		c-2.3-2.3-4.7-4.6-7-6.9c-1.1-1.2-2-2.6-3.1-3.7c-1.4-1.3-3-2.4-4.4-3.7c-1.1-1-2.1-2.2-3.2-3.2c-2-1.8-4.1-3.4-6.1-5.2
		c-3-2.9-6-5.8-8.9-8.8c-1.2-1.2-2.1-2.7-3.2-4.1c-1-1.2-1.9-2.5-2.9-3.6c-1.8-1.9-3.6-3.6-5.5-5.4c-0.6-0.6-1.3-1.1-1.9-1.7
		c-1.3-1.3-2.6-2.6-4-3.8c-1.5-1.4-3.1-2.9-4.7-4.3c-0.4-0.4-0.9-0.7-1.3-1c-1-0.9-2.3-1.7-3-2.8c-1.6-2.3-3.7-4.1-5.3-6.2
		c-1.1-1.4-1.9-3.1-3.5-4.3c-0.9-0.7-1.6-1.7-2.2-2.7c-0.2-0.3,0.4-1,0.6-1.5c2.2,1.8,4.4,3.7,6.7,5.5c0.5,0.4,0.9,0.7,1.4,1.1
		c4.9,4.2,9.8,8.4,14.8,12.5c4.4,3.7,8.8,7.3,13.3,11c6.4,5.2,12.7,10.5,19.1,15.7c29.3,24.1,58.5,48.2,87.8,72.3
		c0.7,0.6,1.3,1.3,1.9,2c-1.6,4.3-3.3,8.6-1.8,13.3c0.2,0.8-0.7,1.9-0.9,2.3c0.6,2,1.2,3.8,1.8,5.6c0.2,0.5,0.6,0.9,0.8,1.4
		c0,0.4,0,0.9,0,1.3c-1.4,0.9-3,1.8-4.3,2.8c-23.4,19-46.8,38.1-70.2,57.2c-20.4,16.6-40.8,33.2-61.2,49.8
		c-5.2,4.2-10.4,8.4-15.7,12.5c-1.6-1.5-2.1,0.4-3,0.9c-0.9,0.6-1.8,1.2-2.8,1.8c-0.2-0.2-0.3-0.4-0.5-0.6c0.2-0.4,0.4-0.8,0.7-1.1
		c2.5-2.4,5-4.8,7.4-7.3c3.2-3.3,6.2-6.6,9.3-9.9c2-2.1,4.1-4.3,6.3-6.2c1.4-1.1,2.9-1.9,2.8-4c0-0.5,0.8-1,1.3-1.4
		c0.9-0.8,2-1.5,2.6-2.5c1.4-2.4,3-4.5,5.5-6c1.9-1.1,3.4-2.9,5.2-4.2c4.3-3.1,5.8-8.8,10.5-11.5c0.1-0.1,0.2-0.2,0.3-0.4
		c0.3-1.7,1.4-2.3,2.9-2.8c0.6-0.2,1.1-0.8,1.6-1.3c1.1-1.2,2.1-2.4,3.2-3.6c0.2-0.6,0.1-1.7,0.6-2.2c4.3-4.2,8.8-8.3,13.2-12.4
		c1-0.9,2.4-1.9,2.7-3.1c0.6-2.1,0.5-4.3,3.5-4c0.1,0,0.3-0.3,0.5-0.5c1.2-1.4,2.3-3,3.6-4.3c2.2-2,4.8-3.6,6.9-5.7
		C186.7,424,188.2,421.7,189.8,419.6z"/>
	<path class="st15" d="M386.8,374c-3.2,2.8-6.4,5.6-9.9,8.6c2.7,2.3,5.3,4.5,7.9,6.6c22.9,19,45.9,38,68.8,57
		c2.9,2.4,5.8,4.9,8.7,7.3c0,1-0.3,2.4,1.5,1.3c0.4,0.4,0.9,0.7,1.3,1.1c-0.4,2.1,0.8,2.2,2.4,2c0,0,0,0,0,0c1.2,5,2.9,6.5,7.7,6.5
		c0,0,0,0,0,0c-0.3,1.2-0.3,2.2,1.2,2.6c0.5,0.2,1.3,0.8,1.3,1.2c-0.1,2.6,1.6,4.1,3.2,5.7c4.5,4.4,9,8.7,13.5,13.1
		c3,3,5.9,6.2,8.9,9.3c0.6,0.7,1,1.6,1.6,2.3c1.9,2.1,3.8,4.2,5.7,6.3c0.8,0.9,1.7,1.8,2.6,2.7c1.3,1.3,2.7,2.4,3.9,3.7
		c1.4,1.5,2.7,3.2,4,4.8c2.5,3.1,5,6.2,7.6,9.3c0.6,0.7,1.2,1.5,1.9,1.9c3.3,1.7,3.3,5,4.2,7.9c0.1,0.2-0.8,0.7-1.3,1
		c-17-13.8-34-27.6-51-41.4c-2.6-2.1-5.2-4.4-7.8-6.5c0.7,0.1,1.4,0,1.9,0.3c1.8,0.9,3.5,2,5.2,3.1c0.1-0.9-0.1-1.4-0.5-1.7
		c-3.4-3-6.9-5.9-10.2-9c-0.9-0.8-1.4-2-2.1-3c-1.2-1.6-2.2-3.3-3.6-4.7c-2.4-2.4-4.9-4.5-7.4-6.7c-0.8-0.7-1.7-1.3-2.3-2.1
		c-1.4-1.8-2.7-3.9-5.1-4.5c0,0,0-0.2-0.1-0.2c-1.1-1.2-2.2-2.3-3.3-3.5c-0.7-0.8-1.3-1.7-2-2.5c-1.4-1.7-2.7-3.4-4.2-5
		c-1.3-1.4-3.3-2.3-4.3-3.8c-2.5-3.6-5.4-6.6-9-9.1c-1.7-1.2-3.6-2.8-4.1-4.6c-1.3-3.8-4-5.8-7.1-7.5c-1.3-0.7-2.7-0.8-2.8-2.8
		c-0.1-1.1-1.3-2.1-2.1-3c-3.4-3.3-7.1-6.5-10.4-9.9c-4.8-4.9-9.7-9.7-14.8-14.4c-3.7-3.4-7.1-7.3-12.3-8.7c-3.2-0.8-4-5-1.8-7.4
		c1.6-1.7,3-3.6,4.6-5.2c1-1.1,2.5-1.7,3.5-2.8c1.4-1.5,2.3-3.3,3.7-4.7c2.3-2.4,4.9-4.6,7.3-6.9c1.7-1.6,3.6-3.1,5.3-4.7
		c1.1-1,2-2.1,3.1-3.1c1.2-1.3,2.5-2.5,3.7-3.8c0.4-0.4,0.6-1,1-1.3c1.7-1.3,3.5-2.4,5.1-3.9c1.7-1.6,3.1-3.4,4.7-5.2
		c1-1.2,1.8-2.9,3-3.4c2.6-1,3.9-3.3,5.9-5c0.8-0.7,1.7-1.3,2.4-2.1c2-2,3.9-4.1,5.8-6.1c0.7-0.8,1.4-1.5,2.2-2.2
		c0.4-0.4,1-0.7,1.4-1.1c1.5-1.8,3.5-2.9,4.9-5.1c1.9-3,5.1-5.2,7.8-7.7c1.8-1.7,3.5-3.5,5.3-5.2c2.8-2.6,5.5-5.2,8.3-7.8
		c0.9-0.8,1.8-1.6,2.9-2.6c-1-0.3-1.5-0.4-1.9-0.6c2.1-1.9,4.1-3.8,6.2-5.6c4.5-3.8,9.1-7.6,13.7-11.3c5.9-4.8,11.8-9.5,17.6-14.3
		c5.6-4.6,11-9.4,16.6-14c0.8-0.7,1.8-1.3,2.6-2c1.1,0,2.1,0,1.8-1.5c1.3-1.1,2.6-2.2,3.9-3.2c0.6,0.2,1.1,0.3,1.7,0.5
		c-0.3,0.5-0.4,1.2-0.8,1.6c-1.8,2.2-3.7,4.5-5.7,6.5c-1.3,1.3-3.1,2.2-3.2,4.4c0,0.2-0.6,0.4-0.9,0.7c-2.9,2.7-6.2,5.2-8.7,8.3
		c-2.3,2.9-4.6,5.4-7.8,7.1c-0.4,0.2-0.5,0.7-0.8,1.1c-1.2,1.8-2.2,3.8-3.7,5.4c-2,2.2-4.3,4-6.4,6.1c-0.8,0.8-1.6,1.7-2.4,2.5
		c-3.3,3.2-6.8,6.2-9.8,9.7c-1.5,1.8-3.1,3.3-4.9,4.6c-1.5,1.1-2.8,2.4-4.1,3.7c-3.3,3.5-6.7,6.8-9.7,10.6c-2.4,2.9-6.1,3.8-8.4,7
		c-3,4.2-7,7.6-10.7,11.3c-1.5,1.5-2.5,3.7-5.2,3.6c-0.3,0-0.7,0.6-1,0.9c-1.5,1.9-2.9,4-4.6,5.8c-3.7,3.8-7.6,7.5-11.5,11
		c-3.7,3.3-7.6,6.3-11.2,9.6c-0.7,0.7-0.8,2-1.2,3c0,0,0,0,0,0c-2.4,0.3-4,1.6-4.7,4c-1,0.9-1.9,1.7-2.9,2.6
		c-1.7-0.1-2.6,0.8-2.9,2.4c-0.1,0.1-0.3,0.3-0.4,0.4c-1.5-0.2-2.7,0-2.4,2c-0.3,0.3-0.6,0.5-1,0.8
		C387.8,371.9,386.6,372.1,386.8,374z"/>
	<path class="st16" d="M462.1,286.9c0.4,0.1,0.9,0.3,1.9,0.6c-1.2,1-2,1.8-2.9,2.6c-2.8,2.6-5.6,5.2-8.3,7.8
		c-1.8,1.7-3.5,3.5-5.3,5.2c-2.6,2.5-5.9,4.7-7.8,7.7c-1.4,2.2-3.4,3.3-4.9,5.1c-0.4,0.5-1,0.7-1.4,1.1c-0.7,0.7-1.5,1.5-2.2,2.2
		c-1.9,2-3.8,4.1-5.8,6.1c-0.7,0.8-1.6,1.4-2.4,2.1c-1.9,1.6-3.2,3.9-5.9,5c-1.3,0.5-2,2.2-3,3.4c-1.5,1.8-3,3.6-4.7,5.2
		c-1.6,1.4-3.4,2.5-5.1,3.9c-0.4,0.3-0.6,0.9-1,1.3c-1.2,1.3-2.5,2.5-3.7,3.8c-1,1-2,2.2-3.1,3.1c-1.7,1.6-3.6,3.1-5.3,4.7
		c-2.5,2.3-5,4.5-7.3,6.9c-1.4,1.4-2.4,3.2-3.7,4.7c-1,1.1-2.4,1.8-3.5,2.8c-1.6,1.7-3.1,3.5-4.6,5.2c-2.2,2.5-1.4,6.6,1.8,7.4
		c5.2,1.4,8.6,5.3,12.3,8.7c5.1,4.7,10,9.5,14.8,14.4c3.3,3.4,7,6.6,10.4,9.9c0.9,0.9,2.1,1.9,2.1,3c0.2,2,1.6,2.1,2.8,2.8
		c3.1,1.8,5.8,3.8,7.1,7.5c0.6,1.8,2.5,3.4,4.1,4.6c3.5,2.5,6.5,5.5,9,9.1c1,1.5,3,2.4,4.3,3.8c1.5,1.5,2.8,3.3,4.2,5
		c0.7,0.8,1.3,1.7,2,2.5c1.1,1.2,2.2,2.3,3.3,3.5c0,0.1,0,0.2,0.1,0.2c2.4,0.7,3.7,2.7,5.1,4.5c0.6,0.8,1.5,1.4,2.3,2.1
		c2.5,2.2,5.1,4.4,7.4,6.7c1.4,1.4,2.4,3.1,3.6,4.7c0.7,1,1.3,2.2,2.1,3c3.3,3.1,6.8,6,10.2,9c0.4,0.3,0.6,0.8,0.5,1.7
		c-1.7-1-3.5-2.1-5.2-3.1c-0.5-0.3-1.3-0.2-1.9-0.3c-1.2-1-2.5-2-3.7-3c-0.3-0.3-0.7-0.6-1-0.8c-6.8-5.5-13.7-11-20.5-16.5
		c-6.8-5.5-13.6-11-20.4-16.5c-17.1-13.9-34.1-27.8-51.2-41.8c-5.3-4.3-10.5-8.6-15.8-12.8c-0.6-0.5-1.5-0.8-2.2-1.2
		c0-0.4,0-0.9,0-1.3c0.4-2.1,1-4.2,1.2-6.4c0.4-3.6,0.6-7.3,0.9-10.9c-2.8,0-2.7,0-3.1-2.5c-0.1-0.5-0.7-1-1-1.5
		c8.4-7,16.7-13.9,25.1-20.9c18.5-15.4,37.1-30.7,55.6-46.1c0.3-0.2,0.6-0.3,1-0.5c1.6-1.4,3.2-2.9,4.7-4.3c1.2,0.6,1.8,0.4,1.7-1
		c0,0,0.1,0,0.1,0c0.7-0.6,1.3-1.3,2-1.9c1.3-1.1,2.5-2.2,3.8-3.2c1.7,0.6,2.1,0.3,2.4-1.9c0.3-0.3,0.6-0.6,1-0.9
		c0.3-0.2,0.6-0.3,1-0.5c0.3-0.3,0.6-0.7,0.9-1c1.9,1.4,1.8-0.1,1.9-1.3c0.5-0.5,0.9-1,1.4-1.5C461.7,288.9,462.1,288.4,462.1,286.9
		L462.1,286.9z"/>
	<path class="st17" d="M359.7,394.3c0,0.4,0,0.9,0,1.3c-8.3,6.2-16.1,13.1-24.9,18.3c-10.2,6-21.6,9.7-33.7,8.1
		c-12.2-1.6-23.4-5.9-33.2-13.5c-5.5-4.2-10.9-8.6-16.3-13c0-0.4,0-0.9,0-1.3c2.9-2.9,6.9-5.3,5.2-10.5c-0.1-0.3,0.1-0.7,0.2-1.4
		c1.1,0.6,2,1.1,3.1,1.7c-0.2-2.2-0.3-4.1-0.5-6c7.8,5.9,15.5,11.9,23.5,17.6c5.3,3.8,11.2,6.6,17.7,7.8c8.9,1.7,16.9-1.1,24.1-5.8
		c7.8-5.1,15.1-10.8,22.7-16.3c1.1-0.8,2.2-1.7,3.3-2.6c0.3,0.7,0.7,1.4,0.7,2.1c0,1-0.2,2.1-0.4,3.5c1.3-0.7,2.2-1.2,3.5-1.9
		c-0.2,1.5-0.4,2.6-0.4,3.6c0,1-0.1,2.2,0.5,2.9C356.2,390.8,358.1,392.5,359.7,394.3z"/>
	<path class="st18" d="M106.8,251.5c-0.2,0.5-0.8,1.2-0.6,1.5c0.6,1,1.3,2,2.2,2.7c1.5,1.2,2.4,2.9,3.5,4.3c1.7,2.1,3.8,3.9,5.3,6.2
		c0.8,1.1,2,1.9,3,2.8c0.4,0.4,0.9,0.7,1.3,1c1.6,1.4,3.1,2.9,4.7,4.3c1.3,1.3,2.6,2.5,4,3.8c0.6,0.6,1.3,1.1,1.9,1.7
		c1.8,1.8,3.7,3.6,5.5,5.4c1.1,1.1,2,2.4,2.9,3.6c1.1,1.4,2,2.8,3.2,4.1c2.9,3,5.9,5.9,8.9,8.8c1.9,1.8,4.1,3.5,6.1,5.2
		c1.1,1,2.1,2.2,3.2,3.2c1.4,1.3,3,2.4,4.4,3.7c1.1,1.1,2,2.6,3.1,3.7c2.3,2.3,4.7,4.6,7,6.9c0.5,0.5,0.8,1.2,1.3,1.8
		c0.4,0.6,0.7,1.4,1.3,1.8c1.5,1.1,3.5,1.8,4.1,3.9c0,0.2,0.3,0.4,0.5,0.4c3.3,0.4,4.3,3.3,6.1,5.4c1.1,1.4,2.9,2.2,4.3,3.3
		c0.4,0.3,1.1,0.5,1.3,0.9c2.2,4.4,6.6,6.7,9.9,10.1c1.3,1.4,2.4,3.1,3.7,4.5c1.8,1.9,3.4,4.2,6.1,5c0.3,0.1,0.7,0.4,0.9,0.7
		c3.8,6.3,10.1,10,15.2,14.9c1.8,1.7,3.6,3.4,5.8,5.5c-1.3,0.1-2,0.2-2.8,0.3c-2.3-2.1-4.5-4.4-6.8-6.4
		c-14.6-12.3-29.3-24.6-43.9-36.9c-15.4-12.9-30.8-25.8-46.1-38.7c-13.3-11.1-26.5-22.3-39.7-33.4c-5.5-4.6-11-9.2-16.5-13.9
		c-0.8-0.7-1.5-1.4-2.2-2.1c0-0.6,0.1-1.1,0-1.7c-1.2-4.4-1.8-8.8-0.9-13.2c0.5-2.4,0-5.3,3-6.6c8.2,6.7,16.4,13.4,24.6,20.1
		C105.9,250.5,106.4,251,106.8,251.5z"/>
	<path class="st19" d="M403.5,359.8c0.4-1,0.5-2.4,1.2-3c3.7-3.3,7.6-6.3,11.2-9.6c3.9-3.6,7.8-7.2,11.5-11c1.7-1.7,3-3.9,4.6-5.8
		c0.3-0.4,0.7-0.9,1-0.9c2.7,0.1,3.7-2.1,5.2-3.6c3.6-3.7,7.7-7.1,10.7-11.3c2.3-3.2,6-4.1,8.4-7c3-3.7,6.4-7.1,9.7-10.6
		c1.3-1.3,2.6-2.6,4.1-3.7c1.8-1.4,3.4-2.9,4.9-4.6c3-3.5,6.5-6.5,9.8-9.7c0.8-0.8,1.6-1.7,2.4-2.5c2.1-2,4.4-3.9,6.4-6.1
		c1.5-1.6,2.5-3.6,3.7-5.4c0.3-0.4,0.4-0.9,0.8-1.1c3.2-1.7,5.6-4.2,7.8-7.1c2.4-3.1,5.7-5.6,8.7-8.3c0.3-0.3,0.9-0.4,0.9-0.7
		c0.1-2.2,1.9-3.1,3.2-4.4c2-2.1,3.8-4.3,5.7-6.5c0.4-0.4,0.5-1.1,0.8-1.6c-0.6-0.2-1.1-0.3-1.7-0.5c1.9-1.6,3.8-3.2,5.6-4.8
		c0.6,0.3,1.6,0.5,1.7,0.9c0.7,3.3,1.6,6.5,1.7,9.8c0.1,3.6-0.6,7.2-1,10.8c-5.8,4.9-11.5,9.9-17.3,14.8
		c-13.4,11.2-26.7,22.4-40.1,33.7c-15.4,12.9-30.8,25.9-46.3,38.9c-7.4,6.2-14.9,12.5-22.3,18.7
		C405.6,358.4,404.6,359.1,403.5,359.8z"/>
	<path class="st20" d="M259.6,378.1c0.2,1.9,0.3,3.9,0.5,6c-1.1-0.6-2-1.1-3.1-1.7c-0.1,0.7-0.3,1.1-0.2,1.4
		c1.7,5.2-2.4,7.6-5.2,10.5c-0.3-0.5-0.7-0.9-0.8-1.4c-0.6-1.8-1.1-3.6-1.8-5.6c0.2-0.5,1.2-1.6,0.9-2.3c-1.5-4.8,0.2-9,1.8-13.3
		C254.3,373.8,257,375.9,259.6,378.1z"/>
	<path class="st20" d="M359.7,394.3c-1.7-1.8-3.5-3.6-5-5.5c-0.5-0.7-0.5-1.9-0.5-2.9c0-1.1,0.2-2.1,0.4-3.6
		c-1.4,0.7-2.3,1.2-3.5,1.9c0.2-1.4,0.5-2.4,0.4-3.5c0-0.7-0.5-1.4-0.7-2.1c2.3-1.9,4.6-3.8,7-5.8c0.3,0.5,0.9,1,1,1.5
		c0.3,2.5,0.3,2.5,3.1,2.5c-0.3,3.7-0.5,7.3-0.9,10.9C360.7,390.1,360.2,392.2,359.7,394.3z"/>
	<path class="st21" d="M80.8,230c-3,1.3-2.5,4.2-3,6.6c-1,4.5-0.3,8.9,0.9,13.2c0.1,0.5,0,1.1,0,1.7c-1.9-1.6-3.8-3.2-5.7-4.8
		c0.2-4.7,0.1-9.5,0.6-14.2c0.3-2.2,1.8-4.2,2.7-6.3C77.9,227.6,79.3,228.8,80.8,230z"/>
	<path class="st21" d="M532.6,251.6c0.4-3.6,1-7.2,1-10.8c-0.1-3.3-1-6.6-1.7-9.8c-0.1-0.4-1.1-0.6-1.7-0.9c1.7-1.3,3.4-2.7,5.2-4
		c0.7,2.8,1.6,5.5,2.1,8.3c0.4,1.8,0.2,3.6,0.3,5.5c0.2,2.2,0.4,4.4,0.7,6.5C536.5,248.1,534.5,249.8,532.6,251.6z"/>
	<path class="st22" d="M76.4,226.3c-0.9,2.1-2.5,4.1-2.7,6.3c-0.5,4.7-0.4,9.4-0.6,14.2c-1.6-1.4-3.2-2.8-4.8-4.2
		c0.9-4.4,1.7-8.9,2.9-13.3c0.5-1.7,1.9-3.2,2.8-4.8C74.8,225.1,75.6,225.7,76.4,226.3z"/>
	<path class="st23" d="M538.5,246.4c-0.2-2.2-0.5-4.3-0.7-6.5c-0.2-1.8,0-3.7-0.3-5.5c-0.6-2.8-1.4-5.5-2.1-8.3
		c0.5-0.4,1-0.8,1.4-1.2c1.1,2,2.6,3.9,3.1,6c1,4.1,1.5,8.4,2.2,12.6C540.8,244.4,539.7,245.4,538.5,246.4z"/>
	<path class="st15" d="M454.2,293.1c-0.3,2.3-0.6,2.5-2.4,1.9C452.6,294.4,453.4,293.8,454.2,293.1z"/>
	<path class="st15" d="M458.9,289.4c-0.1,1.2,0,2.7-1.9,1.3C457.6,290.3,458.3,289.8,458.9,289.4z"/>
	<path class="st15" d="M448,298.3c-0.7,0.6-1.3,1.3-2,1.9C446.6,299.5,447.3,298.9,448,298.3z"/>
	<path class="st15" d="M462.1,286.9c0.1,1.4-0.4,2-1.7,1C460.9,287.6,461.5,287.2,462.1,286.9z"/>
	<path class="st19" d="M520.6,238.1c0.2,1.5-0.8,1.5-1.8,1.5C519.4,239.1,520,238.6,520.6,238.1z"/>
	<path class="st15" d="M445.9,300.2c0.1,1.4-0.6,1.7-1.7,1C444.8,300.9,445.4,300.5,445.9,300.2z"/>
	<path class="st18" d="M114.8,258.1c-0.5-0.4-0.9-0.7-1.4-1.1C113.9,257.4,114.4,257.7,114.8,258.1z"/>
	<path class="st15" d="M456.1,291.8c-0.3,0.2-0.6,0.3-1,0.5C455.4,292.1,455.8,291.9,456.1,291.8z"/>
	<path class="st15" d="M439.5,305.5c-0.3,0.2-0.6,0.3-1,0.5C438.8,305.8,439.1,305.7,439.5,305.5z"/>
	<path class="st18" d="M189.8,419.6c-1.7,2.1-3.1,4.4-5,6.3c-2.1,2.1-4.7,3.7-6.9,5.7c-1.4,1.2-2.4,2.8-3.6,4.3
		c-0.1,0.2-0.3,0.5-0.5,0.5c-3.1-0.3-3,1.9-3.5,4c-0.3,1.2-1.7,2.1-2.7,3.1c-4.4,4.1-8.8,8.2-13.2,12.4c-0.5,0.5-0.5,1.6-0.6,2.2
		c-1.1,1.2-2.1,2.4-3.2,3.6c-0.5,0.5-1,1.1-1.6,1.3c-1.5,0.5-2.6,1.1-2.9,2.8c0,0.1-0.1,0.3-0.3,0.4c-4.7,2.7-6.2,8.4-10.5,11.5
		c-1.8,1.3-3.3,3.1-5.2,4.2c-2.5,1.5-4.1,3.6-5.5,6c-0.6,1-1.7,1.7-2.6,2.5c-0.5,0.5-1.3,1-1.3,1.4c0,2.1-1.5,2.9-2.8,4
		c-2.3,1.9-4.3,4.1-6.3,6.2c-3.1,3.3-6.2,6.6-9.3,9.9c-2.4,2.5-4.9,4.9-7.4,7.3c-0.3,0.3-0.5,0.7-0.7,1.1c0.2,0.2,0.3,0.4,0.5,0.6
		c0.9-0.6,1.8-1.3,2.8-1.8c0.9-0.5,1.4-2.4,3-0.9c-5.4,4.5-10.8,9-16.2,13.4c-3.4,2.8-6.9,5.5-10.4,8.2c-0.5-2.3-1.7-4.7-1.4-6.9
		c0.6-4.2,2-8.3,3-12.5c0.6-2.5,1.3-4.9,2-7.4c5.4-4.5,10.7-9.1,16.1-13.6c14.6-12.1,29.2-24.2,43.8-36.3
		c16.6-13.7,33.1-27.4,49.7-41C187.8,421.1,188.8,420.4,189.8,419.6z"/>
	<path class="st11" d="M533.4,536.2c0.5-0.3,1.3-0.8,1.3-1c-0.9-2.9-0.9-6.3-4.2-7.9c-0.8-0.4-1.4-1.2-1.9-1.9
		c-2.5-3.1-5-6.2-7.6-9.3c-1.3-1.6-2.6-3.3-4-4.8c-1.2-1.3-2.6-2.5-3.9-3.7c-0.9-0.9-1.7-1.8-2.6-2.7c-1.9-2.1-3.8-4.1-5.7-6.3
		c-0.6-0.7-0.9-1.6-1.6-2.3c-2.9-3.1-5.8-6.3-8.9-9.3c-4.4-4.4-9-8.7-13.5-13.1c-1.6-1.6-3.2-3.1-3.2-5.7c0-0.4-0.7-1.1-1.3-1.2
		c-1.5-0.4-1.5-1.4-1.2-2.6c3.1,2.4,6.2,4.8,9.3,7.2c16.7,13.8,33.4,27.6,50.1,41.5c0.1,0.1,0.2,0.2,0.3,0.4
		c1.4,5.9,2.9,11.8,4.1,17.7c0.6,3.1,1.7,6.3-0.3,9.3C536.9,539.1,535.1,537.7,533.4,536.2z"/>
	<path class="st24" d="M77.3,512.8c-0.7,2.5-1.3,4.9-2,7.4c-1.1,4.1-2.5,8.2-3,12.5c-0.3,2.2,0.9,4.6,1.4,6.9c-1.3,1-2.6,2-3.9,3
		c-0.3-2.1-1-4.2-0.9-6.2c0.3-6.5,1.5-13,3.2-19.3C73.8,515.7,75.5,514.3,77.3,512.8z"/>
	<path class="st21" d="M538.7,540.5c2-3,0.9-6.2,0.3-9.3c-1.2-5.9-2.7-11.8-4.1-17.7c1.9,1.6,3.8,3.2,5.7,4.7
		c0.6,4.1,1.4,8.2,1.6,12.3c0.2,4.2,1.5,8.4-0.3,12.5C540.8,542.2,539.8,541.4,538.7,540.5z"/>
	<path class="st23" d="M72.1,517.1c-1.6,6.3-2.8,12.8-3.2,19.3c-0.1,2.1,0.6,4.1,0.9,6.2c-0.6,0.6-1.3,1.1-1.9,1.7
		c-0.7-1.6-1.6-3.2-1.9-4.9c-1-6,0-12,0.9-17.9C68.6,520,70.3,518.6,72.1,517.1z"/>
	<path class="st23" d="M541.9,543.1c1.8-4.1,0.5-8.4,0.3-12.5c-0.2-4.1-1.1-8.2-1.6-12.3c1.6,1.3,3.2,2.6,4.7,3.8
		c0.2,3.3,0.5,6.6,0.5,9.8c0,3.4-0.2,6.7-0.5,10.1c-0.1,0.8-1.2,1.6-1.8,2.3C542.9,543.9,542.4,543.5,541.9,543.1z"/>
	<path class="st15" d="M469.9,484.5c0.3,0.3,0.7,0.6,1,0.8C470.5,485,470.2,484.8,469.9,484.5z"/>
	<path class="st18" d="M195.9,414.6c-0.6,0.5-1.2,1-1.9,1.6C194.7,415.6,195.3,415.1,195.9,414.6z"/>
	<path class="st11" d="M475.2,464.4c-4.8-0.1-6.5-1.6-7.7-6.5C470.1,460,472.7,462.2,475.2,464.4z"/>
	<path class="st19" d="M398.8,363.8c0.7-2.3,2.3-3.6,4.7-4C402,361.1,400.4,362.4,398.8,363.8z"/>
	<path class="st19" d="M393,368.8c0.3-1.7,1.2-2.5,2.9-2.4C395,367.2,394,368,393,368.8z"/>
	<path class="st11" d="M467.5,457.9c-1.5,0.2-2.8,0.1-2.4-2C466,456.5,466.8,457.2,467.5,457.9z"/>
	<path class="st19" d="M386.8,374c-0.2-1.9,0.9-2.1,2.4-2C388.4,372.7,387.6,373.3,386.8,374z"/>
	<path class="st19" d="M390.2,371.2c-0.3-2,0.9-2.2,2.4-2C391.8,369.9,391,370.5,390.2,371.2z"/>
	<path class="st11" d="M463.8,454.8c-1.8,1.1-1.5-0.3-1.5-1.3C462.8,453.9,463.3,454.4,463.8,454.8z"/>
</g>
</svg>
