<?xml version="1.0" encoding="utf-8"?>
<!-- Generator: Adobe Illustrator 26.0.1, SVG Export Plug-In . SVG Version: 6.00 Build 0)  -->
<svg version="1.1" id="Layer_1" xmlns="http://www.w3.org/2000/svg" xmlns:xlink="http://www.w3.org/1999/xlink" x="0px" y="0px"
	 viewBox="0 0 1920 1080" style="enable-background:new 0 0 1920 1080;" xml:space="preserve">
<style type="text/css">
	.st0{display:none;}
	.st1{fill:#07E4DF;}
	.st2{display:none;fill:#04CAC5;}
</style>
<g>
	<path class="st0" d="M0,1080C0,720,0,360,0,0c640,0,1280,0,1920,0c0,360,0,720,0,1080C1280,1080,640,1080,0,1080z M833.9,267
		c0,3,0,6,0,9.1c-0.1,30.1-0.3,60.3-0.4,90.4c0,12.4,0,24.9,0,37.9c-50.2,0-100,0-150,0c0,59.8,0,119,0,179.1c50.1,0,99.9,0,150.2,0
		c0,150.2,0,299.5,0,449c60.8,0,121.2,0,182,0c0-150,0-299.4,0-449.3c17.7,0,34.8-0.1,51.9,0c11.8,0.1,23.5,0.6,35.3,0.8
		c7,0.1,14,0.1,21-0.1c7.1-0.2,14.2-0.8,21.3-0.8c5.4,0,10.9,0.5,16.3,0.9c3.2,0.2,4.5-0.9,4.5-4.2c0-3.3,0.6-6.6,1-9.8
		c2-13.8,4.2-27.5,6-41.3c1.5-11.2,2.5-22.5,4-33.7c1.9-14.6,3.9-29.2,5.9-43.7c1.2-8.8,2.7-17.5,3.8-26.3
		c0.9-6.7,1.4-13.5,2.2-20.9c-58,0-115.6,0-173,0c-0.3-0.9-0.4-1.2-0.4-1.5c0.2-40.5,0.3-81,0.5-121.5c0.1-12.4,2.1-24.5,7.8-35.6
		c7.4-14.3,17.8-25.3,33.6-30.6c11.1-3.7,22.6-4.4,34.1-4.5c30.8-0.1,61.6-0.2,92.4,0c5,0,5.7-1.7,5.7-5.9
		c-0.1-49.8-0.1-99.6-0.1-149.5c0-1.8-0.2-3.5-0.3-5.4c-1.1-0.2-1.7-0.3-2.4-0.3c-57.2,1.4-114.4-3.3-171.5,2.8
		c-13.4,1.4-26.9,3.8-40.1,6.8c-28.8,6.6-53.1,21.8-74.9,41.3c-16.8,15.1-30.3,33-41.3,52.6c-8.1,14.5-14,30.1-18.2,46.3
		c-4.4,16.7-6.2,33.8-7,50.9C833.9,255.6,834,261.3,833.9,267z"/>
	<path class="st1" d="M833.9,267c0.1-5.7,0-11.3,0.2-17c0.8-17.2,2.6-34.2,7-50.9c4.3-16.2,10.1-31.8,18.2-46.3
		c10.9-19.6,24.4-37.5,41.3-52.6c21.8-19.5,46.1-34.7,74.9-41.3c13.2-3,26.6-5.4,40.1-6.8c57.1-6.1,114.3-1.3,171.5-2.8
		c0.6,0,1.3,0.2,2.4,0.3c0.1,1.9,0.3,3.6,0.3,5.4c0,49.8,0,99.6,0.1,149.5c0,4.3-0.8,6-5.7,5.9c-30.8-0.3-61.6-0.2-92.4,0
		c-11.5,0.1-23,0.8-34.1,4.5c-15.8,5.3-26.2,16.3-33.6,30.6c-5.7,11.1-7.7,23.2-7.8,35.6c-0.3,40.5-0.4,81-0.5,121.5
		c0,0.3,0.2,0.6,0.4,1.5c57.4,0,115,0,173,0c-0.7,7.4-1.3,14.1-2.2,20.9c-1.1,8.8-2.6,17.5-3.8,26.3c-2,14.6-4.1,29.1-5.9,43.7
		c-1.4,11.2-2.5,22.5-4,33.7c-1.8,13.8-4,27.5-6,41.3c-0.5,3.3-1,6.5-1,9.8c0,3.3-1.4,4.4-4.5,4.2c-5.4-0.4-10.9-1-16.3-0.9
		c-7.1,0-14.2,0.7-21.3,0.8c-7,0.2-14,0.2-21,0.1c-11.8-0.2-23.5-0.7-35.3-0.8c-17.1-0.1-34.2,0-51.9,0c0,149.8,0,299.3,0,449.3
		c-60.9,0-121.2,0-182,0c0-149.4,0-298.8,0-449c-50.3,0-100.1,0-150.2,0c0-60.1,0-119.4,0-179.1c50,0,99.8,0,150,0
		c0-13,0-25.4,0-37.9c0.1-30.1,0.2-60.3,0.4-90.4C833.9,273,833.9,270,833.9,267z"/>
	<path class="st2" d="M833.9,267c0,3,0,6,0,9.1C833.9,273,833.9,270,833.9,267z"/>
</g>
</svg>
