<?xml version="1.0" encoding="utf-8"?>
<!-- Generator: Adobe Illustrator 27.3.1, SVG Export Plug-In . SVG Version: 6.00 Build 0)  -->
<svg version="1.1" id="Layer_1" xmlns="http://www.w3.org/2000/svg" xmlns:xlink="http://www.w3.org/1999/xlink" x="0px" y="0px"
	 viewBox="0 0 1415 1286" style="enable-background:new 0 0 1415 1286;" xml:space="preserve">
<style type="text/css">
	.st0{display:none;}
	.st1{fill:#FFFFFF;}
</style>
<g>
	<path class="st0" d="M0,0c471.67,0,943.33,0,1415,0c0,428.67,0,857.33,0,1286c-471.67,0-943.33,0-1415,0C0,857.33,0,428.67,0,0z
		 M287.28,749.94c-0.82,0-1.65,0.04-2.47-0.01c-35.9-2.02-71.71-1.84-107.18,5.07c-27.7,5.39-53.49,15.44-76.69,31.78
		c-18.67,13.14-34.23,29.41-46.68,48.36c-12.23,18.62-20.56,39.12-25.09,61.04c-3.3,15.98-4.28,32.06-3.36,48.42
		c0.77,13.66,3.25,26.93,7.12,39.88c6.1,20.35,15.7,38.98,28.37,56.2c8.09,11,17.45,20.94,28.76,27.65
		c11.87,7.05,25.47,11.94,38.92,15.39c16.07,4.13,32.95,4.98,49.18,8.61c21.34,4.77,43.04,4.82,64.6,6.74
		c11.22,1,22.5,1.27,33.74,2.01c18.17,1.2,36.32,2.93,54.51,3.67c26.35,1.07,52.73,1.49,79.09,2.1c29.97,0.69,59.95,1.66,89.92,1.85
		c55.98,0.36,111.96,0.51,167.94,0.23c48.01-0.25,96.01-1.25,144.01-1.86c21.44-0.27,42.88-0.07,64.31-0.66
		c30.72-0.85,61.42-2.24,92.13-3.36c17.78-0.65,35.58-1.01,53.35-1.87c24.36-1.19,48.71-2.63,73.05-4.17
		c19.06-1.2,38.1-2.62,57.14-4.11c7.76-0.61,15.52-1.39,23.21-2.56c10.12-1.53,20.18-3.53,30.27-5.3
		c15.56-2.73,31.43-4.1,45.89-11.36c6.48-3.26,14.06-4.98,19.57-9.37c12.24-9.76,20.97-22.7,27.07-37.06
		c10.74-25.26,16.29-51.72,15.94-79.22c-0.16-12.6-0.86-25.22-2-37.77c-1.39-15.48-3.2-30.93-5.37-46.32
		c-2.17-15.38-5.03-30.67-7.53-46c-4.44-27.25-8.55-54.57-13.33-81.76c-4.26-24.23-8.76-48.44-14.02-72.47
		c-8.13-37.14-17.76-73.91-32.75-108.99c-10.42-24.39-23.08-47.63-38.36-69.37c-1.71-2.43-1.15-4,0.49-6.03
		c9.05-11.28,18.25-22.45,26.87-34.05c3.79-5.1,8.34-8.16,14.25-9.9c9-2.66,18.04-5.24,26.83-8.5c25.25-9.38,47.55-23,63.18-45.74
		c25.54-37.16,30.22-77,14.03-118.89c-12.51-32.37-35.75-54.99-67.51-68.5c-18.98-8.07-38.91-11.03-59.71-9.01
		c-17.09,1.66-32.97,6.54-47.97,14.51c-15.48,8.23-28.47,19.7-38.75,33.73c-11.99,16.36-20,34.89-26.43,54.11
		c-1.3,3.88-2.4,8.25-4.97,11.18c-4.28,4.9-9.52,9.02-14.64,13.12c-19.91,15.96-40.14,31.54-59.81,47.78
		c-6.4,5.28-12.16,8.1-19.77,3.24c-1.1-0.7-2.4-1.14-3.67-1.49c-23.5-6.65-46.86-13.86-70.56-19.72
		c-20.95-5.18-42.2-9.24-63.45-13.02c-13.79-2.46-27.82-3.65-41.76-5.18c-7.08-0.78-14.21-1.19-21.33-1.52
		c-12.13-0.56-24.27-1.47-36.39-1.2c-11.92,0.26-23.81,1.71-35.7,2.78c-9.9,0.89-19.83,1.66-29.65,3.09
		c-7.99,1.16-15.87,3.11-23.76,4.91c-15.62,3.59-31.64,6.09-46.72,11.28c-23.97,8.25-48.68,14.61-71.35,26.53
		c-24.09,12.66-49.34,23.14-71.32,39.66c-11.52,8.65-24.72,15.32-35.27,24.96c-21.51,19.66-44.77,37.6-62.75,60.97
		c-9.16,11.91-20.45,22.41-28.15,35.13c-14.99,24.77-30.78,49.02-41.49,76.44c-10.49,26.87-18.95,54.14-25.18,82.12
		C293.67,708.41,290.9,729.04,287.28,749.94z"/>
	<path class="st1" d="M287.28,749.94c3.62-20.9,6.39-41.54,10.9-61.79c6.23-27.98,14.68-55.25,25.18-82.12
		c10.71-27.42,26.5-51.67,41.49-76.44c7.7-12.73,19-23.23,28.15-35.13c17.98-23.38,41.24-41.31,62.75-60.97
		c10.55-9.64,23.75-16.31,35.27-24.96c21.99-16.52,47.23-27,71.32-39.66c22.67-11.92,47.38-18.27,71.35-26.53
		c15.08-5.19,31.1-7.69,46.72-11.28c7.88-1.81,15.77-3.75,23.76-4.91c9.83-1.43,19.75-2.2,29.65-3.09
		c11.89-1.07,23.79-2.52,35.7-2.78c12.12-0.26,24.26,0.65,36.39,1.2c7.12,0.33,14.25,0.74,21.33,1.52
		c13.95,1.53,27.97,2.72,41.76,5.18c21.25,3.79,42.5,7.85,63.45,13.02c23.7,5.86,47.06,13.07,70.56,19.72
		c1.27,0.36,2.57,0.79,3.67,1.49c7.61,4.86,13.36,2.04,19.77-3.24c19.68-16.24,39.9-31.83,59.81-47.78
		c5.12-4.1,10.35-8.22,14.64-13.12c2.57-2.94,3.67-7.3,4.97-11.18c6.43-19.21,14.44-37.75,26.43-54.11
		c10.28-14.03,23.27-25.5,38.75-33.73c15-7.98,30.88-12.85,47.97-14.51c20.8-2.02,40.73,0.93,59.71,9.01
		c31.76,13.51,54.99,36.13,67.51,68.5c16.19,41.89,11.51,81.73-14.03,118.89c-15.63,22.74-37.92,36.36-63.18,45.74
		c-8.79,3.26-17.83,5.85-26.83,8.5c-5.91,1.75-10.46,4.8-14.25,9.9c-8.62,11.6-17.82,22.78-26.87,34.05
		c-1.64,2.04-2.2,3.6-0.49,6.03c15.28,21.74,27.94,44.98,38.36,69.37c14.99,35.07,24.61,71.85,32.75,108.99
		c5.26,24.03,9.76,48.24,14.02,72.47c4.78,27.19,8.89,54.51,13.33,81.76c2.5,15.34,5.36,30.62,7.53,46
		c2.17,15.39,3.97,30.84,5.37,46.32c1.13,12.55,1.83,25.17,2,37.77c0.35,27.5-5.2,53.96-15.94,79.22
		c-6.1,14.36-14.83,27.3-27.07,37.06c-5.51,4.39-13.09,6.11-19.57,9.37c-14.46,7.27-30.33,8.63-45.89,11.36
		c-10.09,1.77-20.14,3.77-30.27,5.3c-7.69,1.16-15.46,1.95-23.21,2.56c-19.04,1.49-38.08,2.91-57.14,4.11
		c-24.34,1.53-48.69,2.98-73.05,4.17c-17.77,0.87-35.57,1.23-53.35,1.87c-30.71,1.12-61.42,2.51-92.13,3.36
		c-21.43,0.59-42.87,0.39-64.31,0.66c-48,0.61-96.01,1.62-144.01,1.86c-55.98,0.29-111.96,0.13-167.94-0.23
		c-29.98-0.19-59.95-1.16-89.92-1.85c-26.37-0.61-52.74-1.04-79.09-2.1c-18.19-0.74-36.33-2.47-54.51-3.67
		c-11.24-0.74-22.52-1.01-33.74-2.01c-21.56-1.92-43.26-1.97-64.6-6.74c-16.23-3.63-33.11-4.49-49.18-8.61
		c-13.45-3.45-27.05-8.34-38.92-15.39c-11.31-6.71-20.67-16.65-28.76-27.65c-12.67-17.22-22.28-35.85-28.37-56.2
		c-3.88-12.95-6.35-26.22-7.12-39.88c-0.92-16.36,0.05-32.43,3.36-48.42c4.53-21.92,12.86-42.42,25.09-61.04
		c12.45-18.95,28.01-35.22,46.68-48.36c23.2-16.34,48.99-26.39,76.69-31.78c35.47-6.9,71.28-7.08,107.18-5.07
		C285.63,749.98,286.46,749.94,287.28,749.94z M1175.27,617.28c-0.44,0.1-0.89,0.19-1.33,0.29c-0.3,0.93-0.81,1.84-0.86,2.79
		c-0.93,16.52-2.58,32.88-5.83,49.2c-4.8,24.03-11.92,47.13-22.26,69.33c-14.78,31.76-34.6,60.01-58.74,85.26
		c-18.42,19.27-39.06,35.77-63.72,46.33c-26.22,11.24-52.75,22.04-81.42,25.15c-13.65,1.48-22.79-2.32-26.94-16.81
		c-1.83-6.37-2.55-13.5-1.81-20.07c1.29-11.48,6.55-21.24,16.12-28.51c12.13-9.21,26.41-13.48,40.46-18.16
		c19.54-6.51,37.74-15.54,53.21-29.07c13.09-11.44,24.61-24.47,34.76-38.78c12.2-17.2,22.19-35.37,29.22-55.26
		c7.45-21.05,11.27-42.72,12.77-64.91c1.37-20.36-1.36-40.38-5.19-60.25c-0.7-3.61,0.65-8.67-4.88-10.43
		c-9.58-3.05-13.66-11.66-16.9-19.68c-5.28-13.05-2.52-26.26,4.89-37.8c6.49-10.11,13.74-19.95,21.95-28.7
		c13.42-14.33,27.94-27.62,41.9-41.46c15.07-14.94,30.07-29.95,45-45.03c10.24-10.35,20.32-20.84,30.4-31.34
		c2.23-2.32,4.32-2.63,7.51-1.71c5.5,1.58,11.46,3.75,16.88,3.03c26.26-3.47,45.06-26.78,40.63-53.89
		c-4.27-26.16-30.43-43.41-56.17-37.64c-20.32,4.55-43.11,29.42-33.5,55.04c0.52,1.38-0.29,3.96-1.39,5.13
		c-8.36,8.97-16.88,17.8-25.47,26.56c-22.2,22.62-44.27,45.37-66.77,67.68c-15.29,15.16-31.5,29.34-50.67,39.58
		c-11.25,6.01-22.73,10.77-36.15,7.98c-12.58-2.61-22.71-8.04-28.82-19.89c-0.79-1.54-3.25-2.54-5.14-3.13
		c-8.81-2.77-17.61-5.58-26.56-7.84c-8.27-2.09-16.65-4.42-25.1-5.05c-19.58-1.44-39.26-0.67-58.52,3.06
		c-23.71,4.59-46.4,12.36-67.37,24.83c-21.21,12.62-39.59,28.45-54.84,47.72c-14.05,17.76-25.07,37.37-33.37,58.52
		c-6.74,17.16-11.53,34.79-13.1,53.12c-1.62,18.83,1.81,37.34,5.46,55.72c2.29,11.51,3.57,23.19,1.1,34.6
		c-4.15,19.2-20.94,31.97-39.41,33.95c-4.32,0.46-9.81-1.02-13.31-3.59c-8.62-6.34-12.6-16.22-14.79-26.25
		c-4.26-19.46-7.6-39.13-11.26-58.72c-4.09-21.87-2.7-43.8,1.61-65.28c4.94-24.59,13.42-48.27,24.47-70.86
		c11.36-23.24,24.71-45.32,42.11-64.59c9.06-10.03,18.96-19.33,28.74-28.67c4.92-4.7,10.44-8.77,16.39-13.69
		c-3.79,0-6.68-0.48-9.36,0.08c-23.31,4.82-46.87,8.77-69.77,15.11c-19.42,5.38-38.29,12.99-56.95,20.72
		c-14.42,5.97-28.88,12.46-41.98,20.82c-19.14,12.21-37.74,25.48-55.33,39.82c-14.75,12.02-28.49,25.53-41.29,39.62
		c-14.94,16.44-28.43,34.06-40.12,53.23c-13.91,22.8-24.3,46.99-32.56,72.07c-5.5,16.71-8.76,34.2-12.34,51.48
		c-2.44,11.81-4.04,23.83-5.41,35.82c-1.99,17.43-3.43,34.92-5.12,52.38c-0.87,8.98-3.74,12.45-11.9,13.68
		c-6.05,0.92-12.17,1.52-18.27,2.02c-17.51,1.43-35.03,2.8-52.55,4.06c-11.04,0.79-22.11,1.11-33.14,2.06
		c-21.45,1.85-42.94,3.42-64.28,6.19c-17.12,2.22-33.6,7.65-47.9,17.55c-21.26,14.72-35.73,34.49-41.74,60.07
		c-2.92,12.43-3.73,25.02-1.8,37.45c2.72,17.5,9.5,33.71,21.08,47.28c4.52,5.29,10.29,10.69,16.61,13.04
		c25.16,9.38,51.93,10.69,78.35,13.25c14.39,1.4,28.89,1.63,43.34,2.37c23.57,1.2,47.13,2.78,70.72,3.46
		c34.29,1,68.59,1.38,102.89,1.95c25.56,0.42,51.12,0.78,76.68,1.02c22.97,0.21,45.94,0.26,68.91,0.31
		c42.25,0.08,84.5,0.25,126.75,0.13c59.13-0.16,118.27-0.22,177.4-0.91c54.76-0.64,109.51-1.81,164.25-3.21
		c32.02-0.82,64.09-0.95,95.97-4.88c16.38-2.02,32.9-2.35,49.01-6.95c11.76-3.36,22.56-7.75,29.72-17.96
		c6.31-8.99,9.98-19.47,12.61-29.97c4.91-19.63,5.97-39.79,2.89-59.76c-3.97-25.76-9.07-51.34-13.83-76.98
		c-4.48-24.17-9.11-48.31-13.74-72.45c-4.91-25.61-9.78-51.24-14.93-76.8c-1.98-9.85-4.56-19.6-7.1-29.33
		C1181.89,641,1178.53,629.16,1175.27,617.28z"/>
	<path class="st0" d="M1175.27,617.28c3.26,11.87,6.62,23.72,9.74,35.63c2.54,9.73,5.12,19.47,7.1,29.33
		c5.15,25.57,10.01,51.19,14.93,76.8c4.63,24.14,9.26,48.28,13.74,72.45c4.75,25.63,9.86,51.22,13.83,76.98
		c3.08,19.97,2.02,40.14-2.89,59.76c-2.63,10.5-6.3,20.98-12.61,29.97c-7.16,10.21-17.96,14.6-29.72,17.96
		c-16.1,4.59-32.63,4.92-49.01,6.95c-31.88,3.93-63.95,4.06-95.97,4.88c-54.74,1.4-109.49,2.57-164.25,3.21
		c-59.13,0.69-118.27,0.75-177.4,0.91c-42.25,0.11-84.5-0.05-126.75-0.13c-22.97-0.05-45.94-0.1-68.91-0.31
		c-25.56-0.24-51.12-0.6-76.68-1.02c-34.3-0.56-68.61-0.95-102.89-1.95c-23.59-0.68-47.15-2.27-70.72-3.46
		c-14.45-0.73-28.95-0.97-43.34-2.37c-26.42-2.57-53.19-3.87-78.35-13.25c-6.32-2.35-12.09-7.75-16.61-13.04
		c-11.58-13.56-18.36-29.78-21.08-47.28c-1.93-12.43-1.12-25.02,1.8-37.45c6.01-25.59,20.48-45.36,41.74-60.07
		c14.3-9.9,30.79-15.33,47.9-17.55c21.33-2.77,42.83-4.34,64.28-6.19c11.02-0.95,22.1-1.26,33.14-2.06
		c17.53-1.26,35.04-2.63,52.55-4.06c6.11-0.5,12.22-1.1,18.27-2.02c8.16-1.24,11.03-4.7,11.9-13.68
		c1.69-17.46,3.13-34.95,5.12-52.38c1.37-11.99,2.97-24.01,5.41-35.82c3.58-17.28,6.84-34.77,12.34-51.48
		c8.26-25.08,18.65-49.27,32.56-72.07c11.7-19.18,25.19-36.79,40.12-53.23c12.81-14.1,26.54-27.6,41.29-39.62
		c17.59-14.34,36.19-27.62,55.33-39.82c13.11-8.36,27.57-14.85,41.98-20.82c18.66-7.72,37.53-15.34,56.95-20.72
		c22.9-6.34,46.46-10.29,69.77-15.11c2.68-0.55,5.57-0.08,9.36-0.08c-5.94,4.93-11.47,8.99-16.39,13.69
		c-9.79,9.34-19.69,18.64-28.74,28.67c-17.4,19.27-30.74,41.35-42.11,64.59c-11.05,22.59-19.53,46.27-24.47,70.86
		c-4.32,21.47-5.7,43.41-1.61,65.28c3.67,19.59,7,39.26,11.26,58.72c2.2,10.03,6.18,19.91,14.79,26.25
		c3.49,2.57,8.99,4.06,13.31,3.59c18.47-1.98,35.26-14.75,39.41-33.95c2.47-11.41,1.19-23.09-1.1-34.6
		c-3.66-18.38-7.08-36.89-5.46-55.72c1.58-18.32,6.37-35.95,13.1-53.12c8.31-21.16,19.32-40.77,33.37-58.52
		c15.25-19.27,33.63-35.09,54.84-47.72c20.97-12.48,43.66-20.25,67.37-24.83c19.27-3.73,38.94-4.5,58.52-3.06
		c8.45,0.62,16.83,2.95,25.1,5.05c8.94,2.26,17.75,5.08,26.56,7.84c1.89,0.6,4.35,1.6,5.14,3.13c6.11,11.85,16.24,17.28,28.82,19.89
		c13.42,2.79,24.9-1.97,36.15-7.98c19.17-10.24,35.38-24.42,50.67-39.58c22.5-22.31,44.57-45.06,66.77-67.68
		c8.59-8.75,17.11-17.58,25.47-26.56c1.1-1.18,1.9-3.75,1.39-5.13c-9.61-25.61,13.18-50.48,33.5-55.04
		c25.75-5.77,51.9,11.48,56.17,37.64c4.43,27.12-14.37,50.42-40.63,53.89c-5.42,0.72-11.38-1.46-16.88-3.03
		c-3.2-0.92-5.28-0.61-7.51,1.71c-10.08,10.5-20.16,21-30.4,31.34c-14.92,15.08-29.93,30.09-45,45.03
		c-13.95,13.84-28.47,27.13-41.9,41.46c-8.2,8.75-15.45,18.59-21.95,28.7c-7.41,11.54-10.17,24.75-4.89,37.8
		c3.24,8.02,7.32,16.62,16.9,19.68c5.53,1.76,4.19,6.82,4.88,10.43c3.84,19.88,6.57,39.89,5.19,60.25
		c-1.5,22.19-5.33,43.86-12.77,64.91c-7.04,19.89-17.02,38.06-29.22,55.26c-10.15,14.31-21.67,27.33-34.76,38.78
		c-15.47,13.53-33.67,22.57-53.21,29.07c-14.05,4.68-28.33,8.94-40.46,18.16c-9.57,7.27-14.83,17.03-16.12,28.51
		c-0.74,6.57-0.02,13.7,1.81,20.07c4.16,14.48,13.29,18.29,26.94,16.81c28.68-3.11,55.2-13.91,81.42-25.15
		c24.66-10.57,45.3-27.06,63.72-46.33c24.14-25.25,43.96-53.51,58.74-85.26c10.34-22.2,17.46-45.3,22.26-69.33
		c3.26-16.31,4.91-32.68,5.83-49.2c0.05-0.94,0.57-1.86,0.86-2.79C1174.38,617.48,1174.83,617.38,1175.27,617.28z"/>
</g>
</svg>
