<?xml version="1.0" encoding="utf-8"?>
<!-- Generator: Adobe Illustrator 26.0.1, SVG Export Plug-In . SVG Version: 6.00 Build 0)  -->
<svg version="1.1" id="Layer_1" xmlns="http://www.w3.org/2000/svg" xmlns:xlink="http://www.w3.org/1999/xlink" x="0px" y="0px"
	 viewBox="0 0 612 792" style="enable-background:new 0 0 612 792;" xml:space="preserve">
<style type="text/css">
	.st0{display:none;fill:#010000;}
	.st1{display:none;fill:#FEFEFE;}
	.st2{fill:#F8270F;}
</style>
<g>
	<path class="st0" d="M0,641.3c0-163.4,0-326.8,0-490.2c204,0,408,0,612,0c0,163.4,0,326.8,0,490.2C408,641.3,204,641.3,0,641.3z
		 M420,412.5c-0.5,0.5-0.8,0.8-1.1,1.2c-27.6,27.6-55.2,55.2-82.8,82.8c-16.3,16.3-32.7,32.6-49,48.9c-1,1-1,1.5,0,2.5
		c4.4,4.3,8.6,8.7,12.9,13c7.8,7.8,15.7,15.6,23.5,23.5c7.4,7.4,14.8,14.8,22.3,22.2c0.8,0.8,1.8,1.5,2.7,2.3c0.7-0.6,1.1-1,1.5-1.4
		c11.8-11.8,23.6-23.5,35.3-35.3c52.5-52.5,105-104.9,157.6-157.4c1.5-1.5,1.6-2.4,0-4c-10.5-10.3-20.8-20.7-31.2-31.1
		C457.9,325.8,404,272,350.2,218.2c-1.4-1.4-2.1-1.6-3.6-0.1c-19.2,19.3-38.5,38.5-57.8,57.8c-2.8,2.8-2.8,2.9,0.1,5.7
		c40.4,40.3,80.7,80.7,121.1,121C413.3,405.9,416.6,409.2,420,412.5z M131.4,609.7c0.9-1.3,1.2-2,1.7-2.6
		c15.6-15.6,31.1-31.1,46.7-46.7c48.7-48.6,97.3-97.2,146-145.8c1.5-1.5,1.4-2.4,0-3.8c-8.7-8.6-17.4-17.3-26.1-26
		c-55.5-55.5-111-110.9-166.5-166.4c-1.7-1.7-2.5-1.6-4.1,0c-19.2,19.3-38.5,38.5-57.8,57.8c-2.5,2.5-2.6,2.5,0,5.1
		c43.3,43.3,86.6,86.5,129.9,129.8c0.5,0.5,1,1.1,1.7,1.8c-0.7,0.5-1.2,0.8-1.6,1.3c-23.2,23.2-46.5,46.4-69.7,69.6
		c-20.6,20.5-41.1,41.1-61.7,61.6c-1,1-1.3,1.6,0,2.4c0.6,0.4,1,0.9,1.5,1.4c18.4,18.3,36.7,36.7,55.1,55.1
		C128,605.7,129.4,607.4,131.4,609.7z"/>
	<path class="st1" d="M0,641.3c204,0,408,0,612,0c-0.1,0.2-0.1,0.4-0.2,0.4c-0.6,0-1.2,0-1.8,0c-202.6,0-405.3,0-607.9,0
		C1.4,641.7,0.7,641.4,0,641.3z"/>
	<path class="st2" d="M452.2,411.8c-4.4-4.3-8.7-8.5-12.9-12.8c-52-52-104-103.9-156-155.9c-3.7-3.7-3.7-3.7-0.1-7.4
		c24.8-24.8,49.7-49.6,74.4-74.5c1.9-1.9,2.9-1.6,4.6,0.1c69.3,69.4,138.7,138.7,208.1,208c13.4,13.4,26.7,26.8,40.2,40.1
		c2,2,1.9,3.1,0,5.1c-67.7,67.6-135.4,135.2-203,202.8c-15.2,15.2-30.3,30.3-45.5,45.5c-0.5,0.5-1.1,1.1-2,1.9
		c-1.2-1-2.4-1.8-3.5-2.9c-9.6-9.5-19.1-19.1-28.7-28.7c-10.1-10.1-20.2-20.1-30.2-30.2c-5.5-5.6-11-11.2-16.6-16.7
		c-1.3-1.3-1.3-1.9,0-3.2c21.1-21,42.1-42,63.2-63c35.6-35.6,71.2-71.1,106.7-106.7C451.2,412.9,451.6,412.5,452.2,411.8z"/>
	<path class="st2" d="M80.2,665.8c-2.6-2.9-4.3-5-6.2-7c-23.6-23.7-47.3-47.3-71-70.9c-0.6-0.6-1.2-1.4-1.9-1.8
		c-1.7-1.1-1.3-1.9,0-3.1c26.5-26.4,53-52.9,79.5-79.3c29.9-29.9,59.9-59.8,89.8-89.7c0.5-0.5,1.2-1,2.1-1.6c-0.9-1-1.5-1.7-2.1-2.4
		C114.5,354.2,58.7,298.4,2.9,242.7c-3.3-3.3-3.3-3.3,0-6.6c24.8-24.8,49.7-49.6,74.5-74.5c2-2.1,3.1-2.2,5.3-0.1
		c71.5,71.5,143,143,214.6,214.5c11.2,11.2,22.3,22.4,33.6,33.5c1.9,1.9,2,3,0,4.9C268,477,205.3,539.7,142.6,602.3
		c-20.1,20.1-40.1,40.1-60.2,60.2C81.8,663.2,81.3,664.1,80.2,665.8z"/>
</g>
</svg>
