<?xml version="1.0" encoding="utf-8"?>
<!-- Generator: Adobe Illustrator 26.0.1, SVG Export Plug-In . SVG Version: 6.00 Build 0)  -->
<svg version="1.1" id="Layer_1" xmlns="http://www.w3.org/2000/svg" xmlns:xlink="http://www.w3.org/1999/xlink" x="0px" y="0px"
	 viewBox="0 0 612 792" style="enable-background:new 0 0 612 792;" xml:space="preserve">
<style type="text/css">
	.st0{display:none;fill:#010101;}
	.st1{fill:#FEFEFE;}
	.st2{fill:#6F6F6F;}
	.st3{fill:#717171;}
	.st4{fill:#6D6D6D;}
	.st5{fill:#6D6C6C;}
	.st6{fill:#6E6E6E;}
	.st7{fill:#5A5A5A;}
	.st8{fill:#646464;}
	.st9{fill:#60605F;}
	.st10{display:none;fill:#020202;}
	.st11{fill:#646463;}
	.st12{display:none;fill:#050505;}
	.st13{display:none;fill:#030303;}
	.st14{fill:#505050;}
	.st15{display:none;fill:#080808;}
	.st16{fill:#080808;}
	.st17{fill:#70706F;}
	.st18{fill:#6F6F6E;}
	.st19{fill:#3E3E3E;}
</style>
<g>
	<path class="st0" d="M0,708.1C0,499.5,0,290.9,0,82.3c204,0,408,0,612,0c0,208.6,0,417.2,0,625.8C408,708.1,204,708.1,0,708.1z
		 M431.9,311.4c4.5,1.7,8.9,3.6,13.4,4.9c9.4,2.8,14.5-1.1,14.7-10.6c0-0.4,0-0.7,0-1.1c0-12.3,0-24.6,0-36.9c0-1.9-0.2-3.9-0.5-5.8
		c-0.7-4.2-2.6-5.8-6.8-6.6c-6-1.1-11.2,1.1-16.3,3.5c-2.9,1.3-5.5,3.4-8.3,5.1c-0.5,0.5-1.1,1-1.6,1.5c-2.3-1-4.6-2.1-7-3.1
		c-0.1-0.4-0.2-0.7-0.2-1.1c-1.7-5.5-3.3-11.1-5.1-16.6c-3.2-10.5-11-15.5-21.2-17.4c-0.1-0.2-0.3-0.3-0.4-0.5
		c-1.3-3.1-2.2-6.6-4-9.4c-5.3-8-14.3-7.9-19.9,0c-6.7,9.5-6.8,25.8,0,35.3c5.1,7.3,13.1,8,18.8,1.5c1.7-1.9,2.8-4.5,4.1-6.8
		c0.4-0.7,0.7-1.6,1.1-2.6c3.9,2,5.8,5.2,7.2,8.7c1.4,3.2,2.5,6.6,3.8,9.9c0.1,0.5,0.2,1.1,0.3,1.6c-0.2,0.1-0.4,0.3-0.7,0.4
		c-4.1,1.8-7.6,3.9-12.8,2c-4.8-1.8-10.4-1.4-15.7-1.9c-14.7-1.2-28.8-4.8-41.8-11.8c-8.5-4.6-16.7-9.8-25.1-14.8
		c0.1-0.5,0.2-1.1,0.2-1.6c1.5-0.5,3-1.4,4.6-1.5c2.3-0.2,4.6,0.4,6.9,0.3c4.2-0.1,5.7-1.7,6-5.8c0.2-3,0.3-6,0.6-9
		c0.3-2.7,1.6-4.7,4.3-5.9c4.1-1.8,5-3.3,3.8-7.7c-1.6-5.7-3.6-11.3-5.6-16.8c-0.7-1.9-0.5-3,1.6-3.5c1.5-0.4,3-1.1,4.5-1.6
		c1.6-0.5,2.1-1.6,1.1-2.8c-2.3-2.9-4.5-6-7.4-8.2c-1.4-1.1-4.1-0.4-6.3-0.6c-0.2,0-0.3-0.1,0,0c-2.2-4.3-3.6-8.6-6.2-12.1
		c-13.3-17.7-42.4-18.2-57.3-1.3c-16,18.2-12.7,44.5,7.4,58c6.3,4.2,13.4,6.8,20.9,6.8c6.6,0,11.5-2.9,11.9-10
		c0.2-3.8,0.8-7.5,1.3-11.3c1.1-10.2,1.7-10.8,11.6-12.9c0.2,0,0.4-0.2,0.5-0.1c0.9,0.4,2.2,0.6,2.5,1.2c1.4,2.6,2.5,5.4,3.7,8.2
		c0.8,1.9,0.1,3.2-1.6,4.5c-1.3,1-2.5,2.7-2.9,4.3c-0.6,2.4-0.4,4.9-0.7,7.4c-0.6,4.7-1.1,5-5.8,5.3c-1.2,0.1-2.5,0.2-3.7,0.4
		c-4.5,0.9-8,3.2-9.4,7.9c-0.2,0.6-0.3,1.2-0.5,1.8c-6.4-1.8-12.7-3.7-19.1-5.5c-8.2-2.3-12-0.7-17.2,6c-8.3,10.6-11.4,23-13.1,35.8
		c-1.6,12.2-2.9,24.5-3.9,36.8c-1.5,17.8-2.8,35.6-1.4,53.4c0.5,6.4,1.9,12.6,5.3,18.1c-5,0.4-9.9,0.9-14.6,1.3c0-4.5,0-8.3,0-12.1
		c-0.1-33.7-0.2-67.4-0.4-101.1c0-2.6-0.3-5.4-1.1-7.8c-0.7-1.9-2.3-4.3-4-4.8c-4.1-1.3-8.6-2.3-12.9-2.3
		c-30.5-0.2-61.1-0.1-91.6-0.1c-2.3,0-4.6,0.2-6.9,0.5c-6,0.8-9.9,3.6-10.7,8c-0.6,3.2-1.1,6.5-1.1,9.7c-0.1,26.2-0.2,52.4-0.2,78.5
		c0,10.3,0,20.7,0.2,31c0.1,3.2,0.5,6.9,3.9,8.3c2.9,1.2,6.3,1.6,9.5,1.8c5.8,0.4,11.7,0.3,17.5,0.4c0.6,0,1.2,0.2,1.9,0.3
		c-1.6,8.1,0.8,15.6,2.5,23.1c1,4.4,3.8,7.1,8.4,7.6c0.6,0.1,1.2,0.4,1.6,0.5c-3.3,9.6-6.5,19-9.8,28.3c-0.4,1.2-1.3,2.3-2.2,3.2
		c-5.7,5.5-11.7,10.8-17,16.5c-6,6.5-10.8,13.9-14.5,22c-2.7,7.9-5.7,15.7-8.2,23.7c-1.8,6-1.6,6.1-7.7,6.1c-8.1,0-16.3,0-24.4,0
		c-3.9,0-4.4,0.5-4.6,4.4c-0.2,3.2-0.4,6.3-0.5,9.5c-0.2,3.7,0.1,4.1,3.9,4.1c12.2,0,24.4,0.1,36.6-0.1c3,0,4.5,0.8,5.8,3.5
		c4.6,9.9,10.2,19.2,17.9,27.1c10.3,10.6,22.6,17.7,37.1,20.9c0.7,0.1,1.4,0.3,2.1,0.4c0.7,0.1,1.4,0.3,2.1,0.4
		c0.4,0,0.7,0.1,1.1,0.1c0.7,0.1,1.4,0.3,2.1,0.4c0.9,0.1,1.8,0.1,2.6,0.2c1.1,0.1,2.1,0.2,3.2,0.2c2.8,0,5.7,0,8.5-0.1
		c0.7-0.1,1.4-0.1,2.1-0.2c3.3-0.5,6.7-0.7,9.9-1.5c28.3-6.7,45.4-25.8,56.6-51.4c0.3-0.1,0.7-0.1,1-0.2c4.2,0,8.5,0.1,12.7,0.1
		c22.6,0,45.3,0.2,67.9,0c22.6-0.3,45.3,1.3,68.1-1.7c0,0.2,0.1,0.6,0.1,1c0.6,5.2,0.9,10.6,3.8,15.3c1.7,2.7,4,3.5,6.6,1.6
		c2.2-1.6,4-3.7,5.9-5.6c0.7-0.4,1.5-0.7,2.2-1.1c4.5,10.3,10.7,19.3,19.3,26.6c18,15.3,38.9,21.1,61.8,15.5
		c29.2-7.1,47.5-26.1,53.5-55.6c4.5-22.4-1.9-42.4-15.9-60.2c0.3-0.2,0.6-0.4,0.9-0.6c2.7-1,5.6-1.8,8.2-3c3.9-1.9,4.8-4.7,2.7-8.4
		c-2.9-5-7.6-8.1-12.6-10.6c-10.6-5.3-22-6.2-33.6-5.2c-5.4,0.5-10.7,1.2-16,1.8c0.7-0.7,1.4-1.4,2.1-2.1c6.2-6.3,6.9-10,3.1-18
		c-2.9-6.1-6.1-12.1-9.2-18.2c-16.8-32.6-33.6-65.1-50.4-97.7C431.5,311.5,431.7,311.4,431.9,311.4z"/>
	<path class="st1" d="M0,708.1c204,0,408,0,612,0c-0.1,0.2-0.2,0.5-0.3,0.5c-0.7,0-1.4,0-2.1,0c-202.4,0-404.8,0-607.2,0
		C1.6,708.6,0.8,708.3,0,708.1z"/>
	<path class="st2" d="M103,490c3.7-8.1,8.4-15.6,14.5-22c5.4-5.8,11.4-11,17-16.5c0.9-0.9,1.7-2,2.2-3.2c3.3-9.3,6.5-18.7,9.8-28.3
		c-0.4-0.1-1-0.4-1.6-0.5c-4.6-0.5-7.4-3.1-8.4-7.6c-1.7-7.6-4-15.1-2.5-23.1c-0.8-0.1-1.3-0.3-1.9-0.3c-5.8-0.1-11.7-0.1-17.5-0.4
		c-3.2-0.2-6.6-0.6-9.5-1.8c-3.4-1.4-3.8-5.1-3.9-8.3c-0.2-10.3-0.2-20.7-0.2-31c0-26.2,0.1-52.4,0.2-78.5c0-3.2,0.5-6.5,1.1-9.7
		c0.8-4.4,4.7-7.2,10.7-8c2.3-0.3,4.6-0.5,6.9-0.5c30.5,0,61.1-0.1,91.6,0.1c4.3,0,8.8,1,12.9,2.3c1.7,0.5,3.3,2.9,4,4.8
		c0.9,2.4,1.1,5.2,1.1,7.8c0.2,33.7,0.3,67.4,0.4,101.1c0,3.8,0,7.6,0,12.1c4.7-0.4,9.7-0.8,14.6-1.3c3.3,2.9,7.5,1.8,11.3,2.7
		c-2.5,0.2-4.9,0.2-7.3-0.1c-2.7-0.3-3,0-2.8,2.8c0.1,0.6-0.8,1.8-1,1.8c-3.2-0.9-4.9,2-7.4,2.9c-2.9,1.1-1.8,4.6-3,6.8
		c-14-0.1-27.9-0.3-41.9-0.4c-10.4-0.1-20.9,0-31.3,0c-1,0-2.6,0.3-2.9,1c-1.7,3.4,0.1,6.2,3.8,6.2c37.2,0,74.3,0.1,111.5,0
		c2.3,0,4.6-0.9,6.9-1.4c3.1,0.2,6.3,0.4,9.3,0.7c-0.2,0.8-1.1,2,1.6,1.6c2.3-0.4,4.8,0.2,7.2,0.3c3.5,0.2,7,0.8,10.5,0.4
		c2.5-0.3,4.3,0.1,5.6,2.2c0.8-0.6,1.4-1.1,2.4-1.8c0.5,1.5,0.9,2.7,1.4,4c-1.1,0.2-2.3,0.5-3.4,0.7c-1.2-0.4-2.5-1.1-3.7-1.2
		c-3.1-0.2-6.3,0-9.4-0.1c-4.7-0.1-9.3-0.5-14-0.5c-3.9,0.1-7.8,0.8-11.8,1c-4.3,0.2-8.5,0-12.8,0.1c-0.6,0-1.1,0.2-2,0.4
		c0.7,0.8,1.2,1.3,1.7,1.9c-2,0.2-3.8,0.3-5.5,0.5c0.2,0.3,0.3,0.6,0.5,0.8c-0.7,0.6-1.3,1.6-2.1,1.8c-2.2,0.7-4.6,1.2-7.3,1.9
		c1.5,0.6,2.6,1,3.7,1.5c-0.1,0.2-0.1,0.4-0.2,0.6c-2.5,0.2-5,0.3-7.5,0.5c0,0.3,0,0.6,0,1c1.2,0.3,2.5,0.5,3.7,0.9
		c0.8,0.3,1.4,0.9,2.1,1.3c-0.9,0.1-1.8,0.2-2.6,0.2c-24.1,0-48.2,0-72.2,0c-1.9,0-3.9,0-5.5,0c-1.9,5.4-3.6,10.5-5.5,15.9
		c0.8-0.1,1.1-0.2,1.3-0.2c0.6-0.1,1.2-0.3,1.8-0.5c20.3-5.4,40.5-5.7,60.6,0.9c10.6,3.5,19.8,9.5,26.7,18.4
		c11.1,14.2,16,30.5,16.7,48.3c-1.8,0.4-3.6,0.9-5.4,1.3c-5.3,1-10.7,2-16,3c-1.1-6.5-1.9-13.1-3.3-19.5c-1.5-6.9-4.6-13.2-9.5-18.4
		c-8.5-8.9-19.4-12.7-31.2-14.1c-16.3-2-32.1,0.3-47,7.6c-8.5,4.1-15.6,10.2-21.8,17.1c-8.4,9.3-14.7,20.1-18.3,32.2
		c-0.5,0.2-0.9,0.5-1.4,0.6c-0.7,0.2-1.6,0.6-2.2,0.4c-0.7-0.2-1.3-1-1.9-1.5c0.7-0.5,1.4-1,2.1-1.6c0.1-0.1,0.2-0.3,0.4-0.5
		c-0.6-1.7-1.3-3.4-2-5.5c-0.9,1.9,0.4,4.9-2.6,5c-0.4-1.5-0.8-2.9-1-3.8c-1.9,0-3,0-4.1,0c-2.8,0.1-3-0.3-2.6-3.1
		c0.2-1.4,0.3-3.1-0.2-4.4c-1.1-2.8-1.3-2.6,1.8-3c0.6-0.1,1.1-0.9,1.6-1.4c-0.5-0.2-1.1-0.5-1.6-0.7c-0.3-0.1-0.7,0-0.6,0
		C104.1,491.5,103.6,490.7,103,490z M148,273.5c-6.1,0-12.5-0.2-19,0.1c-4.5,0.2-6.3,2.3-7,6.9c-0.3,2.4-0.5,4.7-0.5,7.1
		c0,24.5,0,49,0,73.5c0,5.9,2,7.9,8,7.9c4.9,0.1,9.7,0.1,14.6,0.1c18.9,0,37.7,0,56.6-0.1c5.9,0,8-2.1,8.1-7.9
		c0.1-6.6,0.2-13.3,0.3-19.9c0-3.4,0-6.9,0-10.3c-0.1-16.6-0.1-33.2-0.4-49.9c-0.1-5.3-2.3-7.3-7.6-7.5c-6.2-0.2-12.4-0.1-18.6-0.1
		c-0.2,0-0.4,0.2,0.1,0c0.2,3.6,0.4,6.8,0.7,10c0.2,2.2-0.8,2.8-2.8,2.8c-3.9-0.1-7.8,0-11.7,0c-5.8,0-11.5,0-17.3,0
		c-4.3,0-4.4,0-4.2-4.1C147.4,279.1,147.8,276.4,148,273.5z M170,271.1c0-1.1-0.1-2.1,0-3.2c0.2-1.8-0.5-2.5-2.4-2.5
		c-7.3-0.1-7.3-0.1-7.3,7c0,0.6,0.1,1.2,0,1.8c-0.1,1.6,0.7,2.2,2.2,2.1c0.7,0,1.4,0,2.1,0C170.9,276.4,170,277.2,170,271.1z
		 M108.5,502.4c0.1,0.3,0.3,0.7,0.4,1c1.1-0.4,2.1-0.8,3.2-1.2c-0.1-0.4-0.3-0.7-0.4-1.1C110.7,501.5,109.6,502,108.5,502.4z"/>
	<path class="st3" d="M234.3,393.8c1.2-2.2,0.2-5.7,3-6.8c2.5-0.9,4.2-3.8,7.4-2.9c0.2,0,1-1.2,1-1.8c-0.2-2.7,0-3,2.8-2.8
		c2.4,0.2,4.9,0.3,7.3,0.1c-3.8-0.9-8,0.2-11.3-2.7c-3.4-5.6-4.7-11.8-5.3-18.1c-1.5-17.8-0.1-35.6,1.4-53.4
		c1-12.3,2.3-24.6,3.9-36.8c1.7-12.9,4.8-25.3,13.1-35.8c5.2-6.6,9-8.2,17.2-6c6.4,1.8,12.7,3.6,19.1,5.5c4.7,2.2,9.4,4.5,14.1,6.7
		c8.4,4.9,16.6,10.2,25.1,14.8c13,7,27.1,10.6,41.8,11.8c5.3,0.4,10.9,0,15.7,1.9c5.2,2,8.8-0.2,12.8-2c0.2-0.1,0.4-0.3,0.7-0.4
		c5.1-1.6,10.1-3.4,15.6-2.7c2.3,1,4.6,2.1,7,3.1c1.7,1.6,3.5,3.2,5.1,4.9c2.2,2.4,4.1,4.9,6.2,7.4c0.7,4.2,1.4,8.5,2,12.7
		c-0.3,0.3-1,0.7-1,0.9c0.1,0.5,0.6,0.8,1,1.2c0,1.2-0.1,2.5-0.1,3.7c-1.8,2.8-4.6,3.9-7.8,4.2c-2,0.1-4,0-6.1,0
		c-2.6-3.2-3.7-6.6-2.1-10.6c0.7-0.6,1.7-1.1,2.1-1.9c0.7-1.4,1.6-3.1,1.4-4.5c-1-5.3-8.5-10.2-13.8-9c-2.7,0.6-5.4,1.7-8,2.7
		c-6.8,2.9-6.8,2.9-6.7,10.2c0,0.4,0,0.7,0,1.1c-0.2,0.8-0.4,1.5-0.5,2.3c0,4-1.3,7.2-5.4,8.8c-0.9,0.2-1.7,0.4-2.6,0.5
		c-19.6,0.2-39.3,0.1-58.6-4.2c-4.7-1-9.3-2.5-14.2-3.7c-0.2,0.9-0.4,1.5-0.5,2.2c-0.9,10.8-1.8,21.6-2.7,32.5
		c-0.2,2.1-0.3,4.2-0.3,6.4c-0.1,3.2,1.4,5.2,5.6,6.7c8.5,3.1,17,6,25.5,9.1c13.1,4.9,26.4,9.1,38.6,16.1c5.9,3.4,9.2,8.2,8.6,15.2
		c-0.5,5.8-0.8,11.7-1.8,17.4c-4,22.3-8.2,44.5-12.3,66.7c-0.9,4.6-1.7,9.1-2.5,13.5c4.5,1.7,8.7,3.2,12.9,4.8
		c0.8,2.3-0.3,3.9-2,5.4c-4,3.4-8.6,4.1-13.6,3.8c-4.1-0.1-8.3-0.1-12.4-0.5c-4.3-0.4-7.3,0.7-8.4,5.2c-4.6,5.1-10.8,7-17.2,8.3
		c-1.9,0.4-3.4-0.4-3.3-2.7c0.1-1.6,0.3-3.1,0.5-4.7c0.7-2.2,1.4-4.3,2.1-6.5c-0.4-0.2-0.7-0.3-0.9-0.4c-6.2-0.9-7.3-2-6.9-8.2
		c0.3-5.3,1-10.5,1.5-15.8c1.2-11.9,2.4-23.7,3.5-35.6c0.6-6.3,1.1-12.7,1.7-19c0.2-2.5-0.7-4.1-3.4-4.3c-4-0.3-7.9-0.6-11.9-1
		c-0.4-1.2-0.8-2.4-1.4-4c-1,0.7-1.6,1.2-2.4,1.8c-1.4-2.2-3.1-2.5-5.6-2.2c-3.4,0.4-7-0.2-10.5-0.4c-2.4-0.1-4.9-0.7-7.2-0.3
		c-2.7,0.5-1.8-0.8-1.6-1.6c-3.1-0.2-6.2-0.4-9.3-0.7c-1.7-0.2-3.5-0.5-5.2-0.7c-12.5-1.6-25.1-3.1-37.6-4.7c-0.3-0.4-0.7-1.1-0.9-1
		c-0.5,0.1-0.8,0.6-1.3,0.9C235,393.8,234.6,393.8,234.3,393.8z M349.7,469.3c2.4,0,4.5-0.1,6.6,0c1.7,0.1,2.6-0.7,2.9-2.4
		c0.3-2.2,0.8-4.4,1.1-6.5c2.3-16.3,4.6-32.5,6.7-48.8c1-7.8,1.6-15.6,2.3-23.5c0.5-5.2-1.9-8.9-6.6-11c-4.9-2.1-9.7-4.3-14.7-6
		c-15.6-5.2-31.3-10.1-46.9-15.2c-6.3-2.1-7.5-3.6-7.1-10.2c1.2-19.4,2.6-38.8,4.1-58.2c0.2-2.8-0.5-4.1-3.1-5.4
		c-5.8-2.8-11.3-6.2-16.9-9.3c-5.7-3.2-8.3-8.2-8.2-14.7c0-3.1,0-6.2,0-9.3c-1.3,2.8-2.5,5.7-3,8.7c-2,12.6-4,25.3-5.5,38
		c-2.1,17.7-3.3,35.4-2.3,53.2c0.3,6,1.9,12,3.4,17.9c0.9,3.5,2.7,7,7.6,6.4c1.3-0.2,2.6,0.2,3.9,0.5c11.3,2.7,22.5,5.5,33.8,8.1
		c14.5,3.4,29.1,6.6,43.7,9.9c4.1,0.9,5.5,2.6,5.5,6.9c0,3-0.6,6-0.9,8.9C353.9,427.8,351.8,448.3,349.7,469.3z M377.3,285.5
		c0.4,0,0.9,0,1.3,0c1.3,0,2.7,0.3,2.8-1.8c0.1-1.9-0.8-2.5-2.4-2.6c-3.5-0.2-7.1-0.4-10.6-0.7c-11.9-0.9-23.5-3.1-34.7-7.3
		c-13.5-5-25.8-12.3-38.2-19.5c-3.8-2.2-7.3-0.7-8.4,3.6c-0.6,2.4-0.4,4.2,2.3,5.3c4,1.7,7.8,3.7,11.8,5.5
		c11.2,5.1,22.6,9.7,34.6,12.7C349.4,284.2,363.3,285.2,377.3,285.5z"/>
	<path class="st2" d="M431.3,311.6c16.8,32.6,33.6,65.1,50.4,97.7c3.1,6,6.3,12,9.2,18.2c3.8,8,3.1,11.7-3.1,18
		c-0.7,0.7-1.4,1.4-2.1,2.1c-0.3,0.1-0.7,0.2-0.9,0.4c-8.9,9-17.7,18-26.5,27.1c-0.5,0.5-0.6,1.6-0.8,2.4
		c-6.9,7.2-13.7,14.4-20.6,21.6c-0.8,0.5-1.8,0.8-2.4,1.4c-5.6,5.6-11.1,11.3-16.5,17c-0.6,0.6-1,1.5-1.4,2.2c-2,2.1-4,4.2-6,6.4
		c-0.2,0.2-0.1,0.8,0,1.2c0.7,5.6,1.2,11.3,3.7,16.5c0.7,1.4,0.8,3,1.2,4.4c-2,1.9-3.7,4-5.9,5.6c-2.6,1.9-4.9,1.2-6.6-1.6
		c-2.9-4.7-3.2-10-3.8-15.3c-0.1-0.4-0.1-0.8-0.1-1c-22.7,3-45.4,1.4-68.1,1.7c-22.6,0.3-45.3,0.1-67.9,0c-4.2,0-8.5-0.1-12.7-0.1
		c0-0.5,0-1,0-1.6l0,0c0-0.5,0-1.1,0-1.6c0-0.2,0-0.3,0-0.5c-1-0.5-2-1.5-3-1.5c-7-0.1-14.1-0.2-21.1,0c-1.7,0-4.1-0.1-4.6,2.6
		c0,0,0,0,0,0c-0.4,0.9-0.7,1.8-1.1,2.7c-1.8,0-3.5-0.1-5.3-0.1c0.1-1,0-1.9,0.2-2.9c0.8-3.9-0.6-6.3-4.2-7.5
		c-8.7-2.9-19.2,1.9-23,10.5c-8.3,0-16.6,0-24.9,0.1c-0.7-0.9-1.5-1.8-2.2-2.7c-1-1.9-1.6-4.1-4.3-4.2c-0.2-0.2-0.4-0.4-0.5-0.5
		c-0.4-0.5-0.7-1.1-1.1-1.6c-0.4-0.2-0.7-0.4-1.1-0.5c-1.4-0.4-2.8-0.7-4.2-1.1c-0.2-0.3-0.4-0.5-0.6-0.8c-0.1,0.3-0.3,0.5-0.4,0.8
		c-1.9,0-3.9,0-5.8,0c-0.3-0.3-0.7-0.9-1-0.9c-3.6,0.1-6.8,3.5-7,7.1c0,0.8-0.7,1.5-1,2.3c-0.7-0.6-1.4-1.2-2-1.9
		c-0.6-0.7-1.3-2-1.8-1.9c-3.3,0.5-3.7-3.3-6.3-3.9c0.7-0.5,1.7-0.4,2.1-0.8c0.4-0.5,0.6-2,0.4-2.1c-1.9-0.9-3.9-1.5-5.9-2.3
		c-0.3,1-0.5,2-0.8,3c-0.4-0.1-0.7-0.1-1.1-0.2c0.3-1.8,0.7-3.6,1-5.4c0.7,0,1.4-0.1,2.1-0.1c26.9,0,53.7,0,80.6,0
		c14.9,0,29.9,0.1,44.8,0.1c0.2,0.5,0.4,0.9,0.5,1.4c0,1.1,0,2.1,0,3.2c0.2,1.2,0,2.9,0.7,3.3c1.1,0.7,2.7,0.6,4.1,0.9
		c1.1,0,2.1,0,3.2,0c0.5-0.2,1.1-0.3,1.6-0.5c0.7,0,1.4,0,2.1,0c0.2,0.3,0.4,0.6,0.7,1c0.3-0.3,0.6-0.6,0.9-1c1.2,0,2.3-0.1,3.4,0.1
		c6.4,0.7,9.8-2.1,9.9-8.4c8.6,0,17.2-0.1,25.7-0.1c27.1-0.2,54.2-0.4,81.2-0.7c6.2-0.1,11.8-1.8,16.1-6.8c0.8-0.9,1.8-1.8,2.6-2.7
		c8.1-9,16-18.1,24.4-26.9c8.8-9.3,18.1-18.1,27.1-27.3c5.8-5.9,11.4-12.1,17.1-18.2c2.3-2.5,2.9-5.4,1.6-8.6c-1.2-3-2.4-6.1-3.9-9
		c-12.4-24.3-24.8-48.5-37.2-72.7c-1.7-3.3-3.3-6.6-4.9-9.9c0.1-1.3,0.5-2.8,0.2-4c-0.4-2-1.5-4-1.8-6c-1-6.8-1.9-13.6-2.8-20.4
		c-0.1-0.5-0.4-1-0.4-1.5c0.1-1.2,0.3-2.4,0.5-3.6c1.7-0.1,2.4,0.8,3.1,2.3c1,2.5,2.6,4.6,5.5,5.1c0.3,0.2,0.7,0.3,1,0.5
		c0.4,0.4,0.7,0.7,1.1,1.1c0,0,0,0,0,0C430.6,310.9,430.9,311.3,431.3,311.6z"/>
	<path class="st4" d="M536.2,473.5c14,17.8,20.4,37.8,15.9,60.2c-6,29.6-24.2,48.5-53.5,55.6c-22.9,5.5-43.8-0.2-61.8-15.5
		c-8.6-7.3-14.8-16.3-19.3-26.6c-2.1-5.7-4.6-11.3-4.3-17.5c0.2-3.3,1.6-5.2,4.6-6.3c4.3-1.6,8.4-0.9,12.7,0.2
		c3.3,0.8,5,2.9,6.1,5.9c0.2,0.5,0.7,0.9,1.1,1.4c0.1,0.9,0,1.8,0.3,2.6c9.5,32.3,43.5,44.4,69.6,29.3
		c17.7-10.2,26.9-32.7,21.3-52.3c-2-7.1-5.2-13.5-9.7-19.3c-1.8-2.4-3-5-2.3-8.1c1.8-2.9,3.3-6,5.4-8.7c2.7-3.4,6-5.1,9-3.6
		C533.1,471.5,534.6,472.6,536.2,473.5z"/>
	<path class="st4" d="M294.3,230.4c1.4-4.7,4.9-6.9,9.4-7.9c1.2-0.2,2.5-0.3,3.7-0.4c4.7-0.3,5.2-0.6,5.8-5.3c0.3-2.4,0.1-5,0.7-7.4
		c0.4-1.6,1.6-3.3,2.9-4.3c1.7-1.3,2.4-2.6,1.6-4.5c-1.1-2.8-2.3-5.6-3.7-8.2c-0.4-0.7-1.7-0.9-2.5-1.2c-0.1-0.1-0.3,0.1-0.5,0.1
		c-9.9,2.1-10.5,2.7-11.6,12.9c-0.4,3.8-1,7.5-1.3,11.3c-0.4,7.1-5.3,10-11.9,10c-7.6,0-14.6-2.5-20.9-6.8
		c-20-13.4-23.3-39.8-7.4-58c14.9-16.9,44-16.3,57.3,1.3c2.6,3.5,4,7.8,6.2,12.1c-0.4-0.2-0.2,0,0,0c2.1,0.2,4.9-0.5,6.3,0.6
		c2.9,2.2,5.1,5.3,7.4,8.2c1,1.2,0.5,2.3-1.1,2.8c-1.5,0.5-3,1.2-4.5,1.6c-2.1,0.6-2.2,1.6-1.6,3.5c2,5.6,4,11.1,5.6,16.8
		c1.2,4.4,0.3,5.9-3.8,7.7c-2.7,1.1-4,3.1-4.3,5.9c-0.3,3-0.4,6-0.6,9c-0.3,4.1-1.8,5.7-6,5.8c-2.3,0.1-4.6-0.5-6.9-0.3
		c-1.6,0.1-3,1-4.6,1.5c-2.5-1.3-4.9-2.6-7.4-3.8C298.7,232.5,296.5,231.5,294.3,230.4z M306.6,177.6c-0.6-1-0.9-1.9-1.5-2.6
		c-5.7-6.1-12.7-9-21-7.1c-8.2,1.9-13.8,7.1-15.8,15.4c-2,8.2,0.4,15.4,6.8,21c2.5,2.2,5.6,3.8,9.1,3.7c1.5,0,2.2-0.7,2.3-2.3
		c0.4-5.9,1.1-11.8,1.3-17.7c0.1-4.6,2.4-6.7,6.5-7.6C298.3,179.7,302.3,178.7,306.6,177.6z"/>
	<path class="st5" d="M457.5,477.4c0.3-0.8,0.3-1.8,0.8-2.4c8.8-9.1,17.7-18.1,26.5-27.1c0.2-0.2,0.6-0.3,0.9-0.4
		c5.3-0.6,10.7-1.4,16-1.8c11.6-1,23-0.1,33.6,5.2c5,2.5,9.7,5.6,12.6,10.6c2.2,3.7,1.3,6.5-2.7,8.4c-2.6,1.2-5.4,2-8.2,3
		c-0.7-0.6-1.5-1.2-2.2-1.9c-2.6-2.3-5.7-3.1-9-2.1c-5.1,1.5-10.3,8.9-10.6,14.6c-3.7,1.9-7.4,3.7-11.1,5.6
		c-1.7-1.1-3.3-2.6-5.2-3.2c-5.3-1.7-10.7-3-16-4.6c-2.4-0.7-4,0.5-5.3,1.9c-3.1,3.5-2.8,12.2,0,16c0.8,1.1,1.4,2.4,2,3.6
		c-4.6,2.9-9.2,5.7-13.8,8.6c-0.3-4.5-3.2-7.2-6.9-9.2c-2.6-1.4-5.3-2.1-7.9-0.3c-3.3,2.3-4.7,5.9-6,9.5c-1.9,5-1.5,10-1.6,15.1
		c-1.8,1.3-3.5,2.6-5.3,4c-0.4-3.5-2.2-6.4-5.2-7.8c-4.5-2.3-9.4-3.4-14.4-1.6c-1.3,0.5-2,0.1-2.2-1.3c0.5-0.7,0.8-1.6,1.4-2.2
		c5.5-5.7,11-11.4,16.5-17c0.6-0.6,1.6-0.9,2.4-1.4c-1.6,3.1-3.3,6.1-4.9,9.2c0.2,0.2,0.4,0.4,0.6,0.6c20-17.2,42.3-30.7,66.3-41.5
		c-6,0.3-11.9,0.8-17.8,1.7C472.7,470.3,464.9,473.5,457.5,477.4z"/>
	<path class="st2" d="M250.2,534c0,0.2,0,0.3,0,0.5c0,0.5,0,1.1,0,1.6c0,0,0,0,0,0c-0.3,0.6-0.7,1.2-1,1.8
		c-11.1,25.6-28.3,44.7-56.6,51.4c-3.2,0.8-6.6,1-9.9,1.5c-0.9-1.9-1.5-1.1-2.1,0.2c-2.8,0-5.7,0-8.5,0.1c-0.8-2.1-1.5-2.2-3.2-0.2
		c-0.9-0.1-1.8-0.1-2.6-0.2c-0.3-0.6-0.6-1.2-0.9-1.7c-0.4,0.4-0.8,0.9-1.3,1.3c-0.4,0-0.7-0.1-1.1-0.1c-0.2-1.6,0.5-3.6-1.7-4.7
		c-0.2,1.7-0.3,3-0.4,4.3c-0.7-0.1-1.4-0.3-2.1-0.4c0-0.5,0-1.1,0-1.6c0-1.9,0.1-3.5-2.6-4c-1.4-0.2-2.8-1.9-3.8-3.2
		c-1.7-2.1-3.2-4.5-4.7-6.6c-0.8,0.2-1,0.3-1.3,0.4c-3.1,1.3-3.3,1-4.2-2.1c-0.3-1-1.6-2.2-2.7-2.3c-2.2-0.3-3.2-1.1-3.1-3.4
		c0.1-1.7-0.6-2.9-2.8-2.4c-0.6,0.1-1.4-0.5-2.3-0.9c1.1-0.8,1.8-1.3,2.6-1.9c-1.5-1.6-2.8-1.5-4.2-0.3c-0.4,0.3-1.2,0.6-1.5,0.4
		c-0.4-0.3-0.5-1-0.5-1.6c-0.1-0.5,0.1-1,0.3-1.8c-1.8,0.1-3.3,0.2-5.3,0.3c1.3-1,2.1-1.5,3.5-2.6c-2.7-0.6-5.5,2-6.4-1.6
		c1-0.6,2-1.2,3.1-1.8c-1.1-0.9-2.6-1.6-2.6-2.3c0.1-2.2-1.3-2.6-2.8-3.2c-1.2-0.5-2.3-1-3.8-1.6c1.2-0.4,1.9-0.6,2.2-0.7
		c0-2.7,0-5,0-7.5c-0.6-0.1-1.5-0.4-2.5-0.6c0-0.3,0-0.7,0-1c2-0.2,4-0.3,5.9-0.6c0.8-0.1,1.6-0.8,2.4-1.2c1.9,0.2,3.9,0.3,5.8,0.5
		c0.5,0.4,1.1,0.7,1.6,1.1c0.4,0.2,0.7,0.4,1.1,0.5l0,0c0.2,0.6,0.4,1.1,0.5,1.7c0.1,0.3,0.2,0.7,0.3,1c1.5,2.8,3.1,5.6,4.6,8.4
		c0.2,0.3,0.4,0.7,0.7,1c0.5,0.7,1,1.4,1.5,2.1c-1.1,1.9,0,2.2,1.5,2.1l0,0c0.5,3.5,3.6,6.6,7,6.9c1,0.7,2,1.5,3.1,2.2
		c0.1,1.3,0.2,2.9,2.2,1.5c2.2,1.1,4.4,2.3,6.7,3.1c17.8,6.6,34,3.9,48.6-8.3c6.2-5.2,10.2-12.1,13.8-19.2c0.3-1.1,0.7-2.1,1-3.2
		c0,0,0,0,0,0c2.4-2.1,5.4-1.6,8.2-1.6c5.2,0,10.4,0,15.5,0C246.9,533.6,248.6,533.9,250.2,534z M139.4,566.7c0.4,0,0.7,0,1.1,0
		c-0.1-0.9-0.2-1.7-0.3-2.6c-0.3,0-0.5,0-0.8,0.1C139.4,565,139.4,565.8,139.4,566.7z M127.9,552.8c-0.1,0.1-0.2,0.3-0.2,0.4
		c0,0.1,0.3,0.1,0.4,0.2c0.1-0.1,0.2-0.3,0.2-0.4C128.3,552.9,128,552.9,127.9,552.8z"/>
	<path class="st4" d="M131,538.3c-0.1-0.3-0.2-0.7-0.3-1c-0.2-0.6-0.4-1.1-0.5-1.7c0,0,0,0,0,0c-0.5-3-2.9-3.1-5.1-3.1
		c-5.1-0.1-10.2-0.1-15.4,0c-2.4,0-4.8,0.3-7.2,0.5c0,0.2,0,0.4,0.1,0.5c6.4,0,12.7,0,19.1,0c-0.8,0.4-1.6,1-2.4,1.2
		c-2,0.3-4,0.4-5.9,0.6c0,0.3,0,0.7,0,1c0.9,0.2,1.9,0.4,2.5,0.6c0,2.5,0,4.8,0,7.5c-0.3,0.1-1.1,0.3-2.2,0.7
		c1.5,0.7,2.6,1.2,3.8,1.6c1.5,0.6,2.9,1,2.8,3.2c0,0.6,1.5,1.3,2.6,2.3c-1.1,0.6-2.1,1.2-3.1,1.8c0.9,3.6,3.7,1,6.4,1.6
		c-1.4,1.1-2.2,1.6-3.5,2.6c2-0.1,3.5-0.2,5.3-0.3c-0.1,0.8-0.3,1.3-0.3,1.8c0.1,0.6,0.2,1.3,0.5,1.6c0.2,0.2,1.1-0.1,1.5-0.4
		c1.4-1.2,2.7-1.3,4.2,0.3c-0.8,0.6-1.5,1.1-2.6,1.9c1,0.4,1.7,1,2.3,0.9c2.1-0.5,2.8,0.7,2.8,2.4c-0.1,2.3,0.9,3,3.1,3.4
		c1,0.2,2.4,1.3,2.7,2.3c0.9,3.1,1.1,3.4,4.2,2.1c0.2-0.1,0.5-0.2,1.3-0.4c1.5,2.1,2.9,4.5,4.7,6.6c1.1,1.3,2.4,3,3.8,3.2
		c2.7,0.5,2.7,2.1,2.6,4c0,0.5,0,1.1,0,1.6c-14.5-3.1-26.8-10.3-37.1-20.9c-7.7-7.9-13.3-17.2-17.9-27.1c-1.3-2.8-2.8-3.6-5.8-3.5
		c-12.2,0.2-24.4,0.1-36.6,0.1c-3.8,0-4.1-0.4-3.9-4.1c0.2-3.2,0.3-6.3,0.5-9.5c0.3-3.9,0.7-4.4,4.6-4.4c8.1,0,16.3,0,24.4,0
		c6.2,0,5.9-0.1,7.7-6.1c2.5-8,5.4-15.8,8.2-23.7c0.6,0.8,1.1,1.5,1.9,2.5c-0.1,0,0.3-0.1,0.6,0c0.6,0.2,1.1,0.4,1.6,0.7
		c-0.5,0.5-1,1.3-1.6,1.4c-3.1,0.4-2.9,0.2-1.8,3c0.5,1.3,0.4,3,0.2,4.4c-0.4,2.8-0.1,3.2,2.6,3.1c1.1,0,2.2,0,4.1,0
		c0.2,0.9,0.6,2.3,1,3.8c3-0.1,1.6-3.1,2.6-5c0.8,2.1,1.4,3.8,2,5.5c-0.2,0.2-0.2,0.4-0.4,0.5c-0.7,0.5-1.4,1-2.1,1.6
		c0.6,0.5,1.2,1.3,1.9,1.5c0.6,0.2,1.5-0.2,2.2-0.4c0.5-0.1,0.9-0.4,1.4-0.6c-0.6,2.5-1.2,5-1.8,7.7c0.8,0.1,1.4,0.3,2.1,0.4
		c-0.3,1.8-0.7,3.6-1,5.4c0.4,0.1,0.7,0.1,1.1,0.2c0.3-1,0.5-2,0.8-3c2,0.8,4,1.4,5.9,2.3c0.2,0.1,0,1.6-0.4,2.1
		c-0.4,0.4-1.3,0.4-2.1,0.8c2.6,0.6,3,4.4,6.3,3.9c0.5-0.1,1.2,1.3,1.8,1.9c0.6,0.7,1.3,1.3,2,1.9c0.4-0.8,1-1.5,1-2.3
		c0.2-3.6,3.5-7,7-7.1c0.3,0,0.7,0.6,1,0.9c-0.9,0.4-1.8,0.7-2.7,1.1c0,0,0,0,0,0c-0.5,0.4-1.1,0.7-1.6,1.1c-0.4,0.6-1,1.1-1,1.7
		c0,2.3,0.3,4.5,0.5,6.8C135.7,538,133.4,538.1,131,538.3z"/>
	<path class="st4" d="M403.7,263.4c-1.3-3.3-2.4-6.6-3.8-9.9c-1.5-3.5-3.3-6.8-7.2-8.7c-0.4,1-0.7,1.8-1.1,2.6
		c-1.3,2.3-2.4,4.8-4.1,6.8c-5.7,6.5-13.7,5.8-18.8-1.5c-6.7-9.5-6.7-25.8,0-35.3c5.6-7.9,14.5-8,19.9,0c1.9,2.8,2.7,6.2,4,9.4
		c-0.8,0-1.7,0.1-2.5,0.1c0,0.9,0,1.5,0,2c-1.1-0.4-2-0.7-3-1c-1.9,0.9-1,2.2-0.5,3.4c0.4,1.1,0.7,2.3,1.1,3.4
		c0.2,1.4,0.3,2.8,0.5,4.2c-1.2,1.4-1.4,2.3,0.2,3.8c1.8,1.7,2.5,0.2,3.5-0.6c2.9-2.5,2-8.4-1.4-9.6c0-0.5-0.1-1.1-0.1-1.6
		c2.3-0.3,2.6-1.9,2.6-3.8c10.2,1.9,18,6.9,21.2,17.4c1.7,5.5,3.4,11.1,5.1,16.6c-5.2-1.4-10-0.6-14.6,2.1
		C404.5,263.4,404,263.3,403.7,263.4z M384.2,235c-0.8-2.2-1.2-4.6-2.4-6.5c-1.6-2.7-4.4-2.5-6.3,0.1c-2.4,3.4-2.4,9.6,0,13
		c1.9,2.6,4.8,2.7,6.4-0.1C383,239.5,383.4,237.3,384.2,235z"/>
	<path class="st6" d="M429.2,309.5c-0.3-0.2-0.7-0.3-1-0.5c-1.6-1.9-3.3-3.8-4.9-5.7c0.1-0.2,0.3-0.5,0.4-0.7
		c7.4,2.7,13.4,1.6,17.3-5.8c0.9,0.2,1.8,0.3,2.9,0.5c0-7.4,0-14.5,0-22c-1.6,0.5-3,1-4.3,1.4c-3-3.4-6-6.8-8.9-10.2
		c-0.8-0.9-1.6-1.8-2.4-2.7c2.7-1.7,5.3-3.8,8.3-5.1c5.1-2.3,10.3-4.6,16.3-3.5c4.2,0.8,6.1,2.3,6.8,6.6c0.3,1.9,0.5,3.9,0.5,5.8
		c0,12.3,0,24.6,0,36.9c0,0.4,0,0.7,0,1.1c-0.2,9.6-5.4,13.4-14.7,10.6c-4.6-1.3-9-3.3-13.4-4.9c-0.5-0.3-1-0.5-1.6-0.8c0,0,0,0,0,0
		C430,310.2,429.6,309.9,429.2,309.5z"/>
	<path class="st7" d="M416.5,519.7c0.2,1.4,0.9,1.8,2.2,1.3c5.1-1.7,10-0.6,14.4,1.6c2.9,1.5,4.8,4.4,5.2,7.8
		c-0.2,0.1-0.3,0.3-0.5,0.4c-0.4-0.5-0.9-0.9-1.1-1.4c-1.1-3-2.8-5.1-6.1-5.9c-4.2-1.1-8.4-1.8-12.7-0.2c-3.1,1.2-4.5,3-4.6,6.3
		c-0.3,6.3,2.2,11.9,4.3,17.5c-0.7,0.4-1.5,0.7-2.2,1.1c-0.4-1.5-0.6-3.1-1.2-4.4c-2.5-5.2-3-10.9-3.7-16.5c0-0.4-0.2-1,0-1.2
		C412.5,523.9,414.5,521.8,416.5,519.7z"/>
	<path class="st7" d="M515.3,483.5c0.2-5.6,5.5-13.1,10.6-14.6c3.3-1,6.4-0.2,9,2.1c0.7,0.6,1.5,1.2,2.2,1.9
		c-0.3,0.2-0.6,0.4-0.9,0.6c-1.6-0.9-3.1-2-4.7-2.7c-3.1-1.5-6.3,0.2-9,3.6c-2.1,2.6-3.6,5.8-5.4,8.7
		C516.5,483.2,515.9,483.3,515.3,483.5z"/>
	<path class="st8" d="M428.2,263.9c0.8,0.9,1.6,1.8,2.4,2.7c3,3.4,6,6.8,8.9,10.2c-0.6,0.3-1.1,0.6-1.7,1c-2.1-2.5-4-5-6.2-7.4
		c-1.6-1.7-3.4-3.3-5.1-4.9C427.1,264.9,427.7,264.4,428.2,263.9z"/>
	<path class="st9" d="M294.3,230.4c2.2,1,4.4,2.1,6.5,3.1c2.5,1.2,4.9,2.5,7.4,3.8c-0.1,0.5-0.2,1.1-0.2,1.6
		c-4.7-2.2-9.4-4.5-14.1-6.7C294,231.6,294.2,231,294.3,230.4z"/>
	<path class="st9" d="M403.7,263.4c0.4,0,0.8,0,1-0.1c4.6-2.7,9.5-3.5,14.6-2.1c0.1,0.4,0.2,0.7,0.2,1.1c-5.5-0.7-10.5,1.1-15.6,2.7
		C403.9,264.4,403.8,263.9,403.7,263.4z"/>
	<path class="st7" d="M393.1,227.2c0,1.9-0.3,3.5-2.6,3.8c-1.1-1.1-2.2-2.1-3.2-3.2c1,0.3,1.9,0.7,3,1c0-0.5,0-1.1,0-2
		c0.8,0,1.6-0.1,2.5-0.1C392.8,226.8,393,227,393.1,227.2z"/>
	<path class="st4" d="M161,589.7c0.1-1.3,0.2-2.7,0.4-4.3c2.3,1.2,1.6,3.1,1.7,4.7C162.4,590,161.7,589.8,161,589.7z"/>
	<path class="st4" d="M168.9,590.8c1.7-2,2.4-1.9,3.2,0.2C171.1,591,170,590.9,168.9,590.8z"/>
	<path class="st4" d="M164.2,590.2c0.4-0.4,0.8-0.9,1.3-1.3c0.3,0.6,0.6,1.2,0.9,1.7C165.6,590.5,164.9,590.4,164.2,590.2z"/>
	<path class="st4" d="M180.6,591c0.6-1.2,1.3-2,2.1-0.2C182,590.9,181.3,590.9,180.6,591z"/>
	<path class="st9" d="M430.3,310.6c0.5,0.3,1,0.5,1.6,0.8c-0.2,0.1-0.4,0.2-0.6,0.3C430.9,311.3,430.6,310.9,430.3,310.6z"/>
	<path class="st9" d="M249.2,538c0.3-0.6,0.7-1.2,1-1.8c0,0.5,0,1,0,1.6C249.9,537.8,249.6,537.9,249.2,538z"/>
	<path class="st0" d="M148,273.5c-0.3,2.9-0.7,5.7-0.8,8.4c-0.1,4.1,0,4.1,4.2,4.1c5.8,0,11.5,0,17.3,0c3.9,0,7.8-0.1,11.7,0
		c2,0,3-0.6,2.8-2.8c-0.3-3.2-0.4-6.4-0.7-10c-0.5,0.2-0.3,0-0.1,0c6.2,0,12.4-0.1,18.6,0.1c5.3,0.2,7.5,2.3,7.6,7.5
		c0.3,16.6,0.3,33.2,0.4,49.9c0,3.4,0.1,6.9,0,10.3c-0.1,6.6-0.2,13.3-0.3,19.9c-0.1,5.8-2.1,7.9-8.1,7.9
		c-18.9,0.1-37.7,0.1-56.6,0.1c-4.9,0-9.7,0-14.6-0.1c-6-0.1-8-2-8-7.9c0-24.5,0-49,0-73.5c0-2.4,0.2-4.8,0.5-7.1
		c0.6-4.6,2.5-6.7,7-6.9C135.5,273.2,142,273.5,148,273.5z"/>
	<path class="st0" d="M119.5,519.9c-0.7-0.1-1.3-0.2-2.1-0.4c0.6-2.6,1.2-5.2,1.8-7.7c3.6-12.2,9.9-22.9,18.3-32.2
		c6.2-6.9,13.3-12.9,21.8-17.1c14.9-7.3,30.6-9.6,47-7.6c11.8,1.5,22.7,5.2,31.2,14.1c5,5.2,8,11.5,9.5,18.4
		c1.4,6.4,2.2,13,3.3,19.5c0,1.8,0,3.5,0,5.3c-0.2,2-0.3,4-0.6,5.9c-0.1,0.7-1,1.2-1.6,1.7c-0.4,0-0.7,0-1.1,0
		c-14.9,0-29.9-0.1-44.8-0.1c-26.9,0-53.7,0-80.6,0C120.9,519.8,120.2,519.8,119.5,519.9z"/>
	<path class="st10" d="M424,337.1c1.6,3.3,3.2,6.7,4.9,9.9c12.4,24.2,24.9,48.5,37.2,72.7c1.5,2.9,2.6,6,3.9,9
		c1.3,3.2,0.7,6.1-1.6,8.6c-5.7,6.1-11.3,12.2-17.1,18.2c-9,9.2-18.3,18-27.1,27.3c-8.3,8.8-16.3,17.9-24.4,26.9
		c-0.8,0.9-1.8,1.7-2.6,2.7c-4.2,5-9.9,6.7-16.1,6.8c-27.1,0.3-54.1,0.5-81.2,0.7c-8.6,0.1-17.2,0.1-25.7,0.1
		c-1.7,0.1-2.4-0.7-2.2-2.5c0.2-1.3,0-2.7-0.1-4.1c-0.1-3.5-0.1-7.1-0.2-10.6c-0.7-17.8-5.7-34.1-16.7-48.3
		c-6.9-8.9-16.1-14.8-26.7-18.4c-20.1-6.7-40.3-6.4-60.6-0.9c-0.6,0.2-1.2,0.3-1.8,0.5c-0.3,0.1-0.5,0.1-1.3,0.2
		c1.8-5.4,3.6-10.5,5.5-15.9c1.6,0,3.6,0,5.5,0c24.1,0,48.2,0,72.2,0c0.9,0,1.8-0.1,2.6-0.2c12.3,0.1,24.6,0.1,36.9,0.2
		c-3.4,12.5-7.1,25-10.1,37.6c-2.5,10.9-4.4,22.1-1.5,33.3c2.7,10.5,9.1,18.2,19.1,22.3c11.1,4.6,23.1,5.1,34.9,5.3
		c9.4,0.1,18.9-0.9,28.3-1.9c9.7-1.1,19-4,27.7-8.4c9-4.5,16.6-10.7,23.2-18.2c7.5-8.5,13.3-18,18.1-28.2
		c7.7-16.4,10.6-33.8,8.8-51.6c-1.5-15.2-4.4-30.2-7-45.3c-1.6-9.3-3.7-18.4-5.6-27.6C423.5,337.1,423.7,337.1,424,337.1z"/>
	<path class="st0" d="M318.2,406.6c4,0.3,7.9,0.7,11.9,1c2.7,0.2,3.7,1.7,3.4,4.3c-0.6,6.3-1.1,12.7-1.7,19
		c-1.1,11.9-2.3,23.7-3.5,35.6c-0.5,5.3-1.2,10.5-1.5,15.8c-0.3,6.2,0.7,7.3,6.9,8.2c0.2,0,0.5,0.2,0.9,0.4
		c-0.7,2.2-1.4,4.3-2.1,6.5c-1.1-0.1-2.1-0.2-3.2-0.2c-7.2-1.3-14.6-1.8-21.5-4.1c-9.9-3.2-12.8-9.7-12.2-18.1
		c0.5-7.3,2-14.7,3.7-21.8c2.8-11.5,6.3-22.8,9.5-34.1c0.3-0.9,0.6-1.8,0.9-2.7c1.1-3.3,1.6-6.9,5-8.8
		C315.9,407.1,317.1,406.9,318.2,406.6z"/>
	<path class="st11" d="M314.8,407.3c-3.4,2-3.9,5.6-5,8.8c-0.3,0.9-0.6,1.8-0.9,2.7c-7.2,0.3-14.4,0.6-21.7,1
		c-12.3-0.1-24.6-0.1-36.9-0.2c-0.7-0.5-1.4-1.1-2.1-1.3c-1.2-0.4-2.5-0.6-3.7-0.9c0-0.3,0-0.6,0-1c2.5-0.2,5-0.3,7.5-0.5
		c0.1-0.2,0.1-0.4,0.2-0.6c-1.1-0.4-2.1-0.9-3.7-1.5c2.7-0.7,5-1.1,7.3-1.9c0.8-0.3,1.4-1.2,2.1-1.8c-0.2-0.3-0.3-0.6-0.5-0.8
		c1.8-0.2,3.5-0.3,5.5-0.5c-0.5-0.6-1-1.1-1.7-1.9c0.9-0.2,1.4-0.4,2-0.4c4.3,0,8.5,0.1,12.8-0.1c3.9-0.2,7.9-0.9,11.8-1
		c4.7-0.1,9.3,0.3,14,0.5c3.1,0.1,6.3-0.1,9.4,0.1C312.3,406.2,313.6,406.9,314.8,407.3z"/>
	<path class="st12" d="M234.3,393.8c0.4,0,0.7,0,1.1,0c0.7,0,1.4,0.1,2.1,0.1c12.5,1.6,25.1,3.1,37.6,4.7c1.7,0.2,3.5,0.5,5.2,0.7
		c-2.3,0.5-4.6,1.4-6.9,1.4c-37.2,0.1-74.3,0-111.5,0c-3.7,0-5.5-2.9-3.8-6.2c0.3-0.7,1.9-1,2.9-1c10.4-0.1,20.9-0.1,31.3,0
		C206.3,393.5,220.3,393.7,234.3,393.8z"/>
	<path class="st4" d="M271.7,502.7c0.1,3.5,0.1,7.1,0.2,10.6c-2.8,0.2-5.7,0.5-8.7,0.8c0-1.2,0-1.9,0-2.9c-1,0-1.9-0.1-2.7,0
		c-3.4,0.3-6.7,0.7-10.1,1c0-1.8,0-3.5,0-5.3c5.3-1,10.7-2,16-3C268.1,503.6,269.9,503.1,271.7,502.7z"/>
	<path class="st12" d="M170,271.1c-0.1,6.1,0.8,5.3-5.3,5.4c-0.7,0-1.4,0-2.1,0c-1.5,0.1-2.4-0.5-2.2-2.1c0.1-0.6,0-1.2,0-1.8
		c0-7.2,0-7.1,7.3-7c1.9,0,2.5,0.7,2.4,2.5C170,269,170,270,170,271.1z"/>
	<path class="st4" d="M108.5,502.4c1.1-0.4,2.1-0.9,3.2-1.3c0.1,0.4,0.3,0.7,0.4,1.1c-1.1,0.4-2.1,0.8-3.2,1.2
		C108.8,503.1,108.7,502.7,108.5,502.4z"/>
	<path class="st0" d="M388.8,482.4c-4.2-1.6-8.4-3.1-12.9-4.8c0.8-4.3,1.7-8.9,2.5-13.5c4.1-22.2,8.4-44.4,12.3-66.7
		c1-5.7,1.4-11.6,1.8-17.4c0.5-6.9-2.8-11.8-8.6-15.2c-12.2-7-25.6-11.2-38.6-16.1c-8.5-3.1-17-6-25.5-9.1c-4.2-1.5-5.8-3.5-5.6-6.7
		c0.1-2.1,0.2-4.2,0.3-6.4c0.9-10.8,1.8-21.7,2.7-32.5c0.1-0.7,0.3-1.3,0.5-2.2c4.8,1.3,9.4,2.7,14.2,3.7c19.3,4.3,39,4.3,58.6,4.2
		c0.9,0,1.7-0.3,2.6-0.5c0.3,2.5,0.4,5.1,1,7.6c2.7,12,5.6,24,8.4,35.9c1.8,7.8,3.7,15.5,5.6,23.3c0.1,0.3,0.1,0.7,0.2,1
		c0.1,0.4,0.2,0.7,0.3,1.1c1.4,6.7,2.8,13.5,4.3,20.2c1,7,2.2,13.9,2.9,20.9c1.3,12.4,0.6,24.7-3.3,36.6
		c-4.4,13.4-11.6,25.1-21.9,34.7C389.9,481.4,389.4,481.9,388.8,482.4z"/>
	<path class="st0" d="M349.7,469.3c2.1-21,4.2-41.4,6.3-61.9c0.3-3,0.9-6,0.9-8.9c0-4.3-1.4-5.9-5.5-6.9
		c-14.6-3.3-29.1-6.5-43.7-9.9c-11.3-2.6-22.5-5.4-33.8-8.1c-1.3-0.3-2.7-0.7-3.9-0.5c-4.9,0.6-6.6-2.9-7.6-6.4
		c-1.5-5.9-3.1-11.8-3.4-17.9c-1-17.8,0.2-35.5,2.3-53.2c1.5-12.7,3.5-25.4,5.5-38c0.5-3,1.7-5.9,3-8.7c0,3.1,0,6.2,0,9.3
		c-0.1,6.5,2.5,11.5,8.2,14.7c5.6,3.1,11.1,6.5,16.9,9.3c2.6,1.3,3.3,2.6,3.1,5.4c-1.5,19.4-2.9,38.8-4.1,58.2
		c-0.4,6.6,0.8,8.2,7.1,10.2c15.6,5.1,31.3,10,46.9,15.2c5,1.7,9.9,3.8,14.7,6c4.7,2.1,7.1,5.8,6.6,11c-0.7,7.8-1.3,15.7-2.3,23.5
		c-2.1,16.3-4.4,32.5-6.7,48.8c-0.3,2.2-0.7,4.4-1.1,6.5c-0.2,1.7-1.2,2.4-2.9,2.4C354.1,469.2,352,469.3,349.7,469.3z"/>
	<path class="st13" d="M377.3,285.5c-14-0.3-27.9-1.3-41.6-4.7c-12-3-23.4-7.6-34.6-12.7c-3.9-1.8-7.8-3.8-11.8-5.5
		c-2.7-1.1-2.9-2.9-2.3-5.3c1.1-4.3,4.7-5.8,8.4-3.6c12.4,7.2,24.7,14.5,38.2,19.5c11.2,4.2,22.8,6.3,34.7,7.3
		c3.5,0.3,7.1,0.5,10.6,0.7c1.6,0.1,2.5,0.7,2.4,2.6c-0.1,2.1-1.5,1.8-2.8,1.8C378.2,285.5,377.8,285.5,377.3,285.5z"/>
	<path class="st14" d="M408,366.3c-1.9-7.8-3.8-15.5-5.6-23.3c-2.8-12-5.7-24-8.4-35.9c-0.6-2.5-0.7-5-1-7.6
		c4.1-1.5,5.4-4.7,5.4-8.7c0-0.8,0.3-1.5,0.5-2.3c0.7-0.4,1.5-0.8,2.2-1.3c-0.2,1.6-0.3,3.2-0.5,4.8v0c-0.5,1.3-1.6,2.6-1.5,3.8
		c0.2,5.1,0.6,10.2,1.3,15.2c0.5,4.3,1.6,8.6,2.1,12.9c0.4,3,0.1,6.1,0.6,9.1c1.9,10.4,4,20.8,5.9,31.3
		C409,364.9,408.4,365.6,408,366.3z"/>
	<path class="st13" d="M401.1,287.2c-0.7,0.4-1.5,0.8-2.2,1.3c0-0.4,0-0.7,0-1.1c-0.1-7.3-0.1-7.3,6.7-10.2c2.6-1.1,5.2-2.1,8-2.7
		c5.3-1.2,12.8,3.7,13.8,9c0.3,1.4-0.7,3.1-1.4,4.5c-0.4,0.8-1.4,1.3-2.1,1.9c-0.2,0-0.5,0-0.7,0c-1.5-5.8-5.4-8.9-11.4-9.1
		c-0.4,0-0.7,0-1.1,0.1c-1.2,0.4-2.5,0.7-3.7,1.1c-1.4,1.1-2.8,2.1-4.2,3.2C402.2,285.8,401.6,286.5,401.1,287.2z"/>
	<path class="st15" d="M437.8,277.7c0.6-0.3,1.1-0.6,1.7-1c1.3-0.4,2.6-0.9,4.3-1.4c0,7.5,0,14.6,0,22c-1-0.2-2-0.4-2.9-0.5
		c-0.4-0.2-0.8-0.4-1.2-0.5c0-1.2,0.1-2.5,0.1-3.7c0-0.7,0-1.4,0-2.1C439.2,286.2,438.5,281.9,437.8,277.7z"/>
	<path class="st11" d="M329.4,497.1c1.1,0.1,2.1,0.2,3.2,0.2c-0.2,1.6-0.4,3.1-0.5,4.7c-0.1,2.3,1.4,3.1,3.3,2.7
		c6.4-1.3,12.6-3.2,17.2-8.3c0.6,0,1.2,0.1,1.8,0.1c-0.5,0.9-0.8,2-1.5,2.6c-4.2,3.9-9.1,6.4-14.8,7.4c-3.8,0.7-6.1-0.4-8.2-3.4
		C328.3,501.1,329.1,499.1,329.4,497.1z"/>
	<path class="st15" d="M354.4,496.5c-0.6,0-1.2-0.1-1.8-0.1c1-4.6,4-5.7,8.4-5.2c4.1,0.4,8.2,0.4,12.4,0.5c-1.1,0.6-2.2,1.2-3.3,1.8
		C364.7,494.5,359.6,495.5,354.4,496.5z"/>
	<path class="st9" d="M439.8,296.3c0.4,0.2,0.8,0.4,1.2,0.5c-3.8,7.4-9.9,8.4-17.3,5.8c-0.1,0.2-0.3,0.5-0.4,0.7
		c1.6,1.9,3.3,3.8,4.9,5.7c-2.9-0.6-4.5-2.6-5.5-5.1c-0.6-1.5-1.4-2.4-3.1-2.3c0,0,0,0,0,0c0.5-0.7,1-1.4,1.5-2.1c1,0.2,2,0.3,3,0.5
		c0.6,0.1,1.2,0.3,1.7,0.5c2,0,4.1,0.1,6.1,0C435.2,300.2,438,299.1,439.8,296.3z"/>
	<path class="st8" d="M369.9,493.4c1.1-0.6,2.2-1.2,3.3-1.8c5,0.3,9.6-0.4,13.6-3.8c1.7-1.5,2.8-3.1,2-5.4c0.5-0.5,1.1-1,1.6-1.5
		c0,2,0.7,4.6-0.3,6C385.7,493.5,377.7,496.1,369.9,493.4z"/>
	<path class="st16" d="M425.9,300.5c-0.6-0.2-1.1-0.4-1.7-0.5c-1-0.2-2-0.3-3-0.5c0.6-3.2,1.3-6.4,1.9-9.6c0.2,0,0.5,0,0.7,0
		C422.2,293.8,423.4,297.3,425.9,300.5z"/>
	<path class="st2" d="M237.5,394c-0.7,0-1.4-0.1-2.1-0.1c0.4-0.3,0.8-0.8,1.3-0.9C236.8,392.9,237.2,393.6,237.5,394z"/>
	<path class="st17" d="M439.9,290.4c0,0.7,0,1.4,0,2.1c-0.3-0.4-0.8-0.8-1-1.2C438.9,291.1,439.5,290.7,439.9,290.4z"/>
	<path class="st13" d="M131,538.3c2.4-0.2,4.7-0.3,7.1-0.5c8.6,15.9,26.3,24.7,44,21.8c14-2.3,24.4-9.6,31.4-21.9c0.5,0,1.1,0,1.6,0
		c1.8,0,3.5,0.1,5.3,0.1c0,0.2,0,0.3,0.1,0.5c-3.7,7.1-7.6,14-13.8,19.2c-14.6,12.2-30.8,14.9-48.6,8.3c-2.3-0.9-4.5-2.1-6.7-3.1
		c-0.7-0.5-1.4-1-2.2-1.5c-1-0.7-2-1.5-3.1-2.2c-2.3-2.3-4.6-4.6-7-6.9c0,0,0,0,0,0c-0.5-0.7-1-1.4-1.5-2.1c-0.5-0.7-1-1.4-1.5-2.1
		c-0.2-0.3-0.4-0.7-0.7-1C134.1,543.9,132.5,541.1,131,538.3z"/>
	<path class="st13" d="M457.5,477.4c7.5-4,15.2-7.2,23.6-8.4c5.8-0.9,11.7-1.5,17.8-1.7c-24.1,10.8-46.4,24.3-66.3,41.5
		c-0.2-0.2-0.4-0.4-0.6-0.6c1.6-3.1,3.3-6.1,4.9-9.2C443.7,491.9,450.6,484.7,457.5,477.4z"/>
	<path class="st8" d="M250.3,512.3c3.4-0.3,6.7-0.7,10.1-1c0.9-0.1,1.7,0,2.7,0c0,0.9,0,1.6,0,2.9c3-0.3,5.9-0.5,8.7-0.8
		c0,1.4,0.2,2.8,0.1,4.1c-0.2,1.8,0.5,2.5,2.2,2.5c-0.1,6.3-3.5,9.1-9.9,8.4c-1.1-0.1-2.3,0-3.4-0.1c-0.5,0-1.1,0-1.6,0
		c-0.7,0-1.4,0-2.1,0c-0.5,0.2-1.1,0.3-1.6,0.5c-1.1,0-2.1,0-3.2,0c-1.6-1.4-3.2-2.8-4.8-4.2c0-1.1,0-2.1,0-3.2
		c0.2-0.5,0.3-0.9,0.5-1.4c0.6-0.6,1.5-1.1,1.6-1.7C250.1,516.2,250.1,514.2,250.3,512.3z"/>
	<path class="st9" d="M424,337.1c-0.2,0-0.4,0-0.7-0.1c-0.4-1.6-0.9-3.2-1.2-4.8c-2.5-12.2-5.1-24.5-7.6-36.7
		c0.6-0.4,1.2-0.7,1.9-1.1c0.2,1.1,0.3,2.2,0.7,3.3c0.5,1.5,0.1,3.7,2.6,3.8c0,0,0,0,0,0c-0.2,1.2-0.4,2.4-0.5,3.6
		c0,0.5,0.3,1,0.4,1.5c0.9,6.8,1.7,13.6,2.8,20.4c0.3,2,1.4,4,1.8,6C424.4,334.3,424.1,335.8,424,337.1z"/>
	<path class="st15" d="M163.2,537.8c8.3,0,16.6,0,24.9-0.1l0.1,0.1c0,0,0.2,0,0.2,0C181.4,544.1,170,544.1,163.2,537.8L163.2,537.8z
		"/>
	<path class="st4" d="M188.4,537.8l-0.2,0c0,0-0.1-0.1-0.1-0.1c3.9-8.6,14.3-13.3,23-10.5c3.7,1.2,5,3.6,4.2,7.5
		c-0.2,0.9-0.1,1.9-0.2,2.9c-0.5,0-1.1,0-1.6,0c0.2-1.1,0.4-2.2,0.6-3.4c0.6-3.5,0.2-4.5-3.1-5.5c-2.3-0.7-4.9-0.6-7.4-0.7
		c-4.7-0.1-8.4,1.8-11.2,5.8C191.4,535.5,189.8,536.6,188.4,537.8z"/>
	<path class="st9" d="M250.2,534c-1.6-0.2-3.3-0.5-4.9-0.5c-5.2-0.1-10.4,0-15.5,0c-2.8,0-5.8-0.5-8.2,1.6c0.5-2.7,2.9-2.5,4.6-2.6
		c7-0.2,14.1-0.1,21.1,0C248.2,532.5,249.2,533.5,250.2,534z"/>
	<path class="st7" d="M140.2,528.2c0.9-0.4,1.8-0.7,2.7-1.1c1.9,0,3.9,0,5.8,0c0.4,0,0.7,0,1.1,0c1.4,0.4,2.8,0.7,4.2,1.1
		c0.4,0.2,0.7,0.4,1.1,0.5c0.4,0.5,0.7,1.1,1.1,1.6l0,0c-2-0.7-4-1.8-6.1-2C146.8,527.9,143.5,528.2,140.2,528.2z"/>
	<path class="st4" d="M247.6,524.5c1.6,1.4,3.2,2.8,4.8,4.2c-1.4-0.3-3.1-0.2-4.1-0.9C247.6,527.4,247.8,525.6,247.6,524.5z"/>
	<path class="st7" d="M156.7,530.8c2.7,0.1,3.3,2.4,4.3,4.2c0,0,0,0,0,0C159.5,533.7,158.1,532.3,156.7,530.8L156.7,530.8z"/>
	<path class="st7" d="M161,535.1c0.7,0.9,1.5,1.8,2.2,2.7c0,0,0,0,0,0C162.4,536.9,161.7,536,161,535.1L161,535.1z"/>
	<path class="st4" d="M220.5,538.3c-0.1-0.1-0.1-0.3-0.1-0.5c0.4-0.9,0.7-1.8,1.1-2.7C221.2,536.2,220.9,537.2,220.5,538.3z"/>
	<path class="st4" d="M255.5,528.7c0.5-0.2,1.1-0.3,1.6-0.5C256.6,528.4,256.1,528.5,255.5,528.7z"/>
	<path class="st4" d="M259.2,528.2c0.5,0,1.1,0,1.6,0c-0.3,0.3-0.6,0.6-0.9,1C259.7,528.8,259.5,528.5,259.2,528.2z"/>
	<path class="st4" d="M248.1,519.9c-0.2,0.5-0.3,0.9-0.5,1.4c-0.2-0.5-0.4-0.9-0.5-1.4C247.4,519.9,247.7,519.9,248.1,519.9z"/>
	<path class="st4" d="M155.1,528.7c-0.4-0.2-0.7-0.4-1.1-0.5C154.4,528.4,154.8,528.6,155.1,528.7z"/>
	<path class="st4" d="M149.8,527.1c-0.4,0-0.7,0-1.1,0c0.1-0.3,0.3-0.5,0.4-0.8C149.4,526.6,149.6,526.9,149.8,527.1z"/>
	<path class="st9" d="M250.2,536.2c0-0.5,0-1.1,0-1.6C250.2,535.1,250.2,535.6,250.2,536.2z"/>
	<path class="st9" d="M429.2,309.5c0.4,0.4,0.7,0.7,1.1,1.1C430,310.2,429.6,309.9,429.2,309.5z"/>
	<path class="st7" d="M156.2,530.3c0.2,0.2,0.4,0.4,0.5,0.5c0,0,0,0,0,0C156.5,530.7,156.4,530.5,156.2,530.3L156.2,530.3z"/>
	<path class="st13" d="M515.3,483.5c0.6-0.1,1.2-0.3,1.8-0.4c-0.7,3.1,0.4,5.7,2.3,8.1c4.4,5.8,7.6,12.2,9.7,19.3
		c5.6,19.6-3.6,42.1-21.3,52.3c-26.1,15.1-60.1,3-69.6-29.3c-0.2-0.8-0.2-1.7-0.3-2.6c0.2-0.1,0.3-0.3,0.5-0.4
		c1.8-1.3,3.5-2.6,5.3-4c0.7-0.3,1.4-0.6,2.1-0.9c1.5,20.9,20.1,37.2,41.3,35.1c15.4-1.5,26.4-9.4,32.2-23.6
		c5.8-14.1,3.5-27.4-6.3-39.2c-2.7-3.2-6.2-5.7-9.3-8.5c0.2-0.1,0.4-0.3,0.6-0.4C507.9,487.2,511.6,485.3,515.3,483.5z"/>
	<path class="st10" d="M306.6,177.6c-4.3,1-8.3,2-12.3,2.9c-4.1,0.9-6.4,3.1-6.5,7.6c-0.2,5.9-0.9,11.8-1.3,17.7
		c-0.1,1.6-0.8,2.2-2.3,2.3c-3.6,0.1-6.6-1.5-9.1-3.7c-6.4-5.6-8.8-12.8-6.8-21c2-8.3,7.5-13.5,15.8-15.4c8.3-2,15.3,0.9,21,7.1
		C305.7,175.7,306,176.6,306.6,177.6z"/>
	<path class="st0" d="M465.9,511.3c4.6-2.9,9.2-5.7,13.8-8.6c0.5-0.4,1.1-0.7,1.6-1.1c3.2,0.8,6.4,1.3,9.5,2.4
		c10.4,3.9,15.4,14.9,11.8,25.3c-3.5,9.9-14.4,15.3-24.5,12.2c-10.3-3.2-16-13.8-13.3-24.4c0.4-1.7,0.5-3.5,0.7-5.2
		C465.7,511.7,465.8,511.5,465.9,511.3z"/>
	<path class="st7" d="M481.3,501.7c-0.5,0.4-1.1,0.7-1.6,1.1c-0.7-1.2-1.2-2.5-2-3.6c-2.9-3.8-3.1-12.5,0-16
		c1.3-1.5,2.9-2.6,5.3-1.9c5.3,1.6,10.7,2.9,16,4.6c1.9,0.6,3.5,2.1,5.2,3.2c-0.2,0.1-0.4,0.3-0.6,0.4c-0.7-0.2-1.4-0.3-2-0.5
		c-6-1.9-12-3.9-18-5.7c-2.9-0.8-5,0.3-5.2,2.9C477.9,491.5,477.2,497.1,481.3,501.7z"/>
	<path class="st7" d="M465.9,511.3c-0.1,0.2-0.3,0.4-0.4,0.6c-1.5-2.3-2.7-5-4.6-6.9c-3.1-3.1-7.6-3.2-9.7-0.4
		c-1.4,1.8-2.5,3.8-3.4,5.9c-1.9,4.8-2.4,9.9-2.2,15.1c-0.7,0.3-1.4,0.6-2.1,0.9c0.1-5.1-0.3-10.2,1.6-15.1c1.4-3.7,2.7-7.2,6-9.5
		c2.6-1.8,5.3-1.1,7.9,0.3C462.8,504.1,465.6,506.8,465.9,511.3z"/>
	<path class="st7" d="M121.7,533.5c-6.4,0-12.7,0-19.1,0c0-0.2,0-0.4-0.1-0.5c2.4-0.2,4.8-0.5,7.2-0.5c5.1-0.1,10.2-0.1,15.4,0
		c2.2,0.1,4.6,0.2,5.1,3.1c-0.4-0.2-0.7-0.4-1.1-0.5c-0.5-0.4-1.1-0.7-1.6-1.1C125.6,533.9,123.6,533.7,121.7,533.5z"/>
	<path class="st4" d="M139.2,552c2.3,2.3,4.6,4.6,7,6.9C142.8,558.6,139.7,555.5,139.2,552z"/>
	<path class="st4" d="M139.4,566.7c0-0.9,0-1.7,0-2.6c0.3,0,0.5,0,0.8-0.1c0.1,0.9,0.2,1.7,0.3,2.6
		C140.1,566.7,139.8,566.7,139.4,566.7z"/>
	<path class="st4" d="M137.8,549.9c0.5,0.7,1,1.4,1.5,2.1C137.7,552,136.6,551.7,137.8,549.9z"/>
	<path class="st4" d="M149.3,561.1c0.7,0.5,1.4,1,2.2,1.5C149.4,564,149.4,562.5,149.3,561.1z"/>
	<path class="st4" d="M127.5,534c0.5,0.4,1.1,0.7,1.6,1.1C128.6,534.7,128,534.4,127.5,534z"/>
	<path class="st4" d="M135.6,546.7c0.2,0.3,0.4,0.7,0.7,1C136,547.4,135.8,547.1,135.6,546.7z"/>
	<path class="st4" d="M127.9,552.8c0.1,0.1,0.4,0.1,0.4,0.2c0,0.1-0.1,0.3-0.2,0.4c-0.1-0.1-0.4-0.1-0.4-0.2
		C127.7,553.1,127.8,553,127.9,552.8z"/>
	<path class="st7" d="M130.2,535.6c0.2,0.6,0.4,1.1,0.5,1.7C130.5,536.7,130.3,536.2,130.2,535.6z"/>
	<path class="st18" d="M156.2,530.3c0.2,0.2,0.4,0.4,0.5,0.5c1.4,1.4,2.8,2.8,4.2,4.2c0.7,0.9,1.5,1.8,2.2,2.7
		c6.8,6.3,18.3,6.3,25.2,0.1c1.4-1.3,3.1-2.4,4.1-3.9c2.8-3.9,6.4-5.8,11.2-5.8c2.5,0,5.1,0,7.4,0.7c3.3,0.9,3.7,2,3.1,5.5
		c-0.2,1.1-0.4,2.2-0.6,3.4c-7,12.3-17.4,19.6-31.4,21.9c-17.7,2.9-35.4-5.9-44-21.8c-0.2-2.3-0.4-4.5-0.5-6.8c0-0.6,0.7-1.1,1-1.7
		c0.5-0.4,1.1-0.7,1.6-1.1c0,0,0,0,0,0c3.3,0,6.6-0.3,9.8,0.1C152.2,528.5,154.1,529.6,156.2,530.3z"/>
	<path class="st7" d="M140.3,528.2c-0.5,0.4-1.1,0.7-1.6,1.1C139.2,528.9,139.7,528.6,140.3,528.2z"/>
	<path class="st13" d="M384.2,235c-0.8,2.4-1.2,4.6-2.3,6.4c-1.6,2.8-4.6,2.7-6.4,0.1c-2.4-3.4-2.4-9.6,0-13
		c1.9-2.6,4.6-2.8,6.3-0.1C383,230.4,383.4,232.7,384.2,235z"/>
	<path class="st7" d="M390.6,232.5c3.4,1.2,4.3,7,1.4,9.6c-0.9-0.6-1.8-1.2-2.8-1.8c-0.1,0.2-0.2,0.4-0.3,0.6
		c-0.2-0.7-0.4-1.3-0.6-2c-0.2-1.4-0.3-2.8-0.5-4.2c1.1,0.1,2.2,0.3,1.8-1.5C389.6,233,390.3,232.7,390.6,232.5z"/>
	<path class="st19" d="M390.6,232.5c-0.3,0.2-1,0.5-1,0.6c0.4,1.8-0.7,1.6-1.8,1.5c-0.4-1.1-0.7-2.3-1.1-3.4
		c-0.5-1.3-1.4-2.5,0.5-3.4c1.1,1.1,2.2,2.1,3.2,3.2C390.5,231.5,390.6,232,390.6,232.5z"/>
	<path class="st19" d="M388.3,238.9c0.2,0.7,0.4,1.3,0.6,2c0.1-0.2,0.2-0.4,0.3-0.6c0.9,0.6,1.8,1.2,2.8,1.8
		c-1.1,0.8-1.7,2.3-3.5,0.6C386.9,241.2,387.1,240.2,388.3,238.9z"/>
	<path class="st17" d="M419.7,301.5c-2.6-0.1-2.1-2.4-2.6-3.8c-0.4-1-0.5-2.2-0.7-3.3c0.5-4,0-5.2-3.2-6.6c0.5,2.7,0.9,5.2,1.3,7.7
		c2.5,12.2,5,24.5,7.6,36.7c0.3,1.6,0.8,3.2,1.2,4.8c1.9,9.2,4,18.4,5.6,27.6c2.6,15,5.5,30.1,7,45.3c1.8,17.8-1.1,35.2-8.8,51.6
		c-4.8,10.2-10.7,19.8-18.1,28.2c-6.6,7.5-14.3,13.7-23.2,18.2c-8.8,4.4-18,7.3-27.7,8.4c-9.4,1-18.8,2-28.3,1.9
		c-11.8-0.1-23.8-0.7-34.9-5.3c-10-4.1-16.4-11.8-19.1-22.3c-2.9-11.2-1.1-22.4,1.5-33.3c2.9-12.6,6.7-25.1,10.1-37.6
		c7.2-0.3,14.4-0.6,21.7-1c-3.2,11.4-6.7,22.7-9.5,34.1c-1.8,7.2-3.2,14.5-3.7,21.8c-0.6,8.4,2.4,14.9,12.2,18.1
		c6.9,2.3,14.3,2.8,21.5,4.1c-0.3,2-1.1,4,0.4,6c2.2,3,4.5,4,8.2,3.4c5.7-1,10.6-3.5,14.8-7.4c0.7-0.7,1-1.7,1.5-2.6
		c5.2-1,10.4-2,15.6-3.1c7.8,2.6,15.7,0,20.3-6.5c1-1.4,0.2-4,0.3-6c10.3-9.7,17.5-21.4,21.9-34.7c3.9-11.9,4.7-24.2,3.3-36.6
		c-0.7-7-1.9-14-2.9-20.9c0.3-0.4,0.9-0.9,0.8-1.3c-0.2-2.4-0.7-4.7-0.9-7c-0.1-1.5,0.6-3,0.4-4.4c-0.8-4.5-2.1-9-2.9-13.6
		c-1.1-6-2.4-12.1-2.6-18.2c-0.3-10.7-3-21-4.6-31.5c-1-6.8-1.6-13.8-2.4-20.6c0,0,0,0,0,0c0.8-0.7,2.1-1.2,2.4-2.1
		c0.6-1.5,0.5-3.2,0.7-4.8c1.1-1.1,2.1-2.1,3.2-3.2c1.2-0.4,2.5-0.7,3.7-1.1c0.4,0,0.7,0,1.1-0.1c6,0.2,9.9,3.3,11.4,9.1
		c-0.6,3.2-1.3,6.4-1.9,9.6C420.7,300.1,420.2,300.8,419.7,301.5z"/>
	<path class="st9" d="M400.6,292c0.8,6.9,1.4,13.8,2.4,20.6c1.6,10.5,4.3,20.8,4.6,31.5c0.2,6.1,1.5,12.2,2.6,18.2
		c0.8,4.6,2.1,9,2.9,13.6c0.3,1.4-0.5,2.9-0.4,4.4c0.1,2.4,0.6,4.7,0.9,7c0,0.4-0.5,0.8-0.8,1.3c-1.4-6.7-2.8-13.5-4.3-20.2
		c-0.1-0.4-0.2-0.7-0.3-1.1c-0.1-0.3-0.1-0.7-0.2-1c0.3-0.7,1-1.5,0.9-2.1c-1.9-10.4-4-20.8-5.9-31.3c-0.5-3-0.2-6.1-0.6-9.1
		c-0.6-4.3-1.6-8.6-2.1-12.9c-0.6-5-1-10.1-1.3-15.2C399,294.6,400,293.3,400.6,292z"/>
	<path class="st14" d="M408.2,367.3c0.1,0.4,0.2,0.7,0.3,1.1C408.4,368.1,408.3,367.7,408.2,367.3z"/>
	<path class="st9" d="M403.7,285.1c-0.2,1.6-0.2,3.3-0.7,4.8c-0.3,0.9-1.6,1.4-2.4,2.1c0.2-1.6,0.3-3.2,0.5-4.8
		c0.5-0.7,1.1-1.4,1.6-2.1C403.1,285.1,403.4,285.1,403.7,285.1z"/>
	<path class="st14" d="M403.7,285.1c-0.3,0-0.7,0-1,0c1.4-1.1,2.8-2.1,4.2-3.2C405.9,283,404.8,284,403.7,285.1z"/>
	<path class="st14" d="M411.7,280.8c-0.4,0-0.7,0-1.1,0.1C411,280.8,411.4,280.8,411.7,280.8z"/>
	<path class="st16" d="M414.5,295.5c-0.4-2.5-0.9-5-1.3-7.7c3.2,1.4,3.7,2.6,3.2,6.6C415.7,294.8,415.1,295.2,414.5,295.5z"/>
	<path class="st4" d="M445.7,525.6c-0.2-5.2,0.3-10.2,2.2-15.1c0.8-2.1,2-4.1,3.4-5.9c2.1-2.7,6.6-2.7,9.7,0.4
		c1.9,1.9,3.1,4.6,4.6,6.9c-0.2,1.7-0.2,3.5-0.7,5.2c-2.8,10.6,2.9,21.2,13.3,24.4c10.1,3.1,21-2.3,24.5-12.2
		c3.6-10.3-1.4-21.4-11.8-25.3c-3-1.1-6.3-1.6-9.5-2.4c-4.1-4.6-3.4-10.2-3-15.5c0.2-2.6,2.3-3.7,5.2-2.9c6.1,1.8,12,3.8,18,5.7
		c0.7,0.2,1.3,0.3,2,0.5c3.1,2.8,6.7,5.3,9.3,8.5c9.7,11.7,12.1,25.1,6.3,39.2c-5.8,14.2-16.9,22.1-32.2,23.6
		C465.8,562.8,447.2,546.5,445.7,525.6z"/>
</g>
</svg>
