<?xml version="1.0" encoding="utf-8"?>
<!-- Generator: Adobe Illustrator 26.0.1, SVG Export Plug-In . SVG Version: 6.00 Build 0)  -->
<svg version="1.1" id="Layer_1" xmlns="http://www.w3.org/2000/svg" xmlns:xlink="http://www.w3.org/1999/xlink" x="0px" y="0px"
	 viewBox="0 0 612 792" style="enable-background:new 0 0 612 792;" xml:space="preserve">
<style type="text/css">
	.st0{display:none;fill:#F1F1F1;}
	.st1{display:none;fill:#FEFEFE;}
	.st2{fill:#12151A;}
	.st3{fill:#16181E;}
	.st4{fill:#15181E;}
	.st5{fill:#020202;}
	.st6{display:none;fill:#F0F0F0;}
	.st7{fill:#12151B;}
	.st8{fill:#13161B;}
	.st9{fill:#14171C;}
	.st10{fill:#13161C;}
	.st11{display:none;fill:#EEEEEE;}
	.st12{display:none;fill:#EDEDED;}
	.st13{display:none;fill:#EBEBEB;}
	.st14{display:none;fill:#E9E9E9;}
	.st15{display:none;fill:#EAEAEA;}
	.st16{display:none;fill:#ECECEC;}
	.st17{display:none;fill:#EFEFEF;}
</style>
<g>
	<path class="st0" d="M1.4,690.8c0-196.3,0-392.6,0-588.8c203.4,0,406.8,0,610.1,0c0.2,0.2,0.3,0.3,0.5,0.5c0,196.1,0,392.3,0,588.4
		c-0.2,0.2-0.3,0.3-0.5,0.5c-203.2,0-406.5,0-609.7,0C1.7,691.2,1.5,691,1.4,690.8z M174.9,491.5c4.6,2.1,9.1,4.5,13.8,6.2
		c10.3,3.9,20.9,4.7,31.7,2.7c10.4-2,19.8-6.4,28.6-12.3c4-2.6,7.8-4.5,12.8-4.1c3.9,0.3,7.8-0.1,11.7-0.1
		c27.4,0.1,54.8,0.1,82.2,0.3c1.5,0,3.1,0.7,4.5,1.4c3,1.7,5.8,3.8,8.8,5.5c8,4.6,16.5,8.2,25.7,9.6c15.7,2.4,29.9-1.7,43.5-9.3
		c0.2,0,0.3,0,0.5,0c0.3,0.6,0.6,1.2,0.9,1.9c3.7,10.9,7.3,21.8,11.2,32.7c5.7,15.9,11.6,31.7,19.9,46.5
		c5.1,9.1,11.3,17.5,19.7,23.8c14.5,10.8,30.8,15.3,48.8,12.8c16.9-2.3,30.8-10.1,41.7-23.1c11.6-13.9,17-30.3,19.7-47.9
		c2.3-15.3,3-30.8,3-46.3c0-13.5,0-27.1-0.7-40.6c-0.7-14.6-1.4-29.3-3.4-43.7c-2.4-17.3-5.6-34.6-9.5-51.6
		c-4.4-19.1-9.5-38.1-15.2-56.9c-3.5-11.6-8.1-23.1-13.3-34c-6.1-12.9-13.7-25.1-20.3-37.7c-3.1-5.8-7.8-8.4-14.1-8.7
		c-10.1-0.3-20.2-0.9-30.2-0.9c-15.5-0.1-31,0.2-46.4,0.4c-5,0.1-8.7,2.4-10,7.6c-0.2,0.7-0.5,1.3-0.7,1.9c-2.2,5.6-3.7,6.6-9.7,6.6
		c-20.2,0-40.4,0-60.6,0c-36.2,0-72.4,0-108.7,0c-26,0-51.9,0-77.9,0c-5.5,0-7.6-1.2-9-6.1c-1.9-7.1-6.3-10.4-13.5-10.2
		c-0.7,0-1.4-0.2-2.1-0.2c-24.1,0.3-48.2,0.6-72.3,1c-6.1,0.1-10.9,2.6-13.7,8.4c-1.8,3.5-3.9,6.8-5.9,10.2
		c-12.2,20.7-22.3,42.3-29.2,65.4c-6.2,20.6-11.5,41.4-16,62.4c-5.2,24.2-9.1,48.7-10.2,73.4c-0.8,19.4-1,38.8-1.1,58.2
		c-0.1,16.5,0.9,32.9,4.2,49.1c2.7,13.3,7.5,25.8,15.6,36.9c15.9,21.9,43.9,32.2,70.2,25.1c15.5-4.2,27.8-12.9,37.1-26
		c5.3-7.4,9.6-15.4,13-23.8c5.8-14.5,11.3-29.1,16.8-43.7c2.8-7.5,5.2-15,7.8-22.6l0.2,0C174.6,491.5,174.9,491.5,174.9,491.5z
		 M163.9,212.7c-0.5-0.9-0.8-1.5-1.1-2c-2.8-3.9-6.9-6-11.3-7.5c-6.7-2.2-13.7-3.4-20.8-3.9c-11.9-0.8-23.5,0.5-34.7,4.4
		c-5.2,1.8-9.2,5.2-10.6,9C111.5,212.7,137.4,212.7,163.9,212.7z M527.9,212.7c-2.7-4.8-6.7-7.3-11.2-9c-7.1-2.6-14.5-3.8-22.1-4.3
		c-12-0.8-23.8,0.4-35.1,4.6c-4.3,1.6-8,4.1-10.4,8.7C475.3,212.7,501.4,212.7,527.9,212.7z"/>
	<path class="st1" d="M612,102.5c-0.2-0.2-0.3-0.3-0.5-0.5C611.7,102.2,611.8,102.3,612,102.5z"/>
	<path class="st1" d="M1.4,690.8c0.2,0.2,0.3,0.3,0.5,0.5C1.7,691.2,1.5,691,1.4,690.8z"/>
	<path class="st1" d="M611.5,691.3c0.2-0.2,0.3-0.3,0.5-0.5C611.8,691,611.7,691.2,611.5,691.3z"/>
	<path class="st2" d="M174.4,491.5c-2.6,7.5-5.1,15.1-7.8,22.6c-5.5,14.6-11,29.2-16.8,43.7c-3.4,8.4-7.7,16.4-13,23.8
		c-9.3,13.1-21.6,21.8-37.1,26c-26.3,7.1-54.3-3.2-70.2-25.1c-8.1-11.1-12.8-23.6-15.6-36.9c-3.3-16.2-4.3-32.6-4.2-49.1
		c0.1-19.4,0.3-38.8,1.1-58.2c1.1-24.8,4.9-49.2,10.2-73.4c4.5-21,9.8-41.8,16-62.4c7-23,17-44.7,29.2-65.4c2-3.4,4.1-6.7,5.9-10.2
		c2.9-5.7,7.6-8.3,13.7-8.4c24.1-0.4,48.2-0.7,72.3-1c0.7,0,1.4,0.2,2.1,0.2c7.2-0.2,11.6,3.1,13.5,10.2c1.3,5,3.5,6.1,9,6.1
		c26,0,51.9,0,77.9,0c36.2,0,72.4,0,108.7,0c20.2,0,40.4,0,60.6,0c6,0,7.4-1,9.7-6.6c0.3-0.6,0.5-1.3,0.7-1.9c1.4-5.1,5-7.5,10-7.6
		c15.5-0.2,31-0.5,46.4-0.4c10.1,0,20.2,0.5,30.2,0.9c6.3,0.2,11,2.8,14.1,8.7c6.7,12.6,14.2,24.8,20.3,37.7
		c5.2,11,9.8,22.4,13.3,34c5.7,18.8,10.8,37.8,15.2,56.9c3.9,17,7.1,34.3,9.5,51.6c2,14.5,2.7,29.1,3.4,43.7
		c0.6,13.5,0.7,27.1,0.7,40.6c0,15.5-0.7,31-3,46.3c-2.7,17.5-8.1,34-19.7,47.9c-10.9,13-24.8,20.8-41.7,23.1
		c-18,2.5-34.3-2-48.8-12.8c-8.5-6.3-14.6-14.6-19.7-23.8c-8.3-14.8-14.2-30.6-19.9-46.5c-3.9-10.8-7.4-21.8-11.2-32.7
		c-0.2-0.6-0.6-1.2-0.9-1.9c2-0.5,2.3-2,2.3-3.7c0-4.8,0-9.6,0-14.5c0.6-0.3,1.2-0.6,1.9-0.8c7.6-2.1,7.6-2.6,10.3,5
		c8.2,23.1,16.2,46.3,24.5,69.3c3.3,9.1,7.5,17.8,13.1,25.8c16,22.9,49.6,27.5,71.8,8.1c8.4-7.3,13.6-16.7,17.2-27.1
		c4.9-14.4,5.9-29.3,6.4-44.3c0.4-11.9,0.4-23.9,0.1-35.8c-0.4-14.6-0.8-29.3-2.1-43.8c-1.5-15.8-3.7-31.6-6.3-47.3
		c-3.9-23.7-9.9-47-16.4-70.1c-7.1-25.2-17.8-48.8-31.4-71.1c-1.2-1.9-3.4-3.8-5.5-4.5c-3.5-1.1-7.3-1.4-10.9-1.5
		c-16.6-0.3-33.1-0.2-49.7-0.6c-7.2-0.2-12.2,1.8-14.3,9.2c-0.9,3.1-3.5,5.2-6.7,5.6c-5.7,0.8-11.4,1.5-17.2,1.7
		c-6.3,0.3-12.6,0.1-19,0.1c-0.1,0.9-0.1,1.5-0.1,2.1c0,18,0,36,0,54c0,8.9,0,17.9-0.2,26.8c-0.1,6.8-3.2,11.6-9.9,14
		c-4.4,1.6-8.9,2.2-13.5,2.2c-49,0-98,0-147,0c-6.4,0-12.8,0.4-19.1-2.2c-5.8-2.4-9.2-6.2-9.8-12.4c-0.1-1-0.2-2-0.2-3
		c0-23.7-0.1-47.4-0.1-71.1c0-3.4,0-6.9,0-10.4c-1.7,0-3,0-4.3,0c-8.3-0.2-16.6-0.3-24.9-0.6c-7.3-0.2-13.2-2.4-15.5-10.4
		c-1.2-4.2-4.6-5.4-8.6-5.6c-0.9,0-1.8-0.1-2.8-0.1c-8.9,0-17.9-0.1-26.8,0c-9.9,0.2-19.9,0.5-29.8,0.8c-5.2,0.2-9.2,2.2-11.7,7.1
		C78.9,249,75.4,255,72,261.1c-10.1,18.3-17,37.8-22.2,57.9c-4.9,19-9.5,38.1-13.4,57.3c-2.9,14.6-4.9,29.4-6.6,44.2
		c-1.4,12.4-2,24.9-2.5,37.3c-1,24.9-1.5,49.9,1.4,74.7c1.5,12.6,4.7,24.6,11.3,35.5c8.6,14.1,20.9,22.8,37.3,24.5
		c17.6,1.9,32.6-4.1,43.7-18.2c7-8.8,11.4-19.1,15.3-29.6c6.6-17.9,12.8-35.9,19.2-53.9c2-5.7,4-11.4,6-17.2
		c0.5-1.5,1.5-2.9,3.4-2.5c2.6,0.6,5.1,1.5,7.7,2.3c-0.1,5.2-0.4,10.3-0.3,15.5C172.2,489.8,173.6,490.6,174.4,491.5z M389,251.6
		c-55.1,0-110,0-164.9,0c0,27.3,0,54.3,0,81.5c55,0,109.9,0,164.9,0C389,305.9,389,278.9,389,251.6z"/>
	<path class="st2" d="M438.1,491.5c-13.5,7.6-27.8,11.7-43.5,9.3c-9.2-1.4-17.7-5-25.7-9.6c-3-1.7-5.8-3.8-8.8-5.5
		c-1.3-0.8-3-1.4-4.5-1.4c-27.4-0.2-54.8-0.2-82.2-0.3c-3.9,0-7.9,0.4-11.7,0.1c-4.9-0.4-8.8,1.4-12.8,4.1
		c-8.7,5.8-18.2,10.3-28.6,12.3c-10.8,2-21.4,1.2-31.7-2.7c-4.7-1.8-9.2-4.1-13.8-6.2c0.2-1.1,0.4-2.2,0.7-3.3c1-3.9,2-7.7,3-11.6
		c0.8,0.3,1.6,0.6,2.3,1c6.9,3.2,14.1,5.7,21.7,6.4c18.1,1.9,33.9-4,48.1-14.8c3.2-2.4,6.1-3.4,10-3.4c17.6,0.1,35.1,0,52.7,0
		c14.2,0,28.5,0,42.7,0.2c1.1,0,2.4,0.5,3.3,1.2c4.7,3,9.1,6.6,14,9.2c15.2,8.2,31.2,10.4,47.9,5.2c4.4-1.4,8.7-3.3,13-5
		c0.3,1.6,0.5,3.3,1,4.9C436.2,484.9,437.1,488.2,438.1,491.5z"/>
	<path class="st3" d="M163.9,212.7c-26.5,0-52.5,0-78.5,0c1.4-3.7,5.4-7.2,10.6-9c11.3-3.9,22.8-5.2,34.7-4.4
		c7.1,0.5,14,1.6,20.8,3.9c4.4,1.5,8.5,3.5,11.3,7.5C163.1,211.2,163.4,211.8,163.9,212.7z"/>
	<path class="st4" d="M527.9,212.7c-26.5,0-52.5,0-78.8,0c2.4-4.6,6.1-7.1,10.4-8.7c11.3-4.2,23.1-5.4,35.1-4.6
		c7.5,0.5,15,1.7,22.1,4.3C521.2,205.4,525.2,207.9,527.9,212.7z"/>
	<path class="st5" d="M438.1,491.5c-0.9-3.3-1.9-6.6-2.7-9.9c-0.4-1.6-0.6-3.3-1-4.9c2.2-1.1,4.3-2.2,6.5-3.3c0,4.8,0,9.6,0,14.5
		c0,1.7-0.3,3.2-2.3,3.7C438.4,491.5,438.2,491.5,438.1,491.5z"/>
	<path class="st5" d="M178.6,476.6c-1,3.9-2,7.7-3,11.6c-0.3,1.1-0.5,2.2-0.7,3.3l-0.2,0l-0.2,0c-0.8-0.8-2.2-1.7-2.2-2.5
		c-0.1-5.2,0.2-10.3,0.3-15.5C174.6,474.5,176.6,475.5,178.6,476.6z"/>
	<path class="st6" d="M178.6,476.6c-2-1-4-2.1-6.1-3.1c-2.6-0.8-5.1-1.7-7.7-2.3c-1.8-0.4-2.8,1-3.4,2.5c-2,5.7-4,11.4-6,17.2
		c-6.4,18-12.6,36-19.2,53.9c-3.9,10.4-8.3,20.7-15.3,29.6c-11.1,14.1-26.1,20.1-43.7,18.2c-16.4-1.7-28.8-10.4-37.3-24.5
		c-6.6-10.9-9.8-22.9-11.3-35.5c-2.9-24.9-2.4-49.8-1.4-74.7c0.5-12.5,1.1-24.9,2.5-37.3c1.7-14.8,3.7-29.6,6.6-44.2
		c3.9-19.2,8.5-38.3,13.4-57.3c5.2-20.1,12.1-39.6,22.2-57.9c3.4-6.1,6.9-12.2,10.1-18.4c2.5-4.9,6.5-6.9,11.7-7.1
		c9.9-0.3,19.9-0.7,29.8-0.8c8.9-0.1,17.9,0,26.8,0c0.9,0,1.8,0,2.8,0.1c4,0.2,7.4,1.4,8.6,5.6c2.3,7.9,8.2,10.1,15.5,10.4
		c8.3,0.3,16.6,0.4,24.9,0.6c1.3,0,2.6,0,4.3,0c0,3.5,0,7,0,10.4c0,23.7,0.1,47.4,0.1,71.1c0,1,0.1,2,0.2,3c0.6,6.2,4,10,9.8,12.4
		c6.2,2.6,12.7,2.2,19.1,2.2c49,0,98,0,147,0c4.7,0,9.1-0.7,13.5-2.2c6.7-2.4,9.8-7.2,9.9-14c0.2-8.9,0.2-17.9,0.2-26.8
		c0-18,0-36,0-54c0-0.6,0.1-1.2,0.1-2.1c6.4,0,12.7,0.2,19-0.1c5.7-0.3,11.5-1,17.2-1.7c3.3-0.4,5.9-2.5,6.7-5.6
		c2.1-7.4,7.1-9.4,14.3-9.2c16.6,0.4,33.1,0.3,49.7,0.6c3.7,0.1,7.4,0.4,10.9,1.5c2.1,0.6,4.3,2.5,5.5,4.5
		c13.6,22.3,24.4,45.9,31.4,71.1c6.5,23.1,12.5,46.4,16.4,70.1c2.6,15.7,4.8,31.5,6.3,47.3c1.4,14.5,1.7,29.2,2.1,43.8
		c0.3,11.9,0.3,23.9-0.1,35.8c-0.5,15-1.5,30-6.4,44.3c-3.6,10.4-8.8,19.8-17.2,27.1c-22.2,19.3-55.8,14.8-71.8-8.1
		c-5.6-8-9.8-16.7-13.1-25.8c-8.3-23.1-16.3-46.2-24.5-69.3c-2.7-7.6-2.7-7.1-10.3-5c-0.6,0.2-1.3,0.5-1.9,0.8
		c-2.2,1.1-4.3,2.2-6.5,3.3c-4.3,1.7-8.6,3.6-13,5c-16.7,5.2-32.7,3-47.9-5.2c-4.9-2.6-9.3-6.2-14-9.2c-1-0.6-2.2-1.2-3.3-1.2
		c-14.2-0.1-28.5-0.2-42.7-0.2c-17.6,0-35.1,0.1-52.7,0c-3.9,0-6.9,1-10,3.4c-14.2,10.8-30,16.6-48.1,14.8
		c-7.6-0.8-14.8-3.3-21.7-6.4C180.2,477.2,179.4,476.9,178.6,476.6z M487.4,259c-36.8,0.5-64.7,29.3-65.4,64.1
		c-0.8,37.5,29.1,66.9,65,67.2c36.6,0.3,66.8-29.3,66.2-66.8C552.6,288.3,524.4,259.3,487.4,259z M190.3,324.7
		c0.3-35.2-28.4-65.7-65.8-65.7c-36.2,0-65.5,29.7-65.4,66c0.1,35.3,28.8,65.6,66.4,65.2C161.6,389.9,190.5,360.2,190.3,324.7z
		 M259.7,425.4c0.4-27.2-22.2-51.1-51.4-50.5c-27.1,0.6-49.6,22.7-49.3,50.8c0.2,27.5,22.1,49.7,49.6,50
		C237.1,476.1,259.7,453.6,259.7,425.4z M454.1,425.4c-0.1-27.3-21.4-49.2-48-50.5c-29.6-1.4-52.3,22.3-52.9,49.3
		c-0.5,26.8,20.1,50.4,48.5,51.5C430.1,476.8,453.8,454.6,454.1,425.4z M306.5,445.3c11.1,0,20-9.1,20-20.3
		c-0.1-10.4-9.2-19.5-19.7-19.5c-11.1-0.1-20.2,8.8-20.3,19.8C286.4,436.2,295.4,445.3,306.5,445.3z M200.2,272.1
		c-0.1-1.3-0.1-3.1-0.4-5c-0.8-6.5-3.2-9.1-9-9.5c-0.8-0.1-1.7,0-2.5,0.1c-3.3,0.1-5.6,1.6-6.7,4.9c-2.4,7.3-2.5,14.5,0.4,21.8
		c0.9,2.2,2.4,3.6,4.7,3.9c2.3,0.2,4.6,0.2,6.9,0c2.2-0.2,3.6-1.7,4.6-3.7C200,280.7,200.2,276.7,200.2,272.1z M432.5,273.2
		c-0.3-2.6-0.2-5.3-0.9-7.8c-0.8-3-1.4-6.6-5.1-7.3c-2.8-0.5-5.8-0.3-8.6,0.1c-1.2,0.2-2.7,1.6-3.3,2.8c-3.3,6.4-3,13.2-1.6,20
		c0.7,3.4,2,6.9,6.3,7.3c2.2,0.2,4.4-0.1,6.7-0.2c1.9-0.1,3.1-1.4,4-3C431.9,281.3,432.4,277.3,432.5,273.2z"/>
	<path class="st0" d="M389,251.6c0,27.2,0,54.3,0,81.5c-55,0-109.9,0-164.9,0c0-27.2,0-54.3,0-81.5
		C278.9,251.6,333.8,251.6,389,251.6z"/>
	<path class="st7" d="M487.4,259c37,0.3,65.2,29.3,65.8,64.4c0.6,37.6-29.6,67.1-66.2,66.8c-35.9-0.3-65.8-29.6-65-67.2
		C422.8,288.3,450.6,259.5,487.4,259z M438,324.4c-0.4,26.3,20.5,49.3,48.5,50c27.8,0.6,50.6-21.5,50.9-49.1
		c0.3-27.6-21.6-49.9-49.4-50.3C460.1,274.6,437.8,297.6,438,324.4z"/>
	<path class="st2" d="M190.3,324.7c0.2,35.5-28.6,65.1-64.8,65.5c-37.6,0.4-66.3-29.9-66.4-65.2c-0.1-36.3,29.2-66.1,65.4-66
		C161.9,259,190.6,289.5,190.3,324.7z M124.9,275C97.6,274.9,75.1,297,75,324.1c-0.1,27.8,22,50.2,49.6,50.4
		c27.1,0.1,49.7-22.2,49.7-49.2C174.4,297.2,152.5,275,124.9,275z"/>
	<path class="st7" d="M259.7,425.4c0,28.1-22.6,50.7-51.2,50.3c-27.6-0.3-49.4-22.5-49.6-50c-0.2-28.1,22.2-50.2,49.3-50.8
		C237.4,374.3,260,398.2,259.7,425.4z M209.4,390.1c-18.2-0.1-34.4,13.9-35.3,33.6c-0.9,19.3,13.6,35.3,32.3,36.7
		c20.6,1.6,37.5-14,38.1-34.2C245.1,407.5,230.4,390.3,209.4,390.1z"/>
	<path class="st7" d="M454.1,425.4c-0.3,29.2-24,51.4-52.3,50.3c-28.5-1.1-49.1-24.8-48.5-51.5c0.5-27,23.3-50.7,52.9-49.3
		C432.7,376.2,454,398.1,454.1,425.4z M403.8,390.1c-20,0-35.5,16-35.4,35.4c0.1,19.4,16.1,35.1,35.1,35c18.9,0,35.8-15.1,35.4-36
		C438.5,404.8,422.5,390.1,403.8,390.1z"/>
	<path class="st8" d="M306.5,445.3c-11.1,0-20.1-9.1-20-20c0.1-11.1,9.2-19.9,20.3-19.8c10.5,0.1,19.6,9.1,19.7,19.5
		C326.5,436.2,317.6,445.3,306.5,445.3z M315.5,425.4c0-5.1-4-8.9-9.1-8.9c-4.9,0-8.9,4-8.9,9c0,4.8,4.1,9,8.9,9
		C311.3,434.5,315.5,430.3,315.5,425.4z"/>
	<path class="st9" d="M200.2,272.1c0,4.6-0.2,8.6-2.1,12.4c-1,2-2.3,3.5-4.6,3.7c-2.3,0.2-4.6,0.2-6.9,0c-2.3-0.2-3.8-1.6-4.7-3.9
		c-2.9-7.2-2.8-14.5-0.4-21.8c1.1-3.3,3.4-4.8,6.7-4.9c0.8,0,1.7-0.1,2.5-0.1c5.8,0.5,8.2,3,9,9.5
		C200.1,268.9,200.1,270.8,200.2,272.1z M186.5,273.6c0.2,1.7,0.3,2.8,0.5,3.9c0.3,1.7,1.1,3,3.1,3c2,0,3.1-1.3,3.1-3
		c0.1-3.3-0.1-6.5-0.5-9.8c-0.1-0.8-1.7-1.9-2.6-1.9c-0.9,0-2.3,1-2.6,1.9C186.9,269.8,186.7,272,186.5,273.6z"/>
	<path class="st10" d="M432.5,273.2c0,4.2-0.5,8.1-2.5,11.9c-0.9,1.7-2.1,2.9-4,3c-2.2,0.2-4.5,0.4-6.7,0.2
		c-4.3-0.4-5.6-3.9-6.3-7.3c-1.4-6.8-1.8-13.6,1.6-20c0.6-1.2,2.1-2.6,3.3-2.8c2.8-0.5,5.8-0.7,8.6-0.1c3.7,0.7,4.4,4.3,5.1,7.3
		C432.2,267.9,432.2,270.6,432.5,273.2z M425.9,273.4c-0.4-2-0.6-4.1-1.3-6.1c-0.2-0.7-1.5-1.4-2.2-1.4c-0.9,0-2.3,0.7-2.5,1.4
		c-1.2,3.7-1.7,7.4-0.4,11.3c0.5,1.5,1.4,2,2.9,2c1.5,0,2.5-0.7,2.8-2.2C425.4,276.7,425.6,275.2,425.9,273.4z"/>
	<path class="st11" d="M438,324.4c-0.2-26.7,22.1-49.8,50-49.4c27.8,0.4,49.7,22.7,49.4,50.3c-0.3,27.5-23.1,49.7-50.9,49.1
		C458.4,373.7,437.6,350.6,438,324.4z M534.4,324.8c-0.2-9.5-7.9-17.1-17.2-16.8c-9.4,0.3-16.6,7.4-16.7,16.9
		c-0.1,9.6,7.8,17.2,17.2,17C527.2,341.7,534.6,334,534.4,324.8z M487.8,312.1c9.4-0.1,16.9-7.7,16.8-17.1
		c-0.2-9.3-7.9-16.8-17.1-16.7c-9.4,0.1-17,7.9-16.8,17.2C470.8,304.9,478.5,312.2,487.8,312.1z M487.7,337.2
		c-9.3-0.1-16.9,7.4-17,16.8c-0.1,9.4,7.4,16.9,16.9,17.1c9,0.2,16.9-7.6,17.1-16.8C504.8,345,497.1,337.3,487.7,337.2z M474.7,325
		c0-9.3-7.5-16.9-16.7-16.9c-9.6,0-17.3,7.5-17.1,17.3c0.2,8.8,6.9,16.3,16.9,16.6C467,342.2,474.7,334.4,474.7,325z"/>
	<path class="st12" d="M124.9,275c27.7,0.1,49.6,22.3,49.5,50.3c-0.1,26.9-22.7,49.3-49.7,49.2C97,374.3,74.9,351.9,75,324.1
		C75.1,297,97.6,274.9,124.9,275z M126,278.7C126,278.7,126,278.7,126,278.7c-3.9,0-7.9,0-11.8,0c-1.8,0-2.9,0.5-2.9,2.6
		c0.1,7.5,0,15.1,0.1,22.6c0,1.2,0.8,2.7,1.6,3.6c3.7,3.9,7.5,7.7,11.2,11.6c1.1,1.1,1.9,1.3,3,0.1c3.8-3.9,7.7-7.7,11.4-11.7
		c0.9-1,1.7-2.5,1.7-3.8c0.2-7.3,0.1-14.6,0.2-21.9c0-2.1-1-3-3.1-3C133.7,278.7,129.8,278.7,126,278.7z M125.8,370.3
		C125.8,370.3,125.8,370.3,125.8,370.3c3.9,0,7.8,0,11.8,0c1.9,0,2.9-0.6,2.9-2.6c-0.1-7.4,0-14.9-0.1-22.3c0-1.1-0.6-2.5-1.4-3.2
		c-3.7-3.5-7.7-6.9-11.5-10.4c-1-0.9-1.9-1-3-0.1c-3.8,3.4-7.6,6.7-11.3,10.2c-0.9,0.9-1.6,2.5-1.7,3.8c-0.2,7.2-0.1,14.3-0.1,21.5
		c0,2.8,0.4,3.1,3.3,3.1C118.4,370.3,122.1,370.3,125.8,370.3z M170.1,325.6C170.1,325.6,170.1,325.6,170.1,325.6
		c0-3.9,0-7.8,0-11.8c0-1.9-0.6-2.9-2.8-2.9c-7.2,0.1-14.5,0-21.7,0.1c-1.2,0-2.7,0.7-3.6,1.6c-3.5,3.6-6.9,7.5-10.3,11.2
		c-1.1,1.1-1.1,2,0,3.1c3.3,3.5,6.6,7.1,9.8,10.7c1.4,1.6,3,2.2,5.1,2.2c6.9-0.1,13.8-0.1,20.8,0c2.1,0,2.8-0.9,2.8-2.9
		C170.1,333.1,170.1,329.3,170.1,325.6z M79.1,325.5C79.1,325.5,79.1,325.5,79.1,325.5c0,3.8,0.1,7.5,0,11.3c0,2,0.7,3,2.8,3
		c7.3-0.1,14.6,0,22-0.1c1,0,2.3-0.3,2.9-1c3.9-3.9,7.6-7.9,11.3-11.8c1-1,1.1-2-0.1-3.1c-3.6-3.7-7.1-7.7-10.8-11.4
		c-0.8-0.8-2.3-1.4-3.4-1.4c-7.1-0.1-14.3-0.1-21.4-0.1c-2.9,0-3.3,0.3-3.3,3.4C79.1,318,79.1,321.8,79.1,325.5z"/>
	<path class="st13" d="M209.4,390.1c21,0.2,35.7,17.5,35.1,36.2c-0.6,20.2-17.5,35.8-38.1,34.2c-18.8-1.5-33.2-17.4-32.3-36.7
		C175,403.9,191.2,390,209.4,390.1z M238.4,425.5c0.2-16.4-13.5-29.6-29.6-29.4c-15.1,0.3-29,12.2-28.8,29.6
		c0.3,17.2,13.9,28.9,29.7,28.8C225.4,454.4,238.5,441.1,238.4,425.5z"/>
	<path class="st13" d="M403.8,390.1c18.7,0,34.7,14.7,35.1,34.5c0.4,20.8-16.5,36-35.4,36c-19,0-35.1-15.6-35.1-35
		C368.3,406,383.8,390.1,403.8,390.1z M374.5,425.2c0,16.7,12.9,29.5,29.9,29.2c15.4-0.2,28.4-12.5,28.4-29.5
		c0-15.9-13.2-28.8-29.3-28.8C387.6,396.1,374.5,409.1,374.5,425.2z"/>
	<path class="st12" d="M315.5,425.4c0,4.9-4.1,9.1-9.1,9.1c-4.8,0-8.9-4.2-8.9-9c0-4.9,4-9,8.9-9
		C311.5,416.4,315.4,420.3,315.5,425.4z"/>
	<path class="st14" d="M186.5,273.6c0.3-1.6,0.4-3.8,1.1-5.8c0.3-0.9,1.7-1.9,2.6-1.9c0.9,0,2.5,1.1,2.6,1.9
		c0.4,3.2,0.6,6.5,0.5,9.8c0,1.7-1.1,3-3.1,3c-2.1,0-2.8-1.3-3.1-3C186.8,276.4,186.7,275.2,186.5,273.6z"/>
	<path class="st15" d="M425.9,273.4c-0.3,1.8-0.5,3.4-0.8,4.9c-0.3,1.5-1.2,2.2-2.8,2.2c-1.5,0-2.4-0.5-2.9-2
		c-1.3-3.8-0.8-7.6,0.4-11.3c0.2-0.7,1.6-1.4,2.5-1.4c0.8,0,2,0.7,2.2,1.4C425.2,269.3,425.5,271.4,425.9,273.4z"/>
	<path class="st10" d="M534.4,324.8c0.2,9.2-7.3,16.9-16.6,17.1c-9.4,0.2-17.3-7.4-17.2-17c0.1-9.5,7.3-16.5,16.7-16.9
		C526.6,307.7,534.2,315.3,534.4,324.8z M524.7,325.1c0-4-3.1-7.3-7-7.3c-3.9,0-7.3,3.2-7.4,7c-0.1,3.9,3.4,7.5,7.2,7.5
		C521.5,332.2,524.7,329,524.7,325.1z"/>
	<path class="st8" d="M487.8,312.1c-9.3,0.1-16.9-7.3-17.1-16.6c-0.2-9.3,7.4-17.1,16.8-17.2c9.2-0.1,16.9,7.5,17.1,16.7
		C504.7,304.4,497.2,312,487.8,312.1z M487.8,288c-4.1-0.1-7.4,3.1-7.6,7.1c-0.1,4.1,3.2,7.5,7.3,7.6c3.9,0.1,7.3-3.2,7.4-7.3
		C495.1,291.3,491.9,288.1,487.8,288z"/>
	<path class="st10" d="M487.7,337.2c9.4,0.1,17.1,7.8,16.9,17.1c-0.2,9.2-8.1,17-17.1,16.8c-9.5-0.2-16.9-7.8-16.9-17.1
		C470.8,344.7,478.4,337.1,487.7,337.2z M487.5,361.9c4.1,0.1,7.7-3.4,7.9-7.5c0.1-4.3-3.5-8-7.8-8c-4,0-7.6,3.5-7.8,7.6
		C479.7,358.1,483.4,361.8,487.5,361.9z"/>
	<path class="st10" d="M474.7,325c0,9.4-7.7,17.2-16.9,17c-10-0.3-16.7-7.7-16.9-16.6c-0.2-9.8,7.5-17.3,17.1-17.3
		C467.2,308.1,474.7,315.6,474.7,325z M450.1,324.9c0,4.4,3.5,7.9,7.9,7.9c4.2,0,7.7-3.6,7.8-7.8c0.1-4.1-3.6-7.8-7.7-7.9
		C453.6,317.1,450.1,320.5,450.1,324.9z"/>
	<path class="st10" d="M126,278.7c3.8,0,7.7,0.1,11.5,0c2.1,0,3.1,0.9,3.1,3c0,7.3,0,14.6-0.2,21.9c0,1.3-0.8,2.9-1.7,3.8
		c-3.7,4-7.6,7.8-11.4,11.7c-1.2,1.2-2,1-3-0.1c-3.7-3.9-7.6-7.6-11.2-11.6c-0.9-0.9-1.6-2.4-1.6-3.6c-0.2-7.5-0.1-15.1-0.1-22.6
		c0-2.1,1.1-2.6,2.9-2.6C118.1,278.7,122,278.7,126,278.7C126,278.7,126,278.7,126,278.7z M125.9,307.7c1.9-2.2,3.6-4.1,5.2-6.1
		c0.6-0.8,1-1.9,1.1-2.9c0.1-2.9,0-5.8,0.1-8.8c0-1.3-0.5-2-1.9-1.9c-2.8,0.1-5.7,0.1-8.5,0c-1.5,0-2.1,0.6-2,2
		c0.1,3.1,0,6.3,0.1,9.4c0,0.5,0.1,1.1,0.4,1.5C122,303.1,123.8,305.2,125.9,307.7z"/>
	<path class="st9" d="M125.8,370.3c-3.7,0-7.4,0-11.1,0c-2.9,0-3.3-0.3-3.3-3.1c0-7.2-0.1-14.3,0.1-21.5c0-1.3,0.7-2.9,1.7-3.8
		c3.7-3.5,7.5-6.8,11.3-10.2c1.1-1,1.9-0.9,3,0.1c3.8,3.5,7.7,6.8,11.5,10.4c0.8,0.8,1.4,2.1,1.4,3.2c0.1,7.4,0.1,14.9,0.1,22.3
		c0,2-1,2.7-2.9,2.6C133.6,370.3,129.7,370.3,125.8,370.3C125.8,370.3,125.8,370.3,125.8,370.3z M125.5,342.8
		c-1.8,1.9-3.4,3.6-4.9,5.5c-0.4,0.5-0.7,1.4-0.7,2.1c-0.1,3,0,6,0,9c0,1.3,0.5,1.8,1.7,1.8c2.3,0,4.6,0,6.9,0c3.5,0,3.5,0,3.6-3.4
		c0-1.1-0.1-2.3,0.1-3.4C133.1,348.8,129.4,346.1,125.5,342.8z"/>
	<path class="st8" d="M170.1,325.6c0,3.8,0,7.5,0,11.3c0,2-0.7,2.9-2.8,2.9c-6.9,0-13.8,0-20.8,0c-2.1,0-3.7-0.6-5.1-2.2
		c-3.2-3.6-6.5-7.2-9.8-10.7c-1.1-1.1-1-2,0-3.1c3.5-3.7,6.8-7.5,10.3-11.2c0.9-0.9,2.4-1.6,3.6-1.6c7.2-0.1,14.5,0,21.7-0.1
		c2.3,0,2.8,1,2.8,2.9C170.2,317.7,170.2,321.7,170.1,325.6C170.1,325.6,170.1,325.6,170.1,325.6z M142.6,325.2
		c2.5,2.3,4.5,4.1,6.4,5.8c0.3,0.2,0.7,0.3,1.1,0.3c3,0,6,0.1,9,0c0.6,0,1.7-1,1.7-1.6c0.2-2.8,0.1-5.7,0-8.5c0-0.6-0.6-1.6-0.9-1.6
		c-3.5-0.1-7.1,0-10.6,0c-0.3,0-0.7,0.3-1,0.6C146.6,321.6,144.9,323.2,142.6,325.2z"/>
	<path class="st8" d="M79.1,325.5c0-3.8,0-7.5,0-11.3c0-3,0.4-3.4,3.3-3.4c7.1,0,14.3,0,21.4,0.1c1.2,0,2.6,0.6,3.4,1.4
		c3.7,3.7,7.2,7.6,10.8,11.4c1.1,1.2,1,2.1,0.1,3.1c-3.8,4-7.5,8-11.3,11.8c-0.7,0.7-1.9,1-2.9,1c-7.3,0.1-14.6,0-22,0.1
		c-2.1,0-2.8-0.9-2.8-3C79.2,333.1,79.1,329.3,79.1,325.5C79.1,325.5,79.1,325.5,79.1,325.5z M94.4,319c-1.5,0-3.1,0-4.6,0
		c-1.2,0-1.9,0.4-1.9,1.7c0,3.1-0.1,6.2,0,9.2c0,0.6,0.7,1.6,1.1,1.7c3.7,0.1,7.4,0,11.1-0.1c0.4,0,0.9-0.3,1.2-0.6
		c1.5-1.5,3.1-3,4.5-4.6c0.3-0.4,0.4-1.5,0.1-1.9c-2.8-3.3-5.7-6.6-10.8-5.4C94.9,319,94.6,319,94.4,319z"/>
	<path class="st8" d="M238.4,425.5c0.1,15.6-13,28.9-28.6,29c-15.9,0.1-29.5-11.6-29.7-28.8c-0.3-17.4,13.6-29.3,28.8-29.6
		C224.9,395.8,238.7,409,238.4,425.5z M192.9,425.2c0,9.3,7.3,16.6,16.5,16.5c9.2-0.1,16.4-7.4,16.3-16.5c0-9-7.6-16.4-16.5-16.3
		C200.2,408.9,192.9,416.3,192.9,425.2z"/>
	<path class="st8" d="M374.5,425.2c0-16,13-29.1,29-29c16.1,0,29.3,13,29.3,28.8c0,16.9-13,29.2-28.4,29.5
		C387.4,454.7,374.5,441.8,374.5,425.2z M420,425.3c0.1-9-7.2-16.4-16.3-16.5c-8.9-0.1-16.4,7.3-16.4,16.2
		c-0.1,9.1,7,16.5,16.1,16.7C412.4,442,419.9,434.6,420,425.3z"/>
	<path class="st16" d="M524.7,325.1c0,3.9-3.2,7.2-7.1,7.2c-3.8,0-7.3-3.5-7.2-7.5c0.1-3.8,3.5-7.1,7.4-7
		C521.6,317.8,524.7,321,524.7,325.1z"/>
	<path class="st16" d="M487.8,288c4.1,0.1,7.3,3.4,7.2,7.4c-0.1,4-3.5,7.4-7.4,7.3c-4.1-0.1-7.4-3.5-7.3-7.6
		C480.3,291,483.7,287.8,487.8,288z"/>
	<path class="st16" d="M487.5,361.9c-4.2-0.1-7.8-3.8-7.7-7.9c0.1-4.1,3.7-7.6,7.8-7.6c4.3,0,7.9,3.7,7.8,8
		C495.2,358.5,491.6,361.9,487.5,361.9z"/>
	<path class="st16" d="M450.1,324.9c0-4.4,3.5-7.8,7.9-7.8c4.2,0,7.8,3.7,7.7,7.9c-0.1,4.3-3.6,7.8-7.8,7.8
		C453.5,332.9,450,329.3,450.1,324.9z"/>
	<path class="st16" d="M125.9,307.7c-2.1-2.4-3.9-4.6-5.7-6.7c-0.3-0.4-0.4-1-0.4-1.5c0-3.1,0-6.3-0.1-9.4c0-1.5,0.5-2.1,2-2
		c2.8,0.1,5.7,0.1,8.5,0c1.4,0,1.9,0.6,1.9,1.9c0,2.9,0.1,5.8-0.1,8.8c0,1-0.5,2.1-1.1,2.9C129.5,303.6,127.7,305.5,125.9,307.7z"/>
	<path class="st12" d="M125.5,342.8c3.9,3.3,7.6,6.1,6.6,11.4c-0.2,1.1-0.1,2.3-0.1,3.4c-0.1,3.5-0.1,3.5-3.6,3.4
		c-2.3,0-4.6-0.1-6.9,0c-1.3,0-1.8-0.5-1.7-1.8c0-3,0-6,0-9c0-0.7,0.3-1.5,0.7-2.1C122.1,346.4,123.7,344.7,125.5,342.8z"/>
	<path class="st15" d="M142.6,325.2c2.3-2,4-3.5,5.8-5c0.3-0.2,0.6-0.6,1-0.6c3.5-0.1,7.1-0.1,10.6,0c0.3,0,0.9,1,0.9,1.6
		c0.1,2.8,0.2,5.7,0,8.5c0,0.6-1.1,1.5-1.7,1.6c-3,0.2-6,0.1-9,0c-0.4,0-0.8-0.1-1.1-0.3C147,329.2,145.1,327.4,142.6,325.2z"/>
	<path class="st16" d="M94.4,319c0.2,0,0.5,0,0.7,0c5.1-1.2,7.9,2.2,10.8,5.4c0.3,0.4,0.3,1.5-0.1,1.9c-1.4,1.6-3,3.1-4.5,4.6
		c-0.3,0.3-0.8,0.6-1.2,0.6c-3.7,0.1-7.4,0.2-11.1,0.1c-0.4,0-1.1-1.1-1.1-1.7c-0.1-3.1,0-6.2,0-9.2c0-1.3,0.6-1.8,1.9-1.7
		C91.3,319,92.9,319,94.4,319z"/>
	<path class="st17" d="M192.9,425.2c0-8.9,7.3-16.2,16.2-16.3c9-0.1,16.5,7.3,16.5,16.3c0,9.2-7.1,16.4-16.3,16.5
		C200.2,441.8,192.9,434.5,192.9,425.2z"/>
	<path class="st17" d="M420,425.3c-0.1,9.2-7.6,16.6-16.6,16.4c-9.1-0.2-16.2-7.6-16.1-16.7c0.1-8.9,7.6-16.2,16.4-16.2
		C412.8,408.9,420.1,416.3,420,425.3z"/>
</g>
</svg>
