<?xml version="1.0" encoding="utf-8"?>
<!-- Generator: Adobe Illustrator 26.0.1, SVG Export Plug-In . SVG Version: 6.00 Build 0)  -->
<svg version="1.1" id="Layer_1" xmlns="http://www.w3.org/2000/svg" xmlns:xlink="http://www.w3.org/1999/xlink" x="0px" y="0px"
	 viewBox="0 0 612 792" style="enable-background:new 0 0 612 792;" xml:space="preserve">
<style type="text/css">
	.st0{display:none;}
	.st1{fill:#FEFEFE;}
	.st2{fill:#FDFDFD;}
	.st3{display:none;fill:#010101;}
	.st4{fill:#F8F8F8;}
</style>
<g>
	<path class="st0" d="M612,121.8c0,182.6,0,365.2,0,547.8c-204,0-408,0-612,0C0,487,0,304.4,0,121.8C204,121.8,408,121.8,612,121.8z
		 M467.8,364.3c3,0,5.7,0.1,8.4,0c2.8-0.1,5.6-0.1,8.3-0.4c6.5-0.8,9.7-2.5,11.1-8.3c0.7-2.7,0.9-5.5,0.9-8.2
		c0.1-23.8,0.1-47.5,0-71.3c0-1.7-0.1-3.4-0.4-5.1c-0.8-5.4-3.7-8.6-8.2-9.2c-4-0.5-8-0.9-12-0.9c-12.9-0.1-25.7,0-38.6-0.1
		c-0.8,0-2-0.6-2.3-1.2c-3-7.1-6.1-14.2-8.6-21.5c-4.5-13.3-2.9-26.8-0.8-40.2c0.8-5.2,1.4-10.5,1.6-15.8c0.2-6.1-3.4-9.7-9.4-9.4
		c-4.9,0.3-10,1-14.7,2.2c-17.3,4.6-33.4,12.1-48.6,21.5c-11.9,7.3-23,15.7-33.1,25.7c-1.8-4.5-5.1-6.9-9.7-7.5
		c-2.6-0.3-5.3-0.1-7.9-0.2c-5.8-0.2-10.4,1.6-13,7.1c-0.1,0.1-0.2,0.2,0.1-0.1c-7.4-5.9-14.6-11.8-22-17.4
		c-10-7.5-20.8-13.9-32.3-18.9c-8.1-3.5-16.4-6.7-24.8-9.5c-5.9-2-12-3.5-18.3-3.1c-4.4,0.3-7.6,2.5-8.2,6.1
		c-0.5,2.8-0.7,5.7-0.4,8.5c0.9,8.5,2.1,16.9,3.2,25.3c0.9,7.3,0.3,14.4-1.4,21.5c-2,8.5-5.6,16.3-9,24.2c-0.8,2-1.9,2.6-4.1,2.6
		c-15.2,0-30.4,0-45.5,0.5c-8.2,0.2-10.4,2.3-12,8.8c-0.4,1.7-0.6,3.5-0.6,5.3c0.1,25.8,0.1,51.5,0.5,77.3c0.1,6.8,3,10,10.3,11.1
		c3.5,0.5,7.1,0.4,10.6,0.5c2.4,0.1,4.9,0,7.4,0c0,1,0,1.6,0,2.3c0,16.4,0,32.9,0,49.3c0,22.1,0,44.2,0,66.3c0,20.8,0,41.7,0,62.5
		c0,9.3,0.1,18.7,0.5,28c0.2,4.2,1.6,8.3,6.4,9.7c2.1,0.6,4.3,1.2,6.5,1.2c11.7,0.3,23.4,0.5,35.1,0.5c86.1-0.1,172.2-0.1,258.3-0.3
		c3.3,0,6.7-0.4,9.8-1.3c4.8-1.4,6.3-5.5,6.5-9.9c0.3-7.9,0.3-15.8,0.3-23.6c0.1-21.1,0.1-42.2,0.1-63.4c0-17.5-0.1-35.1-0.1-52.6
		c0-13,0.1-26,0.1-39C467.8,384.1,467.8,374.3,467.8,364.3z"/>
	<path class="st1" d="M612,121.8c-204,0-408,0-612,0c0.1-0.2,0.1-0.4,0.2-0.4c0.6,0,1.2,0,1.9,0c202.6,0,405.2,0,607.8,0
		C610.6,121.4,611.3,121.7,612,121.8z"/>
	<path class="st2" d="M467.8,364.3c0,10,0,19.8,0,29.7c0,13-0.1,26-0.1,39c0,17.5,0.1,35.1,0.1,52.6c0,21.1,0,42.2-0.1,63.4
		c0,7.9,0,15.8-0.3,23.6c-0.2,4.4-1.7,8.6-6.5,9.9c-3.1,0.9-6.5,1.3-9.8,1.3c-86.1,0.2-172.2,0.3-258.3,0.3
		c-11.7,0-23.4-0.2-35.1-0.5c-2.2,0-4.4-0.6-6.5-1.2c-4.8-1.4-6.2-5.5-6.4-9.7c-0.4-9.3-0.5-18.6-0.5-28c-0.1-20.8,0-41.7,0-62.5
		c0-22.1,0-44.2,0-66.3c0-16.4,0-32.9,0-49.3c0-0.7,0-1.3,0-2.3c-2.5,0-5,0.1-7.4,0c-3.5-0.1-7.1,0-10.6-0.5
		c-7.3-1.1-10.2-4.3-10.3-11.1c-0.4-25.8-0.4-51.5-0.5-77.3c0-1.8,0.1-3.6,0.6-5.3c1.6-6.5,3.8-8.6,12-8.8
		c15.2-0.5,30.4-0.5,45.5-0.5c2.2,0,3.3-0.7,4.1-2.6c3.4-7.9,7-15.8,9-24.2c1.7-7.1,2.3-14.3,1.4-21.5c-1.1-8.4-2.3-16.9-3.2-25.3
		c-0.3-2.8-0.1-5.7,0.4-8.5c0.6-3.7,3.8-5.8,8.2-6.1c6.3-0.4,12.5,1.1,18.3,3.1c8.4,2.9,16.7,6,24.8,9.5
		c11.5,4.9,22.2,11.4,32.3,18.9c7.5,5.6,14.6,11.5,22,17.4c-0.3,0.2-0.2,0.2-0.1,0.1c2.6-5.5,7.3-7.3,13-7.1
		c2.6,0.1,5.3-0.1,7.9,0.2c4.6,0.6,7.9,3,9.7,7.5c10.2-10,21.3-18.4,33.1-25.7c15.2-9.4,31.3-16.9,48.6-21.5c4.8-1.3,9.8-2,14.7-2.2
		c6-0.3,9.6,3.3,9.4,9.4c-0.2,5.3-0.8,10.6-1.6,15.8c-2,13.5-3.7,27,0.8,40.2c2.5,7.3,5.6,14.4,8.6,21.5c0.3,0.6,1.5,1.2,2.3,1.2
		c12.9,0.1,25.7,0,38.6,0.1c4,0,8,0.4,12,0.9c4.6,0.5,7.4,3.8,8.2,9.2c0.3,1.7,0.4,3.4,0.4,5.1c0,23.8,0,47.5,0,71.3
		c0,2.8-0.3,5.6-0.9,8.2c-1.4,5.8-4.6,7.5-11.1,8.3c-2.7,0.3-5.5,0.3-8.3,0.4C473.5,364.4,470.8,364.3,467.8,364.3z M192.1,427.3
		c-0.3-0.2-0.5-0.3-0.8-0.5c1.9-10.7,5.1-21.1,8-31.5c2.9-10.5,6.3-20.8,9.5-31.1c-14.4,0-28.6,0-42.8,0c0,9,0,17.8,0,26.6
		c0,10.9,0,21.9,0,32.8c0,11.6,0,23.3-0.1,34.9c0,6.7-0.1,13.4-0.1,20c0,9.7,0.1,19.5,0.1,29.2c0,8.2-0.2,16.4-0.2,24.6
		c0,8.3,0.2,16.5,0.2,24.8c0,3.4,0.8,4.6,4.2,4.9c3.3,0.3,6.6,0.6,9.9,0.6c27.9,0,55.8,0,83.7,0c1.4,0,2.7,0,4.2,0
		c0-66.3,0-132.3,0-198.6c-7.9,0-15.6,0-23.5,0c-1,7.5-2.2,14.9-2.8,22.3c-1,12.4-1.6,24.7-2.4,37.1c0,0.6-0.2,1.2-0.3,1.8
		c-0.5,1.5-1.2,2.2-2.9,1c-2.9-2-5.8-4.2-9-5.5c-3.6-1.5-7.6-3-11.4-2.9c-6,0.1-11.5,2.6-16.7,5.8
		C196.6,425.1,194.3,426.2,192.1,427.3z M344.2,562.7c0.5,0,0.8,0.1,1.1,0.1c29.9,0,59.8,0,89.7,0c2.2,0,4.5-0.2,6.7-0.5
		c3.6-0.4,4.3-1.1,4.4-4.9c0.1-6.8,0-13.5,0-20.3c0-6.9,0.1-13.7,0.1-20.6c0-7.2,0.1-14.3,0.1-21.5c0-5.2,0.1-10.4,0.1-15.5
		c0-7.3-0.3-14.7-0.3-22c0-6.5,0.3-13,0.3-19.4c0-9.5-0.2-19-0.2-28.6c0-11.7,0.1-23.4,0.1-35.1c0-3.4,0-6.8,0-10.3
		c-14.6,0-28.7,0-43,0c0.1,0.5,0.1,1.1,0.2,1.5c1.7,5.1,3.5,10.1,5,15.3c3.4,11.7,6.6,23.4,9.9,35.1c0.8,2.8,1.4,5.6,2,8.5
		c0.1,0.7-0.2,1.4-0.3,2.2c-0.7-0.1-1.4-0.2-2-0.5c-3.5-1.8-7-3.9-10.6-5.5c-6.5-3-13.3-4.3-20.1-0.8c-3.3,1.7-6.6,3.6-9.8,5.6
		c-3.7,2.3-4.2,2.1-4.5-2.4c-0.9-13.2-1.8-26.4-2.9-39.6c-0.5-6.4-1.5-12.8-2.3-19.3c-8,0-15.8,0-23.7,0
		C344.2,430.3,344.2,496.4,344.2,562.7z M289.9,280.8c0,94.1,0,188,0,281.8c10.8,0,21.5,0,32.3,0c0-94,0-187.9,0-281.8
		C311.4,280.8,300.7,280.8,289.9,280.8z M251.8,280.7c-5.5,0-11.1,0-16.6,0c-14.7,0-29.3,0-44,0.1c-16.3,0.1-32.5,0.2-48.8,0.4
		c-3.8,0-5.7,2.3-5.6,6c0.1,4.9,0.1,9.9,0.1,14.8c0.1,11.6,0.3,23.1,0.3,34.7c0,4.8,2.5,6.2,6.6,6.2c9,0,18,0,26.9,0
		c14.9,0,29.9,0,44.8,0c0.7,0,1.8-0.5,2.1-1.1c1.8-3.7,3.4-7.5,5.2-11.2c3.8-7.6,7.4-15.3,11.7-22.6
		C239.9,298.8,245.9,289.9,251.8,280.7z M359.9,280.7c0.4,0.6,0.7,1.1,0.9,1.5c3,4.4,6,8.7,8.9,13.1c9.6,14.5,17.3,30,24.3,45.9
		c0.6,1.5,1.3,1.7,2.7,1.7c16.7,0,33.5,0,50.2,0c7.9,0,15.8-0.3,23.7-0.3c2.8,0,3.9-1.8,4.1-4.2c0.3-4.6,0.4-9.2,0.5-13.8
		c0.1-7.5,0-15,0-22.4c0-5.2,0-10.3,0-15.5c0-3-1.1-4.4-3.5-5c-1.4-0.3-2.9-0.5-4.3-0.6c-5.2-0.2-10.5-0.4-15.7-0.4
		c-13.1-0.1-26.3,0-39.4,0c-8.3,0-16.5,0-24.8,0C378.3,280.7,369.2,280.7,359.9,280.7z M413.4,260.7c-0.4-1.1-0.9-2.2-1.2-3.2
		c-2-5.3-4.2-10.5-5.8-15.9c-3.2-10.6-1.3-21.3,0.6-31.9c0.7-4,1-8.1,1.3-12.1c0.3-4.2-2.5-6.1-6.7-5.4c-5.6,0.9-10.7,3.1-15.7,5.7
		c-12.2,6.2-23.5,13.6-34.4,21.8c-8.8,6.7-17.3,13.8-25.8,20.8c-0.6,0.5-1.1,1.7-1.1,2.5c-0.1,5.9,0,11.7,0,17.6
		C354.3,260.7,383.8,260.7,413.4,260.7z M198.6,260.7c29.7,0,59.1,0,88.7,0c0.1-0.9,0.1-1.7,0.1-2.6c0-4.1-0.1-8.3,0.1-12.4
		c0.1-2.9-0.4-4.9-2.9-6.8c-8.9-6.8-17.3-14.3-26.4-20.9c-8.3-6.1-17.2-11.5-26-16.8c-6.5-4-13.4-7.2-20.9-9c-4.2-1-7.4,0.9-7.4,4.8
		c0,3.4,0.3,6.8,0.8,10.1c1.3,8.9,3.7,17.6,2.5,26.8c-0.8,5.6-1.8,11.2-4.1,16.4C201.4,253.6,200.1,257.1,198.6,260.7z M363.7,342.9
		c-4.4-19.4-10.7-37.9-19.4-56.1c0,19.1,0,37.6,0,56.1C350.8,342.9,357.1,342.9,363.7,342.9z M267.7,342.9c0-18.7,0-37.1,0-56.1
		c-8.8,18.4-15.1,36.8-19.4,56.1C254.8,342.9,261.2,342.9,267.7,342.9z"/>
	<path class="st3" d="M192.1,427.3c2.2-1.2,4.5-2.2,6.6-3.5c5.2-3.1,10.7-5.7,16.7-5.8c3.8,0,7.8,1.4,11.4,2.9
		c3.2,1.3,6.1,3.5,9,5.5c1.7,1.1,2.4,0.5,2.9-1c0.2-0.6,0.3-1.2,0.3-1.8c0.8-12.4,1.4-24.8,2.4-37.1c0.6-7.4,1.8-14.7,2.8-22.3
		c7.9,0,15.6,0,23.5,0c0,66.2,0,132.3,0,198.6c-1.4,0-2.8,0-4.2,0c-27.9,0-55.8,0-83.7,0c-3.3,0-6.6-0.3-9.9-0.6
		c-3.4-0.3-4.2-1.5-4.2-4.9c0-8.3-0.2-16.5-0.2-24.8c0-8.2,0.1-16.4,0.2-24.6c0-9.7-0.1-19.5-0.1-29.2c0-6.7,0.1-13.4,0.1-20
		c0-11.6,0.1-23.3,0.1-34.9c0-10.9,0-21.9,0-32.8c0-8.8,0-17.6,0-26.6c14.2,0,28.4,0,42.8,0c-3.2,10.3-6.5,20.6-9.5,31.1
		c-2.9,10.4-6.1,20.8-8,31.5C191.6,427,191.8,427.1,192.1,427.3z"/>
	<path class="st3" d="M344.2,562.7c0-66.3,0-132.4,0-198.6c7.9,0,15.7,0,23.7,0c0.8,6.5,1.7,12.9,2.3,19.3
		c1.1,13.2,1.9,26.4,2.9,39.6c0.3,4.5,0.8,4.7,4.5,2.4c3.2-2,6.4-3.9,9.8-5.6c6.8-3.4,13.6-2.2,20.1,0.8c3.6,1.7,7,3.7,10.6,5.5
		c0.6,0.3,1.3,0.3,2,0.5c0.1-0.7,0.5-1.5,0.3-2.2c-0.6-2.8-1.2-5.7-2-8.5c-3.3-11.7-6.5-23.5-9.9-35.1c-1.5-5.1-3.3-10.2-5-15.3
		c-0.2-0.5-0.2-1-0.2-1.5c14.3,0,28.4,0,43,0c0,3.6,0,6.9,0,10.3c0,11.7-0.1,23.4-0.1,35.1c0,9.5,0.2,19,0.2,28.6
		c0,6.5-0.3,13-0.3,19.4c0,7.3,0.2,14.7,0.3,22c0,5.2-0.1,10.4-0.1,15.5c0,7.2-0.1,14.3-0.1,21.5c0,6.9-0.1,13.7-0.1,20.6
		c0,6.8,0.1,13.5,0,20.3c-0.1,3.8-0.7,4.4-4.4,4.9c-2.2,0.3-4.4,0.5-6.7,0.5c-29.9,0-59.8,0-89.7,0
		C345,562.8,344.7,562.8,344.2,562.7z"/>
	<path class="st3" d="M289.9,280.8c10.8,0,21.5,0,32.3,0c0,93.9,0,187.8,0,281.8c-10.8,0-21.4,0-32.3,0
		C289.9,468.8,289.9,374.9,289.9,280.8z"/>
	<path class="st3" d="M251.8,280.7c-5.9,9.2-11.9,18.1-17.3,27.3c-4.3,7.3-7.9,15-11.7,22.6c-1.8,3.7-3.4,7.5-5.2,11.2
		c-0.3,0.6-1.4,1.1-2.1,1.1c-14.9,0.1-29.9,0-44.8,0c-9,0-18,0-26.9,0c-4.1,0-6.6-1.4-6.6-6.2c0-11.6-0.2-23.1-0.3-34.7
		c0-4.9,0-9.9-0.1-14.8c-0.1-3.7,1.9-6,5.6-6c16.3-0.2,32.5-0.3,48.8-0.4c14.7-0.1,29.3-0.1,44-0.1
		C240.7,280.7,246.2,280.7,251.8,280.7z"/>
	<path class="st3" d="M359.9,280.7c9.4,0,18.5,0,27.6,0c8.3,0,16.5,0,24.8,0c13.1,0,26.3,0,39.4,0c5.2,0,10.5,0.2,15.7,0.4
		c1.5,0.1,2.9,0.3,4.3,0.6c2.4,0.5,3.5,1.9,3.5,5c0.1,5.2,0,10.3,0,15.5c0,7.5,0,15,0,22.4c0,4.6-0.1,9.2-0.5,13.8
		c-0.2,2.5-1.3,4.2-4.1,4.2c-7.9,0-15.8,0.3-23.7,0.3c-16.7,0.1-33.5,0-50.2,0c-1.4,0-2.1-0.2-2.7-1.7c-7-15.9-14.8-31.4-24.3-45.9
		c-2.9-4.4-6-8.8-8.9-13.1C360.5,281.8,360.2,281.4,359.9,280.7z"/>
	<path class="st3" d="M413.4,260.7c-29.7,0-59.2,0-88.8,0c0-5.9,0-11.8,0-17.6c0-0.9,0.4-2,1.1-2.5c8.6-7,17-14.1,25.8-20.8
		c10.8-8.2,22.2-15.7,34.4-21.8c5-2.5,10.1-4.8,15.7-5.7c4.2-0.7,7,1.2,6.7,5.4c-0.3,4.1-0.6,8.1-1.3,12.1
		c-1.8,10.6-3.8,21.2-0.6,31.9c1.6,5.4,3.8,10.6,5.8,15.9C412.6,258.5,413,259.6,413.4,260.7z M391.8,223.9
		c-0.1-0.2-0.2-0.5-0.4-0.7c-0.7,0-1.4-0.1-2.1,0c-4.1,0.8-8.2,1.6-12.2,2.6c-11.1,2.5-21.6,6.8-31.3,12.7c-4,2.4-7.8,5.2-11.6,7.9
		c-0.6,0.4-1,1.3-1.4,1.9c0.2,0.2,0.3,0.4,0.5,0.6c1.7-0.6,3.5-1,5.1-1.7c7.7-3.3,15.2-6.8,22.9-10.1c9.3-3.9,18.8-7.6,28.1-11.5
		C390.3,225.3,391,224.5,391.8,223.9z"/>
	<path class="st3" d="M198.6,260.7c1.5-3.6,2.9-7.1,4.4-10.5c2.3-5.2,3.3-10.8,4.1-16.4c1.3-9.1-1.1-17.9-2.5-26.8
		c-0.5-3.3-0.8-6.7-0.8-10.1c0-3.9,3.2-5.7,7.4-4.8c7.5,1.8,14.4,5,20.9,9c8.8,5.4,17.7,10.8,26,16.8c9.1,6.6,17.5,14.1,26.4,20.9
		c2.5,1.9,3.1,4,2.9,6.8c-0.2,4.1-0.1,8.3-0.1,12.4c0,0.8-0.1,1.7-0.1,2.6C257.7,260.7,228.2,260.7,198.6,260.7z M279.1,249
		c0.4-0.6,0.8-1.1,1.2-1.7c-0.9-0.4-1.9-0.8-2.7-1.3c-7.1-4.3-14-9.3-21.5-13c-10.3-5.1-21.5-7.9-32.9-9.8c-0.9-0.1-1.9,0.3-2.9,0.4
		c0,0.3,0,0.5,0,0.8c3.3,1.5,6.5,2.9,9.8,4.3c14.2,6,28.4,12,42.6,18C274.8,247.7,276.9,248.3,279.1,249z"/>
	<path class="st3" d="M363.7,342.9c-6.5,0-12.9,0-19.4,0c0-18.5,0-37,0-56.1C353,305,359.2,323.5,363.7,342.9z"/>
	<path class="st3" d="M267.7,342.9c-6.5,0-12.9,0-19.4,0c4.3-19.3,10.6-37.8,19.4-56.1C267.7,305.8,267.7,324.3,267.7,342.9z"/>
	<path class="st4" d="M391.8,223.9c-0.8,0.6-1.5,1.4-2.3,1.7c-9.4,3.9-18.8,7.5-28.1,11.5c-7.7,3.2-15.3,6.7-22.9,10.1
		c-1.6,0.7-3.4,1.1-5.1,1.7c-0.2-0.2-0.3-0.4-0.5-0.6c0.5-0.7,0.8-1.5,1.4-1.9c3.8-2.7,7.6-5.5,11.6-7.9
		c9.7-5.9,20.2-10.1,31.3-12.7c4.1-0.9,8.2-1.7,12.2-2.6c0.7-0.1,1.4,0,2.1,0C391.5,223.4,391.7,223.7,391.8,223.9z"/>
	<path class="st4" d="M279.1,249c-2.1-0.7-4.3-1.3-6.4-2.2c-14.2-6-28.4-12-42.6-18c-3.3-1.4-6.5-2.9-9.8-4.3c0-0.3,0-0.5,0-0.8
		c1-0.2,2-0.6,2.9-0.4c11.4,1.9,22.6,4.7,32.9,9.8c7.5,3.7,14.3,8.6,21.5,13c0.9,0.5,1.8,0.9,2.7,1.3
		C279.9,247.9,279.5,248.4,279.1,249z"/>
</g>
</svg>
