<?xml version="1.0" encoding="UTF-8"?><svg id="Layer_1" xmlns="http://www.w3.org/2000/svg" viewBox="0 0 1920 1080"><path d="M766.96,503.1c15.44,0,30.89,.15,46.33-.03,30.83-.35,61.65-.95,92.48-1.28,4.51-.05,6.86-1.15,8.5-6,13.97-41.41,28.34-82.67,42.6-123.98,.41-1.2,.89-2.38,2.15-3.42,0,1.73,0,3.46,0,5.19,0,89.33-.06,178.66,.13,267.99,.01,5.6-1.53,8.93-6.19,12.15-36.29,25.11-72.37,50.53-108.52,75.85-1.2,.84-2.46,1.61-4.62,3.01,3.4-11.23,6.49-21.5,9.62-31.75,10.5-34.32,20.94-68.65,31.63-102.91,1.33-4.26,.44-6.51-3.03-9.1-36.67-27.43-73.22-55.03-109.81-82.59-.52-.39-1.01-.83-1.52-1.24,.08-.63,.16-1.27,.24-1.9Z"/></svg>