<svg id="Layer_1" data-name="Layer 1" xmlns="http://www.w3.org/2000/svg" viewBox="0 0 552.23 473.88"><path d="M948.36,792.72q-29.16-22.5-58.18-44.92c-33.37-25.81-65.88-52.69-95.92-82.32-40.51-40-76.78-83.38-102.36-134.66-12.52-25.11-20.46-51.78-19.1-80.26,1.51-31.82,11.76-60.86,32-85.53,19.11-23.36,44.54-37,74.07-43a152.55,152.55,0,0,1,69.72,2.21Q898,337.12,927,379c6.55,9.43,12.41,19.33,18.59,29,.87,1.37,1.77,2.72,3.12,4.8,1.42-2.22,2.42-3.87,3.5-5.46,8.35-12.42,16.13-25.29,25.21-37.16,19.41-25.37,45.72-40,76.56-47.23a147.25,147.25,0,0,1,81.27,3.37c25.87,8.58,47.32,23.78,63.21,46.54,16.3,23.37,24.57,49.42,26.2,77.44,1.07,18.36-2.14,36.54-8.29,54-14.94,42.26-40.22,78.26-68.42,112.48-30.87,37.45-66,70.6-103.63,101-30.44,24.6-61.56,48.38-92.38,72.51C950.91,791.12,949.77,791.78,948.36,792.72Zm0-59.67a17.31,17.31,0,0,0,2-1.15c32.16-25.9,65.22-50.78,96.24-78,42.94-37.64,79.88-80.71,107.43-131.16,11.55-21.14,20.36-43.28,22.68-67.62,1.06-11.14.07-22.15-3.75-32.39a72.4,72.4,0,0,0-20.74-29.39c-8-7-17-11.68-26.42-15.72-12.72-5.48-26.21-8.45-40.22-6.46-7.39,1-15.31,1.44-21.89,4.5-20.4,9.49-37,24.22-50.94,41.68-23.62,29.45-42.93,61.75-61.59,94.47-.76,1.34-1.58,2.65-2.52,4.23C942.57,505.59,937,495.55,931,485.78c-18.47-29.87-36.42-60.13-61.48-85.29-14.81-14.87-31.06-26.53-52.65-29.92-12-1.9-23.45.08-34.21,3.62a84.57,84.57,0,0,0-33.81,21.41c-13.95,14.14-20.77,31.34-22.47,50.34-2.29,25.48,4.63,49.54,15.49,72.36,15.75,33.08,38,61.7,62.14,89,31.67,35.87,67.84,66.83,105.61,96Q928.93,718.25,948.36,733.05Z" transform="translate(-672.65 -318.84)"/></svg>