<?xml version="1.0" encoding="utf-8"?>
<!-- Generator: Adobe Illustrator 26.0.1, SVG Export Plug-In . SVG Version: 6.00 Build 0)  -->
<svg version="1.1" id="Layer_1" xmlns="http://www.w3.org/2000/svg" xmlns:xlink="http://www.w3.org/1999/xlink" x="0px" y="0px"
	 viewBox="0 0 612 792" style="enable-background:new 0 0 612 792;" xml:space="preserve">
<style type="text/css">
	.st0{display:none;fill:#010000;}
	.st1{fill:#FEFEFE;}
	.st2{fill:#E41206;}
</style>
<g>
	<path class="st0" d="M612.5,139.9c0,171,0,342.1,0,513.1c-204.2,0-408.3,0-612.5,0c0-171,0-342.1,0-513.1
		C204.2,139.9,408.3,139.9,612.5,139.9z M306.4,232.7c-1.4-2.7-2.4-5.4-4.1-7.5c-4.5-5.4-9-10.8-14.1-15.6
		c-9.3-8.9-20-16.1-31.4-21.9c-10.1-5.1-20.6-8.9-31.8-10.5c-6.7-0.9-13.6-0.9-20.4-1.2c-8-0.3-15.9,1.1-23.5,3.1
		c-15.4,4-29.6,10.6-42.6,19.7c-7.6,5.3-14.6,11.3-20.8,18.2c-5.9,6.6-11,13.7-15,21.6c-3.7,7.4-6.8,15.1-9.6,22.9
		c-2.4,6.7-4.4,13.6-5.8,20.6c-1.6,7.9-2.8,16-3.3,24.1c-0.5,7.6-0.2,15.3,0.5,22.9c0.6,6.8,1.9,13.5,3.3,20.2
		c2.6,12.3,6.7,24.2,11.6,35.7c8.6,20.1,19.7,38.8,33.1,56c9.2,11.9,19.2,23.1,29.9,33.8c13.4,13.3,27.5,25.8,42.1,37.6
		c20.7,16.7,42,32.3,65,45.7c10.1,5.9,20.6,11.1,30.9,16.7c3.9,2.1,7.8,2.3,11.8,0c2.5-1.4,5.1-2.5,7.7-3.8
		c22.1-11.2,42.9-24.4,62.9-39c20.2-14.8,39.6-30.6,57.8-47.7c15-14.1,29-29,41.4-45.4c11.4-15.1,21.3-31.2,29-48.5
		c4.8-10.7,8.8-21.6,12-32.9c2.8-9.9,4.6-19.9,5.4-30.1c0.5-6.8,0.4-13.7,0-20.5c-0.3-6.3-0.8-12.7-2.1-18.9
		c-1.8-8.8-3.9-17.7-6.6-26.2c-6.5-20.4-16.7-38.5-32.9-52.9c-9.9-8.8-20.8-16-32.8-21.5c-8.1-3.8-16.4-7.1-25.3-8.6
		c-6-1-11.9-2.3-17.9-2.6c-8.3-0.4-16.6-0.6-24.7,1.4c-7.2,1.8-14.5,3.5-21.4,6.2c-14.2,5.6-26.8,13.9-38.2,24
		C318.2,214.8,310.5,222.2,306.4,232.7z"/>
	<path class="st1" d="M612.5,139.9c-204.2,0-408.3,0-612.5,0c0.1-0.2,0.2-0.4,0.2-0.5c0.6,0,1.3,0,1.9,0c202.7,0,405.5,0,608.2,0
		C611.1,139.4,611.8,139.7,612.5,139.9z"/>
	<path class="st2" d="M306.4,232.7c4.1-10.5,11.9-17.9,20-25c11.5-10,24.1-18.4,38.2-24c6.9-2.7,14.2-4.4,21.4-6.2
		c8.1-2,16.5-1.9,24.7-1.4c6,0.3,12,1.6,17.9,2.6c8.9,1.5,17.1,4.8,25.3,8.6c12,5.6,22.9,12.7,32.8,21.5
		c16.1,14.5,26.4,32.6,32.9,52.9c2.7,8.6,4.8,17.4,6.6,26.2c1.2,6.2,1.8,12.6,2.1,18.9c0.3,6.8,0.5,13.7,0,20.5
		c-0.8,10.2-2.5,20.2-5.4,30.1c-3.2,11.3-7.3,22.2-12,32.9c-7.7,17.4-17.6,33.4-29,48.5c-12.4,16.4-26.4,31.3-41.4,45.4
		c-18.3,17.1-37.6,32.9-57.8,47.7c-20,14.6-40.8,27.8-62.9,39c-2.5,1.3-5.2,2.4-7.7,3.8c-4,2.2-7.8,2.1-11.8,0
		c-10.3-5.6-20.8-10.8-30.9-16.7c-23-13.4-44.3-29-65-45.7c-14.7-11.8-28.8-24.3-42.1-37.6c-10.7-10.6-20.7-21.8-29.9-33.8
		c-13.4-17.3-24.5-35.9-33.1-56c-4.9-11.6-8.9-23.5-11.6-35.7c-1.4-6.7-2.7-13.4-3.3-20.2c-0.7-7.6-1-15.3-0.5-22.9
		c0.5-8.1,1.7-16.2,3.3-24.1c1.4-7,3.4-13.9,5.8-20.6c2.8-7.8,5.9-15.5,9.6-22.9c3.9-7.8,9-15,15-21.6c6.3-6.9,13.2-12.9,20.8-18.2
		c13-9.1,27.3-15.7,42.6-19.7c7.7-2,15.5-3.4,23.5-3.1c6.8,0.3,13.6,0.3,20.4,1.2c11.2,1.6,21.7,5.3,31.8,10.5
		c11.5,5.9,22.1,13,31.4,21.9c5.1,4.8,9.6,10.2,14.1,15.6C304,227.3,304.9,230,306.4,232.7z M306.6,277.6c-0.2,0-0.5,0.1-0.7,0.1
		c-1.3-2.7-2.7-5.5-4-8.2c-4.9-10.4-10.7-20.3-18.4-29c-12.4-14-27.6-24.3-44.7-31.8c-8.1-3.6-16.7-5.7-25.5-6.5
		c-5.2-0.5-10.5-1-15.7,0.3c-5.3,1.4-10.8,1.9-16.1,3.5c-8.6,2.6-16.6,6.7-24.3,11.3c-14.5,8.7-26.3,20-34.3,34.9
		c-7.6,14.1-11.8,29.5-14.5,45.1c-1.5,8.8-1.8,17.9-0.6,26.8c0.9,6.6,1.5,13.2,3,19.7c3.1,13.3,7.7,26.1,13.5,38.3
		c9.2,19.3,21.3,36.8,35.1,53.1c12.3,14.4,25.6,27.8,39.8,40.3c17.2,15.2,35.4,29.2,54.2,42.3c15.3,10.6,31.3,20,48.1,28.2
		c1.6,0.8,3,2.1,4.3,2.9c2-1.2,4.1-2.7,6.3-3.8c13.1-6.3,25.8-13.5,37.9-21.6c24.2-16,47.1-33.7,68.6-53.2
		c13-11.8,25.2-24.5,36.4-38.1c10.5-12.8,20.4-26.2,27.9-41.1c4.4-8.8,8.2-17.9,12-27c2-4.9,3.7-10,5-15.1
		c1.5-6.3,2.5-12.7,3.5-19.1c1.2-7.7,2-15.4,1-23.2c-0.9-6.5-1.4-13-2.7-19.4c-2.1-9.9-5.2-19.4-9.2-28.7
		c-7.7-17.6-20-31.1-36.4-40.7c-7.4-4.3-15.2-7.9-23.1-11.2c-5-2.1-10.3-3.4-15.6-4.2c-5.4-0.8-10.9-0.8-16.4-0.6
		c-4.8,0.2-9.6,0.8-14.2,2c-11.4,2.9-22,8-31.9,14.3c-9.9,6.3-19,13.7-26.7,22.7c-7.5,8.7-13.2,18.6-18,28.9
		C309,272.7,307.8,275.2,306.6,277.6z"/>
	<path class="st0" d="M306.6,277.6c1.2-2.5,2.4-5,3.6-7.4c4.9-10.3,10.6-20.2,18-28.9c7.7-8.9,16.7-16.4,26.7-22.7
		c9.9-6.3,20.5-11.4,31.9-14.3c4.6-1.2,9.4-1.8,14.2-2c5.4-0.2,11-0.2,16.4,0.6c5.3,0.8,10.7,2.1,15.6,4.2
		c7.9,3.3,15.8,6.9,23.1,11.2c16.4,9.6,28.8,23.1,36.4,40.7c4,9.3,7.2,18.8,9.2,28.7c1.3,6.4,1.9,12.9,2.7,19.4
		c1,7.8,0.2,15.5-1,23.2c-1,6.4-2,12.8-3.5,19.1c-1.2,5.1-3,10.2-5,15.1c-3.8,9.1-7.6,18.2-12,27c-7.5,14.9-17.4,28.2-27.9,41.1
		c-11.2,13.6-23.4,26.2-36.4,38.1c-21.4,19.5-44.4,37.2-68.6,53.2c-12.2,8-24.8,15.3-37.9,21.6c-2.2,1.1-4.3,2.6-6.3,3.8
		c-1.3-0.9-2.7-2.1-4.3-2.9c-16.8-8.1-32.8-17.6-48.1-28.2c-18.9-13.1-37-27.1-54.2-42.3c-14.2-12.5-27.6-25.9-39.8-40.3
		c-13.8-16.2-25.9-33.7-35.1-53.1c-5.8-12.3-10.4-25.1-13.5-38.3c-1.5-6.5-2.2-13.1-3-19.7c-1.2-9-0.9-18,0.6-26.8
		c2.7-15.7,6.9-31,14.5-45.1c8-15,19.8-26.3,34.3-34.9c7.7-4.6,15.7-8.6,24.3-11.3c5.2-1.6,10.7-2.2,16.1-3.5
		c5.3-1.3,10.5-0.8,15.7-0.3c8.8,0.8,17.3,2.9,25.5,6.5c17.1,7.5,32.2,17.8,44.7,31.8c7.7,8.6,13.5,18.5,18.4,29
		c1.3,2.8,2.6,5.5,4,8.2C306.2,277.7,306.4,277.7,306.6,277.6z"/>
</g>
</svg>
