<svg id="Layer_1" data-name="Layer 1" xmlns="http://www.w3.org/2000/svg" viewBox="0 0 551.99 472.37"><defs><style>.cls-1{fill:#f5200c;}</style></defs><path class="cls-1" d="M948.61,412.79c6.42-10.05,12.26-19.31,18.21-28.49,13.32-20.59,30.2-37.54,52.15-48.77,14.44-7.39,29.75-12.61,46-14.52,6.71-.79,13.44-1.86,20.17-1.9a166,166,0,0,1,40,4.64c19.13,4.58,36.61,12.66,51.47,25.22A124.92,124.92,0,0,1,1213,399.29a160.41,160.41,0,0,1,10.23,40,150.06,150.06,0,0,1-4.75,57.66c-5.66,20.68-15.23,39.58-26.1,57.88-13.27,22.33-28.83,43-45.38,63-37.44,45.3-81.38,83.66-127.19,120-22,17.43-44.4,34.27-66.5,51.54-3.27,2.55-5.47,2.86-9,.18-45-34.25-90-68.5-131.73-106.69A666,666,0,0,1,740.63,606c-18.79-23.63-35.68-48.49-48.84-75.62-6.59-13.57-12.25-27.64-15.48-42.72a175,175,0,0,1-4.1-33.23c-.27-14,3.14-27.63,7.14-41.09,7.59-25.51,21.12-47.33,41.37-64.37,15.6-13.13,33.81-22.22,54-25.83,12.74-2.27,25.83-4.3,38.68-3.86,29.47,1,57.22,8.93,81.47,26.38,16.7,12,29.31,27.93,40.17,45.26C939.49,398,943.81,405,948.61,412.79Z" transform="translate(-672.2 -319.1)"/></svg>