<?xml version="1.0" encoding="utf-8"?>
<!-- Generator: Adobe Illustrator 26.0.1, SVG Export Plug-In . SVG Version: 6.00 Build 0)  -->
<svg version="1.1" id="Layer_1" xmlns="http://www.w3.org/2000/svg" xmlns:xlink="http://www.w3.org/1999/xlink" x="0px" y="0px"
	 viewBox="0 0 1920 1080" style="enable-background:new 0 0 1920 1080;" xml:space="preserve">
<style type="text/css">
	.st0{display:none;fill:#CDCDCD;}
	.st1{fill:#0E1117;}
</style>
<g>
	<path class="st0" d="M35,1020c0-360,0-720,0-1080c640,0,1280,0,1920,0c0,360,0,720,0,1080C1315,1020,675,1020,35,1020z M994.8,284
		c-3.1-5.8-5.9-10.7-8.5-15.6c-12.4-23.1-26.2-45.2-44.5-64.2c-16.4-16.9-34.4-31.6-54.6-44c-14.9-9.1-30.3-16.9-46.7-22.5
		c-9.6-3.3-19.5-5.9-29.5-7.6c-10.6-1.8-21.5-3-32.3-3c-10.1,0-20.3,1.4-30.3,3.1c-27.4,4.7-52.1,16.1-74.3,32.5
		c-29.2,21.7-51.4,49.3-67.1,82.2c-7.1,14.9-13.5,30.1-16.8,46.3c-3.1,14.9-6.8,29.9-7.9,45.1c-1.5,20.4-0.9,41.1,2.9,61.3
		c3.7,20,8.7,39.6,15.5,58.8c7.3,20.7,15.4,41.1,26.1,60.3c9.6,17.2,18.5,35,30,50.9c15.5,21.6,32.3,42.3,49.9,62.3
		c26.4,30.1,55.7,57.3,86.2,83.2c44.3,37.6,91.4,71.3,140.9,101.7c19,11.6,38.2,22.9,57.2,34.4c2.9,1.7,5,2,8.1,0.1
		c14.7-9.1,29.7-17.8,44.5-26.7c44-26.5,86.5-55.1,126.6-87.2c42.4-33.8,82.3-70.2,118.3-110.8c29.9-33.7,56.1-70.1,76.3-110.4
		c8.3-16.6,15.8-33.8,22-51.4c6.3-18,11.1-36.6,15.6-55.2c2.6-10.8,3.4-22,4.6-33.1c0.7-6.4,0.9-12.9,1-19.3c0-4.8-0.4-9.6-0.9-14.3
		c-1.4-12.9-2.3-26-4.7-38.7c-3.7-19.1-10-37.4-18.4-55.1c-17.6-37.2-42.8-67.8-77.4-90.5c-21.8-14.3-45.7-23.4-71.3-27.3
		c-11.1-1.7-22.7-1.6-34-1c-11.8,0.6-23.7,1.9-35.1,4.6c-28.3,6.6-53.5,20-77.2,36.5c-31.5,22-56.9,49.4-76,82.8
		C1007,262.3,1001.2,272.6,994.8,284z"/>
	<path class="st1" d="M994.8,284c6.4-11.4,12.2-21.7,18.1-32c19.1-33.3,44.5-60.8,76-82.8c23.7-16.6,48.9-29.9,77.2-36.5
		c11.4-2.7,23.4-3.9,35.1-4.6c11.3-0.6,22.8-0.7,34,1c25.6,3.9,49.5,13,71.3,27.3c34.6,22.7,59.7,53.3,77.4,90.5
		c8.4,17.7,14.7,36,18.4,55.1c2.4,12.7,3.3,25.8,4.7,38.7c0.5,4.8,1,9.5,0.9,14.3c0,6.4-0.3,12.9-1,19.3c-1.2,11.1-2,22.3-4.6,33.1
		c-4.5,18.6-9.3,37.2-15.6,55.2c-6.2,17.5-13.7,34.7-22,51.4c-20.2,40.4-46.4,76.7-76.3,110.4c-36,40.6-76,77-118.3,110.8
		c-40.1,32.1-82.6,60.7-126.6,87.2c-14.8,8.9-29.8,17.7-44.5,26.7c-3.1,1.9-5.2,1.7-8.1-0.1c-19-11.5-38.2-22.8-57.2-34.4
		c-49.5-30.3-96.7-64-140.9-101.7c-30.5-25.9-59.8-53.1-86.2-83.2c-17.5-20-34.4-40.7-49.9-62.3c-11.4-15.9-20.4-33.7-30-50.9
		c-10.7-19.2-18.7-39.6-26.1-60.3c-6.8-19.2-11.8-38.9-15.5-58.8c-3.8-20.2-4.3-40.9-2.9-61.3c1.1-15.1,4.8-30.1,7.9-45.1
		c3.4-16.2,9.7-31.4,16.8-46.3c15.7-32.9,37.9-60.5,67.1-82.2c22.2-16.4,46.9-27.8,74.3-32.5c10-1.7,20.2-3.1,30.3-3.1
		c10.8,0,21.6,1.2,32.3,3c10,1.7,19.9,4.3,29.5,7.6c16.4,5.6,31.8,13.4,46.7,22.5c20.1,12.4,38.2,27,54.6,44
		c18.3,19,32.2,41,44.5,64.2C989,273.3,991.7,278.2,994.8,284z"/>
</g>
</svg>
