<?xml version="1.0" encoding="utf-8"?>
<!-- Generator: Adobe Illustrator 27.3.1, SVG Export Plug-In . SVG Version: 6.00 Build 0)  -->
<svg version="1.1" id="Layer_1" xmlns="http://www.w3.org/2000/svg" xmlns:xlink="http://www.w3.org/1999/xlink" x="0px" y="0px"
	 viewBox="0 0 1115 1080" style="enable-background:new 0 0 1115 1080;" xml:space="preserve">
<style type="text/css">
	.st0{display:none;}
	.st1{fill:#FFFFFF;}
</style>
<g>
	<path class="st0" d="M0,1080C0,720.02,0,360.05,0,0c371.61,0,743.24,0,1115,0c0,359.95,0,719.98,0,1080
		C743.36,1080,371.69,1080,0,1080z M557.5,229.94c-0.56-0.72-1.05-1.19-1.36-1.76c-7.64-13.94-14.7-28.23-23.05-41.73
		c-9.15-14.79-18.4-29.75-29.59-42.97c-12.68-14.98-27.05-28.65-41.61-41.87c-14.94-13.57-32.33-23.9-50.46-32.74
		c-20.04-9.77-40.78-17.76-62.94-21.17c-15.1-2.33-30.29-5.01-45.5-5.45c-15.51-0.45-31.16,1.04-46.63,2.76
		c-28.72,3.18-56.21,11.39-82.52,23.15c-35.02,15.66-66.11,36.94-91.68,65.93c-20.92,23.71-36.69,50.51-48.52,79.64
		c-9.12,22.44-15.42,45.72-19.89,69.6c-4.27,22.82-6.41,45.77-6.62,68.89c-0.13,13.9,0.85,27.84,1.93,41.72
		c0.98,12.5,2.11,25.06,4.38,37.36c2.85,15.47,6.37,30.87,10.63,46c4.77,16.91,10.11,33.71,16.25,50.17
		c9.53,25.5,21.71,49.8,35.1,73.53c15.52,27.51,33,53.74,52.83,78.2c18.31,22.59,37.52,44.59,57.81,65.41
		c22.99,23.61,47.09,46.23,71.7,68.16c20.8,18.53,42.54,36.09,64.72,52.96c30.25,23.01,60.92,45.53,92.15,67.18
		c25.65,17.78,52.28,34.17,78.68,50.85c19.92,12.58,40.19,24.63,60.26,36.97c2.58,1.59,4.82,1.92,7.58,0.24
		c22.19-13.55,44.63-26.68,66.62-40.54c24.08-15.18,48.13-30.46,71.52-46.66c28.53-19.77,56.57-40.26,84.45-60.95
		c35.07-26.02,68.61-53.95,100.29-84.02c18.1-17.18,35.96-34.64,53.36-52.53c29.97-30.81,56.78-64.24,80.69-99.97
		c26.52-39.63,48.17-81.82,63.39-126.95c7.85-23.27,12.94-47.51,18.66-71.45c5.12-21.42,6.67-43.37,7.68-65.3
		c1.1-23.91,0.23-47.8-3.77-71.4c-3.19-18.83-6.53-37.74-11.67-56.09c-9.14-32.59-23.4-63-43.21-90.65
		c-14.1-19.68-30.17-37.58-49.92-51.63c-14.05-10-28.62-19.46-43.76-27.68c-19.95-10.83-41.36-18.31-63.45-23.88
		c-22.18-5.59-44.7-9.01-67.46-9.07c-16.5-0.04-33.07,1.84-49.5,3.83c-20.4,2.47-39.85,8.86-58.7,16.92
		c-37.47,16.01-69.46,39.88-96.45,70.12c-17.11,19.18-31.51,40.53-43.95,63.1C569.84,207.35,563.73,218.56,557.5,229.94z"/>
	<path class="st1" d="M557.5,229.94c6.23-11.38,12.34-22.59,18.5-33.77c12.44-22.57,26.84-43.93,43.95-63.1
		c26.99-30.24,58.98-54.11,96.45-70.12c18.85-8.05,38.3-14.45,58.7-16.92c16.42-1.99,33-3.87,49.5-3.83
		c22.76,0.06,45.28,3.48,67.46,9.07c22.09,5.57,43.5,13.05,63.45,23.88c15.14,8.22,29.71,17.69,43.76,27.68
		c19.75,14.05,35.82,31.95,49.92,51.63c19.81,27.65,34.07,58.06,43.21,90.65c5.15,18.35,8.48,37.27,11.67,56.09
		c4,23.6,4.88,47.5,3.77,71.4c-1.01,21.93-2.56,43.88-7.68,65.3c-5.73,23.94-10.82,48.18-18.66,71.45
		c-15.22,45.13-36.87,87.32-63.39,126.95c-23.91,35.73-50.72,69.16-80.69,99.97c-17.4,17.89-35.26,35.34-53.36,52.53
		c-31.68,30.07-65.22,58-100.29,84.02c-27.88,20.69-55.91,41.18-84.45,60.95c-23.39,16.21-47.44,31.49-71.52,46.66
		c-21.99,13.86-44.44,27-66.62,40.54c-2.76,1.68-5,1.35-7.58-0.24c-20.08-12.34-40.34-24.39-60.26-36.97
		c-26.4-16.68-53.03-33.07-78.68-50.85c-31.23-21.65-61.9-44.17-92.15-67.18c-22.18-16.87-43.93-34.43-64.72-52.96
		c-24.61-21.93-48.71-44.55-71.7-68.16c-20.28-20.83-39.5-42.82-57.81-65.41c-19.82-24.46-37.31-50.69-52.83-78.2
		C62.04,577.3,49.85,553,40.33,527.49c-6.15-16.45-11.49-33.26-16.25-50.17c-4.27-15.14-7.78-30.54-10.63-46
		c-2.27-12.31-3.41-24.87-4.38-37.36c-1.08-13.88-2.06-27.82-1.93-41.72c0.22-23.11,2.36-46.07,6.62-68.89
		c4.46-23.88,10.77-47.16,19.89-69.6c11.83-29.13,27.61-55.93,48.52-79.64c25.58-29,56.66-50.27,91.68-65.93
		c26.3-11.76,53.8-19.97,82.52-23.15c15.47-1.71,31.12-3.21,46.63-2.76c15.21,0.44,30.4,3.12,45.5,5.45
		c22.16,3.41,42.9,11.4,62.94,21.17c18.13,8.84,35.52,19.17,50.46,32.74c14.56,13.22,28.93,26.89,41.61,41.87
		c11.19,13.21,20.44,28.18,29.59,42.97c8.35,13.5,15.4,27.8,23.05,41.73C556.45,228.75,556.94,229.22,557.5,229.94z M558.6,502.08
		c-0.63,0.04-1.27,0.08-1.9,0.12c-2.23-5.71-4.68-11.35-6.64-17.15c-8.09-23.94-15.56-48.1-24.15-71.86
		c-10.44-28.89-21.57-57.54-32.78-86.15c-10.36-26.46-23.07-51.8-37.63-76.21c-15.74-26.41-34.4-50.25-59.22-68.91
		c-24.64-18.53-52.5-28.44-82.94-30.8c-21.4-1.66-42.64,1-63.46,6.35c-18.99,4.88-36.89,12.33-53.85,22.3
		c-21.5,12.63-39.3,29.15-53.28,49.62c-25.08,36.73-34.99,78.36-37.56,122.02c-0.75,12.74,0.31,25.6,0.74,38.41
		c0.77,23.07,5.24,45.58,11.59,67.66c11.09,38.61,28.08,74.59,49.8,108.37c13.7,21.31,28.3,41.93,44.95,61.06
		c12.97,14.9,25.39,30.33,39.06,44.55c15.67,16.29,32.23,31.76,48.82,47.13c13.17,12.2,26.7,24.06,40.57,35.47
		c19.64,16.16,39.25,32.4,59.74,47.43c27.6,20.25,55.91,39.53,84.13,58.92c21.4,14.71,43.2,28.84,64.66,43.47
		c5.44,3.71,10.14,6.49,15.67,0.32c1.68-1.87,4.38-2.81,6.55-4.26c31.05-20.73,62.43-40.99,93.02-62.38
		c27.33-19.11,54.15-38.98,80.49-59.43c20.16-15.65,39.78-32.1,58.61-49.32c22.59-20.65,44.43-42.18,65.98-63.93
		c18.73-18.9,35.39-39.62,51.5-60.86c15.87-20.92,30.61-42.53,42.92-65.63c8.88-16.66,16.91-33.88,23.82-51.43
		c12.74-32.37,20.19-66.19,22.1-100.92c1.38-25.1,0.05-50.23-4.8-75.03c-4.16-21.27-10.79-41.76-20.55-61.1
		c-12.93-25.6-30.9-46.8-54.74-63.22c-16.86-11.61-34.94-20.49-54.3-26.34c-25.58-7.73-51.8-11.46-78.72-8.53
		c-15.47,1.68-30.39,5.16-44.73,11.11c-28.36,11.78-50.86,31.06-69.66,54.93c-17.6,22.34-32.06,46.62-43.62,72.58
		c-10.7,24.04-21.65,48-31.4,72.44c-8.03,20.13-14.57,40.86-21.58,61.39c-5.08,14.87-9.66,29.91-14.8,44.75
		C567.15,480.14,562.76,491.07,558.6,502.08z"/>
	<path class="st0" d="M558.6,502.08c4.16-11.01,8.55-21.94,12.41-33.06c5.14-14.84,9.72-29.88,14.8-44.75
		c7.01-20.53,13.55-41.26,21.58-61.39c9.75-24.43,20.69-48.39,31.4-72.44c11.56-25.96,26.02-50.25,43.62-72.58
		c18.81-23.87,41.31-43.15,69.66-54.93c14.34-5.96,29.26-9.43,44.73-11.11c26.92-2.92,53.14,0.8,78.72,8.53
		c19.36,5.85,37.44,14.73,54.3,26.34c23.84,16.42,41.82,37.62,54.74,63.22c9.77,19.34,16.4,39.82,20.55,61.1
		c4.85,24.8,6.18,49.93,4.8,75.03c-1.91,34.73-9.36,68.55-22.1,100.92c-6.91,17.56-14.95,34.78-23.82,51.43
		c-12.31,23.11-27.06,44.71-42.92,65.63c-16.1,21.24-32.77,41.95-51.5,60.86c-21.55,21.75-43.38,43.27-65.98,63.93
		c-18.83,17.22-38.46,33.67-58.61,49.32c-26.34,20.45-53.16,40.33-80.49,59.43c-30.59,21.39-61.97,41.64-93.02,62.38
		c-2.17,1.45-4.87,2.39-6.55,4.26c-5.53,6.17-10.23,3.39-15.67-0.32c-21.46-14.63-43.26-28.76-64.66-43.47
		c-28.22-19.39-56.53-38.68-84.13-58.92c-20.49-15.03-40.11-31.28-59.74-47.43c-13.87-11.41-27.39-23.27-40.57-35.47
		c-16.59-15.37-33.15-30.83-48.82-47.13c-13.67-14.22-26.09-29.66-39.06-44.55c-16.65-19.12-31.25-39.75-44.95-61.06
		c-21.72-33.79-38.71-69.76-49.8-108.37c-6.34-22.08-10.81-44.59-11.59-67.66c-0.43-12.8-1.49-25.66-0.74-38.41
		c2.57-43.66,12.48-85.28,37.56-122.02c13.98-20.47,31.78-36.99,53.28-49.62c16.97-9.97,34.86-17.42,53.85-22.3
		c20.82-5.35,42.06-8,63.46-6.35c30.43,2.35,58.3,12.27,82.94,30.8c24.82,18.66,43.48,42.51,59.22,68.91
		c14.55,24.41,27.26,49.76,37.63,76.21c11.21,28.61,22.34,57.26,32.78,86.15c8.59,23.76,16.06,47.92,24.15,71.86
		c1.96,5.8,4.42,11.44,6.64,17.15C557.33,502.16,557.97,502.12,558.6,502.08z"/>
</g>
</svg>
