<?xml version="1.0" encoding="utf-8"?>
<!-- Generator: Adobe Illustrator 26.0.1, SVG Export Plug-In . SVG Version: 6.00 Build 0)  -->
<svg version="1.1" id="Layer_1" xmlns="http://www.w3.org/2000/svg" xmlns:xlink="http://www.w3.org/1999/xlink" x="0px" y="0px"
	 viewBox="0 0 1920 1080" style="enable-background:new 0 0 1920 1080;" xml:space="preserve">
<style type="text/css">
	.st0{display:none;}
	.st1{fill:#FEFEFE;}
	.st2{display:none;fill:#010101;}
</style>
<g>
	<path class="st0" d="M0,1080C0,720,0,360,0,0c640,0,1280,0,1920,0c0,360,0,720,0,1080C1280,1080,640,1080,0,1080z M959.8,341.4
		c-1.8-3.6-3.2-6.7-4.9-9.6c-8.8-14.6-17-29.7-26.6-43.7c-10.8-15.8-24-29.7-38.6-42.2c-13.6-11.6-27.9-22.2-43.5-31.1
		c-20.4-11.7-41.5-21.4-64.9-25.1c-12.3-2-24.6-4.1-37-4.4c-10.2-0.2-20.5,2.1-30.8,3.6c-26.2,3.7-49.5,14.9-71,29.5
		c-20.7,14.1-38.3,31.9-52.3,52.7c-7.8,11.5-14.5,23.8-20.3,36.3c-6.1,13.1-11.4,26.8-15.2,40.8c-3.8,13.8-6.1,28.2-7.5,42.5
		c-1.4,14-1.6,28.2-0.8,42.3c0.8,12.8,3.1,25.6,5.8,38.2c3.2,15.1,6.9,30.2,11.7,44.9c4.1,12.7,10.1,24.7,15.1,37.1
		c7.6,18.8,17.5,36.5,28.1,53.8c12.4,20.3,26.1,39.6,41.2,58c19,23.1,38.8,45.3,60.9,65.5c19.2,17.6,38.3,35.3,58.2,52
		c17.6,14.8,35.8,29.1,54.5,42.5c23.8,16.9,48.2,33.1,72.8,48.8c20.3,13,41.3,24.9,61.9,37.3c2.4,1.5,4,2.1,7,0.3
		c22-13.6,44.3-26.7,66.3-40.4c16.8-10.4,33.3-21.2,49.5-32.4c16.4-11.4,32.4-23.3,48.1-35.5c14.6-11.3,28.9-22.9,42.9-35
		c13.7-11.9,26.9-24.3,39.9-36.9c13.6-13.2,27.4-26.3,39.8-40.5c14.6-16.7,27.9-34.5,41.6-51.9c16-20.3,28.8-42.6,40.3-65.7
		c8.1-16.3,15.1-33.3,21.6-50.4c4.7-12.5,8.2-25.5,11.5-38.4c2.9-11.6,5.2-23.3,7-35.1c1.6-10.9,3-21.9,2.8-32.9
		c-0.3-14.3-1.7-28.7-3.9-42.8c-1.9-12.1-4.9-24.1-8.5-35.9c-3-10-6.8-19.8-11.5-29.1c-6.8-13.5-14.2-26.8-22.5-39.5
		c-5.5-8.4-12.5-16.1-19.7-23.2c-9-8.9-18.1-17.8-28.4-25.1c-11-7.8-23.1-14.3-35.3-20.3c-17.3-8.5-36.1-12.8-55.2-14.4
		c-27.5-2.3-54.3,1.5-80.2,11.3c-33.8,12.9-63.5,32.3-89.2,57.7c-10.4,10.2-20.4,21-29,32.8c-8.6,11.7-15.1,24.8-22.5,37.3
		C965.8,330.6,963,335.8,959.8,341.4z"/>
	<path class="st1" d="M959.8,341.4c3.1-5.6,6-10.8,9-16c7.4-12.5,14-25.7,22.5-37.3c8.6-11.7,18.6-22.5,29-32.8
		c25.7-25.3,55.4-44.8,89.2-57.7c25.9-9.9,52.7-13.6,80.2-11.3c19.1,1.6,37.9,5.9,55.2,14.4c12.2,6,24.2,12.5,35.3,20.3
		c10.3,7.3,19.4,16.2,28.4,25.1c7.2,7.1,14.2,14.8,19.7,23.2c8.3,12.7,15.7,26,22.5,39.5c4.7,9.3,8.5,19.2,11.5,29.1
		c3.6,11.8,6.6,23.8,8.5,35.9c2.2,14.1,3.5,28.5,3.9,42.8c0.2,10.9-1.2,22-2.8,32.9c-1.7,11.8-4.1,23.6-7,35.1
		c-3.3,12.9-6.7,25.9-11.5,38.4c-6.5,17.1-13.5,34.1-21.6,50.4c-11.5,23-24.3,45.4-40.3,65.7c-13.7,17.4-27,35.2-41.6,51.9
		c-12.4,14.2-26.2,27.3-39.8,40.5c-13,12.6-26.2,25-39.9,36.9c-13.9,12.1-28.3,23.7-42.9,35c-15.8,12.2-31.8,24.1-48.1,35.5
		c-16.2,11.3-32.8,22-49.5,32.4c-21.9,13.7-44.3,26.7-66.3,40.4c-3,1.8-4.6,1.2-7-0.3c-20.6-12.5-41.6-24.3-61.9-37.3
		c-24.6-15.7-49-31.9-72.8-48.8c-18.8-13.4-36.9-27.6-54.5-42.5c-19.9-16.8-39-34.4-58.2-52c-22-20.2-41.9-42.4-60.9-65.5
		c-15.1-18.4-28.8-37.7-41.2-58c-10.6-17.3-20.4-34.9-28.1-53.8c-5-12.4-11-24.5-15.1-37.1c-4.8-14.7-8.5-29.8-11.7-44.9
		c-2.7-12.6-5-25.4-5.8-38.2c-0.8-14-0.6-28.3,0.8-42.3c1.4-14.3,3.7-28.7,7.5-42.5c3.8-13.9,9.1-27.6,15.2-40.8
		c5.8-12.6,12.6-24.9,20.3-36.3c14-20.8,31.6-38.6,52.3-52.7c21.5-14.7,44.8-25.8,71-29.5c10.2-1.5,20.5-3.8,30.8-3.6
		c12.4,0.2,24.7,2.4,37,4.4c23.4,3.7,44.5,13.4,64.9,25.1c15.6,8.9,29.9,19.5,43.5,31.1c14.6,12.5,27.8,26.4,38.6,42.2
		c9.6,14,17.9,29.1,26.6,43.7C956.7,334.7,958,337.8,959.8,341.4z M960.2,456c-1.2-1.5-1.7-2-2-2.5c-14.8-25-29-50.4-44.5-75
		c-13-20.7-27-40.7-41.4-60.5c-12.1-16.8-27-31.2-44.2-42.7c-23.9-16-49.6-26.9-79.1-28.6c-14.2-0.8-27.9,0.7-41.3,4.3
		c-31.9,8.6-56.7,27.7-76.2,53.9c-14.2,19-23.8,40.1-29.6,63.2c-3.6,14.3-5.4,28.8-5.6,43.4c-0.2,16.4,1.9,32.7,5.5,48.9
		c3.6,16,7.6,31.9,13.6,47c6.3,15.8,13.4,31.5,21.5,46.4c8.1,14.8,17.4,29.1,27.2,42.9c11.4,16,23.2,31.8,36,46.6
		c12.7,14.7,26.7,28.4,40.7,42c12.1,11.8,24.6,23.2,37.4,34.2c13.1,11.4,26.6,22.3,40.2,33.1c10.2,8.1,20.7,15.9,31.2,23.7
		c7.1,5.3,14.3,10.3,21.4,15.5c11.9,8.7,23.6,17.5,35.5,26c14.8,10.5,30,20.6,44.9,31c8.5,5.9,8.4,6,17.3-0.5c2-1.4,4.3-2.4,6.3-3.8
		c14.5-10.1,29-20,43.4-30.3c18.9-13.5,38-26.7,56.2-40.9c26-20.3,51.7-40.9,76.7-62.3c17.4-14.9,33.7-31,49.8-47.3
		c12.3-12.4,23.9-25.5,34.9-39.1c20.9-25.9,39.3-53.4,54.1-83.3c12.9-26,22.9-53.2,28.7-81.6c3.1-15,4.1-30.6,5.1-46
		c0.5-7.5-0.6-15.1-1.8-22.6c-1.7-10.8-3.3-21.8-6.4-32.2c-6.4-21.7-16.9-41.6-31-59.3c-8.9-11.2-19.2-21-31-29.1
		c-11.6-7.9-24.1-14.2-37.6-18.4c-14.6-4.6-29.7-6.8-44.7-5.6c-11.5,0.9-23,3.8-34.3,6.8c-15.5,4.2-29.7,11.6-42.9,20.4
		c-20.2,13.4-36.5,30.9-51.1,50.1c-9.2,12.2-17.8,24.9-26,37.8c-12.1,19-23.8,38.3-35.4,57.6C974.5,430.9,967.7,443.1,960.2,456z"/>
	<path class="st2" d="M960.2,456c7.5-12.9,14.3-25,21.5-37c11.6-19.3,23.3-38.6,35.4-57.6c8.2-12.9,16.8-25.6,26-37.8
		c14.5-19.2,30.9-36.7,51.1-50.1c13.3-8.8,27.5-16.2,42.9-20.4c11.2-3,22.7-5.9,34.3-6.8c15.1-1.2,30.1,1,44.7,5.6
		c13.5,4.2,26,10.5,37.6,18.4c11.8,8,22.1,17.9,31,29.1c14.2,17.8,24.6,37.6,31,59.3c3.1,10.5,4.7,21.4,6.4,32.2
		c1.2,7.5,2.3,15.1,1.8,22.6c-1,15.4-2,30.9-5.1,46c-5.8,28.4-15.8,55.5-28.7,81.6c-14.8,29.9-33.2,57.4-54.1,83.3
		c-11,13.6-22.6,26.7-34.9,39.1c-16.1,16.3-32.5,32.4-49.8,47.3c-25,21.4-50.7,42.1-76.7,62.3c-18.3,14.3-37.4,27.4-56.2,40.9
		c-14.3,10.3-28.9,20.2-43.4,30.3c-2,1.4-4.3,2.3-6.3,3.8c-8.9,6.5-8.8,6.5-17.3,0.5c-14.9-10.4-30-20.5-44.9-31
		c-12-8.5-23.7-17.4-35.5-26c-7.1-5.2-14.4-10.2-21.4-15.5c-10.5-7.8-21-15.6-31.2-23.7c-13.6-10.8-27.1-21.7-40.2-33.1
		c-12.8-11.1-25.3-22.4-37.4-34.2c-13.9-13.6-27.9-27.3-40.7-42c-12.8-14.8-24.7-30.6-36-46.6c-9.8-13.8-19.1-28.1-27.2-42.9
		c-8.2-15-15.2-30.6-21.5-46.4c-6.1-15.1-10-31-13.6-47c-3.6-16.2-5.7-32.4-5.5-48.9c0.2-14.6,2-29.1,5.6-43.4
		c5.8-23.1,15.4-44.2,29.6-63.2c19.6-26.2,44.4-45.3,76.2-53.9c13.4-3.6,27.1-5.1,41.3-4.3c29.4,1.7,55.2,12.6,79.1,28.6
		c17.2,11.5,32,26,44.2,42.7c14.3,19.8,28.4,39.8,41.4,60.5c15.5,24.6,29.7,50,44.5,75C958.5,454,959,454.5,960.2,456z"/>
</g>
</svg>
