<?xml version="1.0" encoding="utf-8"?>
<!-- Generator: Adobe Illustrator 27.3.1, SVG Export Plug-In . SVG Version: 6.00 Build 0)  -->
<svg version="1.1" id="Layer_1" xmlns="http://www.w3.org/2000/svg" xmlns:xlink="http://www.w3.org/1999/xlink" x="0px" y="0px"
	 viewBox="0 0 1115 1080" style="enable-background:new 0 0 1115 1080;" xml:space="preserve">
<style type="text/css">
	.st0{display:none;fill:#FAF9F8;}
	.st1{fill:#EE1C45;}
</style>
<g>
	<path class="st0" d="M1115,1080c-371.64,0-743.29,0-1115,0C0,720.05,0,360.09,0,0c371.62,0,743.31,0,1115,0
		C1115,359.98,1115,719.99,1115,1080z M12.94,410.15c0.27,0.01,0.53,0.02,0.8,0.03c1.41,12.94,1.96,26.04,4.43,38.77
		c4.32,22.32,9.15,44.58,15.03,66.53c4.44,16.55,10.25,32.81,16.5,48.78c17.11,43.69,39.67,84.5,66.97,122.66
		c8.89,12.43,17.8,24.9,27.47,36.73c26.15,31.99,53.94,62.5,83.68,91.24c37.14,35.89,75.83,69.98,116.43,101.91
		c46.39,36.48,94.74,70.16,145.29,100.63c18.7,11.28,37.76,21.96,56.46,33.24c7.69,4.64,14.81,3.95,22.14-0.24
		c17.72-10.14,35.68-19.88,53.11-30.49c125.02-76.09,237.81-166.96,333.96-277.74c29.09-33.51,54.83-69.51,76.66-108.2
		c25.69-45.53,44.75-93.59,56.62-144.63c6.38-27.44,10.25-55.13,12.38-83.1c0.9-11.78,0.52-23.7,0.04-35.53
		c-0.61-15.31-1.4-30.64-3.05-45.87c-1.43-13.25-3.57-26.5-6.43-39.52c-6.07-27.65-15.53-54.18-28.43-79.44
		c-35.96-70.43-92.95-115.27-168.11-137.82c-19.55-5.87-39.67-9.32-60.02-9.92c-15.04-0.44-30.23,0.38-45.18,2.11
		c-11.5,1.33-22.87,4.47-34.06,7.65c-24.87,7.06-47.73,18.59-69.23,32.86c-37.13,24.65-66.37,56.88-88.25,95.38
		c-13.34,23.48-24.2,48.37-36.28,72.57c-0.97,1.94-2.76,3.47-4.17,5.19c-1.58-1.72-3.66-3.2-4.65-5.21
		c-10.26-21.03-19.3-42.72-30.67-63.12c-37.41-67.11-90.44-115.9-165.49-138.36c-18.24-5.46-36.81-8.67-55.63-9.11
		c-15.78-0.37-31.81,0.46-47.4,2.88c-61.92,9.62-115.2,36.6-158.46,82.25c-33.18,35.02-53.84,77.22-67.26,123.01
		c-4.95,16.9-8.04,34.44-10.74,51.89c-2.39,15.43-3.6,31.09-4.33,46.7C12.38,379.93,12.94,395.05,12.94,410.15z"/>
	<path class="st1" d="M12.94,410.15c0-15.1-0.56-30.22,0.15-45.28c0.74-15.61,1.94-31.27,4.33-46.7
		c2.7-17.44,5.79-34.98,10.74-51.89c13.42-45.8,34.08-88,67.26-123.01c43.25-45.65,96.54-72.63,158.46-82.25
		c15.59-2.42,31.62-3.25,47.4-2.88c18.82,0.44,37.39,3.65,55.63,9.11C431.96,89.7,484.99,138.49,522.4,205.6
		c11.37,20.4,20.41,42.09,30.67,63.12c0.98,2.01,3.07,3.49,4.65,5.21c1.41-1.72,3.2-3.25,4.17-5.19
		c12.08-24.2,22.93-49.09,36.28-72.57c21.88-38.49,51.12-70.73,88.25-95.38c21.5-14.27,44.35-25.79,69.23-32.86
		c11.19-3.18,22.56-6.32,34.06-7.65c14.95-1.73,30.14-2.55,45.18-2.11c20.35,0.6,40.47,4.06,60.02,9.92
		c75.17,22.55,132.15,67.39,168.11,137.82c12.9,25.25,22.36,51.78,28.43,79.44c2.86,13.02,5,26.26,6.43,39.52
		c1.65,15.22,2.44,30.56,3.05,45.87c0.47,11.83,0.85,23.75-0.04,35.53c-2.13,27.97-6,55.66-12.38,83.1
		c-11.87,51.04-30.93,99.1-56.62,144.63c-21.83,38.69-47.57,74.69-76.66,108.2c-96.15,110.79-208.94,201.65-333.96,277.74
		c-17.43,10.61-35.39,20.35-53.11,30.49c-7.33,4.19-14.46,4.88-22.14,0.24c-18.7-11.28-37.76-21.96-56.46-33.24
		c-50.55-30.48-98.9-64.15-145.29-100.63c-40.6-31.93-79.29-66.02-116.43-101.91c-29.74-28.74-57.53-59.25-83.68-91.24
		c-9.67-11.82-18.57-24.29-27.47-36.73c-27.3-38.16-49.86-78.97-66.97-122.66c-6.26-15.97-12.07-32.23-16.5-48.78
		c-5.88-21.95-10.71-44.21-15.03-66.53c-2.46-12.73-3.01-25.83-4.43-38.77C13.47,410.17,13.2,410.16,12.94,410.15z M1042.04,375.41
		c-2.04-20.53-3.25-40.06-6.15-59.34c-2.15-14.3-6.07-28.4-9.96-42.38c-9.44-33.87-25.9-64.08-50.36-89.37
		c-38.52-39.85-86.09-61.04-141.14-65.24c-11.38-0.87-23.04-0.35-34.37,1.13c-11.11,1.45-22.46,2.57-32.87,7.86
		c-6.11,3.11-13.26,4.2-19.32,7.39c-5.93,3.12-11,7.83-16.55,11.71c-27.91,19.54-50.23,44.54-68.78,72.73
		c-16.16,24.56-30.81,50.1-46.01,75.28c-3.26,5.4-6.05,11.07-9,16.66c-3.03,5.73-5.99,11.5-8.95,17.27
		c-2.88,5.61-5.73,11.22-8.55,16.86c-2.89,5.78-5.94,11.5-8.54,17.41c-2.34,5.33-5.55,10.17-7.81,15.58
		c-3.2,7.65-7.27,14.94-11.21,22.26c-3.05,5.65-7.1,5.63-10.09-0.1c-5-9.58-9.81-19.25-14.56-28.96
		c-24.1-49.25-48.88-98.12-79.44-143.79c-17.85-26.67-37.63-51.67-62.69-72.09c-26.68-21.74-56.88-35.04-91.38-37.22
		c-23.46-1.48-46.63,1.03-69.24,7.9c-62.33,18.92-108.16,56.96-135.14,116.74c-17.01,37.68-24.52,77.47-25.65,118.61
		c-0.71,25.73,0.32,51.41,4.96,76.72c3.84,20.95,8.34,41.85,14,62.37c6.58,23.84,15.55,46.89,26.38,69.25
		c24.48,50.55,56.59,95.88,93.06,138.31c38.46,44.75,80.81,85.61,125.34,124.24c51.4,44.59,105.7,85.31,163.14,121.82
		c17.68,11.24,35.27,22.61,52.87,33.97c2.82,1.82,5.2,1.29,7.76-0.61c4.13-3.08,8.25-6.22,12.66-8.85
		c81.42-48.72,157.48-104.68,227.62-168.62c51.83-47.24,100.5-97.4,141.71-154.38c34.32-47.45,61.84-98.42,77.92-154.95
		c5.65-19.84,9.93-40.19,13.15-60.58C1038.29,418.98,1039.78,396.69,1042.04,375.41z"/>
	<path class="st0" d="M1042.04,375.41c-2.26,21.28-3.75,43.57-7.22,65.55c-3.22,20.39-7.5,40.73-13.15,60.58
		c-16.08,56.53-43.6,107.5-77.92,154.95c-41.21,56.98-89.88,107.14-141.71,154.38c-70.14,63.94-146.19,119.9-227.62,168.62
		c-4.41,2.64-8.53,5.78-12.66,8.85c-2.56,1.91-4.94,2.43-7.76,0.61c-17.6-11.35-35.19-22.73-52.87-33.97
		C443.69,918.48,389.39,877.76,338,833.17c-44.53-38.63-86.87-79.49-125.34-124.24c-36.47-42.42-68.58-87.75-93.06-138.31
		c-10.83-22.36-19.8-45.41-26.38-69.25c-5.66-20.52-10.16-41.42-14-62.37c-4.64-25.31-5.67-51-4.96-76.72
		c1.13-41.14,8.64-80.93,25.65-118.61c26.98-59.77,72.81-97.82,135.14-116.74c22.61-6.86,45.78-9.38,69.24-7.9
		c34.5,2.18,64.7,15.48,91.38,37.22c25.06,20.42,44.84,45.42,62.69,72.09c30.57,45.67,55.34,94.55,79.44,143.79
		c4.75,9.7,9.56,19.38,14.56,28.96c2.99,5.73,7.05,5.76,10.09,0.1c3.94-7.32,8.01-14.61,11.21-22.26
		c2.26-5.41,5.47-10.25,7.81-15.58c2.6-5.91,5.65-11.63,8.54-17.41c2.82-5.63,5.68-11.25,8.55-16.86
		c2.96-5.77,5.92-11.53,8.95-17.27c2.95-5.58,5.74-11.26,9-16.66c15.2-25.18,29.86-50.73,46.01-75.28
		c18.55-28.19,40.87-53.2,68.78-72.73c5.54-3.88,10.62-8.59,16.55-11.71c6.06-3.19,13.2-4.28,19.32-7.39
		c10.41-5.29,21.76-6.41,32.87-7.86c11.32-1.48,22.99-2,34.37-1.13c55.05,4.2,102.62,25.39,141.14,65.24
		c24.46,25.3,40.92,55.5,50.36,89.37c3.9,13.98,7.81,28.07,9.96,42.38C1038.79,335.35,1040,354.88,1042.04,375.41z"/>
</g>
</svg>
