<?xml version="1.0" encoding="utf-8"?>
<!-- Generator: Adobe Illustrator 26.0.1, SVG Export Plug-In . SVG Version: 6.00 Build 0)  -->
<svg version="1.1" id="Layer_1" xmlns="http://www.w3.org/2000/svg" xmlns:xlink="http://www.w3.org/1999/xlink" x="0px" y="0px"
	 viewBox="0 0 612 792" style="enable-background:new 0 0 612 792;" xml:space="preserve">
<style type="text/css">
	.st0{display:none;fill:#010000;}
	.st1{fill:#FEFEFE;}
	.st2{fill:#E51206;}
	.st3{fill:#A00501;}
</style>
<g>
	<path class="st0" d="M0,651.5c0-170.7,0-341.4,0-512.1c203.8,0,407.5,0,611.3,0c0,170.7,0,341.4,0,512.1
		C407.5,651.5,203.8,651.5,0,651.5z M305.5,232.3c-2.9-8.4-8.4-14.5-14.4-20.2c-15-14.2-31.9-25.5-51.8-31.9
		c-8.8-2.8-17.7-4.5-26.8-4.7c-5.1-0.1-10.3,0-15.3,0.5c-5.7,0.6-11.4,1.3-16.9,2.7c-10.2,2.6-19.9,6.6-29.2,11.5
		c-11.2,6-21.5,13.4-30.4,22.4c-8.4,8.6-15.2,18.4-20.4,29.4c-6.4,13.4-11,27.4-13.7,42.1c-1.3,7.1-2.6,14.2-3,21.3
		c-0.4,7.4-0.2,15,0.5,22.4c0.6,7,1.9,13.9,3.4,20.7c2.9,13.2,7.3,25.9,12.7,38.3c8,18.3,18.2,35.2,30.2,51.1
		c14.1,18.7,30.4,35.6,47.7,51.3c15.9,14.4,32.6,28,50,40.7c21.6,15.8,44.2,29.8,68.1,42c6.4,3.3,12.1,4.2,18.5,0.2
		c3.9-2.5,8.3-4.3,12.4-6.5c18.5-9.8,36.1-21.2,53.1-33.4c16.6-12,32.6-24.8,47.9-38.4c14.8-13.1,28.8-27,41.7-42
		c13.3-15.5,25-32.2,34.4-50.3c5.4-10.4,10-21.2,13.9-32.4c4.9-13.9,7.9-28.1,9.2-42.7c0.6-6,0.3-12.2,0-18.3
		c-0.3-6.1-1.2-12.1-1.8-18.2c-0.9-9.1-3.3-17.9-6-26.6c-3.4-10.8-7.9-21.2-13.7-31c-6.8-11.3-15.5-20.9-25.7-29.1
		c-10.4-8.4-22.1-14.8-34.6-19.8c-7.5-3-15.2-5.2-23.1-6.4c-6.2-1-12.5-1.5-18.7-1.8c-3.3-0.2-6.7,0.4-10,0.8
		c-5.5,0.8-11.1,1.3-16.5,2.7c-14.7,3.9-28.2,10.6-40.4,19.8C324.3,207.7,312.2,217.2,305.5,232.3z"/>
	<path class="st1" d="M0,651.5c203.8,0,407.5,0,611.3,0c-0.1,0.2-0.1,0.4-0.2,0.5c-0.6,0-1.3,0-1.9,0c-202.3,0-404.7,0-607,0
		C1.4,652,0.7,651.7,0,651.5z"/>
	<path class="st2" d="M305.5,232.3c6.7-15.1,18.8-24.6,31.1-33.8c12.2-9.1,25.7-15.8,40.4-19.8c5.4-1.4,11-2,16.5-2.7
		c3.3-0.5,6.7-1,10-0.8c6.3,0.3,12.5,0.8,18.7,1.8c7.9,1.2,15.6,3.5,23.1,6.4c12.5,5,24.1,11.4,34.6,19.8
		c10.2,8.2,18.9,17.8,25.7,29.1c5.9,9.8,10.3,20.2,13.7,31c2.7,8.7,5.1,17.5,6,26.6c0.6,6.1,1.5,12.1,1.8,18.2
		c0.3,6.1,0.5,12.2,0,18.3c-1.3,14.6-4.3,28.8-9.2,42.7c-3.9,11.1-8.5,21.9-13.9,32.4c-9.5,18.1-21.1,34.8-34.4,50.3
		c-12.9,15-26.9,28.9-41.7,42c-15.3,13.6-31.3,26.4-47.9,38.4c-17,12.3-34.5,23.6-53.1,33.4c-4.1,2.2-8.5,4-12.4,6.5
		c-6.3,4-12.1,3.1-18.5-0.2c-23.8-12.2-46.5-26.2-68.1-42c-17.3-12.7-34-26.3-50-40.7c-17.4-15.7-33.6-32.6-47.7-51.3
		c-12-15.9-22.2-32.8-30.2-51.1c-5.4-12.4-9.8-25.1-12.7-38.3c-1.5-6.8-2.8-13.8-3.4-20.7c-0.7-7.4-0.9-15-0.5-22.4
		c0.4-7.1,1.7-14.2,3-21.3c2.6-14.6,7.2-28.6,13.7-42.1c5.2-10.9,12-20.8,20.4-29.4c8.9-9,19.1-16.4,30.4-22.4c9.3-5,19-9,29.2-11.5
		c5.5-1.4,11.2-2.1,16.9-2.7c5.1-0.5,10.2-0.6,15.3-0.5c9.2,0.2,18.1,1.9,26.8,4.7c19.9,6.3,36.8,17.7,51.8,31.9
		C297.1,217.7,302.6,223.9,305.5,232.3z M305.8,546.6c-2-0.7-4-1.5-6-2.2c-0.1,0.3-0.2,0.5-0.3,0.8c2.2,0.7,4.4,1.5,6.6,2.2
		c7.2-3.5,14.5-7,21.6-10.6c5.6-2.8,11.4-5.2,16.5-8.8c10.5-7.3,20.6-15.2,30.7-23c16.4-12.5,32.4-25.5,47.4-39.7
		c12.7-12,24.7-24.6,35.5-38.4c9.4-12,18.3-24.3,25.1-38c4.1-8.4,7.7-17,11.3-25.7c1.9-4.7,3.6-9.7,4.8-14.6
		c1.5-6.4,2.6-12.9,3.5-19.3c1.1-7.7,2-15.3,1-23.1c-0.9-6.5-1.4-13.2-2.8-19.6c-2.1-10.1-5.3-19.9-9.5-29.3
		c-4.1-9.1-9.5-17.5-16.5-24.6c-13-13.2-28.8-22-46.2-27.8c-9.2-3.1-18.8-4.5-28.5-3.4c-5,0.6-10,1.1-14.8,2.4
		c-13.1,3.4-25,9.7-36,17.4c-7.9,5.5-15.2,11.8-21.5,19.2c-9,10.6-15.3,22.8-21,35.3c-0.4,0.9-0.6,2-0.6,3c0,7.8,0,15.6,0,23.5
		c0,74,0,148.1,0,222.1C306,531.8,305.9,539.2,305.8,546.6z M297.5,543.6c0,0.1,0,0.1,0,0.2c0,0,0.1,0,0.2,0c0-0.1,0-0.2-0.1-0.3
		C297.6,543.5,297.5,543.6,297.5,543.6z"/>
	<path class="st0" d="M305.8,546.6c0.1-7.4,0.2-14.8,0.2-22.3c0-74,0-148.1,0-222.1c0-7.8,0-15.6,0-23.5c0-1,0.2-2.1,0.6-3
		c5.7-12.5,12-24.7,21-35.3c6.3-7.4,13.6-13.7,21.5-19.2c11.1-7.7,22.9-14,36-17.4c4.8-1.3,9.9-1.8,14.8-2.4
		c9.7-1.1,19.3,0.3,28.5,3.4c17.5,5.8,33.2,14.6,46.2,27.8c7,7.1,12.4,15.5,16.5,24.6c4.3,9.4,7.4,19.2,9.5,29.3
		c1.3,6.5,1.9,13.1,2.8,19.6c1.1,7.8,0.1,15.5-1,23.1c-1,6.5-2,13-3.5,19.3c-1.2,5-2.9,9.9-4.8,14.6c-3.5,8.6-7.1,17.3-11.3,25.7
		c-6.8,13.7-15.6,26-25.1,38c-10.8,13.7-22.9,26.4-35.5,38.4c-15,14.2-31,27.2-47.4,39.7c-10.2,7.8-20.3,15.6-30.7,23
		c-5.1,3.5-10.9,6-16.5,8.8c-7.2,3.6-14.4,7.1-21.6,10.6C306,547.1,305.9,546.9,305.8,546.6z"/>
	<path class="st3" d="M305.8,546.6c0.1,0.2,0.2,0.5,0.3,0.7c-2.2-0.7-4.4-1.5-6.6-2.2c0.1-0.3,0.2-0.5,0.3-0.8
		C301.8,545.1,303.8,545.9,305.8,546.6z"/>
	<path class="st3" d="M297.5,543.6c0.1,0,0.1,0,0.2-0.1c0,0.1,0,0.2,0.1,0.3c-0.1,0-0.1,0-0.2,0
		C297.5,543.7,297.5,543.6,297.5,543.6z"/>
</g>
</svg>
