<?xml version="1.0" encoding="utf-8"?>
<!-- Generator: Adobe Illustrator 26.0.1, SVG Export Plug-In . SVG Version: 6.00 Build 0)  -->
<svg version="1.1" id="Layer_1" xmlns="http://www.w3.org/2000/svg" xmlns:xlink="http://www.w3.org/1999/xlink" x="0px" y="0px"
	 viewBox="0 0 612 792" style="enable-background:new 0 0 612 792;" xml:space="preserve">
<style type="text/css">
	.st0{display:none;fill:#010101;}
	.st1{fill:#FEFEFE;}
	.st2{fill:#898989;}
	.st3{fill:#8C8C8B;}
	.st4{fill:#8B8B8B;}
</style>
<g>
	<path class="st0" d="M0,651.5c0-170.7,0-341.4,0-512.1c203.8,0,407.5,0,611.3,0c0,170.7,0,341.4,0,512.1
		C407.5,651.5,203.8,651.5,0,651.5z M524.3,598.8c-0.8-4.3-1.6-8.2-2.3-12c-6.9-35.3-13.7-70.5-20.5-105.8c-0.3-1.5-0.1-3.3,0.3-4.8
		c2.6-8.7,5.4-17.3,8-26c7.3-25,11.8-50.4,10.9-76.6c-0.4-10.9-1.5-21.7-3.4-32.5c-3.8-20.8-10.5-40.6-20.2-59.4
		c-9-17.5-20.2-33.5-33.6-48c-13.6-14.7-28.9-27.4-46.1-37.8c-25.9-15.7-53.8-25.6-83.9-29.6c-21-2.8-42-2.6-62.8,0.8
		c-18.9,3-37.1,8.5-54.5,16.5c-20.8,9.5-39.7,21.9-56.6,37.3c-16.4,14.9-30.1,32-41.2,51.1c-7.8,13.4-14.1,27.6-18.8,42.3
		c-4.2,13.2-7,26.7-8.7,40.4c-2.4,20.2-1.9,40.4,1.4,60.4c3.4,20.7,9.8,40.5,19,59.3c8.8,17.9,19.8,34.3,33.1,49.2
		c15,16.8,32.3,30.8,51.8,42.3c13.9,8.2,28.5,14.7,43.9,19.5c20.7,6.5,42,9.9,63.7,10c17.5,0.1,34.8-1.6,51.7-6
		c15.8-4.1,31.4-9.1,47.1-13.6c1.7-0.5,3.6-0.8,5.3-0.4c30.8,6.1,61.5,12.4,92.2,18.6C508,595.6,516,597.1,524.3,598.8z"/>
	<path class="st1" d="M0,651.5c203.8,0,407.5,0,611.3,0c-0.1,0.2-0.1,0.4-0.2,0.5c-0.6,0-1.3,0-1.9,0c-202.3,0-404.7,0-607,0
		C1.4,652,0.7,651.7,0,651.5z"/>
	<path class="st2" d="M524.3,598.8c-8.4-1.7-16.3-3.3-24.3-4.9c-30.7-6.2-61.5-12.5-92.2-18.6c-1.7-0.3-3.6,0-5.3,0.4
		c-15.7,4.5-31.3,9.6-47.1,13.6c-16.9,4.3-34.2,6.1-51.7,6c-21.7-0.1-43-3.5-63.7-10c-15.3-4.9-30-11.4-43.9-19.5
		c-19.4-11.4-36.7-25.5-51.8-42.3c-13.3-14.9-24.3-31.3-33.1-49.2c-9.3-18.8-15.6-38.6-19-59.3c-3.3-20-3.8-40.2-1.4-60.4
		c1.7-13.8,4.5-27.3,8.7-40.4c4.7-14.8,11-28.9,18.8-42.3c11.1-19.1,24.8-36.2,41.2-51.1c16.9-15.4,35.8-27.8,56.6-37.3
		c17.5-7.9,35.6-13.4,54.5-16.5c20.9-3.4,41.8-3.6,62.8-0.8c30.1,4,58,13.9,83.9,29.6c17.1,10.4,32.4,23,46.1,37.8
		c13.4,14.5,24.6,30.5,33.6,48c9.6,18.8,16.4,38.6,20.2,59.4c1.9,10.7,3,21.6,3.4,32.5c0.9,26.2-3.6,51.6-10.9,76.6
		c-2.6,8.7-5.4,17.3-8,26c-0.5,1.5-0.6,3.3-0.3,4.8c6.8,35.3,13.7,70.5,20.5,105.8C522.8,590.7,523.5,594.5,524.3,598.8z
		 M501.2,574.2c-0.1-0.9-0.2-1.5-0.3-2.1c-6.9-31.7-13.8-63.4-20.7-95.1c-0.3-1.5-0.2-3.3,0.3-4.8c7.9-23,15.5-46.1,18.6-70.4
		c2.3-17.9,1.8-35.6-1-53.3c-2.2-14.1-6.1-27.7-11.4-41c-10.7-26.5-26.3-49.6-47-69.3c-17.7-16.8-37.8-29.8-60.3-39.1
		c-23.1-9.5-47.3-14.4-72.3-14.6c-15.5-0.2-30.8,1.5-45.8,5c-22.6,5.2-43.7,14.2-63.1,26.9c-16.9,11.1-31.8,24.4-44.6,40.1
		c-13,16-23.3,33.6-30.8,52.8c-6.9,17.8-11.1,36.2-12.6,55.2c-1,12.7-0.7,25.4,0.8,38.1c2.1,18.4,6.8,36.2,14,53.2
		c8.8,20.8,20.8,39.5,36.1,56.1c16.2,17.6,34.9,31.8,56.2,42.6c18.2,9.2,37.4,15.4,57.5,18.5c13.4,2.1,26.9,2.8,40.4,2
		c13.2-0.8,26.3-2.7,39-6.3c15.1-4.3,30-9.3,45-13.9c1.2-0.4,2.5-0.6,3.6-0.4c25.6,5.2,51.2,10.4,76.9,15.7
		C486.8,571.3,493.9,572.7,501.2,574.2z"/>
	<path class="st0" d="M501.2,574.2c-7.3-1.5-14.4-2.9-21.5-4.3c-25.6-5.2-51.2-10.5-76.9-15.7c-1.1-0.2-2.5,0.1-3.6,0.4
		c-15,4.6-29.9,9.7-45,13.9c-12.7,3.6-25.8,5.5-39,6.3c-13.6,0.8-27,0.1-40.4-2c-20.1-3.1-39.4-9.3-57.5-18.5
		c-21.3-10.8-40-24.9-56.2-42.6c-15.3-16.7-27.3-35.4-36.1-56.1c-7.2-17-11.9-34.8-14-53.2c-1.4-12.7-1.8-25.4-0.8-38.1
		c1.5-19,5.7-37.4,12.6-55.2c7.5-19.2,17.7-36.8,30.8-52.8c12.8-15.7,27.7-29,44.6-40.1c19.5-12.7,40.5-21.6,63.1-26.9
		c15.1-3.5,30.4-5.1,45.8-5c25,0.3,49.2,5.1,72.3,14.6c22.5,9.3,42.7,22.3,60.3,39.1c20.7,19.7,36.3,42.8,47,69.3
		c5.3,13.2,9.2,26.9,11.4,41c2.8,17.7,3.2,35.5,1,53.3c-3.1,24.3-10.7,47.4-18.6,70.4c-0.5,1.5-0.6,3.3-0.3,4.8
		c6.8,31.7,13.8,63.4,20.7,95.1C501,572.7,501.1,573.3,501.2,574.2z M291.1,423.4C291.1,423.4,291.1,423.4,291.1,423.4
		c0,4.6-0.1,9.2,0,13.7c0.1,3.5,0.4,7.1,0.9,10.6c0.4,2.8,2.1,4,4.9,4.2c1.2,0.1,2.4,0.1,3.6,0c2.3-0.2,3.9-1.4,4.4-3.6
		c0.4-1.9,0.7-3.9,0.8-5.9c0.1-9.2,0.1-18.5,0.2-27.7c0.1-4.3,0.5-4.6,4.5-6c7.7-2.6,15.5-4.9,23-8.2c14.2-6.2,24.6-16.7,31-30.9
		c6.8-15,7.7-30.4,2.7-46c-4.9-15.4-14.4-27.4-28.4-35.7c-14.7-8.7-30.5-11.2-47.2-7.6c-13.1,2.8-24.5,8.8-33.6,18.8
		c-4.3,4.8-8.3,10-12.2,15.1c-4.5,6.1-3.3,8.9,4.2,10.5c3.6,0.8,6.6,0,8.8-3.1c1-1.4,2.1-2.7,3.1-4.2c9.7-13.8,22.5-22.4,39.6-23.8
		c15.4-1.2,28.8,3.6,39.6,14.6c10.5,10.6,15.4,23.6,14,38.6c-1.7,19.1-11.2,32.9-28.9,40.6c-6.3,2.8-13.2,4.4-19.8,6.5
		c-4.9,1.5-9.5,3.5-13.2,7.1c-1.4,1.4-2.1,2.8-2.1,4.8C291.1,411.7,291.1,417.5,291.1,423.4z M309,476.2c0-5.7-4.8-10.4-10.4-10.5
		c-5.8,0-10.6,4.8-10.6,10.5c0,5.8,4.8,10.6,10.6,10.6C304.2,486.9,309,482.1,309,476.2z"/>
	<path class="st3" d="M291.1,423.4c0-5.8,0-11.7,0-17.5c0-2,0.7-3.4,2.1-4.8c3.8-3.6,8.4-5.6,13.2-7.1c6.6-2.1,13.4-3.8,19.8-6.5
		c17.7-7.7,27.2-21.5,28.9-40.6c1.3-15-3.6-28-14-38.6c-10.8-10.9-24.2-15.8-39.6-14.6c-17.1,1.4-29.9,10-39.6,23.8
		c-1,1.4-2.1,2.8-3.1,4.2c-2.2,3.1-5.2,3.9-8.8,3.1c-7.5-1.6-8.7-4.5-4.2-10.5c3.9-5.2,7.8-10.3,12.2-15.1
		c9.1-10,20.5-15.9,33.6-18.8c16.7-3.6,32.5-1.1,47.2,7.6c14,8.3,23.5,20.4,28.4,35.7c5,15.5,4,31-2.7,46
		c-6.4,14.2-16.7,24.7-31,30.9c-7.4,3.3-15.3,5.6-23,8.2c-4,1.4-4.5,1.7-4.5,6c-0.1,9.2-0.1,18.5-0.2,27.7c0,2-0.3,3.9-0.8,5.9
		c-0.5,2.3-2.1,3.5-4.4,3.6c-1.2,0.1-2.4,0.1-3.6,0c-2.9-0.1-4.5-1.3-4.9-4.2c-0.5-3.5-0.8-7.1-0.9-10.6
		C290.9,432.5,291.1,427.9,291.1,423.4C291.1,423.4,291.1,423.4,291.1,423.4z"/>
	<path class="st4" d="M309,476.2c0,5.8-4.7,10.7-10.5,10.7c-5.8,0-10.6-4.8-10.6-10.6c0-5.8,4.8-10.6,10.6-10.5
		C304.2,465.8,309,470.6,309,476.2z"/>
</g>
</svg>
