<?xml version="1.0" encoding="utf-8"?>
<!-- Generator: Adobe Illustrator 26.0.1, SVG Export Plug-In . SVG Version: 6.00 Build 0)  -->
<svg version="1.1" id="Layer_1" xmlns="http://www.w3.org/2000/svg" xmlns:xlink="http://www.w3.org/1999/xlink" x="0px" y="0px"
	 viewBox="0 0 612 792" style="enable-background:new 0 0 612 792;" xml:space="preserve">
<style type="text/css">
	.st0{display:none;fill:#F1F1F1;}
	.st1{display:none;fill:#FEFEFE;}
	.st2{fill:#EF1A0A;}
	.st3{fill:#13161B;}
	.st4{display:none;fill:#EEEEEE;}
	.st5{display:none;fill:#EDEDED;}
	.st6{fill:#15181D;}
	.st7{display:none;fill:#E9E9E9;}
</style>
<g>
	<path class="st0" d="M1.5,666.5c0-182.2,0-364.3,0-546.5c203.3,0,406.7,0,610,0c0.2,0.2,0.3,0.3,0.5,0.5c0,182,0,364,0,546
		c-0.2,0.2-0.3,0.3-0.5,0.5c-203.2,0-406.4,0-609.6,0C1.8,666.8,1.6,666.6,1.5,666.5z M75.6,393.2C75.6,393.2,75.6,393.2,75.6,393.2
		c0,43.8,0,87.6,0,131.4c0,1.5,0.4,2.4,1.7,3.1c5.1,2.9,10.2,5.8,15.2,8.8c20.2,11.7,40.4,23.3,60.6,35c28.7,16.6,57.3,33.1,86,49.7
		c21.9,12.6,43.7,25.3,65.6,37.9c1.2,0.7,2.1,0.8,3.4,0c7.8-4.6,15.6-9.1,23.4-13.6c18.2-10.5,36.5-20.9,54.7-31.4
		c28.5-16.4,56.9-32.9,85.4-49.4c21.4-12.4,42.8-24.7,64.3-37.1c1.2-0.7,1.7-1.5,1.7-2.9c0-38.5,0-76.9,0-115.4
		c0-49.2,0-98.4,0-147.6c0-1.3-0.3-2.1-1.5-2.7c-5.8-3.3-11.6-6.7-17.4-10.1c-25.9-14.9-51.7-29.8-77.6-44.7
		c-17.9-10.3-35.9-20.6-53.8-31c-26.5-15.3-52.9-30.6-79.4-45.8c-0.7-0.4-1.9-0.4-2.6,0c-14,8-27.9,16.1-41.8,24.1
		c-16.6,9.6-33.2,19.1-49.8,28.7c-28.4,16.4-56.9,32.8-85.3,49.2c-16.7,9.6-33.3,19.3-50,28.9c-1.9,1.1-2.7,2.2-2.7,4.4
		C75.6,306.2,75.6,349.7,75.6,393.2z"/>
	<path class="st1" d="M612,120.5c-0.2-0.2-0.3-0.3-0.5-0.5C611.7,120.2,611.8,120.3,612,120.5z"/>
	<path class="st1" d="M1.5,666.5c0.2,0.2,0.3,0.3,0.5,0.5C1.8,666.8,1.6,666.6,1.5,666.5z"/>
	<path class="st1" d="M611.5,667c0.2-0.2,0.3-0.3,0.5-0.5C611.8,666.6,611.7,666.8,611.5,667z"/>
	<path class="st2" d="M75.6,393.2c0-43.5,0-87-0.1-130.5c0-2.2,0.8-3.3,2.7-4.4c16.7-9.5,33.4-19.2,50-28.9
		c28.4-16.4,56.9-32.8,85.3-49.2c16.6-9.6,33.2-19.1,49.8-28.7c13.9-8,27.9-16.1,41.8-24.1c0.7-0.4,1.9-0.4,2.6,0
		c26.5,15.2,52.9,30.5,79.4,45.8c17.9,10.3,35.9,20.7,53.8,31c25.9,14.9,51.8,29.8,77.6,44.7c5.8,3.3,11.5,6.8,17.4,10.1
		c1.2,0.7,1.5,1.5,1.5,2.7c0,49.2,0,98.4,0,147.6c0,38.5,0,76.9,0,115.4c0,1.4-0.4,2.2-1.7,2.9c-21.4,12.3-42.9,24.7-64.3,37.1
		c-28.5,16.4-56.9,32.9-85.4,49.4c-18.2,10.5-36.4,21-54.7,31.4c-7.8,4.5-15.6,9-23.4,13.6c-1.3,0.7-2.2,0.6-3.4,0
		c-21.9-12.7-43.7-25.3-65.6-37.9c-28.7-16.6-57.3-33.1-86-49.7c-20.2-11.7-40.4-23.3-60.6-35c-5.1-2.9-10.1-5.9-15.2-8.8
		c-1.3-0.7-1.7-1.6-1.7-3.1C75.6,480.8,75.6,437,75.6,393.2C75.6,393.2,75.6,393.2,75.6,393.2z M111.4,393.3c0,36.8,0,73.5,0,110.3
		c0,1.6,0.4,2.6,1.9,3.5c13.4,7.6,26.7,15.4,40,23.1c23.2,13.3,46.4,26.6,69.5,40c27.3,15.8,54.7,31.6,82,47.5
		c1.3,0.7,2.3,0.8,3.6,0c10.5-6.1,21.1-12.2,31.6-18.3c23.9-13.8,47.9-27.7,71.8-41.5c29.3-16.9,58.5-33.8,87.9-50.6
		c1.7-1,2.1-2,2.1-3.8c-0.1-20.8-0.1-41.5-0.1-62.3c0-52.8,0-105.6,0-158.4c0-1.4-0.4-2.2-1.7-2.9c-18.8-10.8-37.5-21.5-56.3-32.4
		c-19.1-11-38.1-22.1-57.1-33.1c-26.2-15.1-52.4-30.2-78.7-45.3c-0.7-0.4-2.1-0.4-2.9,0c-14,8-27.9,16-41.8,24
		c-23.6,13.6-47.2,27.3-70.8,40.9c-26.5,15.3-52.9,30.5-79.4,45.8c-1.3,0.7-1.7,1.5-1.7,2.9C111.4,319.5,111.4,356.4,111.4,393.3z"
		/>
	<path class="st0" d="M111.4,393.3c0-36.9,0-73.8,0-110.7c0-1.4,0.4-2.2,1.7-2.9c26.5-15.2,53-30.5,79.4-45.8
		c23.6-13.6,47.2-27.3,70.8-40.9c13.9-8,27.8-16.1,41.8-24c0.7-0.4,2.1-0.4,2.9,0c26.2,15,52.5,30.1,78.7,45.3
		c19.1,11,38.1,22.1,57.1,33.1c18.7,10.8,37.5,21.6,56.3,32.4c1.3,0.7,1.7,1.5,1.7,2.9c0,52.8,0,105.6,0,158.4
		c0,20.8,0,41.5,0.1,62.3c0,1.8-0.5,2.8-2.1,3.8c-29.3,16.8-58.6,33.7-87.9,50.6c-23.9,13.8-47.9,27.7-71.8,41.5
		c-10.5,6.1-21.1,12.1-31.6,18.3c-1.3,0.8-2.3,0.7-3.6,0c-27.3-15.8-54.6-31.7-82-47.5c-23.2-13.4-46.3-26.7-69.5-40
		c-13.3-7.7-26.6-15.4-40-23.1c-1.5-0.9-1.9-1.8-1.9-3.5C111.4,466.8,111.4,430,111.4,393.3z M372.9,278.8
		c-2.7-7.7-5.4-14.9-7.7-22.2c-0.6-1.9-1.2-2-2.9-1.4c-13,4.6-25.9,9-38.9,13.6c-17,6-34.1,12-51.1,18c-20.1,7-40.1,14.1-60.2,21
		c-6,2.1-11.8,5.4-18.6,4.8c-2.1-0.2-4.3,0.1-6.5,0.2c-2.7,0.1-4.1,1.1-4.7,3.8c-0.3,1.3-0.5,2.6-0.5,3.9c-0.1,5,0,10,0,15
		c0,41.4,0,82.8,0,124.1c0,4.7,0,9.4,0.1,14.1c0.1,2.3,1.4,3.7,3.7,3.9c2,0.2,4,0.6,6,0.6c15.8,0.1,31.6,0.1,47.5,0.1
		c28.6,0,57.1,0.1,85.7,0.1c24.2,0,48.3,0.1,72.5-0.1c7.1,0,14.2-0.4,21.2-0.8c2.2-0.1,3.4-1.5,3.5-3.8c0-0.8,0.1-1.5,0.1-2.3
		c0-15.2,0-30.4,0-45.6c0-2.6,0-5.2,0-8c3.9,0,7.5,0.1,11.2,0c4.3-0.1,4.1,1,4.1-4.3c0-12,0-23.9,0-35.9c0-5.2,0.7-4.3-4.4-4.4
		c-3.6-0.1-7.2,0-10.9,0c0-1.3,0-2.2,0-3.1c0-17.6-0.1-35.2-0.1-52.8c0-2.3-1.3-3.7-3.6-3.9c-2.7-0.2-5.4-0.5-8.1-0.5
		c-1.4,0-2.1-0.5-2.7-1.9c-3.7-9.4-7.6-18.7-11.4-28c-1.4-3.5-2.9-7.1-4.3-10.6C385.3,274.5,379.2,276.6,372.9,278.8z"/>
	<path class="st3" d="M372.9,278.8c6.3-2.2,12.4-4.3,18.8-6.6c1.5,3.6,2.9,7.1,4.3,10.6c3.8,9.3,7.7,18.6,11.4,28
		c0.6,1.4,1.3,1.8,2.7,1.9c2.7,0,5.4,0.3,8.1,0.5c2.3,0.2,3.6,1.6,3.6,3.9c0.1,17.6,0.1,35.2,0.1,52.8c0,0.9,0,1.8,0,3.1
		c3.7,0,7.3,0,10.9,0c5.1,0.1,4.4-0.8,4.4,4.4c0,12,0,23.9,0,35.9c0,5.2,0.2,4.2-4.1,4.3c-3.6,0.1-7.2,0-11.2,0c0,2.8,0,5.4,0,8
		c0,15.2,0,30.4,0,45.6c0,0.8-0.1,1.5-0.1,2.3c0,2.3-1.2,3.7-3.5,3.8c-7.1,0.4-14.2,0.8-21.2,0.8c-24.2,0.1-48.3,0.1-72.5,0.1
		c-28.6,0-57.1,0-85.7-0.1c-15.8,0-31.6,0-47.5-0.1c-2,0-4-0.4-6-0.6c-2.4-0.2-3.7-1.5-3.7-3.9c-0.1-4.7-0.1-9.4-0.1-14.1
		c0-41.4,0-82.8,0-124.1c0-5,0-10,0-15c0-1.3,0.2-2.6,0.5-3.9c0.6-2.6,2-3.7,4.7-3.8c2.2-0.1,4.3-0.4,6.5-0.2
		c6.8,0.6,12.5-2.7,18.6-4.8c20.1-6.9,40.2-14,60.2-21c17-6,34-12,51.1-18c13-4.5,25.9-9,38.9-13.6c1.6-0.6,2.3-0.5,2.9,1.4
		C367.5,263.9,370.2,271.2,372.9,278.8z M411.2,373c0-1,0-1.7,0-2.4c0-11,0-22.1,0-33.1c0-3.3,0-6.6-0.2-9.9
		c-0.1-2.1-1.4-3.4-3.5-3.6c-3.2-0.3-6.5-0.6-9.7-0.6c-22.8,0-45.6,0-68.4,0c-15.9,0-31.8,0-47.6,0c-18.7,0-37.5,0-56.2,0
		c-9.2,0-18.4,0-27.5,0.1c-2.8,0-4.4,1.2-4.8,3.9c-0.4,3-0.6,6.1-0.6,9.2c0,31.3-0.1,62.5,0,93.8c0,11,0.2,21.9,0.3,32.9
		c0,2,1.3,3.1,3.1,3.3c2.4,0.3,4.7,0.6,7.1,0.6c26.9,0.1,53.8,0.2,80.7,0.2c30.8,0,61.7,0,92.5-0.1c8.9,0,17.7-0.1,26.6-0.2
		c1.7,0,3.4-0.2,5.1-0.5c2.3-0.4,3.3-2.1,3.3-5.8c0-10,0-19.9,0-29.9c0-4.4,0-8.7,0-13.4c-1.2,0-2.1,0-3,0c-6.8,0-13.6,0-20.4,0
		c-6,0-10.9-2.3-13.5-8c-4.3-9.5-4.4-19.2,0.1-28.7c2-4.3,5.5-7,10.3-7.5c2.5-0.2,4.9-0.4,7.4-0.4C398.4,373,404.7,373,411.2,373z
		 M230.7,311.9c0,0.2,0.1,0.4,0.1,0.6c0.8,0,1.6,0.1,2.4,0.1c12.6,0,25.3,0.1,37.9,0c2.4,0,4.9,0.1,7.1-0.7
		c24.3-8.4,48.6-17,72.9-25.5c3.8-1.3,7.6-2.7,11.5-4c-1.8-5.1-3.5-10-5.3-14.9C315,282.4,272.9,297.1,230.7,311.9z M398.1,312.4
		c-0.2-0.7-0.3-1.2-0.5-1.7c-3.7-8.4-7.5-16.7-11.2-25.1c-0.7-1.6-1.3-1.8-2.9-1.2c-21.9,7.7-43.8,15.3-65.7,23
		c-4.3,1.5-8.5,3-12.7,4.5c0,0.2,0.1,0.3,0.1,0.5C336.1,312.4,367,312.4,398.1,312.4z M408.7,382.1c0-0.1,0-0.2,0-0.3
		c-5.3,0-10.6-0.1-16,0c-2,0-4.3,0-6.1,0.8c-5.7,2.5-8.6,10.3-6.7,17c2.1,7.1,6.3,10,13.7,9.4c1.5-0.1,2.9-0.3,4.4-0.3
		c9.3-0.1,18.7-0.1,28-0.1c2.9,0,3.1-0.2,3.1-3.2c0-6.9-0.1-13.7,0-20.6c0-2.1-0.7-2.9-2.8-2.8C420.6,382.1,414.6,382.1,408.7,382.1
		z"/>
	<path class="st0" d="M411.2,373c-6.6,0-12.8,0-19.1,0c-2.5,0-4.9,0.2-7.4,0.4c-4.9,0.5-8.3,3.2-10.3,7.5
		c-4.5,9.5-4.5,19.2-0.1,28.7c2.6,5.7,7.4,7.9,13.5,8c6.8,0,13.6,0,20.4,0c0.9,0,1.8,0,3,0c0,4.6,0,9,0,13.4c0,10,0,19.9,0,29.9
		c0,3.7-1,5.4-3.3,5.8c-1.7,0.3-3.4,0.5-5.1,0.5c-8.9,0.1-17.7,0.2-26.6,0.2c-30.8,0-61.7,0.1-92.5,0.1c-26.9,0-53.8-0.1-80.7-0.2
		c-2.4,0-4.8-0.3-7.1-0.6c-1.8-0.3-3.1-1.3-3.1-3.3c-0.1-11-0.3-21.9-0.3-32.9c0-31.3,0-62.5,0-93.8c0-3.1,0.2-6.2,0.6-9.2
		c0.4-2.7,2-3.9,4.8-3.9c9.2-0.1,18.4-0.1,27.5-0.1c18.7,0,37.5,0,56.2,0c15.9,0,31.8,0,47.6,0c22.8,0,45.6,0,68.4,0
		c3.2,0,6.5,0.3,9.7,0.6c2.1,0.2,3.4,1.4,3.5,3.6c0.2,3.3,0.2,6.6,0.2,9.9c0,11,0,22.1,0,33.1C411.2,371.4,411.2,372,411.2,373z"/>
	<path class="st4" d="M230.7,311.9c42.1-14.8,84.2-29.5,126.6-44.4c1.8,5,3.5,9.8,5.3,14.9c-3.9,1.4-7.7,2.7-11.5,4
		c-24.3,8.5-48.6,17.1-72.9,25.5c-2.2,0.8-4.7,0.6-7.1,0.7c-12.6,0-25.3,0-37.9,0c-0.8,0-1.6-0.1-2.4-0.1
		C230.8,312.2,230.8,312.1,230.7,311.9z"/>
	<path class="st4" d="M398.1,312.4c-31.1,0-62,0-92.9,0c0-0.2-0.1-0.3-0.1-0.5c4.2-1.5,8.5-3.1,12.7-4.5c21.9-7.7,43.8-15.3,65.7-23
		c1.6-0.6,2.2-0.4,2.9,1.2c3.6,8.4,7.4,16.7,11.2,25.1C397.8,311.2,397.9,311.7,398.1,312.4z"/>
	<path class="st5" d="M408.7,382.1c5.9,0,11.9,0.1,17.8,0c2.1,0,2.8,0.7,2.8,2.8c-0.1,6.9,0,13.7,0,20.6c0,3-0.2,3.2-3.1,3.2
		c-9.3,0-18.7,0-28,0.1c-1.5,0-2.9,0.2-4.4,0.3c-7.4,0.6-11.6-2.3-13.7-9.4c-2-6.7,1-14.5,6.7-17c1.8-0.8,4-0.8,6.1-0.8
		c5.3-0.1,10.6,0,16,0C408.7,381.9,408.7,382,408.7,382.1z M395.2,404.6c5,0,9.2-4.2,9.2-9.1c0-5.2-4.2-9.5-9.3-9.5
		c-5,0-9.3,4.3-9.3,9.2C385.7,400.5,390,404.7,395.2,404.6z"/>
	<path class="st6" d="M395.2,404.6c-5.2,0-9.4-4.2-9.4-9.3c0-5,4.3-9.2,9.3-9.2c5,0,9.3,4.3,9.3,9.5
		C404.4,400.5,400.2,404.6,395.2,404.6z M395.1,399.5c2.5,0,4.2-1.8,4.1-4.3c-0.1-2.3-1.9-4-4.2-4c-2.4,0-4.2,2-4.1,4.3
		C391,397.9,392.8,399.6,395.1,399.5z"/>
	<path class="st7" d="M395.1,399.5c-2.3,0-4.1-1.7-4.2-4c-0.1-2.4,1.8-4.3,4.1-4.3c2.3,0,4.1,1.7,4.2,4
		C399.3,397.7,397.6,399.5,395.1,399.5z"/>
</g>
</svg>
