<?xml version="1.0" encoding="utf-8"?>
<!-- Generator: Adobe Illustrator 26.0.1, SVG Export Plug-In . SVG Version: 6.00 Build 0)  -->
<svg version="1.1" id="Layer_1" xmlns="http://www.w3.org/2000/svg" xmlns:xlink="http://www.w3.org/1999/xlink" x="0px" y="0px"
	 viewBox="0 0 612 792" style="enable-background:new 0 0 612 792;" xml:space="preserve">
<style type="text/css">
	.st0{display:none;fill:#F1F1F1;}
	.st1{display:none;fill:#FEFEFE;}
	.st2{fill:#EF1A0A;}
	.st3{display:none;fill:#F1F0F0;}
	.st4{fill:#13161B;}
	.st5{fill:#13161C;}
	.st6{fill:#191C20;}
	.st7{fill:#1B1E22;}
	.st8{fill:#181B20;}
	.st9{display:none;fill:#F0F0F0;}
	.st10{display:none;fill:#EEEEEE;}
	.st11{display:none;fill:#EDEDED;}
	.st12{fill:#14171C;}
	.st13{display:none;fill:#EFEFEF;}
</style>
<g>
	<path class="st0" d="M0.7,667.5c0-181.7,0-363.4,0-545.1c0.2-0.2,0.3-0.3,0.5-0.5c203,0,406,0,609,0c0,181.8,0,363.7,0,545.5
		c-0.2,0.2-0.3,0.3-0.5,0.5c-202.8,0-405.7,0-608.5,0C1,667.8,0.9,667.7,0.7,667.5z M75.1,394.6C75.1,394.6,75.1,394.6,75.1,394.6
		c0,43.7,0,87.4,0,131.2c0,1.6,0.5,2.5,1.9,3.3c10.8,6.2,21.6,12.5,32.3,18.7c23,13.2,46,26.4,68.9,39.7
		c22.4,12.9,44.9,25.9,67.3,38.9c19.4,11.2,38.9,22.5,58.3,33.7c1.3,0.7,2.2,0.8,3.6,0c12.8-7.5,25.7-14.9,38.5-22.3
		c19.9-11.5,39.8-22.9,59.7-34.4c26.2-15.1,52.3-30.2,78.5-45.3c16.8-9.7,33.6-19.4,50.4-29c1.3-0.8,1.7-1.6,1.7-3.1
		c0-87.1,0-174.2,0-261.4c0-2.1-0.7-3.3-2.5-4.3c-17.8-10.2-35.6-20.4-53.3-30.7c-27.5-15.9-55.1-31.8-82.6-47.7
		c-30.3-17.5-60.5-34.9-90.9-52.4c-0.7-0.4-1.9-0.4-2.6,0c-13.9,7.9-27.7,16-41.6,24c-16.6,9.6-33.3,19.2-49.9,28.8
		c-28.4,16.4-56.8,32.7-85.1,49.1c-16.7,9.6-33.4,19.4-50.1,28.9c-1.9,1.1-2.5,2.1-2.5,4.3C75.1,307.8,75.1,351.2,75.1,394.6z"/>
	<path class="st1" d="M1.2,122c-0.2,0.2-0.3,0.3-0.5,0.5C0.9,122.3,1,122.2,1.2,122z"/>
	<path class="st1" d="M0.7,667.5c0.2,0.2,0.3,0.3,0.5,0.5C1,667.8,0.9,667.7,0.7,667.5z"/>
	<path class="st1" d="M609.7,668c0.2-0.2,0.3-0.3,0.5-0.5C610,667.7,609.9,667.8,609.7,668z"/>
	<path class="st2" d="M75.1,394.6c0-43.4,0-86.8,0-130.2c0-2.1,0.7-3.2,2.5-4.3c16.8-9.6,33.4-19.3,50.1-28.9
		c28.4-16.4,56.8-32.7,85.1-49.1c16.6-9.6,33.3-19.2,49.9-28.8c13.9-8,27.7-16,41.6-24c0.7-0.4,1.9-0.3,2.6,0
		c30.3,17.4,60.6,34.9,90.9,52.4c27.5,15.9,55.1,31.8,82.6,47.7c17.8,10.3,35.5,20.5,53.3,30.7c1.8,1,2.5,2.2,2.5,4.3
		c-0.1,87.1-0.1,174.2,0,261.4c0,1.5-0.4,2.3-1.7,3.1c-16.8,9.6-33.6,19.3-50.4,29c-26.2,15.1-52.3,30.2-78.5,45.3
		c-19.9,11.5-39.8,22.9-59.7,34.4c-12.8,7.4-25.7,14.8-38.5,22.3c-1.3,0.8-2.3,0.7-3.6,0c-19.4-11.3-38.8-22.5-58.3-33.7
		c-22.4-13-44.8-26-67.3-38.9c-23-13.3-46-26.5-68.9-39.7C98.5,541.5,87.8,535.2,77,529c-1.4-0.8-1.9-1.6-1.9-3.3
		C75.2,482.1,75.1,438.3,75.1,394.6C75.1,394.6,75.1,394.6,75.1,394.6z M500.5,394.8C500.5,394.8,500.5,394.8,500.5,394.8
		c0-15.5,0-31,0-46.5c0-21.3,0-42.6,0-63.8c0-1.1,0.1-2.1-1.2-2.9c-13.2-7.5-26.3-15.1-39.4-22.7c-16-9.2-31.9-18.4-47.9-27.6
		c-15.4-8.9-30.9-17.9-46.3-26.8c-19.4-11.2-38.9-22.4-58.3-33.7c-1.3-0.7-2.1-0.7-3.3,0c-6.4,3.8-12.9,7.5-19.4,11.2
		c-19.6,11.3-39.1,22.6-58.7,33.9c-19,11-38.1,22-57.1,32.9c-18.6,10.8-37.3,21.5-55.9,32.3c-1.5,0.9-2.1,1.9-2.1,3.6
		c0.1,28.9,0,57.8,0,86.7c0,44.5,0,88.9,0,133.4c0,1.5,0.2,2.5,1.7,3.3c13.4,7.7,26.7,15.4,40.1,23.2c23.1,13.3,46.3,26.6,69.4,39.9
		c27.3,15.8,54.6,31.6,81.8,47.4c1.3,0.7,2.3,0.7,3.6,0c10.5-6.1,21-12.1,31.6-18.2c23.9-13.8,47.8-27.6,71.7-41.5
		c29.2-16.9,58.4-33.7,87.7-50.6c1.5-0.9,2.1-1.7,2.1-3.5C500.5,468.2,500.5,431.5,500.5,394.8z"/>
	<path class="st3" d="M500.5,394.8c0,36.7,0,73.4,0,110.1c0,1.8-0.7,2.7-2.1,3.5c-29.2,16.8-58.5,33.7-87.7,50.6
		c-23.9,13.8-47.8,27.6-71.7,41.5c-10.5,6.1-21.1,12.1-31.6,18.2c-1.3,0.8-2.3,0.8-3.6,0c-27.3-15.8-54.5-31.6-81.8-47.4
		c-23.1-13.3-46.3-26.6-69.4-39.9c-13.4-7.7-26.7-15.5-40.1-23.2c-1.5-0.8-1.7-1.8-1.7-3.3c0-44.5,0-88.9,0-133.4
		c0-28.9,0-57.8,0-86.7c0-1.8,0.5-2.7,2.1-3.6c18.7-10.7,37.3-21.5,55.9-32.3c19-11,38.1-22,57.1-32.9
		c19.6-11.3,39.1-22.6,58.7-33.9c6.5-3.7,12.9-7.4,19.4-11.2c1.2-0.7,2.1-0.7,3.3,0c19.4,11.3,38.9,22.4,58.3,33.7
		c15.4,8.9,30.9,17.9,46.3,26.8c16,9.2,31.9,18.4,47.9,27.6c13.1,7.6,26.2,15.2,39.4,22.7c1.4,0.8,1.2,1.7,1.2,2.9
		c0,21.3,0,42.6,0,63.8C500.4,363.8,500.4,379.3,500.5,394.8C500.5,394.8,500.5,394.8,500.5,394.8z M252.7,503.3
		c0.8,0.1,1.1,0.1,1.4,0.1c8.3,1.8,16.6,3.9,25,5.5c10.7,2,21.4,3,32.3,2.3c10.6-0.6,20.9-2.4,30.9-5.6c14.4-4.6,27.3-11.7,39-21.1
		c11.6-9.3,21-20.5,28.4-33.3c7.8-13.4,12.7-27.9,14.8-43.3c1.7-12,1.5-24.1-0.5-36.1c-1.5-9.2-4-18.2-7.6-26.7
		c-5.8-13.7-13.8-26.2-24.3-36.9c-9.6-9.8-20.5-18-32.9-24.1c-16-8-32.9-12.2-50.8-12.6c-14.1-0.4-27.8,1.8-41.2,6.3
		c-13.4,4.5-25.5,11.1-36.6,19.9c-15.8,12.6-27.7,28.3-35.9,46.7c-6.2,13.8-10.4,28.4-14,43.1c-0.1,0.6,0,1.6,0.4,1.8
		c3.2,1.4,6.4,2.7,9.8,4.1c0.4-1.1,0.6-1.8,0.8-2.5c3.1-10.3,5.9-20.7,9.4-30.8c5-14.6,12.1-28,22.3-39.7
		c8.7-10.1,18.8-18.3,30.5-24.6c8.1-4.4,16.6-7.8,25.5-9.8c6-1.3,12.3-1.9,18.4-2.8c7.3-1.1,14.6-0.4,21.9,0.4
		c9.1,1.1,18,3.5,26.5,6.9c18.6,7.5,34,19.3,46.2,35.2c9.5,12.4,16,26.4,19.4,41.7c3.1,14,3.6,28,1.2,42.1c-1.5,8.9-4,17.5-7.6,25.7
		c-6,13.7-14.5,25.6-25.4,35.8c-6.1,5.7-12.7,10.8-19.9,14.8c-9.9,5.6-20.3,9.7-31.5,12c-7.8,1.6-15.7,2.5-23.6,2.5
		c-12-0.1-23.9-1.9-35.6-4.7c-5.6-1.4-11.2-2.8-17.4-4.4c1.2-0.9,2-1.5,2.8-2c4.1-2.7,8.3-5.3,12.3-8.1c0.6-0.4,1.4-1.8,1.1-2.2
		c-1.6-2.8-3.5-5.6-5.5-8.7c-10.6,7.4-20.9,14.5-31.3,21.8c4,6,7.8,11.9,11.7,17.7c2.4,3.7,4.8,7.3,7.3,10.9
		c0.5,0.8,1.6,1.9,2.2,1.8c3.5-0.9,6.9-2.1,10.8-3.4C259.7,513.4,256.3,508.5,252.7,503.3z M397.2,443.1c0-31.5,0-62.7,0-94
		c-1.1,0-2.1,0-3.1,0c-5.9,0-11.7,0-17.6,0c-16,0-31.9,0-47.9,0.1c-19.1,0.2-38,3.3-56.9,5.4c-11.8,1.3-23.7,2.1-35.6,2.8
		c-7.3,0.4-14.6,0.1-21.9,0.1c0,31.6,0,62.8,0,94c0.7,0,1.2,0.1,1.8,0.1c10.1-0.2,20.2,0.1,30.3-0.6c11.8-0.8,23.6-2.2,35.3-3.5
		c11.9-1.2,23.7-3.3,35.5-3.7c20.9-0.7,41.9-0.5,62.8-0.7C385.6,443.1,391.3,443.1,397.2,443.1z M393,344.6c-0.6,0-0.9-0.1-1.2-0.1
		c-20.9,0-41.7-0.1-62.6,0.2c-8.1,0.1-16.3,0.5-24.4,1.4c-9.8,1-19.5,2.6-29.2,4c-17.3,2.5-34.8,3.2-52.3,3.1c-1.7,0-3.3,0-5,0
		c0,0.7-0.1,1.1-0.1,1.4c0,0.4,0.1,0.7,0.1,1.1c0.4,0,0.7,0.1,1,0.1c24.3,0.7,48.4-1.7,72.4-5.2c12.1-1.7,24.3-2.7,36.5-3.1
		c18.5-0.5,37-0.2,55.4-0.2c3.1,0,6.2,0,9.3,0C393,346.3,393,345.5,393,344.6z M388.4,340.2c-0.8-0.1-1.6-0.2-2.3-0.2
		c-17.6,0-35.2,0.1-52.9,0.2c-16.3,0-32.5,1.6-48.6,4.2c-9,1.5-18.1,2.7-27.2,3.3c-10.9,0.7-21.8,0.7-32.8,1c-0.6,0-1.2,0.1-1.8,0.1
		c0,0.6,0,0.9,0,1.3c0,0.4,0.1,0.7,0.1,1.1c0.4,0.1,0.6,0.2,0.8,0.2c20.2,0.3,40.3-0.7,60.3-4.1c15-2.6,30.1-4.2,45.4-4.3
		c17.8-0.2,35.6-0.1,53.4-0.1c1.8,0,3.7,0,5.6,0C388.4,341.8,388.4,341.1,388.4,340.2z M226.1,347c1.3,0.1,2.3,0.1,3.4,0.2
		c1.2,0,2.3-0.1,3.5-0.1c17.4,0.2,34.7-1.1,51.9-4.1c13.6-2.4,27.4-4.1,41.2-4.3c14.4-0.2,28.8-0.1,43.2-0.1c5.3,0,10.6,0,16,0
		c-0.1-1.1-0.1-1.9-0.2-2.8c-0.7,0-1.2,0-1.7,0c-17.9,0.1-35.7,0.1-53.6,0.2c-12.8,0.1-25.5,1.1-38.1,3.2
		c-17.1,2.9-34.2,5.1-51.5,5.2c-4.7,0-9.3,0-14.1,0C226.1,345.4,226.1,346.1,226.1,347z"/>
	<path class="st4" d="M252.7,503.3c3.6,5.2,7,10.1,10.7,15.4c-3.9,1.3-7.3,2.5-10.8,3.4c-0.6,0.1-1.7-1-2.2-1.8
		c-2.5-3.6-4.9-7.3-7.3-10.9c-3.9-5.8-7.7-11.7-11.7-17.7c10.4-7.2,20.7-14.4,31.3-21.8c2,3.1,3.9,5.8,5.5,8.7
		c0.2,0.4-0.5,1.8-1.1,2.2c-4.1,2.8-8.2,5.4-12.3,8.1c-0.8,0.5-1.5,1.1-2.8,2c6.2,1.6,11.8,3.1,17.4,4.4c11.7,2.8,23.6,4.7,35.6,4.7
		c7.9,0,15.8-0.8,23.6-2.5c11.2-2.3,21.7-6.4,31.5-12c7.2-4.1,13.9-9.1,19.9-14.8c10.9-10.2,19.4-22.2,25.4-35.8
		c3.6-8.2,6.1-16.8,7.6-25.7c2.4-14.1,1.9-28.2-1.2-42.1c-3.4-15.3-9.9-29.3-19.4-41.7c-12.1-15.9-27.6-27.7-46.2-35.2
		c-8.5-3.4-17.4-5.8-26.5-6.9c-7.2-0.9-14.6-1.5-21.9-0.4c-6.1,0.9-12.4,1.5-18.4,2.8c-9,2-17.4,5.4-25.5,9.8
		c-11.6,6.4-21.8,14.6-30.5,24.6c-10.1,11.7-17.3,25.2-22.3,39.7c-3.5,10.1-6.3,20.5-9.4,30.8c-0.2,0.7-0.5,1.4-0.8,2.5
		c-3.4-1.4-6.6-2.6-9.8-4.1c-0.3-0.2-0.5-1.2-0.4-1.8c3.5-14.7,7.8-29.2,14-43.1c8.2-18.4,20.1-34.1,35.9-46.7
		c11-8.7,23.2-15.4,36.6-19.9c13.4-4.5,27.1-6.7,41.2-6.3c17.8,0.4,34.7,4.7,50.8,12.6c12.4,6.2,23.3,14.3,32.9,24.1
		c10.5,10.7,18.5,23.2,24.3,36.9c3.6,8.5,6.1,17.5,7.6,26.7c2,12,2.1,24.1,0.5,36.1c-2.1,15.4-7,29.9-14.8,43.3
		c-7.4,12.8-16.9,24-28.4,33.3c-11.7,9.5-24.6,16.6-39,21.1c-10.1,3.2-20.4,5-30.9,5.6c-10.9,0.6-21.7-0.3-32.3-2.3
		c-8.4-1.6-16.6-3.6-25-5.5C253.8,503.4,253.5,503.4,252.7,503.3z"/>
	<path class="st5" d="M397.2,443.1c-5.9,0-11.6,0-17.2,0c-20.9,0.2-41.9-0.1-62.8,0.7c-11.9,0.4-23.7,2.5-35.5,3.7
		c-11.8,1.2-23.5,2.7-35.3,3.5c-10.1,0.7-20.2,0.4-30.3,0.6c-0.5,0-1.1,0-1.8-0.1c0-31.2,0-62.4,0-94c7.4,0,14.7,0.3,21.9-0.1
		c11.9-0.6,23.8-1.4,35.6-2.8c19-2.1,37.8-5.3,56.9-5.4c16-0.1,31.9-0.1,47.9-0.1c5.9,0,11.7,0,17.6,0c1,0,2,0,3.1,0
		C397.2,380.5,397.2,411.6,397.2,443.1z M388,383.8c-0.9,0.1-1.5,0.1-2.1,0.1c-4.5,0.3-8.9-0.1-13-2.2c-8.6-4.5-12.7-11.7-12.3-21.4
		c0.1-1.8-0.2-2.5-2.3-2.5c-8.1,0.2-16.1,0.2-24.2,0.1c-13.3,0-26.6,0.9-39.8,2.8c-12.4,1.7-24.8,3.3-37.3,4.8
		c-2.4,0.3-4.8,0.4-7.5,0.6c0.9,7.7-1,14.5-6.4,19.8c-5.4,5.4-12.3,6.9-19.7,6.2c0,8.5,0,16.7,0,25.2c7.6-0.9,14.4,0.5,20,5.7
		c5.6,5.3,7.4,12,7,19.5c1.4,0,2.6,0.1,3.7,0c9.5-1.1,18.9-2.2,28.4-3.3c10.7-1.3,21.3-3.2,32-3.8c12.6-0.8,25.2-0.6,37.8-0.9
		c2.9-0.1,5.8,0,8.7,0c-1.1-13.9,8.1-27.2,26.9-25.8c0-6.3,0-12.6,0-18.9C388,387.9,388,386,388,383.8z M369.4,358
		c-2.9,12.7,7.7,20.5,18.6,16.6c0-5.5,0-11,0-16.6C381.6,358,375.5,358,369.4,358z M223.5,426.6c0,5.5,0,11,0,16.4
		c6.1,0,12,0,17.9,0C244.3,432.1,235.6,422.7,223.5,426.6z M223.3,366.3c0,5.3,0,10.4,0.1,15.4c0,0.4,0.8,1,1.4,1.1
		c10.5,2.7,18.5-5.6,15.7-16.5c-3.7,0-7.4,0-11.2,0C227.4,366.3,225.5,366.3,223.3,366.3z M387.9,418.6c-1.3-0.3-2.5-0.5-3.7-0.8
		c-7.1-1.3-14.2,4.5-14.3,11.7c0,4.9,0,4.9,4.8,4.9c0.4,0,0.8,0,1.1,0c4,0,7.9,0,12,0C387.9,429,387.9,423.8,387.9,418.6z"/>
	<path class="st6" d="M393,344.6c0,0.9,0,1.7,0,2.7c-3,0-6.2,0-9.3,0c-18.5,0-37-0.3-55.4,0.2c-12.2,0.3-24.5,1.3-36.5,3.1
		c-24,3.4-48.1,5.8-72.4,5.2c-0.3,0-0.6,0-1-0.1c0-0.4-0.1-0.7-0.1-1.1c0-0.4,0-0.8,0.1-1.4c1.7,0,3.4,0,5,0
		c17.5,0,34.9-0.7,52.3-3.1c9.7-1.4,19.4-3,29.2-4c8.1-0.8,16.3-1.3,24.4-1.4c20.9-0.2,41.7-0.1,62.6-0.2
		C392.1,344.6,392.4,344.6,393,344.6z"/>
	<path class="st7" d="M388.4,340.2c0,0.9,0,1.6,0,2.6c-1.9,0-3.8,0-5.6,0c-17.8,0-35.6,0-53.4,0.1c-15.2,0.1-30.4,1.8-45.4,4.3
		c-19.9,3.4-40.1,4.4-60.3,4.1c-0.2,0-0.4-0.1-0.8-0.2c0-0.3-0.1-0.7-0.1-1.1c0-0.4,0-0.8,0-1.3c0.6,0,1.2-0.1,1.8-0.1
		c10.9-0.3,21.9-0.3,32.8-1c9.1-0.6,18.2-1.8,27.2-3.3c16.1-2.6,32.3-4.2,48.6-4.2c17.6,0,35.2-0.1,52.9-0.2
		C386.8,340,387.6,340.1,388.4,340.2z"/>
	<path class="st8" d="M226.1,347c0-0.9,0-1.6,0-2.6c4.7,0,9.4,0,14.1,0c17.3-0.1,34.5-2.3,51.5-5.2c12.6-2.1,25.3-3.2,38.1-3.2
		c17.9-0.1,35.7-0.1,53.6-0.2c0.5,0,1.1,0,1.7,0c0.1,0.9,0.1,1.7,0.2,2.8c-5.4,0-10.7,0-16,0c-14.4,0-28.8-0.1-43.2,0.1
		c-13.9,0.2-27.6,1.9-41.2,4.3c-17.2,3-34.5,4.4-51.9,4.1c-1.2,0-2.3,0.1-3.5,0.1C228.4,347.1,227.4,347,226.1,347z"/>
	<path class="st9" d="M388,383.8c0,2.2,0,4.1,0,6.1c0,6.3,0,12.6,0,18.9c-18.8-1.4-28,11.9-26.9,25.8c-2.9,0-5.8,0-8.7,0
		c-12.6,0.2-25.3,0-37.8,0.9c-10.7,0.7-21.4,2.5-32,3.8c-9.5,1.2-18.9,2.3-28.4,3.3c-1.1,0.1-2.3,0-3.7,0c0.3-7.5-1.4-14.2-7-19.5
		c-5.6-5.3-12.4-6.7-20-5.7c0-8.5,0-16.7,0-25.2c7.4,0.7,14.3-0.8,19.7-6.2c5.5-5.4,7.3-12.1,6.4-19.8c2.6-0.2,5-0.3,7.5-0.6
		c12.4-1.6,24.9-3.1,37.3-4.8c13.2-1.9,26.5-2.8,39.8-2.8c8.1,0,16.1,0,24.2-0.1c2.1,0,2.4,0.7,2.3,2.5c-0.4,9.7,3.6,16.9,12.3,21.4
		c4.1,2.1,8.5,2.5,13,2.2C386.6,383.9,387.2,383.8,388,383.8z M305.9,425.2c16,0,28.7-13.4,28.5-29c-0.2-16-12.8-28.5-28.8-28.5
		c-16.2,0-28.9,13.3-28.7,29.2C277.2,412.7,290.3,425.5,305.9,425.2z"/>
	<path class="st10" d="M369.4,358c6.1,0,12.3,0,18.6,0c0,5.6,0,11.1,0,16.6C377,378.5,366.4,370.6,369.4,358z"/>
	<path class="st10" d="M223.5,426.6c12.2-3.9,20.8,5.5,17.9,16.4c-5.9,0-11.8,0-17.9,0C223.5,437.6,223.5,432.1,223.5,426.6z"/>
	<path class="st11" d="M223.3,366.3c2.2,0,4.1,0,6,0c3.8,0,7.5,0,11.2,0c2.8,10.9-5.2,19.2-15.7,16.5c-0.5-0.1-1.4-0.7-1.4-1.1
		C223.3,376.7,223.3,371.7,223.3,366.3z"/>
	<path class="st10" d="M387.9,418.6c0,5.2,0,10.4,0,15.8c-4,0-8,0-12,0c-0.4,0-0.8,0-1.1,0c-4.9,0-4.9,0-4.8-4.9
		c0-7.2,7.1-13.1,14.3-11.7C385.4,418.1,386.6,418.4,387.9,418.6z"/>
	<path class="st12" d="M305.9,425.2c-15.6,0.3-28.7-12.5-29-28.2c-0.3-16,12.5-29.2,28.7-29.2c16,0,28.6,12.5,28.8,28.5
		C334.6,411.8,322,425.2,305.9,425.2z M284.7,396.3c-0.3,11.5,9.1,21.3,20.9,21.2c11.4,0,20.7-8.9,21-20.7
		c0.3-11-8.9-20.8-19.6-21.3C295.2,375,284.7,384.2,284.7,396.3z"/>
	<path class="st13" d="M284.7,396.3c0-12.1,10.5-21.3,22.3-20.8c10.7,0.5,19.9,10.3,19.6,21.3c-0.3,11.8-9.6,20.6-21,20.7
		C293.8,417.5,284.5,407.8,284.7,396.3z"/>
</g>
</svg>
