<?xml version="1.0" encoding="utf-8"?>
<!-- Generator: Adobe Illustrator 26.0.1, SVG Export Plug-In . SVG Version: 6.00 Build 0)  -->
<svg version="1.1" id="Layer_1" xmlns="http://www.w3.org/2000/svg" xmlns:xlink="http://www.w3.org/1999/xlink" x="0px" y="0px"
	 viewBox="0 0 612 792" style="enable-background:new 0 0 612 792;" xml:space="preserve">
<style type="text/css">
	.st0{display:none;fill:#CDCDCD;}
	.st1{fill:#FEFEFE;}
	.st2{fill:#C90A04;}
	.st3{fill:#CA0B05;}
	.st4{display:none;fill:#CDCCCC;}
	.st5{display:none;fill:#CDCBCA;}
	.st6{fill:#C20702;}
</style>
<g>
	<path class="st0" d="M0,700.8C0,497.2,0,293.6,0,90c204,0,408,0,612,0c0,203.6,0,407.2,0,610.8C408,700.8,204,700.8,0,700.8z
		 M303.6,659.1C303.6,659.1,303.6,659.1,303.6,659.1c24.9,0.1,49.7,0.1,74.6,0c20.2-0.1,40.4-0.3,60.5-0.6c6.8-0.1,11.2-3.8,13-10.1
		c2.4-8.4,4.6-16.9,6-25.5c7.2-43.7,14.2-87.5,21.2-131.2c8.3-52,16.5-104,24.6-156c3-19.5-0.9-27.6-18.2-36.9
		c-25.6-13.8-51.4-27.3-77.1-40.9c-29.3-15.4-58.8-30.7-88.1-46.2c-11-5.8-21.8-5.9-32.7-0.1c-18.2,9.5-36.5,18.9-54.7,28.5
		c-37.6,19.9-75.2,39.9-112.8,59.7c-13,6.8-18.6,17-16.6,31.5c1.2,9.1,2,18.2,3.4,27.2c8.8,55.2,17.7,110.4,26.7,165.5
		c6.3,38.5,12.6,77,19.4,115.5c2.8,16,7.5,19.4,23.6,19.4C218.8,659.1,261.2,659.1,303.6,659.1z M597.3,287.5
		c-5.4-3.4-9.5-6.3-13.9-8.6c-24.3-12.9-48.6-25.7-72.9-38.5c-58.6-30.7-117.2-61.4-175.9-92c-11.8-6.1-24-12.6-37.7-9.1
		c-9.8,2.5-19.3,6.6-28.2,11.3c-57.7,29.9-115.1,60.1-172.6,90.3c-25.6,13.4-51.1,27-76.6,40.6c-2.9,1.5-5.4,3.7-9.1,6.3
		c9.7,5.7,18.3,9.9,25.9,15.5c8.1,5.9,15.4,5.4,23.7,0.9c21.9-11.7,44-23,66-34.6c51.5-27.1,103.1-54.1,154.5-81.4
		c15.7-8.3,30.9-8.5,46.6,0c24.4,13.1,49,25.7,73.5,38.6c48.5,25.5,97,50.9,145.3,76.6c9.6,5.1,18.1,6.3,26.9-1.1
		c2.4-2.1,5.6-3.3,8.4-5C586,294.4,591,291.3,597.3,287.5z"/>
	<path class="st1" d="M0,700.8c204,0,408,0,612,0c-1.6,0.4-3.3,1.2-4.9,1.2c-30.4,0.1-60.8,0.1-91.2,0.1c-170.1,0-340.3,0-510.4-0.1
		C3.7,701.9,1.8,701.2,0,700.8z"/>
	<path class="st2" d="M303.6,659.1c-42.4,0-84.8,0-127.2,0c-16.1,0-20.8-3.4-23.6-19.4c-6.8-38.4-13.1-77-19.4-115.5
		c-9-55.2-17.9-110.3-26.7-165.5c-1.4-9-2.2-18.2-3.4-27.2c-2-14.5,3.6-24.7,16.6-31.5c37.7-19.8,75.2-39.8,112.8-59.7
		c18.2-9.6,36.5-19,54.7-28.5c11-5.7,21.7-5.7,32.7,0.1c29.3,15.5,58.8,30.8,88.1,46.2c25.7,13.5,51.5,27,77.1,40.9
		c17.3,9.3,21.2,17.4,18.2,36.9c-8.1,52-16.3,104-24.6,156c-7,43.8-14,87.5-21.2,131.2c-1.4,8.6-3.6,17.1-6,25.5
		c-1.8,6.2-6.3,10-13,10.1c-20.2,0.3-40.4,0.5-60.5,0.6C353.4,659.2,328.5,659.1,303.6,659.1C303.6,659.1,303.6,659.1,303.6,659.1z
		 M378.2,454c-1.7-1.6-3.2-4-5.2-4.5c-5-1.4-10.3-2.3-15.5-2.7c-15.8-1.4-31.6-2.9-47.4-3.6c-8.8-0.4-17.6,0.5-26.4,1.1
		c-15.1,1.1-30.2,2-45.2,4c-4.1,0.5-9.9,0.7-11.9,6.5c-5.6,4.9-2.9,11.1-2.1,16.6c3.3,24.3,7,48.6,10.6,72.9
		c3.2,21.1,6.4,42.2,9.6,63.2c0.9,6,3.9,8.7,10.4,8.2c10.1-0.7,20.4-0.9,30.5-0.6c6.1,0.2,7.9-1.6,7.8-7.9
		c-0.3-50.6-0.1-101.3-0.1-151.9c6.9,0,13.9-0.1,20.8-0.1c0,53,0,106,0,160.3c13.1,0,25.5-0.3,37.9,0.1c6.4,0.2,9.6-2,10.3-8.2
		c0.2-1.6,0.7-3.2,0.9-4.8c4-26.9,8.1-53.8,12.1-80.8c2.8-18.9,5.4-37.8,8.1-56.7C384.2,460.4,384.4,455.7,378.2,454z M371.2,324.9
		c0-37.3-30.2-67.6-67.4-67.6c-37.1,0.1-67.7,30.3-67.6,66.9c0.1,37.9,30,68.1,67.5,68.3C340.7,392.7,371.1,362.2,371.2,324.9z"/>
	<path class="st3" d="M597.3,287.5c-6.3,3.8-11.2,6.9-16.2,9.9c-2.8,1.7-5.9,2.9-8.4,5c-8.8,7.4-17.3,6.2-26.9,1.1
		c-48.3-25.8-96.8-51.2-145.3-76.6c-24.5-12.9-49.2-25.5-73.5-38.6c-15.7-8.4-30.9-8.3-46.6,0c-51.4,27.3-103,54.3-154.5,81.4
		c-22,11.6-44.1,22.9-66,34.6c-8.3,4.5-15.6,5-23.7-0.9c-7.6-5.6-16.3-9.8-25.9-15.5c3.7-2.6,6.2-4.8,9.1-6.3
		c25.5-13.6,51-27.2,76.6-40.6c57.5-30.2,115-60.4,172.6-90.3c9-4.7,18.5-8.8,28.2-11.3c13.7-3.5,26,3,37.7,9.1
		c58.7,30.6,117.3,61.3,175.9,92c24.3,12.8,48.7,25.6,72.9,38.5C587.8,281.2,591.9,284.1,597.3,287.5z"/>
	<path class="st4" d="M371.2,324.9c0,37.3-30.5,67.8-67.6,67.6c-37.5-0.2-67.4-30.4-67.5-68.3c-0.1-36.5,30.5-66.8,67.6-66.9
		C341,257.3,371.2,287.6,371.2,324.9z"/>
	<path class="st5" d="M293.4,455.4c0,50.6-0.1,101.3,0.1,151.9c0,6.3-1.7,8-7.8,7.9c-10.2-0.3-20.4,0-30.5,0.6
		c-6.5,0.4-9.4-2.2-10.4-8.2c-3.2-21.1-6.5-42.2-9.6-63.2c-3.6-24.3-7.4-48.6-10.6-72.9c-0.7-5.5-3.4-11.7,2.1-16.6
		c1-0.2,2-0.5,3-0.5c20.1-0.1,40.2-0.1,60.3,0C291.1,454.3,292.2,455,293.4,455.4z"/>
	<path class="st4" d="M378.2,454c6.1,1.7,6,6.4,5.3,11.2c-2.7,18.9-5.3,37.8-8.1,56.7c-4,26.9-8,53.8-12.1,80.8
		c-0.2,1.6-0.7,3.2-0.9,4.8c-0.8,6.2-4,8.4-10.3,8.2c-12.4-0.5-24.8-0.1-37.9-0.1c0-54.4,0-107.4,0-160.3c2.1-0.3,4.3-1,6.4-1
		C339.8,454.1,359,454.1,378.2,454z"/>
	<path class="st6" d="M378.2,454c-19.2,0.1-38.4,0.1-57.6,0.2c-2.1,0-4.3,0.6-6.4,1c-6.9,0-13.9,0.1-20.8,0.1
		c-1.1-0.4-2.2-1.1-3.4-1.1c-20.1,0-40.2,0-60.3,0c-1,0-2,0.3-3,0.5c1.9-5.8,7.7-6,11.9-6.5c15-1.9,30.1-2.9,45.2-4
		c8.8-0.6,17.6-1.5,26.4-1.1c15.8,0.7,31.6,2.2,47.4,3.6c5.2,0.5,10.5,1.4,15.5,2.7C375,450.1,376.5,452.5,378.2,454z"/>
</g>
</svg>
