<?xml version="1.0" encoding="utf-8"?>
<!-- Generator: Adobe Illustrator 26.0.1, SVG Export Plug-In . SVG Version: 6.00 Build 0)  -->
<svg version="1.1" id="Layer_1" xmlns="http://www.w3.org/2000/svg" xmlns:xlink="http://www.w3.org/1999/xlink" x="0px" y="0px"
	 viewBox="0 0 1920 1080" style="enable-background:new 0 0 1920 1080;" xml:space="preserve">
<style type="text/css">
	.st0{display:none;}
	.st1{fill:#07E4DF;}
	.st2{fill:#07E6E1;}
	.st3{display:none;fill:#08E3DD;}
	.st4{display:none;fill:#07E4DF;}
	.st5{display:none;fill:#ECECEC;}
	.st6{display:none;fill:#EBECEC;}
	.st7{fill:#08DCD5;}
	.st8{display:none;fill:#09DDD6;}
	.st9{fill:#07E6E2;}
</style>
<g>
	<path class="st0" d="M0,0c640,0,1280,0,1920,0c0,360,0,720,0,1080c-640,0-1280,0-1920,0C0,720,0,360,0,0z M965.5,1006.7
		c0-0.5,0-1,0-1.5c36,0,72,0.4,107.9-0.1c50.6-0.8,101.2-1.4,151.6-7.1c31.7-3.5,62.7-9.6,92.2-22.1c32-13.6,56.5-35.2,72.1-66.5
		c16.4-32.8,23.7-68,27.3-104.1c2.7-26.7,4.4-53.5,5.2-80.2c1.7-56.8,3.3-113.6,3.3-170.3c0-62.9-1.9-125.9-3.1-188.8
		c-0.7-35.6-2.3-71.2-7.2-106.6c-3.8-27.4-9.6-54.3-20.8-79.8c-11.7-26.5-28.6-48.4-53.7-63.7c-20.6-12.5-42.9-20.3-66.1-25.7
		c-37-8.6-74.6-11.7-112.4-12.7c-56.4-1.6-112.9-2.7-169.4-3.2c-79.1-0.7-158.3-0.1-237.3,3.6c-36.6,1.7-73.1,4.8-108.9,13.3
		c-24.4,5.8-47.8,14.2-69,27.8c-28.7,18.5-46,45.6-57.1,77.2c-13,36.8-17.8,75.1-19.7,113.7c-2.3,46.7-3.9,93.5-4.7,140.3
		c-0.9,51.4-1,102.8-0.5,154.3c0.6,66.6,1.2,133.2,8,199.6c3,28.9,8.7,57.2,18.9,84.5c15,39.9,41.2,69.2,80.9,86.1
		c30.7,13,62.7,20,95.6,23.2c30.3,3,60.7,5,91.2,5.9C848.3,1005.2,906.9,1005.7,965.5,1006.7z"/>
	<path class="st1" d="M965.5,1006.7c-58.6-1-117.2-1.5-175.8-3.2c-30.4-0.9-60.9-2.9-91.2-5.9c-32.8-3.2-64.9-10.2-95.6-23.2
		c-39.8-16.9-65.9-46.1-80.9-86.1c-10.3-27.3-16-55.6-18.9-84.5c-6.8-66.3-7.4-133-8-199.6c-0.5-51.4-0.4-102.9,0.5-154.3
		c0.8-46.8,2.4-93.6,4.7-140.3c1.9-38.6,6.7-76.9,19.7-113.7c11.1-31.5,28.3-58.6,57.1-77.2c21.2-13.7,44.6-22,69-27.8
		c35.8-8.5,72.3-11.6,108.9-13.3c79.1-3.7,158.2-4.3,237.3-3.6c56.5,0.5,112.9,1.6,169.4,3.2c37.8,1.1,75.5,4.1,112.4,12.7
		c23.2,5.4,45.5,13.2,66.1,25.7c25.2,15.3,42.1,37.2,53.7,63.7c11.2,25.5,17,52.4,20.8,79.8c4.9,35.4,6.5,71,7.2,106.6
		c1.2,62.9,3,125.9,3.1,188.8c0,56.8-1.6,113.6-3.3,170.3c-0.8,26.8-2.5,53.6-5.2,80.2c-3.6,36-10.9,71.3-27.3,104.1
		c-15.6,31.3-40.1,52.9-72.1,66.5c-29.5,12.5-60.5,18.6-92.2,22.1c-50.4,5.6-101,6.3-151.6,7.1c-36,0.5-72,0.1-107.9,0.1
		C965.5,1005.7,965.5,1006.2,965.5,1006.7z M1124.6,797.3c1.5-0.8,2.9-1.1,3.3-1.9c3.8-7.3,11.2-10.8,16.9-15.9
		c2.8-2.5,7.4-6.5,12.8-2.5c2.1,1.6,3.5,0.4,4.6-2.3c1-2.4,3.3-5.1,5.7-6.1c3.4-1.3,4.3-2.8,3.8-6.2c-0.5-3.6,0.9-6.2,5.3-5.8
		c1.1,0.1,3.1-0.4,3.3-1.1c1-2.7,1.5-5.6,2.2-8.4c0.5-1.7,1.2-3.3,2.1-5.8c1.9,2.2,2.8,3.4,4.3,5.1c1.1-3.2,2-5.7,2.8-8.1
		c-1.7-1-3-1.8-4.7-2.9c4.6-3.3,11.1-1.6,13.2-6.5c-1.4-2.6-2.4-4.6-3.4-6.6c2.7,0.2,5.3,0.4,8.2,0.7c-0.2,0.4,6.4-9.7,6.4-9.7
		c2.5-4.2,7.3-7.9,2.5-13.6c-0.5-0.6-0.1-1.9-0.1-4.1c2.5,1.8,4,3,6.6,4.9c0.2-2.4,0.4-3.9,0.5-5.4c0.1-1.4,0.2-2.8,0.2-4.2
		c-0.3-4.8,2.8-7.6,5.1-11.3c3.4-5.5,8.1-8.6,12.9-11.8c3.1-2,3.2-3.8,1.9-6.5c-3.5-7.5-1.4-12.8,6.5-15.6c-3-4.4-0.3-7.4,2.8-10.1
		c2.4-2.1,3.1-4.2,1-6.9c-0.8-1-1.3-2.2-1.9-3.2c1.1-1.8,2.2-3.2,3.1-4.8c1.6-3.1,3.3-6.3,4.6-9.5c1.8-4.4,4.1-8.8,0.4-13.4
		c6.7-9.3,7.2-23.3,1.2-29.6c1.4-0.2,2.7,0.2,4.1,0.3c1.7,0.1,4.3,0.7,5-0.1c1.1-1.3,1.5-3.8,1.2-5.6c-0.6-3.5-2-6.9-2.6-10.4
		c-0.2-0.9,1.1-2.7,2.1-3.1c5.3-2.2,2.2-8,5.1-11.2c-1.7-1.4-3.2-3.1-5-4.2c-3.6-2-6.6-6.8-4.6-9.2c3.3-4,0.8-7.3,0.1-10.9
		c-0.3-1.5-0.8-4.1-0.1-4.5c6.4-3.9,4.9-7.4-0.1-11.1c-0.3-0.2-0.3-0.9-0.5-1.6c3.9-2.7,5-5.5,0.3-8.9c-1.1-0.8-0.9-3.2-1.4-4.8
		c1.4-0.2,2.9-0.2,4.3-0.5c1.3-0.3,2.5-0.8,3.7-1.3c-0.6-1.4-1-3.8-1.7-3.9c-2.6-0.3-5.3,0.2-8.6,0.4c0-0.1-0.7-1.9-0.5-2
		c2.1-1.2,4.4-2.1,7.1-3.3c-0.7-1.4-1.1-3.5-2.4-4.4c-3.4-2.6-2.7-5.7-1.6-8.9c1.7-4.9,0.4-6.4-4.8-5.6c-0.8,0.1-1.6-0.5-2.5-0.8
		c0.6-0.8,1.2-2.1,1.8-2.2c4.1-0.3,3.9-3.3,4.2-5.7c-1.7-1.5-3.1-2.7-4.5-4c0.3-0.6,0.7-1.2,1-1.7c1.9,0.8,3.8,1.9,5.8,2.2
		c1.4,0.2,3.5-0.5,4.4-1.5c0.5-0.6-0.3-3-1.2-4c-0.7-0.9-2.5-0.8-3.7-1.3c-3.3-1.4-4.4-3.3-2.2-6c2,0.4,3.5,0.7,5.1,1
		c-0.5-1.6-0.6-3.5-1.5-4.7c-1.7-2.4-2.7-4.5-0.7-6.5c2.4,0,5.4,0.7,5.9-0.1c2.1-3.2,3.7-6.9,4.9-10.6c1.7-5.3-3.7-6.1-7.3-9
		c3.9-2.4,7.3-4.3,10.5-6.5c2.3-1.6,4.9-3.1,2.2-6.7c-1-1.3-1-3.3-1.4-5c1.8,0.3,3.7,0.6,5.5,0.9c0.6,0.1,1.1,0.4,3.3,1.1
		c-1.4-2.5-2.1-3.7-2.8-4.9c-0.7-1.3-1.3-2.7-2-4.2c10.3-1.3,11.2-2.5,10.3-12.7c-0.1-1.1-0.2-2.7,0.4-3.4c2.9-3.4,5.6-7.5,9.3-9.7
		c4.6-2.7,6.4-4.9,2.1-9.7c2.6-1.4,4.7-2.6,6.1-3.4c-1.1-2.7-2.9-5-2.5-6.8c0.5-2.2,2.9-3.9,4.6-5.9c-7.9-3.5-8-4.4-1.9-10.3
		c-0.4-2.2-1.8-4.5-1.1-5.9c4.2-8.3,3.6-16.2-0.7-24.5c1.2-0.3,2.6-0.2,3.3-0.9c0.8-0.8,1.9-2.8,1.5-3.2c-3-3.7-6.3-7.2-9.3-10.9
		c-0.9-1.1-1.7-3-1.4-4.1c0.8-2.4,3.5-4.2,1.2-7.1c-1.6-2-2.5-4.9-4.5-6.2c-3.6-2.4-3.6-4.3-0.5-6.9c0.6-0.5,0.5-1.6,1-3.1
		c-2.4,1.1-4.1,1.9-5.5,2.5c-3.6-4.8-6.1-9.3-3.6-15.4c-6.6,6.6-11.8,1.3-17.7-0.2c3.1-4,4-9.3,2.2-12.1c-2.5-3.8-6.2-6-10.6-4.9
		c-4.8,1.2-5.8-1.4-6.5-5c-0.2-1-1-1.9-1.6-2.8c-1,0.7-2.1,1.3-3,2.1c-0.7,0.6-1.1,1.4-1.9,2.4c-2.1-2.8-3.6-7-5.7-7.3
		c-8.1-1.3-14.5-10.2-23.9-5.7c-0.6,0.3-1.8-0.6-2.7-0.9c-7.7-2.3-15.6-5.7-21.9,3.4c-3.6-2.1-6.8-4-9.9-5.8c-0.7,2.4-1.2,4.2-1.8,6
		c-1.6-1-3.1-2.3-4.9-3c-1-0.4-2.5-0.2-3.4,0.3c-0.7,0.4-0.9,1.8-1.6,3.5c-2-2.4-3.6-4.2-5.8-6.8c-1.8,5.1-4.7,7.9-9.9,8.5
		c-2.9,0.3-5.7,2.2-7.9,3.1c-1.4-1.7-2.8-4-4.9-5.4c-0.6-0.4-3,1.9-5.4,3.6c-2.5-0.5-5.3,0.2-6.1,4.7c-0.1,0.8-2.2,1.7-3.3,1.6
		c-1.5-0.1-3-1.1-4.8-1.8c-0.3,3.6-0.6,6.9-0.8,10.3c0,0.3,0,0.8-0.2,0.9c-2.1,1.2-4.3,3.6-6.3,3.4c-6.6-0.7-9.7,2.1-10.2,9.6
		c-3.8-3.5-6.8-6.3-9.8-9.1c-5.5,2.6-5.7,3.4-2.3,8.9c-3.3,1.8-6.5,3.6-10.2,5.6c-0.8-2.6-1-4.1-1.7-5.4c-0.6-1.1-1.9-1.8-2.9-2.7
		c-0.7,0.9-1.7,1.8-2.2,2.9c-0.7,1.6-1,3.4-1.2,4.4c-2.7,0.2-4.7,0.3-6.7,0.4c0.4,1.9,0.9,3.8,1.2,5.8c0.2,1.2,0.3,2.3,0.4,3.7
		c-3.1-0.9-5.5-1.6-8.5-2.4c2-4.9-2.6-4.5-5-4.9c-1.4-0.2-3.2,2.3-4.9,3.7c-4-3.5-4-3.5-6.8,1.8c-0.5,1-1.9,2.1-2.9,2.1
		c-0.8,0-1.8-1.4-2.5-2.3c-0.5-0.7-0.6-1.8-0.7-2.2c-3.5,0.2-6.5,0.3-9.7,0.5c0.1,3-0.2,5.5-4.3,3.1c0.8-1.5,1.5-2.8,2.2-4
		c-2.7-1.7-5.1-3.4-7.6-4.9c-0.7-0.4-2.4-0.6-2.7-0.1c-3.5,4.5-7.2,2.2-11,0.6c-0.7-0.3-1.8,0.3-2.8,0.5c0.5,0.7,0.9,1.6,1.6,2.1
		c1.5,1.1,3.2,2,4.8,3c-4.5,5-7,4.6-8.9-0.8c-0.5-1.4-0.5-3-1-4.4c-0.4-1.2-1.1-2.3-1.9-3.2c-0.2-0.3-2,0.2-2.1,0.6
		c-0.4,1.3-0.9,3-0.4,4.2c0.6,1.7,2,3.1,3,4.6c-0.3,0.3-0.6,0.7-1,1c-1.5-1-3.4-1.7-4.6-3.1c-4.3-5-6-5.2-12.1-1.6
		c-1.7,1-4.5,1.7-5.9,0.9c-4.3-2.2-7.3,0.2-10.6,2.1c-1.2,0.7-2.3,1.7-5,3.8c-0.4-4-0.6-6.6-0.8-9.3c-0.1-1.4-0.2-2.9-0.3-4.3
		c-1.4,0.8-3.6,1.2-4.2,2.5c-4.5,8.4-6.8,9-14.9,3.7c-0.2-0.1-0.6,0-1,0c-1.7,2.8-5.2,6.6-6.2,6c-3.5-2-9.3-1.2-10.1-7.2
		c-0.1-1-1.5-2.6-2.3-2.7c-1.3-0.1-3,0.7-3.8,1.6c-1.4,1.6-2.1,3.8-3.3,5.6c-4.4,6.3-9.6,5.9-13.3-0.8c-0.8-1.3-1.7-2.6-3.5-5.2
		c-1.2,5.9-2,10.3-2.6,13.3c-6.1,1-11,1.8-15.9,2.4c-1.2,0.2-2.7-0.2-3.7-0.8c-5.7-3.3-10.9,1-16.3,1.3c-2.3,0.1-4.5,2.7-7.4,4.5
		c0.3,3.6-2.4,6.3-6.3,4.7c-6-2.4-8.1,1.1-9.9,5.1c-1.6,3.7-3.7,4.2-7.1,2.6c-1.1-0.5-3-0.8-3.6-0.3c-2.6,2.5-5.6,5.1-7,8.3
		c-1.8,3.9-4.4,4.4-8.6,4.5c0.5-2.5,0.8-4.7,1.3-7.3c-6.1,2.3-8.4,7.1-10.3,12c-1,2.7-2.3,3-4.4,2c-1.2-0.5-2.3-1.2-2.5-1.3
		c-3.5,3.3-6.6,6.2-9.7,9.2c-0.1-0.2-0.1-0.3-0.2-0.5c-2.7,1.2-5.4,2.5-8.1,3.8c-0.1-0.1-0.4-0.2-0.6-0.5c-1.1-1.2-2.1-2.9-3.5-3.4
		c-0.8-0.3-3.1,1.3-3.3,2.4c-0.2,1,1.2,2.5,2.1,3.7c1.6,2.1,1.6,3.8-1.3,4.3c-3.4,0.5-6.9,0.6-11.4,1c-0.1,0.5-0.9,2.4-1,4.3
		c-0.2,3.2-1.5,4-4.5,3.2c-2.3-0.6-4.6-0.7-7-0.9c-0.1,0.4-0.2,0.8-0.3,1.2c1.4,0.9,2.8,1.8,4.2,2.7c-3.2,7.1-10.7,13.8-19.6,17.5
		c-0.4,2.1-0.5,4-1.2,5.8c-3,7.6-11.8,11.8-12.2,21c0,0.5-1.4,0.8-1.9,1.5c-3.9,5-11.7,8.3-6.2,17.7c-7.1-0.9-8,3.4-10,7.9
		c-1.9,4.2-5,7.6-0.9,12.7c-0.5,0.1-1,0.1-1.5,0.2c-3.9-1.3-7.9-2.7-12.9-4.4c1.7,4.6-1,9.1,3.5,12.7c1.4,1.1,1.2,4.7,0.9,7
		c-0.1,0.9-2.8,1.4-4.4,2c-1.9,0.8-3.9,1.5-5.6,2.6c-1,0.6-3.9,12.1-3.9,13.6c0,0.3,0.1,0.8-0.1,1c-4.7,4.9-1.5,10.2-1,15.4
		c0.2,1.7-1,3.4-1.5,5.2c-0.6-0.1-1.1-0.2-1.7-0.3c-0.6-2-1.1-4-1.8-6.5c-1.5,1.6-2.3,3-3.5,3.7c-3.6,2-3.5,3.6-0.5,6.3
		c1.2,1.1,1.9,4,1.3,5.5c-1.7,4-5.3,7-4.1,12.4c0.3,1.2-0.5,3.7-0.2,6c0.5,3.4,1,8-0.7,10.2c-6.4,8.2-7.1,11.1-0.8,18.9
		c1.7,2.1,2,3.6,0.5,5.6c-2.8,3.6-5.5,7.3-8.2,10.8c8.6,9.2,9,16.2,0.9,19.3c1,1.6,1.6,3.4,2.9,4.4c3.2,2.4,2.8,4.2,0.6,7.4
		c-1.8,2.6-3.3,6.8-2.5,9.5c1.1,3.8,4.6,6.9,7.5,10.9c-1.1,1.4-2.5,3.3-4,5.2c-0.5,0.6-1.4,1.7-1.2,1.9c2.5,3.9-0.4,7.2-0.9,10.8
		c-0.1,0.7,0.2,1.6,0.6,2.3c1.7,3,3.4,5.9,5.2,8.8c1.6,2.7,3.3,5.4,4.7,7.7c-0.6,2.2-2.5,5.3-1.8,7.5c1,3.3,4.1,5.9,6,8.9
		c1.2,1.8,1.9,3.9,3.2,6.6c-3,0-4.9,0-7.1,0c0.2,1.3,0.4,3,0.5,3c5.4-0.5,5.9,3.8,8.1,7.2c2.8,4.2,5.5,7.6,3.8,12.9
		c-1.1,3.3,0.4,5.5,4,4.8c3.9-0.7,5.2,1.6,6,4.4c1.2,3.9,1.5,7.9-1.5,11.3c-2.9,3.3-1.5,5.4,1.5,7.8c2.5,2,4.4,4.7,6.6,7.1
		c0.6,0.7,1.5,1.2,2.2,1.8c2.2,1.9,4.3,3.7,6.4,5.6c3.7,3.2,0.4,5.6-1,8.2c-1.5,3-1.4,4.9,2.7,5.5c2.8,0.4,5.4,1.9,8.4,2.9
		c-1.5,2.3-2.6,4.1-4.3,6.7c8.3-2,8.3-2,11.9,5.1c0.6,1.1,1.6,2.1,2.5,3c3.6,3.9,7.4,7.7,10.9,11.7c3.7,4.3,8.4,7.9,9.1,14.2
		c0,0.4,0.6,0.8,0.9,1.2c1.5,1.9,3.1,3.7,5.1,6.2c3.8-0.1,3.8-0.1,11.7,3.5c0.4,0.2,1,0.1,1.5,0.2c4.5,1.3,8.4,3.6,10,8.1
		c1.5,4.5,4.2,4.3,7.8,3.2c1.3-0.4,3.3-0.5,4.3,0.2c1.8,1.4,3.1,3.5,4.2,4.8c-0.9,2.4-1.9,5-2.4,6.2c4.8,3,9.2,4.4,11.5,7.4
		c3.5,4.6,6.5,6.7,12,4.4c4.4-1.9,5.5-0.2,6.5,3.6c0.7,2.5,2.6,4.6,4.2,7.3c5.7-9.7,8.1-3.4,10.6,1.1c0.8-1.1,1.5-2,2.6-3.6
		c2.9,3.4,5.5,6.4,8.5,9.9c0.8-0.9,1.9-2.2,2.5-2.9c2.1,0.1,4.5,1,5.6,0.1c3.6-2.9,6.1-0.3,6.6,2c1.5,6,6.5,5.6,10.6,7.1
		c0.9,0.3,1.9,0.4,2.9,0.7c0.1,1.8,0.2,3.3,0.3,3.9c5.1,1,9.6,1.9,14.2,2.8c2.2-7.1,7.7-7.9,14.6-1.7c-0.4,1.5-0.7,3-1.4,5.5
		c4.2-2.9,5.8-1,7.1,2c1,2.3,2.1,4.7,4.5,2.8c-1.5-2.9-2.7-5.3-3.9-7.8c1.1-0.6,3.1-1.8,3.3-1.6c1.5,1.7,2.6,3.7,3.8,5.6
		c0-0.3,0.1-0.6,0.1-0.8c2.9,1.5,5.8,2.9,9.2,4.7c0.2-1.1,0.5-2.6,0.7-4.2c0.1-1.4,0-2.8,0-3.9c2.6,2.5,4.8,4.7,6.8,6.6
		c3.5-0.7,4.2-5.3,8.8-3.2c5,2.2-0.8,6.2,2.9,8.7c1.3-2.6,2.4-4.9,3.6-7.3c4.7,4.6,9.8,5.5,14.7,2.6c1.9-1.1,3.6-2.4,5.2-3.8
		c5.8-5.1,12.3,0.5,18.4-1.2c0.2-0.1,0.6,0.2,0.9,0.4c0.1,1.2,0.3,2.4,0.4,3.8c3.2-0.6,6.1-1,9-1.6c2.8-0.6,5.6-1.2,9.4-2.1
		c-1.3,2.6-1.9,3.8-2.7,5.4c3.9,1,6.9,1.3,8.6-2.9c0.3-0.7,0.7-1.7,1.3-2c5.8-2.5,12.1-3.9,16.5-8.9c0.5-0.6,2.2,0.1,3.3,0
		c3-0.3,6.6,0.1,8.8-1.4c4-2.7,7-3.4,10,0.9c0.3,0.5,1.4,0.5,2.5,0.8c-0.4-1.7-0.6-2.9-0.9-4.3c6.6,2.1,9.2,1,11.6-4.7
		c1.3-3,3.4-3.3,6.1-2c3.5,1.6,7.1,3.2,10.9,4.9c-0.8-6.7-0.8-6.7,8.2-9.7c0.5-6,4-6.9,11.2-3.1c10.4-4.2,20-9,21.9-23
		C1123.4,793.7,1123.9,795.1,1124.6,797.3z"/>
	<path class="st2" d="M1124.6,797.3c-0.7-2.2-1.2-3.6-2.2-6.4c-1.8,14-11.4,18.9-21.9,23c-7.2-3.7-10.7-2.9-11.2,3.1
		c-9,3-9,3-8.2,9.7c-3.8-1.7-7.4-3.3-10.9-4.9c-2.7-1.2-4.8-1-6.1,2c-2.4,5.7-5,6.8-11.6,4.7c0.3,1.4,0.6,2.5,0.9,4.3
		c-1.1-0.3-2.2-0.3-2.5-0.8c-3-4.3-6-3.6-10-0.9c-2.3,1.5-5.8,1.1-8.8,1.4c-1.1,0.1-2.8-0.5-3.3,0c-4.5,5-10.8,6.4-16.5,8.9
		c-0.6,0.3-1,1.2-1.3,2c-1.6,4.1-4.7,3.9-8.6,2.9c0.8-1.6,1.4-2.8,2.7-5.4c-3.8,0.8-6.6,1.5-9.4,2.1c-2.9,0.6-5.8,1-9,1.6
		c-0.2-1.4-0.3-2.6-0.4-3.8c-0.4-0.2-0.7-0.5-0.9-0.4c-6,1.7-12.5-3.9-18.4,1.2c-1.6,1.4-3.4,2.8-5.2,3.8
		c-4.9,2.9-10.1,1.9-14.7-2.6c-1.2,2.4-2.3,4.7-3.6,7.3c-3.7-2.5,2.1-6.5-2.9-8.7c-4.6-2-5.2,2.5-8.8,3.2c-1.9-1.9-4.2-4.1-6.8-6.6
		c0,1.1,0.1,2.5,0,3.9c-0.1,1.5-0.5,3-0.7,4.2c-3.4-1.7-6.3-3.2-9.2-4.7c0,0.3-0.1,0.6-0.1,0.8c-1.2-1.9-2.3-3.9-3.8-5.6
		c-0.2-0.2-2.2,1-3.3,1.6c1.2,2.4,2.4,4.8,3.9,7.8c-2.4,1.9-3.6-0.5-4.5-2.8c-1.3-3-2.9-4.9-7.1-2c0.6-2.5,1-4,1.4-5.5
		c-6.9-6.2-12.4-5.5-14.6,1.7c-4.5-0.9-9.1-1.8-14.2-2.8c0-0.6-0.1-2.2-0.3-3.9c-1-0.2-2-0.3-2.9-0.7c-4.1-1.4-9.1-1.1-10.6-7.1
		c-0.6-2.3-3-4.9-6.6-2c-1,0.8-3.5,0-5.6-0.1c-0.6,0.7-1.8,2-2.5,2.9c-3-3.5-5.6-6.5-8.5-9.9c-1.2,1.6-1.8,2.5-2.6,3.6
		c-2.5-4.5-4.9-10.8-10.6-1.1c-1.6-2.7-3.5-4.8-4.2-7.3c-1.1-3.8-2.2-5.5-6.5-3.6c-5.5,2.4-8.6,0.2-12-4.4c-2.3-3-6.7-4.4-11.5-7.4
		c0.5-1.2,1.4-3.8,2.4-6.2c-1.1-1.3-2.4-3.4-4.2-4.8c-1-0.7-3-0.6-4.3-0.2c-3.6,1.1-6.3,1.2-7.8-3.2c-1.6-4.5-5.5-6.8-10-8.1
		c-0.5-0.1-1,0-1.5-0.2c-7.8-3.5-7.8-3.6-11.7-3.5c-2.1-2.5-3.6-4.3-5.1-6.2c-0.3-0.4-0.9-0.7-0.9-1.2c-0.6-6.3-5.3-9.9-9.1-14.2
		c-3.5-4-7.3-7.8-10.9-11.7c-0.9-1-1.9-1.9-2.5-3c-3.6-7.1-3.5-7.1-11.9-5.1c1.7-2.6,2.8-4.4,4.3-6.7c-2.9-1.1-5.6-2.5-8.4-2.9
		c-4-0.6-4.2-2.5-2.7-5.5c1.3-2.6,4.7-5,1-8.2c-2.2-1.9-4.3-3.7-6.4-5.6c-0.7-0.6-1.6-1.1-2.2-1.8c-2.2-2.4-4.1-5.1-6.6-7.1
		c-3-2.4-4.4-4.5-1.5-7.8c3-3.4,2.7-7.4,1.5-11.3c-0.9-2.8-2.1-5.1-6-4.4c-3.6,0.7-5.1-1.5-4-4.8c1.7-5.3-1-8.7-3.8-12.9
		c-2.3-3.3-2.7-7.6-8.1-7.2c-0.1,0-0.3-1.7-0.5-3c2.2,0,4.1,0,7.1,0c-1.3-2.7-2-4.8-3.2-6.6c-2-3-5-5.7-6-8.9
		c-0.7-2.2,1.2-5.3,1.8-7.5c-1.4-2.3-3.1-5-4.7-7.7c-1.8-2.9-3.5-5.8-5.2-8.8c-0.4-0.7-0.7-1.6-0.6-2.3c0.6-3.6,3.4-6.9,0.9-10.8
		c-0.2-0.3,0.8-1.3,1.2-1.9c1.4-1.9,2.9-3.8,4-5.2c-2.9-4.1-6.4-7.2-7.5-10.9c-0.8-2.7,0.6-6.9,2.5-9.5c2.2-3.2,2.6-4.9-0.6-7.4
		c-1.3-1-1.9-2.8-2.9-4.4c8.2-3.1,7.7-10.1-0.9-19.3c2.7-3.6,5.5-7.2,8.2-10.8c1.5-2,1.2-3.5-0.5-5.6c-6.3-7.8-5.6-10.7,0.8-18.9
		c1.8-2.3,1.2-6.9,0.7-10.2c-0.3-2.3,0.5-4.8,0.2-6c-1.2-5.4,2.5-8.4,4.1-12.4c0.6-1.4-0.1-4.4-1.3-5.5c-3-2.7-3.1-4.4,0.5-6.3
		c1.2-0.7,2-2.1,3.5-3.7c0.7,2.6,1.3,4.5,1.8,6.5c0.6,0.1,1.1,0.2,1.7,0.3c0.6-1.7,1.7-3.5,1.5-5.2c-0.5-5.2-3.7-10.5,1-15.4
		c0.2-0.2,0.1-0.6,0.1-1c0-1.6,2.9-13,3.9-13.6c1.7-1.1,3.7-1.8,5.6-2.6c1.5-0.7,4.2-1.1,4.4-2c0.4-2.3,0.5-5.9-0.9-7
		c-4.5-3.6-1.8-8.1-3.5-12.7c5,1.7,8.9,3,12.9,4.4c0.5-0.1,1-0.1,1.5-0.2c-4.1-5.1-1-8.4,0.9-12.7c2-4.5,2.9-8.9,10-7.9
		c-5.5-9.4,2.3-12.7,6.2-17.7c0.5-0.6,1.9-1,1.9-1.5c0.3-9.2,9.2-13.4,12.2-21c0.7-1.7,0.8-3.7,1.2-5.8c8.9-3.7,16.4-10.4,19.6-17.5
		c-1.4-0.9-2.8-1.8-4.2-2.7c0.1-0.4,0.2-0.8,0.3-1.2c2.3,0.3,4.7,0.4,7,0.9c3,0.8,4.3,0,4.5-3.2c0.1-1.9,0.8-3.8,1-4.3
		c4.4-0.4,7.9-0.5,11.4-1c2.9-0.4,3-2.1,1.3-4.3c-0.9-1.2-2.3-2.7-2.1-3.7c0.2-1.1,2.5-2.7,3.3-2.4c1.4,0.4,2.3,2.2,3.5,3.4
		c0.2,0.2,0.5,0.4,0.6,0.5c2.7-1.3,5.4-2.5,8.1-3.8c0.1,0.2,0.1,0.3,0.2,0.5c3.1-2.9,6.2-5.8,9.7-9.2c0.2,0.1,1.3,0.8,2.5,1.3
		c2.2,1,3.4,0.6,4.4-2c1.9-4.9,4.2-9.7,10.3-12c-0.5,2.6-0.9,4.8-1.3,7.3c4.2-0.1,6.9-0.6,8.6-4.5c1.5-3.2,4.4-5.7,7-8.3
		c0.6-0.6,2.6-0.2,3.6,0.3c3.4,1.6,5.4,1.1,7.1-2.6c1.8-4,3.9-7.5,9.9-5.1c3.9,1.6,6.5-1.1,6.3-4.7c2.8-1.8,5-4.3,7.4-4.5
		c5.4-0.3,10.6-4.6,16.3-1.3c1.1,0.6,2.5,1,3.7,0.8c4.9-0.6,9.8-1.5,15.9-2.4c0.6-3,1.5-7.4,2.6-13.3c1.8,2.6,2.7,3.8,3.5,5.2
		c3.8,6.7,8.9,7.1,13.3,0.8c1.2-1.8,1.9-4,3.3-5.6c0.8-1,2.6-1.7,3.8-1.6c0.9,0.1,2.2,1.6,2.3,2.7c0.7,6,6.6,5.2,10.1,7.2
		c1,0.6,4.5-3.2,6.2-6c0.3,0,0.7-0.1,1,0c8.1,5.4,10.4,4.7,14.9-3.7c0.7-1.2,2.8-1.7,4.2-2.5c0.1,1.4,0.1,2.9,0.3,4.3
		c0.2,2.7,0.5,5.3,0.8,9.3c2.7-2,3.7-3,5-3.8c3.3-1.9,6.3-4.3,10.6-2.1c1.5,0.7,4.3,0,5.9-0.9c6.2-3.6,7.9-3.4,12.1,1.6
		c1.1,1.3,3,2.1,4.6,3.1c0.3-0.3,0.6-0.7,1-1c-1-1.5-2.4-2.9-3-4.6c-0.4-1.2,0-2.8,0.4-4.2c0.1-0.4,1.8-0.9,2.1-0.6
		c0.8,0.9,1.5,2,1.9,3.2c0.5,1.4,0.5,3,1,4.4c2,5.4,4.5,5.8,8.9,0.8c-1.7-1-3.3-1.9-4.8-3c-0.7-0.5-1.1-1.4-1.6-2.1
		c0.9-0.2,2.1-0.9,2.8-0.5c3.8,1.6,7.5,4,11-0.6c0.3-0.4,2-0.3,2.7,0.1c2.5,1.4,4.9,3.1,7.6,4.9c-0.7,1.2-1.4,2.5-2.2,4
		c4.1,2.4,4.4-0.1,4.3-3.1c3.2-0.2,6.2-0.3,9.7-0.5c0.1,0.5,0.2,1.5,0.7,2.2c0.7,1,1.7,2.4,2.5,2.3c1,0,2.4-1.1,2.9-2.1
		c2.9-5.3,2.8-5.3,6.8-1.8c1.7-1.4,3.6-4,4.9-3.7c2.4,0.4,7,0.1,5,4.9c3,0.8,5.4,1.5,8.5,2.4c-0.2-1.3-0.2-2.5-0.4-3.7
		c-0.4-1.9-0.8-3.9-1.2-5.8c2-0.1,4-0.3,6.7-0.4c0.3-1,0.6-2.8,1.2-4.4c0.4-1.1,1.4-1.9,2.2-2.9c1,0.9,2.3,1.6,2.9,2.7
		c0.7,1.2,0.9,2.8,1.7,5.4c3.7-2,6.9-3.8,10.2-5.6c-3.4-5.5-3.2-6.3,2.3-8.9c3,2.8,6,5.6,9.8,9.1c0.5-7.5,3.6-10.3,10.2-9.6
		c2,0.2,4.2-2.1,6.3-3.4c0.2-0.1,0.2-0.6,0.2-0.9c0.3-3.3,0.5-6.7,0.8-10.3c1.8,0.7,3.3,1.7,4.8,1.8c1.1,0.1,3.2-0.9,3.3-1.6
		c0.8-4.5,3.6-5.2,6.1-4.7c2.4-1.6,4.8-4,5.4-3.6c2.1,1.4,3.5,3.7,4.9,5.4c2.1-0.9,4.9-2.8,7.9-3.1c5.2-0.5,8.1-3.4,9.9-8.5
		c2.2,2.6,3.8,4.4,5.8,6.8c0.7-1.6,0.9-3,1.6-3.5c0.9-0.6,2.4-0.7,3.4-0.3c1.7,0.7,3.3,2,4.9,3c0.5-1.8,1.1-3.6,1.8-6
		c3.1,1.8,6.4,3.7,9.9,5.8c6.3-9.1,14.2-5.7,21.9-3.4c0.9,0.3,2.1,1.2,2.7,0.9c9.4-4.5,15.8,4.4,23.9,5.7c2.1,0.3,3.7,4.5,5.7,7.3
		c0.8-1,1.2-1.8,1.9-2.4c0.9-0.8,2-1.4,3-2.1c0.5,0.9,1.4,1.8,1.6,2.8c0.8,3.6,1.8,6.2,6.5,5c4.5-1.1,8.2,1.1,10.6,4.9
		c1.8,2.8,0.9,8-2.2,12.1c5.9,1.5,11.1,6.9,17.7,0.2c-2.5,6.1,0,10.6,3.6,15.4c1.4-0.7,3.1-1.4,5.5-2.5c-0.5,1.5-0.5,2.6-1,3.1
		c-3.1,2.6-3.1,4.5,0.5,6.9c2,1.3,2.9,4.2,4.5,6.2c2.4,3-0.3,4.8-1.2,7.1c-0.4,1.1,0.5,3,1.4,4.1c3,3.7,6.4,7.1,9.3,10.9
		c0.4,0.4-0.7,2.4-1.5,3.2c-0.7,0.7-2.1,0.6-3.3,0.9c4.3,8.2,4.8,16.2,0.7,24.5c-0.7,1.4,0.6,3.8,1.1,5.9c-6.1,5.8-6.1,6.8,1.9,10.3
		c-1.7,2.1-4.1,3.8-4.6,5.9c-0.4,1.8,1.4,4.1,2.5,6.8c-1.4,0.8-3.6,2-6.1,3.4c4.3,4.7,2.5,7-2.1,9.7c-3.7,2.2-6.4,6.3-9.3,9.7
		c-0.6,0.7-0.5,2.2-0.4,3.4c1,10.2,0.1,11.5-10.3,12.7c0.7,1.5,1.3,2.9,2,4.2c0.6,1.3,1.4,2.5,2.8,4.9c-2.1-0.7-2.7-1-3.3-1.1
		c-1.8-0.3-3.7-0.6-5.5-0.9c0.4,1.7,0.4,3.7,1.4,5c2.7,3.6,0.1,5.1-2.2,6.7c-3.2,2.2-6.6,4.1-10.5,6.5c3.6,3,9,3.7,7.3,9
		c-1.2,3.7-2.8,7.3-4.9,10.6c-0.5,0.8-3.5,0.1-5.9,0.1c-2,2-1,4.1,0.7,6.5c0.9,1.3,1,3.1,1.5,4.7c-1.5-0.3-3.1-0.6-5.1-1
		c-2.3,2.7-1.1,4.6,2.2,6c1.2,0.5,2.9,0.5,3.7,1.3c0.9,1,1.7,3.4,1.2,4c-0.9,1-2.9,1.7-4.4,1.5c-2-0.3-3.9-1.4-5.8-2.2
		c-0.3,0.6-0.7,1.2-1,1.7c1.4,1.2,2.8,2.5,4.5,4c-0.3,2.4-0.1,5.4-4.2,5.7c-0.7,0-1.2,1.4-1.8,2.2c0.8,0.3,1.7,0.9,2.5,0.8
		c5.2-0.7,6.5,0.8,4.8,5.6c-1.1,3.2-1.8,6.3,1.6,8.9c1.2,1,1.7,3,2.4,4.4c-2.8,1.2-5,2.1-7.1,3.3c-0.2,0.1,0.4,1.9,0.5,2
		c3.3-0.2,6-0.7,8.6-0.4c0.7,0.1,1.1,2.5,1.7,3.9c-1.2,0.4-2.4,1-3.7,1.3c-1.4,0.3-2.9,0.4-4.3,0.5c0.4,1.6,0.3,4,1.4,4.8
		c4.6,3.3,3.6,6.1-0.3,8.9c0.2,0.7,0.1,1.4,0.5,1.6c5,3.7,6.5,7.2,0.1,11.1c-0.6,0.4-0.2,3,0.1,4.5c0.7,3.6,3.2,7-0.1,10.9
		c-2,2.5,0.9,7.2,4.6,9.2c1.9,1,3.4,2.8,5,4.2c-2.9,3.1,0.2,9-5.1,11.2c-1,0.4-2.2,2.2-2.1,3.1c0.6,3.5,2.1,6.9,2.6,10.4
		c0.3,1.8-0.1,4.3-1.2,5.6c-0.7,0.8-3.3,0.2-5,0.1c-1.3-0.1-2.7-0.5-4.1-0.3c6,6.3,5.5,20.3-1.2,29.6c3.7,4.5,1.4,9-0.4,13.4
		c-1.3,3.3-3,6.4-4.6,9.5c-0.8,1.6-1.9,3-3.1,4.8c0.6,1,1.1,2.2,1.9,3.2c2.1,2.7,1.5,4.7-1,6.9c-3.1,2.7-5.8,5.7-2.8,10.1
		c-7.9,2.9-10,8.1-6.5,15.6c1.3,2.7,1.2,4.5-1.9,6.5c-4.8,3.2-9.5,6.3-12.9,11.8c-2.3,3.7-5.4,6.5-5.1,11.3c0.1,1.4-0.1,2.8-0.2,4.2
		c-0.1,1.5-0.3,3-0.5,5.4c-2.6-2-4.1-3.1-6.6-4.9c0,2.2-0.4,3.5,0.1,4.1c4.8,5.6,0,9.4-2.5,13.6c0,0-6.6,10.1-6.4,9.7
		c-2.9-0.2-5.6-0.5-8.2-0.7c1,2,2,3.9,3.4,6.6c-2.1,4.9-8.6,3.2-13.2,6.5c1.7,1.1,3,1.9,4.7,2.9c-0.8,2.4-1.7,5-2.8,8.1
		c-1.4-1.7-2.4-2.9-4.3-5.1c-0.9,2.5-1.6,4.1-2.1,5.8c-0.8,2.8-1.2,5.7-2.2,8.4c-0.3,0.7-2.2,1.1-3.3,1.1c-4.4-0.3-5.8,2.2-5.3,5.8
		c0.5,3.5-0.5,4.9-3.8,6.2c-2.4,0.9-4.7,3.6-5.7,6.1c-1.1,2.7-2.5,3.9-4.6,2.3c-5.4-4-10,0-12.8,2.5c-5.8,5.1-13.1,8.6-16.9,15.9
		C1127.5,796.1,1126.1,796.4,1124.6,797.3z M961.8,788.3c4.7-0.3,11.2-0.4,17.6-1.3c15.2-2.3,30.7-4,45.6-7.8
		c17.9-4.6,35.1-11.4,51.2-20.8c11.8-6.9,23.7-13.6,34.5-21.9c10.7-8.2,20.8-17.6,29.8-27.7c11-12.4,21.3-25.6,30.4-39.4
		c11.1-16.8,19.2-35.3,25.5-54.5c7.1-21.5,11-43.5,11.5-66c0.3-13.9-1.8-27.8-2.6-41.7c-0.8-12.7-3.5-25-7.7-36.9
		c-3.9-10.9-8-21.9-12.8-32.4c-4.3-9.3-9.2-18.5-14.8-27.1c-5.2-8.1-11.7-15.2-17.3-23c-9.8-13.5-21.8-24.9-34.4-35.6
		c-5-4.3-10.3-8.3-15.7-12.2c-7.9-5.6-15.8-11.3-24.1-16.2c-7.3-4.3-14.9-8.1-22.7-11.2c-13.3-5.2-26.6-10.9-40.4-14.1
		c-14.3-3.3-29.2-3.9-43.8-5.7c-17.7-2.2-35.3-0.1-52.5,3c-22.8,4.1-45.1,10.4-65.7,21.3c-13,6.9-26.1,14-38.1,22.6
		c-10.6,7.6-20.1,16.9-29.2,26.2c-10.2,10.4-20.7,20.8-28.8,32.8c-11,16.3-20.3,33.7-27.9,52.2c-9.9,24.1-14.5,49.1-16.8,74.5
		c-1.9,20.5-0.1,41.2,4.1,61.4c4.1,19.2,10.4,37.7,18.7,55.6c9.1,19.4,20.1,37.4,33.5,54c12.4,15.5,26.7,29,42.4,41.1
		c21.6,16.8,45.9,28.4,71.6,37.5C907.7,784,933.6,787.4,961.8,788.3z M1287,287.2c-1.2-9.3-1.9-16.8-3.2-24.3c-0.8-4.5-2-9-3.8-13.1
		c-1.4-3.4-3.8-6.5-6-9.6c-1.8-2.6-3.5-5.5-5.9-7.2c-5.6-3.9-9.5-10-16.9-11.6c-5.4-1.2-10.2-5.2-15.6-5.9
		c-15.2-2.1-30.6-3.2-45.5,1.9c-11.3,3.8-22,9-29.5,18.7c-7,9.1-12.2,19.3-14.8,30.7c-3,13-3.2,26.2,1.1,38.4
		c6.7,18.7,18,33.9,36.7,43.3c15.6,7.9,31.4,9,48,6.3c10.9-1.7,20.5-6.7,29.5-13c9.2-6.4,16.1-15.5,20.1-25.5
		C1285,306.8,1285.4,296,1287,287.2z M1111.5,806.8c0.7-2.3,1.5-3.6,1.3-4.6c-0.2-0.9-1.5-1.7-2.3-2.5c-0.5,1.1-1.3,2.3-1.3,3.4
		C1109.2,804,1110.2,804.8,1111.5,806.8z M702.7,683.8c-0.6-0.2-1.2-0.4-1.8-0.5c-0.5,1.9-1,3.8-1.5,5.7c0.5,0.2,1.1,0.3,1.6,0.5
		C701.6,687.6,702.2,685.7,702.7,683.8z M863.5,256.7c0.5-0.3,1-0.6,1.5-0.9c-0.7-1.1-1.3-2.3-2.1-3.3c0-0.1-1,0.5-1.5,0.8
		C862.1,254.4,862.8,255.5,863.5,256.7z M684.3,426.6c-1.8-1.4-2.3-1.8-2.8-2.1c-0.4,0.6-1,1.1-1.2,1.8c-0.1,0.3,0.7,1.2,1.2,1.2
		C682.2,427.5,683,427,684.3,426.6z M661.1,496.2c0.9,0.7,1.4,1.4,1.8,1.3c0.6-0.1,1-0.8,1.6-1.2c-0.5-0.4-0.9-0.9-1.5-1
		C662.6,495.2,662,495.7,661.1,496.2z M1178.5,746.8c-0.2-0.5-0.3-1-0.5-1.5c-0.9,0.4-1.7,0.8-2.6,1.3c0.1,0.3,0.3,0.7,0.4,1
		C1176.7,747.3,1177.6,747,1178.5,746.8z M1153.4,205.2c-0.2-0.3-0.3-0.5-0.5-0.8c-0.8,0.4-1.5,0.9-2.3,1.3c0.2,0.3,0.3,0.6,0.5,0.8
		C1151.9,206.1,1152.7,205.7,1153.4,205.2z M845.8,260.2c-0.5-0.3-0.9-0.8-1.3-0.8c-0.3,0-0.6,0.5-0.9,0.9c0.4,0.3,0.9,0.7,1.3,1
		C845.2,261,845.5,260.6,845.8,260.2z M1260.4,504.8c-1.1-0.8-1.4-1.3-1.8-1.3c-0.3,0-0.7,0.5-1,0.7c0.4,0.4,0.7,0.9,1.2,1.1
		C1259.2,505.4,1259.7,505,1260.4,504.8z M1257.2,579.2c-0.4,0.5-0.8,0.9-0.8,1.2c0,0.3,0.5,0.6,0.8,1c0.4-0.4,0.7-0.9,1.1-1.3
		C1258,579.8,1257.7,579.5,1257.2,579.2z M669.5,605.5c-0.3,0.5-0.8,0.9-0.8,1.3c0,0.3,0.6,0.6,0.9,0.9c0.3-0.4,0.7-0.9,1-1.3
		C670.2,606,669.9,605.8,669.5,605.5z M711.8,709.2c-0.5-0.3-0.9-0.8-1.3-0.8c-0.3,0-0.6,0.5-0.9,0.9c0.4,0.3,0.9,0.7,1.3,1
		C711.2,710,711.5,709.6,711.8,709.2z M1101.9,807.4c-0.5-0.3-0.9-0.8-1.2-0.8c-0.4,0.1-0.7,0.6-1,0.9c0.4,0.3,0.7,0.8,1.2,1
		C1101,808.6,1101.4,807.9,1101.9,807.4z M764.6,308.6c-0.2-0.3-0.3-0.7-0.5-0.8c-0.2-0.1-0.5,0.2-0.8,0.4c0.2,0.3,0.4,0.7,0.6,1
		C764.3,309,764.4,308.8,764.6,308.6z M805.4,796.4c0.1,0.3,0.2,0.7,0.4,0.8c0.2,0.1,0.5-0.2,0.8-0.3c-0.2-0.4-0.3-0.8-0.5-1.1
		C805.8,796,805.6,796.2,805.4,796.4z M667.2,484.7c-0.1,0-0.3,0-0.4,0c0.1,0.2,0.2,0.4,0.3,0.7c0.1-0.1,0.3-0.2,0.3-0.3
		C667.4,485,667.2,484.8,667.2,484.7z M1127.2,789.7c-0.1,0-0.3,0-0.4,0c0.1,0.2,0.2,0.4,0.2,0.7c0.1-0.1,0.3-0.2,0.3-0.3
		C1127.4,790,1127.2,789.8,1127.2,789.7z"/>
	<path class="st3" d="M961.8,788.3c-28.2-0.8-54-4.2-79.1-13.1c-25.8-9.1-50-20.7-71.6-37.5c-15.6-12.2-29.9-25.6-42.4-41.1
		c-13.4-16.7-24.5-34.7-33.5-54c-8.4-17.9-14.7-36.4-18.7-55.6c-4.3-20.2-6-40.9-4.1-61.4c2.4-25.5,6.9-50.5,16.8-74.5
		c7.6-18.5,16.9-35.9,27.9-52.2c8.1-12,18.6-22.4,28.8-32.8c9.1-9.3,18.6-18.6,29.2-26.2c11.9-8.6,25-15.7,38.1-22.6
		c20.6-10.9,42.9-17.3,65.7-21.3c17.3-3.1,34.8-5.2,52.5-3c14.6,1.8,29.6,2.4,43.8,5.7c13.8,3.2,27.1,8.9,40.4,14.1
		c7.8,3.1,15.5,6.9,22.7,11.2c8.3,4.9,16.2,10.6,24.1,16.2c5.4,3.8,10.6,7.9,15.7,12.2c12.7,10.7,24.6,22.1,34.4,35.6
		c5.6,7.8,12.2,14.9,17.3,23c5.5,8.6,10.5,17.8,14.8,27.1c4.8,10.6,8.9,21.5,12.8,32.4c4.2,11.9,6.9,24.2,7.7,36.9
		c0.8,13.9,2.9,27.8,2.6,41.7c-0.5,22.5-4.4,44.6-11.5,66c-6.3,19.2-14.4,37.7-25.5,54.5c-9.1,13.8-19.4,27-30.4,39.4
		c-9,10.1-19.1,19.5-29.8,27.7c-10.8,8.3-22.7,15-34.5,21.9c-16,9.4-33.3,16.2-51.2,20.8c-14.9,3.8-30.3,5.5-45.6,7.8
		C972.9,787.9,966.4,787.9,961.8,788.3z M959.4,300c-129.5,0.2-234.7,102.7-239.4,231.1C715.2,665.2,820.7,777.9,956.3,780
		c133.3,2,238.5-102.5,243.6-229.9C1205.5,412.3,1095.4,299.6,959.4,300z"/>
	<path class="st1" d="M1287,287.2c-1.6,8.9-2.1,19.6-5.8,29.1c-4,10-10.8,19.1-20.1,25.5c-8.9,6.2-18.6,11.2-29.5,13
		c-16.6,2.7-32.4,1.5-48-6.3c-18.7-9.4-30-24.6-36.7-43.3c-4.4-12.2-4.1-25.4-1.1-38.4c2.6-11.5,7.8-21.6,14.8-30.7
		c7.5-9.7,18.2-14.9,29.5-18.7c14.9-5,30.3-3.9,45.5-1.9c5.4,0.7,10.2,4.7,15.6,5.9c7.4,1.6,11.3,7.8,16.9,11.6
		c2.5,1.7,4.1,4.7,5.9,7.2c2.2,3.1,4.6,6.1,6,9.6c1.8,4.2,3,8.7,3.8,13.1C1285.1,270.3,1285.8,277.9,1287,287.2z M1276.9,280
		c-0.3-1.5-0.5-2.9-0.8-4.4c-2.6-18.5-11.5-33-27.4-43c-15.9-10-32.9-11.4-50.7-6.4c-1.8,0-3.9-0.6-5.5,0
		c-20.2,7.4-32.7,22.1-39.8,41.9c-3,8.4-3.6,17-1.9,26c3.2,17.7,12.7,31.3,26.7,41.8c15.4,11.6,32.1,17.6,51.8,11.8
		c18.4-5.4,32.1-16.6,41.2-33c3.9-7,6.2-15,8-22.8C1279.5,288.3,1281.1,283.4,1276.9,280z"/>
	<path class="st4" d="M1111.5,806.8c-1.3-1.9-2.3-2.8-2.3-3.6c0-1.2,0.8-2.3,1.3-3.4c0.8,0.8,2.1,1.5,2.3,2.5
		C1113,803.2,1112.2,804.4,1111.5,806.8z"/>
	<path class="st4" d="M702.7,683.8c-0.6,1.9-1.1,3.8-1.7,5.7c-0.5-0.2-1.1-0.3-1.6-0.5c0.5-1.9,1-3.8,1.5-5.7
		C701.5,683.5,702.1,683.7,702.7,683.8z"/>
	<path class="st4" d="M863.5,256.7c-0.7-1.1-1.4-2.3-2-3.4c0.5-0.3,1.4-0.8,1.5-0.8c0.8,1.1,1.4,2.2,2.1,3.3
		C864.5,256.1,864,256.4,863.5,256.7z"/>
	<path class="st4" d="M684.3,426.6c-1.3,0.4-2,0.9-2.8,0.9c-0.4,0-1.2-0.9-1.2-1.2c0.1-0.6,0.8-1.2,1.2-1.8
		C682,424.8,682.4,425.2,684.3,426.6z"/>
	<path class="st4" d="M661.1,496.2c0.9-0.5,1.5-1,1.9-0.9c0.5,0.1,1,0.6,1.5,1c-0.5,0.4-1,1.1-1.6,1.2
		C662.6,497.6,662,496.9,661.1,496.2z"/>
	<path class="st4" d="M1178.5,746.8c-0.9,0.3-1.8,0.5-2.6,0.8c-0.1-0.3-0.3-0.7-0.4-1c0.9-0.4,1.7-0.8,2.6-1.3
		C1178.2,745.8,1178.3,746.3,1178.5,746.8z"/>
	<path class="st4" d="M1153.4,205.2c-0.8,0.5-1.5,0.9-2.3,1.4c-0.2-0.3-0.3-0.6-0.5-0.8c0.8-0.4,1.5-0.9,2.3-1.3
		C1153.1,204.7,1153.3,205,1153.4,205.2z"/>
	<path class="st4" d="M845.8,260.2c-0.3,0.5-0.6,0.8-0.8,1.1c-0.4-0.3-0.9-0.7-1.3-1c0.3-0.3,0.6-0.8,0.9-0.9
		C844.9,259.4,845.3,259.9,845.8,260.2z"/>
	<path class="st4" d="M1260.4,504.8c-0.7,0.3-1.2,0.6-1.5,0.5c-0.5-0.2-0.8-0.7-1.2-1.1c0.3-0.3,0.7-0.8,1-0.7
		C1259,503.5,1259.3,503.9,1260.4,504.8z"/>
	<path class="st4" d="M1257.2,579.2c0.4,0.4,0.8,0.6,1.1,0.9c-0.4,0.4-0.7,0.9-1.1,1.3c-0.3-0.3-0.8-0.6-0.8-1
		C1256.4,580.1,1256.9,579.7,1257.2,579.2z"/>
	<path class="st4" d="M669.5,605.5c0.4,0.3,0.8,0.6,1.1,0.8c-0.3,0.4-0.7,0.9-1,1.3c-0.3-0.3-0.9-0.6-0.9-0.9
		C668.7,606.4,669.1,606,669.5,605.5z"/>
	<path class="st4" d="M711.8,709.2c-0.3,0.5-0.6,0.8-0.8,1.1c-0.4-0.3-0.9-0.7-1.3-1c0.3-0.3,0.6-0.8,0.9-0.9
		C710.9,708.4,711.3,708.9,711.8,709.2z"/>
	<path class="st4" d="M1101.9,807.4c-0.4,0.5-0.9,1.1-1,1.1c-0.5-0.2-0.8-0.6-1.2-1c0.3-0.3,0.6-0.8,1-0.9
		C1101,806.6,1101.4,807.1,1101.9,807.4z"/>
	<path class="st4" d="M764.6,308.6c-0.2,0.2-0.4,0.4-0.6,0.7c-0.2-0.3-0.4-0.7-0.6-1c0.3-0.1,0.6-0.5,0.8-0.4
		C764.4,307.9,764.5,308.3,764.6,308.6z"/>
	<path class="st4" d="M805.4,796.4c0.2-0.2,0.5-0.4,0.7-0.6c0.2,0.4,0.3,0.8,0.5,1.1c-0.3,0.1-0.6,0.4-0.8,0.3
		C805.5,797,805.5,796.6,805.4,796.4z"/>
	<path class="st4" d="M667.2,484.7c0.1,0.1,0.2,0.3,0.1,0.4c0,0.1-0.2,0.2-0.3,0.3c-0.1-0.2-0.2-0.4-0.3-0.7
		C666.9,484.7,667,484.7,667.2,484.7z"/>
	<path class="st4" d="M1127.2,789.7c0.1,0.1,0.2,0.3,0.1,0.4c0,0.1-0.2,0.2-0.3,0.3c-0.1-0.2-0.2-0.4-0.2-0.7
		C1126.9,789.7,1127,789.7,1127.2,789.7z"/>
	<path class="st5" d="M959.4,300c135.9-0.4,246,112.3,240.4,250.1C1194.7,677.4,1089.5,782,956.3,780
		c-135.6-2-241.1-114.8-236.2-248.8C724.8,402.7,829.9,300.2,959.4,300z M799.1,535.4c-2.5,85.4,63.2,162,155.5,165.4
		c87,3.2,161.8-63.8,166.2-154.1c4.3-87.8-65.1-163.7-154-167.4C877.2,375.5,802.1,444.9,799.1,535.4z"/>
	<path class="st6" d="M1198.1,226.2c17.8-5,34.8-3.7,50.7,6.4c15.8,10,24.8,24.5,27.4,43c0.2,1.5,0.5,2.9,0.8,4.4
		c-0.5,4.8-0.5,9.7-1.5,14.4c-8,37.8-46.9,58-82.4,42.4c-37.5-16.5-47.2-65.2-18-96C1181.4,233.9,1189.7,230,1198.1,226.2z"/>
	<path class="st7" d="M1198.1,226.2c-8.4,3.7-16.7,7.6-23.2,14.5c-29.1,30.8-19.4,79.5,18,96c35.5,15.6,74.4-4.6,82.4-42.4
		c1-4.7,1-9.6,1.5-14.4c4.2,3.4,2.6,8.3,1.7,12c-1.8,7.8-4.2,15.8-8,22.8c-9.1,16.5-22.8,27.6-41.2,33c-19.7,5.8-36.4-0.2-51.8-11.8
		c-14-10.6-23.5-24.2-26.7-41.8c-1.6-9-1.1-17.6,1.9-26c7.1-19.7,19.6-34.5,39.8-41.9C1194.3,225.7,1196.3,226.2,1198.1,226.2z"/>
	<path class="st8" d="M799.1,535.4c3-90.5,78.1-159.9,167.7-156.2c88.9,3.7,158.3,79.6,154,167.4c-4.4,90.3-79.2,157.3-166.2,154.1
		C862.3,697.4,796.7,620.8,799.1,535.4z M1111.9,537.7c1.7-15.6-2.4-32.7-7.8-49c-4.3-12.9-11.8-24.9-18.8-36.8
		c-8.2-13.9-19.6-25.3-33-34.1c-11.1-7.3-22.8-13.8-34.8-19.3c-18.6-8.5-38.7-11.4-58.9-11.2c-19.2,0.2-37.8,4.4-56,11.1
		c-24.6,9-44.8,23.9-61.2,43.9c-16.2,19.8-26.4,42.7-31.2,67.8c-5,26.2-3.2,52.4,4.7,77.8c2.9,9.3,7.9,17.8,11.7,26.8
		c4.8,11.4,12.4,20.9,20.6,29.8c14.7,16.2,32.8,27.5,52.9,35.9c15.2,6.4,31.1,10.1,47.4,11.3c27.8,2,54.7-2.6,80.1-14.5
		c13.9-6.5,26.6-15.2,37.9-25.5c13.1-12.1,22.7-26.9,30.8-42.7C1107.5,587.3,1112.7,564.1,1111.9,537.7z"/>
	<path class="st9" d="M1111.9,537.7c0.7,26.4-4.4,49.6-15.6,71.4c-8.1,15.8-17.7,30.6-30.8,42.7c-11.3,10.4-24,19-37.9,25.5
		c-25.4,11.9-52.3,16.5-80.1,14.5c-16.3-1.2-32.2-4.9-47.4-11.3c-20.1-8.4-38.2-19.7-52.9-35.9c-8.1-9-15.7-18.5-20.6-29.8
		c-3.8-9-8.8-17.6-11.7-26.8c-7.9-25.5-9.7-51.6-4.7-77.8c4.8-25,15-48,31.2-67.8c16.4-20.1,36.6-34.9,61.2-43.9
		c18.2-6.7,36.8-11,56-11.1c20.2-0.2,40.3,2.8,58.9,11.2c12.1,5.5,23.7,12.1,34.8,19.3c13.4,8.8,24.8,20.2,33,34.1
		c7,11.8,14.5,23.8,18.8,36.8C1109.6,505,1113.6,522,1111.9,537.7z"/>
</g>
</svg>
