<?xml version="1.0" encoding="utf-8"?>
<!-- Generator: Adobe Illustrator 26.0.1, SVG Export Plug-In . SVG Version: 6.00 Build 0)  -->
<svg version="1.1" id="Layer_1" xmlns="http://www.w3.org/2000/svg" xmlns:xlink="http://www.w3.org/1999/xlink" x="0px" y="0px"
	 viewBox="0 0 612 792" style="enable-background:new 0 0 612 792;" xml:space="preserve">
<style type="text/css">
	.st0{display:none;fill:#F1F1F1;}
	.st1{display:none;fill:#FEFEFE;}
	.st2{fill:#12151B;}
	.st3{fill:#13161B;}
	.st4{display:none;fill:#010101;}
</style>
<g>
	<path class="st0" d="M612,101.1c0,196.7,0,393.5,0,590.2c-204,0-408,0-612,0c0-196.7,0-393.5,0-590.2c0.2-0.2,0.3-0.3,0.5-0.5
		c203.7,0,407.4,0,611.1,0C611.7,100.8,611.8,101,612,101.1z M309,251c-10.4,0-20.8,0-31.2,0c-19.7,0-39.4,0-59.1,0
		c-21,0-42-0.1-63-0.1c-16.2,0-32.4,0-48.6,0.1c-11.9,0.1-23.8,0.2-35.6,0.4c-3.5,0.1-6.4,2.5-6.8,5.9c-0.4,3.1-1,6.3-1,9.4
		c-0.2,17.1-0.3,34.3-0.3,51.4c0,22.8,0.1,45.5,0.1,68.3c0,21.2,0,42.4,0,63.7c0,20.9-0.1,41.8,0,62.8c0,7.4,0.2,14.8,0.4,22.2
		c0.1,2.6,2.9,5.5,5.5,5.9c3.8,0.5,7.7,1.1,11.5,1.2c19.2,0.2,38.4,0.3,57.6,0.3c24.6,0,49.2,0,73.8,0c24.3,0,48.6,0,72.9,0
		c22.5,0,45,0,67.5,0c28.9,0,57.9,0,86.8,0c18.1,0,36.2,0.1,54.4,0c15.7-0.1,31.5,0.5,47.2-1.2c4.2-0.4,7.1-3.1,7.4-7.2
		c0.1-1.9,0.2-3.9,0.2-5.8c0-29.6-0.1-59.3,0-88.9c0-28.1,0.1-56.2,0.1-84.3c0-28.6-0.1-57.1-0.2-85.7c0-4.2-0.6-8.4-1.1-12.7
		c-0.3-2.6-3.2-5.2-5.8-5.3c-3.9-0.2-7.9-0.5-11.8-0.5c-27.5,0-55,0.1-82.4,0.1c-31.1,0-62.2,0-93.4,0C338.9,251,323.9,251,309,251z
		 M8.7,552.5c0,2.3,0,4.1,0,5.9c0.2,7.1,8.7,15.9,15.9,16c23.4,0.2,46.9,0.3,70.3,0.4c27.7,0,55.5,0,83.2,0c19.3,0,38.7,0.1,58,0.1
		c22.7,0,45.5,0,68.2,0c20.6,0,41.3,0,61.9,0c18.7,0,37.5-0.1,56.2-0.1c16.5,0,33,0.1,49.4,0.1c12.6,0,25.1-0.1,37.7-0.1
		c24.7-0.1,49.5-0.2,74.2-0.1c5.4,0,9.5-1.8,13.4-5.1c5.3-4.5,6.8-10.1,5.7-16.8c-0.7,0-1.3-0.1-1.9-0.1c-15-0.1-30-0.1-44.9-0.1
		c-31.8,0-63.6,0-95.5,0c-19.8,0-39.7,0-59.5,0c-12.4,0-24.9,0.1-37.3,0.2c-0.8,0-2.1,0.3-2.4,0.8c-1.3,2.5-3.5,3.2-5.9,3.4
		c-5.2,0.3-10.5,0.7-15.7,0.7c-21.5,0.1-42.9,0.1-64.4,0c-6.5,0-12.9-0.4-19.4-0.7c-1.9-0.1-4-0.6-4.9-2.6c-0.6-1.4-1.6-1.6-2.9-1.6
		c-22.9,0-45.7-0.1-68.6-0.1c-22.3,0-44.6,0-67,0c-24.3,0-48.7,0-73,0C29.4,552.5,19.2,552.5,8.7,552.5z"/>
	<path class="st1" d="M0.5,100.7c-0.2,0.2-0.3,0.3-0.5,0.5C0.2,101,0.3,100.8,0.5,100.7z"/>
	<path class="st1" d="M612,101.1c-0.2-0.2-0.3-0.3-0.5-0.5C611.7,100.8,611.8,101,612,101.1z"/>
	<path class="st2" d="M309,251c15,0,29.9,0,44.9,0c31.1,0,62.2,0,93.4,0c27.5,0,55-0.1,82.4-0.1c3.9,0,7.9,0.3,11.8,0.5
		c2.6,0.1,5.5,2.7,5.8,5.3c0.5,4.2,1.1,8.4,1.1,12.7c0.2,28.6,0.2,57.1,0.2,85.7c0,28.1-0.1,56.2-0.1,84.3c0,29.6,0,59.3,0,88.9
		c0,1.9-0.1,3.9-0.2,5.8c-0.3,4.1-3.2,6.8-7.4,7.2c-15.7,1.7-31.5,1-47.2,1.2c-18.1,0.1-36.2,0-54.4,0c-28.9,0-57.9,0-86.8,0
		c-22.5,0-45,0-67.5,0c-24.3,0-48.6,0-72.9,0c-24.6,0-49.2,0.1-73.8,0c-19.2,0-38.4-0.1-57.6-0.3c-3.8,0-7.7-0.7-11.5-1.2
		c-2.6-0.4-5.4-3.3-5.5-5.9c-0.3-7.4-0.4-14.8-0.4-22.2c0-20.9,0-41.8,0-62.8c0-21.2,0-42.4,0-63.7c0-22.8-0.1-45.5-0.1-68.3
		c0-17.1,0.1-34.3,0.3-51.4c0-3.1,0.6-6.3,1-9.4c0.5-3.4,3.3-5.8,6.8-5.9c11.9-0.2,23.8-0.3,35.6-0.4c16.2-0.1,32.4-0.1,48.6-0.1
		c21,0,42,0,63,0.1c19.7,0,39.4,0,59.1,0C288.1,251,298.5,251,309,251z M525.2,520.5c0-82.6,0-165,0-247.6c-146.2,0-292.3,0-438.4,0
		c0,82.6,0,165,0,247.6C232.9,520.5,378.9,520.5,525.2,520.5z M312.3,260.7c0-3.5-2.5-6.1-6.1-6.2c-3-0.1-6.4,2.9-6.4,5.8
		c0,4.4,2.6,6.6,5.8,6.7C309.2,267.2,312.2,264.2,312.3,260.7z"/>
	<path class="st3" d="M8.7,552.5c10.5,0,20.7,0,30.9,0c24.3,0,48.7,0,73,0c22.3,0,44.6,0,67,0c22.9,0,45.7,0.1,68.6,0.1
		c1.4,0,2.3,0.2,2.9,1.6c0.9,2,3,2.5,4.9,2.6c6.5,0.3,12.9,0.7,19.4,0.7c21.5,0.1,42.9,0.1,64.4,0c5.2,0,10.5-0.4,15.7-0.7
		c2.5-0.1,4.6-0.9,5.9-3.4c0.3-0.5,1.6-0.8,2.4-0.8c12.4-0.1,24.9-0.2,37.3-0.2c19.8,0,39.7,0,59.5,0c31.8,0,63.6,0,95.5,0
		c15,0,30,0.1,44.9,0.1c0.6,0,1.2,0.1,1.9,0.1c1.1,6.7-0.4,12.3-5.7,16.8c-3.9,3.3-8,5.2-13.4,5.1c-24.7-0.2-49.5,0-74.2,0.1
		c-12.6,0-25.1,0.1-37.7,0.1c-16.5,0-33-0.1-49.4-0.1c-18.7,0-37.5,0.1-56.2,0.1c-20.6,0-41.3,0-61.9,0c-22.7,0-45.5,0-68.2,0
		c-19.3,0-38.7-0.1-58-0.1c-27.7,0-55.5,0.1-83.2,0c-23.4,0-46.9-0.2-70.3-0.4c-7.1-0.1-15.7-8.9-15.9-16
		C8.7,556.6,8.7,554.8,8.7,552.5z"/>
	<path class="st0" d="M525.2,520.5c-146.3,0-292.3,0-438.4,0c0-82.6,0-165,0-247.6c146.2,0,292.2,0,438.4,0
		C525.2,355.5,525.2,437.9,525.2,520.5z"/>
	<path class="st4" d="M312.3,260.7c0,3.5-3.1,6.5-6.7,6.3c-3.2-0.1-5.9-2.3-5.8-6.7c0-2.9,3.4-5.9,6.4-5.8
		C309.7,254.7,312.3,257.2,312.3,260.7z"/>
</g>
</svg>
