<svg id="Layer_1" data-name="Layer 1" xmlns="http://www.w3.org/2000/svg" viewBox="0 0 393.54 715.93"><defs><style>.cls-1{fill:#292929;}</style></defs><path class="cls-1" d="M729.82,563.09c15.21-14.68,30.14-29,44.94-43.42q21.51-21,42.8-42.27c11.27-11.19,22.44-22.49,33.67-33.73,11.43-11.42,22.92-22.77,34.31-34.23,14.33-14.4,28.53-28.93,42.89-43.31,9.78-9.8,19.81-19.36,29.59-29.16,17.65-17.71,35.13-35.6,52.82-53.29,18.1-18.1,36.37-36,54.54-54.06q10.78-10.69,21.48-21.49c1.59-1.59,3-3.25,5.33-.88,10.33,10.36,20.75,20.65,31.12,30.94L797.71,563.84l325.65,325.65c-10.55,10.53-21,20.93-31.42,31.38-2.57,2.57-3.8.13-5.22-1.28q-23.9-23.82-47.74-47.7-152-152-304-304C733.72,566.62,732.37,565.45,729.82,563.09Z" transform="translate(-729.82 -206.06)"/></svg>