<svg id="Layer_1" data-name="Layer 1" xmlns="http://www.w3.org/2000/svg" viewBox="0 0 395.81 721.24"><defs><style>.cls-1{fill:#fff;}</style></defs><path class="cls-1" d="M1088.67,202.29l35.85,36.19L799.57,563.3l326.95,326.87c-3,2.3-5.75,4-8,6.13-8.45,8.27-16.87,16.59-25,25.14-2.78,2.9-4.39,2.7-7.14-.07q-59.23-59.52-118.67-118.84-91.17-91.18-182.36-182.35c-17.32-17.32-34.55-34.73-52-51.88-3.37-3.3-3.56-5.15-.11-8.59q78.27-78,156.28-156.16,97.72-97.74,195.42-195.5C1086.42,206.55,1087.31,204.42,1088.67,202.29Z" transform="translate(-730.7 -202.29)"/></svg>