<?xml version="1.0" encoding="utf-8"?>
<!-- Generator: Adobe Illustrator 26.0.1, SVG Export Plug-In . SVG Version: 6.00 Build 0)  -->
<svg version="1.1" id="Layer_1" xmlns="http://www.w3.org/2000/svg" xmlns:xlink="http://www.w3.org/1999/xlink" x="0px" y="0px"
	 viewBox="0 0 612 792" style="enable-background:new 0 0 612 792;" xml:space="preserve">
<style type="text/css">
	.st0{display:none;}
	.st1{display:none;fill:#FEFEFE;}
	.st2{fill:#DD1307;}
	.st3{fill:#EE200C;}
	.st4{fill:#C50B04;}
	.st5{fill:#C90D05;}
	.st6{fill:#C40A04;}
	.st7{fill:#7B0301;}
	.st8{fill:#5A0100;}
	.st9{display:none;fill:#030000;}
	.st10{fill:#B60803;}
</style>
<g>
	<path class="st0" d="M0,641.3c0-163.4,0-326.8,0-490.2c204,0,408,0,612,0c0,163.4,0,326.8,0,490.2C408,641.3,204,641.3,0,641.3z
		 M461.1,407.5c0.2,0.1,0.3,0.2,0.5,0.4c4.2,2.9,6.9,6.9,9.1,11.4c0.1,0.2,0.2,0.4,0.3,0.7c0,0.1,0,0.2,0.1,0.3
		c1.2,3.6,2.4,7.1,3.6,10.7c0.2,0,0.5,0,0.7,0c5.6-18.1,11.3-36.3,16.9-54.4c-0.2-0.2-0.3-0.3-0.5-0.5c-2.4,0.9-4.8,1.9-7.2,2.8
		c-0.3,0.1-0.5,0.1-0.8,0.2c-0.2,0.1-0.4,0.2-0.6,0.3c-0.4,0.1-0.7,0.1-1.1,0.2c-19.2,6.8-38.3,13.6-57.5,20.4
		c-0.8,0.3-1.5,0.6-2.3,1c0,0,0.3,0.8,0.5,1.2c2,0,4,0,6,0.1c1,0,2,0,3,0c1.9,0.1,3.7,0.1,5.6,0.2c6,0.9,12.1,1.8,18.1,2.8
		c0.2,0,0.3,0,0.5,0.1c0.1,0.1,0.1,0.1,0.2,0.1c1.2,0.7,0.3,1.2-0.3,1.6c-1.9,1.4-3.8,2.9-5.8,4.3c-8.4,5.9-16.8,11.7-25.2,17.5
		c-0.7,0.4-1.3,0.7-2,1.1c-17.2,10.8-35,20.2-54.1,27.3c-23.9,8.8-48.5,14.1-73.8,16.2c-4.5,0.4-9,0.6-13.4,0.8
		c-0.3-0.1-0.7-0.1-1-0.2c-5,0-10,0-14.9,0c-0.3,0-0.7-0.1-1-0.1c-6.2-0.4-12.5-0.5-18.7-1.1c-7.7-0.7-15.5-1.4-23.1-2.8
		c-11.9-2.2-23.7-4.8-35.4-7.9c-9.3-2.5-18.4-5.8-27.4-9.2c-6.7-2.6-13.2-6-19.7-9.1c-7.9-5.1-15.7-10.2-23.5-15.3
		c0,0.1,0,0.5,0.2,0.6c0.9,0.8,1.8,1.6,2.8,2.2c6.6,4.3,13.2,8.6,19.9,13c0.9,0.5,1.8,1.1,2.7,1.6c14.2,7.5,29.1,13.4,44.7,17.4
		c6.7,1.7,13.3,3.6,20.1,4.9c10,1.9,20.1,3.5,30.2,4.9c6.9,1,13.9,1.9,20.8,2c14.4,0.2,28.9,0.8,43.2-1.2c9.4-1.3,18.9-2.5,28.3-4.3
		c25-5,48.7-13.5,71.1-25.7c8.4-4.5,16.4-9.7,24.6-14.6c9.1-6.3,18.3-12.5,27.4-18.8c2-1.4,4.1-2.6,6.2-3.9c0.1,0.1,0.2,0.1,0.3,0.1
		c0.2,0.1,0.4,0.3,0.7,0.4c0.1,0.1,0.1,0.1,0.2,0.1C460.7,407.3,460.9,407.4,461.1,407.5L461.1,407.5z"/>
	<path class="st1" d="M0,641.3c204,0,408,0,612,0c-0.1,0.2-0.1,0.4-0.2,0.4c-0.6,0-1.2,0-1.8,0c-202.6,0-405.3,0-607.9,0
		C1.4,641.7,0.7,641.4,0,641.3z"/>
	<path class="st2" d="M242.6,504.8c8.1,0,16.2,0,24.4,0.1c0.5,0.1,1.1,0.2,1.6,0.3c7.3-0.5,14.6-0.8,21.9-1.4
		c41.3-3.3,81.5-11.9,120.4-26.3c31.1-11.5,60.2-26.9,88.3-44.5c1-0.6,2.1-1.2,3.2-1.8c0.3,0.3,0.7,0.6,1,0.9
		c-13.3,7.9-26.4,16.3-40.1,23.7c-36.5,19.9-75.2,33.7-116,41.8c-15.2,3-30.7,4.9-46.1,7.1c-23.4,3.3-47,2.4-70.5,2
		c-11.3-0.2-22.7-1.6-34-3.2c-16.5-2.3-33-4.8-49.3-7.9c-11-2.1-21.9-5.2-32.7-8c-25.4-6.6-49.7-16.2-72.9-28.4
		c-1.5-0.8-3-1.8-4.4-2.7c0.3-0.3,0.6-0.6,1-0.9c10.7,5,21.2,10.6,32.2,14.9c14.7,5.6,29.5,11,44.7,15c19,5.1,38.3,9.2,57.7,12.8
		c12.4,2.3,25.1,3.4,37.7,4.6c10.1,1,20.3,1.2,30.5,1.8C241.5,504.7,242,504.7,242.6,504.8z"/>
	<path class="st3" d="M552.2,392.6c-9.9-1.5-19.7-3-29.6-4.5c-3-0.1-6.1-0.2-9.1-0.3c-1.6,0-3.3,0-4.9,0c-3.3,0-6.6-0.1-9.9-0.1
		c-0.3-0.7-0.8-1.9-0.8-1.9c1.2-0.6,2.4-1.2,3.7-1.7c31.3-11.1,62.5-22.2,93.8-33.3c0.6-0.2,1.2-0.3,1.8-0.4
		c0.3-0.2,0.6-0.3,0.9-0.5c0.4-0.1,0.8-0.2,1.3-0.3c0.6,0.3,1.1,0.6,1.7,0.9c-1.2,0.5-2.5,1.1-3.7,1.6
		c-20.9,8.4-41.8,16.7-62.6,25.1c-2.5,1-4.8,2.5-7.8,4.1c11,3.2,21.1,6.1,31.2,9.1c0.9,0.3,1.9,0.6,2.8,0.8c0.4,0.4,0.7,1,1.1,1.3
		c8.2,5.7,12.8,13.9,16.1,23c-0.3,0.5-0.6,1.1-0.8,1.6c-0.1-0.1-0.2-0.3-0.1-0.4c-0.2-0.4-0.3-0.7-0.5-1.1
		c-3.6-7.3-8.1-13.8-14.9-18.6c-0.3-0.2-0.6-0.4-0.8-0.6c0,0,0,0,0,0c-0.4-0.2-0.7-0.4-1.1-0.6c-0.2,0-0.3,0-0.4-0.2
		c-0.4-0.2-0.7-0.4-1.1-0.6c-0.2,0-0.3,0-0.4-0.2c-1.6-0.7-3.2-1.4-4.8-2c-0.2,0-0.3,0-0.4-0.1C552.7,392.7,552.5,392.7,552.2,392.6
		z"/>
	<path class="st4" d="M601.1,350.5c-0.6-0.3-1.1-0.6-1.7-0.9c3.9-1.5,7.8-3.1,11.7-4.6c0.3,0.3,0.5,0.6,0.8,0.8
		c-9.2,29.6-18.4,59.1-27.6,88.7c-0.4,0-0.7,0-1.1,0c-2-5.8-3.9-11.7-5.9-17.5c0.3-0.5,0.6-1.1,0.8-1.6c1.8,4.8,3.7,9.6,5.7,15
		c8.6-27.6,17-54.7,25.7-82.7C606.2,348.9,603.7,349.7,601.1,350.5z"/>
	<path class="st5" d="M553.4,392.9c1.6,0.7,3.2,1.4,4.8,2c-3.4,2.1-6.8,4.2-10.1,6.4c-14.9,10.2-29.8,20.4-44.8,30.6
		c-0.3-0.3-0.7-0.6-1-0.9c13.7-9.5,27.5-19,41.2-28.6c3.2-2.2,6.3-4.7,9.5-7C553.9,394.8,555.4,394.1,553.4,392.9z"/>
	<path class="st6" d="M38.3,455.5c-0.3,0.3-0.6,0.6-1,0.9c-10.8-7-21.6-14.1-32.4-21.1c-1.6-1.1-3.1-2.4-4.6-3.6
		c-0.3-0.3-0.3-0.9-0.3-1C12.7,438.8,25.5,447.1,38.3,455.5z"/>
	<path class="st7" d="M498.8,387.7c3.3,0,6.6,0.1,9.9,0.1C505.4,387.8,502.1,387.7,498.8,387.7z"/>
	<path class="st7" d="M513.6,387.8c3,0.1,6.1,0.2,9.1,0.3C519.7,388,516.6,387.9,513.6,387.8z"/>
	<path class="st8" d="M242.6,504.8c-0.5,0-1.1-0.1-1.6-0.1C241.5,504.7,242,504.7,242.6,504.8z"/>
	<path class="st8" d="M268.5,505.1c-0.5-0.1-1.1-0.2-1.6-0.3C267.4,504.9,268,505,268.5,505.1z"/>
	<path class="st4" d="M598.2,350c-0.3,0.2-0.6,0.3-0.9,0.5C597.6,350.3,597.9,350.1,598.2,350z"/>
	<path class="st5" d="M552.2,392.6c0.2,0,0.5,0.1,0.7,0.1C552.7,392.7,552.5,392.7,552.2,392.6z"/>
	<path class="st5" d="M558.6,395.1c0.4,0.2,0.7,0.4,1.1,0.6C559.3,395.5,559,395.3,558.6,395.1z"/>
	<path class="st5" d="M560,395.9c0.4,0.2,0.7,0.4,1.1,0.6C560.8,396.3,560.4,396.1,560,395.9z"/>
	<path class="st5" d="M561.1,396.5c0.3,0.2,0.6,0.4,0.8,0.6C561.6,396.9,561.4,396.7,561.1,396.5z"/>
	<path class="st4" d="M576.8,415.6c0.2,0.4,0.3,0.7,0.5,1.1C577.1,416.4,576.9,416,576.8,415.6z"/>
	<path class="st9" d="M485.7,379.4c1.5-0.5,3.1-1,5.2-1.6c-5.3,17.2-10.5,33.8-15.8,50.7c-1.2-3.3-2.4-6.2-3.5-9.2
		c-2-5.6-4.9-10.6-9.9-14.1c-0.3-0.2-0.5-0.5-0.7-0.8c4.8-3.6,9.5-7.2,14.3-10.8c-0.1-0.2-0.3-0.4-0.4-0.6c-0.5,0.3-1.1,0.6-1.6,1
		c-3.9,3-7.8,6-11.7,8.9c-0.6,0.5-1.4,0.6-2.2,1c-6.2-1.8-12.4-3.6-19.1-5.6c1.8-1,3.2-1.9,4.8-2.5c12.8-5.2,25.6-10.3,38.4-15.4
		C484.2,380,484.9,379.7,485.7,379.4z"/>
	<path class="st10" d="M558.2,390.4c1.2-0.5,2.5-0.8,3.5-1.5c6.4-4.8,12.8-9.7,19.1-14.5c0.8-0.6,1.8-1.1,2.6-1.6
		c0.2,0.3,0.5,0.7,0.7,1c-7.8,5.9-15.5,11.7-23.3,17.6C560.1,391,559.1,390.7,558.2,390.4z"/>
</g>
</svg>
