<?xml version="1.0" encoding="utf-8"?>
<!-- Generator: Adobe Illustrator 26.0.1, SVG Export Plug-In . SVG Version: 6.00 Build 0)  -->
<svg version="1.1" id="Layer_1" xmlns="http://www.w3.org/2000/svg" xmlns:xlink="http://www.w3.org/1999/xlink" x="0px" y="0px"
	 viewBox="0 0 612 792" style="enable-background:new 0 0 612 792;" xml:space="preserve">
<style type="text/css">
	.st0{display:none;}
	.st1{display:none;fill:#FEFEFE;}
	.st2{fill:#DE1307;}
	.st3{fill:#F1210D;}
	.st4{fill:#C50C04;}
	.st5{fill:#CD0D05;}
	.st6{fill:#CF0D05;}
	.st7{fill:#AF0702;}
	.st8{fill:#D91307;}
	.st9{fill:#770200;}
	.st10{fill:#520101;}
	.st11{display:none;fill:#040000;}
	.st12{fill:#B20703;}
</style>
<g>
	<path class="st0" d="M0,641.5c0-163.5,0-327,0-490.5c204.1,0,408.2,0,612.3,0c0,163.5,0,327,0,490.5
		C408.2,641.5,204.1,641.5,0,641.5z M484.6,413.6c0.1,0.1,0.2,0.1,0.3,0.1c2.4,0.9,4.8,1.9,7.2,2.8c0.2-0.2,0.3-0.3,0.5-0.5
		c-5.6-18.1-11.3-36.2-16.9-54.4c-0.2,0-0.4,0.1-0.5,0.1c-1.7,4.6-3.5,9.1-5.2,13.7c-2.5,4-5.3,7.7-9.4,10.1
		c-0.2,0.1-0.4,0.2-0.7,0.4c-0.1,0-0.2,0-0.2,0.1c-0.9-0.4-2-0.7-2.8-1.3c-5.9-4.2-11.7-8.7-17.8-12.8c-7.4-5-15.1-9.7-22.6-14.5
		c-2-1.2-4-2.5-6-3.6c-14-7.9-28.3-14.9-43.5-20.3c-11.6-4.1-23.3-7.8-35.3-10.1c-10.7-2-21.6-3.3-32.5-4.6
		c-6.5-0.8-13-1.2-19.5-1.4c-5.4-0.2-10.8,0.2-16.3,0.4c-4.4,0.1-8.9,0.1-13.3,0.5c-6.6,0.6-13.2,1.5-19.8,2.2
		c-12.7,1.5-25.3,3.9-37.7,7.4c-10.4,2.9-20.5,6.6-30.7,10c-0.2,0.1-0.4,0.2-0.7,0.3c-0.1,0-0.2,0-0.3,0.1c-3.9,1.7-7.8,3.2-11.6,5
		c-8.5,4.1-16.7,8.7-24.3,14.5c-3.6,2.6-7.2,5.2-10.8,7.9c0.2,0.3,0.4,0.5,0.6,0.8c3.6-2.7,7.2-5.4,10.8-8.1
		c8.4-4.8,16.8-9.8,25.3-14.5c3.5-2,7.4-3.4,11.1-5.1c0.4-0.1,0.9-0.2,1.3-0.3c14.1-5.5,28.7-9.5,43.5-12.7
		c13.3-2.8,26.7-4.8,40.2-6c6.7-0.6,13.5-0.7,20.3-1c0.2-0.1,0.3-0.1,0.5-0.2c4.2,0,8.4,0,12.7,0c0.2,0.1,0.3,0.1,0.5,0.2
		c3.1,0.2,6.2,0.3,9.2,0.5c6.2,0.4,12.5,0.6,18.6,1.5c9.7,1.4,19.3,3.1,28.8,5.3c8.9,2.1,17.6,5,26.3,7.7c10.9,3.4,21.3,8,31.5,13.2
		c6.9,3.5,13.6,7.3,20.4,11c0.6,0.4,1.2,0.9,1.8,1.3c11,7.4,22,14.7,32.9,22.1c2.4,1.7,4.6,3.7,6.9,5.6c-7.1,2.2-14.4,3.5-21.9,3.5
		c-1.1,0-2.2-0.1-3.3-0.1c-1,0-2,0-3,0c-1.9,0-3.7,0-5.6,0c-0.5,0.2-1,0.3-2,0.6c1.4,0.7,2.2,1.3,3.1,1.6c8.1,2.9,16.3,5.6,24.4,8.5
		c5.4,1.9,10.9,4,16.3,5.9c3.9,1.4,7.9,2.7,11.9,4c1.7,0.6,3.3,1.2,5,1.8c0.3,0.1,0.7,0.3,1,0.4c0.1,0.1,0.2,0.1,0.3,0.1
		C483.9,413.3,484.2,413.4,484.6,413.6z"/>
	<path class="st1" d="M0,641.5c204.1,0,408.2,0,612.3,0c-0.1,0.2-0.1,0.4-0.2,0.4c-0.6,0-1.2,0-1.8,0c-202.7,0-405.5,0-608.2,0
		C1.4,642,0.7,641.7,0,641.5z"/>
	<path class="st2" d="M247.6,289.5c-11,0.5-21.9,0.6-32.9,1.6c-21.9,1.9-43.6,5.1-65.1,9.7c-24,5.1-47.5,11.7-70.4,20.6
		c-0.7,0.3-1.4,0.4-2.1,0.6c-0.5-0.3-1.1-0.5-1.6-0.8c0.1-0.1,0.3-0.2,0.4-0.1c0.4-0.2,0.7-0.4,1.1-0.5c16.6-5.4,33-11.3,49.7-16.1
		c19.9-5.7,40.3-9.5,60.9-11.9c10.7-1.3,21.3-2.7,32.1-3.6c7.1-0.6,14.3-0.6,21.5-0.8c8.8-0.3,17.6-0.9,26.3-0.6
		c10.5,0.3,21.1,0.9,31.5,2.2c17.6,2.1,35.2,4.2,52.5,7.4c19.5,3.7,38.4,9.6,57.1,16.3c24.5,8.7,47.7,20,70.3,32.8
		c3.3,1.9,6.5,3.9,9.7,5.9c-0.3,0.3-0.7,0.6-1,0.9c-11-5.9-21.8-12.1-32.9-17.8c-16.4-8.4-33.2-15.9-50.9-21.3
		c-14.1-4.4-28.2-9.1-42.6-12.5c-15.3-3.6-31-6.2-46.6-8.6c-9.9-1.5-20.1-1.7-30.2-2.4c-5-0.3-10-0.5-14.9-0.8
		c-0.3-0.1-0.5-0.2-0.8-0.3c-6.8,0-13.6,0-20.5-0.1C248.1,289.3,247.9,289.4,247.6,289.5z"/>
	<path class="st3" d="M587.2,438.7c-6.4-2.1-12.8-4.2-19.2-6.4c-8.8-3.1-17.6-6.4-26.4-9.5c-13.1-4.6-26.3-9.1-39.4-13.8
		c-1.4-0.5-2.7-1.4-5-2.6c1.6-0.5,2.4-0.8,3.2-1c3,0,6,0,9,0c1.6,0,3.3,0,4.9,0c1.8,0.1,3.6,0.1,5.3,0.2c12.1-0.1,23.9-2.1,35.4-5.7
		c1.2-0.5,2.4-1,3.5-1.5c0.1-0.1,0.2-0.2,0.4-0.2c0.4-0.2,0.7-0.4,1.1-0.6c6.7-3.9,11.2-9.9,15.2-16.3c0.3,0.6,0.7,1.2,1,1.7
		c-3.7,7.3-8.2,14-14.9,18.9c-0.9,0.3-1.9,0.5-2.8,0.8c-6.4,1.9-12.7,4-19.1,5.8c-3.6,1-7.4,1.5-11.1,2.3c0,0.4,0,0.9,0,1.3
		c1.9,1,3.7,2.3,5.7,3.1c10,4.2,20,8.2,30.1,12.4c8.4,3.5,16.9,6.9,25.3,10.4C588.7,438.2,588,438.5,587.2,438.7z"/>
	<path class="st4" d="M576.4,383c-0.3-0.6-0.7-1.2-1-1.7c2.8-7.4,5.6-14.7,8.4-22.1c0.3-0.1,0.6-0.1,0.9-0.2
		c9.1,29.3,18.2,58.6,27.3,87.9c-0.2,0.3-0.5,0.6-0.7,0.8c-3.9-1.5-7.8-3-11.7-4.5c0.6-0.3,1.1-0.6,1.7-0.9c2.6,0.9,5.2,1.8,8.5,2.9
		c-8.6-27.7-17.1-54.8-25.5-81.9C581.6,370,579,376.5,576.4,383z"/>
	<path class="st5" d="M558.6,398.3c-1.2,0.5-2.4,1-3.5,1.5c-3.7-3-7.2-6.4-11.2-9.1c-17.7-12-35.4-23.8-53.2-35.7
		c-1-0.7-2-1.4-3-2.1c0.3-0.3,0.7-0.6,1-0.9c12.2,7.8,24.5,15.4,36.6,23.5c9.8,6.6,19.2,13.8,28.8,20.7
		C555.5,397.1,557.1,397.6,558.6,398.3z"/>
	<path class="st6" d="M75.6,321.1c0.5,0.3,1.1,0.5,1.6,0.8c-6,2.7-12.2,5.1-17.9,8.2c-13.7,7.6-27.3,15.6-40.9,23.4
		c-0.3-0.3-0.6-0.6-0.9-0.9c12.2-9.3,25.5-16.8,39.3-23.4C62.9,326.3,69.3,323.8,75.6,321.1z"/>
	<path class="st7" d="M17.5,352.7c0.3,0.3,0.6,0.6,0.9,0.9c-5.8,4.4-11.6,8.7-17.4,13.1c-0.3-0.4-0.6-0.8-1-1.2
		C5.8,361.2,11.6,357,17.5,352.7z"/>
	<path class="st8" d="M601.3,442.3c-0.6,0.3-1.1,0.6-1.7,0.9c-0.2,0-0.4,0-0.5-0.1c-0.6-0.2-1.1-0.4-1.7-0.6c-0.2,0-0.4,0-0.5-0.1
		c-0.5-0.2-1.1-0.4-1.6-0.6c-2.7-1-5.4-2-8-3c0.8-0.2,1.5-0.5,2.3-0.7C593.4,439.4,597.4,440.9,601.3,442.3z"/>
	<path class="st9" d="M509.5,405.3c-3,0-6,0-9,0C503.4,405.3,506.5,405.3,509.5,405.3z"/>
	<path class="st9" d="M519.7,405.5c-1.8-0.1-3.6-0.1-5.3-0.2C516.2,405.4,518,405.4,519.7,405.5z"/>
	<path class="st4" d="M595.2,441.7c0.5,0.2,1.1,0.4,1.6,0.6C596.3,442.1,595.8,441.9,595.2,441.7z"/>
	<path class="st4" d="M597.4,442.4c0.6,0.2,1.1,0.4,1.7,0.6C598.5,442.9,597.9,442.6,597.4,442.4z"/>
	<path class="st10" d="M247.6,289.5c0.3-0.1,0.6-0.2,0.8-0.3C248.1,289.3,247.9,289.4,247.6,289.5z"/>
	<path class="st10" d="M268.9,289.2c0.3,0.1,0.5,0.2,0.8,0.3C269.4,289.4,269.2,289.3,268.9,289.2z"/>
	<path class="st6" d="M77,320.5c-0.4,0.2-0.7,0.4-1.1,0.5C76.3,320.8,76.7,320.7,77,320.5z"/>
	<path class="st5" d="M560.1,397.5c-0.4,0.2-0.7,0.4-1.1,0.6C559.4,397.9,559.7,397.7,560.1,397.5z"/>
	<path class="st11" d="M485.9,413.1c-2.4-0.9-4.9-1.8-7.3-2.7c-5.2-2.1-10.4-4.3-15.6-6.4c-6.2-2.5-12.4-5.1-18.6-7.6
		c-1.2-0.5-2.4-1.3-3.5-1.9c0-0.3,0-0.5,0-0.8c2.3-0.5,4.6-0.8,6.9-1.4c4-1.1,7.9-2.4,11.8-3.6c0.7,0.3,1.5,0.4,2,0.8
		c4.6,3.4,9.1,7,13.7,10.4c0.5,0.4,1.1,0.7,1.7,1c0.1-0.2,0.2-0.4,0.3-0.6c-5.3-4.1-10.7-8.1-16-12.2c4.2-3,6.9-7.2,9.2-11.7
		c1.6-4,3.2-8.1,4.9-12.2c5.2,16.8,10.4,33.5,15.8,50.7C489.2,414.2,487.6,413.7,485.9,413.1z"/>
	<path class="st12" d="M561.4,401.9c8.6,6.6,17.3,13.1,25.9,19.7c-0.2,0.3-0.4,0.6-0.6,0.9c-0.9-0.5-1.9-1-2.7-1.6
		c-7.4-5.6-14.8-11.3-22.2-16.9c-0.9-0.7-2.2-0.9-3.3-1.4C559.6,402.5,560.5,402.2,561.4,401.9z"/>
</g>
</svg>
