<?xml version="1.0" encoding="utf-8"?>
<!-- Generator: Adobe Illustrator 26.0.1, SVG Export Plug-In . SVG Version: 6.00 Build 0)  -->
<svg version="1.1" id="Layer_1" xmlns="http://www.w3.org/2000/svg" xmlns:xlink="http://www.w3.org/1999/xlink" x="0px" y="0px"
	 viewBox="0 0 1920 1080" style="enable-background:new 0 0 1920 1080;" xml:space="preserve">
<style type="text/css">
	.st0{display:none;fill:#CDCDCD;}
	.st1{fill:#0E1117;}
	.st2{display:none;fill:#BBBABA;}
	.st3{display:none;fill:#BBBCBC;}
</style>
<g>
	<path class="st0" d="M1920,1080c-640,0-1279.9,0-1920,0C0,720.1,0,360.1,0,0c639.9,0,1280,0,1920,0
		C1920,359.9,1920,719.9,1920,1080z M1146.9,175c-22.3,0-44.6,0-66.9,0c-3.7,0-7.4,0-11,0c-4.3,0-8.6,0-13,0c-7,0-14,0-21.1,0
		c-3.7,0-7.3,0-11,0c-0.7,0-1.4,0-2,0c-0.6,0-1.3,0-1.9,0c-3,0-6,0-9.1,0c-1.7,0-3.3,0-5,0c-3,0-6,0-9,0c-2.3,0-4.6,0-7,0
		c-1.7,0-3.4,0-5,0c-0.7,0-1.3,0-2,0c-6,0-12,0-18,0c-6,0-12,0-18,0c-3.3,0-6.7,0-10,0c-7,0-14,0-21,0c-2.3,0-4.7,0-7,0
		c-5,0-10,0-15,0c-7,0-14,0-21,0c-17.7,0-35.3,0-53,0c-1.7,0-3.4,0-5,0c-6.7,0-13.3,0-20,0c-4.3,0-8.7,0-13,0c-1.3,0-2.6,0-4,0
		c-6,0-12,0-18,0c-2.3,0-4.6,0-7,0c-5,0-10,0-15,0c-22,0-44,0-66,0c-4,0-8,0-12,0c-3.3,0-6.6,0-10,0c-3,0-6,0-9,0c-3,0-6,0-9,0
		c-2.4,0-4.7,0-7.1,0c-1.6,0-3.3,0-4.9,0c-1.7,0-3.4,0-5,0c-3.7,0-7.3,0-11,0c-6.3,0-12.7,0-19,0c-2.3,0-4.6,0-7,0
		c-1.4,0-2.7,0-4.1,0c-3.6,0-7.2,0-10.7,0c0,35,0,69.4,0,104c18.5,0,36.6,0,54.8,0c120.9,0,241.8,0,362.8,0c69.8,0,139.6,0,209.4,0
		c53.3,0,106.6-0.1,159.9-0.1c2.6,1.3,5.1,2.3,7-0.9c0-34.2,0-68.4,0-102.9c-5,0-9.5,0-14,0c-4.3,0-8.7,0-13,0c-5.3,0-10.6,0-16,0
		c-3.7,0-7.4,0-11,0c-5.7,0-11.3,0-17,0c-5.7,0-11.4,0-17,0c-0.7,0-1.3,0-2,0c-1,0-2,0-3,0c-4.3,0-8.6,0-13,0c-2.7,0-5.4,0-8,0
		c-0.7,0-1.3,0-2,0c-4.7,0-9.4,0-14,0c-15,0-30,0-45,0c-4,0-8,0-12,0c-3,0-6,0-9,0c-3,0-6,0-9,0c-0.7,0-1.3,0-2,0
		C1149,175,1147.9,175,1146.9,175z M563.1,592.7c264.9,0,529.3,0,793.8,0c0-34.6,0-68.8,0-103.4c-264.7,0-529.1,0-793.8,0
		C563.1,523.9,563.1,558.2,563.1,592.7z M1356.8,803.7c-264.7,0-529.2,0-793.7,0c0,34.6,0,68.8,0,103.3c264.7,0,529.1,0,793.7,0
		C1356.8,872.4,1356.8,838.2,1356.8,803.7z"/>
	<path class="st1" d="M563.1,592.7c0-34.6,0-68.8,0-103.4c264.7,0,529.1,0,793.8,0c0,34.6,0,68.8,0,103.4
		C1092.3,592.7,827.9,592.7,563.1,592.7z"/>
	<path class="st1" d="M1080,175c22.3,0,44.6,0,66.9,0c1,0,2,0,3,0c0.7,0,1.3,0,2,0c3,0,6,0,9,0c3,0,6,0,9,0c4,0,8,0,12,0
		c15,0,30,0,45,0c4.7,0,9.4,0,14,0c0.7,0,1.3,0,2,0c2.7,0,5.4,0,8,0c4.3,0,8.6,0,13,0c1,0,2,0,3,0c0.7,0,1.3,0,2,0
		c5.7,0,11.4,0,17,0c5.7,0,11.3,0,17,0c3.7,0,7.4,0,11,0c5.3,0,10.6,0,16,0c4.3,0,8.7,0,13,0c4.5,0,8.9,0,14,0
		c0,34.5,0,68.7,0,102.9c-2.3,0.3-4.7,0.6-7,0.9c-53.3,0-106.6,0.1-159.9,0.1c-69.8,0-139.6,0-209.4,0c-120.9,0-241.8,0-362.8,0
		c-18.1,0-36.3,0-54.8,0c0-34.6,0-69,0-104c3.5,0,7.1,0,10.7,0c1.4,0,2.7,0,4.1,0c2.3,0,4.6,0,7,0c6.3,0,12.7,0,19,0
		c3.7,0,7.3,0,11,0c1.7,0,3.4,0,5,0c1.6,0,3.3,0,4.9,0c2.4,0,4.7,0,7.1,0c3,0,6,0,9,0c3,0,6,0,9,0c3.3,0,6.6,0,10,0c4,0,8,0,12,0
		c22,0,44,0,66,0c5,0,10,0,15,0c2.3,0,4.6,0,7,0c6,0,12,0,18,0c1.3,0,2.6,0,4,0c4.3,0,8.7,0,13,0c6.7,0,13.3,0,20,0c1.7,0,3.4,0,5,0
		c17.7,0,35.3,0,53,0c7,0,14,0,21,0c5,0,10,0,15,0c2.3,0,4.7,0,7,0c7,0,14,0,21,0c3.3,0,6.7,0,10,0c6,0,12,0,18,0c6,0,12,0,18,0
		c0.7,0,1.3,0,2,0c1.7,0,3.4,0,5,0c2.3,0,4.6,0,7,0c3,0,6,0,9,0c1.7,0,3.3,0,5,0c3,0,6,0,9.1,0c0.6,0,1.3,0,1.9,0c0.7,0,1.4,0,2,0
		c3.7,0,7.3,0,11,0c7,0,14,0,21.1,0c4.3,0,8.6,0,13,0C1072.6,175,1076.3,175,1080,175z"/>
	<path class="st1" d="M1356.8,803.7c0,34.5,0,68.7,0,103.3c-264.6,0-529,0-793.7,0c0-34.4,0-68.7,0-103.3
		C827.7,803.7,1092.1,803.7,1356.8,803.7z"/>
	<path class="st2" d="M894,174.9c-7,0-14,0-21,0C879.9,175,887,175,894,174.9z"/>
	<path class="st2" d="M1056,175c-7,0-14,0-21.1,0C1041.9,175,1049,175,1056,175z"/>
	<path class="st2" d="M604,174.9c-6.3,0-12.7,0-19,0C591.3,175,597.6,175,604,174.9z"/>
	<path class="st2" d="M778,174.9c-6,0-12,0-18,0C765.9,175,771.9,174.9,778,174.9z"/>
	<path class="st2" d="M983,174.9c-6,0-12,0-18,0C970.9,175,977,175,983,174.9z"/>
	<path class="st2" d="M1286,174.9c-5.7,0-11.4,0-17,0C1274.6,175,1280.3,175,1286,174.9z"/>
	<path class="st2" d="M753,174.9c-5,0-10,0-15,0C742.9,175,747.9,174.9,753,174.9z"/>
	<path class="st2" d="M1241,174.9c-4.7,0-9.4,0-14,0C1231.6,175,1236.3,175,1241,174.9z"/>
	<path class="st2" d="M795,174.9c-4.3,0-8.7,0-13,0C786.3,175,790.6,175,795,174.9z"/>
	<path class="st2" d="M1343,174.9c-4.3,0-8.7,0-13,0C1334.3,175,1338.6,175,1343,174.9z"/>
	<path class="st2" d="M672,175c-4,0-8,0-12,0C663.9,175,667.9,175,672,175z"/>
	<path class="st2" d="M1182,174.9c-4,0-8,0-12,0C1173.9,175,1178,175,1182,174.9z"/>
	<path class="st2" d="M1080,175c-3.7,0-7.4,0-11,0C1072.6,175,1076.3,175,1080,175z"/>
	<path class="st2" d="M1314,174.9c-3.7,0-7.4,0-11,0C1306.6,175,1310.3,175,1314,174.9z"/>
	<path class="st2" d="M947,174.9c-3.3,0-6.7,0-10,0C940.3,175,943.6,174.9,947,174.9z"/>
	<path class="st2" d="M650,175c-3,0-6,0-9,0C643.9,175,646.9,175,650,175z"/>
	<path class="st2" d="M1020,175c-3,0-6,0-9.1,0C1013.9,175,1017,175,1020,175z"/>
	<path class="st2" d="M1161,174.9c-3,0-6,0-9,0C1154.9,175,1158,175,1161,174.9z"/>
	<path class="st2" d="M1006,174.9c-3,0-6,0-9,0C999.9,175,1003,175,1006,174.9z"/>
	<path class="st2" d="M1251,174.9c-2.7,0-5.4,0-8,0C1245.6,175,1248.3,174.9,1251,174.9z"/>
	<path class="st2" d="M632,174.9c-2.4,0-4.7,0-7.1,0C627.3,175,629.6,175,632,174.9z"/>
	<path class="st2" d="M916,174.9c-2.3,0-4.7,0-7,0C911.3,174.9,913.6,174.9,916,174.9z"/>
	<path class="st3" d="M1349.9,278.8c2.3-0.3,4.7-0.6,7-0.9C1355,281.2,1352.5,280.1,1349.9,278.8z"/>
	<path class="st2" d="M620,175c-1.7,0-3.4,0-5,0C616.6,175,618.3,175,620,175z"/>
	<path class="st2" d="M820,174.9c-1.7,0-3.4,0-5,0C816.6,175,818.3,175,820,174.9z"/>
	<path class="st2" d="M990,174.9c-1.7,0-3.4,0-5,0C986.6,175,988.3,175,990,174.9z"/>
	<path class="st2" d="M577.9,175c-1.4,0-2.7,0-4.1,0C575.2,175,576.6,175,577.9,175z"/>
	<path class="st2" d="M1150,174.9c-1,0-2,0-3,0C1147.9,175,1149,175,1150,174.9z"/>
	<path class="st2" d="M1267,175c-1,0-2,0-3,0C1265,175,1266,175,1267,175z"/>
	<path class="st2" d="M1024,174.9c-0.7,0-1.4,0-2,0C1022.6,175,1023.3,175,1024,174.9z"/>
</g>
</svg>
