<?xml version="1.0" encoding="utf-8"?>
<!-- Generator: Adobe Illustrator 26.0.1, SVG Export Plug-In . SVG Version: 6.00 Build 0)  -->
<svg version="1.1" id="Layer_1" xmlns="http://www.w3.org/2000/svg" xmlns:xlink="http://www.w3.org/1999/xlink" x="0px" y="0px"
	 viewBox="0 0 1920 1080" style="enable-background:new 0 0 1920 1080;" xml:space="preserve">
<style type="text/css">
	.st0{display:none;}
	.st1{fill:#FEFEFE;}
	.st2{fill:#FDFDFD;}
	.st3{display:none;fill:#010101;}
</style>
<g>
	<path class="st0" d="M1920,1080c-640,0-1279.9,0-1920,0C0,720.1,0,360.1,0,0c639.9,0,1280,0,1920,0C1920,359.9,1920,720,1920,1080z
		 M959.8,974.8c1.8-1.9,3-3,4.1-4.3c20.7-26.8,42-53.1,62-80.4c23.6-32.1,46.8-64.5,68.9-97.6c18.7-28,36.5-56.6,52.9-86
		c17.5-31.4,33.5-63.7,49-96.1c10.4-21.7,19-44.2,27.8-66.6c9.8-25.1,17.3-51,23.8-77.1c6.4-25.6,11.4-51.6,13.5-77.8
		c1.7-21,1.9-42.3,1.2-63.3c-0.6-15.6-3.4-31.1-5.9-46.6c-5-31.7-16.4-61.2-31.9-89.2c-16.2-29.4-36.9-55.4-61.7-77.9
		c-15.8-14.4-33-27-51.5-37.7c-19.4-11.2-39.8-20.1-61.2-27c-22-7.1-44.5-11.5-67.4-13.1c-12.3-0.9-24.8-0.7-37.2-0.1
		c-13,0.7-26,2-38.8,4c-26.1,4-51,12.2-74.9,23.3C806.8,73.1,783,87.9,762.1,107c-11.3,10.3-22.3,20.9-32.5,32.3
		c-7.7,8.6-14.1,18.5-20.7,28c-17.1,24.8-29.8,51.7-38.6,80.6c-7.1,23.2-12,47-13.1,71.1c-1,22.1-0.2,44.3,0.8,66.4
		c0.6,12.6,2.7,25.2,4.9,37.6c3,17.1,5.6,34.4,10.4,51.1c7.8,27.2,16.3,54.2,26.2,80.7c8.9,23.9,19.7,47.1,30.4,70.3
		c9.8,21.1,20.3,41.9,31.3,62.4c10.1,18.8,21.1,37.1,32.1,55.3c11.5,18.9,23.1,37.7,35.3,56.1c13,19.4,26.6,38.5,40.3,57.4
		c14.4,19.9,29.1,39.5,44,59.1c10.8,14.2,22,28.1,33,42.1C950.4,963,954.9,968.7,959.8,974.8z M662.8,958.3c0-0.3,0.1-0.6,0.1-1
		c2.6-0.8,5.2-1.8,7.9-2.3c28.9-5.4,57.7-11.7,86.8-15.9c23-3.3,46.4-4.5,69.7-6c16.1-1,32.2-0.8,48.4-1.2
		c6.1-0.2,12.2-0.5,18.2-0.9c4.3-0.3,5.2-2.4,2.6-5.8c-9.4-12.4-18.9-24.7-28.1-37.3c-3.2-4.4-6.9-5.4-11.9-5.2
		c-16.4,0.9-32.9,1.3-49.3,2.3c-16.4,1-32.9,1.6-49.1,4.1c-31.5,4.7-62.8,10.2-94.1,16.1c-15.5,2.9-30.5,7.6-44.2,16
		c-5.8,3.6-8.9,8.5-8.8,15.6c0.2,16-0.1,32,0.2,47.9c0,3,1.1,6.3,2.7,8.8c5.5,8.5,14.5,12.3,23.5,15.2c16.2,5.3,32.6,10.5,49.3,14
		c20.7,4.3,41.6,7.4,62.6,10.2c21.5,2.9,43.2,5,64.9,7c14.9,1.4,30,2.3,44.9,3c19.9,0.9,39.8,1.9,59.7,2c31.6,0.1,63.3-0.3,94.9-0.8
		c18.4-0.3,36.7-1.1,55-2.1c18.3-1,36.7-2.3,54.9-4c18.4-1.7,36.9-3.3,55.2-6.1c24.1-3.7,48.1-7.9,71.9-13.2
		c17.4-3.8,34.7-8.8,49.6-19.6c5.5-4,8.2-8.8,8.2-15.4c0-15.3,0.1-30.6,0.1-46c0-7.3-2.8-12.8-9.3-16.8c-11.1-7-23.4-11.1-35.9-13.8
		c-26.4-5.6-52.8-10.9-79.4-15.2c-19.6-3.2-39.4-5.3-59.2-6.7c-21.2-1.5-42.5-1.5-63.8-2.4c-3.9-0.2-6.7,1.2-9,4.2
		c-9.6,12.6-19.3,25.2-28.8,37.9c-0.9,1.2-1.6,3.5-1.1,4.3c0.7,1.1,2.8,1.6,4.4,1.6c17.4,0.7,34.8,1.3,52.2,2
		c19.1,0.8,38.3,1.2,57.3,3.1c21.3,2.1,42.5,5.2,63.7,8.8c19.6,3.3,39,8,58.5,12c-8,2.9-16,4.9-24.1,6.1c-18.3,2.9-36.6,5.5-55,8.1
		c-11.4,1.6-22.9,2.9-34.4,3.9c-10.5,1-21.1,1.6-31.7,2.3c-18.3,1.2-36.7,2.5-55,3.5c-11.9,0.6-23.8,1-35.7,1
		c-32,0.2-63.9,0.7-95.9,0.2c-32.3-0.5-64.6-1.9-97-3c-10.7-0.4-21.3-1.2-32-2.1c-13.7-1.1-27.4-2.5-41.1-3.9
		c-9.8-1-19.7-1.8-29.5-3.2c-16-2.4-31.9-5.1-47.8-7.8C673.8,961,668.3,959.5,662.8,958.3z"/>
	<path class="st1" d="M959.8,974.8c-4.9-6.1-9.3-11.7-13.8-17.4c-11-14-22.2-27.9-33-42.1c-14.8-19.6-29.6-39.2-44-59.1
		c-13.7-18.9-27.3-38-40.3-57.4c-12.3-18.4-23.9-37.2-35.3-56.1c-11-18.2-22-36.5-32.1-55.3c-11-20.5-21.5-41.3-31.3-62.4
		c-10.8-23.1-21.5-46.4-30.4-70.3c-9.9-26.5-18.4-53.5-26.2-80.7c-4.8-16.7-7.4-34-10.4-51.1c-2.2-12.5-4.3-25-4.9-37.6
		c-1-22.1-1.8-44.3-0.8-66.4c1.1-24.2,6-47.9,13.1-71.1c8.8-28.8,21.4-55.8,38.6-80.6c6.6-9.6,13-19.4,20.7-28
		c10.2-11.4,21.2-22,32.5-32.3c20.9-19,44.7-33.9,70.3-45.7C856.2,50.2,881.2,42,907.2,38c12.9-2,25.9-3.3,38.8-4
		c12.4-0.7,24.8-0.8,37.2,0.1c23,1.6,45.5,6,67.4,13.1c21.3,6.9,41.7,15.8,61.2,27c18.6,10.7,35.7,23.3,51.5,37.7
		c24.9,22.6,45.5,48.6,61.7,77.9c15.4,28,26.9,57.5,31.9,89.2c2.4,15.5,5.3,31,5.9,46.6c0.8,21.1,0.5,42.3-1.2,63.3
		c-2.1,26.3-7.1,52.2-13.5,77.8c-6.5,26.2-13.9,52-23.8,77.1c-8.8,22.4-17.4,44.9-27.8,66.6c-15.5,32.4-31.5,64.7-49,96.1
		c-16.4,29.4-34.2,58-52.9,86c-22.1,33.1-45.4,65.5-68.9,97.6c-20,27.3-41.3,53.6-62,80.4C962.8,971.8,961.6,972.9,959.8,974.8z
		 M1097,326.4c0.2-77.6-61.4-136.4-133.6-137.9C883.3,186.8,823,250.8,823,325.3c0,74.4,59.3,140.2,142.9,137.3
		C1035.9,460.2,1095.9,403.7,1097,326.4z"/>
	<path class="st2" d="M662.8,958.3c5.5,1.2,11,2.7,16.5,3.7c15.9,2.8,31.8,5.5,47.8,7.8c9.8,1.4,19.6,2.2,29.5,3.2
		c13.7,1.4,27.4,2.7,41.1,3.9c10.6,0.9,21.3,1.7,32,2.1c32.3,1.2,64.6,2.6,97,3c31.9,0.5,63.9,0,95.9-0.2c11.9-0.1,23.8-0.4,35.7-1
		c18.4-1,36.7-2.3,55-3.5c10.6-0.7,21.2-1.3,31.7-2.3c11.5-1.1,23-2.4,34.4-3.9c18.3-2.5,36.7-5.2,55-8.1c8.1-1.3,16-3.3,24.1-6.1
		c-19.5-4.1-38.9-8.7-58.5-12c-21.1-3.6-42.3-6.7-63.7-8.8c-19-1.9-38.2-2.2-57.3-3.1c-17.4-0.8-34.8-1.3-52.2-2
		c-1.5-0.1-3.7-0.6-4.4-1.6c-0.6-0.9,0.2-3.2,1.1-4.3c9.5-12.7,19.2-25.3,28.8-37.9c2.3-3,5.1-4.3,9-4.2c21.3,0.8,42.6,0.9,63.8,2.4
		c19.8,1.4,39.6,3.5,59.2,6.7c26.6,4.3,53.1,9.6,79.4,15.2c12.5,2.7,24.8,6.8,35.9,13.8c6.5,4.1,9.3,9.5,9.3,16.8
		c-0.1,15.3-0.2,30.6-0.1,46c0,6.7-2.7,11.5-8.2,15.4c-14.9,10.8-32.2,15.8-49.6,19.6c-23.8,5.2-47.8,9.5-71.9,13.2
		c-18.3,2.8-36.8,4.4-55.2,6.1c-18.3,1.7-36.6,3-54.9,4c-18.3,1-36.7,1.8-55,2.1c-31.6,0.5-63.3,0.9-94.9,0.8
		c-19.9-0.1-39.8-1.1-59.7-2c-15-0.7-30-1.6-44.9-3c-21.6-2-43.3-4.1-64.9-7c-20.9-2.8-41.9-5.8-62.6-10.2
		c-16.7-3.5-33.1-8.7-49.3-14c-8.9-2.9-18-6.8-23.5-15.2c-1.6-2.5-2.6-5.8-2.7-8.8c-0.3-16,0-32-0.2-47.9c-0.1-7.1,3-12.1,8.8-15.6
		c13.6-8.3,28.7-13.1,44.2-16c31.3-5.9,62.6-11.4,94.1-16.1c16.2-2.4,32.7-3,49.1-4.1c16.4-1,32.9-1.5,49.3-2.3
		c4.9-0.3,8.7,0.8,11.9,5.2c9.1,12.6,18.7,24.8,28.1,37.3c2.6,3.4,1.6,5.5-2.6,5.8c-6.1,0.5-12.1,0.8-18.2,0.9
		c-16.1,0.4-32.3,0.2-48.4,1.2c-23.3,1.5-46.6,2.6-69.7,6c-29.1,4.2-57.9,10.5-86.8,15.9c-2.7,0.5-5.3,1.5-7.9,2.3
		C662.9,957.6,662.9,957.9,662.8,958.3z"/>
	<path class="st3" d="M1097,326.4c-1,77.3-61.1,133.8-131,136.3c-83.6,2.9-143-62.9-142.9-137.3c0-74.5,60.3-138.5,140.4-136.9
		C1035.5,189.9,1097.1,248.7,1097,326.4z"/>
</g>
</svg>
