<?xml version="1.0" encoding="utf-8"?>
<!-- Generator: Adobe Illustrator 26.0.1, SVG Export Plug-In . SVG Version: 6.00 Build 0)  -->
<svg version="1.1" id="Layer_1" xmlns="http://www.w3.org/2000/svg" xmlns:xlink="http://www.w3.org/1999/xlink" x="0px" y="0px"
	 viewBox="0 0 612 792" style="enable-background:new 0 0 612 792;" xml:space="preserve">
<style type="text/css">
	.st0{display:none;}
	.st1{fill:#FEFEFE;}
	.st2{fill:#8A8A8A;}
	.st3{fill:#8C8C8C;}
	.st4{fill:#8B8B8A;}
	.st5{fill:#808080;}
	.st6{fill:#6D6D6D;}
	.st7{fill:#767676;}
	.st8{fill:#2E2E2D;}
	.st9{fill:#777777;}
</style>
<g>
	<path class="st0" d="M612,139.9c0,170.9,0,341.8,0,512.7c-204,0-408,0-612,0c0-170.9,0-341.8,0-512.7
		C204,139.9,408,139.9,612,139.9z M125.5,385.2c-0.5-0.1-1-0.2-1.5-0.4c0.8-0.8,1.7-1.6,2.5-2.4c12.2-12.8,24.4-25.5,36.5-38.3
		c4.3-4.5,8.5-9.1,12.7-13.8c2-2.3,2-3.6,0.3-5.4c-3.5-3.6-7.1-7.2-10.7-10.7c-1.6-1.6-3.3-1.5-4.8-0.1c-1.9,1.7-3.9,3.5-5.7,5.4
		c-18.5,19.3-37,38.7-55.4,58c-4.4,4.6-8.6,9.3-12.9,13.9c-0.5,0.6-1.1,1.1-1.6,1.7c-2.9,3.5-2.9,3.9,0.4,7.2c3.9,4,7.8,7.9,11.5,12
		c13.2,14.5,26.2,29.1,39.4,43.7c9.1,10.1,18.3,20.1,27.5,30.1c2.3,2.5,3.6,2.4,6,0.1c2.9-2.9,5.8-5.8,8.7-8.7
		c3.2-3.2,3.4-4.3,0.4-7.8c-8-9.2-16-18.3-24.1-27.4c-10.3-11.6-20.6-23.1-30.9-34.6c0.3,0,0.6-0.1,1-0.1c0.6,0,1.3-0.1,1.9-0.1
		c66.6,0,133.2,0.1,199.7,0.1c12.7,0,25.5,0.1,38.2-0.1c5.2-0.1,10.5-0.8,15.7-1.1c2.1-0.1,2.8-1.4,2.8-3.1c0.1-4.7,0.1-9.3,0-14
		c0-1.7-0.7-3.1-2.7-3.2c-6.7-0.4-13.4-1.1-20.1-1.1c-75.3-0.1-150.6,0-225.9,0c-2,0-3.9,0.1-5.9,0.2
		C127.4,385.2,126.4,385.2,125.5,385.2z M506.4,567.1c0.2-10.6,0.5-21.2,0.4-31.8c-0.1-105.1-0.2-210.2-0.3-315.2
		c-0.1-0.5-0.2-1-0.3-1.5c-0.5-7.3-1-14.5-1.6-21.8c-0.5-5.5-4.3-9.4-10.1-9.9c-5.3-0.5-10.7-0.9-16-1c-8.5-0.2-16.9-0.3-25.4-0.3
		c-72.6,0.7-145.3-1.6-217.9,1.3c-4.7,0.2-9.3,0.7-13.2,4.1c-1.5,1.3-2.4,2.6-3,4.5c-2.2,6.8-2.2,13.9-2.7,20.9
		c-0.5,6.6-0.4,13.2-0.5,19.8c-0.1,14.2-0.1,28.3-0.1,42.5c0,1.9,0.5,3.9,2.8,4c5.8,0.2,11.6,0.1,17.3,0c0.8,0,2-1.2,2.1-2
		c0.4-2,0.5-4,0.5-6.1c0-18.7,0-37.5,0-56.2c0-3.7,2.8-8,5.6-8.3c3.7-0.4,7.3-0.7,11-1c3.2-0.1,6.4-0.2,9.5-0.4c0.6,0,1.3,0,1.9,0
		c0.3,0,0.6,0,1,0c0.4,0,0.8,0,1.2,0c52.8,0,105.6-0.1,158.5,0c16.8,0,33.6-0.6,50.4,1c2,0.2,5.5,2.2,5.6,3.5c0.3,3,0.6,6,0.6,8.9
		c0,110.1,0,220.1,0,330.2c0,7.5,0,15-0.2,22.5c-0.1,4.2-2.4,7.3-5.6,7.8c-3.4,0.5-6.9,1.1-10.3,1.1c-72.5-0.1-145-0.3-217.5-0.5
		c-2.5,0-5.1-0.6-7.4-1.6c-3.8-1.6-4.3-5.1-4.4-8.8c-0.1-20.1-0.3-40.1-0.5-60.2c0-2.1-0.9-3-3-3c-5.2,0-10.5,0-15.7,0
		c-2.4,0-3.7,1.5-3.7,3.9c0.2,22.6-0.5,45.1,0.9,67.7c0.3,5.4,1.1,10.6,2.2,15.8c1.1,4.7,5.1,6.4,8.4,7.8c3.6,1.5,8,1.5,12,1.6
		c10.1,0.3,20.3,0.3,30.4,0.4c24.1,0,48.1,0.1,72.2,0c48.6-0.2,97.2-0.5,145.8-0.8c4.6,0,9.1-0.7,13-3.5c0.9-0.7,1.9-1.6,2.3-2.7
		c2.6-5.9,2.2-12.3,2.8-18.5c0.4-4.2,0.1-8.5,0.2-12.8C506.2,568.1,506.3,567.6,506.4,567.1z"/>
	<path class="st1" d="M612,139.9c-204,0-408,0-612,0c0.1-0.2,0.2-0.4,0.2-0.5c0.6,0,1.3,0,1.9,0c202.6,0,405.1,0,607.7,0
		C610.6,139.4,611.3,139.7,612,139.9z"/>
	<path class="st2" d="M506.5,220.1c0.1,105.1,0.2,210.2,0.3,315.2c0,10.6-0.3,21.2-0.4,31.8c-0.1,0.5-0.2,1-0.3,1.5
		c0,4.3,0.3,8.6-0.2,12.8c-0.6,6.2-0.2,12.6-2.8,18.5c-0.5,1-1.4,2-2.3,2.7c-3.9,2.8-8.4,3.5-13,3.5c-48.6,0.3-97.2,0.6-145.8,0.8
		c-24.1,0.1-48.1,0-72.2,0c-10.1,0-20.3-0.1-30.4-0.4c-4.1-0.1-8.4-0.1-12-1.6c-3.4-1.4-7.4-3.1-8.4-7.8c-1.2-5.2-1.9-10.5-2.2-15.8
		c-1.5-22.6-0.7-45.1-0.9-67.7c0-2.5,1.3-3.9,3.7-3.9c5.2,0,10.5,0,15.7,0c2.1,0,3,0.8,3,3c0.1,20.1,0.3,40.1,0.5,60.2
		c0,3.7,0.6,7.2,4.4,8.8c2.3,1,4.9,1.6,7.4,1.6c72.5,0.2,145,0.4,217.5,0.5c3.4,0,6.9-0.5,10.3-1.1c3.2-0.5,5.5-3.6,5.6-7.8
		c0.2-7.5,0.2-15,0.2-22.5c0-110.1,0-220.1,0-330.2c0-3-0.4-6-0.6-8.9c-0.1-1.3-3.6-3.4-5.6-3.5c-16.8-1.6-33.6-1-50.4-1
		c-52.8,0-105.6,0-158.5,0c-0.4,0-0.8,0-1.2,0c-0.3,0-0.6,0-1,0c-0.6,0-1.3,0-1.9,0c-3.1-0.1-6.1-0.2-9.2-0.2
		c-0.1,0-0.2,0.4-0.3,0.6c-3.7,0.3-7.3,0.6-11,1c-2.8,0.3-5.6,4.6-5.6,8.3c0,18.7,0,37.5,0,56.2c0,2-0.1,4.1-0.5,6.1
		c-0.2,0.8-1.4,1.9-2.1,2c-5.8,0.2-11.6,0.2-17.3,0c-2.3-0.1-2.8-2.1-2.8-4c0-14.2,0-28.3,0.1-42.5c0-6.6-0.1-13.3,0.5-19.8
		c0.6-7,0.5-14.1,2.7-20.9c0.6-1.9,1.5-3.2,3-4.5c3.8-3.4,8.4-3.9,13.2-4.1c72.6-2.8,145.3-0.6,217.9-1.3c8.5-0.1,16.9,0,25.4,0.3
		c5.3,0.1,10.7,0.5,16,1c5.8,0.6,9.7,4.4,10.1,9.9c0.6,7.3,1.1,14.5,1.6,21.8C506.3,219.1,506.4,219.6,506.5,220.1z"/>
	<path class="st3" d="M128.3,385.2c2-0.1,3.9-0.2,5.9-0.2c75.3,0,150.6,0,225.9,0c6.7,0,13.4,0.7,20.1,1.1c2.1,0.1,2.7,1.4,2.7,3.2
		c0.1,4.7,0,9.3,0,14c0,1.7-0.7,3-2.8,3.1c-5.2,0.3-10.5,1-15.7,1.1c-12.7,0.2-25.5,0.1-38.2,0.1c-66.6,0-133.2,0-199.7-0.1
		c-0.6-1-1.2-2-1.9-2.9c-1.5-1.8-3.3-3.4-4.7-5.3c-0.6-0.9-1.1-2.6-0.7-3.4c0.8-1.5,2.4-2.7,3.5-4
		C124.6,389.7,126.5,387.4,128.3,385.2z"/>
	<path class="st4" d="M86.5,391.4c4.3-4.6,8.5-9.3,12.9-13.9c18.4-19.4,36.9-38.7,55.4-58c1.8-1.9,3.8-3.6,5.7-5.4
		c1.6-1.4,3.3-1.5,4.8,0.1c3.6,3.6,7.2,7.1,10.7,10.7c1.7,1.8,1.7,3.1-0.3,5.4c-4.1,4.7-8.4,9.3-12.7,13.8
		c-12.1,12.8-24.3,25.5-36.5,38.3c-0.8,0.8-1.7,1.6-2.5,2.4c-3.3,3.4-6.7,6.8-10,10.3c-0.6,0.6-1,1.4-1.4,2.1c-0.1,0-0.3,0-0.4,0
		c-0.3,0.5-0.7,1-1,1.4c0,0,0,0,0,0c-0.2,0.2-0.3,0.3-0.5,0.5l0,0c-0.2,0.3-0.3,0.7-0.5,1c-0.4,0.4-0.7,0.8-1.1,1.2
		c-2.8,2.8-5.6,5.5-8.4,8.3c-0.3,0-0.7,0-1,0c-0.5,0.5-1,0.9-2,1.8c-4.4-4.6-8.7-9.2-13-13.8c0.1-0.1,0.1-0.3,0.2-0.4
		c1.2,0.3,2.3,0.6,4,1.1c-0.2-1.2-0.3-2.1-0.6-2.9C87.8,394,87.1,392.7,86.5,391.4z"/>
	<path class="st2" d="M86.5,391.4c0.6,1.3,1.3,2.6,1.9,3.9c0.3,0.8,0.4,1.7,0.6,2.9c-1.7-0.4-2.8-0.8-4-1.1
		c-0.1,0.1-0.1,0.3-0.2,0.4c4.3,4.6,8.6,9.1,13,13.8c1-0.9,1.5-1.3,2-1.8c0.3,0,0.7,0,1,0c2.8-2.8,5.6-5.5,8.4-8.3
		c0.4-0.4,0.7-0.8,1.1-1.2c0.2-0.3,0.3-0.7,0.5-1c0,0,0,0,0,0c0.2-0.2,0.3-0.3,0.5-0.5c0,0,0,0,0,0c0.3-0.5,0.7-1,1-1.4
		c0.1,0,0.3,0,0.4,0c1.1,0.8,2.4,1.4,3.3,2.3c2.6,2.6,5.1,5.4,7.7,8.2c10.3,11.5,20.7,23.1,30.9,34.6c8.1,9.1,16.2,18.2,24.1,27.4
		c3,3.5,2.8,4.6-0.4,7.8c-2.9,2.9-5.8,5.8-8.7,8.7c-2.4,2.3-3.7,2.4-6-0.1c-9.2-10-18.4-20-27.5-30.1
		c-13.1-14.5-26.2-29.1-39.4-43.7c-3.7-4.1-7.6-8-11.5-12c-3.2-3.3-3.3-3.7-0.4-7.2C85.3,392.5,85.9,392,86.5,391.4z"/>
	<path class="st5" d="M128.3,385.2c-1.9,2.2-3.7,4.5-5.6,6.7c-1.2,1.4-2.7,2.5-3.5,4c-0.4,0.8,0,2.5,0.7,3.4
		c1.4,1.9,3.1,3.5,4.7,5.3c0.7,0.9,1.3,1.9,1.9,2.9c-0.6,0-1.3,0.1-1.9,0.1c-2.2-2.7-4.3-5.4-6.5-8c-1.7-2.1-1.6-3.9,0.3-6
		c2.5-2.7,4.8-5.6,7.2-8.4C126.4,385.2,127.4,385.2,128.3,385.2z"/>
	<path class="st6" d="M125.5,385.2c-2.4,2.8-4.7,5.6-7.2,8.4c-1.9,2.1-2,3.8-0.3,6c2.2,2.6,4.3,5.3,6.5,8c-0.3,0-0.6,0.1-1,0.1
		c-2.6-2.7-5.1-5.5-7.7-8.2c-0.9-0.9-2.2-1.5-3.3-2.3c0.5-0.7,0.9-1.5,1.4-2.1c3.3-3.5,6.7-6.9,10-10.3
		C124.5,385,125,385.1,125.5,385.2z"/>
	<path class="st7" d="M255.1,209.1c0.1-0.2,0.2-0.6,0.3-0.6c3.1,0.1,6.1,0.1,9.2,0.2C261.5,208.9,258.3,209,255.1,209.1z"/>
	<path class="st8" d="M506.1,568.6c0.1-0.5,0.2-1,0.3-1.5C506.3,567.6,506.2,568.1,506.1,568.6z"/>
	<path class="st8" d="M506.5,220.1c-0.1-0.5-0.2-1-0.3-1.5C506.3,219.1,506.4,219.6,506.5,220.1z"/>
	<path class="st7" d="M266.6,208.7c0.3,0,0.6,0,1,0C267.2,208.7,266.9,208.7,266.6,208.7z"/>
	<path class="st9" d="M112.2,397.2c-0.3,0.5-0.7,1-1,1.4C111.5,398.1,111.8,397.7,112.2,397.2z"/>
	<path class="st9" d="M110.7,399.1c-0.2,0.3-0.3,0.7-0.5,1C110.4,399.7,110.6,399.4,110.7,399.1z"/>
	<path class="st9" d="M100.8,409.5c-0.3,0-0.7,0-1,0C100.1,409.5,100.4,409.5,100.8,409.5z"/>
	<path class="st9" d="M111.2,398.6c-0.2,0.2-0.3,0.3-0.5,0.5C110.9,398.9,111,398.8,111.2,398.6z"/>
</g>
</svg>
