<?xml version="1.0" encoding="utf-8"?>
<!-- Generator: Adobe Illustrator 26.0.1, SVG Export Plug-In . SVG Version: 6.00 Build 0)  -->
<svg version="1.1" id="Layer_1" xmlns="http://www.w3.org/2000/svg" xmlns:xlink="http://www.w3.org/1999/xlink" x="0px" y="0px"
	 viewBox="0 0 1920 1080" style="enable-background:new 0 0 1920 1080;" xml:space="preserve">
<style type="text/css">
	.st0{display:none;fill:#000100;}
	.st1{fill:#FDFDFD;}
	.st2{fill:#FEFEFE;}
</style>
<g>
	<path class="st0" d="M0,1080C0,720,0,360,0,0c640,0,1280,0,1920,0c0,360,0,720,0,1080C1280,1080,640,1080,0,1080z M330.9,292.3
		c419.5,0,838.7,0,1258.3,0c0-10.9-0.1-21.3,0-31.6c0.1-12.8,0.4-25.7,0.5-38.5c0.1-11.4-0.1-22.8-0.1-34.1c0-8.4,0.1-16.7,0.1-25.1
		c0-3.1-1-5.2-4.6-4.8c-1.8,0.2-3.7,0-5.5,0c-88.2,0-176.4,0-264.6,0c-56.1,0-112.2,0.4-168.4,0.4c-27.4,0-54.7-0.4-82.1-0.4
		c-34.7-0.1-69.4,0-104.1,0c-63.1,0-126.2,0-189.3,0c-37,0-74.1,0-111.1,0c-57,0-114.1,0-171.1,0c-32.6,0-65.2,0-97.9,0
		c-19.8,0-39.6,0-60.1,0C330.9,203,330.9,247.6,330.9,292.3z M330.7,609.7c419.9,0,838.9,0,1258.4,0c0-44.7,0-89.1,0-133.8
		c-419.8,0-839,0-1258.4,0C330.7,520.9,330.7,565.2,330.7,609.7z M1589.6,793.1c-420,0-839.3,0-1258.6,0c0,44.9,0,89.3,0,133.9
		c22.1,0,43.4,0,64.8,0c42.7,0,85.4,0,128.1,0c31.4,0,62.8,0.3,94.2,0.3c25.1,0,50.2-0.3,75.3-0.3c34.8-0.1,69.7,0,104.5,0
		c2.5,0,4.9,0.1,7.4,0.1c22.6,0,45.2-0.1,67.8-0.1c10.7,0,21.5,0.6,32.2,0.5c19-0.1,38.1-0.5,57.1-0.5c13.7,0,27.5,0.4,41.2,0.4
		c30.6-0.1,61.1-0.4,91.7-0.4c24.6,0,49.2,0.5,73.8,0.5c16.2,0,32.4-0.5,48.7-0.6c34.7,0,69.4,0.1,104.1,0.1
		c47.7,0,95.4-0.1,143.1-0.1c2.5,0,4.9,0.6,7.4,0.6c22.7-0.1,45.5-0.4,68.2-0.5c15.3-0.1,30.5-0.2,45.8-0.1c2.9,0,3.2-1.6,3.2-3.7
		c-0.1-9-0.2-18.1-0.2-27.1c0-16.3,0.2-32.5,0.2-48.8C1589.6,829.6,1589.6,811.7,1589.6,793.1z"/>
	<path class="st1" d="M330.9,292.3c0-44.7,0-89.3,0-134.2c20.5,0,40.3,0,60.1,0c32.6,0,65.2,0,97.9,0c57,0,114.1,0,171.1,0
		c37,0,74.1,0,111.1,0c63.1,0,126.2,0,189.3,0c34.7,0,69.4-0.1,104.1,0c27.4,0.1,54.7,0.5,82.1,0.4c56.1,0,112.2-0.4,168.4-0.4
		c88.2-0.1,176.4,0,264.6,0c1.8,0,3.7,0.2,5.5,0c3.7-0.4,4.7,1.7,4.6,4.8c0,8.4-0.1,16.7-0.1,25.1c0,11.4,0.2,22.8,0.1,34.1
		c-0.1,12.8-0.4,25.7-0.5,38.5c-0.1,10.4,0,20.7,0,31.6C1169.6,292.3,750.4,292.3,330.9,292.3z"/>
	<path class="st2" d="M330.7,609.7c0-44.5,0-88.8,0-133.8c419.5,0,838.6,0,1258.4,0c0,44.7,0,89.1,0,133.8
		C1169.7,609.7,750.6,609.7,330.7,609.7z"/>
	<path class="st2" d="M1589.6,793.1c0,18.5,0,36.4,0,54.3c0,16.3-0.2,32.5-0.2,48.8c0,9,0.2,18.1,0.2,27.1c0,2.1-0.3,3.7-3.2,3.7
		c-15.3-0.1-30.5,0-45.8,0.1c-22.7,0.1-45.5,0.4-68.2,0.5c-2.4,0-4.9-0.6-7.4-0.6c-47.7,0-95.4,0.1-143.1,0.1
		c-34.7,0-69.4-0.2-104.1-0.1c-16.2,0-32.4,0.6-48.7,0.6c-24.6,0-49.2-0.5-73.8-0.5c-30.6,0-61.1,0.3-91.7,0.4
		c-13.7,0-27.5-0.4-41.2-0.4c-19,0.1-38.1,0.5-57.1,0.5c-10.7,0-21.5-0.5-32.2-0.5c-22.6-0.1-45.2,0.1-67.8,0.1
		c-2.5,0-4.9-0.1-7.4-0.1c-34.8,0-69.7,0-104.5,0c-25.1,0-50.2,0.3-75.3,0.3c-31.4,0-62.8-0.3-94.2-0.3c-42.7-0.1-85.4,0-128.1,0
		c-21.4,0-42.8,0-64.8,0c0-44.6,0-89,0-133.9C750.3,793.1,1169.5,793.1,1589.6,793.1z"/>
</g>
</svg>
