<svg id="Layer_1" data-name="Layer 1" xmlns="http://www.w3.org/2000/svg" viewBox="0 0 467.05 467.19"><defs><style>.cls-1{fill:#f01a0a;}.cls-2{fill:#edeaea;}.cls-3{fill:#eeecec;}.cls-4{fill:#eeeded;}.cls-5{fill:#ebcdcc;}.cls-6{fill:#ebc8c8;}</style></defs><path class="cls-1" d="M940.58,239.25c62.5-3.25,123.55,19,173.47,68.38,36.89,36.48,59.5,81.4,65.86,133.25,9.32,76-12.57,142.59-66.29,197-41.89,42.45-94.09,65.14-153.86,67.93C891.19,709,832,685.37,783.39,637.56c-36.6-36-59.24-80.54-66-131.49-10.22-76.49,12.28-143.61,66.16-198.54C824,266.22,874.57,243.85,940.58,239.25ZM822,457.94c13.22,20.35,26.78,40.49,39.45,61.17,4.25,6.94,8.79,9.95,16.88,9.09,4.22-.45,5.69-1.25,5.66-5.69-.19-26.12-.09-52.25-.09-78.37V427.68H867.07V497l-1.09,0q-21.86-33.68-43.77-67.32c-.71-1.09-2.17-2.33-3.34-2.39-4.75-.27-9.53-.12-14.54-.12V528c4,0,7.84-.25,11.6.07,4.09.34,5.09-1.3,5.06-5.17-.15-21.64-.07-43.28-.06-64.92ZM1043.56,428c-3.42,0-6.44.24-9.4-.06-3.75-.39-5.41.76-6.46,4.69-5.33,20-11.07,39.94-16.7,59.89-.31,1.08-.86,2.09-1.66,4L994,428.34H977.55c7.55,33.43,15,66.43,22.52,99.66,4.15,0,8-.11,11.79,0,3.36.13,5-1.33,5.9-4.57,2.61-9.92,5.42-19.8,8.18-29.69,3.23-11.57,6.49-23.12,10.09-35.92.72,2,1,2.66,1.23,3.37,5.28,18.88,10.65,37.73,15.79,56.65,2.74,10.08,2.56,10.13,13.22,10.12a13.33,13.33,0,0,1,2,0c3.59.53,5-1.34,5.68-4.61,2.09-9.92,4.38-19.79,6.59-29.68,4.87-21.77,9.73-43.54,14.65-65.53h-16.35q-7.63,34-15.2,67.71l-.79-.14C1056.45,473.3,1050.05,450.82,1043.56,428ZM927.14,481h36.23V464.86h-37V443.64h36.42V427.22c-16.69,0-33,0-49.3,0-2.76,0-3.34,1.27-3.3,3.68.11,6,0,12,0,18q0,37,0,74c0,2.21-.75,4.9,3.1,4.88,15.82-.06,31.65,0,47.47-.12,1,0,2.85-1.43,2.91-2.29.29-4.57.13-9.18.13-14.24H927.14Z" transform="translate(-714.94 -238.94)"/><path class="cls-2" d="M1043.56,428c6.49,22.82,12.89,45.3,19.29,67.77l.79.14q7.59-33.8,15.2-67.71h16.35c-4.92,22-9.78,43.76-14.65,65.53-2.21,9.89-4.5,19.76-6.59,29.68-.69,3.27-2.09,5.14-5.68,4.61a13.33,13.33,0,0,0-2,0c-10.66,0-10.48,0-13.22-10.12-5.14-18.92-10.51-37.77-15.79-56.65-.2-.71-.51-1.4-1.23-3.37-3.6,12.8-6.86,24.35-10.09,35.92-2.76,9.89-5.57,19.77-8.18,29.69-.86,3.24-2.54,4.7-5.9,4.57-3.81-.15-7.64,0-11.79,0-7.51-33.23-15-66.23-22.52-99.66H994l15.36,68.17c.8-1.9,1.35-2.91,1.66-4,5.63-19.95,11.37-39.87,16.7-59.89,1-3.93,2.71-5.08,6.46-4.69C1037.12,428.24,1040.14,428,1043.56,428Z" transform="translate(-714.94 -238.94)"/><path class="cls-3" d="M867.07,497V427.68h16.85v16.46c0,26.12-.1,52.25.09,78.37,0,4.44-1.44,5.24-5.66,5.69-8.09.86-12.63-2.15-16.88-9.09-12.67-20.68-26.23-40.82-39.45-61.17l-1.23-2.35-.8.53c.31.62.62,1.24.94,1.86,0,21.64-.09,43.28.06,64.92,0,3.87-1,5.51-5.06,5.17-3.76-.32-7.56-.07-11.6-.07V427.22c5,0,9.79-.15,14.54.12,1.17.06,2.63,1.3,3.34,2.39q22,33.6,43.77,67.32l1.23,2.36.8-.53C867.7,498.26,867.39,497.64,867.07,497Z" transform="translate(-714.94 -238.94)"/><path class="cls-4" d="M927.14,481V511H963.8c0,5.06.16,9.67-.13,14.24-.06.86-1.89,2.28-2.91,2.29-15.82.14-31.65.06-47.47.12-3.85,0-3.09-2.67-3.1-4.88q0-37,0-74c0-6,.08-12,0-18,0-2.41.54-3.69,3.3-3.68,16.31.08,32.61,0,49.3,0v16.42H926.33v21.22h37V481Z" transform="translate(-714.94 -238.94)"/><path class="cls-5" d="M820.93,458c-.32-.62-.63-1.24-.94-1.86l.8-.53,1.23,2.35Z" transform="translate(-714.94 -238.94)"/><path class="cls-6" d="M867.07,497c.32.62.63,1.24.94,1.86l-.8.53L866,497.05Z" transform="translate(-714.94 -238.94)"/></svg>