<?xml version="1.0" encoding="utf-8"?>
<!-- Generator: Adobe Illustrator 26.0.1, SVG Export Plug-In . SVG Version: 6.00 Build 0)  -->
<svg version="1.1" id="Layer_1" xmlns="http://www.w3.org/2000/svg" xmlns:xlink="http://www.w3.org/1999/xlink" x="0px" y="0px"
	 viewBox="0 0 612 792" style="enable-background:new 0 0 612 792;" xml:space="preserve">
<style type="text/css">
	.st0{display:none;fill:#F1E101;}
	.st1{display:none;fill:#FEFEFE;}
	.st2{display:none;fill:#F1EFE8;}
	.st3{display:none;fill:#F1F0EA;}
	.st4{fill:#F1F1F0;}
</style>
<g>
	<path class="st0" d="M610.5,481.5c-203.1,0-406.3,0-609.4,0c0-56.8,0-113.7,0-170.5c203.1,0,406.2,0,609.3,0c0,2.5,0,4.6,0,6.8
		c-1.9,3.4-3.7,6.8-5.7,10.5c2,1.4,3.8,2.8,5.7,4.1c0,0.5,0.1,1.1,0.1,1.6c0,42.2,0,84.4,0,126.6c0,0.6-0.1,1.2-0.1,1.8
		c-1.9,1.3-3.7,2.6-5.7,4c2,3.7,3.9,7.1,5.8,10.5C610.5,478.4,610.5,480,610.5,481.5z M334.3,313.8c0.4,1.1,0.6,1.8,0.9,2.5
		c9.8,24.5,19.7,49,29.5,73.5c11.2,27.8,22.5,55.7,33.6,83.5c0.6,1.5,1.3,1.8,2.7,1.8c2.8-0.1,5.6-0.2,8.3,0.1
		c2.4,0.2,3.4-0.7,4.2-2.8c8.7-21.6,17.4-43.1,26.2-64.7c5.3-13,10.5-25.9,15.8-38.9c0.2-0.6,0.6-1.1,1-1.9c0.3,0.6,0.5,0.9,0.6,1.2
		c4.9,12.1,9.7,24.2,14.6,36.3c9.2,23,18.5,46,27.7,69.1c0.5,1.2,1.2,1.6,2.4,1.6c3.2,0,6.3-0.1,9.5,0.1c1.5,0.1,2.3-0.4,2.9-1.9
		c3.3-8.3,6.6-16.5,10-24.8c8.7-21.4,17.3-42.8,26-64.2c8.9-22.1,17.8-44.3,26.8-66.5c0.5-1.2,0.9-2.5,1.4-3.9
		c-0.6-0.1-0.9-0.2-1.2-0.2c-10.9,0-21.8,0-32.6,0.1c-0.7,0-1.8,1-2.2,1.7c-2.4,5.8-4.6,11.7-7,17.5c-5.4,13.7-10.9,27.4-16.4,41.1
		c-3.8,9.5-7.6,19.1-11.4,28.9c-0.3-0.5-0.5-0.8-0.6-1.1c-5.1-12.6-10.3-25.2-15.4-37.7c-6.6-16.3-13.2-32.6-19.8-48.9
		c-0.3-0.7-1.4-1.4-2.1-1.4c-8.6-0.1-17.3,0-25.9-0.1c-1.3,0-1.9,0.4-2.4,1.6c-1.4,3.7-2.9,7.3-4.3,10.9
		c-9.1,22.6-18.2,45.1-27.3,67.7c-1.2,2.9-2.4,5.9-3.8,9.4c-1-2.5-1.7-4.3-2.5-6.2c-5.4-13.4-10.7-26.8-16.1-40.2
		c-5.6-14-11.2-27.9-16.9-41.9c-0.3-0.7-1.5-1.3-2.3-1.3c-3.7-0.1-7.4-0.1-11.1-0.1C349.5,313.8,342.1,313.8,334.3,313.8z
		 M150.7,415.4c-0.2,0.1-0.5,0.3-0.7,0.4c-0.3-0.5-0.6-1.1-0.9-1.5c-6.4-7.3-12.8-14.6-19.2-21.9c-9-10.2-17.9-20.5-26.9-30.8
		c-12.4-14.1-24.8-28.2-37.1-42.3c-4.8-5.5-4.7-5.6-12.1-5.6c-0.7,0-1.4,0-2.1,0c-5.7,0-11.4,0-17.2,0c-0.1,1-0.2,1.8-0.2,2.5
		c0,19.3,0,38.6,0,57.8c0,20.7,0,41.4,0,62c0,11.8,0,23.7-0.1,35.5c0,1.8,0.5,2.3,2.4,2.3c9.4-0.1,18.8-0.1,28.2,0
		c2.4,0,2.9-0.8,2.9-3.1c-0.1-31.8,0-63.6,0-95.4c0-0.8,0-1.6,0-2.4c0.3-0.2,0.5-0.3,0.8-0.5c0.2,0.5,0.4,1,0.7,1.4
		c12.7,14.7,25.5,29.4,38.3,44.1c15.5,17.9,31.1,35.7,46.6,53.6c1.4,1.7,2.9,2.2,4.9,2.2c6.4-0.1,12.8,0,19.2,0c1.9,0,3.8,0,5.7,0
		c0-53.6,0-106.8,0-160.1c-11.1,0-22,0-33.2,0C150.7,347.8,150.7,381.6,150.7,415.4z M224.4,473.9c4.7,0,9.2,0,13.6,0
		c27.5,0,55,0,82.6,0.1c2.1,0,2.5-0.7,2.5-2.7c-0.1-5.6,0-11.2,0.1-16.8c0-4.3,0-8.6,0-13.2c-21.6,0-42.9,0-64,0
		c0-10.8,0-21.3,0-32.1c20,0,39.9,0,59.8,0c0-10.8,0-21.4,0-32.3c-20.1,0-39.9,0-59.8,0c0-10.4,0-20.6,0-30.9c1.7,0,3.2,0,4.7,0
		c18.5,0,37,0.1,55.4,0.1c1.5,0,2-0.5,1.9-2c-0.1-9.3,0-18.6,0-27.9c0-0.8-0.1-1.6-0.2-2.4c-32.3,0-64.4,0-96.6,0
		C224.4,367.2,224.4,420.4,224.4,473.9z"/>
	<path class="st1" d="M610.4,317.8c0-2.2,0-4.3,0-6.8c-203.1,0-406.2,0-609.3,0c0.1-0.2,0.1-0.4,0.2-0.4c0.6,0,1.2,0,1.9,0
		c202.6,0,405.2,0,607.8,0c0,2.8,0,5.5,0,8.3C610.8,318.5,610.6,318.1,610.4,317.8z"/>
	<path class="st1" d="M610.4,462.4c0-0.6,0.1-1.2,0.1-1.8c0-42.2,0-84.4,0-126.6c0-0.5,0-1.1-0.1-1.6c0.2-0.2,0.3-0.4,0.5-0.6
		c0,43.8,0,87.5,0,131.3C610.7,462.8,610.6,462.6,610.4,462.4z"/>
	<path class="st2" d="M610.9,331.8c-0.2,0.2-0.3,0.4-0.5,0.6c-1.8-1.3-3.7-2.7-5.7-4.1c2-3.6,3.8-7.1,5.7-10.5
		c0.2,0.4,0.3,0.7,0.5,1.1C610.9,323.1,610.9,327.4,610.9,331.8z"/>
	<path class="st3" d="M610.4,462.4c0.2,0.2,0.4,0.4,0.5,0.6c0,4.3,0,8.6,0,12.9c-0.2,0.3-0.3,0.6-0.5,0.9c-1.9-3.4-3.8-6.8-5.8-10.5
		C606.7,465,608.5,463.7,610.4,462.4z"/>
	<path class="st1" d="M610.5,476.9c0.2-0.3,0.3-0.6,0.5-0.9c-0.2,1.8-0.3,3.7-0.5,5.5C610.5,480,610.5,478.4,610.5,476.9z"/>
	<path class="st4" d="M334.3,313.8c7.9,0,15.3,0,22.7,0c3.7,0,7.4-0.1,11.1,0.1c0.8,0,2,0.7,2.3,1.3c5.7,13.9,11.3,27.9,16.9,41.9
		c5.4,13.4,10.7,26.8,16.1,40.2c0.7,1.8,1.5,3.7,2.5,6.2c1.4-3.5,2.6-6.4,3.8-9.4c9.1-22.6,18.2-45.1,27.3-67.7
		c1.5-3.6,2.9-7.3,4.3-10.9c0.4-1.2,1.1-1.6,2.4-1.6c8.6,0.1,17.3,0,25.9,0.1c0.7,0,1.8,0.8,2.1,1.4c6.7,16.3,13.2,32.6,19.8,48.9
		c5.1,12.6,10.2,25.2,15.4,37.7c0.1,0.3,0.4,0.6,0.6,1.1c3.9-9.8,7.6-19.3,11.4-28.9c5.4-13.7,10.9-27.4,16.4-41.1
		c2.3-5.8,4.6-11.7,7-17.5c0.3-0.8,1.4-1.7,2.2-1.7c10.9-0.1,21.7-0.1,32.6-0.1c0.3,0,0.6,0.1,1.2,0.2c-0.5,1.4-0.9,2.6-1.4,3.9
		c-8.9,22.2-17.8,44.3-26.8,66.5c-8.6,21.4-17.3,42.8-26,64.2c-3.3,8.2-6.7,16.5-10,24.8c-0.6,1.5-1.4,2-2.9,1.9
		c-3.1-0.1-6.3-0.1-9.5-0.1c-1.2,0-1.9-0.4-2.4-1.6c-9.2-23-18.4-46-27.7-69.1c-4.9-12.1-9.7-24.2-14.6-36.3
		c-0.1-0.3-0.3-0.5-0.6-1.2c-0.4,0.8-0.7,1.3-1,1.9c-5.3,12.9-10.5,25.9-15.8,38.9c-8.7,21.6-17.5,43.1-26.2,64.7
		c-0.8,2.1-1.8,3-4.2,2.8c-2.7-0.3-5.5-0.1-8.3-0.1c-1.4,0-2.1-0.3-2.7-1.8c-11.1-27.9-22.4-55.7-33.6-83.5
		c-9.9-24.5-19.7-49-29.5-73.5C334.8,315.6,334.6,314.9,334.3,313.8z"/>
	<path class="st4" d="M150.7,415.4c0-33.8,0-67.6,0-101.5c11.2,0,22.1,0,33.2,0c0,53.3,0,106.5,0,160.1c-1.9,0-3.8,0-5.7,0
		c-6.4,0-12.8-0.1-19.2,0c-2.1,0-3.5-0.6-4.9-2.2c-15.5-17.9-31.1-35.8-46.6-53.6c-12.8-14.7-25.5-29.4-38.3-44.1
		c-0.3-0.4-0.5-0.9-0.7-1.4c-0.3,0.2-0.5,0.3-0.8,0.5c0,0.8,0,1.6,0,2.4c0,31.8,0,63.6,0,95.4c0,2.2-0.4,3.1-2.9,3.1
		c-9.4-0.1-18.8-0.1-28.2,0c-1.8,0-2.4-0.5-2.4-2.3c0.1-11.8,0.1-23.7,0.1-35.5c0-20.7,0-41.4,0-62c0-19.3,0-38.6,0-57.8
		c0-0.8,0.1-1.5,0.2-2.5c5.8,0,11.5,0,17.2,0c0.7,0,1.4,0,2.1,0c7.4,0,7.3,0.1,12.1,5.6c12.3,14.1,24.7,28.2,37.1,42.3
		c9,10.2,17.9,20.5,26.9,30.8c6.4,7.3,12.8,14.6,19.2,21.9c0.4,0.4,0.6,1,0.9,1.5C150.2,415.7,150.4,415.5,150.7,415.4z"/>
	<path class="st4" d="M224.4,473.9c0-53.5,0-106.6,0-160c32.2,0,64.3,0,96.6,0c0.1,0.8,0.2,1.6,0.2,2.4c0,9.3,0,18.6,0,27.9
		c0,1.5-0.4,2-1.9,2c-18.5-0.1-37-0.1-55.4-0.1c-1.5,0-3,0-4.7,0c0,10.3,0,20.4,0,30.9c19.9,0,39.8,0,59.8,0c0,10.9,0,21.5,0,32.3
		c-19.9,0-39.8,0-59.8,0c0,10.7,0,21.2,0,32.1c21.2,0,42.4,0,64,0c0,4.6,0,8.9,0,13.2c0,5.6-0.1,11.2-0.1,16.8
		c0,1.9-0.4,2.7-2.5,2.7c-27.5-0.1-55-0.1-82.6-0.1C233.5,473.9,229.1,473.9,224.4,473.9z"/>
</g>
</svg>
