<?xml version="1.0" encoding="utf-8"?>
<!-- Generator: Adobe Illustrator 27.3.1, SVG Export Plug-In . SVG Version: 6.00 Build 0)  -->
<svg version="1.1" id="Layer_1" xmlns="http://www.w3.org/2000/svg" xmlns:xlink="http://www.w3.org/1999/xlink" x="0px" y="0px"
	 viewBox="0 0 1415 1286" style="enable-background:new 0 0 1415 1286;" xml:space="preserve">
<style type="text/css">
	.st0{display:none;}
	.st1{fill:#FFFFFF;}
</style>
<g>
	<path class="st0" d="M0,1286C0,857.33,0,428.67,0,0c471.67,0,943.33,0,1415,0c0,428.67,0,857.33,0,1286
		C943.33,1286,471.67,1286,0,1286z M1140.17,797.39c3.29,8.53,5.92,15.8,8.88,22.94c6.23,15.06,13.94,29.35,25.82,40.68
		c20.09,19.16,44.26,25.64,71.64,22.1c27.67-3.58,46.12-19.2,58.34-43.26c9.09-17.9,15.2-36.94,19.03-56.57
		c4.23-21.72,7.79-43.58,11.07-65.46c2.75-18.32,5.08-36.73,6.87-55.17c2.11-21.8,3.79-43.66,5-65.53
		c1.17-21.08,1.85-42.21,2.08-63.33c0.2-18.29-0.44-36.59-0.88-54.88c-0.26-10.62-0.2-21.3-1.45-31.82
		c-2.81-23.84-5.45-47.76-9.84-71.33c-3.89-20.89-8.79-41.77-15.52-61.9c-10.49-31.4-27.87-59.09-50.2-83.72
		c-15.48-17.07-33.2-31.29-52.79-43.12c-18.55-11.2-38.15-20.58-59.17-26.09c-14.8-3.88-29.96-6.89-45.15-8.66
		c-11.96-1.39-24.34-1.37-36.31,0c-16.04,1.84-32.06,4.84-47.74,8.73c-18.03,4.47-33.77,14.04-48.64,25.09
		c-1.89,1.4-5.41,1.22-8.03,0.83c-2.14-0.32-4.07-2.05-6.11-3.14c-19.35-10.34-38.39-21.33-58.12-30.87
		c-27.17-13.14-55.25-24.16-84.3-32.6c-30.33-8.81-61.33-13.64-92.77-15.16c-26.06-1.25-52.19-1.26-78.08,2.83
		c-16.63,2.63-33.41,4.78-49.74,8.75c-39.05,9.48-76.01,24.78-111.78,42.9c-16.65,8.44-32.82,17.82-49.17,26.84
		c-3.72,2.05-6.9,2.29-10.36-0.85c-3.14-2.86-6.8-5.19-10.38-7.51c-19.73-12.83-41.55-19.7-64.66-23.42
		c-23.77-3.83-47.41-4.48-71.27-0.83c-34.79,5.32-66.56,18.44-96.05,37.09c-24.01,15.18-44.25,34.58-61.45,57.33
		c-21.52,28.45-35.53,60.23-43.93,94.64c-6.67,27.31-11.64,54.93-14.1,82.96c-1.72,19.66-4.18,39.33-4.58,59.03
		c-0.59,29.2,0.26,58.42,0.67,87.63c0.13,9.27,0.63,18.55,1.28,27.8c1.08,15.21,2.32,30.41,3.67,45.6
		c1.65,18.44,3.12,36.91,5.36,55.29c2.06,16.9,4.89,33.71,7.64,50.51c4.88,29.83,11.08,59.29,24.67,86.69
		c10.05,20.26,24.04,35.96,46.66,42.15c24.26,6.64,47.46,4.51,69.36-8.51c20.13-11.97,31.27-30.92,40.19-51.55
		c3.11-7.2,5.61-14.67,8.54-22.41c0.97,2.29,1.97,4.04,2.47,5.93c5.07,18.93,9.82,37.95,15.1,56.82
		c10.17,36.34,20.7,72.54,35.86,107.26c14.05,32.19,31.98,61.63,57.05,86.5c17.2,17.06,36.74,30.49,59.47,38.89
		c19.1,7.06,38.83,11.16,59.25,12.7c21.84,1.64,43.48,0.42,65.12-1.97c3.4-0.38,5.81,0.27,8.51,2.37
		c10.04,7.83,19.93,15.94,30.59,22.85c15.92,10.34,32.98,18.6,50.97,24.85c16.6,5.76,33.4,11.05,51.15,10.47
		c23.52-0.76,45.17-9.38,66.39-18.47c22.12-9.47,41.67-23.37,60.15-38.68c3.01-2.49,5.82-4.05,9.82-3.6
		c9.66,1.09,19.34,2.45,29.04,2.78c20.08,0.69,40.06,0.05,59.98-3.63c30.16-5.58,57.56-16.88,81.32-36.42
		c25.68-21.12,44.93-47.35,60.15-76.69c11.59-22.34,20.81-45.68,28.22-69.68c8.41-27.25,16.27-54.67,24.17-82.07
		C1133,825.22,1136.29,811.97,1140.17,797.39z"/>
	<path class="st1" d="M1140.17,797.39c-3.88,14.58-7.17,27.84-10.95,40.95c-7.89,27.41-15.76,54.82-24.17,82.07
		c-7.41,24-16.63,47.34-28.22,69.68c-15.22,29.34-34.47,55.57-60.15,76.69c-23.77,19.54-51.16,30.84-81.32,36.42
		c-19.92,3.68-39.9,4.32-59.98,3.63c-9.7-0.33-19.37-1.69-29.04-2.78c-4-0.45-6.81,1.1-9.82,3.6
		c-18.48,15.32-38.03,29.21-60.15,38.68c-21.22,9.09-42.87,17.71-66.39,18.47c-17.75,0.58-34.55-4.71-51.15-10.47
		c-17.99-6.25-35.06-14.51-50.97-24.85c-10.65-6.92-20.55-15.03-30.59-22.85c-2.7-2.1-5.11-2.75-8.51-2.37
		c-21.64,2.4-43.28,3.61-65.12,1.97c-20.42-1.53-40.15-5.64-59.25-12.7c-22.74-8.4-42.28-21.83-59.47-38.89
		c-25.08-24.87-43-54.31-57.05-86.5c-15.16-34.71-25.69-70.92-35.86-107.26c-5.28-18.87-10.04-37.89-15.1-56.82
		c-0.5-1.89-1.5-3.64-2.47-5.93c-2.93,7.74-5.42,15.21-8.54,22.41c-8.92,20.63-20.07,39.58-40.19,51.55
		c-21.9,13.02-45.09,15.15-69.36,8.51c-22.62-6.19-36.61-21.88-46.66-42.15C96.08,811.05,89.88,781.6,85,751.76
		c-2.75-16.81-5.58-33.62-7.64-50.51c-2.24-18.37-3.71-36.85-5.36-55.29c-1.36-15.19-2.6-30.39-3.67-45.6
		c-0.65-9.25-1.15-18.53-1.28-27.8c-0.41-29.21-1.27-58.44-0.67-87.63c0.4-19.7,2.85-39.36,4.58-59.03
		c2.46-28.03,7.43-55.65,14.1-82.96c8.4-34.41,22.41-66.19,43.93-94.64c17.21-22.75,37.45-42.15,61.45-57.33
		c29.49-18.65,61.26-31.77,96.05-37.09c23.86-3.65,47.5-2.99,71.27,0.83c23.11,3.72,44.93,10.6,64.66,23.42
		c3.58,2.33,7.24,4.66,10.38,7.51c3.46,3.15,6.63,2.91,10.36,0.85c16.35-9.02,32.52-18.41,49.17-26.84
		c35.76-18.12,72.73-33.42,111.78-42.9c16.33-3.96,33.11-6.12,49.74-8.75c25.89-4.09,52.03-4.09,78.08-2.83
		c31.44,1.51,62.45,6.35,92.77,15.16c29.05,8.44,57.13,19.45,84.3,32.6c19.73,9.55,38.77,20.53,58.12,30.87
		c2.03,1.09,3.96,2.82,6.11,3.14c2.62,0.39,6.14,0.57,8.03-0.83c14.87-11.05,30.61-20.62,48.64-25.09
		c15.68-3.89,31.69-6.89,47.74-8.73c11.97-1.37,24.34-1.39,36.31,0c15.19,1.76,30.35,4.78,45.15,8.66
		c21.02,5.51,40.62,14.89,59.17,26.09c19.59,11.82,37.31,26.04,52.79,43.12c22.33,24.63,39.7,52.32,50.2,83.72
		c6.73,20.13,11.62,41.02,15.52,61.9c4.39,23.57,7.03,47.49,9.84,71.33c1.24,10.52,1.19,21.21,1.45,31.82
		c0.44,18.29,1.08,36.59,0.88,54.88c-0.23,21.12-0.91,42.24-2.08,63.33c-1.21,21.87-2.89,43.73-5,65.53
		c-1.79,18.44-4.12,36.85-6.87,55.17c-3.28,21.88-6.84,43.75-11.07,65.46c-3.83,19.63-9.94,38.66-19.03,56.57
		c-12.22,24.07-30.67,39.69-58.34,43.26c-27.38,3.54-51.55-2.94-71.64-22.1c-11.88-11.33-19.59-25.63-25.82-40.68
		C1146.09,813.19,1143.46,805.91,1140.17,797.39z M706.5,732.06c0-0.35,0-0.7,0-1.04c12,0,24-0.26,35.99,0.07
		c11.94,0.33,23.88,1.15,35.81,1.91c14.64,0.94,28.42,4.14,39.45,14.89c17.84,17.39,27.21,40.57,18.72,65.75
		c-7.85,23.27-21.36,43.44-35.84,62.79c-14.32,19.14-30.11,37.2-45.39,55.62c-2.91,3.51-4.98,7.16-4.21,11.74
		c1.28,7.63,2.25,15.38,4.46,22.75c1.81,6.04,3.96,12.87,8.2,17.1c8.63,8.61,18.28,16.43,28.39,23.28
		c23.58,15.98,50.81,21.49,78.45,24.97c17.72,2.24,35.52,1.63,53.21-0.92c27.63-3.98,51.56-15.52,70.67-36.05
		c13.82-14.84,23.99-32.15,32.66-50.45c12.68-26.78,21.79-54.85,29.7-83.26c6.66-23.93,12.11-48.23,17.42-72.51
		c3.27-14.93,5.48-30.1,7.78-45.22c2.03-13.4,3.64-26.86,5.22-40.33c1.72-14.64,4.11-29.28,4.59-43.98
		c1.1-33.55,0.77-67.13-2.73-100.57c-2.39-22.85-4.72-45.73-8.25-68.42c-3.65-23.47-10.1-46.34-18.45-68.63
		c-8.19-21.85-18.69-42.56-30.61-62.59c-10.78-18.12-22.69-35.49-36.85-51.08c-17.96-19.77-38.15-37.15-59.88-52.73
		c-21.61-15.49-45.06-27.57-69.82-37.01c-31.31-11.95-63.31-21.64-96.81-25.24c-18.23-1.96-36.51-3.98-54.81-4.6
		c-14.87-0.5-29.86,0.48-44.7,1.88c-15.44,1.46-30.85,3.67-46.1,6.51c-24.17,4.5-47.82,11.28-70.54,20.65
		c-16.7,6.89-33.12,14.63-49.1,23.06c-18.47,9.75-35.17,22.35-50.48,36.53c-13.26,12.28-26.9,24.41-38.49,38.18
		c-22.4,26.63-40.58,56.18-53.69,88.53c-7.1,17.52-13.97,35.26-19.14,53.42c-7.7,27.03-11.42,54.94-14.2,82.88
		c-1.95,19.66-3.53,39.42-3.94,59.16c-0.61,29.39-1.49,58.83,2.67,88.13c2.72,19.17,4.16,38.53,7.27,57.62
		c3.9,23.93,8.06,47.88,13.72,71.43c6.39,26.6,14.29,52.85,22.06,79.1c6.86,23.16,16.11,45.42,27.97,66.51
		c10.88,19.35,24.29,36.61,42.7,49.46c20.71,14.46,44.28,20.21,69.03,21.52c21.77,1.16,43.41-0.62,64.64-5.9
		c18.35-4.56,36.44-9.98,51.82-21.53c8.98-6.74,17.54-14.07,25.94-21.53c2.56-2.28,4.59-5.66,5.75-8.93
		c2.24-6.35,3.64-12.99,5.49-19.48c2.94-10.3,2.48-19.07-6.09-27.58c-17.16-17.06-31.6-36.51-45.35-56.46
		c-10.52-15.26-20.86-30.58-28.38-47.61c-4.31-9.75-7.81-19.95-7.18-30.58c1.25-21.07,11.28-37.79,28.1-50.34
		c11.74-8.76,25.87-10.15,39.68-10.68C664.19,731.47,685.36,732.06,706.5,732.06z M379.46,258.54c-1.97-1.48-3.58-2.9-5.38-3.99
		c-28.28-17.23-58.91-22.38-91.43-17.62c-30.35,4.44-56.62,17.96-79.54,37.69c-29.74,25.59-47.58,58.86-57.86,96.21
		c-10.29,37.39-14.49,75.79-15,114.43c-0.41,31.11,0.78,62.26,1.89,93.37c0.75,21.06,2.24,42.12,4.04,63.12
		c1.87,21.8,3.99,43.61,6.95,65.29c2.65,19.44,6.33,38.75,10.09,58.02c1.67,8.6,5.27,16.59,10.77,23.68
		c8.23,10.6,31.14,12.02,44.4,3.45c11.12-7.18,16.4-18.5,20.47-30.26c7.01-20.23,13.6-40.62,19.79-61.12
		c5.15-17.08,10.07-34.32,10.34-52.36c0.46-29.46,0.15-58.94,1.17-88.37c0.73-20.8,2.45-41.63,4.99-62.3
		c2.21-17.99,5.4-35.95,9.54-53.6c8.43-35.9,22.64-69.59,41.12-101.5c12.32-21.28,25.48-41.99,41.67-60.58
		C364.35,274.2,371.73,266.78,379.46,258.54z M1034.47,258.15c6.46,6.4,11.98,11.43,16.99,16.91
		c21.47,23.49,38.35,50.16,53.54,77.99c13.03,23.88,23.47,48.83,31.03,74.95c8.39,28.98,14.01,58.49,16.05,88.62
		c1.36,20.03,3.15,40.04,3.76,60.1c0.64,21.31-0.36,42.66,0.27,63.97c0.36,12.17,1.61,24.47,4.13,36.36
		c2.97,14,7.47,27.7,11.81,41.37c5.35,16.8,10.87,33.57,16.98,50.11c5.79,15.67,15.87,26.9,33.67,29.12
		c10.43,1.3,25.45-1.72,30.88-12.16c3.98-7.67,7.37-15.96,9.21-24.37c3.48-15.93,5.97-32.09,8.31-48.24
		c2.32-16.03,4.29-32.14,5.77-48.27c1.78-19.32,3.08-38.68,4.24-58.05c1.47-24.51,3.2-49.03,3.75-73.57
		c0.92-41.14-0.15-82.21-6.77-122.99c-4.7-28.96-11.89-57.17-25.4-83.28c-13.51-26.1-32.28-48-56.94-64.4
		c-25.9-17.22-54.16-27.64-85.58-27.14c-17.22,0.27-34.34,2.78-50.34,9.6C1051.37,248.37,1043.49,253.33,1034.47,258.15z
		 M706.87,781.41c-15.3,0.53-30.59,0.85-45.87,1.64c-17.05,0.87-26.17,13.15-20.62,28.72c8.06,22.61,20.54,42.82,36.01,61.16
		c17.43,20.66,45.2,20.67,62.74-0.54c14.5-17.54,26.63-36.62,34.73-57.93c6.78-17.85-1.99-30.55-21.09-31.46
		C737.48,782.27,722.18,781.92,706.87,781.41z M769.38,1075.54c-6.86-5.71-13.24-11.48-20.09-16.63
		c-12.76-9.6-26.77-16.23-43.21-15.73c-13.39,0.41-25.51,5.14-36.27,12.75c-8.51,6.03-16.28,13.11-24.26,19.63
		c3.66,7.11,8.33,11.92,14.27,15.5c10.98,6.63,23.06,9.22,35.73,10.28c16.81,1.4,33.28,0.66,49.25-5.3
		C755.16,1092.17,763.93,1086.44,769.38,1075.54z"/>
	<path class="st0" d="M706.5,732.06c-21.15,0-42.31-0.59-63.43,0.21c-13.82,0.53-27.94,1.92-39.68,10.68
		c-16.83,12.55-26.85,29.27-28.1,50.34c-0.63,10.64,2.87,20.83,7.18,30.58c7.52,17.03,17.86,32.35,28.38,47.61
		c13.75,19.94,28.18,39.39,45.35,56.46c8.56,8.51,9.02,17.28,6.09,27.58c-1.85,6.49-3.25,13.14-5.49,19.48
		c-1.16,3.27-3.18,6.65-5.75,8.93c-8.4,7.46-16.96,14.79-25.94,21.53c-15.38,11.55-33.47,16.97-51.82,21.53
		c-21.23,5.28-42.87,7.05-64.64,5.9c-24.75-1.31-48.32-7.06-69.03-21.52c-18.41-12.85-31.82-30.11-42.7-49.46
		c-11.86-21.09-21.11-43.35-27.97-66.51c-7.78-26.24-15.67-52.5-22.06-79.1c-5.66-23.55-9.82-47.5-13.72-71.43
		c-3.12-19.09-4.55-38.45-7.27-57.62c-4.16-29.3-3.28-58.74-2.67-88.13c0.41-19.74,1.99-39.5,3.94-59.16
		c2.77-27.94,6.5-55.85,14.2-82.88c5.17-18.16,12.03-35.9,19.14-53.42c13.11-32.34,31.29-61.9,53.69-88.53
		c11.59-13.78,25.23-25.9,38.49-38.18c15.31-14.18,32.01-26.78,50.48-36.53c15.98-8.43,32.4-16.17,49.1-23.06
		c22.72-9.37,46.37-16.16,70.54-20.65c15.25-2.84,30.66-5.05,46.1-6.51c14.84-1.4,29.83-2.37,44.7-1.88
		c18.3,0.61,36.58,2.64,54.81,4.6c33.49,3.6,65.49,13.3,96.81,25.24c24.75,9.44,48.21,21.52,69.82,37.01
		c21.73,15.58,41.91,32.96,59.88,52.73c14.17,15.59,26.07,32.96,36.85,51.08c11.92,20.03,22.42,40.74,30.61,62.59
		c8.35,22.28,14.8,45.16,18.45,68.63c3.53,22.69,5.86,45.57,8.25,68.42c3.5,33.44,3.83,67.02,2.73,100.57
		c-0.48,14.69-2.87,29.34-4.59,43.98c-1.58,13.46-3.19,26.93-5.22,40.33c-2.3,15.12-4.51,30.29-7.78,45.22
		c-5.31,24.28-10.76,48.57-17.42,72.51c-7.9,28.41-17.02,56.48-29.7,83.26c-8.67,18.3-18.83,35.61-32.66,50.45
		c-19.12,20.53-43.04,32.07-70.67,36.05c-17.69,2.55-35.49,3.15-53.21,0.92c-27.64-3.49-54.87-9-78.45-24.97
		c-10.11-6.85-19.76-14.67-28.39-23.28c-4.24-4.23-6.39-11.06-8.2-17.1c-2.21-7.37-3.19-15.12-4.46-22.75
		c-0.77-4.58,1.3-8.23,4.21-11.74c15.28-18.42,31.06-36.47,45.39-55.62c14.48-19.35,27.99-39.52,35.84-62.79
		c8.49-25.18-0.88-48.37-18.72-65.75c-11.03-10.75-24.81-13.95-39.45-14.89c-11.93-0.77-23.86-1.59-35.81-1.91
		c-11.99-0.33-24-0.07-35.99-0.07C706.5,731.36,706.5,731.71,706.5,732.06z M866.88,442.03c-16.99,0.43-36.01,1.73-54.41,7.16
		c-15.35,4.52-30.04,10.49-41.08,22.95c-8.36,9.45-10.9,23.78-5.11,34.72c3.85,7.27,10.18,12.15,18.81,11.65
		c6.03-0.35,12.19-1.51,17.91-3.45c15.74-5.32,31.84-8.91,48.36-9.85c29.98-1.71,59.53,0.5,88.08,11.04
		c7.93,2.93,16.52,4.2,24.43-0.58c13.23-7.97,15.15-28.07,4.7-41.74c-8.6-11.24-20.62-17.01-33.2-21.68
		C914.02,444.33,891.61,442.27,866.88,442.03z M439.82,492.85c0.11,10.47,3.38,18.68,12.35,23.51c6.91,3.72,14.26,2.17,21.29,0.28
		c16.72-4.49,33.16-9.89,50.71-10.92c23.28-1.37,46.4-1.57,69.2,4.01c9.58,2.34,18.95,5.56,28.53,7.88
		c21.89,5.32,32.3-13.27,29.31-29.26c-2.12-11.33-8.76-19.28-17.77-25.3c-19.2-12.83-41.15-17.6-63.66-19.89
		c-20.73-2.1-41.5-1.52-62.09,1.89c-18.75,3.11-36.83,8.28-52.33,19.94C445.93,472.09,440.03,481.31,439.82,492.85z"/>
	<path class="st0" d="M379.46,258.54c-7.72,8.24-15.11,15.67-21.97,23.55c-16.19,18.59-29.35,39.3-41.67,60.58
		c-18.48,31.91-32.69,65.6-41.12,101.5c-4.14,17.65-7.33,35.61-9.54,53.6c-2.54,20.66-4.26,41.49-4.99,62.3
		c-1.03,29.44-0.72,58.91-1.17,88.37c-0.28,18.05-5.19,35.29-10.34,52.36c-6.19,20.5-12.78,40.89-19.79,61.12
		c-4.07,11.76-9.35,23.08-20.47,30.26c-13.27,8.57-36.17,7.15-44.4-3.45c-5.51-7.09-9.1-15.08-10.77-23.68
		c-3.75-19.27-7.43-38.58-10.09-58.02c-2.96-21.68-5.08-43.49-6.95-65.29c-1.8-21-3.29-42.06-4.04-63.12
		c-1.11-31.11-2.3-62.26-1.89-93.37c0.51-38.64,4.71-77.05,15-114.43c10.28-37.35,28.11-70.62,57.86-96.21
		c22.93-19.72,49.19-33.24,79.54-37.69c32.52-4.76,63.15,0.39,91.43,17.62C375.88,255.64,377.48,257.06,379.46,258.54z"/>
	<path class="st0" d="M1034.47,258.15c9.02-4.82,16.9-9.78,25.35-13.38c16-6.82,33.12-9.33,50.34-9.6
		c31.42-0.49,59.68,9.92,85.58,27.14c24.66,16.4,43.43,38.3,56.94,64.4c13.51,26.1,20.7,54.32,25.4,83.28
		c6.62,40.78,7.69,81.85,6.77,122.99c-0.55,24.54-2.27,49.06-3.75,73.57c-1.17,19.37-2.46,38.73-4.24,58.05
		c-1.49,16.13-3.46,32.23-5.77,48.27c-2.33,16.15-4.82,32.32-8.31,48.24c-1.84,8.41-5.22,16.7-9.21,24.37
		c-5.43,10.44-20.45,13.46-30.88,12.16c-17.8-2.21-27.88-13.45-33.67-29.12c-6.11-16.54-11.63-33.31-16.98-50.11
		c-4.35-13.67-8.85-27.37-11.81-41.37c-2.52-11.89-3.77-24.2-4.13-36.36c-0.63-21.31,0.37-42.67-0.27-63.97
		c-0.6-20.05-2.4-40.07-3.76-60.1c-2.04-30.14-7.66-59.64-16.05-88.62c-7.56-26.12-18-51.07-31.03-74.95
		c-15.19-27.83-32.07-54.5-53.54-77.99C1046.45,269.57,1040.93,264.55,1034.47,258.15z"/>
	<path class="st0" d="M706.87,781.41c15.31,0.51,30.62,0.86,45.9,1.58c19.1,0.9,27.87,13.6,21.09,31.46
		c-8.09,21.3-20.22,40.39-34.73,57.93c-17.54,21.21-45.3,21.2-62.74,0.54c-15.47-18.34-27.95-38.55-36.01-61.16
		c-5.55-15.57,3.57-27.84,20.62-28.72C676.27,782.26,691.57,781.93,706.87,781.41z"/>
	<path class="st0" d="M769.38,1075.54c-5.44,10.9-14.22,16.63-24.58,20.5c-15.98,5.96-32.44,6.71-49.25,5.3
		c-12.66-1.06-24.74-3.65-35.73-10.28c-5.94-3.58-10.6-8.38-14.27-15.5c7.98-6.52,15.75-13.6,24.26-19.63
		c10.76-7.62,22.88-12.35,36.27-12.75c16.44-0.5,30.46,6.14,43.21,15.73C756.14,1064.06,762.52,1069.83,769.38,1075.54z"/>
	<path class="st1" d="M866.88,442.03c24.73,0.23,47.14,2.29,68.5,10.23c12.58,4.67,24.61,10.44,33.2,21.68
		c10.45,13.66,8.53,33.76-4.7,41.74c-7.92,4.77-16.51,3.5-24.43,0.58c-28.56-10.54-58.1-12.75-88.08-11.04
		c-16.53,0.94-32.62,4.53-48.36,9.85c-5.72,1.93-11.88,3.1-17.91,3.45c-8.64,0.5-14.96-4.38-18.81-11.65
		c-5.8-10.93-3.26-25.27,5.11-34.72c11.04-12.47,25.73-18.43,41.08-22.95C830.87,443.77,849.89,442.46,866.88,442.03z"/>
	<path class="st1" d="M439.82,492.85c0.21-11.54,6.11-20.76,15.55-27.86c15.49-11.65,33.58-16.83,52.33-19.94
		c20.59-3.41,41.36-3.99,62.09-1.89c22.51,2.29,44.46,7.06,63.66,19.89c9.01,6.02,15.65,13.96,17.77,25.3
		c2.99,15.99-7.42,34.58-29.31,29.26c-9.58-2.33-18.95-5.54-28.53-7.88c-22.8-5.58-45.93-5.38-69.2-4.01
		c-17.56,1.03-33.99,6.43-50.71,10.92c-7.04,1.89-14.39,3.44-21.29-0.28C443.21,511.53,439.94,503.32,439.82,492.85z"/>
</g>
</svg>
