<?xml version="1.0" encoding="utf-8"?>
<!-- Generator: Adobe Illustrator 26.0.1, SVG Export Plug-In . SVG Version: 6.00 Build 0)  -->
<svg version="1.1" id="Layer_1" xmlns="http://www.w3.org/2000/svg" xmlns:xlink="http://www.w3.org/1999/xlink" x="0px" y="0px"
	 viewBox="0 0 612 792" style="enable-background:new 0 0 612 792;" xml:space="preserve">
<style type="text/css">
	.st0{display:none;fill:#F1F1F1;}
	.st1{display:none;fill:#FEFEFE;}
	.st2{fill:#12151A;}
	.st3{display:none;fill:#EFEFEF;}
	.st4{fill:#13161B;}
	.st5{fill:#12151B;}
	.st6{fill:#010101;}
	.st7{display:none;fill:#EEEEEE;}
</style>
<g>
	<path class="st0" d="M612,101.1c0,196.7,0,393.5,0,590.2c-204,0-408,0-612,0c0-196.7,0-393.5,0-590.2c0.2-0.2,0.3-0.3,0.5-0.5
		c203.7,0,407.4,0,611.1,0C611.7,100.8,611.8,101,612,101.1z M450.6,404.3C450.6,404.3,450.6,404.3,450.6,404.3
		c0-15.8,0-31.5,0-47.3c0-55.2,0-110.5,0-165.7c0-10.1-0.7-20.2-3.7-29.9c-3-9.8-9.2-16.5-18.9-19.9c-9.3-3.3-19.1-4.2-28.9-4.5
		c-8.6-0.3-17.3-0.2-26-0.2c-51.8,0-103.6,0-155.4,0.1c-10.3,0-20.6,0.8-30.7,3.6c-12,3.4-19.4,11-22.6,23c-2,7.7-2.9,15.5-2.9,23.3
		c-0.1,54.7-0.1,109.4-0.1,164.1c0,55,0,110,0,165c0,33.3,0,66.6,0,99.9c0,9,0.5,18,2.5,26.9c2.5,11.5,8.4,20.2,19.9,24.4
		c7.5,2.7,15.4,4,23.3,4.2c12,0.4,24.1,0.5,36.2,0.5c44.7,0.1,89.4,0.1,134.1,0c13.3,0,26.6,0.3,39.8-2c5.4-0.9,10.7-2.4,15.6-4.9
		c8.6-4.4,12.8-12,15.1-20.9c2.6-10.3,2.8-20.7,2.8-31.3C450.6,543.4,450.6,473.9,450.6,404.3z"/>
	<path class="st1" d="M0.5,100.7c-0.2,0.2-0.3,0.3-0.5,0.5C0.2,101,0.3,100.8,0.5,100.7z"/>
	<path class="st1" d="M612,101.1c-0.2-0.2-0.3-0.3-0.5-0.5C611.7,100.8,611.8,101,612,101.1z"/>
	<path class="st2" d="M450.6,404.3c0,69.5,0,139.1,0,208.6c0,10.5-0.2,21-2.8,31.3c-2.3,8.9-6.5,16.5-15.1,20.9
		c-4.9,2.5-10.2,4-15.6,4.9c-13.2,2.3-26.5,2-39.8,2c-44.7,0-89.4,0-134.1,0c-12.1,0-24.1-0.1-36.2-0.5c-7.9-0.3-15.8-1.5-23.3-4.2
		c-11.5-4.1-17.4-12.9-19.9-24.4c-1.9-8.9-2.5-17.9-2.5-26.9c0-33.3,0-66.6,0-99.9c0-55,0-110,0-165c0-54.7,0-109.4,0.1-164.1
		c0-7.9,0.9-15.7,2.9-23.3c3.2-12,10.6-19.6,22.6-23c10-2.8,20.3-3.6,30.7-3.6c51.8-0.1,103.6-0.1,155.4-0.1c8.7,0,17.3-0.1,26,0.2
		c9.8,0.3,19.5,1.2,28.9,4.5c9.7,3.4,15.9,10.2,18.9,19.9c3,9.8,3.7,19.8,3.7,29.9c0,55.2,0,110.5,0,165.7
		C450.6,372.8,450.6,388.6,450.6,404.3C450.6,404.3,450.6,404.3,450.6,404.3z M432.1,405.2C432.1,405.2,432.2,405.2,432.1,405.2
		c0.1-24,0.1-47.9,0.1-71.9c0-23.8,0-47.6,0-71.5c0-17.3,0.1-34.5,0-51.8c-0.1-9.7-0.2-19.4-2.1-29c-2.7-13.9-10.4-22.7-24.6-25.7
		c-9.3-2-18.7-2.5-28.1-2.5c-46.7-0.1-93.4-0.1-140.1,0c-9.8,0-19.6,0.3-29.3,2.1c-15,2.8-23.9,11.6-26.1,26.6
		c-1.2,8.2-1.9,16.6-2,24.8c-0.3,21.8-0.1,43.5-0.2,65.3c0,26.5,0,52.9,0,79.4c0,26.4,0,52.8,0,79.2c0,21.8-0.1,43.7-0.1,65.5
		c0,31.3,0,62.5,0,93.8c0,12.6-0.4,25.3,2.1,37.8c1.3,6.3,3.3,12.4,7.8,17.3c5.6,6.1,12.9,8.7,20.8,9.5c9.6,1.1,19.4,1.8,29.1,1.8
		c43.6,0.2,87.2,0.1,130.8,0.1c11.3,0,22.7,0.1,33.9-2.3c7.5-1.6,14.6-4.3,19.4-10.7c4.1-5.3,6.2-11.6,6.8-18.2
		c0.9-10.3,1.6-20.6,1.7-30.9c0.2-16.7-0.1-33.5-0.1-50.2c0-18.4,0-36.8,0-55.3C432.1,460.7,432.1,432.9,432.1,405.2z"/>
	<path class="st3" d="M432.1,405.2c0,27.8,0,55.5,0,83.3c0,18.4,0,36.8,0,55.3c0,16.7,0.3,33.5,0.1,50.2
		c-0.1,10.3-0.8,20.6-1.7,30.9c-0.6,6.6-2.7,12.8-6.8,18.2c-4.9,6.4-11.9,9.1-19.4,10.7c-11.2,2.3-22.6,2.2-33.9,2.3
		c-43.6,0-87.2,0.1-130.8-0.1c-9.7,0-19.4-0.7-29.1-1.8c-7.8-0.9-15.2-3.5-20.8-9.5c-4.5-4.9-6.5-10.9-7.8-17.3
		c-2.5-12.5-2.1-25.2-2.1-37.8c-0.1-31.3-0.1-62.5,0-93.8c0-21.8,0.1-43.7,0.1-65.5c0-26.4,0-52.8,0-79.2c0-26.5,0-52.9,0-79.4
		c0-21.8-0.1-43.5,0.2-65.3c0.1-8.3,0.9-16.6,2-24.8c2.2-15,11.1-23.8,26.1-26.6c9.7-1.8,19.5-2.1,29.3-2.1
		c46.7-0.1,93.4-0.1,140.1,0c9.4,0,18.8,0.5,28.1,2.5c14.2,3,21.9,11.8,24.6,25.7c1.9,9.6,2,19.3,2.1,29c0.2,17.3,0,34.5,0,51.8
		c0,23.8,0,47.6,0,71.5C432.2,357.2,432.2,381.2,432.1,405.2C432.2,405.2,432.1,405.2,432.1,405.2z M196.1,373.1
		C196.1,373.1,196.1,373.1,196.1,373.1c0,1.8,0,3.5,0,5.3c0,24.5-0.1,49.1-0.1,73.6c0,26.6,0,53.2,0.1,79.9c0,8.7,0,17.4,2,26
		c2.2,9.2,7.2,16,16.7,18.4c5.4,1.4,11,2.5,16.6,2.7c12.3,0.5,24.6,0.5,36.8,0.5c30.1,0.1,60.3,0,90.4,0c11.7,0,23.5,0.3,35.1-2.2
		c10-2.1,17.1-7.5,19.6-17.6c1.3-5.2,2.2-10.6,2.3-16c0.4-15.2,0.3-30.5,0.3-45.8c0-32.2-0.1-64.5-0.1-96.7c0-22.7,0.1-45.3,0.1-68
		c0-22,0-43.9,0-65.9c0-21.3,0.1-42.6-0.2-63.8c-0.1-5.6-1.1-11.2-2.3-16.7c-2-8.7-7.4-14.7-16.1-16.9c-5.9-1.5-11.9-2.7-18-2.8
		c-15.8-0.5-31.7-0.4-47.5-0.4c-28.3,0-56.7,0-85,0.1c-10,0-20.1,0-29.9,2.4c-9.2,2.3-15.7,7.6-18.1,17.1c-1.2,4.7-2.1,9.5-2.3,14.3
		c-0.4,10.6-0.4,21.1-0.4,31.7c0,26.2,0,52.3,0,78.5C196.1,331.6,196.1,352.3,196.1,373.1z M336.7,616.4
		c-0.4-17.7-14.5-31.1-32.5-30.3c-15.9,0.7-29,13.8-28.8,30.9c0.2,17.3,14.3,30.6,31.4,30.3C323.3,646.9,337,632.7,336.7,616.4z"/>
	<path class="st4" d="M196.1,373.1c0-20.8,0-41.5,0-62.3c0-26.2-0.1-52.3,0-78.5c0-10.6,0-21.2,0.4-31.7c0.2-4.8,1.1-9.6,2.3-14.3
		c2.4-9.4,8.8-14.8,18.1-17.1c9.8-2.5,19.9-2.4,29.9-2.4c28.3,0,56.7-0.1,85-0.1c15.8,0,31.7,0,47.5,0.4c6,0.2,12.1,1.4,18,2.8
		c8.8,2.2,14.2,8.2,16.1,16.9c1.2,5.5,2.2,11.1,2.3,16.7c0.3,21.3,0.2,42.5,0.2,63.8c0,22,0,43.9,0,65.9c0,22.7-0.1,45.3-0.1,68
		c0,32.2,0.1,64.5,0.1,96.7c0,15.3,0,30.5-0.3,45.8c-0.1,5.3-1,10.8-2.3,16c-2.5,10.1-9.7,15.5-19.6,17.6
		c-11.6,2.5-23.3,2.2-35.1,2.2c-30.1,0-60.3,0-90.4,0c-12.3,0-24.6,0-36.8-0.5c-5.6-0.2-11.2-1.3-16.6-2.7
		c-9.5-2.4-14.5-9.2-16.7-18.4c-2-8.6-2-17.3-2-26c-0.1-26.6-0.1-53.2-0.1-79.9c0-24.5,0.1-49.1,0.1-73.6
		C196.1,376.6,196.1,374.9,196.1,373.1C196.1,373.1,196.1,373.1,196.1,373.1z M311.2,182.8c4.9,0,9.9,0,15,0
		c-2.5-8-11.5-14.9-22.4-14c-7.9,0.6-16.9,7.4-17.9,14c5,0,9.9,0,14.8,0c-0.4,0.4-0.8,0.7-1.2,1.1c-3.8,3.6-4.1,9.5-0.6,13.3
		c3.5,3.9,9.2,4.2,13.3,0.8C316.9,193.9,316.5,187.4,311.2,182.8z M285.5,182.7c-1,0-1.9,0-2.7,0c-8.7,0-17.4,0-26.2,0
		c-7.6,0-15.3,0.1-22.8,1.9c-8.8,2.1-14.8,7.2-16.8,16.2c-1,4.6-1.9,9.4-2.1,14.1c-0.4,11.6-0.3,23.1-0.3,34.7c0,14.5,0,29,0,43.5
		c0,24.4,0,48.8,0,73.1c0,18,0.1,36,0.1,53.9c0,13.4-0.1,26.9-0.1,40.3c0,19.4-0.2,38.7,0.1,58.1c0.1,8,0.4,16.1,1.6,24
		c1.7,11.7,7.5,17.4,19.2,19.4c6.4,1.1,13,1.7,19.5,1.7c33.7,0.2,67.4,0.1,101.1,0.1c8.7,0,17.5-0.1,25.8-3.1
		c4.8-1.8,8.6-4.8,10.9-9.5c3.4-6.8,4.1-14.2,4.2-21.6c0.2-15.6,0.2-31.1,0.2-46.7c0-18.1,0-36.2,0-54.4c0-15.7-0.1-31.5-0.1-47.2
		c0-13.9,0.1-27.9,0.1-41.8c0-12-0.1-24.1-0.1-36.1c0-12.8,0.1-25.6,0.1-38.4c0-12-0.1-24.1-0.1-36.1c0-9.1,0.2-18.2-1.9-27.1
		c-1.9-7.9-6-14-14.2-16.1c-5.6-1.4-11.5-2.4-17.3-2.7c-8.2-0.5-16.5-0.2-24.8-0.2c-4.1,0-8.3,0-12.5,0c3,11.1,0.7,20.3-9,26.6
		c-7.5,4.9-15.7,4.8-23.1,0C284.8,203,282.4,193.7,285.5,182.7z"/>
	<path class="st5" d="M336.7,616.4c0.4,16.3-13.4,30.5-29.9,30.9c-17.1,0.4-31.1-13-31.4-30.3c-0.2-17,12.9-30.1,28.8-30.9
		C322.2,585.3,336.3,598.8,336.7,616.4z M323.5,616.7c-0.2-10.1-8.1-17.8-17.9-17.6c-9.8,0.2-17.3,8.2-17.1,18.1
		c0.2,9.6,8.3,17.2,18,17C315.9,634,323.7,625.9,323.5,616.7z"/>
	<path class="st0" d="M285.5,182.7c-3.1,11.1-0.7,20.3,8.9,26.6c7.5,4.8,15.6,4.9,23.1,0c9.7-6.3,12-15.5,9-26.6c4.3,0,8.4,0,12.5,0
		c8.3,0,16.5-0.3,24.8,0.2c5.8,0.3,11.6,1.3,17.3,2.7c8.2,2.1,12.3,8.3,14.2,16.1c2.2,8.9,2,18,1.9,27.1c0,12,0.1,24.1,0.1,36.1
		c0,12.8-0.1,25.6-0.1,38.4c0,12,0.1,24.1,0.1,36.1c0,13.9-0.1,27.9-0.1,41.8c0,15.7,0.1,31.5,0.1,47.2c0,18.1,0,36.2,0,54.4
		c0,15.6,0,31.1-0.2,46.7c-0.1,7.4-0.8,14.8-4.2,21.6c-2.3,4.6-6,7.7-10.9,9.5c-8.4,3-17.1,3.1-25.8,3.1
		c-33.7,0.1-67.4,0.1-101.1-0.1c-6.5,0-13.1-0.6-19.5-1.7c-11.6-2-17.4-7.7-19.2-19.4c-1.2-7.9-1.5-16-1.6-24
		c-0.2-19.4-0.1-38.7-0.1-58.1c0-13.4,0.1-26.9,0.1-40.3c0-18-0.1-36-0.1-53.9c0-24.4,0-48.8,0-73.1c0-14.5-0.1-29,0-43.5
		c0-11.6-0.1-23.2,0.3-34.7c0.1-4.7,1-9.5,2.1-14.1c2-9,7.9-14.1,16.8-16.2c7.5-1.8,15.1-1.9,22.8-1.9c8.7,0,17.4,0,26.2,0
		C283.6,182.7,284.5,182.7,285.5,182.7z"/>
	<path class="st6" d="M300.7,182.8c-4.9,0-9.8,0-14.8,0c0.9-6.5,10-13.3,17.9-14c10.9-0.9,19.9,6,22.4,14c-5.1,0-10.1,0-15,0
		C307.7,182.8,304.2,182.8,300.7,182.8z"/>
	<path class="st7" d="M300.7,182.8c3.5,0,7,0,10.5,0c5.3,4.6,5.7,11.1,1,15.1c-4,3.4-9.8,3.1-13.3-0.8c-3.4-3.8-3.2-9.7,0.6-13.3
		C299.9,183.5,300.3,183.1,300.7,182.8z"/>
	<path class="st3" d="M323.5,616.7c0.2,9.2-7.6,17.3-17,17.6c-9.7,0.2-17.8-7.4-18-17c-0.2-9.9,7.3-17.9,17.1-18.1
		C315.4,598.9,323.3,606.6,323.5,616.7z"/>
</g>
</svg>
