<?xml version="1.0" encoding="utf-8"?>
<!-- Generator: Adobe Illustrator 26.0.1, SVG Export Plug-In . SVG Version: 6.00 Build 0)  -->
<svg version="1.1" id="Layer_1" xmlns="http://www.w3.org/2000/svg" xmlns:xlink="http://www.w3.org/1999/xlink" x="0px" y="0px"
	 viewBox="0 0 612 792" style="enable-background:new 0 0 612 792;" xml:space="preserve">
<style type="text/css">
	.st0{display:none;fill:#010100;}
	.st1{display:none;fill:#FEFEFE;}
	.st2{fill:#E5AF00;}
	.st3{display:none;fill:#020100;}
	.st4{display:none;fill:#040200;}
</style>
<g>
	<path class="st0" d="M619.6,110.1c0,190.6,0,381.2,0,571.8c-208.9,0-417.8,0-626.7,0c0-190.7,0-381.2,0-571.8
		C201.9,110.1,410.8,110.1,619.6,110.1z M572.8,396c-3.8-3.1-7.5-6.1-11.3-9.1c-5.7-4.5-11.5-8.9-17.3-13.3c-6-4.6-12-9.3-18-13.8
		c-4.7-3.6-9.5-7.2-14.4-10.6c-1.4-1-1.4-1.7-0.7-3.1c4.6-9,9.1-18,13.7-27c6.4-12.6,12.9-25.2,19.3-37.7c0.8-1.6,1.5-3.3,2.2-5
		c-25.6-5.1-50.9-10.2-76.5-15.3c0.9-26.9,1.8-53.7,2.6-80.7c-25.4,7-50.4,13.8-75.5,20.7c-10.5-24.6-21-49.2-31.5-73.9
		c-20,17.6-39.6,35-59.4,52.5c-19.9-17.6-39.5-34.9-59.4-52.5c-10.6,24.8-21,49.4-31.5,73.9c-25.1-6.9-50.2-13.8-75.5-20.7
		c0.9,27.1,1.8,53.9,2.6,80.7c-25.6,5.1-51,10.2-76.5,15.3c0.7,1.7,1.3,3.3,2.1,4.8c7,13.9,14.1,27.8,21.2,41.7
		c3.9,7.8,7.9,15.5,12,23.2c0.7,1.4,0.6,2.1-0.7,3.1c-7.1,5.3-14.1,10.7-21.1,16.1c-4.4,3.4-8.8,6.8-13.2,10.2
		c-7.4,5.7-14.7,11.3-22.1,16.9c-1.5,1.2-3.1,2.3-4.7,3.5c3.3,2.7,6.3,5.3,9.4,7.7c5.5,4.3,11,8.5,16.6,12.8
		c6.5,5,12.9,10,19.5,14.9c5.7,4.3,11.4,8.5,17.1,12.7c-12.2,24.1-24.2,47.8-36.3,71.6c25.7,5.2,51.1,10.3,76.7,15.4
		c-0.9,26.8-1.7,53.6-2.6,80.6c25.4-7,50.5-13.8,75.5-20.6c10.5,24.6,20.9,49.1,31.5,73.9c20-17.7,39.7-35.1,59.4-52.5
		c19.9,17.6,39.5,34.9,59.4,52.5c10.6-24.9,21-49.4,31.5-73.9c25.1,6.9,50.2,13.7,75.4,20.6c0-1.1,0-1.7,0-2.3
		c-0.8-25.3-1.6-50.6-2.5-75.9c-0.1-1.9,0.3-2.7,2.3-3.1c11.4-2.2,22.7-4.6,34-6.9c9.9-2,19.9-3.9,29.8-5.8c3.4-0.7,6.8-1.3,10.5-2
		c-12.2-24-24.2-47.7-36.2-71.4c1.2-1.1,2.2-2.1,3.3-2.9c5.8-4.5,11.6-9,17.5-13.4c6.1-4.7,12.1-9.3,18.2-13.9
		c7.4-5.7,14.9-11.4,22.3-17.1C572.1,396.7,572.4,396.4,572.8,396z"/>
	<path class="st1" d="M619.6,110.1c-208.9,0-417.7,0-626.7,0c0,190.6,0,381.1,0,571.8c208.9,0,417.8,0,626.7,0
		c-0.1,0.1-0.1,0.4-0.2,0.4c-0.6,0-1.2,0-1.8,0c-208.4,0-416.8,0-625.3,0c0-190.9,0-381.7,0-572.7c0.9,0,1.8,0,2.7,0
		c207.5,0,415,0,622.5,0C618.3,109.7,619,109.9,619.6,110.1z"/>
	<path class="st2" d="M572.8,396c-0.4,0.4-0.7,0.7-1,1c-7.4,5.7-14.9,11.4-22.3,17.1c-6.1,4.6-12.1,9.3-18.2,13.9
		c-5.8,4.5-11.7,8.9-17.5,13.4c-1.1,0.9-2.1,1.8-3.3,2.9c12,23.6,24,47.3,36.2,71.4c-3.7,0.7-7.1,1.4-10.5,2
		c-9.9,1.9-19.9,3.8-29.8,5.8c-11.3,2.3-22.7,4.7-34,6.9c-2,0.4-2.4,1.2-2.3,3.1c0.9,25.3,1.7,50.6,2.5,75.9c0,0.6,0,1.2,0,2.3
		c-25.2-6.9-50.3-13.7-75.4-20.6c-10.4,24.5-20.9,49-31.5,73.9c-19.9-17.6-39.5-35-59.4-52.5c-19.7,17.5-39.4,34.8-59.4,52.5
		c-10.5-24.7-21-49.3-31.5-73.9c-25.1,6.9-50.1,13.7-75.5,20.6c0.9-27.1,1.8-53.8,2.6-80.6c-25.6-5.1-50.9-10.3-76.7-15.4
		c12.1-23.8,24.1-47.5,36.3-71.6c-5.7-4.3-11.5-8.5-17.1-12.7c-6.5-4.9-13-9.9-19.5-14.9c-5.5-4.2-11.1-8.5-16.6-12.8
		c-3.1-2.5-6.2-5-9.4-7.7c1.6-1.2,3.2-2.3,4.7-3.5c7.4-5.6,14.8-11.3,22.1-16.9c4.4-3.4,8.8-6.8,13.2-10.2c7-5.4,14-10.8,21.1-16.1
		c1.3-1,1.4-1.7,0.7-3.1c-4-7.7-8-15.4-12-23.2c-7.1-13.9-14.1-27.8-21.2-41.7c-0.8-1.5-1.4-3.1-2.1-4.8
		c25.5-5.1,50.8-10.2,76.5-15.3c-0.9-26.8-1.7-53.6-2.6-80.7c25.4,7,50.4,13.8,75.5,20.7c10.5-24.6,20.9-49.1,31.5-73.9
		c19.9,17.6,39.5,34.9,59.4,52.5c19.8-17.5,39.4-34.8,59.4-52.5c10.5,24.7,21,49.3,31.5,73.9c25.1-6.9,50.1-13.7,75.5-20.7
		c-0.9,27-1.8,53.8-2.6,80.7c25.6,5.1,50.9,10.2,76.5,15.3c-0.7,1.7-1.4,3.4-2.2,5c-6.4,12.6-12.9,25.2-19.3,37.7
		c-4.6,9-9.1,18-13.7,27c-0.7,1.3-0.7,2.1,0.7,3.1c4.9,3.4,9.6,7,14.4,10.6c6,4.6,12,9.2,18,13.8c5.8,4.4,11.6,8.8,17.3,13.3
		C565.3,389.9,569,393,572.8,396z M491.3,338.5c-7.4,0-14.5,0-21.6,0.1c-0.6,0-1.6,1-1.9,1.7c-3,7.5-5.8,15.1-8.7,22.7
		c-3.6,9.5-7.3,19-10.9,28.6c-1.2,3-2.4,6-3.8,9.4c-0.5-1.1-0.9-1.7-1.1-2.3c-3.2-8.2-6.4-16.5-9.7-24.7
		c-4.4-11.3-8.9-22.6-13.3-33.8c-0.4-1.1-1-1.6-2.3-1.6c-5.1,0.1-10.3,0.1-15.4,0c-1.5,0-2.2,0.4-2.8,1.9
		c-3.2,8.4-6.5,16.8-9.8,25.2c-3.1,8-6.2,16.1-9.3,24.2c-1.4,3.6-2.9,7.2-4.6,11.4c-0.6-1.2-0.9-1.9-1.2-2.5
		c-4.2-10.8-8.4-21.6-12.6-32.4c-3.3-8.6-6.6-17.2-10-25.8c-0.3-0.7-1.1-1.6-1.6-1.7c-7.2-0.1-14.4-0.1-21.8-0.1
		c0.2,0.7,0.3,1.2,0.4,1.6c2.9,7.6,5.8,15.1,8.7,22.7c5.2,13.4,10.4,26.8,15.6,40.1c5.3,13.7,10.7,27.5,16,41.2
		c2.2,5.5,2.2,5.5,8.2,5.6c1.7,0,2.5-0.4,3.1-2c4.5-11.7,9-23.3,13.6-34.9c3.4-8.7,6.8-17.3,10.2-26c1.7-4.3,3.5-8.5,5.2-12.9
		c0.3,0.3,0.5,0.3,0.5,0.5c5.5,14.2,11,28.4,16.5,42.7c3.5,9,7,18,10.5,27c2.2,5.7,2.1,5.7,8.2,5.6c0.1,0,0.3,0,0.4,0
		c1.4,0.3,2.1-0.4,2.6-1.7c2.6-6.8,5.2-13.6,7.8-20.4c5.3-13.7,10.6-27.3,15.9-40.9c5-12.7,10-25.3,15-38
		C488.8,345.4,490,342.1,491.3,338.5z M127.2,338.5c0,36.9,0,73.5,0,110.2c7.2,0,14.2,0,21.5,0c0-23.5,0-46.9,0-70.2
		c0.3-0.2,0.6-0.4,0.9-0.6c0.3,0.6,0.6,1.4,1,1.9c2.5,3.1,5,6.2,7.6,9.3c8,9.6,16.1,19.1,24.1,28.6c3.4,4.1,6.9,8.2,10.3,12.3
		c5,5.9,10,11.8,15,17.7c0.4,0.5,1.2,1.1,1.8,1.1c5.7,0.1,11.4,0.1,17.2,0.1c0-36.9,0-73.6,0-110.2c-7.2,0-14.1,0-21.4,0
		c0,23.7,0,47.2,0,70.8c-0.2,0.1-0.4,0.2-0.6,0.2c-2.3-2.9-4.6-5.8-7-8.6c-8.1-9.6-16.2-19.1-24.4-28.7c-3.3-3.9-6.6-7.9-9.9-11.8
		c-6-7-12-14-18-21c-0.4-0.5-1.2-1-1.8-1.1C138.2,338.5,132.8,338.5,127.2,338.5z M254.8,448.8c21.8,0,43.5,0,65.2,0
		c0-7.3,0-14.5,0-21.7c-1,0-1.8,0-2.6,0c-12.7,0-25.3,0-38,0c-1.9,0-2.4-0.6-2.3-2.4c0.1-6,0-11.9,0-17.9c0-0.8,0-1.6,0-2.6
		c13.6,0,26.9,0,40.3,0c0-7.4,0-14.5,0-21.8c-1.2,0-2.2,0-3.2,0c-11.6,0-23.1-0.1-34.7,0c-2.1,0-2.5-0.7-2.4-2.6
		c0.1-4.8,0-9.5,0.1-14.3c0-1.8,0-3.5,0-5.6c14.1,0,27.9,0,41.7,0c0-7.3,0-14.3,0-21.3c-21.4,0-42.6,0-64,0
		C254.8,375.3,254.8,411.9,254.8,448.8z"/>
	<path class="st3" d="M491.3,338.5c-1.4,3.6-2.5,6.9-3.8,10.2c-5,12.7-10,25.3-15,38c-5.3,13.6-10.6,27.3-15.9,40.9
		c-2.6,6.8-5.3,13.6-7.8,20.4c-0.5,1.3-1.2,2-2.6,1.7c-0.1,0-0.3,0-0.4,0c-6.1,0.1-6,0-8.2-5.6c-3.5-9-7-18-10.5-27
		c-5.5-14.2-11-28.4-16.5-42.7c0-0.1-0.2-0.2-0.5-0.5c-1.8,4.4-3.5,8.6-5.2,12.9c-3.4,8.6-6.8,17.3-10.2,26
		c-4.5,11.6-9.1,23.2-13.6,34.9c-0.6,1.6-1.4,2.1-3.1,2c-6-0.1-6.1-0.1-8.2-5.6c-5.4-13.7-10.7-27.4-16-41.2
		c-5.2-13.4-10.4-26.8-15.6-40.1c-2.9-7.6-5.8-15.1-8.7-22.7c-0.2-0.5-0.3-1-0.4-1.6c7.4,0,14.6,0,21.8,0.1c0.6,0,1.4,1,1.6,1.7
		c3.4,8.6,6.7,17.2,10,25.8c4.2,10.8,8.4,21.6,12.6,32.4c0.3,0.7,0.6,1.3,1.2,2.5c1.7-4.2,3.2-7.7,4.6-11.4c3.1-8,6.2-16.1,9.3-24.2
		c3.3-8.4,6.6-16.8,9.8-25.2c0.5-1.4,1.2-1.9,2.8-1.9c5.1,0.1,10.3,0.1,15.4,0c1.3,0,1.8,0.5,2.3,1.6c4.4,11.3,8.9,22.6,13.3,33.8
		c3.2,8.2,6.4,16.5,9.7,24.7c0.2,0.6,0.6,1.2,1.1,2.3c1.4-3.5,2.7-6.4,3.8-9.4c3.7-9.5,7.3-19,10.9-28.6c2.9-7.6,5.7-15.2,8.7-22.7
		c0.3-0.7,1.2-1.7,1.9-1.7C476.8,338.4,483.9,338.5,491.3,338.5z"/>
	<path class="st3" d="M127.2,338.5c5.6,0,11,0,16.3,0c0.6,0,1.4,0.5,1.8,1.1c6,7,12.1,14,18,21c3.3,3.9,6.6,7.9,9.9,11.8
		c8.1,9.6,16.3,19.1,24.4,28.7c2.4,2.8,4.6,5.7,7,8.6c0.2-0.1,0.4-0.2,0.6-0.2c0-23.5,0-47.1,0-70.8c7.3,0,14.3,0,21.4,0
		c0,36.6,0,73.3,0,110.2c-5.8,0-11.5,0-17.2-0.1c-0.6,0-1.3-0.6-1.8-1.1c-5-5.9-10-11.8-15-17.7c-3.5-4.1-6.9-8.2-10.3-12.3
		c-8-9.5-16.1-19.1-24.1-28.6c-2.6-3.1-5.1-6.2-7.6-9.3c-0.5-0.6-0.7-1.3-1-1.9c-0.3,0.2-0.6,0.4-0.9,0.6c0,23.3,0,46.7,0,70.2
		c-7.3,0-14.3,0-21.5,0C127.2,412,127.2,375.4,127.2,338.5z"/>
	<path class="st4" d="M254.8,448.8c0-36.8,0-73.5,0-110.2c21.4,0,42.6,0,64,0c0,7,0,14,0,21.3c-13.8,0-27.6,0-41.7,0
		c0,2.1,0,3.9,0,5.6c0,4.8,0.1,9.5-0.1,14.3c0,1.9,0.4,2.6,2.4,2.6c11.6-0.1,23.1,0,34.7,0c1,0,2.1,0,3.2,0c0,7.3,0,14.5,0,21.8
		c-13.4,0-26.7,0-40.3,0c0,1.1,0,1.8,0,2.6c0,6,0.1,11.9,0,17.9c0,1.8,0.4,2.4,2.3,2.4c12.7-0.1,25.3,0,38,0c0.8,0,1.6,0,2.6,0
		c0,7.3,0,14.4,0,21.7C298.3,448.8,276.7,448.8,254.8,448.8z"/>
</g>
</svg>
