<?xml version="1.0" encoding="utf-8"?>
<!-- Generator: Adobe Illustrator 27.3.1, SVG Export Plug-In . SVG Version: 6.00 Build 0)  -->
<svg version="1.1" id="Layer_1" xmlns="http://www.w3.org/2000/svg" xmlns:xlink="http://www.w3.org/1999/xlink" x="0px" y="0px"
	 viewBox="0 0 1115 1080" style="enable-background:new 0 0 1115 1080;" xml:space="preserve">
<style type="text/css">
	.st0{display:none;fill:#FAF9F8;}
	.st1{fill:#7C7C7C;}
</style>
<g>
	<path class="st0" d="M0,1080C0,720.02,0,360.05,0,0c371.61,0,743.24,0,1115,0c0,359.95,0,719.98,0,1080
		C743.36,1080,371.69,1080,0,1080z M1092.91,540.09c-6-6.41-11.51-12.18-16.9-18.07c-37.66-41.07-76.9-80.42-122.52-112.83
		c-10.73-7.62-21.5-15.2-32.58-22.29c-40.38-25.83-83.67-45.59-129-60.93c-44.78-15.15-90.46-26.72-137.54-32.02
		c-24.33-2.74-48.71-5.85-73.13-6.67c-24.39-0.83-48.9,0.41-73.29,1.83c-19.7,1.14-39.42,3.1-58.93,6.08
		c-53.4,8.17-105.34,22.01-155.72,41.71c-66.32,25.93-125.69,63.02-179.04,110.05c-30.19,26.61-57.45,56.09-84.86,85.44
		c-2.33,2.5-4.6,5.06-6.99,7.69c29.62,31.55,58.32,63.08,90.25,91.51c61.22,54.52,130.45,95.15,208.06,121.57
		c43.04,14.65,86.92,25.89,132,31.94c23.86,3.2,47.84,5.74,71.83,7.7c12.9,1.05,25.94,0.39,38.92,0.25
		c9.99-0.11,20.01-0.13,29.95-1.01c24.48-2.16,49.15-3.44,73.31-7.58c30.19-5.17,60.26-11.71,89.84-19.67
		c53.12-14.3,103.6-35.37,151-63.52c44.35-26.34,84.43-58.17,121.16-94.28c8.05-7.92,15.65-16.3,23.47-24.46
		C1065.63,568.52,1079.06,554.52,1092.91,540.09z"/>
	<path class="st1" d="M1092.91,540.09c-13.85,14.43-27.28,28.43-40.71,42.43c-7.82,8.16-15.41,16.54-23.47,24.46
		c-36.73,36.11-76.8,67.95-121.16,94.28c-47.4,28.15-97.89,49.22-151,63.52c-29.58,7.96-59.64,14.51-89.84,19.67
		c-24.16,4.14-48.83,5.42-73.31,7.58c-9.94,0.88-19.96,0.91-29.95,1.01c-12.98,0.14-26.03,0.8-38.92-0.25
		c-24-1.96-47.97-4.5-71.83-7.7c-45.08-6.04-88.96-17.29-132-31.94c-77.61-26.42-146.84-67.05-208.06-121.57
		c-31.92-28.43-60.63-59.96-90.25-91.51c2.39-2.63,4.66-5.19,6.99-7.69c27.41-29.35,54.67-58.83,84.86-85.44
		c53.35-47.03,112.72-84.12,179.04-110.05c50.37-19.7,102.31-33.54,155.72-41.71c19.5-2.98,39.23-4.94,58.93-6.08
		c24.39-1.41,48.91-2.65,73.29-1.83c24.43,0.83,48.8,3.94,73.13,6.67c47.07,5.29,92.75,16.87,137.54,32.02
		c45.33,15.33,88.62,35.1,129,60.93c11.08,7.09,21.86,14.67,32.58,22.29c45.62,32.41,84.87,71.76,122.52,112.83
		C1081.41,527.91,1086.91,533.68,1092.91,540.09z M99.96,540.1c13.08,11.84,25.24,23.29,37.87,34.19
		c15.63,13.49,31.26,27.03,47.57,39.67c68.56,53.16,145.83,87.77,230.13,107.41c37.98,8.85,76.45,14.54,115.3,16.31
		c31.79,1.44,63.71,0.98,95.38-3.66c6.39-0.94,12.86-1.36,19.24-2.34c40.33-6.17,79.86-15.6,118.52-28.76
		c61.73-21.01,118.52-51.27,169.39-91.95c26.64-21.3,51.52-44.78,77.49-66.93c4.24-3.62,3.26-5.11-0.12-8.11
		c-17.37-15.42-34.25-31.42-51.96-46.43c-14.92-12.64-30.38-24.71-46.23-36.16c-44.56-32.19-92.94-57.21-144.96-75.03
		c-42.04-14.41-84.93-25.03-129.16-30.65c-24.38-3.09-48.75-4.95-73.24-5.57c-11.27-0.28-22.58,0.49-33.86,0.88
		c-9.31,0.33-18.74,0.01-27.91,1.36c-28.55,4.21-57.28,7.77-85.42,13.96c-77.17,16.98-148.63,47.52-213.31,93.38
		c-30.24,21.44-58.22,45.54-85.39,70.66C113.08,528.06,106.84,533.77,99.96,540.1z"/>
	<path class="st0" d="M99.96,540.1c6.88-6.33,13.12-12.05,19.33-17.78c27.17-25.11,55.15-49.22,85.39-70.66
		c64.68-45.86,136.14-76.4,213.31-93.38c28.14-6.19,56.88-9.74,85.42-13.96c9.17-1.35,18.59-1.03,27.91-1.36
		c11.29-0.39,22.59-1.16,33.86-0.88c24.49,0.61,48.86,2.47,73.24,5.57c44.22,5.61,87.12,16.24,129.16,30.65
		c52.02,17.82,100.4,42.84,144.96,75.03c15.85,11.45,31.32,23.52,46.23,36.16c17.71,15.01,34.59,31.01,51.96,46.43
		c3.38,3,4.36,4.49,0.12,8.11c-25.97,22.16-50.85,45.63-77.49,66.93c-50.88,40.68-107.66,70.94-169.39,91.95
		c-38.66,13.16-78.19,22.59-118.52,28.76c-6.38,0.98-12.85,1.4-19.24,2.34c-31.66,4.64-63.59,5.11-95.38,3.66
		c-38.85-1.77-77.32-7.46-115.3-16.31c-84.3-19.64-161.57-54.25-230.13-107.41c-16.31-12.64-31.94-26.18-47.57-39.67
		C125.2,563.39,113.04,551.95,99.96,540.1z M557.46,367.95c-93.34-0.9-172.24,74.86-172.25,171.55
		c-0.01,93.12,70.38,169.12,167.74,173.04c48.54,1.95,91.64-15.62,126.13-50.39c37.64-37.94,54.48-84.26,50.07-137.75
		C722.09,438.81,649.46,367.27,557.46,367.95z"/>
	<path class="st1" d="M557.46,367.95c92-0.68,164.63,70.87,171.69,156.45c4.41,53.48-12.42,99.81-50.07,137.75
		c-34.49,34.76-77.59,52.34-126.13,50.39c-97.36-3.92-167.75-79.92-167.74-173.04C385.21,442.81,464.12,367.05,557.46,367.95z
		 M557.58,659.98c57.7,0.58,122.51-44.51,119.78-126.69c-1.93-58.09-50.59-118.75-134.97-113.31
		c-52.37,9.34-104.57,48.11-104.85,121.18C437.29,605.91,489.13,659.41,557.58,659.98z"/>
	<path class="st0" d="M557.58,659.98c-68.45-0.57-120.29-54.07-120.04-118.81c0.28-73.07,52.47-111.85,104.85-121.18
		c84.38-5.44,133.04,55.21,134.97,113.31C680.09,615.47,615.27,660.56,557.58,659.98z M635,538.7c0-3.33,0.43-6.72-0.08-9.97
		c-1.85-11.8-6.01-22.78-12.75-32.7c-6.85-10.08-15.81-17.77-26.17-24.2c-10.13-6.28-21.53-8.38-32.75-9.61
		c-19.41-2.12-37.32,3.58-52.81,15.52c-22.14,17.07-33.32,40.24-30.96,67.76c2.35,27.48,15.64,49.25,41.1,62.91
		c16.95,9.09,34.31,11.6,52.81,8.01C606.49,610.01,636.63,579.6,635,538.7z"/>
	<path class="st1" d="M635,538.7c1.62,40.9-28.51,71.31-61.61,77.73c-18.5,3.59-35.86,1.08-52.81-8.01
		c-25.46-13.66-38.75-35.43-41.1-62.91c-2.36-27.52,8.83-50.7,30.96-67.76c15.48-11.94,33.4-17.64,52.81-15.52
		c11.22,1.23,22.62,3.33,32.75,9.61c10.36,6.42,19.32,14.11,26.17,24.2c6.74,9.92,10.9,20.9,12.75,32.7
		C635.44,531.98,635,535.37,635,538.7z M557.66,498.96c-21.07-2.48-41.8,17.86-41.84,40.81c-0.04,22.17,17.81,42.16,41.25,42.07
		c23.29-0.1,41.86-17.95,42.13-41.86C599.5,514.99,576.44,496.23,557.66,498.96z"/>
	<path class="st0" d="M557.66,498.96c18.78-2.73,41.84,16.02,41.55,41.01c-0.27,23.91-18.84,41.77-42.13,41.86
		c-23.45,0.1-41.29-19.89-41.25-42.07C515.86,516.83,536.59,496.48,557.66,498.96z"/>
</g>
</svg>
