<?xml version="1.0" encoding="utf-8"?>
<!-- Generator: Adobe Illustrator 26.0.1, SVG Export Plug-In . SVG Version: 6.00 Build 0)  -->
<svg version="1.1" id="Layer_1" xmlns="http://www.w3.org/2000/svg" xmlns:xlink="http://www.w3.org/1999/xlink" x="0px" y="0px"
	 viewBox="0 0 612 792" style="enable-background:new 0 0 612 792;" xml:space="preserve">
<style type="text/css">
	.st0{display:none;}
	.st1{fill:#FFFFFF;}
</style>
<g>
	<path class="st0" d="M0,653.5c0-171.4,0-342.7,0-514.1c204.6,0,409.1,0,613.7,0c0,171.4,0,342.7,0,514.1
		C409.1,653.5,204.6,653.5,0,653.5z M306.8,232.9c-3-8.7-8.6-14.9-14.6-20.6c-11.5-10.9-24.2-20.1-38.7-26.8
		c-10-4.6-20.4-7.8-31.2-9.3c-13.3-1.9-26.6-1.1-39.6,2.2c-20.1,5.1-38.1,14.3-54,27.7c-6.7,5.6-12.8,12-17.8,19
		c-9.3,13.1-15.9,27.7-20,43.3c-2.4,9.2-4.6,18.6-5.9,28c-1.7,11.9-1.7,23.8-0.2,35.8c1.4,11.3,3.8,22.3,7.3,33.1
		c4.4,13.9,10.2,27.2,17.1,40.1c6.8,12.6,14.6,24.4,23.3,35.7c9.3,12.1,19.5,23.3,30.4,34c14.6,14.3,30.1,27.8,46,40.8
		c14.6,11.9,29.1,23.9,43.7,35.9c15.7,12.9,30.7,26.5,43.9,42c2.7,3.2,5.3,6.5,8,9.7c1.5,1.8,3,1.7,4.6,0.1c0.6-0.6,1.2-1.3,1.7-2
		c9.3-11.8,19.5-22.8,30.8-32.7c12-10.5,24.2-20.7,36.4-30.9c14.5-12.2,29.2-24.1,43.7-36.3c18.1-15.3,35.2-31.7,50.7-49.7
		c8.7-10.1,16.7-20.8,23.8-32c7.4-11.7,13.9-24,19-36.8c6.2-15.5,11.1-31.4,13.4-48.1c1.8-13.1,1.9-26.1,0.1-39.1
		c-1.3-9.4-3.5-18.8-6-28c-4.8-17.3-12.1-33.4-23.6-47.5c-5.7-7-12-13.3-19.3-18.5c-5.9-4.1-12-7.9-18.2-11.6
		c-9.1-5.4-19-9.1-29.2-11.7c-11-2.7-22.2-3.9-33.7-3.2c-16.1,1.1-31,5.6-45,13.2c-14.2,7.6-26.9,17.3-37.7,29.4
		C312.2,222.3,308.9,226.8,306.8,232.9z"/>
	<path class="st1" d="M0,653.5c204.6,0,409.1,0,613.7,0c-0.1,0.2-0.2,0.4-0.2,0.5c-0.6,0-1.3,0-1.9,0c-203.1,0-406.3,0-609.4,0
		C1.4,654,0.7,653.7,0,653.5z"/>
	<path class="st1" d="M306.8,232.9c2.1-6.1,5.3-10.6,9.1-14.8c10.8-12.1,23.6-21.7,37.7-29.4c14-7.6,29-12.1,45-13.2
		c11.5-0.8,22.7,0.4,33.7,3.2c10.2,2.5,20.1,6.3,29.2,11.7c6.2,3.7,12.3,7.4,18.2,11.6c7.3,5.2,13.6,11.5,19.3,18.5
		c11.5,14,18.8,30.2,23.6,47.5c2.5,9.2,4.7,18.6,6,28c1.8,13,1.7,26-0.1,39.1c-2.3,16.7-7.2,32.5-13.4,48.1
		c-5.1,12.9-11.6,25.1-19,36.8c-7.1,11.3-15.1,21.9-23.8,32c-15.5,18-32.6,34.4-50.7,49.7c-14.5,12.2-29.1,24.2-43.7,36.3
		c-12.2,10.2-24.4,20.4-36.4,30.9c-11.3,9.9-21.5,20.9-30.8,32.7c-0.5,0.7-1.1,1.4-1.7,2c-1.6,1.6-3.1,1.6-4.6-0.1
		c-2.7-3.2-5.3-6.5-8-9.7c-13.3-15.4-28.3-29.1-43.9-42c-14.5-12-29-24-43.7-35.9c-15.9-12.9-31.4-26.4-46-40.8
		c-10.8-10.6-21.1-21.9-30.4-34c-8.7-11.3-16.5-23.2-23.3-35.7c-6.9-12.8-12.7-26.2-17.1-40.1c-3.4-10.8-5.9-21.8-7.3-33.1
		c-1.5-12-1.4-23.9,0.2-35.8c1.3-9.4,3.5-18.8,5.9-28c4.1-15.6,10.6-30.2,20-43.3c5-7.1,11.1-13.4,17.8-19
		c15.9-13.4,33.9-22.6,54-27.7c13-3.3,26.3-4.1,39.6-2.2c10.8,1.6,21.3,4.7,31.2,9.3c14.5,6.7,27.2,15.9,38.7,26.8
		C298.3,218,303.9,224.2,306.8,232.9z"/>
</g>
</svg>
