<?xml version="1.0" encoding="utf-8"?>
<!-- Generator: Adobe Illustrator 26.0.1, SVG Export Plug-In . SVG Version: 6.00 Build 0)  -->
<svg version="1.1" id="Layer_1" xmlns="http://www.w3.org/2000/svg" xmlns:xlink="http://www.w3.org/1999/xlink" x="0px" y="0px"
	 viewBox="0 0 612 792" style="enable-background:new 0 0 612 792;" xml:space="preserve">
<style type="text/css">
	.st0{display:none;fill:#F1F1F1;}
	.st1{display:none;fill:#FEFEFE;}
	.st2{fill:#111419;}
</style>
<g>
	<path class="st0" d="M610.8,652c-203.5,0-406.9,0-610.4,0c-0.2-0.2-0.3-0.3-0.5-0.5c0-170.7,0-341.4,0-512.1
		c203.8,0,407.5,0,611.3,0c0,170.7,0,341.4,0,512.1C611.1,651.7,611,651.8,610.8,652z M305.5,234.7c-0.1-0.4-0.3-0.8-0.4-1.2
		c-1.3-5.6-4.5-10-8.1-14.2c-8.8-10.2-19.2-18.4-30.5-25.6c-11.6-7.4-24.1-12.6-37.5-15.6c-11.5-2.5-23-3-34.6-1.5
		c-10.2,1.3-20,4.1-29.6,7.9c-16.6,6.7-31.4,16.2-43.9,28.9c-10.8,10.9-18.7,23.9-24.2,38.2c-6.2,16-10.3,32.5-11.9,49.6
		c-1.3,13.7-0.6,27.3,1.9,40.7c2.9,15.7,8,30.8,14.5,45.5c4.9,11,10.6,21.7,17,31.9c7.6,12.1,16.3,23.4,25.7,34.1
		c11.4,13.1,23.8,25.3,36.8,36.7c11.6,10.3,23.6,20.2,35.6,30.1c12.2,10.1,24.6,20,36.7,30.3c9.1,7.7,18.1,15.5,26.6,23.9
		c8.2,8.2,15.6,17.1,23.3,25.8c2.3,2.6,3.4,2.6,5.6,0c4.9-5.7,9.5-11.6,14.6-17c13-13.8,27.4-26.2,42-38.2
		c16.9-14,33.9-27.8,50.8-41.9c16.7-13.9,32.6-28.6,47.2-44.7c9.6-10.6,18.5-21.7,26.5-33.6c9.6-14.1,17.6-29.1,24-44.9
		c5.7-14.2,10.1-28.9,12.2-44.2c1.8-13,2.1-26,0.5-38.9c-1.5-12.3-4.2-24.3-8.2-36c-5.1-14.8-11.8-28.6-21.8-40.8
		c-11.2-13.6-25.1-23.7-40.7-31.4c-13.5-6.7-27.7-11.4-42.8-12.2c-7.4-0.4-14.9-0.4-22.2,0.3c-8.3,0.8-16.4,3.1-24.2,6.2
		c-11.5,4.5-22.1,10.7-32,18.1c-8,6.1-15.5,12.6-21.8,20.5C309.3,225.3,306.8,229.6,305.5,234.7z"/>
	<path class="st1" d="M0,651.5c0.2,0.2,0.3,0.3,0.5,0.5C0.3,651.8,0.2,651.7,0,651.5z"/>
	<path class="st1" d="M610.8,652c0.2-0.2,0.3-0.3,0.5-0.5C611.1,651.7,611,651.8,610.8,652z"/>
	<path class="st2" d="M305.5,234.7c1.3-5.1,3.9-9.3,7-13.2c6.3-7.9,13.8-14.4,21.8-20.5c9.9-7.5,20.4-13.6,32-18.1
		c7.8-3,15.9-5.3,24.2-6.2c7.3-0.8,14.8-0.8,22.2-0.3c15.1,0.8,29.3,5.5,42.8,12.2c15.6,7.8,29.5,17.8,40.7,31.4
		c10,12.2,16.7,26,21.8,40.8c4,11.7,6.7,23.8,8.2,36c1.6,12.9,1.3,25.9-0.5,38.9c-2.2,15.3-6.5,30-12.2,44.2
		c-6.4,15.8-14.3,30.8-24,44.9c-8.1,11.8-16.9,23-26.5,33.6c-14.6,16.1-30.5,30.8-47.2,44.7c-16.9,14-33.9,27.9-50.8,41.9
		c-14.6,12.1-29,24.4-42,38.2c-5.1,5.4-9.8,11.3-14.6,17c-2.2,2.6-3.3,2.5-5.6,0c-7.7-8.6-15.1-17.6-23.3-25.8
		c-8.4-8.4-17.5-16.2-26.6-23.9c-12.1-10.3-24.5-20.1-36.7-30.3c-11.9-9.9-23.9-19.8-35.6-30.1c-13-11.5-25.4-23.7-36.8-36.7
		c-9.4-10.7-18.1-22.1-25.7-34.1c-6.4-10.2-12.1-20.8-17-31.9c-6.5-14.7-11.6-29.8-14.5-45.5c-2.5-13.5-3.2-27-1.9-40.7
		c1.7-17.1,5.7-33.6,11.9-49.6c5.6-14.3,13.4-27.3,24.2-38.2c12.5-12.7,27.4-22.2,43.9-28.9c9.5-3.9,19.4-6.7,29.6-7.9
		c11.6-1.4,23.1-1,34.6,1.5c13.5,3,25.9,8.2,37.5,15.6c11.3,7.2,21.7,15.4,30.5,25.6c3.6,4.2,6.8,8.6,8.1,14.2
		C305.2,233.8,305.3,234.2,305.5,234.7z"/>
</g>
</svg>
