<?xml version="1.0" encoding="UTF-8"?><svg id="Layer_2" xmlns="http://www.w3.org/2000/svg" viewBox="0 0 386.71 369.23"><g id="Layer_1-2"><path d="M.29,139.56c18.78,0,37.56,.16,56.34-.04,27.66-.29,55.31-.92,82.97-1.2,4.26-.04,6.36-1.27,7.82-5.56,14.47-42.64,29.2-85.18,43.86-127.75,.48-1.39,1.02-2.76,1.85-5.01,.9,1.96,1.58,3.16,2.02,4.44,14.76,42.89,29.54,85.77,44.15,128.71,1.29,3.8,3.15,5.1,7.1,5.15,35.65,.42,71.31,1.06,106.96,1.54,10.96,.15,21.92,.02,32.87,.02,.16,.54,.32,1.08,.49,1.61-2.01,1.55-4,3.11-6.03,4.64-35.38,26.65-70.74,53.33-106.21,79.88-3.1,2.32-3.46,4.42-2.36,7.98,13.56,43.97,26.96,88,40.39,132.01,.19,.61,.37,1.22,.95,3.19-2.61-1.73-4.29-2.8-5.92-3.94-36.69-25.69-73.41-51.33-110-77.16-3.3-2.33-5.36-2.23-8.62,.07-36.87,26.01-73.86,51.84-110.83,77.72-1.33,.93-2.7,1.81-5.02,3.37,3.44-11.34,6.53-21.62,9.67-31.88,10.5-34.31,20.93-68.64,31.61-102.89,1.33-4.25,.43-6.49-3.05-9.09C74.77,198.04,38.35,170.54,1.91,143.09c-.65-.49-1.27-1.02-1.91-1.53,.1-.66,.19-1.33,.29-1.99Z"/></g></svg>