<?xml version="1.0" encoding="utf-8"?>
<!-- Generator: Adobe Illustrator 26.0.1, SVG Export Plug-In . SVG Version: 6.00 Build 0)  -->
<svg version="1.1" id="Layer_1" xmlns="http://www.w3.org/2000/svg" xmlns:xlink="http://www.w3.org/1999/xlink" x="0px" y="0px"
	 viewBox="0 0 612 792" style="enable-background:new 0 0 612 792;" xml:space="preserve">
<style type="text/css">
	.st0{display:none;fill:#F1F1F1;}
	.st1{display:none;fill:#FEFEFE;}
	.st2{fill:#12151A;}
	.st3{fill:#15181D;}
	.st4{fill:#14171C;}
	.st5{display:none;fill:#F0F0F0;}
	.st6{display:none;fill:#EEEEEE;}
	.st7{display:none;fill:#EEEFEE;}
	.st8{fill:#12151B;}
</style>
<g>
	<path class="st0" d="M612.2,664c-204.5,0-409,0-613.4,0c0-183.2,0-366.4,0-549.5c0.2-0.2,0.3-0.3,0.5-0.5c204.3,0,408.7,0,613,0
		c0.2,0.2,0.3,0.3,0.5,0.5c0,183,0,366,0,549.1C612.5,663.7,612.4,663.8,612.2,664z M199.5,609.6c1.4,0.2,1.9,0.3,2.5,0.5
		c9.9,2.4,19.7,5.2,29.7,7.1c13.7,2.7,27.5,5.6,41.4,7.1c13.5,1.5,27.2,2.8,40.9,1.6c10.9-0.9,21.8-0.8,32.6-3.4
		c7.2-1.7,14.7-2.4,21.8-4.6c13.2-4.2,26.7-7.8,39.1-14.3c8.1-4.2,16.5-7.9,24.2-12.8c9.5-6,19.2-11.7,27.6-19.3
		c6.4-5.8,13.4-10.9,19.2-17.2c9.8-10.8,19.6-21.6,27.9-33.8c9.7-14.2,17.9-29.2,24.5-45c5.1-12.2,9.6-24.8,12-37.9
		c1.5-7.9,3.9-15.7,4.5-23.7c1-13.8,2.9-27.6,1.6-41.6c-1.1-10.9-1.6-21.7-3.5-32.6c-3-16.9-7.8-33.3-14.1-49.1
		c-4.8-12.1-10.4-24-17.6-34.9c-5.8-8.8-11.7-17.7-18.4-25.9c-6.6-8.2-13.8-16.1-21.5-23.4c-8.8-8.3-17.8-16.2-27.8-23.1
		c-16.9-11.6-34.7-21.5-53.9-28.5c-9.4-3.4-19-6.6-28.7-8.9c-10.2-2.5-20.6-4.5-31-5.5c-11.4-1.1-22.8-2.5-34.4-1.4
		c-11.9,1.1-23.8,1-35.5,3.8c-6.7,1.6-13.6,2.3-20.2,4.3c-9.3,2.7-18.5,5.6-27.4,9.3c-15,6.3-29.6,13.6-43.2,22.7
		c-15.4,10.3-29.6,22-42.3,35.3c-6,6.3-12.1,12.6-17.1,19.6c-9.1,12.7-17.9,25.5-24.9,39.6c-6.9,13.9-12.9,28.2-18,42.9
		c-4,11.3-7.2,22.8-10.6,34.3c-2.2,7.5-4.1,15.1-6,22.6c-1,3.9-0.9,4.1,2.7,5.6c5.4,2.3,10.9,4.4,16.3,6.6c1.2,0.5,2.1,0.4,2.5-1
		c0.2-0.7,0.6-1.4,0.8-2.2c3.9-13.8,7.6-27.5,11.7-41.2c4.8-16.2,10.4-32.2,17.7-47.5c3.9-8.2,7.9-16.3,12.4-24.1
		c4.4-7.5,9-15.1,14.5-21.8c9-11,18.3-21.7,29.2-31.1c13.2-11.4,27.2-21.5,42.7-29.4c7.2-3.7,14.5-7.2,22.1-10.2
		c7.8-3.1,15.8-6.1,23.9-8.1c16-3.9,32.3-6.7,48.9-7.1c3.2-0.1,6.3-0.4,9.5-0.3c3.8,0.1,7.6,0.5,11.4,0.7c5.2,0.3,10.4,0.3,15.5,1.1
		c8.8,1.4,17.7,2.9,26.3,5.3c12.8,3.6,25.5,7.8,37.7,13.5c14.6,6.8,28.3,15.1,41.1,24.8c9.3,7.1,17.8,15.4,26,23.8
		c8.1,8.2,15.3,17.2,21.9,26.8c8.7,12.7,16,26.2,21.9,40.3c7.4,17.6,12.3,36,14.7,54.9c1.8,13.9,2.8,27.9,1.4,42
		c-0.5,4.9-0.2,9.8-1.1,14.6c-2.3,12-4.8,23.9-7.8,35.7c-1.9,7.4-4.2,14.8-7.5,21.6c-5.5,11.7-10.6,23.8-18.3,34.4
		c-3.7,5.1-6.6,10.8-10.6,15.5c-9.4,11-18.8,22-30,31.4c-13.1,11.1-27,20.9-42.2,28.8c-16.2,8.5-33.2,15-51.1,19.2
		c-7.4,1.7-14.8,3.4-22.3,4.3c-8.6,1.1-17.3,1.6-26,1.8c-6.4,0.2-12.9-0.7-19.3-0.8c-13.5-0.2-26.7-2.5-39.8-5.2
		c-14.9-3-29.7-6.9-44.5-10.5c-2.6-0.6-5.2-1.4-8.3-2.3c6.4-4.2,12.3-8,18.2-11.8c4.7-3,9.3-6.1,14-9.1c1.8-1.2,2.5-2.6,1.2-4.6
		c-3.3-4.9-6.5-9.8-9.7-14.8c-1-1.5-2.2-1.8-3.7-0.8c-5.5,3.7-11.1,7.3-16.6,11.1c-11.9,8.2-23.8,16.6-35.6,24.8
		c-3.1,2.2-6.3,4.4-9.4,6.6c0.2,0.5,0.3,0.7,0.4,0.9c9.4,14.2,18.8,28.5,28.2,42.7c3.7,5.6,7.6,11.1,11.4,16.7
		c1.1,1.6,2.6,2,4.5,1.5c6-2,12.1-4,18.1-5.9c1.8-0.6,2.2-1.5,1.2-3.1c-0.4-0.7-0.8-1.5-1.3-2.2c-3.4-4.9-6.8-9.8-10.2-14.7
		C204.8,617.3,202.3,613.7,199.5,609.6z M491.2,487.4c0-63.9,0-127.5,0-191.1c-1.7,0-3.2,0-4.6,0c-18.5,0-37.1,0.1-55.6,0.1
		c-18.9,0-37.9-0.2-56.8,0c-17.4,0.3-34.7,0.9-52.1,1.8c-12.3,0.7-24.6,1.9-36.8,3.3c-17.4,2.1-34.7,4.8-52,6.8
		c-14.2,1.7-28.5,3.3-42.8,4c-19.1,0.9-38.3,1-57.5,1.4c-4.4,0.1-8.8,0-13.2,0c0,63.8,0,127.4,0,190.6c17.1,0,33.9,0.3,50.8-0.1
		c13-0.3,26-1,39-2.1c12.5-1.1,24.9-2.8,37.4-4.4c12.2-1.5,24.4-3.3,36.6-4.7c11.7-1.4,23.4-2.8,35.2-3.6c16-1,32.1-1.6,48.1-1.8
		c26.6-0.3,53.3-0.2,79.9-0.2C461.6,487.4,476.3,487.4,491.2,487.4z M128.1,311c18.6-0.4,36.9-0.8,55.2-1.2
		c17.7-0.4,35.3-2.1,52.8-4.4c17-2.2,33.8-5,50.8-7.1c13.7-1.7,27.4-3.2,41.2-3.9c16.6-0.9,33.2-1,49.8-1.1
		c31.4-0.2,62.8-0.1,94.2-0.1c3.6,0,7.2,0,10.9,0c0-2.2,0-4,0-6.1c-1.1,0-2.2,0-3.3,0c-23.1,0-46.3,0-69.4,0
		c-36.2,0-72.5-0.6-108.6,3.3c-10.4,1.1-20.7,2.5-31.1,3.9c-14.1,1.9-28.2,4.3-42.4,5.8c-15.3,1.6-30.6,2.9-45.9,3.5
		c-17.4,0.7-34.9,0.6-52.4,0.8c-0.6,0-1.2,0.1-1.9,0.2C128.1,306.8,128.1,308.6,128.1,311z M473.5,278c-0.9,0-1.5,0-2.1,0
		c-30,0-60.1-0.2-90.1,0.1c-21.2,0.2-42.3,0.5-63.4,1.9c-16.9,1.1-33.7,3.7-50.5,6.1c-19.1,2.7-38.1,6.2-57.4,7.2
		c-18,0.9-36.1,1.4-54.1,2c-6.1,0.2-12.2,0-18.3,0c0,2.2,0,4.1,0,6.1c0.9,0,1.6,0,2.2,0c16.1-0.2,32.3-0.1,48.4-0.7
		c12.8-0.5,25.6-1.3,38.2-2.8c16.5-1.9,32.9-4.7,49.4-6.9c15.6-2,31.2-4.1,46.8-5.4c12.7-1.1,25.6-1.3,38.3-1.4
		c34.3-0.2,68.7-0.1,103-0.2c3.1,0,6.3,0,9.5,0C473.5,282,473.5,280.2,473.5,278z M467.1,269.4c-4,0-7.7,0-11.4,0
		c-20.1,0-40.1,0-60.2,0c-24.6,0.1-49.2-0.3-73.7,1.6c-12.1,1-24.2,2.2-36.3,3.9c-15.3,2.1-30.4,4.8-45.7,6.9
		c-11.1,1.5-22.3,3-33.5,3.5c-19.9,0.9-39.9,1.1-59.8,1.5c-0.8,0-1.6,0-2.6,0c0,2.2,0,4.1,0,6c0.7,0,1.3,0.1,1.8,0.1
		c10.2-0.1,20.5,0.1,30.7-0.3c15.7-0.6,31.5-1.2,47.1-2.6c13.3-1.2,26.5-3.7,39.8-5.5c16-2.2,31.9-4.7,47.9-6.4
		c11.8-1.3,23.6-1.8,35.5-2.2c9.8-0.4,19.5-0.3,29.3-0.3c25.3-0.1,50.7,0,76-0.1c5,0,10,0,15.1,0
		C467.1,273.4,467.1,271.5,467.1,269.4z"/>
	<path class="st1" d="M-0.7,114c-0.2,0.2-0.3,0.3-0.5,0.5C-1.1,114.3-0.9,114.2-0.7,114z"/>
	<path class="st1" d="M612.7,114.5c-0.2-0.2-0.3-0.3-0.5-0.5C612.4,114.2,612.5,114.3,612.7,114.5z"/>
	<path class="st1" d="M612.2,664c0.2-0.2,0.3-0.3,0.5-0.5C612.5,663.7,612.4,663.8,612.2,664z"/>
	<path class="st2" d="M199.5,609.6c2.9,4.2,5.4,7.8,7.9,11.4c3.4,4.9,6.8,9.8,10.2,14.7c0.5,0.7,0.8,1.5,1.3,2.2
		c1,1.6,0.5,2.5-1.2,3.1c-6,1.9-12.1,3.9-18.1,5.9c-1.8,0.6-3.3,0.2-4.5-1.5c-3.8-5.5-7.7-11-11.4-16.7
		c-9.4-14.2-18.8-28.4-28.2-42.7c-0.1-0.2-0.2-0.4-0.4-0.9c3.1-2.2,6.2-4.4,9.4-6.6c11.9-8.3,23.7-16.6,35.6-24.8
		c5.5-3.8,11-7.4,16.6-11.1c1.5-1,2.7-0.7,3.7,0.8c3.2,4.9,6.4,9.9,9.7,14.8c1.4,2.1,0.6,3.4-1.2,4.6c-4.7,3.1-9.3,6.1-14,9.1
		c-5.9,3.8-11.8,7.7-18.2,11.8c3.1,0.9,5.7,1.7,8.3,2.3c14.8,3.6,29.5,7.5,44.5,10.5c13.1,2.6,26.3,4.9,39.8,5.2
		c6.4,0.1,12.9,0.9,19.3,0.8c8.7-0.2,17.4-0.7,26-1.8c7.5-0.9,14.9-2.6,22.3-4.3c17.8-4.2,34.8-10.6,51.1-19.2
		c15.2-8,29.1-17.7,42.2-28.8c11.2-9.4,20.5-20.5,30-31.4c4.1-4.7,6.9-10.4,10.6-15.5c7.7-10.6,12.8-22.6,18.3-34.4
		c3.2-6.9,5.6-14.3,7.5-21.6c3-11.8,5.5-23.7,7.8-35.7c0.9-4.8,0.6-9.7,1.1-14.6c1.4-14.1,0.3-28.1-1.4-42
		c-2.4-18.9-7.3-37.4-14.7-54.9c-5.9-14.1-13.2-27.6-21.9-40.3c-6.6-9.6-13.8-18.5-21.9-26.8c-8.2-8.4-16.7-16.7-26-23.8
		c-12.7-9.7-26.4-18-41.1-24.8c-12.2-5.6-24.8-9.9-37.7-13.5c-8.6-2.4-17.5-3.9-26.3-5.3c-5.1-0.8-10.3-0.8-15.5-1.1
		c-3.8-0.3-7.6-0.7-11.4-0.7c-3.2-0.1-6.3,0.3-9.5,0.3c-16.6,0.4-32.8,3.2-48.9,7.1c-8.1,2-16.1,4.9-23.9,8.1
		c-7.5,3-14.8,6.5-22.1,10.2c-15.5,7.9-29.5,18-42.7,29.4c-10.9,9.4-20.2,20.1-29.2,31.1c-5.5,6.7-10.1,14.3-14.5,21.8
		c-4.6,7.8-8.6,15.9-12.4,24.1c-7.2,15.3-12.9,31.2-17.7,47.5c-4.1,13.7-7.8,27.5-11.7,41.2c-0.2,0.7-0.6,1.4-0.8,2.2
		c-0.4,1.4-1.3,1.5-2.5,1c-5.4-2.2-10.9-4.4-16.3-6.6c-3.6-1.5-3.7-1.7-2.7-5.6c1.9-7.6,3.8-15.1,6-22.6c3.4-11.5,6.6-23,10.6-34.3
		c5.1-14.6,11.1-28.9,18-42.9c7-14.1,15.8-27,24.9-39.6c5.1-7,11.1-13.3,17.1-19.6c12.8-13.4,26.9-25.1,42.3-35.3
		c13.6-9.1,28.2-16.4,43.2-22.7c8.9-3.7,18.1-6.6,27.4-9.3c6.6-1.9,13.5-2.6,20.2-4.3c11.7-2.8,23.7-2.8,35.5-3.8
		c11.5-1,23,0.3,34.4,1.4c10.4,1,20.8,3,31,5.5c9.7,2.4,19.3,5.5,28.7,8.9c19.3,7,37,16.9,53.9,28.5c10,6.9,19.1,14.8,27.8,23.1
		c7.7,7.3,14.9,15.2,21.5,23.4c6.6,8.2,12.5,17.1,18.4,25.9c7.2,10.9,12.8,22.8,17.6,34.9c6.3,15.8,11.1,32.2,14.1,49.1
		c1.9,10.8,2.5,21.7,3.5,32.6c1.3,13.9-0.6,27.8-1.6,41.6c-0.6,8-3.1,15.8-4.5,23.7c-2.4,13.1-6.9,25.7-12,37.9
		c-6.6,15.7-14.7,30.8-24.5,45c-8.3,12.1-18.1,23-27.9,33.8c-5.8,6.3-12.8,11.5-19.2,17.2c-8.4,7.6-18.1,13.3-27.6,19.3
		c-7.7,4.8-16.1,8.6-24.2,12.8c-12.4,6.5-25.9,10.2-39.1,14.3c-7,2.2-14.5,2.9-21.8,4.6c-10.7,2.5-21.7,2.4-32.6,3.4
		c-13.7,1.2-27.3-0.1-40.9-1.6c-13.9-1.5-27.7-4.3-41.4-7.1c-10-2-19.8-4.7-29.7-7.1C201.4,609.9,200.8,609.8,199.5,609.6z"/>
	<path class="st2" d="M491.2,487.4c-14.9,0-29.7,0-44.4,0c-26.6,0-53.3-0.1-79.9,0.2c-16.1,0.2-32.1,0.8-48.1,1.8
		c-11.7,0.7-23.5,2.2-35.2,3.6c-12.2,1.4-24.4,3.2-36.6,4.7c-12.4,1.6-24.9,3.3-37.4,4.4c-13,1.1-26,1.9-39,2.1
		c-16.8,0.4-33.7,0.1-50.8,0.1c0-63.2,0-126.7,0-190.6c4.4,0,8.8,0.1,13.2,0c19.2-0.4,38.3-0.4,57.5-1.4c14.3-0.7,28.6-2.4,42.8-4
		c17.4-2,34.7-4.7,52-6.8c12.2-1.4,24.5-2.7,36.8-3.3c17.3-0.9,34.7-1.5,52.1-1.8c18.9-0.3,37.9,0,56.8,0c18.5,0,37.1,0,55.6-0.1
		c1.5,0,2.9,0,4.6,0C491.2,359.9,491.2,423.5,491.2,487.4z M472.1,367c-15.8,2.2-30-0.6-41.7-11.6c-11.7-11-15.3-25-13.9-40.6
		c-0.8-0.1-1.2-0.2-1.7-0.2c-16.8,0-33.5-0.1-50.3,0.2c-13.4,0.2-26.9,0.4-40.2,1.3c-13.7,1-27.4,2.7-41.1,4.5
		c-14.3,1.9-28.4,4.4-42.7,6.2c-13.4,1.7-27,2.8-40.5,4.1c-2.4,0.2-4.9,0.4-7.5,0.5c1.4,15.4-2,29.2-13.3,40.2
		c-11.2,11-25,14.1-40.3,12.5c0,16.9,0,33.7,0,50.6c15.3-2,29.2,0.8,40.7,11.4c11.6,10.7,15.4,24.4,14.4,40c2.8-0.2,5.1-0.3,7.5-0.5
		c13.3-1.3,26.7-2.3,40-4c16.6-2.1,33.1-4.8,49.6-7.3c19.5-2.9,39.2-4.1,58.9-4.4c21.7-0.4,43.5-0.3,65.2-0.2c2.2,0,2.6-0.6,2.4-2.6
		c-0.6-9,0.8-17.6,5.2-25.6c8.2-14.9,21-22.7,37.8-23.9c3.7-0.3,7.5,0,11.4,0C472.1,400.8,472.1,384.1,472.1,367z M453.3,314.6
		C453.3,314.6,453.3,314.6,453.3,314.6c-5.7,0-11.3,0-17,0c-1.4,0-2.1,0.4-2.2,1.9c-0.1,3.1-0.5,6.2-0.4,9.3
		c0.3,12.1,10.8,23,22.9,24.2c4.7,0.5,9.2-0.4,13.8-1.2c1.4-0.2,1.8-0.5,1.8-1.9c-0.1-10.1-0.1-20.2,0-30.2c0-1.7-0.6-2.1-2.2-2
		C464.4,314.6,458.9,314.6,453.3,314.6z M175.6,486.7c0.2-3.3,0.7-6.4,0.6-9.6c-0.2-13.1-10-23.8-23-24.7c-4.7-0.3-9.5,0.5-14.3,0.8
		c0,11.5,0,22.5,0,33.5C151.2,486.7,163.2,486.7,175.6,486.7z M472.1,437.6c-1.6-0.2-3.1-0.4-4.5-0.6c-3-0.3-6-1-9-0.8
		c-8.6,0.6-15.2,4.7-19.5,12.2c-3.4,6-3.4,12.5-2.5,19.2c0.2,1.6,0.8,1.9,2.2,1.9c5.6-0.1,11.2,0,16.8,0c5.5,0,11,0,16.6,0
		C472.1,458.7,472.1,448.2,472.1,437.6z M138.9,364.5c2.9,0.5,5.5,1.1,8.2,1.4c11.3,0.9,21.6-4.7,25.9-15.6
		c2.1-5.3,1.7-10.8,1.1-16.3c-0.2-1.8-0.7-2.2-2.4-2.1c-7.3,0.2-14.6,0.2-21.9,0.3c-3.6,0-7.2,0-10.9,0
		C138.9,343,138.9,353.6,138.9,364.5z"/>
	<path class="st3" d="M128.1,311c0-2.4,0-4.3,0-6.3c0.7-0.1,1.3-0.2,1.9-0.2c17.5-0.2,34.9-0.1,52.4-0.8c15.3-0.6,30.6-1.9,45.9-3.5
		c14.2-1.5,28.2-3.9,42.4-5.8c10.3-1.4,20.7-2.7,31.1-3.9c36.1-4,72.4-3.3,108.6-3.3c23.1,0,46.3,0,69.4,0c1.1,0,2.1,0,3.3,0
		c0,2.1,0,3.9,0,6.1c-3.7,0-7.3,0-10.9,0c-31.4,0-62.8-0.1-94.2,0.1c-16.6,0.1-33.2,0.3-49.8,1.1c-13.8,0.7-27.5,2.2-41.2,3.9
		c-17,2.1-33.8,4.9-50.8,7.1c-17.5,2.3-35.1,4-52.8,4.4C165,310.3,146.7,310.7,128.1,311z"/>
	<path class="st4" d="M473.5,278c0,2.1,0,4,0,6.1c-3.2,0-6.3,0-9.5,0c-34.3,0-68.7,0-103,0.2c-12.8,0.1-25.6,0.4-38.3,1.4
		c-15.6,1.3-31.2,3.4-46.8,5.4c-16.5,2.1-32.9,5-49.4,6.9c-12.7,1.5-25.5,2.3-38.2,2.8c-16.1,0.6-32.3,0.5-48.4,0.7
		c-0.7,0-1.4,0-2.2,0c0-2.1,0-3.9,0-6.1c6.1,0,12.2,0.2,18.3,0c18.1-0.6,36.1-1.1,54.1-2c19.3-1,38.3-4.5,57.4-7.2
		c16.8-2.4,33.6-5,50.5-6.1c21.1-1.4,42.3-1.7,63.4-1.9c30-0.3,60.1-0.1,90.1-0.1C472,278,472.6,278,473.5,278z"/>
	<path class="st3" d="M467.1,269.4c0,2.2,0,4,0,6.1c-5,0-10.1,0-15.1,0c-25.3,0-50.7,0-76,0.1c-9.8,0-19.5-0.1-29.3,0.3
		c-11.8,0.5-23.7,1-35.5,2.2c-16,1.7-31.9,4.2-47.9,6.4c-13.3,1.8-26.5,4.3-39.8,5.5c-15.7,1.4-31.4,2-47.1,2.6
		c-10.2,0.4-20.5,0.2-30.7,0.3c-0.5,0-1.1-0.1-1.8-0.1c0-2,0-3.8,0-6c0.9,0,1.8,0,2.6,0c19.9-0.5,39.9-0.6,59.8-1.5
		c11.2-0.5,22.4-2,33.5-3.5c15.3-2.1,30.4-4.8,45.7-6.9c12.1-1.6,24.2-2.9,36.3-3.9c24.5-2,49.1-1.6,73.7-1.6
		c20.1-0.1,40.1,0,60.2,0C459.4,269.4,463.1,269.4,467.1,269.4z"/>
	<path class="st5" d="M472.1,367c0,17.1,0,33.8,0,50.4c-3.9,0-7.7-0.2-11.4,0c-16.8,1.2-29.6,9-37.8,23.9c-4.4,8-5.8,16.6-5.2,25.6
		c0.1,2-0.3,2.6-2.4,2.6c-21.7,0-43.5-0.1-65.2,0.2c-19.7,0.3-39.3,1.5-58.9,4.4c-16.5,2.5-33,5.2-49.6,7.3c-13.3,1.7-26.7,2.7-40,4
		c-2.4,0.2-4.8,0.3-7.5,0.5c1-15.6-2.8-29.3-14.4-40c-11.5-10.6-25.4-13.4-40.7-11.4c0-16.9,0-33.6,0-50.6
		c15.3,1.6,29.1-1.6,40.3-12.5c11.3-11,14.7-24.7,13.3-40.2c2.6-0.2,5.1-0.3,7.5-0.5c13.5-1.3,27-2.4,40.5-4.1
		c14.3-1.8,28.4-4.3,42.7-6.2c13.7-1.8,27.4-3.5,41.1-4.5c13.4-1,26.8-1.1,40.2-1.3c16.8-0.2,33.5-0.1,50.3-0.2
		c0.4,0,0.9,0.1,1.7,0.2c-1.5,15.6,2.1,29.6,13.9,40.6C442.1,366.4,456.3,369.2,472.1,367z M305.3,334.1
		c-33.9,0.8-58.7,27.4-58.3,59.2c0.5,33.6,27,58.4,59,58c33.8-0.4,58.2-26.9,58.1-58.7C363.9,358.8,337.2,334.5,305.3,334.1z"/>
	<path class="st6" d="M453.3,314.6c5.6,0,11.1,0.1,16.7,0c1.6,0,2.2,0.4,2.2,2c-0.1,10.1-0.1,20.2,0,30.2c0,1.4-0.5,1.7-1.8,1.9
		c-4.6,0.8-9.1,1.7-13.8,1.2c-12.1-1.2-22.6-12-22.9-24.2c-0.1-3.1,0.3-6.2,0.4-9.3c0-1.5,0.7-1.9,2.2-1.9
		C442,314.6,447.6,314.6,453.3,314.6C453.3,314.6,453.3,314.6,453.3,314.6z"/>
	<path class="st6" d="M175.6,486.7c-12.4,0-24.4,0-36.6,0c0-11,0-22,0-33.5c4.8-0.3,9.6-1.1,14.3-0.8c13,0.9,22.8,11.6,23,24.7
		C176.3,480.3,175.9,483.4,175.6,486.7z"/>
	<path class="st6" d="M472.1,437.6c0,10.7,0,21.2,0,32c-5.7,0-11.1,0-16.6,0c-5.6,0-11.2-0.1-16.8,0c-1.4,0-2-0.3-2.2-1.9
		c-0.9-6.6-0.9-13.2,2.5-19.2c4.3-7.6,11-11.6,19.5-12.2c3-0.2,6,0.5,9,0.8C469,437.2,470.4,437.4,472.1,437.6z"/>
	<path class="st7" d="M138.9,364.5c0-10.8,0-21.4,0-32.3c3.7,0,7.3,0,10.9,0c7.3-0.1,14.6-0.1,21.9-0.3c1.7,0,2.2,0.4,2.4,2.1
		c0.6,5.5,0.9,11-1.1,16.3c-4.3,10.9-14.5,16.5-25.9,15.6C144.4,365.6,141.8,364.9,138.9,364.5z"/>
	<path class="st8" d="M305.3,334.1c31.9,0.4,58.6,24.7,58.8,58.5c0.2,31.8-24.3,58.3-58.1,58.7c-32,0.4-58.6-24.4-59-58
		C246.5,361.5,271.3,334.9,305.3,334.1z M347.8,392.7c-0.7-24.9-20-42.5-42.7-42.1c-24.9,0.4-42.2,19.9-41.9,42.6
		c0.3,24.6,19.9,42.2,42.6,41.9C330.4,434.6,347.5,415.3,347.8,392.7z"/>
	<path class="st5" d="M347.8,392.7c-0.3,22.6-17.4,42-42,42.3c-22.7,0.3-42.3-17.3-42.6-41.9c-0.3-22.7,17-42.2,41.9-42.6
		C327.9,350.2,347.2,367.8,347.8,392.7z"/>
</g>
</svg>
