<svg id="Layer_1" data-name="Layer 1" xmlns="http://www.w3.org/2000/svg" viewBox="0 0 391.17 715.2"><defs><style>.cls-1{fill:#292929;}</style></defs><path class="cls-1" d="M686.45,238.66c10.6-10.61,20.82-20.64,30.78-30.93,3.38-3.48,4.86-.54,6.74,1.33Q786,271.07,848,333.12q113.28,113.28,226.64,226.5c3.31,3.3,3.63,5.09.13,8.58q-175.27,175-350.28,350.27c-3.43,3.44-5.28,4-8.94.18-9.36-9.91-19.25-19.31-29.46-29.44,11.62-11.4,23-22.39,34.2-33.58,16.5-16.51,32.77-33.24,49.27-49.73,20.4-20.38,41-40.58,61.42-60.93s40.93-40.84,61.33-61.33c13.3-13.36,26.4-26.9,39.73-40.22,14.55-14.54,29.3-28.9,43.9-43.4,11.07-11,22-22.13,33.13-33,3.12-3,1.34-4.71-.83-6.88q-63.49-63.4-126.93-126.87L690.48,242.38C689.3,241.21,688,240.12,686.45,238.66Z" transform="translate(-686.13 -206.11)"/></svg>