<?xml version="1.0" encoding="utf-8"?>
<!-- Generator: Adobe Illustrator 26.0.1, SVG Export Plug-In . SVG Version: 6.00 Build 0)  -->
<svg version="1.1" id="Layer_1" xmlns="http://www.w3.org/2000/svg" xmlns:xlink="http://www.w3.org/1999/xlink" x="0px" y="0px"
	 viewBox="0 0 612 792" style="enable-background:new 0 0 612 792;" xml:space="preserve">
<style type="text/css">
	.st0{display:none;fill:#010101;}
	.st1{display:none;fill:#FEFEFE;}
	.st2{fill:#F8270F;}
	.st3{fill:#E5E5E5;}
	.st4{fill:#C11508;}
	.st5{display:none;fill:#E8E7E7;}
	.st6{fill:#F92911;}
	.st7{display:none;fill:#E2DDDD;}
	.st8{display:none;fill:#E6C9C8;}
	.st9{display:none;fill:#ECCACB;}
</style>
<g>
	<path class="st0" d="M0,641.5c0-163.5,0-327,0-490.5c204.1,0,408.2,0,612.3,0c0,163.5,0,327,0,490.5
		C408.2,641.5,204.1,641.5,0,641.5z M156.4,312.4c0.3,5,0.8,11.7,1.3,18.4c1.2,17.6,2.6,35.3,5.5,52.7c2.6,16,6.9,31.6,13,46.6
		c6.2,15.1,13.9,29.5,23,43.2c12.4,18.7,27.1,35.3,44.3,49.6c18.1,15,37.9,27.7,58.4,39.1c3,1.7,5.5,1.7,8.5,0
		c15.9-9,31.4-18.6,46-29.5c12.1-9,23.5-18.8,33.7-30c11.6-12.7,21.8-26.5,30.5-41.4c6.5-11.1,12.2-22.6,16.9-34.6
		c5.2-13.5,9.2-27.5,11.4-41.9c1.5-10.3,2.7-20.7,3.8-31c0.9-8.3,1.5-16.7,2.1-25.1c0.5-6.9,0.8-13.9,1.1-20.8
		c0.1-2.4-0.7-4.5-3.1-5.5c-3.3-1.4-6.5-2.8-9.9-4c-32-11-63-24.2-92.5-40.8c-13.3-7.5-26.7-14.9-39.9-22.5c-3-1.7-5.7-1.8-8.7,0
		c-9.4,5.5-19,10.7-28.4,16.1c-20.8,11.9-41.9,23.1-64.1,32c-15.2,6.1-30.5,11.6-45.8,17.3C157,302.7,156.3,303.8,156.4,312.4z
		 M547.6,389.3c-0.4-5.1-1-14.6-2.2-24.1c-2.6-21.7-8.3-42.5-16.9-62.6c-16-37.8-40.1-69.6-72.3-95.2c-33.7-26.7-72-43.3-114.6-49.7
		c-21.6-3.3-43.3-3.5-65-0.9c-25.6,3.1-50.1,10.1-73.4,21.1c-37,17.5-67.8,42.6-92,75.7c-28,38.2-43.3,81.1-46.3,128.3
		c-1.7,27.5,1.3,54.5,9,81c14.3,49.1,41.3,90,81.4,121.7c50.1,39.6,107.4,56.8,171.2,51.9c24.3-1.9,47.8-7.6,70.4-16.6
		c8.6-3.4,16.9-7.8,25-12.2c5.2-2.8,6.3-6.8,4.2-11.8c-1.9-4.3-6.3-7.9-11.6-6.2c-2.7,0.8-5.3,1.7-7.8,2.9
		c-28.8,14.6-59.4,22.3-91.5,23.8c-26.4,1.2-52.3-2.3-77.4-10.6c-41.3-13.6-75.8-37.1-103.2-70.8c-27.2-33.4-43-71.7-48-114.5
		c-2.4-21.1-1.6-42.1,2.1-63.1c5.2-28.9,15.4-55.8,31.5-80.2c36.8-55.7,88.3-88.8,154.4-99.1c22.4-3.5,44.8-3.1,67.2,0.6
		c27.4,4.5,53.2,13.6,76.8,28.2c62.5,38.6,98.1,94.5,106.6,167.4c2.7,22.9,1.2,45.6-3.7,68.1c-9.4,42.8-29.7,79.8-60.6,110.9
		c-1.7,1.7-3.4,3.5-4.9,5.4c-3.8,4.6-4,8.9-0.4,13.6c2.2,2.9,5.3,5.3,9.1,3.7c3.1-1.3,6.1-3.4,8.6-5.7
		c16.5-15.3,29.8-33.2,41.1-52.6C537,479.4,547.8,438,547.6,389.3z"/>
	<path class="st1" d="M0,641.5c204.1,0,408.2,0,612.3,0c-0.1,0.2-0.1,0.4-0.2,0.4c-0.6,0-1.2,0-1.8,0c-202.7,0-405.5,0-608.2,0
		C1.4,642,0.7,641.7,0,641.5z"/>
	<path class="st2" d="M116.3,289.9c-0.1-10.9,0.8-12.2,8.9-15.3c19.4-7.3,38.9-14.3,58.1-22c28.2-11.3,55-25.5,81.3-40.6
		c12-6.8,24.1-13.5,36-20.5c3.8-2.2,7.2-2.1,11,0c16.8,9.6,33.8,19,50.6,28.6c37.4,21.1,76.7,37.8,117.2,51.7
		c4.2,1.5,8.4,3.3,12.5,5.1c3,1.3,4.1,3.9,4,7c-0.4,8.8-0.7,17.6-1.4,26.4c-0.7,10.6-1.6,21.2-2.7,31.8c-1.4,13.1-2.9,26.3-4.9,39.3
		c-2.7,18.2-7.8,36-14.4,53.1c-5.9,15.2-13.1,29.8-21.4,43.9c-11.1,18.8-23.9,36.4-38.7,52.5c-12.9,14.1-27.4,26.5-42.8,38
		c-18.6,13.9-38.2,26-58.4,37.4c-3.8,2.1-7,2.1-10.7,0c-26-14.5-51.1-30.6-74-49.6c-21.8-18.1-40.5-39.2-56.2-62.9
		c-11.5-17.3-21.2-35.6-29.1-54.8c-7.8-19-13.2-38.8-16.5-59.1c-3.7-22.2-5.4-44.5-7-66.9C117.3,304.8,116.7,296.2,116.3,289.9z
		 M171.6,396.2c-0.6,74.1,59.9,134.6,134.2,134.8c74.8,0.2,134.5-60.5,135.1-133.5c0.6-75.3-60.5-136-134.6-136
		C231.7,261.6,171.1,322,171.6,396.2z"/>
	<path class="st3" d="M612.3,387.4c0.2,61.8-13.4,114.3-41.7,162.9c-14.3,24.6-31.2,47.3-52.1,66.7c-3.2,2.9-6.9,5.5-10.9,7.2
		c-4.9,2.1-8.7-1-11.6-4.7c-4.5-5.9-4.3-11.4,0.5-17.2c1.9-2.4,4-4.6,6.2-6.8c39.2-39.5,64.9-86.3,76.8-140.6
		c6.2-28.5,8.2-57.4,4.8-86.4c-10.8-92.5-56-163.3-135.2-212.2c-29.9-18.5-62.7-29.9-97.4-35.7c-28.3-4.7-56.8-5.2-85.2-0.8
		c-83.7,13.1-149.1,55-195.7,125.7c-20.5,31-33.4,65.2-40,101.7c-4.8,26.5-5.8,53.2-2.7,80c6.3,54.2,26.4,102.7,60.8,145.1
		c34.7,42.7,78.5,72.6,130.8,89.8c31.9,10.5,64.6,15,98.1,13.4c40.8-1.9,79.6-11.7,116.1-30.2c3.1-1.6,6.5-2.7,9.9-3.7
		c6.7-2.1,12.4,2.4,14.7,7.9c2.7,6.3,1.3,11.4-5.3,15c-10.4,5.6-20.8,11.1-31.8,15.4c-28.7,11.4-58.4,18.7-89.2,21.1
		c-80.9,6.2-153.6-15.5-217.1-65.8C64.3,594.9,30.2,543,12,480.8C2.2,447.3-1.6,413,0.6,378.1c3.8-59.9,23.3-114.2,58.7-162.6
		c30.6-41.8,69.6-73.8,116.6-95.9c29.5-13.9,60.6-22.8,93-26.8c27.5-3.3,55-3,82.4,1.1c54,8.1,102.5,29.1,145.3,63
		c40.8,32.4,71.3,72.7,91.6,120.6c10.8,25.5,18.1,51.9,21.4,79.4C611,368.9,611.8,381,612.3,387.4z"/>
	<path class="st4" d="M171.6,396.2c-0.5-74.2,60.1-134.6,134.7-134.6c74.1,0,135.2,60.6,134.6,136c-0.6,72.9-60.3,133.7-135.1,133.5
		C231.5,530.9,170.9,470.3,171.6,396.2z M306.1,518.1c66.6,0.3,121.7-54.3,122-120.7c0.2-68-54.1-122.7-121.9-122.8
		c-66.9-0.1-121.5,54.3-121.8,121.2C184,463.2,238.4,517.8,306.1,518.1z"/>
	<path class="st5" d="M306.1,492.3c-53.4-0.2-96.3-43.3-96-96.5c0.2-52.8,43.3-95.6,96.1-95.6c53.5,0.1,96.4,43.2,96.2,96.9
		C402.1,449.5,358.6,492.6,306.1,492.3z M300.9,401.7c-2.3,2.2-4.6,4.5-6.8,6.7c-1.9-1.5-4-2.8-5.7-4.5c-6.2-6-12.2-12.2-18.3-18.3
		c-4-4-8.1-4.8-12.4-1.5c-3.7,2.9-7,6.5-9.9,10.2c-2.1,2.6-1.8,6,0.1,8.9c0.8,1.3,1.8,2.4,2.9,3.5c10.4,10.5,20.9,20.9,31.3,31.3
		c1.3,1.3,2.7,2.6,4.2,3.7c2.7,2,7.4,2.8,10.3,0c2.7-2.7,5.7-5.2,8.3-8c1.3-1.5,2-3.5,2.9-5.3c0.1-0.3-0.3-0.8-0.5-1.2
		c1.2-1.2,2.4-2.4,3.6-3.6c0.2-0.2,0.3-0.3,0.5-0.5c0.2-0.1,0.3-0.3,0.5-0.4c0.2-0.2,0.3-0.3,0.5-0.5c0.1-0.2,0.3-0.3,0.4-0.5
		c0.2-0.2,0.3-0.3,0.5-0.5c0.3-0.3,0.6-0.6,0.9-0.9c0.2-0.2,0.3-0.3,0.5-0.5c4.1-4.1,8.1-8.3,12.3-12.4c6.8-6.8,13.6-13.5,20.4-20.3
		c0.2-0.2,0.3-0.3,0.5-0.5c4.2-4.2,8.4-8.5,12.7-12.7c0.1-0.1,0.2-0.3,0.3-0.4c-0.4-0.6-0.8-1.2-1.4-1.8c-3.6-3.6-7.3-7.3-10.9-10.9
		c-2.6-2.6-3.3-2.7-6-0.1c-6.4,6.1-12.7,12.3-19,18.6c-7.4,7.3-14.7,14.6-22.1,21.9C301.2,401.4,301.1,401.5,300.9,401.7z"/>
	<path class="st6" d="M300,402.6c9.3-9.3,18.6-18.5,28-27.8c8-7.9,16-15.8,24.1-23.5c3.5-3.3,4.3-3.1,7.6,0.2
		c4.6,4.6,9.3,9.2,13.9,13.8c0.7,0.7,1.2,1.5,1.7,2.2c-0.1,0.2-0.2,0.3-0.3,0.5c-5.4,5.4-10.7,10.7-16.1,16.1
		c-0.2,0.2-0.4,0.4-0.6,0.6c-8.6,8.6-17.3,17.1-25.9,25.7c-5.2,5.2-10.4,10.5-15.5,15.7c-0.2,0.2-0.4,0.4-0.6,0.6
		c-0.4,0.4-0.7,0.7-1.1,1.1c-0.2,0.2-0.4,0.4-0.6,0.6c-0.2,0.2-0.3,0.4-0.5,0.6c-0.2,0.2-0.4,0.4-0.6,0.6c-0.2,0.2-0.4,0.3-0.6,0.5
		c-0.2,0.2-0.4,0.4-0.6,0.6c-1.5,1.5-3.1,3.1-4.6,4.6c-0.6,0.6-1.1,1.2-1.7,1.8c-0.2,0.2-0.4,0.4-0.5,0.5c-0.2,0.2-0.4,0.5-0.6,0.7
		c-0.3,0.3-0.6,0.6-0.9,0.9c-4.5,4.5-9.1,8.8-13.4,13.4c-1.8,1.9-3.1,2.9-5.2,0.4c-1.1-1.4-2.7-2.4-4-3.7
		c-11.1-11-22.2-22-33.2-33.1c-4.7-4.7-9.3-9.4-13.8-14.3c-2.5-2.8-2.3-3.5,0.3-6.3c4.6-4.7,9.2-9.5,14-14c0.8-0.7,3-0.9,4-0.3
		c2,1.1,3.7,2.9,5.5,4.4c0.2,0.2,0.4,0.4,0.6,0.6l0,0c0.2,0.2,0.4,0.4,0.6,0.6l0,0c0.2,0.2,0.4,0.4,0.6,0.6l0,0
		c0.2,0.2,0.4,0.4,0.6,0.6l0,0c0.2,0.2,0.4,0.4,0.6,0.6l0,0c0.2,0.2,0.4,0.4,0.6,0.6l0,0c0.2,0.2,0.4,0.4,0.6,0.6l0,0
		c0.2,0.2,0.4,0.4,0.6,0.6l0,0c0.2,0.2,0.4,0.4,0.6,0.6l0,0c0.2,0.2,0.4,0.4,0.6,0.6l0,0c0.2,0.2,0.4,0.4,0.6,0.6l0,0
		c0.2,0.2,0.4,0.4,0.6,0.6l0,0c0.2,0.2,0.4,0.4,0.6,0.6l0,0c0.2,0.2,0.4,0.4,0.6,0.6l0,0c0.2,0.2,0.4,0.4,0.6,0.6l0,0
		c0.2,0.2,0.4,0.4,0.6,0.6c0.2,0.2,0.4,0.4,0.6,0.6c0.2,0.2,0.4,0.4,0.6,0.6l0,0c0.2,0.2,0.4,0.4,0.6,0.6l0,0
		c0.2,0.2,0.4,0.4,0.6,0.6l0,0c0.2,0.2,0.4,0.4,0.6,0.6l0,0c0.2,0.2,0.4,0.4,0.6,0.6l0,0c0.2,0.2,0.4,0.4,0.6,0.6l0,0
		c0.2,0.2,0.4,0.4,0.6,0.6l0,0c0.2,0.2,0.4,0.4,0.6,0.6l0,0c0.2,0.2,0.4,0.4,0.6,0.6c0.2,0.2,0.4,0.4,0.6,0.6l0,0
		c0.2,0.2,0.4,0.4,0.6,0.6l0,0c0.2,0.2,0.4,0.4,0.6,0.6l0,0c0.2,0.2,0.4,0.4,0.6,0.6c0.2,0.2,0.4,0.4,0.6,0.6
		c0.2,0.2,0.4,0.4,0.6,0.6l0,0c0.2,0.2,0.4,0.4,0.6,0.6l0,0c0.2,0.2,0.4,0.4,0.6,0.6l0,0c0.2,0.2,0.4,0.4,0.6,0.6l0,0
		c0.2,0.2,0.4,0.4,0.6,0.6l0,0c0.2,0.2,0.4,0.4,0.6,0.6l0,0c0.2,0.2,0.4,0.4,0.6,0.6l0,0c0.2,0.2,0.4,0.4,0.6,0.6l0,0
		c0.2,0.2,0.4,0.4,0.6,0.6l0,0c0.2,0.2,0.4,0.4,0.6,0.6l0,0c0.2,0.2,0.4,0.4,0.6,0.6l0,0c0.2,0.2,0.4,0.4,0.6,0.6l0,0
		c0.2,0.2,0.4,0.4,0.6,0.6l0,0c0.2,0.2,0.4,0.4,0.6,0.6l0,0c0.2,0.2,0.4,0.4,0.6,0.6l0,0c0.2,0.2,0.4,0.4,0.6,0.6l0,0
		c0.2,0.2,0.4,0.4,0.6,0.6l0,0c0.3,0.8,0.7,1.5,1.1,2.5c1.7-1.9,2.5-2.8,3.4-3.7c0.2-0.2,0.4-0.5,0.7-0.7c2.9-2.9,5.8-5.7,8.7-8.6
		C299.7,403,299.9,402.8,300,402.6z"/>
	<path class="st7" d="M268.2,388.1c-1.4-1.2-2.7-2.6-4.3-3.5c-0.8-0.4-2.5-0.3-3.1,0.3c-3.8,3.6-7.4,7.3-11,11.1
		c-2.1,2.1-2.2,2.7-0.2,4.9c3.5,3.9,7.2,7.6,10.9,11.3c8.7,8.7,17.5,17.4,26.2,26.1c1,1,2.3,1.8,3.2,2.9c1.6,2,2.7,1.2,4.1-0.3
		c3.4-3.6,7-7.1,10.6-10.6c0.2-0.2,0.5-0.5,0.7-0.7c0.2-0.2,0.3-0.4,0.5-0.5c0.1-0.1,0.3-0.3,0.4-0.4c0.4-0.5,0.9-0.9,1.3-1.4
		c0.2,0.4,0.6,1,0.5,1.2c-0.9,1.8-1.6,3.9-2.9,5.3c-2.6,2.8-5.6,5.3-8.3,8c-2.9,2.8-7.5,2-10.3,0c-1.5-1.1-2.9-2.4-4.2-3.7
		c-10.5-10.4-20.9-20.8-31.3-31.3c-1.1-1.1-2.1-2.2-2.9-3.5c-1.9-2.9-2.2-6.3-0.1-8.9c2.9-3.7,6.2-7.3,9.9-10.2
		c4.2-3.3,8.3-2.5,12.4,1.5c6.1,6.1,12.2,12.2,18.3,18.3c1.7,1.7,3.8,3,5.7,4.5c-0.2,0.2-0.3,0.4-0.5,0.6c-1.2,0.3-2.4,0.6-3.5,0.9
		c0,0,0,0,0,0c-0.1-0.1-0.3-0.3-0.4-0.4c0,0,0,0,0,0c-0.2-0.1-0.3-0.3-0.5-0.4c0,0,0,0,0,0c-0.2-0.2-0.3-0.3-0.5-0.5c0,0,0,0,0,0
		c-0.1-0.2-0.3-0.3-0.4-0.5c0,0,0,0,0,0c-0.2-0.1-0.3-0.3-0.5-0.4c0,0,0,0,0,0c-0.1-0.2-0.3-0.3-0.4-0.5c0,0,0,0,0,0
		c-0.2-0.2-0.3-0.3-0.5-0.5c0,0,0,0,0,0c-0.2-0.2-0.3-0.3-0.5-0.5c0,0,0,0,0,0c-0.2-0.2-0.3-0.3-0.5-0.5c0,0,0,0,0,0
		c-0.2-0.2-0.3-0.3-0.5-0.5c0,0,0,0,0,0c-0.2-0.2-0.3-0.3-0.5-0.5c0,0,0,0,0,0c-0.1-0.2-0.3-0.3-0.4-0.5c0,0,0,0,0,0
		c-0.1-0.2-0.3-0.3-0.4-0.5c0,0,0,0,0,0c-0.1-0.1-0.3-0.3-0.4-0.5c0,0,0,0,0,0c-0.2-0.1-0.3-0.3-0.5-0.4c0,0,0,0,0,0
		c-0.1-0.2-0.3-0.3-0.4-0.5c0,0,0,0,0,0c-0.2-0.2-0.3-0.3-0.5-0.5c-0.2-0.2-0.3-0.3-0.5-0.5c-0.1-0.2-0.3-0.3-0.4-0.5c0,0,0,0,0,0
		c-0.2-0.1-0.3-0.3-0.5-0.4c0,0,0,0,0,0c-0.2-0.2-0.3-0.3-0.5-0.5c0,0,0,0,0,0c-0.2-0.2-0.3-0.3-0.5-0.5c-0.2-0.2-0.3-0.3-0.5-0.5
		c0,0,0,0,0,0c-0.1-0.2-0.3-0.3-0.4-0.5c0,0,0,0,0,0c-0.2-0.1-0.3-0.3-0.5-0.4c0,0,0,0,0,0c-0.2-0.2-0.3-0.3-0.5-0.5c0,0,0,0,0,0
		c-0.2-0.2-0.3-0.3-0.5-0.5c0,0,0,0,0,0c-0.1-0.2-0.3-0.3-0.4-0.5c0,0,0,0,0,0c-0.2-0.1-0.3-0.3-0.5-0.4c0,0,0,0,0,0
		c-0.2-0.1-0.3-0.3-0.5-0.4c0,0,0,0,0,0c-0.2-0.2-0.3-0.3-0.5-0.5c-0.2-0.1-0.3-0.3-0.5-0.4c-0.1-0.2-0.3-0.3-0.4-0.5c0,0,0,0,0,0
		c-0.2-0.1-0.3-0.3-0.5-0.4c0,0,0,0,0,0c-0.2-0.2-0.3-0.3-0.5-0.5c0,0,0,0,0,0c-0.2-0.2-0.3-0.3-0.5-0.5c0,0,0,0,0,0
		c-0.2-0.2-0.3-0.3-0.5-0.5c0,0,0,0,0,0c-0.2-0.1-0.3-0.3-0.5-0.4c0,0,0,0,0,0c-0.1-0.2-0.3-0.3-0.4-0.5c0,0,0,0,0,0
		c-0.1-0.2-0.3-0.3-0.4-0.5c0,0,0,0,0,0c-0.2-0.1-0.3-0.3-0.5-0.4c0,0,0,0,0,0c-0.2-0.2-0.3-0.3-0.5-0.5c0,0,0,0,0,0
		c-0.2-0.2-0.3-0.3-0.5-0.5c0,0,0,0,0,0c-0.1-0.2-0.3-0.3-0.4-0.5c0,0,0,0,0,0c-0.2-0.1-0.3-0.3-0.5-0.4c0,0,0,0,0,0
		c-0.1-0.2-0.3-0.3-0.4-0.5l0,0c-0.2-0.2-0.3-0.3-0.5-0.5l0,0C268.5,388.4,268.3,388.3,268.2,388.1z"/>
	<path class="st8" d="M301.3,401.3c-0.1,0.1-0.3,0.3-0.4,0.4C301.1,401.5,301.2,401.4,301.3,401.3z"/>
	<path class="st9" d="M360.4,374c0.1-0.1,0.2-0.3,0.3-0.4C360.6,373.7,360.5,373.9,360.4,374z"/>
	<path class="st9" d="M347.3,387.2c0.2-0.2,0.3-0.3,0.5-0.5C347.6,386.9,347.4,387,347.3,387.2z"/>
	<path class="st9" d="M312.7,421.7c0.2-0.2,0.3-0.3,0.5-0.5C313,421.4,312.9,421.5,312.7,421.7z"/>
	<path class="st9" d="M311.8,422.6c0.2-0.2,0.3-0.3,0.5-0.5C312.1,422.3,312,422.5,311.8,422.6z"/>
	<path class="st9" d="M310.9,423.5c0.2-0.2,0.3-0.3,0.5-0.5C311.2,423.2,311.1,423.4,310.9,423.5z"/>
	<path class="st9" d="M314.1,420.3c0.2-0.2,0.3-0.3,0.5-0.5C314.4,420,314.2,420.2,314.1,420.3z"/>
	<path class="st8" d="M290,409.9c1.2-0.3,2.4-0.6,3.5-0.9c-0.6,0.7-1.3,1.4-2.7,2.9C290.6,411.1,290.3,410.5,290,409.9z"/>
	<path class="st9" d="M305.1,429.6c-0.2,0.2-0.5,0.5-0.7,0.7C304.6,430,304.8,429.8,305.1,429.6z"/>
	<path class="st8" d="M269.6,389.5c0.2,0.1,0.3,0.3,0.5,0.4C269.9,389.8,269.7,389.6,269.6,389.5z"/>
	<path class="st8" d="M270,389.9c0.1,0.2,0.3,0.3,0.4,0.5C270.3,390.2,270.2,390.1,270,389.9z"/>
	<path class="st8" d="M270.5,390.4c0.2,0.2,0.3,0.3,0.5,0.5C270.8,390.7,270.6,390.5,270.5,390.4z"/>
	<path class="st8" d="M270.9,390.9c0.2,0.2,0.3,0.3,0.5,0.5C271.2,391.2,271.1,391,270.9,390.9z"/>
	<path class="st8" d="M271.4,391.3c0.2,0.1,0.3,0.3,0.5,0.4C271.7,391.6,271.5,391.5,271.4,391.3z"/>
	<path class="st8" d="M271.8,391.8c0.1,0.2,0.3,0.3,0.4,0.5C272.1,392.1,272,391.9,271.8,391.8z"/>
	<path class="st8" d="M272.3,392.2c0.1,0.2,0.3,0.3,0.4,0.5C272.6,392.5,272.4,392.4,272.3,392.2z"/>
	<path class="st8" d="M272.7,392.7c0.2,0.1,0.3,0.3,0.5,0.4C273,393,272.9,392.8,272.7,392.7z"/>
	<path class="st8" d="M273.2,393.1c0.2,0.2,0.3,0.3,0.5,0.5C273.5,393.4,273.4,393.3,273.2,393.1z"/>
	<path class="st8" d="M273.7,393.6c0.2,0.2,0.3,0.3,0.5,0.5C274,393.9,273.8,393.7,273.7,393.6z"/>
	<path class="st8" d="M274.1,394c0.2,0.2,0.3,0.3,0.5,0.5C274.4,394.3,274.3,394.2,274.1,394z"/>
	<path class="st8" d="M274.6,394.5c0.2,0.1,0.3,0.3,0.5,0.4C274.9,394.8,274.7,394.6,274.6,394.5z"/>
	<path class="st8" d="M275,394.9c0.1,0.2,0.3,0.3,0.4,0.5C275.3,395.3,275.2,395.1,275,394.9z"/>
	<path class="st8" d="M275.9,395.9c0.2,0.2,0.3,0.3,0.5,0.5C276.2,396.2,276.1,396,275.9,395.9z"/>
	<path class="st8" d="M276.4,396.3c0.2,0.1,0.3,0.3,0.5,0.4C276.7,396.6,276.5,396.5,276.4,396.3z"/>
	<path class="st8" d="M276.8,396.8c0.2,0.1,0.3,0.3,0.5,0.4C277.1,397.1,277,396.9,276.8,396.8z"/>
	<path class="st8" d="M277.3,397.2c0.1,0.2,0.3,0.3,0.4,0.5C277.6,397.5,277.4,397.4,277.3,397.2z"/>
	<path class="st8" d="M277.7,397.7c0.2,0.2,0.3,0.3,0.5,0.5C278,398,277.9,397.8,277.7,397.7z"/>
	<path class="st8" d="M278.2,398.1c0.2,0.2,0.3,0.3,0.5,0.5C278.5,398.4,278.3,398.3,278.2,398.1z"/>
	<path class="st8" d="M278.7,398.6c0.2,0.1,0.3,0.3,0.5,0.4C279,398.9,278.8,398.7,278.7,398.6z"/>
	<path class="st8" d="M279.1,399c0.1,0.2,0.3,0.3,0.4,0.5C279.4,399.3,279.3,399.2,279.1,399z"/>
	<path class="st8" d="M279.6,399.5c0.2,0.2,0.3,0.3,0.5,0.5C279.9,399.8,279.7,399.6,279.6,399.5z"/>
	<path class="st8" d="M280,399.9c0.2,0.2,0.3,0.3,0.5,0.5C280.3,400.2,280.2,400.1,280,399.9z"/>
	<path class="st8" d="M280.5,400.4c0.2,0.2,0.3,0.3,0.5,0.5C280.8,400.7,280.6,400.5,280.5,400.4z"/>
	<path class="st8" d="M280.9,400.8c0.2,0.1,0.3,0.3,0.5,0.4C281.2,401.1,281.1,401,280.9,400.8z"/>
	<path class="st8" d="M281.4,401.3c0.1,0.2,0.3,0.3,0.4,0.5C281.7,401.6,281.5,401.4,281.4,401.3z"/>
	<path class="st8" d="M282.3,402.2c0.2,0.2,0.3,0.3,0.5,0.5C282.6,402.5,282.4,402.4,282.3,402.2z"/>
	<path class="st8" d="M282.7,402.7c0.1,0.2,0.3,0.3,0.4,0.5C283,403,282.9,402.8,282.7,402.7z"/>
	<path class="st8" d="M283.2,403.1c0.2,0.1,0.3,0.3,0.5,0.4C283.5,403.4,283.3,403.3,283.2,403.1z"/>
	<path class="st8" d="M283.7,403.6c0.1,0.2,0.3,0.3,0.4,0.5C284,403.9,283.8,403.7,283.7,403.6z"/>
	<path class="st8" d="M284.1,404c0.1,0.2,0.3,0.3,0.4,0.5C284.4,404.3,284.3,404.2,284.1,404z"/>
	<path class="st8" d="M284.6,404.5c0.1,0.2,0.3,0.3,0.4,0.5C284.9,404.8,284.7,404.6,284.6,404.5z"/>
	<path class="st8" d="M285,404.9c0.2,0.2,0.3,0.3,0.5,0.5C285.3,405.2,285.2,405.1,285,404.9z"/>
	<path class="st8" d="M285.5,405.4c0.2,0.2,0.3,0.3,0.5,0.5C285.8,405.7,285.6,405.5,285.5,405.4z"/>
	<path class="st8" d="M285.9,405.8c0.2,0.2,0.3,0.3,0.5,0.5C286.2,406.1,286.1,406,285.9,405.8z"/>
	<path class="st8" d="M286.4,406.3c0.2,0.2,0.3,0.3,0.5,0.5C286.7,406.6,286.5,406.4,286.4,406.3z"/>
	<path class="st8" d="M287.3,407.2c0.1,0.2,0.3,0.3,0.4,0.5C287.6,407.5,287.4,407.4,287.3,407.2z"/>
	<path class="st8" d="M287.7,407.7c0.2,0.1,0.3,0.3,0.5,0.4C288,408,287.9,407.8,287.7,407.7z"/>
	<path class="st8" d="M288.2,408.1c0.1,0.2,0.3,0.3,0.4,0.5C288.5,408.4,288.4,408.3,288.2,408.1z"/>
	<path class="st8" d="M288.6,408.6c0.2,0.2,0.3,0.3,0.5,0.5C289,408.9,288.8,408.7,288.6,408.6z"/>
	<path class="st8" d="M289.1,409c0.2,0.1,0.3,0.3,0.5,0.4C289.4,409.3,289.3,409.2,289.1,409z"/>
	<path class="st8" d="M289.6,409.5c0.1,0.1,0.3,0.3,0.4,0.4C289.9,409.8,289.7,409.6,289.6,409.5z"/>
	<path class="st8" d="M286.8,406.7c0.2,0.2,0.3,0.3,0.5,0.5C287.1,407.1,287,406.9,286.8,406.7z"/>
	<path class="st8" d="M268.2,388.1c0.2,0.2,0.3,0.3,0.5,0.5C268.5,388.4,268.3,388.3,268.2,388.1z"/>
	<path class="st9" d="M305.9,428.6c-0.1,0.1-0.3,0.3-0.4,0.4C305.7,428.9,305.8,428.7,305.9,428.6z"/>
	<path class="st8" d="M268.6,388.6c0.2,0.2,0.3,0.3,0.5,0.5C269,388.9,268.8,388.7,268.6,388.6z"/>
	<path class="st8" d="M269.1,389c0.1,0.2,0.3,0.3,0.4,0.5C269.4,389.3,269.3,389.2,269.1,389z"/>
</g>
</svg>
