<?xml version="1.0" encoding="utf-8"?>
<!-- Generator: Adobe Illustrator 26.0.1, SVG Export Plug-In . SVG Version: 6.00 Build 0)  -->
<svg version="1.1" id="Layer_1" xmlns="http://www.w3.org/2000/svg" xmlns:xlink="http://www.w3.org/1999/xlink" x="0px" y="0px"
	 viewBox="0 0 612 792" style="enable-background:new 0 0 612 792;" xml:space="preserve">
<style type="text/css">
	.st0{display:none;}
	.st1{fill:#FFFFFF;}
</style>
<g>
	<path class="st0" d="M0,653.5c0-171.4,0-342.7,0-514.1c204.6,0,409.1,0,613.7,0c0,171.4,0,342.7,0,514.1
		C409.1,653.5,204.6,653.5,0,653.5z M420,494c37.6,32.1,74.9,63.9,112.5,96c7.8-10.5,15.4-20.8,23.2-31.2
		c-40-28.9-79.7-57.7-119.5-86.5c-1.5,2-2.8,3.6-4,5.2c-10.9-8.3-21.7-16.4-32.4-24.5c55.4-78.4,38.2-184.6-36.5-241.7
		c-73.9-56.6-181.8-46.5-243.3,28.5C64.5,307.4,65.6,410.4,133.6,477c32.2,31.4,71.3,48.2,116.1,49.7c56.9,1.8,104-19.9,141.6-62.4
		c10.8,8.1,21.5,16.3,32.5,24.5C422.5,490.6,421.4,492.2,420,494z"/>
	<path class="st1" d="M0,653.5c204.6,0,409.1,0,613.7,0c-0.1,0.2-0.2,0.4-0.2,0.5c-0.6,0-1.3,0-1.9,0c-203.1,0-406.3,0-609.4,0
		C1.4,654,0.7,653.7,0,653.5z"/>
	<path class="st1" d="M420,494c1.3-1.8,2.5-3.4,3.8-5.2c-10.9-8.2-21.7-16.4-32.5-24.5c-37.7,42.5-84.8,64.2-141.6,62.4
		c-44.9-1.4-84-18.2-116.1-49.7C65.6,410.4,64.5,307.4,120,239.8c61.6-75,169.4-85,243.3-28.5c74.7,57.1,91.9,163.3,36.5,241.7
		c10.7,8.1,21.5,16.3,32.4,24.5c1.3-1.6,2.5-3.2,4-5.2c39.8,28.8,79.5,57.5,119.5,86.5c-7.8,10.5-15.4,20.7-23.2,31.2
		C495,557.9,457.6,526,420,494z M412.6,350.6c-0.5-87.1-71.7-157.8-160.5-155.5c-84.5,2.2-151.4,71-151.8,155
		c-0.5,87.8,71.4,159.3,160.6,156.8C345.3,504.5,412.4,435.8,412.6,350.6z"/>
	<path class="st0" d="M412.6,350.6c-0.2,85.3-67.3,153.9-151.7,156.3c-89.2,2.5-161.1-68.9-160.6-156.8c0.4-84,67.4-152.8,151.8-155
		C340.9,192.7,412.1,263.5,412.6,350.6z"/>
</g>
</svg>
