<?xml version="1.0" encoding="UTF-8"?><svg id="Layer_1" xmlns="http://www.w3.org/2000/svg" viewBox="0 0 1920 1080"><path d="M1247.98,709.38c-12.58,17.31-24.99,34.4-37.63,51.8-12.44-8.82-24.65-17.46-36.85-26.12-19.7-13.98-39.44-27.89-59.03-42.01-3.26-2.35-5.41-2.66-8.48,.31-14.21,13.75-30.18,25.27-47.7,34.29-17.16,8.84-35.26,15.43-54.31,19.39-22.37,4.65-44.74,5.6-67.47,3.29-25.69-2.6-49.99-10.05-72.73-21.6-23.86-12.12-44.8-28.45-62.63-48.83-19.06-21.77-33.15-46.3-42.32-73.46-5.51-16.32-8.65-33.35-9.94-50.76-2-26.95,1.08-53.25,9-78.84,3.96-12.78,9.62-25.17,15.75-37.11,8.16-15.88,18.16-30.83,31.08-43.24,11.83-11.37,24.34-22.14,37.37-32.11,15.59-11.92,33.66-19.69,52.15-25.78,21.4-7.05,43.67-10.72,66.26-10.51,19.5,.19,38.8,2.77,57.61,8.33,27.59,8.15,52.66,20.97,75.14,39.09,22.95,18.49,40.96,40.98,54.68,66.78,9.62,18.09,16.31,37.46,20,57.73,3.69,20.25,4.52,40.56,2.66,61.11-2.32,25.53-9.82,49.47-20.61,72.5-1.86,3.97-.81,5.68,2.42,7.95,30.1,21.19,60.09,42.54,90.11,63.84,1.75,1.24,3.49,2.52,5.47,3.95Zm-288.54-15.27c84.73-.57,153.85-66.75,154.44-153.21,.58-84.79-66.27-154.26-153.08-154.81-85.07-.54-154.22,66.64-154.7,153.22-.46,84.71,66.42,153.38,153.34,154.79Z"/></svg>