<?xml version="1.0" encoding="utf-8"?>
<!-- Generator: Adobe Illustrator 26.0.1, SVG Export Plug-In . SVG Version: 6.00 Build 0)  -->
<svg version="1.1" id="Layer_1" xmlns="http://www.w3.org/2000/svg" xmlns:xlink="http://www.w3.org/1999/xlink" x="0px" y="0px"
	 viewBox="0 0 612 792" style="enable-background:new 0 0 612 792;" xml:space="preserve">
<style type="text/css">
	.st0{display:none;}
	.st1{fill:#8B8B8B;}
	.st2{fill:#898988;}
	.st3{fill:#878787;}
	.st4{fill:#8A8B8A;}
	.st5{fill:#8B8B8A;}
	.st6{display:none;fill:#010101;}
</style>
<g>
	<path class="st0" d="M0,647.6c0-171.1,0-342.1,0-513.2c204,0,408,0,612,0c0,171.1,0,342.1,0,513.2C408,647.6,204,647.6,0,647.6z
		 M350.2,198c-0.5-0.3-1-0.6-1.4-0.9c-0.8-0.5-1.6-1-2.4-1.4c-0.3-0.2-0.6-0.4-0.9-0.6c-0.5-0.3-1-0.5-1.4-0.8
		c-0.8-0.5-1.6-0.9-2.4-1.4c-1.4-0.8-2.9-1.6-4.3-2.4c-1.6-0.8-3.2-1.6-4.8-2.4c-2.8-1.3-5.7-2.6-8.5-3.9c-0.3-0.1-0.6-0.3-1-0.4
		c-1.3-0.5-2.5-1-3.8-1.5c-1.9-0.7-3.8-1.5-5.7-2.2c-1.1-0.4-2.2-0.7-3.3-1.1c-0.8-0.3-1.6-0.5-2.4-0.8c-0.8-0.2-1.6-0.4-2.4-0.7
		c-0.8-0.3-1.6-0.5-2.4-0.8c-0.3-0.1-0.6-0.1-0.9-0.2c-2.1-0.6-4.1-1.1-6.2-1.7c-0.3-0.1-0.6-0.1-1-0.2c-1.3-0.3-2.5-0.6-3.8-0.9
		c-1.1-0.2-2.2-0.4-3.3-0.6c-0.3-0.1-0.6-0.2-1-0.3c-0.6-0.1-1.3-0.2-1.9-0.3c-1.1-0.2-2.2-0.4-3.3-0.6c-0.8-0.1-1.6-0.2-2.4-0.3
		c-0.6-0.1-1.3-0.2-1.9-0.3c-0.5,0-0.9-0.1-1.4-0.1c-0.8-0.1-1.6-0.2-2.4-0.3c-0.9-0.1-1.9-0.1-2.8-0.2c-4.1-0.3-8.2-0.8-12.3-0.8
		c-26.5-0.4-51.9,4.9-76,16.1c-43.3,20.1-73.5,52.7-90.8,97C79.4,314.9,77.1,347.7,84,381c1.7,8.5,4.8,16.7,7.2,25
		c0.3,0.9,0.6,1.7,1,2.6c0.2,0.7,0.5,1.3,0.7,2c2.4,5.2,4.8,10.4,7.2,15.6c0.2,0.4,0.5,0.9,0.7,1.3c3.4,5.8,6.6,11.7,10.3,17.2
		c3.8,5.5,8,10.7,12.3,15.9c7.5,9,16.2,16.6,25.4,23.9c7.5,6,15.5,11.2,24,15.7c19.8,10.5,40.8,17.1,63.1,19.7
		c12.5,1.4,24.9,1.6,37.3,0.3c13.9-1.5,27.5-4.6,40.8-9.4c9.8-3.5,19.2-7.8,28.2-12.9c9.7-5.4,18.9-11.7,27.1-19.1
		c6.9-6.2,13.3-13.1,19.9-19.6c0.3-0.3,0.7-0.6,1-0.9c10.9,8.3,21.7,16.5,32.6,24.7c-1.3,1.9-2.5,3.5-3.8,5.2c3.1,2.6,6,5.2,9,7.8
		c4.7,4,9.4,8,14.1,12c4.8,4.1,9.7,8.1,14.5,12.2c0.4,0.4,0.8,0.8,1.2,1.2c21.3,18.2,42.6,36.4,63.9,54.6c3,2.6,6.1,5.2,9.3,7.9
		c7.7-10.4,15.2-20.5,22.8-30.8c-0.9-0.7-1.5-1.2-2.1-1.6c-20.8-15-41.5-30.1-62.3-45.1c-6.2-4.4-12.4-8.8-18.5-13.2l0,0
		c-1-0.7-2-1.5-2.9-2.2c-0.1-0.1-0.2-0.2-0.3-0.2c-1.3-0.9-2.6-1.9-3.9-2.8c-0.6-0.5-1.3-0.9-1.9-1.4c-0.5-0.3-0.9-0.7-1.4-1
		c-1.7-1.2-3.5-2.3-5.2-3.6c-6.3-4.6-12.7-9.1-18.9-13.7c-1.1-0.8-1.8-0.9-2.6,0.4c-0.8,1.3-1.9,2.5-2.9,3.8
		c-10.8-8.4-21.5-16.6-32.2-24.9c0.5-0.8,0.9-1.4,1.4-2.1c27.1-40,36.5-83.9,28.2-131.4c-4.9-28.6-16.9-54.2-34.9-77.1
		c-6.6-8.4-13.8-16.3-22.1-23.1c-1.1-1-2.2-1.9-3.4-2.9c0,0,0,0,0,0c-0.6-0.5-1.3-1-1.9-1.6c-0.1-0.1-0.3-0.2-0.4-0.3
		c-0.6-0.5-1.3-1-1.9-1.5c-0.4-0.3-0.8-0.6-1.1-0.9c-0.4-0.3-0.8-0.6-1.3-0.9c0,0,0,0,0,0c-0.8-0.6-1.6-1.2-2.5-1.8
		c-1.4-1-2.8-1.9-4.2-2.9c-1.2-0.8-2.3-1.5-3.5-2.3C350.8,198.4,350.5,198.2,350.2,198z"/>
	<path class="st1" d="M461.9,486.5c0.6,0.5,1.3,0.9,1.9,1.4c0.6,1.9,2.1,2.7,3.9,2.8c0.2,0,0.3,0.1,0.3,0.2c0.2,1.7,1.5,2.1,2.9,2.2
		c0,0,0,0,0,0c1.8,1.7,3.4,3.7,5.5,5c2.1,1.4,3.4,2.8,3.4,5.4c0,1.3,0.8,2.5,1.3,3.8c0.1,0.8-0.4,2.3-1.2,2.4
		c-2.6,0.4-3.2,2.5-4.6,4.1c-1.6,1.9-1.1,5.3-4.4,5.9c-0.1,0-0.2,0.2-0.3,0.4c-0.8,1.2-1.6,2.4-2.6,4c0.1,0.2,0.6,0.7,0.9,1.3
		c0.2,0.4,0.1,1.1-0.1,1.5c-0.1,0.2-1,0.3-1.2,0.2c-2.1-1.5-4.2-3-6.1-4.6c-1.4-1.2-2.6-2.9-4.8-2.2c-4.8-4.1-9.7-8.1-14.5-12.2
		c-4.7-4-9.4-8-14.1-12c-3-2.5-5.9-5.1-9-7.8c1.2-1.7,2.4-3.3,3.8-5.2c-10.9-8.2-21.7-16.5-32.6-24.7c-0.3,0.3-0.7,0.6-1,0.9
		c-6.6,6.6-13,13.4-19.9,19.6c-8.3,7.4-17.4,13.7-27.1,19.1c-9,5.1-18.5,9.3-28.2,12.9c-13.2,4.8-26.8,7.9-40.8,9.4
		c-12.4,1.3-24.9,1.2-37.3-0.3c-22.3-2.6-43.3-9.2-63.1-19.7c-8.5-4.5-16.5-9.7-24-15.7c-9.2-7.3-17.9-14.9-25.4-23.9
		c-4.3-5.1-8.5-10.4-12.3-15.9c-3.8-5.5-6.9-11.5-10.3-17.2c-0.2-0.4-0.5-0.9-0.7-1.3c-2.4-5.2-4.8-10.4-7.2-15.6
		c0.9-1.1,0.6-1.7-0.7-2c-0.3-0.9-0.6-1.7-1-2.6c0.2-4.8-1.5-9.7,0.9-14.4c0-0.1,0-0.2,0-0.2c-1.9-2.7,1.1-6.1-1.1-8.8
		c-0.2-0.3,0.2-1.5,0.6-1.9c1.2-1.2,0.6-2.1,0.1-3.3c-0.8-1.9-1.4-4-1.4-6c0-2.6,0.7-5.3,1.2-8.4c2,0,1-1.6,0.7-3.3
		c-0.2-1.4-0.2-3.1,0.5-4.3c1.5-2.6,2.5-5.2,2-8c0.7-0.6,1.9-1.2,1.8-1.7c-0.1-1.9-0.6-3.8-0.8-5.8c-0.1-0.7,0.1-1.8,0.4-1.9
		c0.6-0.2,1.5,0,2.1,0.3c0.6,0.3,1,0.9,1.5,1.3c0,0.5,0,0.9,0,1.4c-0.3,0.2-0.7,0.5-1,0.7c0.3,0.2,0.7,0.5,1,0.7c0,1.6,0,3.2,0,4.7
		c-0.6,0.3-1.3,0.5-1.9,0.8c0,0.2,0,0.4,0.1,0.7c0.6,0.2,1.3,0.3,1.9,0.5c0,0.3,0,0.6,0,0.9c-1.7,0.1-3.5,0.9-3.3,2.5
		c0.2,1.5,1.2,3.5,3.6,3.2c0,0.6,0.1,1.3,0.1,1.9c-1.9,1.7-1.8,2.9,0.4,4.3c0.1,0.8,0.1,1.6,0.2,2.4c0.1,0.3,0.1,0.6,0.2,1
		c0.1,0.5,0.1,0.9,0.2,1.4c-2,1.1-0.7,1.7,0.4,2.4c0.1,0.6,0.1,1.3,0.2,1.9c-1.4,1.4-0.7,2.4,0.6,3.3c0.3,1.3,0.5,2.6,0.8,3.8
		c0.1,0.3,0.1,0.6,0.2,0.9c0.7,3.2,1,6.6,2.2,9.7c3.2,8.7,6.2,17.4,10.2,25.7c3.8,7.7,8.6,14.9,13.3,22.1
		c6.1,9.5,13.9,17.7,22.2,25.3c7.4,6.7,15.4,12.6,24,17.7c12.5,7.5,25.9,13.2,40,16.9c5.5,1.4,11,2.6,16.6,3.4
		c6.2,0.9,12.5,1.6,18.8,1.8c5.9,0.2,11.8-0.1,17.7-0.5c4.7-0.3,9.4-0.9,14.1-1.7c3.5-0.6,6.9-1.5,10.3-2.4
		c4.2-1.1,8.5-1.9,12.5-3.4c9.5-3.4,18.8-7.4,27.6-12.4c10-5.6,19.3-12.2,27.6-20c6.5-6.1,12.7-12.7,18.1-19.8
		c27.5-35.7,38.2-76.2,30.9-120.6c-8.2-49.8-35.1-87.1-79-111.9c-7.5-4.2-15.7-7.1-23.5-10.7c1.5-1.9,2.6-1.6,5.1-0.6
		c3.1,1.2,6.5,2.1,9.9,2.5c1.9,0.2,4-0.6,6.3-1.1c-0.6,0.9-1,1.5-1.3,2.1c-0.2,0.6-0.3,1.4-0.4,2.1c0.8,0,1.9,0.3,2.4-0.1
		c1-0.8,1.7-2,2.3-3.2c1.9-3.3,3.1-3.4,5.8-0.8c0.7,0.7,1.6,1.5,2.4,1.6c2.1,0.3,4.3,0.3,6.5,0.4c0.1,0,0.2,0.2,0.3,0.3
		c-0.2,0.6-0.3,1.2-0.7,2.5c3.1-1.7,5.2-1.5,5.9,1.8c1.1-0.4,1.9-0.7,2.5-0.8c0.6,1.2,1,2,1.4,2.8c0.8-0.4,1.6-0.9,2.4-1.3
		c0.6-0.3,1.3-0.5,1.9-0.8c0.5,0,1,0,1.5-0.1c0,0,0,0,0,0c0.4,0.3,0.8,0.6,1.3,0.9c0.4,0.3,0.8,0.6,1.1,0.9c0.6,0.5,1.3,1,1.9,1.5
		c0.1,0.1,0.3,0.2,0.4,0.3c0.6,0.5,1.3,1,1.9,1.6c0,0,0,0,0,0c1.1,1,2.2,1.9,3.4,2.9c8.3,6.8,15.5,14.7,22.1,23.1
		c17.9,22.8,29.9,48.4,34.9,77.1c8.2,47.5-1.1,91.4-28.2,131.4c-0.4,0.6-0.9,1.3-1.4,2.1c10.7,8.3,21.4,16.5,32.2,24.9
		c1-1.3,2.1-2.5,2.9-3.8c0.8-1.3,1.5-1.2,2.6-0.4c6.3,4.6,12.6,9.2,18.9,13.7c1.7,1.2,3.5,2.4,5.2,3.6
		C460.9,485.8,461.4,486.1,461.9,486.5z M472.7,515.2c-0.3-0.1-0.6-0.2-0.9-0.4c-0.2,0.6-0.4,1.3-0.6,1.9c0.2,0.1,0.5,0.2,0.7,0.3
		C472.1,516.4,472.4,515.8,472.7,515.2z M94.5,407.2c0.3,0,0.6-0.1,0.8-0.1c-0.1-0.7-0.3-1.5-0.4-2.2c-0.2,0-0.4,0.1-0.6,0.1
		C94.3,405.7,94.4,406.5,94.5,407.2z M96.8,365.9c-0.1,0.1-0.2,0.3-0.2,0.4c0.1,0.1,0.3,0.2,0.4,0.3c0-0.1,0.1-0.3,0.1-0.4
		C97.1,366,97,366,96.8,365.9z M96.1,359.8c0.1-0.1,0.2-0.1,0.3-0.2c0-0.1-0.1-0.2-0.1-0.2c-0.1,0-0.2,0.1-0.3,0.2
		C96,359.7,96.1,359.7,96.1,359.8z"/>
	<path class="st2" d="M99.8,339.7c-0.5-0.5-0.9-1-1.5-1.3c-0.7-0.3-1.6-0.6-2.1-0.3c-0.4,0.2-0.5,1.3-0.4,1.9
		c0.2,1.9,0.7,3.8,0.8,5.8c0,0.5-1.1,1.1-1.8,1.7c0.5,2.9-0.5,5.4-2,8c-0.7,1.2-0.7,2.9-0.5,4.3c0.2,1.6,1.3,3.3-0.7,3.3
		c-0.5,3.1-1.2,5.7-1.2,8.4c0,2,0.7,4.1,1.4,6c0.5,1.3,1.1,2.2-0.1,3.3c-0.4,0.4-0.8,1.6-0.6,1.9c2.2,2.7-0.8,6.1,1.1,8.8
		c0,0.1,0,0.2,0,0.2c-2.4,4.7-0.7,9.6-0.9,14.4c-2.4-8.3-5.5-16.5-7.2-25c-6.8-33.3-4.6-66.1,7.8-97.8c17.3-44.3,47.5-76.9,90.8-97
		c24.1-11.2,49.5-16.4,76-16.1c4.1,0.1,8.2,0.5,12.3,0.8c-0.1,0.2-0.1,0.5-0.2,0.7c-1.6,3.4-1.9,3.5-5.5,2.7
		c-0.5-0.1-1.3,0.1-1.7,0.4c-2.2,2-3.6,1.2-4.9-1c-0.7-1.1-1.3-1.2-2.5-0.4c-0.9,0.6-2.3,1.2-3.4,1c-2.8-0.6-3.7-0.2-4,2.6
		c-0.1,1.6-0.7,1.8-1.9,1c-0.4-0.3-0.9-0.6-1.3-1c-0.6,0.7-1,1.2-2,2.3c-0.1-1.5-0.2-2.4-0.3-3.6c-1.1,0.4-2.1,0.7-3,1.1
		c-1.8-1.5-1.8-1.5-2.9-0.3c0.8,1.5,1.7,2.9,2.3,4.3c0.2,0.4-0.2,1.1-0.3,1.7c-0.5-0.2-1.1-0.2-1.4-0.5c-0.5-0.6-0.9-1.5-1.3-2.2
		c-1.2-2.3-3.8-2.8-5.5-0.9c-1.4,1.5-2.5,3.2-3.8,4.7c-0.5,0.6-1.3,1.2-2,1.3c-2.4,0.3-4.8,0.3-7.3,0.4c0,1,0.1,1.8,0.1,2.6
		c-1.5,0.4-2.9,0.6-4.2,1.1c-1.4,0.5-2.8,1.1-4.1,1.8c-0.7,0.4-1.4,1.1-1.9,1.8c-0.5,0.6-0.8,1.4-1.1,2.1c-0.6-0.5-1.1-1-1.7-1.5
		c-0.3-0.3-0.7-0.6-1.1-0.7c-0.2,0-0.7,0.5-0.7,0.8c0,1.9,0,3.7,0,5.6c-0.9,0.4-1.7,0.8-2.6,1.1c-50.7,20.4-82.9,57.1-96.4,109.9
		C101.6,319.4,101.2,329.6,99.8,339.7z"/>
	<path class="st3" d="M456.6,520.2c2.3-0.7,3.4,1,4.8,2.2c2,1.6,4.1,3.1,6.1,4.6c0.3,0.2,1.1,0.1,1.2-0.2c0.2-0.4,0.3-1,0.1-1.5
		c-0.2-0.6-0.8-1.1-0.9-1.3c1-1.5,1.8-2.7,2.6-4c0.1-0.1,0.2-0.3,0.3-0.4c3.3-0.6,2.8-4,4.4-5.9c1.3-1.6,2-3.7,4.6-4.1
		c0.8-0.1,1.3-1.6,1.2-2.4c-0.5-1.3-1.3-2.5-1.3-3.8c0-2.6-1.3-4-3.4-5.4c-2.1-1.3-3.7-3.3-5.5-5c6.2,4.4,12.4,8.8,18.5,13.2
		c20.8,15,41.6,30.1,62.3,45.1c0.6,0.5,1.2,1,2.1,1.6c-7.6,10.3-15.1,20.4-22.8,30.8c-3.2-2.7-6.3-5.3-9.3-7.9
		c-21.3-18.2-42.6-36.4-63.9-54.6C457.4,521,457,520.5,456.6,520.2z"/>
	<path class="st4" d="M203.1,198.7c0-1.9-0.1-3.7,0-5.6c0-0.3,0.5-0.8,0.7-0.8c0.4,0.1,0.8,0.4,1.1,0.7c0.6,0.5,1.1,1,1.7,1.5
		c0.4-0.7,0.7-1.5,1.1-2.1c0.5-0.7,1.2-1.4,1.9-1.8c1.3-0.7,2.7-1.3,4.1-1.8c1.3-0.5,2.7-0.7,4.2-1.1c0-0.8-0.1-1.6-0.1-2.6
		c2.5-0.1,4.9-0.2,7.3-0.4c0.7-0.1,1.5-0.7,2-1.3c1.3-1.5,2.5-3.2,3.8-4.7c1.7-1.8,4.4-1.3,5.5,0.9c0.4,0.8,0.7,1.6,1.3,2.2
		c0.3,0.3,0.9,0.3,1.4,0.5c0.1-0.6,0.5-1.2,0.3-1.7c-0.7-1.5-1.5-2.9-2.3-4.3c1-1.2,1-1.2,2.9,0.3c0.9-0.3,1.9-0.7,3-1.1
		c0.1,1.2,0.2,2.1,0.3,3.6c0.9-1.1,1.4-1.7,2-2.3c0.5,0.4,0.9,0.7,1.3,1c1.2,0.8,1.8,0.6,1.9-1c0.2-2.8,1.1-3.2,4-2.6
		c1,0.2,2.4-0.3,3.4-1c1.2-0.8,1.8-0.7,2.5,0.4c1.3,2.2,2.7,3,4.9,1c0.4-0.4,1.2-0.6,1.7-0.4c3.6,0.8,3.9,0.7,5.5-2.7
		c0.1-0.2,0.2-0.4,0.2-0.7c0.9,0.1,1.9,0.1,2.8,0.2c0.7,1.1,1.4,1.6,2.4,0.3c0.5,0,0.9,0.1,1.4,0.1c0.5,1,1,1.6,1.9,0.3
		c0.8,0.1,1.6,0.2,2.4,0.3c1,0.6,1.9,2,3.3,0.6c0.6,0.1,1.3,0.2,1.9,0.3c0.3,0.1,0.6,0.2,1,0.3c1.1,0.2,2.2,0.4,3.3,0.6
		c1.5,2.3,2.2,2.5,3.8,0.9c0.3,0.1,0.6,0.1,1,0.2c1.4,3,4,1.7,6.2,1.7c0.3,0.1,0.6,0.1,0.9,0.2c0.8,0.3,1.6,0.5,2.4,0.8
		c0.8,0.2,1.6,0.4,2.4,0.7c0.8,0.3,1.6,0.5,2.4,0.8c1.1,0.4,2.2,0.7,3.3,1.1c1.5,1.7,3.2,3,5.7,2.2c1.3,0.5,2.5,1,3.8,1.5
		c0.3,0.1,0.6,0.3,1,0.4c2.8,1.3,5.7,2.6,8.5,3.9c1.6,0.8,3.2,1.6,4.8,2.4c1.4,0.8,2.9,1.6,4.3,2.4c0.8,0.5,1.6,0.9,2.4,1.4
		c0.5,0.3,1,0.5,1.4,0.8c0.3,0.2,0.6,0.4,0.9,0.6c0.8,0.5,1.6,1,2.4,1.4c0.2,0.5,0.3,1,0.5,1.5c-1.6-0.7-3.2-1.2-4.7-2
		c-3.7-2.1-7.1-5-11.7-4.9c-0.4,0-1-0.7-1.1-1.2c-0.4-1.5-1.1-1.7-2.4-1.2c-1.6,0.6-3,0.3-3.7-1.4c-0.6-1.4-1.5-1.4-2.7-1.1
		c-1.6,0.5-3.3,0.8-5.3,1.3c0.6-1.3,1.1-2.2,1.5-3.1c-0.2-0.2-0.3-0.4-0.5-0.5c-0.7,0.3-1.8,0.4-2.1,1c-1.3,2.3-2.4,2.2-3.5-0.3
		c-0.8,0.6-1.6,1-2,1.5c-1.1,1.5-2.1,1.8-3.2,0c-0.3-0.5-1.2-0.5-1.9-0.7c-0.6-0.2-1.6-0.1-1.7-0.4c-1.3-3.4-4.1-2.5-7-2.5
		c1.3,1,2.3,1.7,3.4,2.5c-3.1,0.4-5.9,0.8-8.8,1.1c-0.7-2.4-1-2.5-3.2-1.3c-1.1,0.6-2.3,0.8-3.2,1.1c-0.8,1.3-1.5,2.4-2.1,3.6
		c-0.3,0.6-0.4,1.3-0.6,2c-1.1-0.2-2.2-0.4-3.3-0.5c0.2-0.6,0.6-1.2,0.5-1.8c-0.2-1-0.4-2.3-1.1-2.8c-0.5-0.3-2.2,0.1-2.6,0.7
		c-0.6,0.9-0.4,2.2-0.6,3.3c-0.6-0.1-1.3-0.2-1.9-0.3c-0.3,0-0.6-0.1-1-0.1c-2.1-0.2-4.1-0.4-6.2-0.6c-0.3-0.3-0.6-0.6-0.8-0.9
		c-0.2,0.3-0.4,0.6-0.6,0.8c-0.8-0.1-1.6-0.1-2.4-0.2c-2-2.1-5-2.2-6.7-0.2c-1.1,0-2.2,0-3.3,0c-1.3-1.8-2.2-1.8-3.8,0.1
		c-1.9,0.1-3.8,0.2-5.7,0.3c-0.5,0-1,0.1-1.4,0.1c-2.4,0.3-4.7,0.5-7.1,0.8c-0.5,0.1-1,0.2-1.4,0.3c-1.6,0.2-3.2,0.5-4.7,0.7
		c-0.3,0.1-0.6,0.2-1,0.2c-1.3,0.2-2.5,0.5-3.8,0.7c-0.5,0.1-1,0.2-1.4,0.3c-1.9,0.5-3.7,0.9-5.6,1.4c-0.4-0.2-0.7-0.4-1.1-0.7
		c-0.1,0.3-0.3,0.7-0.4,1c-2.1,0.6-4.1,1.2-6.2,1.8c-0.3,0.1-0.6,0.2-1,0.3C206.5,197.6,204.8,198.1,203.1,198.7z M235.4,184.1
		c-1.5-0.8-2.5-1.5-3.6-1.9c-0.5-0.2-1.3,0.3-1.8,0.6c-0.1,0.1-0.1,1,0,1C231.6,184.3,233.1,185.4,235.4,184.1z M298.7,179.7
		c0.1,0,0.1-0.1,0.2-0.1c-0.1-0.1-0.2-0.2-0.2-0.3c0,0-0.1,0.1-0.2,0.1C298.5,179.5,298.6,179.6,298.7,179.7z"/>
	<path class="st5" d="M282.7,191.9c0.2-0.7,0.3-1.4,0.6-2c0.6-1.2,1.4-2.3,2.1-3.6c0.9-0.3,2.1-0.6,3.2-1.1c2.2-1.2,2.5-1.1,3.2,1.3
		c2.8-0.4,5.7-0.7,8.8-1.1c-1.1-0.8-2.1-1.5-3.4-2.5c2.9,0,5.7-0.9,7,2.5c0.1,0.3,1.1,0.3,1.7,0.4c0.6,0.2,1.6,0.3,1.9,0.7
		c1.2,1.8,2.1,1.5,3.2,0c0.4-0.6,1.2-0.9,2-1.5c1.1,2.5,2.2,2.6,3.5,0.3c0.3-0.5,1.4-0.7,2.1-1c0.2,0.2,0.3,0.4,0.5,0.5
		c-0.4,0.9-0.9,1.8-1.5,3.1c2-0.5,3.7-0.8,5.3-1.3c1.2-0.3,2.1-0.3,2.7,1.1c0.7,1.7,2.1,2.1,3.7,1.4c1.3-0.5,2.1-0.3,2.4,1.2
		c0.1,0.5,0.7,1.2,1.1,1.2c4.7-0.1,8,2.8,11.7,4.9c1.5,0.8,3.1,1.4,4.7,2c0.2,0,0.3,0,0.5,0c0.5,0.3,1,0.6,1.4,1
		c1.1,0.5,2.3,0.9,3.4,1.4c1.4,1,2.8,1.9,4.2,2.9c0.3,0.6,0.6,1.3,1,1.9c-0.6,0.3-1.3,0.5-1.9,0.8c-0.8,0.4-1.6,0.9-2.4,1.3
		c-0.4-0.8-0.8-1.7-1.4-2.8c-0.5,0.2-1.4,0.5-2.5,0.8c-0.7-3.2-2.8-3.5-5.9-1.8c0.4-1.2,0.5-1.8,0.7-2.5c-0.1-0.1-0.2-0.3-0.3-0.3
		c-2.2-0.1-4.4-0.1-6.5-0.4c-0.9-0.1-1.7-0.9-2.4-1.6c-2.7-2.6-3.9-2.5-5.8,0.8c-0.7,1.1-1.4,2.3-2.3,3.2c-0.5,0.4-1.6,0.1-2.4,0.1
		c0.1-0.7,0.1-1.4,0.4-2.1c0.2-0.6,0.7-1.2,1.3-2.1c-2.3,0.4-4.4,1.3-6.3,1.1c-3.4-0.4-6.7-1.3-9.9-2.5c-2.5-1-3.6-1.2-5.1,0.6
		c-2.8-0.9-5.7-1.8-8.5-2.6c-0.2-1.9-1-1.6-2-0.5c-0.2,0-0.3,0-0.4-0.1c-0.4-0.5-0.8-1-1.2-1.6c-0.2,0.3-0.5,0.7-0.7,1
		C290.3,193.5,286.5,192.7,282.7,191.9z M319.1,195.1c-0.3,0-0.6,0-0.9,0.1c0,0.7,0.1,1.4,0.1,2c0.3,0,0.5,0,0.8,0
		C319.1,196.5,319.1,195.8,319.1,195.1z M325.8,196.5c0.2,0.1,0.4,0.1,0.6,0.2c0.1-0.4,0.2-0.8,0.3-1.3c-0.1,0-0.3-0.1-0.4-0.1
		C326.1,195.7,326,196.1,325.8,196.5z M339,199.2c0.2-0.1,0.3-0.3,0.4-0.4c0,0-0.2-0.3-0.2-0.3c-0.2,0.1-0.3,0.2-0.5,0.3
		C338.7,198.9,338.9,199,339,199.2z M306.9,193.2l0,0.2l0.1,0L306.9,193.2z"/>
	<path class="st2" d="M302.2,176.7c-2.2,0.1-4.8,1.4-6.2-1.7C298.1,175.5,300.1,176.1,302.2,176.7z"/>
	<path class="st2" d="M319.3,182.3c-2.5,0.8-4.2-0.5-5.7-2.2C315.5,180.9,317.4,181.6,319.3,182.3z"/>
	<path class="st2" d="M295.1,174.8c-1.6,1.6-2.3,1.5-3.8-0.9C292.5,174.3,293.8,174.5,295.1,174.8z"/>
	<path class="st2" d="M337.4,190.5c-1.6-0.8-3.2-1.6-4.8-2.4C334.2,188.9,335.8,189.7,337.4,190.5z"/>
	<path class="st3" d="M467.7,490.7c-1.9-0.2-3.3-0.9-3.9-2.8C465.1,488.8,466.4,489.7,467.7,490.7z"/>
	<path class="st2" d="M371.2,213.7c-1.1-1-2.2-1.9-3.4-2.9C368.9,211.8,370,212.8,371.2,213.7z"/>
	<path class="st2" d="M285.1,172.8c-1.4,1.5-2.3,0-3.3-0.6C282.9,172.5,284,172.7,285.1,172.8z"/>
	<path class="st2" d="M354.6,200.9c-1.1-0.5-2.3-0.9-3.4-1.4c0-0.3,0-0.6,0-0.9C352.3,199.3,353.4,200.1,354.6,200.9z"/>
	<path class="st3" d="M471,493.1c-1.5-0.1-2.7-0.5-2.9-2.2C469,491.6,470,492.3,471,493.1z"/>
	<path class="st2" d="M276.1,171.5c-1,1.3-1.7,0.8-2.4-0.3C274.5,171.3,275.3,171.4,276.1,171.5z"/>
	<path class="st2" d="M279.4,171.9c-0.9,1.3-1.4,0.6-1.9-0.3C278.1,171.7,278.8,171.8,279.4,171.9z"/>
	<path class="st2" d="M305.5,177.6c-0.8-0.3-1.6-0.5-2.4-0.8C303.9,177.1,304.7,177.4,305.5,177.6z"/>
	<path class="st2" d="M92.1,408.6c1.4,0.3,1.6,0.9,0.7,2C92.6,409.9,92.4,409.2,92.1,408.6z"/>
	<path class="st2" d="M359.7,205.7c-0.3-0.6-0.6-1.3-1-1.9c0.8,0.6,1.6,1.2,2.5,1.8C360.7,205.6,360.2,205.6,359.7,205.7z"/>
	<path class="st2" d="M344.1,194.2c-0.8-0.5-1.6-0.9-2.4-1.4C342.4,193.3,343.3,193.8,344.1,194.2z"/>
	<path class="st2" d="M310.3,179.1c-0.8-0.3-1.6-0.5-2.4-0.8C308.7,178.5,309.5,178.8,310.3,179.1z"/>
	<path class="st2" d="M365.5,208.9c-0.6-0.5-1.3-1-1.9-1.5C364.2,207.9,364.8,208.4,365.5,208.9z"/>
	<path class="st2" d="M367.8,210.9c-0.6-0.5-1.3-1-1.9-1.6C366.6,209.8,367.2,210.3,367.8,210.9z"/>
	<path class="st4" d="M351.1,198.6c0,0.3,0,0.6,0,0.9c-0.5-0.3-1-0.6-1.4-1c0.2-0.2,0.3-0.4,0.5-0.5
		C350.5,198.2,350.8,198.4,351.1,198.6z"/>
	<path class="st2" d="M350.2,198c-0.2,0.2-0.3,0.4-0.5,0.5c-0.2,0-0.3,0-0.5,0c-0.2-0.5-0.3-1-0.5-1.5
		C349.3,197.4,349.7,197.7,350.2,198z"/>
	<path class="st2" d="M100.1,426.2c0.2,0.4,0.5,0.9,0.7,1.3C100.5,427.1,100.3,426.6,100.1,426.2z"/>
	<path class="st3" d="M461.9,486.5c-0.5-0.3-0.9-0.7-1.4-1C460.9,485.8,461.4,486.1,461.9,486.5z"/>
	<path class="st2" d="M324.1,184.2c-0.3-0.1-0.6-0.3-1-0.4C323.4,184,323.7,184.1,324.1,184.2z"/>
	<path class="st2" d="M362.4,206.5c-0.4-0.3-0.8-0.6-1.3-0.9C361.6,205.9,362,206.2,362.4,206.5z"/>
	<path class="st2" d="M287.9,173.4c-0.3-0.1-0.6-0.2-1-0.3C287.3,173.2,287.6,173.3,287.9,173.4z"/>
	<path class="st2" d="M346.4,195.6c-0.3-0.2-0.6-0.4-0.9-0.6C345.8,195.2,346.1,195.4,346.4,195.6z"/>
	<path class="st6" d="M296,194.9c0.1,0.1,0.2,0.2,0.4,0.1c0.7,0.2,1.3,0.4,2,0.5c2.8,0.9,5.7,1.8,8.5,2.6
		c7.9,3.5,16.1,6.4,23.5,10.7c43.9,24.8,70.8,62.1,79,111.9c7.3,44.4-3.4,84.9-30.9,120.6c-5.4,7.1-11.6,13.7-18.1,19.8
		c-8.3,7.8-17.6,14.3-27.6,20c-8.8,5-18.1,9-27.6,12.4c-4,1.5-8.3,2.3-12.5,3.4c-3.4,0.9-6.9,1.8-10.3,2.4
		c-4.7,0.8-9.4,1.4-14.1,1.7c-5.9,0.4-11.8,0.8-17.7,0.5c-6.3-0.2-12.6-0.9-18.8-1.8c-5.6-0.8-11.1-2-16.6-3.4
		c-14.1-3.7-27.5-9.4-40-16.9c-8.6-5.2-16.6-11-24-17.7c-8.3-7.6-16.1-15.8-22.2-25.3c-4.7-7.2-9.5-14.4-13.3-22.1
		c-4-8.3-7.1-17-10.2-25.7c-1.1-3.1-1.5-6.4-2.2-9.7c-0.1-0.3-0.1-0.6-0.2-0.9c-0.3-1.3-0.5-2.6-0.8-3.8c-0.2-1.1-0.4-2.2-0.6-3.3
		c-0.1-0.6-0.1-1.3-0.2-1.9c-0.1-0.8-0.2-1.6-0.4-2.4c-0.1-0.5-0.1-0.9-0.2-1.4c-0.1-0.3-0.1-0.6-0.2-1c-0.1-0.8-0.1-1.6-0.2-2.4
		c-0.1-1.4-0.3-2.9-0.4-4.3c0-0.6-0.1-1.3-0.1-1.9c-0.1-1.9-0.2-3.8-0.3-5.7c0-0.3,0-0.6,0-0.9c0-0.6,0-1.3,0-1.9c0-1.6,0-3.2,0-4.7
		c0-0.5,0-1,0-1.4c0-0.5,0-0.9,0-1.4c1.4-10,1.8-20.3,4.3-30c13.5-52.8,45.7-89.5,96.4-109.9c0.9-0.4,1.7-0.7,2.6-1.1
		c1.7-0.6,3.3-1.1,5-1.7c0.3-0.1,0.6-0.2,1-0.3c2.1-0.6,4.1-1.2,6.2-1.8c0.5-0.1,1-0.2,1.5-0.3c1.9-0.5,3.7-0.9,5.6-1.4
		c0.5-0.1,1-0.2,1.4-0.3c1.3-0.2,2.5-0.5,3.8-0.7c0.3-0.1,0.6-0.2,1-0.2c1.6-0.2,3.2-0.5,4.7-0.7c0.5-0.1,1-0.2,1.4-0.3
		c2.4-0.3,4.7-0.5,7.1-0.8c0.5,0,1-0.1,1.4-0.1c1.9-0.1,3.8-0.2,5.7-0.3c1.3,0,2.5-0.1,3.8-0.1c1.1,0,2.2,0,3.3,0
		c2.2,0.1,4.4,0.1,6.7,0.2c0.8,0.1,1.6,0.1,2.4,0.2c0.5,0,1,0,1.4,0.1c2.1,0.2,4.1,0.4,6.2,0.6c0.3,0,0.6,0.1,1,0.1
		c0.6,0.1,1.3,0.2,1.9,0.3c1.3,0.2,2.5,0.4,3.8,0.5c1.1,0.2,2.2,0.4,3.3,0.5c3.8,0.8,7.6,1.6,11.4,2.4
		C294.7,194.5,295.4,194.7,296,194.9z"/>
	<path class="st2" d="M99.7,350.1c0.1,1.9,0.2,3.8,0.3,5.7c-2.4,0.3-3.4-1.7-3.6-3.2C96.2,351,98,350.2,99.7,350.1z"/>
	<path class="st2" d="M100.2,357.7c0.1,1.4,0.3,2.9,0.4,4.3C98.3,360.7,98.2,359.4,100.2,357.7z"/>
	<path class="st3" d="M472.7,515.2c-0.3,0.6-0.5,1.2-0.8,1.9c-0.2-0.1-0.5-0.2-0.7-0.3c0.2-0.6,0.4-1.3,0.6-1.9
		C472,514.9,472.3,515,472.7,515.2z"/>
	<path class="st2" d="M99.7,347.3c0,0.6,0,1.3,0,1.9c-0.6-0.2-1.3-0.3-1.9-0.5c0-0.2,0-0.4-0.1-0.7C98.4,347.8,99,347.5,99.7,347.3z
		"/>
	<path class="st2" d="M101.7,371c0.2,1.1,0.4,2.2,0.6,3.3C101,373.4,100.3,372.4,101.7,371z"/>
	<path class="st2" d="M94.5,407.2c-0.1-0.7-0.2-1.5-0.2-2.2c0.2,0,0.4-0.1,0.6-0.1c0.1,0.7,0.3,1.5,0.4,2.2
		C95.1,407.1,94.8,407.2,94.5,407.2z"/>
	<path class="st2" d="M101.1,366.7c0.1,0.8,0.2,1.6,0.4,2.4C100.4,368.5,99.1,367.9,101.1,366.7z"/>
	<path class="st2" d="M99.7,341.1c0,0.5,0,1,0,1.4c-0.3-0.2-0.7-0.5-1-0.7C99,341.5,99.4,341.3,99.7,341.1z"/>
	<path class="st2" d="M96.8,365.9c0.1,0.1,0.3,0.1,0.3,0.2c0,0.1,0,0.3-0.1,0.4c-0.2-0.1-0.3-0.2-0.4-0.3
		C96.6,366.2,96.8,366,96.8,365.9z"/>
	<path class="st2" d="M96.1,359.8c0-0.1-0.1-0.1-0.1-0.2c0.1-0.1,0.2-0.1,0.3-0.2c0,0,0.1,0.1,0.1,0.2
		C96.3,359.7,96.2,359.7,96.1,359.8z"/>
	<path class="st2" d="M100.7,364.4c0.1,0.3,0.1,0.6,0.2,1C100.9,365,100.8,364.7,100.7,364.4z"/>
	<path class="st2" d="M103.1,378.1c0.1,0.3,0.1,0.6,0.2,0.9C103.2,378.7,103.1,378.4,103.1,378.1z"/>
	<path class="st5" d="M279.4,191.4c-1.3-0.2-2.5-0.4-3.8-0.5c0.2-1.1,0-2.4,0.6-3.3c0.4-0.6,2.1-1.1,2.6-0.7
		c0.7,0.5,0.9,1.8,1.1,2.8C280,190.1,279.6,190.8,279.4,191.4z"/>
	<path class="st2" d="M235.4,184.1c-2.3,1.3-3.8,0.1-5.4-0.3c-0.1,0-0.2-0.9,0-1c0.6-0.3,1.3-0.7,1.8-0.6
		C233,182.6,233.9,183.3,235.4,184.1z"/>
	<path class="st2" d="M262.8,189.7c-2.2-0.1-4.4-0.1-6.7-0.2C257.8,187.4,260.7,187.5,262.8,189.7z"/>
	<path class="st2" d="M252.8,189.5c-1.3,0-2.5,0.1-3.8,0.1C250.5,187.7,251.4,187.7,252.8,189.5z"/>
	<path class="st2" d="M216.8,194.5c-0.5,0.1-1,0.2-1.5,0.3c0.1-0.3,0.3-0.7,0.4-1C216.1,194.1,216.4,194.3,216.8,194.5z"/>
	<path class="st2" d="M266.6,189.9c-0.5,0-1,0-1.4-0.1c0.2-0.3,0.4-0.6,0.6-0.8C266,189.3,266.3,189.6,266.6,189.9z"/>
	<path class="st2" d="M243.3,190c-0.5,0-1,0.1-1.4,0.1C242.3,190.1,242.8,190,243.3,190z"/>
	<path class="st2" d="M223.8,192.8c-0.5,0.1-1,0.2-1.4,0.3C222.8,193.1,223.3,192.9,223.8,192.8z"/>
	<path class="st2" d="M234.7,190.9c-0.5,0.1-1,0.2-1.4,0.3C233.8,191.1,234.2,191,234.7,190.9z"/>
	<path class="st5" d="M298.7,179.7c-0.1-0.1-0.2-0.2-0.2-0.3c0.1,0,0.2-0.1,0.2-0.1c0.1,0.1,0.2,0.2,0.2,0.3
		C298.8,179.6,298.7,179.7,298.7,179.7z"/>
	<path class="st2" d="M228.6,191.9c-0.3,0.1-0.6,0.2-1,0.2C227.9,192.1,228.2,192,228.6,191.9z"/>
	<path class="st2" d="M273.7,190.5c-0.3,0-0.6-0.1-1-0.1C273.1,190.5,273.4,190.5,273.7,190.5z"/>
	<path class="st2" d="M209.1,196.7c-0.3,0.1-0.6,0.2-1,0.3C208.4,196.9,208.8,196.8,209.1,196.7z"/>
	<path class="st1" d="M319.1,195.1c0,0.7,0,1.4,0,2.1c-0.3,0-0.5,0-0.8,0c0-0.7-0.1-1.4-0.1-2C318.5,195.1,318.8,195.1,319.1,195.1z
		"/>
	<path class="st1" d="M296,194.9c-0.6-0.2-1.3-0.3-1.9-0.5c0.2-0.3,0.5-0.7,0.7-1C295.2,193.8,295.6,194.3,296,194.9z"/>
	<path class="st1" d="M298.4,195.6c-0.7-0.2-1.3-0.4-2-0.5C297.4,193.9,298.2,193.6,298.4,195.6z"/>
	<path class="st1" d="M325.8,196.5c0.2-0.4,0.3-0.8,0.5-1.2c0.1,0,0.3,0.1,0.4,0.1c-0.1,0.4-0.2,0.8-0.3,1.3
		C326.2,196.6,326,196.5,325.8,196.5z"/>
	<path class="st1" d="M339,199.2c-0.1-0.2-0.3-0.4-0.3-0.4c0.1-0.1,0.3-0.2,0.5-0.3c0,0,0.2,0.3,0.2,0.3
		C339.3,199,339.2,199.1,339,199.2z"/>
	<polygon class="st1" points="306.9,193.2 307,193.3 306.9,193.4 	"/>
</g>
</svg>
