<?xml version="1.0" encoding="utf-8"?>
<!-- Generator: Adobe Illustrator 27.3.1, SVG Export Plug-In . SVG Version: 6.00 Build 0)  -->
<svg version="1.1" id="Layer_1" xmlns="http://www.w3.org/2000/svg" xmlns:xlink="http://www.w3.org/1999/xlink" x="0px" y="0px"
	 viewBox="0 0 1115 1080" style="enable-background:new 0 0 1115 1080;" xml:space="preserve">
<style type="text/css">
	.st0{display:none;fill:#FAF9F8;}
	.st1{fill:#636363;}
</style>
<g>
	<path class="st0" d="M1115,1080c-371.67,0-743.33,0-1115,0C0,720,0,360,0,0c371.67,0,743.33,0,1115,0C1115,360,1115,720,1115,1080z
		 M93.47,1044.5c2.15,0.61,3.67,1.34,5.23,1.45c10.54,0.75,21.09,1.3,31.63,2.04c18.14,1.28,36.27,2.62,54.4,4.01
		c16.62,1.28,33.22,2.73,49.84,3.96c15.15,1.12,30.31,2.09,45.48,3.02c17.33,1.07,34.67,2.05,52.01,3.01
		c13.04,0.72,26.09,1.41,39.13,1.99c16.39,0.74,32.78,1.38,49.17,2.01c9.78,0.38,19.56,0.78,29.34,0.99
		c19.28,0.41,38.56,0.74,57.85,1c9.16,0.13,18.35-0.31,27.49,0.15c8.67,0.44,17.28-0.45,25.94-0.31c23.1,0.37,46.23-0.25,69.34-0.73
		c25.72-0.54,51.44-1.36,77.15-2.06c12.28-0.34,24.56-0.49,36.83-1.08c17.02-0.83,34.03-2.03,51.04-2.99
		c7.28-0.41,14.58-0.49,21.85-0.98c17.79-1.22,35.57-2.61,53.36-3.89c14.16-1.02,28.33-1.97,42.49-3c18.29-1.32,36.58-2.73,54.88-4
		c11.4-0.79,22.82-1.29,34.21-2.12c6.31-0.46,12.59-1.34,19.28-2.07c-0.82-14.2-1.74-27.73-2.36-41.27
		c-0.8-17.39-1.36-34.79-2.03-52.19c-0.66-16.88-1.34-33.75-2-50.63c-0.67-17.22-1.32-34.45-2-51.67
		c-0.65-16.39-1.35-32.77-1.99-49.15c-0.69-17.71-1.33-35.43-2.01-53.14c-0.65-16.88-1.33-33.76-2-50.64
		c-0.66-16.72-1.34-33.44-2-50.16c-0.67-17.05-1.32-34.09-2.01-51.14c-0.65-16.21-1.36-32.41-1.99-48.62
		c-0.7-18.22-1.32-36.44-2.02-54.66c-0.63-16.39-1.34-32.78-1.98-49.17c-0.69-17.72-1.31-35.44-2.02-53.16
		c-0.63-15.88-1.34-31.76-1.98-47.65c-0.69-17.22-1.34-34.44-2.01-51.65c-0.33-8.44-0.67-16.89-0.99-25.33
		c-0.68-17.9-1.31-35.79-2.01-53.69c-0.63-16.06-1.34-32.11-1.98-48.16c-0.69-17.22-1.34-34.43-2.01-51.65
		c-0.33-8.45-0.68-16.89-0.99-25.34c-0.68-18.22-1.42-36.44-1.97-54.67C980.81,23.58,981,16.01,981,8.44
		c-1.69-0.14-1.99-0.38-2.27-0.36c-13.79,1.28-27.56,2.69-41.36,3.87c-16.81,1.44-33.63,2.72-50.45,4.03
		c-17.31,1.35-34.63,2.72-51.94,3.99c-14.49,1.07-28.99,2.07-43.49,3c-16.67,1.07-33.34,2.07-50.01,3
		c-13.73,0.76-27.46,1.4-41.19,2.01c-16.04,0.72-32.09,1.51-48.14,1.97c-18.44,0.52-36.9,0.76-55.35,1.02
		c-7.51,0.11-15.03-0.07-22.55-0.07c-15.03,0.01-30.07,0.19-45.1,0.05c-11.28-0.11-22.55-0.61-33.83-0.91
		c-13.77-0.37-27.54-0.61-41.31-1.08c-15.39-0.53-30.77-1.22-46.15-1.92c-13.73-0.62-27.46-1.38-41.19-2.03
		c-14.69-0.7-29.38-1.32-44.07-2.04c-5.44-0.26-10.88-0.6-16.31-1.04c-11.83-0.96-23.64-2.11-35.47-2.99
		c-10.71-0.79-21.45-1.15-32.15-2.01c-15.11-1.21-30.19-2.72-45.29-4.08c-10.53-0.95-21.06-1.95-31.6-2.77
		c-9.13-0.71-18.27-1.22-27.31-1.81c-0.5,7.11-1.1,14.01-1.43,20.93c-0.45,9.44-0.66,18.9-1.04,28.34
		c-0.64,15.89-1.33,31.77-1.99,47.65c-0.67,15.87-1.36,31.74-1.99,47.62c-0.7,17.88-1.34,35.76-2.01,53.65
		c-0.66,17.39-1.31,34.78-2,52.16c-0.64,15.88-1.36,31.76-1.98,47.64c-0.7,17.88-1.34,35.76-2.01,53.64
		c-0.66,17.71-1.31,35.42-2.01,53.13c-0.63,15.89-1.35,31.77-1.98,47.65c-0.7,17.55-1.34,35.1-2.01,52.65
		c-0.67,17.73-1.31,35.46-2.01,53.19c-0.64,16.23-1.38,32.45-1.98,48.68c-0.57,15.33-1.1,30.67-1.44,46.01
		c-0.09,3.88,1.06,7.82,0.8,11.67c-0.42,6.14-2.62,12.31-2.15,18.31c1.03,13.14-3.91,26.3,0.4,39.36c0.25,0.77-0.55,1.85-0.74,2.8
		c-0.65,3.16-1.61,6.3-1.79,9.49c-0.31,5.5,0.08,11.03-0.17,16.53c-0.52,11.39-1.34,22.76-1.89,34.15
		c-0.75,15.54-1.4,31.08-2.01,46.63c-0.72,18.55-1.32,37.11-2.02,55.67c-0.62,16.38-1.42,32.76-1.96,49.15
		c-0.49,14.76-0.74,29.53-1.09,44.3c-0.03,1.33-0.02,2.67-0.08,4C95.07,1010.32,94.27,1027.34,93.47,1044.5z"/>
	<path class="st1" d="M93.47,1044.5c0.8-17.15,1.6-34.18,2.39-51.2c0.06-1.33,0.05-2.67,0.08-4c0.35-14.77,0.6-29.54,1.09-44.3
		c0.54-16.39,1.34-32.77,1.96-49.15c0.71-18.56,1.3-37.12,2.02-55.67c0.6-15.55,1.26-31.09,2.01-46.63
		c0.55-11.39,1.37-22.76,1.89-34.15c0.25-5.5-0.14-11.03,0.17-16.53c0.18-3.19,1.14-6.34,1.79-9.49c0.2-0.96,1-2.04,0.74-2.8
		c-4.31-13.07,0.63-26.22-0.4-39.36c-0.47-6.01,1.73-12.18,2.15-18.31c0.26-3.85-0.89-7.79-0.8-11.67
		c0.35-15.34,0.88-30.68,1.44-46.01c0.6-16.23,1.34-32.45,1.98-48.68c0.69-17.73,1.34-35.46,2.01-53.19
		c0.66-17.55,1.31-35.1,2.01-52.65c0.63-15.89,1.36-31.77,1.98-47.65c0.7-17.71,1.34-35.42,2.01-53.13
		c0.67-17.88,1.31-35.76,2.01-53.64c0.63-15.88,1.35-31.76,1.98-47.64c0.7-17.39,1.35-34.78,2-52.16
		c0.68-17.88,1.31-35.77,2.01-53.65c0.63-15.87,1.32-31.74,1.99-47.62c0.67-15.88,1.36-31.77,1.99-47.65
		c0.38-9.45,0.59-18.9,1.04-28.34c0.33-6.92,0.94-13.83,1.43-20.93c9.04,0.59,18.19,1.09,27.31,1.81
		c10.54,0.83,21.07,1.82,31.6,2.77c15.1,1.36,30.18,2.87,45.29,4.08c10.7,0.86,21.44,1.22,32.15,2.01
		c11.83,0.88,23.64,2.03,35.47,2.99c5.43,0.44,10.87,0.78,16.31,1.04c14.69,0.71,29.38,1.34,44.07,2.04
		c13.73,0.65,27.46,1.41,41.19,2.03c15.38,0.7,30.77,1.39,46.15,1.92c13.76,0.47,27.54,0.71,41.31,1.08
		c11.28,0.3,22.55,0.81,33.83,0.91c15.03,0.14,30.06-0.04,45.1-0.05c7.52-0.01,15.04,0.17,22.55,0.07
		c18.45-0.26,36.9-0.5,55.35-1.02c16.05-0.46,32.1-1.25,48.14-1.97c13.73-0.61,27.47-1.25,41.19-2.01c16.67-0.92,33.34-1.93,50.01-3
		c14.5-0.93,29-1.94,43.49-3c17.32-1.28,34.63-2.64,51.94-3.99c16.82-1.32,33.64-2.59,50.45-4.03c13.79-1.18,27.57-2.59,41.36-3.87
		c0.27-0.03,0.57,0.22,2.27,0.36c0,7.56-0.19,15.13,0.04,22.69c0.55,18.23,1.29,36.45,1.97,54.67c0.31,8.45,0.66,16.89,0.99,25.34
		c0.67,17.22,1.32,34.43,2.01,51.65c0.64,16.06,1.35,32.11,1.98,48.16c0.7,17.89,1.34,35.79,2.01,53.69
		c0.32,8.44,0.66,16.89,0.99,25.33c0.67,17.22,1.32,34.44,2.01,51.65c0.64,15.88,1.35,31.76,1.98,47.65
		c0.7,17.72,1.32,35.44,2.02,53.16c0.64,16.39,1.35,32.78,1.98,49.17c0.7,18.22,1.31,36.44,2.02,54.66
		c0.63,16.21,1.34,32.41,1.99,48.62c0.68,17.05,1.33,34.09,2.01,51.14c0.66,16.72,1.33,33.44,2,50.16c0.67,16.88,1.35,33.76,2,50.64
		c0.68,17.71,1.32,35.43,2.01,53.14c0.64,16.39,1.34,32.77,1.99,49.15c0.68,17.22,1.33,34.45,2,51.67c0.66,16.88,1.34,33.75,2,50.63
		c0.68,17.4,1.23,34.8,2.03,52.19c0.62,13.54,1.54,27.08,2.36,41.27c-6.68,0.73-12.96,1.61-19.28,2.07
		c-11.39,0.83-22.81,1.33-34.21,2.12c-18.3,1.27-36.59,2.68-54.88,4c-14.16,1.02-28.33,1.97-42.49,3
		c-17.79,1.29-35.57,2.68-53.36,3.89c-7.27,0.5-14.57,0.57-21.85,0.98c-17.02,0.97-34.02,2.17-51.04,2.99
		c-12.26,0.59-24.55,0.75-36.83,1.08c-25.72,0.7-51.43,1.52-77.15,2.06c-23.11,0.48-46.23,1.1-69.34,0.73
		c-8.67-0.14-17.28,0.75-25.94,0.31c-9.14-0.46-18.33-0.02-27.49-0.15c-19.28-0.27-38.57-0.6-57.85-1
		c-9.78-0.21-19.56-0.61-29.34-0.99c-16.39-0.64-32.78-1.28-49.17-2.01c-13.05-0.59-26.09-1.27-39.13-1.99
		c-17.34-0.96-34.67-1.94-52.01-3.01c-15.16-0.93-30.33-1.91-45.48-3.02c-16.62-1.23-33.23-2.68-49.84-3.96
		c-18.13-1.39-36.26-2.73-54.4-4.01c-10.54-0.75-21.09-1.29-31.63-2.04C97.13,1045.83,95.62,1045.11,93.47,1044.5z M955.5,985.6
		c-0.85-16.49-1.74-32.36-2.47-48.24c-0.77-16.87-1.4-33.74-2.03-50.61c-0.71-18.9-1.31-37.8-2.02-56.7
		c-0.62-16.71-1.33-33.43-1.99-50.14c-0.68-17.37-1.33-34.75-2-52.12c-0.66-17.21-1.35-34.42-1.99-51.64
		c-0.69-18.55-1.31-37.1-2.02-55.64c-0.62-16.06-1.35-32.11-1.98-48.17c-0.7-17.72-1.36-35.44-2-53.16
		c-0.36-9.94-0.65-19.89-1.01-29.84c-0.65-18.05-1.31-36.1-2-54.15c-0.64-16.56-1.33-33.12-1.99-49.68
		c-0.68-17.04-1.36-34.08-2-51.12c-0.7-18.73-1.31-37.47-2.02-56.21c-0.63-16.71-1.35-33.42-1.98-50.13
		c-0.7-18.39-1.38-36.79-1.99-55.19c-0.39-11.77-0.59-23.54-0.96-35.31c-0.7-21.89-1.45-43.77-2.21-65.65
		c-0.04-1.25-0.34-2.49-0.59-4.22c-10.42,0.82-20.48,1.46-30.49,2.44c-18.68,1.84-37.33,4.05-56.01,5.82
		c-19.57,1.86-39.16,3.46-58.76,5.02c-18.05,1.44-36.11,2.79-54.17,3.99c-17.16,1.14-34.33,2.15-51.51,3
		c-16.55,0.82-33.11,1.63-49.67,1.97c-26.94,0.56-53.88,0.81-80.83,1c-6.77,0.05-13.54-0.66-20.31-0.91
		c-18.71-0.68-37.43-1.17-56.14-1.98c-19.69-0.85-39.36-1.97-59.04-2.99c-12.72-0.66-25.44-1.35-38.15-2.07
		c-5.11-0.29-10.23-0.62-15.33-1.06c-14.76-1.28-29.52-2.64-44.28-3.92c-8.55-0.74-17.11-1.3-25.66-2.08
		c-9.99-0.92-19.97-1.97-29.95-3.01c-8.19-0.85-16.37-1.86-24.57-2.64c-10.17-0.97-20.36-1.77-30.83-2.67
		c-0.88,17.16-1.8,33.5-2.52,49.85c-0.77,17.39-1.36,34.78-2.02,52.17c-0.67,17.71-1.32,35.43-2.01,53.14
		c-0.65,16.89-1.33,33.77-1.99,50.65c-0.67,17.21-1.34,34.41-2,51.62c-0.67,17.55-1.34,35.1-2,52.64
		c-0.68,18.04-1.33,36.09-2.01,54.13c-0.66,17.55-1.32,35.11-2,52.66c-0.66,17.04-1.35,34.08-2,51.12
		c-0.69,18.06-1.32,36.13-2.01,54.19c-0.65,17.04-1.33,34.08-2,51.12c-0.67,17.04-1.41,34.09-1.97,51.14
		c-0.42,12.78-0.48,25.57-0.96,38.34c-0.53,14.24-1.43,28.46-2.04,42.69c-0.74,17.2-1.36,34.4-2.02,51.61
		c-0.35,9.28-0.64,18.56-1.01,27.85c-0.65,16.55-1.41,33.1-1.97,49.66c-0.44,12.94-0.48,25.89-0.98,38.83
		c-0.5,13.05-1.39,26.09-2,39.14c-0.12,2.49-0.99,5.44,3.32,5.81c9.99,0.86,19.94,2.08,29.92,3.02c11.46,1.08,22.94,2.04,34.41,3.01
		c16.13,1.36,32.26,2.71,48.4,4.01c16.96,1.37,33.93,2.75,50.9,3.99c15.19,1.11,30.38,2.1,45.58,3.01
		c18.14,1.08,36.29,2.12,54.45,2.99c16.71,0.8,33.42,1.52,50.14,1.99c18.27,0.52,36.54,0.85,54.82,1
		c13.82,0.11,27.65-0.17,41.47-0.35c10.26-0.13,20.51-0.29,30.77-0.56c23.71-0.64,47.41-1.36,71.12-2.06
		c10.62-0.31,21.25-0.61,31.87-1c7.12-0.26,14.23-0.56,21.34-1.04c13.66-0.93,27.31-2.05,40.96-2.98
		c6.61-0.45,13.25-0.49,19.85-1.01c15.81-1.25,31.61-2.74,47.42-4.01c17.24-1.39,34.51-2.54,51.75-4
		c13.94-1.18,27.86-2.69,41.79-4.01C937.71,987.13,946.1,986.43,955.5,985.6z"/>
	<path class="st0" d="M955.5,985.6c-9.4,0.83-17.79,1.54-26.17,2.33c-13.93,1.32-27.85,2.83-41.79,4.01
		c-17.24,1.46-34.5,2.61-51.75,4c-15.81,1.27-31.61,2.76-47.42,4.01c-6.6,0.52-13.24,0.56-19.85,1.01
		c-13.66,0.93-27.31,2.06-40.96,2.98c-7.1,0.48-14.22,0.78-21.34,1.04c-10.62,0.39-21.25,0.69-31.87,1
		c-23.71,0.7-47.41,1.42-71.12,2.06c-10.25,0.28-20.51,0.43-30.77,0.56c-13.82,0.17-27.65,0.46-41.47,0.35
		c-18.27-0.14-36.55-0.48-54.82-1c-16.72-0.47-33.43-1.18-50.14-1.99c-18.16-0.87-36.3-1.91-54.45-2.99
		c-15.2-0.91-30.4-1.9-45.58-3.01c-16.97-1.24-33.94-2.62-50.9-3.99c-16.14-1.3-32.27-2.65-48.4-4.01
		c-11.47-0.97-22.95-1.93-34.41-3.01c-9.98-0.94-19.93-2.16-29.92-3.02c-4.31-0.37-3.44-3.32-3.32-5.81
		c0.62-13.05,1.5-26.09,2-39.14c0.5-12.94,0.55-25.89,0.98-38.83c0.56-16.56,1.32-33.11,1.97-49.66c0.36-9.28,0.65-18.56,1.01-27.85
		c0.66-17.2,1.28-34.41,2.02-51.61c0.61-14.23,1.51-28.45,2.04-42.69c0.48-12.78,0.54-25.57,0.96-38.34
		c0.57-17.05,1.31-34.09,1.97-51.14c0.67-17.04,1.35-34.08,2-51.12c0.69-18.06,1.32-36.13,2.01-54.19c0.65-17.04,1.34-34.08,2-51.12
		c0.68-17.55,1.34-35.11,2-52.66c0.68-18.04,1.33-36.09,2.01-54.13c0.66-17.55,1.32-35.1,2-52.64c0.66-17.21,1.33-34.41,2-51.62
		c0.66-16.88,1.34-33.77,1.99-50.65c0.68-17.71,1.33-35.43,2.01-53.14c0.66-17.39,1.25-34.78,2.02-52.17
		c0.73-16.35,1.65-32.69,2.52-49.85c10.46,0.9,20.65,1.71,30.83,2.67c8.2,0.78,16.38,1.79,24.57,2.64
		c9.98,1.04,19.96,2.09,29.95,3.01c8.54,0.78,17.11,1.34,25.66,2.08c14.76,1.28,29.52,2.64,44.28,3.92
		c5.1,0.44,10.22,0.77,15.33,1.06c12.72,0.72,25.43,1.41,38.15,2.07c19.68,1.03,39.35,2.14,59.04,2.99
		c18.71,0.81,37.43,1.3,56.14,1.98c6.77,0.25,13.54,0.96,20.31,0.91c26.94-0.2,53.89-0.45,80.83-1c16.56-0.34,33.12-1.15,49.67-1.97
		c17.18-0.85,34.35-1.86,51.51-3c18.07-1.2,36.12-2.55,54.17-3.99c19.59-1.57,39.19-3.17,58.76-5.02
		c18.69-1.77,37.33-3.98,56.01-5.82c10.02-0.99,20.07-1.62,30.49-2.44c0.25,1.73,0.54,2.97,0.59,4.22
		c0.76,21.88,1.52,43.77,2.21,65.65c0.37,11.77,0.57,23.54,0.96,35.31c0.61,18.4,1.29,36.79,1.99,55.19
		c0.63,16.71,1.36,33.42,1.98,50.13c0.7,18.73,1.32,37.47,2.02,56.21c0.63,17.04,1.32,34.08,2,51.12
		c0.66,16.56,1.35,33.12,1.99,49.68c0.69,18.05,1.35,36.1,2,54.15c0.36,9.94,0.65,19.89,1.01,29.84c0.65,17.72,1.31,35.44,2,53.16
		c0.63,16.06,1.36,32.11,1.98,48.17c0.71,18.55,1.33,37.09,2.02,55.64c0.64,17.21,1.33,34.42,1.99,51.64
		c0.67,17.37,1.32,34.75,2,52.12c0.65,16.71,1.36,33.42,1.99,50.14c0.71,18.9,1.31,37.8,2.02,56.7c0.63,16.87,1.26,33.75,2.03,50.61
		C953.76,953.24,954.65,969.11,955.5,985.6z M556.69,667.53c7.93-0.49,15.87-0.84,23.79-1.49c21.99-1.82,43.21-7.1,63.5-15.63
		c10.74-4.52,21-10.17,31.5-15.27c15.15-7.36,27.65-18.44,40.16-29.3c20.03-17.38,35.7-38.41,48.54-61.59
		c20.29-36.62,28.11-76.25,28.77-117.65c0.39-24.27,0.8-48.53,1.02-72.8c0.17-19.16,0.16-38.33,0.02-57.5
		c-0.02-3.38,0.91-5.23,4.01-6.93c28.98-15.97,42.06-47.06,36.72-76.55c-7.2-39.79-43.83-65.3-83.79-58.95
		c-40.26,6.4-66.18,45.44-59.98,82.39c3.97,23.63,16.3,41.48,37.21,53.2c2.9,1.62,3.89,3.29,3.84,6.55
		c-0.43,29.98-0.41,59.96-1.08,89.93c-0.56,25-1.15,50.04-3.09,74.96c-1.44,18.41-8.37,35.56-17,51.89
		c-10.78,20.41-25.41,37.58-42.78,52.77c-18.88,16.52-41.74,25.47-64.23,35.01c-7.51,3.19-16.4,3.78-24.73,4.22
		c-14.12,0.75-28.23,1.55-42.46-0.56c-19.9-2.95-38.97-8.16-56.83-17.32c-31.54-16.19-56.95-39.14-73.71-70.61
		c-6.4-12.02-11.75-24.84-15.67-37.87c-5.65-18.77-6.39-38.36-6.43-57.95c-0.08-41.33-0.53-82.66-0.92-123.99
		c-0.03-3.6,0.95-5.56,4.23-7.83c7.58-5.23,15.49-10.68,21.27-17.69c16.49-20,20.58-43.23,12.52-67.73
		c-9.66-29.34-30.8-46.57-61.27-49.9c-30.45-3.32-54.88,9.06-70.48,35.51c-15.03,25.47-14.22,51.8,2.01,76.6
		c5.15,7.87,12.71,14.51,20.25,20.32c4.76,3.67,10.39,5.6,9.69,12.99c-0.24,2.52-0.34,5.06-0.33,7.59
		c0.33,42.46,0.51,84.93,1.17,127.39c0.18,11.33,1.35,22.71,3,33.93c3.85,26.14,11.62,51.13,24.55,74.26
		C394.92,622.87,464.8,663.2,556.69,667.53z"/>
	<path class="st1" d="M556.69,667.53c-91.88-4.33-161.76-44.66-207.01-125.58c-12.94-23.14-20.7-48.13-24.55-74.26
		c-1.65-11.22-2.82-22.6-3-33.93c-0.67-42.46-0.84-84.92-1.17-127.39c-0.02-2.53,0.09-5.07,0.33-7.59c0.7-7.39-4.94-9.31-9.69-12.99
		c-7.53-5.81-15.1-12.46-20.25-20.32c-16.24-24.8-17.05-51.13-2.01-76.6c15.61-26.44,40.04-38.83,70.48-35.51
		c30.47,3.33,51.61,20.55,61.27,49.9c8.06,24.5,3.97,47.73-12.52,67.73c-5.78,7.01-13.69,12.45-21.27,17.69
		c-3.28,2.27-4.26,4.22-4.23,7.83c0.4,41.33,0.84,82.66,0.92,123.99c0.04,19.6,0.78,39.18,6.43,57.95
		c3.92,13.03,9.27,25.85,15.67,37.87c16.76,31.47,42.17,54.42,73.71,70.61c17.85,9.16,36.93,14.37,56.83,17.32
		c14.23,2.11,28.34,1.31,42.46,0.56c8.33-0.44,17.22-1.03,24.73-4.22c22.49-9.54,45.35-18.49,64.23-35.01
		c17.36-15.2,31.99-32.37,42.78-52.77c8.63-16.33,15.56-33.47,17-51.89c1.94-24.92,2.53-49.96,3.09-74.96
		c0.67-29.97,0.65-59.96,1.08-89.93c0.05-3.26-0.95-4.93-3.84-6.55c-20.9-11.72-33.24-29.57-37.21-53.2
		c-6.2-36.95,19.72-76,59.98-82.39c39.97-6.35,76.59,19.16,83.79,58.95c5.34,29.49-7.74,60.59-36.72,76.55
		c-3.1,1.71-4.03,3.55-4.01,6.93c0.13,19.16,0.15,38.33-0.02,57.5c-0.22,24.27-0.64,48.53-1.02,72.8
		c-0.66,41.4-8.47,81.03-28.77,117.65c-12.85,23.18-28.51,44.2-48.54,61.59c-12.52,10.86-25.02,21.95-40.16,29.3
		c-10.5,5.1-20.76,10.75-31.5,15.27c-20.3,8.54-41.51,13.82-63.5,15.63C572.56,666.69,564.62,667.04,556.69,667.53z"/>
</g>
</svg>
