<?xml version="1.0" encoding="utf-8"?>
<!-- Generator: Adobe Illustrator 27.3.1, SVG Export Plug-In . SVG Version: 6.00 Build 0)  -->
<svg version="1.1" id="Layer_1" xmlns="http://www.w3.org/2000/svg" xmlns:xlink="http://www.w3.org/1999/xlink" x="0px" y="0px"
	 viewBox="0 0 1115 1080" style="enable-background:new 0 0 1115 1080;" xml:space="preserve">
<style type="text/css">
	.st0{display:none;fill:#FAF9F8;}
	.st1{fill:#ED1B44;}
</style>
<g>
	<path class="st0" d="M1115,1080c-371.67,0-743.33,0-1115,0C0,720,0,360,0,0c371.67,0,743.33,0,1115,0C1115,360,1115,720,1115,1080z
		 M93.58,1044.74c2.54,0.5,4.42,1.07,6.33,1.22c9.36,0.74,18.72,1.38,28.08,2.03c19.28,1.35,38.55,2.64,57.83,4.04
		c12.36,0.9,24.7,2.07,37.06,2.93c8.08,0.56,16.19,0.69,24.28,1.19c18.22,1.13,36.35,4.04,54.69,2.34c1.03-0.1,2.1-0.08,3.11,0.08
		c4.6,0.74,9.16,1.98,13.79,2.24c7.5,0.43,15.06-0.09,22.55,0.37c10.94,0.67,21.84,2.06,32.79,2.75c14.2,0.89,28.41,1.57,42.63,2.01
		c26.21,0.81,52.43,1.9,78.65,1.93c50.6,0.05,101.2-0.52,151.8-0.92c9.44-0.08,18.87-0.54,28.31-0.93
		c17.57-0.73,35.14-1.55,52.72-2.29c6.58-0.28,13.18-0.37,19.76-0.68c13.21-0.62,26.43-1.27,39.64-2.01
		c16.68-0.93,33.36-1.91,50.04-2.97c20.29-1.29,40.57-2.63,60.85-4.03c13.35-0.92,26.68-2.02,40.03-2.94
		c20.62-1.42,41.25-2.71,61.86-4.15c6.83-0.48,13.65-1.23,20.57-1.87c-1.31-35.51-2.57-70.41-3.89-105.31
		c-1.32-34.91-2.69-69.83-4.03-104.74c-1.35-34.92-2.66-69.84-4.05-104.76c-1.39-34.91-2.8-69.82-4.31-104.72
		c-1.49-34.58-3.2-69.15-4.65-103.74c-1.45-34.52-2.68-69.05-4.03-103.58c-1.31-33.59-2.68-67.17-3.99-100.76
		c-1.36-34.76-2.69-69.52-4-104.28c-1.3-34.49-3.62-68.98-4.79-103.41c-1.15-33.85-3.11-67.71-2.8-102.04
		c-2.14,0.38-3.23,0.6-4.33,0.77c-4.6,0.73-9.33,2.48-13.78,1.95c-7.64-0.91-14.9,1.98-22.59,0.94c-5.36-0.72-11.03,1.05-16.58,1.5
		c-9.51,0.77-19.04,1.27-28.54,2.08c-10.27,0.88-20.52,2.15-30.79,2.95c-8.14,0.63-16.32,0.6-24.46,1.21
		c-10.11,0.76-20.18,2.02-30.29,2.8c-14.61,1.13-29.24,2.06-43.87,3c-11.2,0.72-22.41,1.4-33.62,1.98
		c-14.02,0.73-28.05,1.38-42.07,2c-9.09,0.4-18.18,0.74-27.28,1.01c-13.1,0.39-26.2,0.82-39.3,0.99
		c-11.54,0.15-23.09,0.01-34.63-0.08c-31.94-0.25-63.88-0.37-95.81-0.89c-21.22-0.34-42.43-1.2-63.64-1.97
		c-15.2-0.55-30.4-1.26-45.6-2.04c-17.65-0.91-35.29-1.92-52.93-3.01c-13.99-0.87-27.97-1.97-41.97-2.88
		c-16.29-1.07-32.58-2.04-48.88-3.08c-4.77-0.3-9.55-0.61-14.31-1.05c-10.65-0.98-21.29-2.13-31.95-3.03
		c-5.91-0.5-11.87-0.46-17.78-0.99c-9.32-0.84-18.61-2.01-27.93-2.92c-4.36-0.43-8.75-0.58-13-0.84
		c-0.84,17.05-1.71,33.74-2.48,50.44c-0.72,15.53-1.35,31.07-2.01,46.6c-0.68,16.05-1.39,32.11-1.98,48.17
		c-0.73,19.72-1.3,39.44-2.04,59.16c-0.58,15.56-1.35,31.11-1.97,46.67c-0.7,17.54-1.32,35.09-2.02,52.63
		c-0.63,15.88-1.38,31.75-1.98,47.62c-0.73,19.23-1.29,38.47-2.04,57.69c-0.57,14.72-1.34,29.42-1.97,44.14
		c-0.7,16.53-1.38,33.07-2,49.6c-0.7,18.55-1.57,37.11-1.94,55.67c-0.35,17.23-0.81,34.43-1.98,51.63
		c-1.09,16.18-1.42,32.42-2.09,48.63c-0.66,15.7-1.37,31.39-1.99,47.09c-0.72,18.37-1.32,36.75-2.02,55.12
		c-0.64,16.88-1.31,33.76-2,50.64c-0.64,15.54-1.36,31.07-1.99,46.61c-0.7,17.54-1.32,35.09-2.01,52.63
		c-0.64,16.38-1.44,32.76-1.96,49.14c-0.5,15.43-0.73,30.87-1.08,46.31c-0.03,1.33-0.01,2.67-0.07,4
		C94.46,1027.1,94.02,1035.84,93.58,1044.74z"/>
	<path class="st1" d="M93.58,1044.74c0.44-8.9,0.88-17.64,1.3-26.38c0.06-1.33,0.04-2.67,0.07-4c0.35-15.44,0.58-30.88,1.08-46.31
		c0.53-16.38,1.32-32.76,1.96-49.14c0.69-17.54,1.31-35.09,2.01-52.63c0.62-15.54,1.35-31.07,1.99-46.61
		c0.69-16.88,1.36-33.76,2-50.64c0.69-18.37,1.3-36.75,2.02-55.12c0.61-15.7,1.33-31.39,1.99-47.09c0.68-16.21,1-32.44,2.09-48.63
		c1.16-17.2,1.63-34.4,1.98-51.63c0.37-18.56,1.24-37.11,1.94-55.67c0.63-16.54,1.3-33.07,2-49.6c0.63-14.71,1.4-29.42,1.97-44.14
		c0.74-19.23,1.31-38.46,2.04-57.69c0.6-15.88,1.34-31.75,1.98-47.62c0.7-17.54,1.31-35.09,2.02-52.63
		c0.62-15.56,1.39-31.11,1.97-46.67c0.74-19.72,1.31-39.44,2.04-59.16c0.59-16.06,1.31-32.11,1.98-48.17
		c0.65-15.54,1.29-31.07,2.01-46.6c0.77-16.7,1.64-33.39,2.48-50.44c4.24,0.27,8.63,0.42,13,0.84c9.31,0.91,18.6,2.08,27.93,2.92
		c5.91,0.53,11.87,0.49,17.78,0.99c10.66,0.9,21.3,2.05,31.95,3.03c4.76,0.44,9.54,0.74,14.31,1.05
		c16.29,1.04,32.59,2.01,48.88,3.08c13.99,0.92,27.97,2.02,41.97,2.88c17.64,1.09,35.28,2.1,52.93,3.01
		c15.19,0.79,30.39,1.49,45.6,2.04c21.21,0.77,42.42,1.62,63.64,1.97c31.93,0.51,63.87,0.63,95.81,0.89
		c11.54,0.09,23.09,0.23,34.63,0.08c13.1-0.17,26.2-0.6,39.3-0.99c9.1-0.27,18.19-0.6,27.28-1.01c14.03-0.62,28.05-1.27,42.07-2
		c11.21-0.58,22.42-1.26,33.62-1.98c14.63-0.94,29.25-1.87,43.87-3c10.11-0.78,20.18-2.04,30.29-2.8
		c8.14-0.61,16.33-0.58,24.46-1.21c10.28-0.79,20.52-2.07,30.79-2.95c9.5-0.81,19.03-1.31,28.54-2.08
		c5.55-0.45,11.22-2.22,16.58-1.5c7.69,1.04,14.94-1.85,22.59-0.94c4.45,0.53,9.18-1.22,13.78-1.95c1.1-0.18,2.19-0.39,4.33-0.77
		c-0.31,34.34,1.65,68.19,2.8,102.04c1.17,34.43,3.49,68.92,4.79,103.41c1.31,34.76,2.64,69.52,4,104.28
		c1.31,33.59,2.68,67.17,3.99,100.76c1.35,34.53,2.58,69.06,4.03,103.58c1.45,34.58,3.16,69.16,4.65,103.74
		c1.5,34.9,2.92,69.81,4.31,104.72c1.39,34.92,2.7,69.84,4.05,104.76c1.35,34.91,2.71,69.82,4.03,104.74
		c1.32,34.9,2.58,69.8,3.89,105.31c-6.92,0.64-13.74,1.4-20.57,1.87c-20.62,1.44-41.25,2.73-61.86,4.15
		c-13.35,0.92-26.68,2.02-40.03,2.94c-20.28,1.39-40.56,2.74-60.85,4.03c-16.68,1.06-33.36,2.04-50.04,2.97
		c-13.21,0.74-26.42,1.39-39.64,2.01c-6.58,0.31-13.18,0.4-19.76,0.68c-17.57,0.74-35.14,1.56-52.72,2.29
		c-9.43,0.39-18.87,0.85-28.31,0.93c-50.6,0.41-101.2,0.97-151.8,0.92c-26.22-0.03-52.44-1.12-78.65-1.93
		c-14.22-0.44-28.44-1.12-42.63-2.01c-10.94-0.69-21.84-2.08-32.79-2.75c-7.5-0.46-15.05,0.06-22.55-0.37
		c-4.62-0.26-9.19-1.5-13.79-2.24c-1.02-0.16-2.09-0.18-3.11-0.08c-18.34,1.7-36.48-1.21-54.69-2.34c-8.09-0.5-16.2-0.63-24.28-1.19
		c-12.36-0.86-24.7-2.03-37.06-2.93c-19.27-1.41-38.55-2.69-57.83-4.04c-9.36-0.65-18.73-1.29-28.08-2.03
		C97.99,1045.81,96.11,1045.25,93.58,1044.74z M954.83,985.69c0.07-1.26,0.2-2.22,0.16-3.17c-0.65-13.54-1.43-27.08-1.95-40.62
		c-0.49-12.76-0.6-25.54-1.07-38.31c-0.55-14.89-1.35-29.78-1.95-44.67c-0.72-17.88-1.33-35.76-2.02-53.64
		c-0.64-16.54-1.36-33.08-1.98-49.62c-0.71-18.72-1.33-37.44-2.02-56.15c-0.3-8.27-0.68-16.55-0.99-24.82
		c-0.68-18.71-1.41-37.41-1.99-56.12c-0.47-15.44-0.75-30.9-1.12-46.34c-0.01-0.5-0.02-1-0.04-1.5c-0.62-13.4-1.35-26.79-1.82-40.19
		c-0.26-7.23-0.1-14.47-0.07-21.7c0.01-2.36,0.45-4.75,0.22-7.08c-0.58-5.85-1.52-11.66-2.16-17.51c-1-9.14,0.34-18.27-0.71-27.55
		c-1.79-15.74-1.66-31.7-2.31-47.57c-0.36-8.78-0.7-17.56-0.99-26.35c-0.67-20.08-1.38-40.17-1.88-60.25
		c-0.13-5.24,0.82-10.52,0.61-15.75c-0.32-8-1.28-15.98-1.8-23.98c-0.15-2.27,0.61-4.6,0.41-6.86c-0.64-7.02-1.97-14-2.26-21.02
		c-0.63-15.76-0.75-31.54-1.16-47.31c-0.24-9.27-0.66-18.53-1-27.79c-0.02-0.66-0.08-1.33-0.11-1.99
		c-0.6-11.06-1.35-22.11-1.75-33.18c-0.29-8.27,0.12-16.56-0.21-24.83c-0.33-8.2-1.41-16.36-1.75-24.55
		c-0.34-8.16-0.24-16.34-0.22-24.51c0.01-3.14-1.8-4.81-4.31-3.62c-7.11,3.36-14.67-0.59-22,2.18c-5.21,1.97-11.38,1.52-17.13,1.94
		c-2.36,0.18-4.8-0.5-7.13-0.23c-7.28,0.86-14.51,2.21-21.8,2.95c-6.45,0.65-12.97,0.6-19.44,1.12c-5.74,0.46-11.44,1.34-17.17,1.94
		c-7.33,0.77-14.67,1.56-22.02,2.11c-3.66,0.28-7.4-0.27-11.04,0.11c-6.45,0.67-12.85,2.48-19.28,2.53
		c-10.28,0.08-20.49,3.82-30.82,0.65c-0.31-0.1-0.78,0.47-1.21,0.57c-3.14,0.69-6.33,2.05-9.42,1.85
		c-6.58-0.44-13.01,0.92-19.81-0.12c-7.46-1.14-15.46,1.65-23.27,2.25c-5.67,0.44-11.42-0.14-17.1,0.17
		c-7.2,0.39-14.38,1.35-21.58,1.81c-4.65,0.3-9.34,0.02-14.01,0.22c-12.71,0.54-25.41,1.37-38.13,1.73
		c-5.75,0.16-11.52-0.66-17.29-0.78c-35.04-0.73-70.08-1.28-105.12-2.12c-13.4-0.32-26.78-1.19-40.16-1.95
		c-16.15-0.92-32.29-1.93-48.43-3.03c-12.99-0.89-25.97-1.92-38.94-2.98c-15.67-1.28-31.33-2.63-46.99-4.02
		c-14.92-1.32-29.83-2.69-44.74-4.1c-9.36-0.89-18.7-1.99-28.07-2.82c-6.65-0.59-13.32-0.87-20-1.28
		c-0.86,16.6-1.76,32.29-2.46,47.98c-0.77,17.55-1.35,35.1-2.02,52.65c-0.66,17.37-1.32,34.75-2.01,52.12
		c-0.65,16.37-1.36,32.73-1.98,49.09c-0.71,18.54-1.32,37.08-2.02,55.61c-0.64,17.05-1.34,34.1-1.99,51.15
		c-0.68,17.87-1.33,35.74-2.01,53.61c-0.65,17.22-1.34,34.43-1.99,51.65c-0.68,17.87-2.02,35.76-1.78,53.62
		c0.18,13.41-1.65,26.66-1.38,40.06c0.25,12.35-1.3,24.73-1.81,37.11c-0.79,19.21-1.32,38.44-2.05,57.65
		c-0.59,15.71-1.31,31.41-1.98,47.11c-0.66,15.54-1.38,31.07-1.96,46.61c-0.44,11.61-0.61,23.22-1.07,34.83
		c-0.56,14.2-1.34,28.39-1.93,42.59c-0.72,17.37-1.39,34.75-2,52.13c-0.42,11.93-0.74,23.87-1.04,35.8
		c-0.36,14.43-0.62,28.87-1.03,43.31c-0.06,2.26-0.88,4.49-1.01,6.75c-0.16,2.66-1.53,6.14,3.05,6.61
		c10.28,1.07,20.57,2.19,30.87,3.07c9.68,0.83,19.38,1.35,29.07,2.05c4.43,0.32,8.85,0.69,13.27,1.16
		c8.31,0.89,16.59,2.12,24.91,2.77c11.85,0.92,23.73,1.44,35.6,2.13c0.33,0.02,0.66,0.06,1,0.09c8.63,0.94,17.25,2.06,25.9,2.78
		c10.37,0.86,20.76,1.38,31.14,2.05c15.14,0.99,30.28,2.14,45.43,2.93c16.36,0.86,32.73,1.42,49.1,2.06
		c9.94,0.39,19.88,0.72,29.82,1c13.44,0.38,26.89,0.99,40.33,0.95c28.89-0.1,57.79-0.5,86.68-0.9c13.44-0.19,26.88-0.57,40.31-1.04
		c16.21-0.56,32.43-1.25,48.63-1.99c12.72-0.58,25.43-1.25,38.14-2c15.67-0.93,31.32-1.98,46.99-2.98
		c15.83-1.01,31.66-2.01,47.49-3.03c5.11-0.33,10.23-0.6,15.33-1.07c10.13-0.92,20.24-2,30.36-2.92c5.26-0.47,10.56-0.63,15.82-1.11
		c13.94-1.27,27.87-2.66,41.81-3.98C938.2,987.16,946.38,986.45,954.83,985.69z"/>
	<path class="st0" d="M954.83,985.69c-8.44,0.76-16.63,1.47-24.8,2.24c-13.94,1.31-27.87,2.7-41.81,3.98
		c-5.26,0.48-10.56,0.64-15.82,1.11c-10.13,0.91-20.24,2-30.36,2.92c-5.1,0.46-10.22,0.74-15.33,1.07
		c-15.83,1.02-31.66,2.02-47.49,3.03c-15.66,1-31.32,2.05-46.99,2.98c-12.71,0.75-25.42,1.42-38.14,2
		c-16.21,0.74-32.42,1.43-48.63,1.99c-13.43,0.47-26.87,0.85-40.31,1.04c-28.89,0.4-57.78,0.8-86.68,0.9
		c-13.44,0.05-26.89-0.57-40.33-0.95c-9.94-0.28-19.88-0.61-29.82-1c-16.37-0.64-32.74-1.2-49.1-2.06
		c-15.15-0.8-30.29-1.95-45.43-2.93c-10.38-0.68-20.78-1.19-31.14-2.05c-8.65-0.72-17.27-1.84-25.9-2.78
		c-0.33-0.04-0.66-0.08-1-0.09c-11.87-0.69-23.75-1.21-35.6-2.13c-8.33-0.65-16.6-1.88-24.91-2.77c-4.41-0.47-8.84-0.84-13.27-1.16
		c-9.69-0.7-19.39-1.22-29.07-2.05c-10.3-0.88-20.59-2-30.87-3.07c-4.58-0.48-3.21-3.96-3.05-6.61c0.13-2.26,0.95-4.49,1.01-6.75
		c0.41-14.43,0.67-28.87,1.03-43.31c0.3-11.94,0.62-23.87,1.04-35.8c0.61-17.38,1.28-34.76,2-52.13c0.59-14.2,1.37-28.39,1.93-42.59
		c0.46-11.61,0.63-23.22,1.07-34.83c0.58-15.54,1.3-31.08,1.96-46.61c0.67-15.7,1.39-31.41,1.98-47.11
		c0.73-19.22,1.26-38.44,2.05-57.65c0.51-12.38,2.07-24.76,1.81-37.11c-0.28-13.41,1.55-26.66,1.38-40.06
		c-0.24-17.86,1.1-35.75,1.78-53.62c0.65-17.22,1.34-34.43,1.99-51.65c0.68-17.87,1.33-35.74,2.01-53.61
		c0.65-17.05,1.35-34.1,1.99-51.15c0.69-18.54,1.31-37.08,2.02-55.61c0.62-16.37,1.34-32.73,1.98-49.09
		c0.69-17.37,1.34-34.75,2.01-52.12c0.67-17.55,1.25-35.11,2.02-52.65c0.69-15.69,1.6-31.38,2.46-47.98c6.68,0.42,13.35,0.7,20,1.28
		c9.37,0.83,18.71,1.93,28.07,2.82c14.91,1.41,29.82,2.78,44.74,4.1c15.66,1.39,31.32,2.74,46.99,4.02
		c12.97,1.06,25.95,2.1,38.94,2.98c16.14,1.1,32.28,2.11,48.43,3.03c13.38,0.76,26.77,1.63,40.16,1.95
		c35.04,0.84,70.08,1.39,105.12,2.12c5.77,0.12,11.54,0.95,17.29,0.78c12.72-0.36,25.42-1.19,38.13-1.73
		c4.66-0.2,9.35,0.08,14.01-0.22c7.2-0.46,14.37-1.42,21.58-1.81c5.69-0.31,11.43,0.27,17.1-0.17c7.8-0.6,15.81-3.39,23.27-2.25
		c6.81,1.04,13.23-0.32,19.81,0.12c3.09,0.2,6.28-1.16,9.42-1.85c0.43-0.09,0.9-0.66,1.21-0.57c10.33,3.17,20.55-0.57,30.82-0.65
		c6.43-0.05,12.83-1.86,19.28-2.53c3.64-0.38,7.38,0.17,11.04-0.11c7.35-0.55,14.68-1.34,22.02-2.11c5.73-0.6,11.43-1.47,17.17-1.94
		c6.47-0.52,12.99-0.47,19.44-1.12c7.29-0.74,14.52-2.09,21.8-2.95c2.33-0.28,4.77,0.4,7.13,0.23c5.75-0.43,11.92,0.03,17.13-1.94
		c7.33-2.77,14.89,1.18,22-2.18c2.51-1.19,4.32,0.49,4.31,3.62c-0.02,8.17-0.13,16.35,0.22,24.51c0.34,8.19,1.42,16.36,1.75,24.55
		c0.33,8.26-0.08,16.56,0.21,24.83c0.39,11.07,1.15,22.12,1.75,33.18c0.04,0.66,0.09,1.33,0.11,1.99c0.34,9.26,0.76,18.53,1,27.79
		c0.42,15.77,0.53,31.55,1.16,47.31c0.28,7.02,1.62,14,2.26,21.02c0.21,2.25-0.55,4.59-0.41,6.86c0.52,8,1.48,15.98,1.8,23.98
		c0.21,5.23-0.74,10.51-0.61,15.75c0.5,20.09,1.22,40.17,1.88,60.25c0.29,8.78,0.63,17.56,0.99,26.35
		c0.65,15.87,0.51,31.83,2.31,47.57c1.06,9.28-0.29,18.41,0.71,27.55c0.64,5.84,1.58,11.66,2.16,17.51
		c0.23,2.33-0.22,4.72-0.22,7.08c-0.02,7.23-0.18,14.47,0.07,21.7c0.47,13.4,1.2,26.79,1.82,40.19c0.02,0.5,0.03,1,0.04,1.5
		c0.37,15.45,0.65,30.9,1.12,46.34c0.57,18.71,1.3,37.41,1.99,56.12c0.3,8.27,0.68,16.55,0.99,24.82
		c0.68,18.72,1.31,37.44,2.02,56.15c0.62,16.54,1.34,33.08,1.98,49.62c0.69,17.88,1.3,35.76,2.02,53.64
		c0.6,14.89,1.41,29.78,1.95,44.67c0.47,12.76,0.58,25.54,1.07,38.31c0.52,13.55,1.3,27.08,1.95,40.62
		C955.03,983.47,954.89,984.43,954.83,985.69z M557.54,667.52c7.92-0.5,15.94-0.38,23.74-1.63c14.1-2.26,28.24-4.66,42.05-8.22
		c17.4-4.49,33.8-11.84,49.47-20.7c15.57-8.8,29.98-19.19,43.18-31.27c13.33-12.2,24.82-25.95,35.46-40.54
		c10.58-14.5,17.45-30.89,24.61-47.06c12.98-29.34,16.09-60.73,16.87-92.4c0.56-22.6,0.84-45.21,1.03-67.81
		c0.18-20.66,0.17-41.33,0.03-62c-0.02-3.28,1.04-4.84,3.88-6.48c32.24-18.52,42.82-49.65,35.32-82.24
		c-8.24-35.82-44.23-59.28-81.9-53.41c-38.73,6.03-67.02,44.06-60.28,82.87c4.02,23.15,16.05,40.91,36.66,52.42
		c3.48,1.95,4.39,4.06,4.34,7.77c-0.44,29.8-0.87,59.6-0.95,89.41c-0.07,24.64,0.4,49.3-3.18,73.76c-1.3,8.86-3.41,17.67-5.95,26.27
		c-4.97,16.85-12.95,32.4-23.44,46.4c-37.87,50.52-88.35,74.96-151.67,72.32c-14.74-0.61-29.03-3.55-43.02-8.11
		c-37.04-12.09-66.56-34.65-89.01-66.09c-9.81-13.74-17.61-28.99-22.39-45.41c-4.7-16.14-8.19-32.53-8.39-49.45
		c-0.19-16.21-0.39-32.42-0.49-48.63c-0.19-30.66-0.28-61.33-0.49-91.99c-0.02-2.9,0.91-4.53,3.41-6.36
		c7.63-5.57,16.18-10.67,21.85-17.93c7.8-9.99,13.69-21.27,15.13-34.82c1.55-14.59,0.08-28.21-5.85-41.46
		c-4.66-10.42-11.75-18.46-20.95-25.57c-7.44-5.75-14.81-10.3-23.76-12.98c-13.57-4.06-27.12-3.9-40.59-0.56
		c-16.44,4.07-29.31,13.85-39.22,27.35c-12.54,17.08-16.4,36.22-12.32,56.97c3.84,19.53,13.96,35.28,30.74,45.67
		c7.26,4.5,10.8,9.15,9.91,17.36c-0.17,1.55-0.42,3.11-0.4,4.67c0.33,40.44,0.49,80.89,1.16,121.33c0.2,12.37,1.29,24.78,2.9,37.05
		c3.56,27.21,11.73,53.11,25.27,77C395.87,623.48,465.76,663.64,557.54,667.52z"/>
	<path class="st1" d="M557.54,667.52c-91.79-3.88-161.67-44.04-207.26-124.48c-13.54-23.88-21.71-49.79-25.27-77
		c-1.61-12.27-2.69-24.69-2.9-37.05c-0.67-40.44-0.83-80.88-1.16-121.33c-0.01-1.56,0.23-3.12,0.4-4.67
		c0.9-8.21-2.65-12.86-9.91-17.36c-16.78-10.39-26.9-26.15-30.74-45.67c-4.09-20.75-0.22-39.89,12.32-56.97
		c9.91-13.5,22.78-23.27,39.22-27.35c13.47-3.34,27.03-3.5,40.59,0.56c8.96,2.68,16.32,7.23,23.76,12.98
		c9.21,7.11,16.29,15.15,20.95,25.57c5.92,13.25,7.4,26.87,5.85,41.46c-1.44,13.55-7.32,24.83-15.13,34.82
		c-5.67,7.26-14.22,12.36-21.85,17.93c-2.5,1.83-3.43,3.46-3.41,6.36c0.21,30.66,0.31,61.33,0.49,91.99
		c0.1,16.21,0.3,32.42,0.49,48.63c0.2,16.92,3.69,33.31,8.39,49.45c4.78,16.43,12.58,31.67,22.39,45.41
		c22.45,31.44,51.96,54,89.01,66.09c13.99,4.56,28.28,7.5,43.02,8.11c63.31,2.63,113.8-21.81,151.67-72.32
		c10.5-14,18.47-29.55,23.44-46.4c2.54-8.6,4.65-17.41,5.95-26.27c3.58-24.45,3.11-49.12,3.18-73.76
		c0.08-29.8,0.51-59.61,0.95-89.41c0.06-3.72-0.85-5.83-4.34-7.77c-20.61-11.51-32.65-29.27-36.66-52.42
		c-6.73-38.81,21.56-76.83,60.28-82.87c37.67-5.87,73.66,17.59,81.9,53.41c7.49,32.59-3.08,63.72-35.32,82.24
		c-2.84,1.63-3.91,3.19-3.88,6.48c0.14,20.66,0.15,41.33-0.03,62c-0.2,22.61-0.48,45.21-1.03,67.81
		c-0.78,31.67-3.88,63.06-16.87,92.4c-7.15,16.16-14.03,32.55-24.61,47.06c-10.64,14.59-22.13,28.34-35.46,40.54
		c-13.2,12.08-27.61,22.47-43.18,31.27c-15.67,8.86-32.06,16.21-49.47,20.7c-13.81,3.56-27.95,5.97-42.05,8.22
		C573.49,667.15,565.47,667.03,557.54,667.52z"/>
</g>
</svg>
