<?xml version="1.0" encoding="utf-8"?>
<!-- Generator: Adobe Illustrator 27.3.1, SVG Export Plug-In . SVG Version: 6.00 Build 0)  -->
<svg version="1.1" id="Layer_1" xmlns="http://www.w3.org/2000/svg" xmlns:xlink="http://www.w3.org/1999/xlink" x="0px" y="0px"
	 viewBox="0 0 1415 1286" style="enable-background:new 0 0 1415 1286;" xml:space="preserve">
<style type="text/css">
	.st0{display:none;}
	.st1{fill:#FFFFFF;}
</style>
<g>
	<path class="st0" d="M0,0c471.67,0,943.33,0,1415,0c0,428.67,0,857.33,0,1286c-471.67,0-943.33,0-1415,0C0,857.33,0,428.67,0,0z
		 M969.02,337.75c-174.66,0-348.72,0-523.04,0c0-2.03,0-3.67,0-5.32c0-82.5,0.12-165-0.14-247.49c-0.04-12.24-1.39-24.53-2.98-36.69
		c-1.95-14.9-9.24-23.94-22.03-25.79c-10.61-1.53-21.61-1.74-32.31-0.94c-19.94,1.49-25.14,12.45-27.39,25.62
		c-1.73,10.1-2.88,20.41-2.99,30.64c-0.38,33.27-0.19,66.55-0.19,99.83c0,42.08,0.02,84.17,0.04,126.25c0,11.27,0,22.55,0,34.21
		c-1.84,0-3.13,0-4.42,0c-44.33,0-88.66-0.21-132.99,0.08c-23.28,0.16-46.67-0.05-69.78,2.24c-18.89,1.88-27.03,10.34-29.46,28.23
		c-2.35,17.26-2.31,34.87-2.74,52.34c-0.33,13.24,0.19,26.5,0.41,39.75c0.3,18.18,0.08,36.4,1.21,54.53
		c0.76,12.17,4.62,24.26,16.85,29.58c8.26,3.59,17.77,5.61,26.8,5.89c26.19,0.81,52.42,0.49,78.63,0.36
		c4.29-0.02,5.61,1.5,5.63,5.46c0.04,7.96,0.22,15.92,0.52,23.87c1.08,29.05,1.85,58.12,3.51,87.14c0.9,15.69,2.67,31.41,5.29,46.9
		c6.82,40.32,18.32,79.28,35.57,116.46c12.04,25.96,26,50.79,42.55,74.17c16.92,23.9,35.57,46.31,57.21,66.07
		c13.06,11.92,26.37,23.65,40.27,34.57c19.1,15,39.78,27.65,61.22,39.16c27.28,14.65,55.84,26.1,85.43,34.89
		c30.04,8.92,60.8,14.53,92.03,16.8c1.31,28.75,3.77,57.29,9.39,85.42c4.99,24.94,11.41,49.48,23.92,71.96
		c5.22,9.38,11.95,17.66,22.8,19.66c9.03,1.66,18.57,1.77,27.76,1c9.56-0.81,13.5-6.77,13.5-16.4c0-17.13-6.07-33.09-9.34-49.59
		c-3.21-16.19-6.78-32.31-9.7-48.55c-1.79-9.93-2.93-19.99-3.88-30.04c-1.04-11.05-1.52-22.14-2.24-33.12
		c9.95-1.32,19.57-2.68,29.22-3.87c26.35-3.23,51.96-9.72,77.1-17.98c31.54-10.37,61.91-23.58,90.04-41.29
		c18.15-11.43,36.22-23.24,52.95-36.59c27.85-22.22,52.7-47.64,74.47-76c24.97-32.53,45.17-67.75,61-105.54
		c15.07-35.98,25.23-73.38,30.45-111.93c3.35-24.76,5.19-49.79,6.48-74.76c1.25-24.08,1.03-48.25,1.23-72.38
		c0.04-4.5,1.68-5.51,5.94-5.48c20.8,0.17,41.6,0.21,62.39-0.15c10.57-0.18,21.25-0.52,31.64-2.22
		c10.59-1.73,20.22-6.63,23.89-17.76c2.56-7.77,4.46-15.99,5.07-24.13c0.86-11.35,0.24-22.81,0.26-34.23
		c0.04-24.49,0.29-48.99,0.01-73.48c-0.12-10.42-0.66-20.94-2.25-31.22c-2.12-13.78-10.14-23.56-24.08-26.53
		c-9.49-2.03-19.37-3.07-29.08-3.13c-48.66-0.31-97.33-0.15-145.99-0.16c-12.4,0-24.8,0-37.54,0c0-6.51,0-12.8,0-19.09
		c-0.02-76.64-0.06-153.27-0.06-229.91c0-16.47,0.04-32.94-5.03-48.85c-2.92-9.16-8.6-16.09-18.57-17.19
		c-11-1.22-22.24-2.5-33.18-1.57c-19.59,1.67-25.37,10.24-27.95,26.16c-2.32,14.34-3.13,29.05-3.18,43.61
		c-0.28,80.66-0.13,161.33-0.13,241.99C969.02,334.7,969.02,336.18,969.02,337.75z"/>
	<path class="st1" d="M969.02,337.75c0-1.57,0-3.05,0-4.53c0-80.67-0.15-161.33,0.13-241.99c0.05-14.55,0.86-29.27,3.18-43.61
		c2.58-15.91,8.36-24.49,27.95-26.16c10.95-0.94,22.18,0.35,33.18,1.57c9.97,1.1,15.65,8.03,18.57,17.19
		c5.07,15.92,5.03,32.39,5.03,48.85c0,76.64,0.04,153.27,0.06,229.91c0,6.29,0,12.58,0,19.09c12.74,0,25.14,0,37.54,0
		c48.66,0.01,97.33-0.15,145.99,0.16c9.71,0.06,19.59,1.1,29.08,3.13c13.94,2.98,21.95,12.76,24.08,26.53
		c1.59,10.28,2.13,20.8,2.25,31.22c0.28,24.49,0.03,48.99-0.01,73.48c-0.02,11.42,0.6,22.88-0.26,34.23
		c-0.61,8.14-2.51,16.36-5.07,24.13c-3.67,11.13-13.29,16.03-23.89,17.76c-10.39,1.7-21.07,2.04-31.64,2.22
		c-20.79,0.36-41.6,0.31-62.39,0.15c-4.26-0.03-5.9,0.98-5.94,5.48c-0.2,24.13,0.02,48.3-1.23,72.38c-1.3,24.97-3.13,50-6.48,74.76
		c-5.22,38.56-15.38,75.95-30.45,111.93c-15.83,37.79-36.03,73.01-61,105.54c-21.77,28.36-46.62,53.78-74.47,76
		c-16.73,13.36-34.8,25.16-52.95,36.59c-28.13,17.71-58.5,30.93-90.04,41.29c-25.14,8.26-50.75,14.75-77.1,17.98
		c-9.65,1.18-19.27,2.54-29.22,3.87c0.72,10.98,1.2,22.08,2.24,33.12c0.95,10.05,2.09,20.11,3.88,30.04
		c2.93,16.24,6.5,32.36,9.7,48.55c3.27,16.5,9.34,32.46,9.34,49.59c0,9.63-3.94,15.6-13.5,16.4c-9.18,0.77-18.73,0.66-27.76-1
		c-10.85-2-17.58-10.28-22.8-19.66c-12.51-22.48-18.94-47.03-23.92-71.96c-5.63-28.14-8.09-56.67-9.39-85.42
		c-31.23-2.27-61.99-7.87-92.03-16.8c-29.58-8.79-58.15-20.24-85.43-34.89c-21.43-11.51-42.12-24.16-61.22-39.16
		c-13.9-10.92-27.21-22.64-40.27-34.57c-21.64-19.75-40.3-42.17-57.21-66.07c-16.55-23.38-30.51-48.21-42.55-74.17
		c-17.25-37.18-28.75-76.15-35.57-116.46c-2.62-15.49-4.39-31.21-5.29-46.9c-1.66-29.02-2.43-58.09-3.51-87.14
		c-0.3-7.95-0.48-15.91-0.52-23.87c-0.02-3.95-1.34-5.48-5.63-5.46c-26.21,0.14-52.44,0.46-78.63-0.36
		c-9.03-0.28-18.54-2.3-26.8-5.89c-12.23-5.31-16.08-17.4-16.85-29.58c-1.14-18.13-0.91-36.35-1.21-54.53
		c-0.22-13.25-0.74-26.51-0.41-39.75c0.44-17.47,0.4-35.09,2.74-52.34c2.43-17.9,10.57-26.35,29.46-28.23
		c23.11-2.3,46.51-2.09,69.78-2.24c44.33-0.3,88.66-0.08,132.99-0.08c1.29,0,2.58,0,4.42,0c0-11.66,0-22.93,0-34.21
		c-0.01-42.08-0.04-84.17-0.04-126.25c0-33.28-0.19-66.55,0.19-99.83c0.12-10.23,1.27-20.55,2.99-30.64
		c2.25-13.17,7.44-24.13,27.39-25.62c10.71-0.8,21.7-0.59,32.31,0.94c12.79,1.85,20.08,10.89,22.03,25.79
		c1.59,12.16,2.94,24.45,2.98,36.69c0.26,82.5,0.14,165,0.14,247.49c0,1.65,0,3.29,0,5.32C620.3,337.75,794.36,337.75,969.02,337.75
		z M1092.98,570.25c0.02,0,0.04,0,0.05,0c0-14.33-0.62-28.7,0.21-42.98c0.62-10.65,2.53-21.33,5-31.72
		c1.55-6.49,6.54-11.33,13.53-12.45c7.01-1.12,14.15-1.89,21.24-1.96c25.33-0.24,50.66,0,75.99-0.19
		c11.25-0.09,18.3-4.61,19.03-15.6c0.86-12.9,1.65-25.97,0.53-38.8c-1.16-13.36-4.95-16.36-18.27-17.58
		c-10.06-0.92-20.23-0.88-30.34-0.87c-32.09,0.03-64.19,0.35-96.28,0.37c-24.3,0.01-48.6-0.42-72.9-0.4
		c-48.69,0.04-97.37,0.34-146.06,0.35c-36.56,0.01-73.12-0.27-109.68-0.37c-17.39-0.05-34.78-0.01-52.17-0.01
		c-27.43,0-54.87-0.02-82.3,0.01c-15.44,0.02-30.88,0.16-46.32,0.16c-28.09-0.01-56.18-0.15-84.28-0.11
		c-27.16,0.04-54.31,0.34-81.47,0.34c-38.37,0-76.75-0.24-115.12-0.27c-16.92-0.01-33.84,0.22-50.76,0.37
		c-13.07,0.12-26.16,0-39.22,0.52c-9.67,0.38-15.39,4.7-16.19,14.11c-1.14,13.47-0.68,27.09-0.54,40.65c0.03,2.99,1.1,6.22,2.53,8.9
		c3.33,6.23,9.42,8.04,15.92,8.14c15.33,0.23,30.66,0.07,45.98,0.25c15.8,0.19,31.6,0.27,47.38,1.02
		c9.89,0.47,17.22,5.91,19.22,15.72c2.21,10.82,3.85,21.93,4.12,32.95c0.8,32.12,0.42,64.27,1.28,96.39
		c0.46,17.39,1.9,34.81,3.97,52.08c2.06,17.23,4.54,34.51,8.45,51.39c8.85,38.21,23.32,74.32,43.52,108.04
		c11.86,19.79,25.38,38.34,40.51,55.8c18.04,20.82,38.21,39.3,60.22,55.7c31.44,23.42,65.66,41.97,102.99,54.05
		c19.39,6.28,39.28,11.3,59.25,15.44c14.52,3.01,29.51,4.5,44.35,5.09c16.92,0.68,33.95,0.21,50.85-0.9
		c14.17-0.93,28.32-3.03,42.32-5.47c24.81-4.32,48.7-11.89,72.07-21.28c21.4-8.6,42.03-18.81,61.08-31.67
		c16.31-11.02,31.89-23.21,47.17-35.65c20.64-16.79,38.02-36.79,53.98-58.02c14.53-19.32,27.34-39.79,37.36-61.74
		c7.79-17.05,14.66-34.61,20.66-52.38c7.88-23.34,13.07-47.43,15.34-72.02c2.13-23.12,4.31-46.25,5.59-69.42
		C1093.67,600.93,1092.98,585.57,1092.98,570.25z"/>
	<path class="st0" d="M1092.98,570.25c0,15.32,0.69,30.69-0.16,45.96c-1.29,23.17-3.46,46.3-5.59,69.42
		c-2.27,24.59-7.46,48.68-15.34,72.02c-6,17.77-12.87,35.32-20.66,52.38c-10.03,21.95-22.84,42.42-37.36,61.74
		c-15.96,21.23-33.34,41.22-53.98,58.02c-15.28,12.44-30.86,24.63-47.17,35.65c-19.06,12.87-39.68,23.08-61.08,31.67
		c-23.37,9.39-47.26,16.96-72.07,21.28c-14.01,2.44-28.15,4.53-42.32,5.47c-16.9,1.11-33.93,1.58-50.85,0.9
		c-14.84-0.59-29.82-2.09-44.35-5.09c-19.97-4.14-39.86-9.16-59.25-15.44c-37.33-12.08-71.55-30.63-102.99-54.05
		c-22.02-16.4-42.18-34.88-60.22-55.7c-15.13-17.46-28.65-36-40.51-55.8c-20.2-33.72-34.67-69.83-43.52-108.04
		c-3.91-16.88-6.39-34.16-8.45-51.39c-2.07-17.28-3.51-34.69-3.97-52.08c-0.85-32.12-0.47-64.27-1.28-96.39
		c-0.28-11.02-1.91-22.13-4.12-32.95c-2.01-9.81-9.33-15.25-19.22-15.72c-15.77-0.75-31.58-0.84-47.38-1.02
		c-15.33-0.18-30.66-0.02-45.98-0.25c-6.5-0.1-12.59-1.91-15.92-8.14c-1.43-2.67-2.49-5.9-2.53-8.9
		c-0.14-13.55-0.6-27.18,0.54-40.65c0.8-9.41,6.52-13.73,16.19-14.11c13.06-0.52,26.14-0.4,39.22-0.52
		c16.92-0.15,33.84-0.38,50.76-0.37c38.37,0.03,76.75,0.26,115.12,0.27c27.16,0,54.31-0.3,81.47-0.34
		c28.09-0.04,56.18,0.1,84.28,0.11c15.44,0,30.88-0.14,46.32-0.16c27.43-0.03,54.87-0.01,82.3-0.01c17.39,0,34.78-0.04,52.17,0.01
		c36.56,0.11,73.12,0.39,109.68,0.37c48.69-0.02,97.37-0.32,146.06-0.35c24.3-0.02,48.6,0.42,72.9,0.4
		c32.09-0.01,64.19-0.33,96.28-0.37c10.12-0.01,20.29-0.05,30.34,0.87c13.31,1.22,17.1,4.23,18.27,17.58
		c1.11,12.83,0.33,25.9-0.53,38.8c-0.73,11-7.78,15.52-19.03,15.6c-25.33,0.19-50.66-0.05-75.99,0.19
		c-7.09,0.07-14.23,0.83-21.24,1.96c-6.99,1.12-11.99,5.96-13.53,12.45c-2.47,10.4-4.38,21.08-5,31.72
		c-0.83,14.28-0.21,28.65-0.21,42.98C1093.01,570.25,1093,570.25,1092.98,570.25z M648.99,654.94
		c10.63-9.22,20.29-17.52,29.85-25.93c10.56-9.3,21.32-18.42,31.44-28.19c6.98-6.73,12.54-14.78,12.69-25.09
		c0.38-25.26-28.95-43.46-50.28-30.4c-12.91,7.91-24.47,18.14-36.17,27.88c-17,14.16-33.94,28.43-50.21,43.4
		c-9.9,9.11-19.11,19.17-27.41,29.75c-3.81,4.86-5.84,11.86-6.68,18.16c-1.76,13.27,5.1,23.95,12.85,33.91
		c5.98,7.69,11.77,15.77,22.6,17.16c3.27,0.42,6.52,1,9.78,1.43c10.79,1.44,21.6,2.81,32.39,4.28c13.74,1.87,27.47,3.82,41.21,5.69
		c10.97,1.49,21.95,2.88,32.91,4.37c11.26,1.53,22.53,3.04,33.77,4.73c5.54,0.83,11.02,2.04,16.68,3.11
		c-0.49,1.54-0.49,2.18-0.8,2.45c-10.94,9.37-21.92,18.7-32.88,28.05c-11.06,9.45-22.8,18.22-31.59,30.03
		c-5.04,6.77-8.85,14.09-7.15,22.96c2.02,10.54,7.54,18.89,16.18,25.28c9.15,6.76,18.63,7.88,29.3,3.4
		c13.17-5.53,23.1-15.31,33.68-24.21c18.53-15.6,36.91-31.39,55.14-47.35c11.26-9.86,22.34-19.98,30.45-32.82
		c5.25-8.3,7.76-17,5.34-26.91c-2.89-11.83-10.37-20.75-17.4-30.21c-6.11-8.22-14.31-10.64-23.51-11.87
		c-8.35-1.12-16.72-2.14-25.06-3.28c-13.75-1.88-27.5-3.82-41.24-5.74c-13.57-1.9-27.12-3.87-40.7-5.71
		c-13.44-1.83-26.91-3.45-40.35-5.34C659.24,657.3,654.73,656.12,648.99,654.94z"/>
	<path class="st1" d="M648.99,654.94c5.74,1.18,10.25,2.36,14.83,3c13.43,1.89,26.9,3.51,40.35,5.34
		c13.57,1.84,27.13,3.81,40.7,5.71c13.75,1.93,27.49,3.86,41.24,5.74c8.35,1.14,16.71,2.16,25.06,3.28
		c9.19,1.23,17.4,3.65,23.51,11.87c7.03,9.46,14.51,18.38,17.4,30.21c2.42,9.91-0.09,18.61-5.34,26.91
		c-8.11,12.83-19.19,22.95-30.45,32.82c-18.23,15.96-36.6,31.75-55.14,47.35c-10.58,8.91-20.51,18.69-33.68,24.21
		c-10.67,4.48-20.15,3.36-29.3-3.4c-8.64-6.38-14.16-14.73-16.18-25.28c-1.7-8.87,2.11-16.19,7.15-22.96
		c8.79-11.82,20.53-20.58,31.59-30.03c10.95-9.36,21.93-18.68,32.88-28.05c0.32-0.27,0.32-0.91,0.8-2.45
		c-5.65-1.07-11.14-2.28-16.68-3.11c-11.24-1.69-22.5-3.2-33.77-4.73c-10.97-1.49-21.95-2.88-32.91-4.37
		c-13.74-1.87-27.47-3.82-41.21-5.69c-10.79-1.47-21.6-2.84-32.39-4.28c-3.27-0.44-6.52-1.01-9.78-1.43
		c-10.83-1.39-16.62-9.47-22.6-17.16c-7.75-9.96-14.61-20.64-12.85-33.91c0.84-6.3,2.87-13.3,6.68-18.16
		c8.3-10.59,17.51-20.64,27.41-29.75c16.27-14.98,33.21-29.25,50.21-43.4c11.7-9.74,23.26-19.98,36.17-27.88
		c21.33-13.07,50.66,5.14,50.28,30.4c-0.15,10.3-5.72,18.35-12.69,25.09c-10.12,9.77-20.88,18.88-31.44,28.19
		C669.28,637.42,659.62,645.71,648.99,654.94z"/>
</g>
</svg>
