<?xml version="1.0" encoding="utf-8"?>
<!-- Generator: Adobe Illustrator 27.3.1, SVG Export Plug-In . SVG Version: 6.00 Build 0)  -->
<svg version="1.1" id="Layer_1" xmlns="http://www.w3.org/2000/svg" xmlns:xlink="http://www.w3.org/1999/xlink" x="0px" y="0px"
	 viewBox="0 0 1415 1286" style="enable-background:new 0 0 1415 1286;" xml:space="preserve">
<style type="text/css">
	.st0{display:none;}
	.st1{fill:#FFFFFF;}
</style>
<g>
	<path class="st0" d="M0,1286C0,857.33,0,428.67,0,0c471.67,0,943.33,0,1415,0c0,428.67,0,857.33,0,1286
		C943.33,1286,471.67,1286,0,1286z M1114.8,1110.4c2.06-0.16,3.54-0.36,5.01-0.36c16.44-0.01,32.87,0,49.31,0.01
		c13.11,0.01,26.24,0.53,39.09-3.05c10.85-3.02,20.06-8.59,22.34-20.11c2.47-12.46,4.14-25.29,4.19-37.97
		c0.36-93.83,0.27-187.65,0.16-281.48c-0.01-6,2.51-9.93,6.94-13.46c13.74-10.95,27.71-21.65,40.89-33.25
		c19.46-17.11,33.02-38.66,41.79-62.79c7.43-20.44,10.42-41.81,9.64-63.8c-1.08-30.57-10.02-58.53-25.92-84.35
		c-8.9-14.45-20.01-27.09-32.96-38.24c-12.89-11.1-26.85-20.36-42.48-26.89c-10.57-4.41-21.56-7.81-32.83-11.82
		c0-1.07,0-2.72,0-4.37c0.01-22.16,0.09-44.33,0.01-66.49c-0.29-72.31-0.48-144.61-1.04-216.91c-0.2-26.31-15.04-45.86-39.86-53.87
		c-26.41-8.52-53.63-13.6-80.93-18.12c-18.78-3.11-37.67-5.66-56.54-8.19c-20.82-2.79-41.67-5.47-62.55-7.79
		c-15.46-1.72-30.99-2.8-46.5-4.14c-18.98-1.64-37.95-3.51-56.96-4.82c-15.73-1.08-31.51-1.55-47.27-2.17
		c-23.41-0.93-46.84-2.64-70.25-2.48c-49.4,0.34-98.8,1.59-148.19,2.66c-10.61,0.23-21.21,1.24-31.8,2.03
		c-15.88,1.2-31.75,2.52-47.62,3.8c-13.08,1.06-26.19,1.89-39.24,3.26c-19.43,2.05-38.83,4.4-58.22,6.78
		c-14.3,1.76-28.6,3.53-42.83,5.73c-18.32,2.84-36.61,5.87-54.84,9.27c-23.38,4.36-46.81,8.5-68.7,18.59
		c-14.31,6.59-24.11,16.92-27.51,32.23c-2.24,10.1-3.36,20.55-3.95,30.9c-0.67,11.79-0.19,23.65-0.19,35.48
		c-0.01,62.31,0,124.63-0.01,186.94c0,17.48,0,34.95,0,52.07c-8.9,2.88-17.76,4.76-25.71,8.55c-12.92,6.15-25.59,13.01-37.74,20.58
		c-14.08,8.77-25.35,20.9-35.44,33.97c-9.3,12.04-16.61,25.23-22.55,39.32c-8.76,20.78-12.94,42.38-12.91,64.74
		c0.03,23.33,4.51,45.74,14.05,67.32c9.28,21,22.14,39.21,39.06,54.41c11.54,10.36,23.88,19.89,36.29,29.23
		c7.05,5.31,10.24,11.09,10.21,20.38c-0.37,90.16-0.33,180.32-0.07,270.48c0.04,13.19,1.42,26.43,3.02,39.54
		c1.42,11.69,7.97,20.34,19.42,23.85c7.36,2.26,15.17,3.99,22.82,4.17c23.06,0.57,46.14,0.42,69.21,0.18
		c4.42-0.05,5.93,1.52,6.26,5.47c1.68,20.14,3.29,40.29,5.19,60.4c1.14,12.04,2.78,24.15,8.17,35.07
		c2.36,4.79,6.51,9.25,10.91,12.38c10.71,7.62,23.54,8.56,36.11,8.55c46.8-0.03,93.61,0.16,140.38-1.13
		c21.45-0.59,34.4-8.38,39.04-30.4c4.32-20.48,6.37-41.44,9.26-62.21c1.29-9.27,2.2-18.59,3.31-28.07c11.77,0,23.01,0,34.26,0
		c24.8,0,49.61,0,74.41,0.01c28.69,0.01,57.38,0.06,86.07,0.05c36.38,0,72.76-0.02,109.15-0.1c3.04-0.01,5.06,0.22,5.03,4.17
		c-0.02,3.78,0.86,7.57,1.33,11.35c2.16,17.24,3.98,34.53,6.59,51.69c1.58,10.38,3.75,20.78,6.85,30.8
		c3.34,10.82,11.25,17.89,22.54,20.03c9.36,1.78,18.89,3.66,28.36,3.76c39.49,0.42,78.99,0.16,118.49,0.2
		c11.8,0.01,23.57-0.57,34.86-4.18c5.77-1.85,11.84-4.22,14.93-10.04c3.3-6.2,7.31-12.48,8.62-19.19
		c2.88-14.71,4.52-29.69,6.18-44.62C1112.53,1139.64,1113.51,1125.24,1114.8,1110.4z"/>
	<path class="st1" d="M1114.8,1110.4c-1.29,14.85-2.27,29.24-3.87,43.56c-1.66,14.93-3.3,29.91-6.18,44.62
		c-1.32,6.71-5.33,12.98-8.62,19.19c-3.1,5.82-9.16,8.19-14.93,10.04c-11.28,3.61-23.06,4.19-34.86,4.18
		c-39.5-0.03-79,0.22-118.49-0.2c-9.47-0.1-18.99-1.98-28.36-3.76c-11.29-2.14-19.19-9.21-22.54-20.03
		c-3.1-10.02-5.27-20.42-6.85-30.8c-2.62-17.17-4.44-34.46-6.59-51.69c-0.47-3.78-1.35-7.57-1.33-11.35
		c0.03-3.95-1.99-4.18-5.03-4.17c-36.38,0.08-72.76,0.1-109.15,0.1c-28.69,0-57.38-0.04-86.07-0.05
		c-24.8-0.01-49.61-0.01-74.41-0.01c-11.24,0-22.49,0-34.26,0c-1.1,9.48-2.02,18.8-3.31,28.07c-2.89,20.77-4.94,41.73-9.26,62.21
		c-4.64,22.02-17.59,29.81-39.04,30.4c-46.77,1.29-93.59,1.1-140.38,1.13c-12.57,0.01-25.4-0.93-36.11-8.55
		c-4.39-3.13-8.54-7.59-10.91-12.38c-5.39-10.92-7.03-23.03-8.17-35.07c-1.9-20.12-3.51-40.27-5.19-60.4
		c-0.33-3.95-1.83-5.52-6.26-5.47c-23.07,0.24-46.15,0.39-69.21-0.18c-7.65-0.19-15.46-1.91-22.82-4.17
		c-11.45-3.52-18-12.17-19.42-23.85c-1.59-13.11-2.98-26.35-3.02-39.54c-0.26-90.16-0.3-180.32,0.07-270.48
		c0.04-9.28-3.16-15.07-10.21-20.38c-12.4-9.34-24.74-18.87-36.29-29.23c-16.93-15.19-29.78-33.41-39.06-54.41
		c-9.53-21.57-14.01-43.99-14.05-67.32c-0.03-22.36,4.14-43.96,12.91-64.74c5.94-14.09,13.26-27.29,22.55-39.32
		c10.09-13.07,21.36-25.2,35.44-33.97c12.15-7.56,24.82-14.42,37.74-20.58c7.95-3.79,16.81-5.67,25.71-8.55c0-17.12,0-34.6,0-52.07
		c0-62.31,0-124.63,0.01-186.94c0-11.83-0.48-23.68,0.19-35.48c0.58-10.35,1.7-20.8,3.95-30.9c3.4-15.31,13.2-25.64,27.51-32.23
		c21.89-10.08,45.32-14.23,68.7-18.59c18.22-3.4,36.52-6.43,54.84-9.27c14.23-2.21,28.53-3.98,42.83-5.73
		c19.39-2.38,38.79-4.73,58.22-6.78c13.05-1.37,26.16-2.21,39.24-3.26c15.87-1.28,31.74-2.61,47.62-3.8
		c10.59-0.8,21.19-1.8,31.8-2.03c49.39-1.08,98.79-2.32,148.19-2.66c23.41-0.16,46.83,1.54,70.25,2.48
		c15.76,0.63,31.54,1.09,47.27,2.17c19.01,1.31,37.98,3.17,56.96,4.82c15.5,1.34,31.04,2.42,46.5,4.14
		c20.88,2.32,41.72,5,62.55,7.79c18.88,2.52,37.76,5.08,56.54,8.19c27.3,4.52,54.52,9.61,80.93,18.12
		c24.83,8.01,39.66,27.56,39.86,53.87c0.56,72.3,0.75,144.61,1.04,216.91c0.09,22.16,0,44.33-0.01,66.49c0,1.65,0,3.3,0,4.37
		c11.27,4.01,22.26,7.4,32.83,11.82c15.63,6.53,29.59,15.79,42.48,26.89c12.95,11.15,24.06,23.79,32.96,38.24
		c15.91,25.81,24.85,53.77,25.92,84.35c0.77,21.99-2.21,43.36-9.64,63.8c-8.78,24.13-22.33,45.68-41.79,62.79
		c-13.18,11.59-27.15,22.29-40.89,33.25c-4.43,3.53-6.95,7.46-6.94,13.46c0.1,93.83,0.2,187.65-0.16,281.48
		c-0.05,12.68-1.73,25.51-4.19,37.97c-2.28,11.52-11.49,17.09-22.34,20.11c-12.85,3.58-25.98,3.06-39.09,3.05
		c-16.44-0.01-32.87-0.03-49.31-0.01C1118.34,1110.04,1116.86,1110.24,1114.8,1110.4z M281.24,432.57
		c20.23,3.9,39.12,10.5,56.54,20.89c14.59,8.7,27.56,19.43,39.15,31.92c17.66,19.02,29.55,41.15,34.95,66.38
		c3.38,15.83,5.44,32,7.05,48.12c1.91,19.16,3.02,38.41,3.86,57.65c0.6,13.81,0.09,27.66,0.26,41.49
		c0.16,12.31,0.27,24.64,0.99,36.92c0.53,9.01,2.55,9.96,10.94,8.73c6.68-0.98,13.22-2.93,19.87-4.2
		c28.72-5.52,57.35-11.65,86.23-16.2c27.13-4.28,54.46-7.63,81.82-9.95c25.65-2.18,51.46-3.1,77.21-3.45
		c35.39-0.47,70.76,0.84,105.96,5.09c17.07,2.06,34.22,3.56,51.21,6.08c23.8,3.53,47.54,7.51,71.21,11.79
		c16.39,2.97,32.64,6.74,48.93,10.22c12.57,2.68,13.36,0.24,13.97-11.32c0.79-15.05,0.55-30.17,0.58-45.25
		c0.09-38.81,1.49-77.53,7.07-116c2.21-15.24,5.82-30.23,11.82-44.37c8.64-20.35,21.6-37.74,38.08-52.63
		c24.3-21.96,52.58-35.61,85.02-42.11c0-11.32,0.05-22.76-0.01-34.2c-0.15-29.93-0.45-59.86-0.49-89.79
		c-0.03-18.18,0.51-36.36,0.44-54.55c-0.09-23.09-0.39-46.19-0.94-69.28c-0.17-7.08-1.31-14.16-2.31-21.19
		c-0.28-1.98-1.53-3.87-2.52-5.71c-5.43-10.09-15.63-13.27-25.41-15.47c-22.65-5.11-45.52-9.35-68.42-13.22
		c-18.9-3.19-37.95-5.57-56.99-7.86c-19.23-2.31-38.51-4.27-57.8-6c-21.29-1.9-42.61-3.52-63.93-4.96
		c-18.54-1.25-37.09-2.37-55.66-3.02c-25.71-0.91-51.44-1.56-77.17-1.87c-16.94-0.2-33.89,0.38-50.84,0.67
		c-12.79,0.22-25.59,0.49-38.38,0.86c-14.3,0.41-28.61,0.73-42.89,1.52c-18.05,1-36.07,2.38-54.1,3.7
		c-13.74,1.01-27.49,2.01-41.21,3.32c-17.99,1.72-35.94,3.73-53.91,5.66c-12.51,1.34-25.06,2.43-37.5,4.21
		c-18.63,2.67-37.25,5.53-55.76,8.92c-17.19,3.14-34.72,5.63-50.46,13.69c-4.97,2.54-9.86,7.32-12.24,12.29
		c-2.67,5.58-3.12,12.52-3.38,18.91c-0.65,15.78-0.8,31.59-0.86,47.38c-0.13,33.09-0.08,66.18-0.08,99.28
		c0,22.42,0.05,44.84,0.07,67.26C281.25,406.05,281.24,419.17,281.24,432.57z M252,884.95c0.01,0,0.02,0,0.03,0
		c0,8.16-0.05,16.33,0.01,24.49c0.31,40.3,0.64,80.6,0.99,120.9c0.04,4.07,5.79,12.92,9.35,13.68c7.42,1.58,14.92,3.63,22.43,3.81
		c26.6,0.64,53.21,0.63,79.82,0.74c27.53,0.11,55.06,0.14,82.58,0.08c20.76-0.04,41.51-0.38,62.27-0.4
		c30.01-0.03,60.02,0.06,90.03,0.18c18.86,0.07,37.72,0.42,56.58,0.39c20.4-0.03,40.79-0.47,61.19-0.52
		c29.18-0.08,58.35,0.03,87.53,0.05c22.22,0.01,44.43-0.05,66.65,0.02c18.74,0.06,37.48,0.37,56.22,0.37
		c16.42,0.01,32.84-0.33,49.26-0.38c21.53-0.07,43.07,0.03,64.6-0.02c20.91-0.04,41.83-0.23,62.74-0.23
		c15.1,0,30.19,0.21,45.09-3.06c4.66-1.02,12.31-8.48,12.58-13.26c0.44-7.97,0.92-15.95,0.99-23.93
		c0.11-13.33-0.14-26.66-0.14-39.98c-0.01-41.47-0.1-82.94,0.1-124.41c0.16-33.61,0.36-67.23,1.28-100.82
		c0.33-12.02,3.48-24.07,13.8-31.74c6.92-5.14,14.88-9.18,22.88-12.5c24.06-9.98,42.66-25.79,55.16-48.77
		c10.34-19.02,14.25-39.43,11.74-60.66c-3.03-25.55-13.8-47.51-33.02-65.3c-17.4-16.11-37.93-25.26-61.06-27.4
		c-25.43-2.36-49.19,3.78-70.32,18.87c-21.39,15.27-35.1,35.44-38.31,61.66c-2.67,21.84-4.99,43.8-5.72,65.77
		c-1.17,35.1-0.64,70.26-1.35,105.39c-0.28,13.89-1.49,27.8-3.13,41.61c-1.33,11.19-7.85,19.18-18.76,22.64
		c-17.19,5.47-34.85,5.57-52.37,2.29c-20.27-3.79-40.28-8.99-60.57-12.64c-29.83-5.37-59.73-10.5-89.74-14.63
		c-21.72-2.99-43.66-4.69-65.56-6.05c-21.21-1.32-42.49-2.07-63.74-1.95c-20.4,0.11-40.8,1.43-61.18,2.65
		c-18.06,1.08-36.15,2.22-54.11,4.31c-20.32,2.36-40.61,5.28-60.74,8.93c-28.06,5.08-56.06,10.58-83.89,16.8
		c-18.46,4.12-36.92,6.33-55.5,2.9c-17.4-3.21-24.89-9.18-28.4-24.17c-2.02-8.63-2.96-17.67-3.14-26.55
		c-0.51-25.31-0.09-50.63-0.59-75.94c-0.51-25.59-1.28-51.2-2.72-76.75c-0.76-13.49-2.68-26.97-4.99-40.3
		c-4.7-27.1-20.89-46.48-43.77-60.24c-22.74-13.67-47.52-18.12-73.85-12.95c-30.09,5.91-53.21,22.1-69.23,47.89
		c-13.79,22.2-18.2,46.66-13.8,72.51c4.46,26.2,17.5,47.3,38.03,64.06c11.44,9.34,24.95,14.66,38.14,20.65
		c11.83,5.37,21.39,13.11,24.17,26.45c1.81,8.7,3.24,17.67,3.3,26.53C252.19,798.97,252,841.96,252,884.95z M372,1110.26
		c0.37,2.65,0.67,4.59,0.91,6.55c1.38,11.15,2.35,22.37,4.22,33.44c2.56,15.21,7.25,18.76,22.81,18.73
		c18.65-0.04,37.3-0.03,55.95-0.15c4.81-0.03,9.93-0.3,12.99-4.58c2.25-3.15,4.02-6.92,4.98-10.67c2.04-7.98,3.59-16.1,5-24.22
		c1.09-6.26,1.66-12.61,2.48-19.1C444.43,1110.26,408.37,1110.26,372,1110.26z M1043.9,1110.03c-9.86,0-18.3-0.06-26.74,0.01
		c-16.58,0.15-33.15,0.47-49.73,0.51c-9.76,0.03-19.52-0.3-29.28-0.57c-2.79-0.08-4.74,0.5-4.12,3.81
		c2.71,14.61,4.7,29.41,8.51,43.73c2.19,8.24,6.49,11.28,15.38,11.38c20.82,0.23,41.64,0.18,62.45,0.02
		c9.05-0.07,14.05-3.73,15.8-12.65C1039.12,1141.25,1041.27,1126.05,1043.9,1110.03z"/>
	<path class="st0" d="M281.24,432.57c0-13.4,0.01-26.52,0-39.64c-0.02-22.42-0.07-44.84-0.07-67.26c0-33.09-0.05-66.18,0.08-99.28
		c0.06-15.8,0.21-31.6,0.86-47.38c0.26-6.39,0.71-13.33,3.38-18.91c2.38-4.97,7.27-9.74,12.24-12.29
		c15.74-8.06,33.27-10.55,50.46-13.69c18.51-3.39,37.13-6.25,55.76-8.92c12.45-1.78,24.99-2.87,37.5-4.21
		c17.97-1.93,35.92-3.94,53.91-5.66c13.72-1.31,27.46-2.31,41.21-3.32c18.03-1.32,36.05-2.7,54.1-3.7
		c14.28-0.79,28.59-1.11,42.89-1.52c12.79-0.37,25.58-0.64,38.38-0.86c16.94-0.3,33.9-0.87,50.84-0.67
		c25.73,0.3,51.45,0.96,77.17,1.87c18.57,0.65,37.12,1.77,55.66,3.02c21.33,1.44,42.64,3.06,63.93,4.96
		c19.29,1.72,38.57,3.69,57.8,6c19.04,2.29,38.09,4.67,56.99,7.86c22.9,3.86,45.77,8.11,68.42,13.22
		c9.78,2.21,19.98,5.39,25.41,15.47c0.99,1.83,2.24,3.72,2.52,5.71c1,7.04,2.14,14.11,2.31,21.19c0.55,23.09,0.84,46.18,0.94,69.28
		c0.07,18.18-0.46,36.36-0.44,54.55c0.04,29.93,0.34,59.86,0.49,89.79c0.06,11.44,0.01,22.88,0.01,34.2
		c-32.44,6.5-60.72,20.16-85.02,42.11c-16.49,14.89-29.44,32.28-38.08,52.63c-6.01,14.14-9.61,29.12-11.82,44.37
		c-5.58,38.47-6.98,77.2-7.07,116c-0.03,15.09,0.21,30.2-0.58,45.25c-0.61,11.56-1.4,14-13.97,11.32
		c-16.3-3.48-32.54-7.26-48.93-10.22c-23.67-4.29-47.41-8.26-71.21-11.79c-17-2.52-34.15-4.02-51.21-6.08
		c-35.2-4.25-70.57-5.57-105.96-5.09c-25.75,0.34-51.56,1.27-77.21,3.45c-27.36,2.32-54.69,5.68-81.82,9.95
		c-28.88,4.55-57.51,10.69-86.23,16.2c-6.65,1.28-13.18,3.22-19.87,4.2c-8.39,1.23-10.41,0.27-10.94-8.73
		c-0.72-12.28-0.83-24.61-0.99-36.92c-0.18-13.83,0.34-27.68-0.26-41.49c-0.84-19.24-1.95-38.49-3.86-57.65
		c-1.61-16.12-3.67-32.3-7.05-48.12c-5.39-25.23-17.29-47.36-34.95-66.38c-11.59-12.49-24.56-23.22-39.15-31.92
		C320.36,443.07,301.47,436.47,281.24,432.57z M780.01,230.49c0.16-40.17-32.04-71.85-71.57-72.53c-37.5-0.65-76.79,31.5-72.62,78.9
		c2.96,33.64,30.15,65.67,72.23,65.8C747.73,302.79,779.84,271.06,780.01,230.49z M582,407.09c0.07-40.11-31.27-72.73-72.45-72.65
		c-41.46,0.08-72.54,32.3-72.2,72.88c0.34,40.87,32.36,71.42,71.94,71.66C549.43,479.21,581.98,446.86,582,407.09z M707.74,649.26
		c40.11,0.51,74.25-33.53,72.29-75.67c-1.69-36.31-32.6-71.16-77.22-68.65c-33.56,1.89-70.36,30.86-67.09,78.39
		C638.1,617.96,667.37,649.42,707.74,649.26z M905.51,479.01c39.76-0.45,72.13-30.88,72.14-72.4c0.01-40.39-31.58-72.49-72.87-72.2
		c-40.48,0.28-71.36,31.79-71.7,72.31C832.73,446.8,865.33,479.04,905.51,479.01z"/>
	<path class="st0" d="M252,884.95c0-42.99,0.18-85.98-0.15-128.96c-0.07-8.86-1.49-17.82-3.3-26.53
		c-2.78-13.34-12.34-21.07-24.17-26.45c-13.19-5.99-26.7-11.3-38.14-20.65c-20.52-16.76-33.57-37.86-38.03-64.06
		c-4.4-25.86,0.01-50.32,13.8-72.51c16.02-25.79,39.14-41.97,69.23-47.89c26.33-5.17,51.11-0.73,73.85,12.95
		c22.88,13.76,39.06,33.14,43.77,60.24c2.31,13.33,4.23,26.81,4.99,40.3c1.44,25.55,2.21,51.16,2.72,76.75
		c0.5,25.31,0.08,50.63,0.59,75.94c0.18,8.88,1.12,17.91,3.14,26.55c3.5,15,11,20.96,28.4,24.17c18.58,3.43,37.04,1.22,55.5-2.9
		c27.83-6.21,55.83-11.72,83.89-16.8c20.13-3.64,40.42-6.56,60.74-8.93c17.96-2.09,36.05-3.23,54.11-4.31
		c20.37-1.22,40.78-2.54,61.18-2.65c21.24-0.12,42.53,0.63,63.74,1.95c21.9,1.36,43.84,3.07,65.56,6.05
		c30.02,4.13,59.92,9.25,89.74,14.63c20.29,3.66,40.3,8.85,60.57,12.64c17.52,3.28,35.17,3.18,52.37-2.29
		c10.9-3.47,17.43-11.46,18.76-22.64c1.64-13.8,2.85-27.72,3.13-41.61c0.71-35.12,0.19-70.28,1.35-105.39
		c0.73-21.97,3.05-43.93,5.72-65.77c3.21-26.22,16.92-46.39,38.31-61.66c21.13-15.09,44.89-21.23,70.32-18.87
		c23.13,2.14,43.66,11.29,61.06,27.4c19.22,17.79,29.99,39.75,33.02,65.3c2.51,21.22-1.39,41.64-11.74,60.66
		c-12.5,22.98-31.1,38.79-55.16,48.77c-8,3.32-15.96,7.36-22.88,12.5c-10.32,7.67-13.47,19.72-13.8,31.74
		c-0.92,33.59-1.12,67.21-1.28,100.82c-0.2,41.47-0.11,82.94-0.1,124.41c0,13.33,0.26,26.66,0.14,39.98
		c-0.07,7.98-0.54,15.96-0.99,23.93c-0.27,4.78-7.92,12.23-12.58,13.26c-14.9,3.27-29.98,3.06-45.09,3.06
		c-20.91,0-41.83,0.19-62.74,0.23c-21.53,0.04-43.07-0.05-64.6,0.02c-16.42,0.05-32.84,0.38-49.26,0.38
		c-18.74-0.01-37.48-0.31-56.22-0.37c-22.22-0.07-44.43-0.01-66.65-0.02c-29.18-0.02-58.35-0.13-87.53-0.05
		c-20.4,0.06-40.79,0.49-61.19,0.52c-18.86,0.03-37.72-0.32-56.58-0.39c-30.01-0.11-60.02-0.21-90.03-0.18
		c-20.76,0.02-41.51,0.36-62.27,0.4c-27.53,0.06-55.06,0.03-82.58-0.08c-26.61-0.11-53.22-0.11-79.82-0.74
		c-7.51-0.18-15.01-2.23-22.43-3.81c-3.56-0.76-9.32-9.61-9.35-13.68c-0.35-40.3-0.68-80.6-0.99-120.9
		c-0.06-8.16-0.01-16.33-0.01-24.49C252.02,884.95,252.01,884.95,252,884.95z M248.97,677.02c38.74,0.54,72.6-30.9,72.4-72.4
		c-0.19-38.95-30.08-71.54-71.74-72.07c-40.69-0.52-72.45,32.38-72.75,72C176.57,644.37,209.81,677.75,248.97,677.02z
		 M1166.27,532.67c-41.5-0.28-72.13,33.07-72.7,71.21c-0.61,40.16,32.16,74.56,75.06,73.18c36.49-1.17,70.65-32.12,69.46-74.14
		C1237.02,564.83,1206.17,532.76,1166.27,532.67z"/>
	<path class="st0" d="M372,1110.26c36.37,0,72.43,0,109.33,0c-0.82,6.49-1.4,12.84-2.48,19.1c-1.41,8.12-2.96,16.24-5,24.22
		c-0.96,3.75-2.73,7.52-4.98,10.67c-3.06,4.28-8.18,4.55-12.99,4.58c-18.65,0.12-37.3,0.11-55.95,0.15
		c-15.56,0.03-20.25-3.52-22.81-18.73c-1.86-11.07-2.84-22.29-4.22-33.44C372.66,1114.86,372.37,1112.91,372,1110.26z"/>
	<path class="st0" d="M1043.9,1110.03c-2.63,16.02-4.78,31.21-7.73,46.25c-1.75,8.92-6.75,12.58-15.8,12.65
		c-20.82,0.16-41.64,0.21-62.45-0.02c-8.89-0.1-13.19-3.14-15.38-11.38c-3.8-14.32-5.8-29.12-8.51-43.73
		c-0.61-3.31,1.33-3.89,4.12-3.81c9.76,0.27,19.52,0.6,29.28,0.57c16.58-0.04,33.15-0.37,49.73-0.51
		C1025.6,1109.97,1034.04,1110.03,1043.9,1110.03z"/>
	<path class="st1" d="M780.01,230.49c-0.17,40.56-32.29,72.29-71.96,72.17c-42.08-0.13-69.27-32.16-72.23-65.8
		c-4.17-47.4,35.11-79.55,72.62-78.9C747.97,158.65,780.17,190.32,780.01,230.49z M728.09,230.14c1.05-10.82-9.75-20.72-21.31-20.38
		c-8.05,0.23-19.78,8.26-19.65,20.36c0.13,11.78,9.36,20.93,21.09,20.88C719.22,250.94,728.18,241.54,728.09,230.14z"/>
	<path class="st1" d="M582,407.09c-0.02,39.77-32.57,72.13-72.71,71.88c-39.58-0.24-71.6-30.79-71.94-71.66
		c-0.34-40.58,30.74-72.8,72.2-72.88C550.73,334.35,582.08,366.98,582,407.09z M530.05,406.81c1.29-8.98-7.84-20.6-19.97-20.79
		c-11.23-0.18-21,9.41-21.07,20.62c-0.07,11.57,8.95,20.47,20.72,20.46C521.53,427.1,530.03,418.61,530.05,406.81z"/>
	<path class="st1" d="M707.74,649.26c-40.36,0.16-69.64-31.3-72.02-65.93c-3.27-47.53,33.54-76.5,67.09-78.39
		c44.63-2.51,75.54,32.34,77.22,68.65C781.99,615.74,747.84,649.77,707.74,649.26z M728.07,577.67
		c0.39-12.36-8.65-20.97-19.65-21.26c-12.49-0.33-21.03,9.04-21.37,20.08c-0.35,11.64,9.33,21.66,21.11,21.39
		C718.53,597.65,728.48,589.3,728.07,577.67z"/>
	<path class="st1" d="M905.51,479.01c-40.18,0.03-72.78-32.21-72.44-72.29c0.34-40.52,31.23-72.03,71.7-72.31
		c41.29-0.29,72.88,31.82,72.87,72.2C977.63,448.13,945.27,478.56,905.51,479.01z M884.93,407.36c-0.98,9.53,9.36,20.16,20.27,19.8
		c12.49-0.42,21.25-8.92,20.66-21.88c-0.48-10.44-8.57-19.07-20.48-19.21C893.6,385.92,884.83,395.25,884.93,407.36z"/>
	<path class="st1" d="M248.97,677.02c-39.16,0.74-72.4-32.65-72.09-72.47c0.31-39.62,32.06-72.52,72.75-72
		c41.66,0.53,71.55,33.13,71.74,72.07C321.57,646.12,287.71,677.56,248.97,677.02z M249,625.2c13.61,0.31,20.45-10.09,20.86-19.93
		c0.47-11.22-9.77-21.55-20.59-21.17c-11.04,0.39-20.87,7.77-20.83,21.33C228.47,616.94,238.13,625.78,249,625.2z"/>
	<path class="st1" d="M1166.27,532.67c39.9,0.09,70.75,32.16,71.82,70.25c1.18,42.02-32.97,72.96-69.46,74.14
		c-42.9,1.38-75.67-33.02-75.06-73.18C1094.15,565.74,1124.77,532.4,1166.27,532.67z M1165.84,625.22
		c9.99,0.47,20.65-7.5,20.68-19.75c0.04-13.68-9.59-21.06-20.73-21.35c-11.44-0.3-21.28,10.12-20.62,21.94
		C1145.73,616.17,1154.35,625.8,1165.84,625.22z"/>
	<path class="st0" d="M728.09,230.14c0.09,11.4-8.87,20.8-19.87,20.85c-11.73,0.05-20.96-9.1-21.09-20.88
		c-0.13-12.1,11.6-20.12,19.65-20.36C718.34,209.42,729.14,219.32,728.09,230.14z"/>
	<path class="st0" d="M530.05,406.81c-0.02,11.8-8.52,20.29-20.32,20.3c-11.77,0.01-20.79-8.9-20.72-20.46
		c0.07-11.21,9.84-20.8,21.07-20.62C522.21,386.22,531.34,397.83,530.05,406.81z"/>
	<path class="st0" d="M728.07,577.67c0.4,11.63-9.55,19.97-19.91,20.21c-11.78,0.27-21.46-9.75-21.11-21.39
		c0.33-11.04,8.88-20.41,21.37-20.08C719.42,556.7,728.46,565.31,728.07,577.67z"/>
	<path class="st0" d="M884.93,407.36c-0.1-12.11,8.67-21.44,20.44-21.3c11.91,0.14,20.01,8.77,20.48,19.21
		c0.59,12.96-8.17,21.46-20.66,21.88C894.29,427.52,883.95,416.89,884.93,407.36z"/>
	<path class="st0" d="M249,625.2c-10.87,0.58-20.53-8.26-20.56-19.77c-0.04-13.56,9.79-20.94,20.83-21.33
		c10.82-0.38,21.05,9.95,20.59,21.17C269.45,615.12,262.61,625.52,249,625.2z"/>
	<path class="st0" d="M1165.84,625.22c-11.49,0.58-20.11-9.06-20.67-19.16c-0.66-11.83,9.18-22.24,20.62-21.94
		c11.14,0.29,20.77,7.68,20.73,21.35C1186.48,617.72,1175.83,625.7,1165.84,625.22z"/>
</g>
</svg>
