<?xml version="1.0" encoding="utf-8"?>
<!-- Generator: Adobe Illustrator 27.3.1, SVG Export Plug-In . SVG Version: 6.00 Build 0)  -->
<svg version="1.1" id="Layer_1" xmlns="http://www.w3.org/2000/svg" xmlns:xlink="http://www.w3.org/1999/xlink" x="0px" y="0px"
	 viewBox="0 0 1115 1080" style="enable-background:new 0 0 1115 1080;" xml:space="preserve">
<style type="text/css">
	.st0{display:none;fill:#FAF9F8;}
	.st1{fill:#F8B817;}
</style>
<g>
	<path class="st0" d="M0,1080C0,720.03,0,360.06,0,0c371.6,0,743.22,0,1115,0c0,359.94,0,719.97,0,1080
		C743.4,1080,371.71,1080,0,1080z M820.36,1030.04c39.83,0.05,58.11-13.34,67.78-44.59c5.35-17.3,7-35.13,7.39-53.12
		c0.51-23.71-1.14-47.29-4.33-70.78c-1.86-13.74-3.04-27.59-5.29-41.27c-5.18-31.55-11.09-62.98-16.17-94.55
		c-2.78-17.26-0.09-33.74,12.3-47.06c11.45-12.31,23.25-24.33,35.43-35.91c30.3-28.8,60.21-57.95,87.25-89.89
		c14.32-16.91,27.58-34.62,38.18-54.09c4.94-9.07,9.15-18.69,12.42-28.48c7.85-23.46,4.31-44.72-15.15-61.45
		c-6.9-5.93-14.63-11.08-22.53-15.64c-19.85-11.49-41.54-18.76-63.65-23.96c-29.64-6.97-59.62-12.54-89.57-18.09
		c-14.99-2.78-30.21-4.28-45.35-6.21c-11.6-1.48-23.31-2.17-34.72-5.03c-5.47-1.37-11.13-2.14-16.42-4.01
		c-9.05-3.21-18.39-6.12-24.31-14.72c-2.24-3.26-5.65-5.79-7.51-9.21c-5.81-10.64-11.08-21.57-16.68-32.33
		c-2.54-4.88-5.57-9.52-8-14.46c-1.58-3.2-2.13-6.91-3.73-10.09c-4.73-9.4-9.88-18.58-14.62-27.98
		c-4.06-8.07-7.25-16.61-11.74-24.42c-12.53-21.82-24.69-43.92-38.62-64.83c-9.72-14.59-21.99-27.52-33.43-40.92
		c-2.39-2.79-6.34-4.19-9.26-6.61c-2.73-2.25-4.76-5.39-7.59-7.47c-10.38-7.62-22-12.65-34.96-12.64
		c-13.16,0.01-24.78,5.4-35.4,12.97c-15.5,11.05-28.01,25.08-39.45,40.11c-24.49,32.16-43.73,67.48-61.71,103.51
		c-12.83,25.71-25.39,51.55-37.97,77.38c-10.66,21.89-28.72,32.73-52.29,35.74c-17.5,2.23-34.98,4.61-52.43,7.2
		c-20.98,3.12-41.98,6.18-62.86,9.9c-30.23,5.38-60.15,12.2-88.98,23.04c-19.7,7.41-38.76,16.14-54.06,31.16
		c-13.47,13.22-19.01,29.1-15.41,47.96c4.04,21.18,14.16,39.56,25.9,57.19c22.32,33.52,49.97,62.49,78.21,90.92
		c5.29,5.32,11.25,9.97,16.65,15.19c6.31,6.11,12.17,12.69,18.55,18.72c5.12,4.84,11.02,8.86,16.04,13.78
		c5.17,5.08,9.45,11.05,14.53,16.22c14.74,15.01,22.41,32.21,18.31,53.69c-1.55,8.13-1.65,16.54-3.34,24.62
		c-1.62,7.74-1.92,15.65-4.02,23.36c-2.22,8.13-3.4,16.56-4.73,24.91c-2.82,17.66-5.68,35.32-8.09,53.04
		c-1.97,14.49-4.02,29.04-4.71,43.62c-0.81,17.31-0.8,34.7-0.03,52.01c0.79,17.93,4.13,35.53,11.85,51.98
		c7.72,16.46,20.22,27.61,38.38,29.95c11.92,1.53,24.33,1.49,36.29,0.1c20.66-2.4,40.39-9.04,59.86-16.31
		c44.4-16.58,85.97-39,127.52-61.46c6.87-3.71,13.55-7.87,20.71-10.92c7.08-3.02,13.2-7.56,20.61-10.29
		c16.74-6.18,32.57-5.58,48.19,2.06c15.66,7.66,31.08,15.81,46.43,24.08c40.67,21.9,81.55,43.36,125.17,58.96
		C778.55,1022.96,802.31,1029.66,820.36,1030.04z"/>
	<path class="st1" d="M820.36,1030.04c-18.05-0.38-41.81-7.08-65.16-15.43c-43.62-15.6-84.5-37.06-125.17-58.96
		c-15.35-8.27-30.78-16.42-46.43-24.08c-15.62-7.64-31.45-8.24-48.19-2.06c-7.41,2.73-13.53,7.27-20.61,10.29
		c-7.15,3.05-13.84,7.2-20.71,10.92c-41.56,22.46-83.13,44.88-127.52,61.46c-19.47,7.27-39.2,13.91-59.86,16.31
		c-11.95,1.39-24.36,1.43-36.29-0.1c-18.17-2.34-30.66-13.49-38.38-29.95c-7.72-16.45-11.05-34.05-11.85-51.98
		c-0.77-17.31-0.78-34.71,0.03-52.01c0.68-14.58,2.74-29.13,4.71-43.62c2.4-17.72,5.26-35.38,8.09-53.04
		c1.33-8.35,2.51-16.78,4.73-24.91c2.1-7.7,2.41-15.61,4.02-23.36c1.69-8.09,1.79-16.5,3.34-24.62c4.1-21.48-3.57-38.68-18.31-53.69
		c-5.08-5.18-9.37-11.15-14.53-16.22c-5.02-4.93-10.92-8.95-16.04-13.78c-6.38-6.03-12.24-12.61-18.55-18.72
		c-5.4-5.22-11.36-9.87-16.65-15.19c-28.24-28.43-55.89-57.4-78.21-90.92c-11.74-17.63-21.86-36.02-25.9-57.19
		c-3.6-18.86,1.95-34.74,15.41-47.96c15.3-15.02,34.36-23.76,54.06-31.16c28.82-10.84,58.75-17.66,88.98-23.04
		c20.88-3.72,41.88-6.78,62.86-9.9c17.45-2.59,34.93-4.96,52.43-7.2c23.57-3.01,41.63-13.85,52.29-35.74
		c12.58-25.83,25.14-51.67,37.97-77.38c17.98-36.04,37.23-71.35,61.71-103.51c11.44-15.03,23.95-29.05,39.45-40.11
		c10.62-7.57,22.24-12.96,35.4-12.97c12.96-0.01,24.58,5.02,34.96,12.64c2.83,2.08,4.87,5.21,7.59,7.47
		c2.92,2.41,6.87,3.81,9.26,6.61c11.45,13.4,23.71,26.33,33.43,40.92c13.93,20.91,26.1,43.01,38.62,64.83
		c4.49,7.81,7.68,16.36,11.74,24.42c4.73,9.4,9.89,18.58,14.62,27.98c1.6,3.18,2.16,6.89,3.73,10.09c2.43,4.94,5.45,9.57,8,14.46
		c5.6,10.76,10.87,21.69,16.68,32.33c1.87,3.42,5.27,5.95,7.51,9.21c5.92,8.61,15.26,11.52,24.31,14.72
		c5.28,1.87,10.95,2.65,16.42,4.01c11.41,2.85,23.11,3.55,34.72,5.03c15.14,1.93,30.37,3.43,45.35,6.21
		c29.95,5.56,59.93,11.12,89.57,18.09c22.11,5.2,43.81,12.48,63.65,23.96c7.89,4.57,15.63,9.71,22.53,15.64
		c19.46,16.73,23,37.99,15.15,61.45c-3.27,9.79-7.48,19.41-12.42,28.48c-10.6,19.47-23.86,37.18-38.18,54.09
		c-27.05,31.94-56.96,61.09-87.25,89.89c-12.18,11.58-23.98,23.61-35.43,35.91c-12.4,13.32-15.08,29.79-12.3,47.06
		c5.08,31.57,10.99,63,16.17,94.55c2.24,13.68,3.42,27.52,5.29,41.27c3.19,23.49,4.84,47.07,4.33,70.78
		c-0.39,17.99-2.04,35.83-7.39,53.12C878.46,1016.69,860.18,1030.08,820.36,1030.04z M303.41,465.99
		c-14.35,1.78-24.6,2.65-34.7,4.42c-10.28,1.81-20.51,4.18-29.32,10.37c-5.15,3.62-7.87,8.28-7.45,14.78
		c0.6,9.17,6.08,15.93,11.43,22.46c12.05,14.7,26.17,27.42,41.53,38.49c29.83,21.5,60.15,42.32,90.17,63.56
		c6.92,4.89,13.79,9.95,20.07,15.61c6.25,5.64,9.53,13.1,7.1,21.6c-3.87,13.51-7.93,27-12.66,40.23
		c-15.77,44.16-32.93,87.89-40.02,134.63c-1.6,10.55-2.27,20.91,1.3,31.31c3.27,9.53,12.52,12.56,18.3,11.31
		c8.21-1.78,16.48-4.02,24.17-7.35c27.36-11.86,50.86-30.12,75.25-46.83c10.93-7.49,20.85-16.46,31.39-24.53
		c5.98-4.58,12.47-8.5,18.43-13.11c6.77-5.24,13.08-11.08,19.82-16.36c12.83-10.05,25.82-9.79,38.72-0.01
		c8.89,6.74,17.83,13.39,26.6,20.28c28.53,22.43,57.02,44.93,87.92,64.08c15.95,9.89,32.04,19.64,50.94,23.18
		c13.8,2.59,22.92-4.48,23.65-18.75c0.7-13.85-0.58-27.5-3.54-41.08c-7.09-32.47-17.92-63.77-29.05-95
		c-6.73-18.88-13.38-37.8-19.74-56.82c-3.99-11.93-0.47-22.01,9.29-29.72c6.52-5.16,13.31-9.98,20.11-14.77
		c28.84-20.33,58.01-40.2,86.46-61.05c11.98-8.77,22.77-19.25,33.58-29.49c8.22-7.78,15.67-16.41,19.16-27.59
		c2.43-7.78,0.46-14.37-6.35-18.72c-4.56-2.91-9.59-5.4-14.74-7.02c-18.86-5.93-38.51-7.59-58.06-7.89
		c-30.63-0.47-61.28,0.4-91.92,0.79c-13.11,0.17-26.24,1.21-39.31,0.59c-6.3-0.3-13.18-2.41-18.47-5.78
		c-4.18-2.66-7.18-8.14-9.23-13c-3.36-7.95-5.82-16.32-8.15-24.65c-10.27-36.71-20.24-73.52-34.22-109.06
		c-3.88-9.87-7.89-19.79-13.01-29.05c-5.01-9.07-11.17-17.6-17.51-25.83c-2.96-3.84-7.36-6.24-12.94-6.44
		c-8.67-0.31-14.56,4.36-18.57,10.67c-7.54,11.87-15.01,23.97-20.73,36.78c-16.07,35.96-26.26,73.96-37.1,111.72
		c-3.65,12.73-7.66,25.38-12.09,37.85c-3.17,8.9-9.8,14.56-19.36,16.05c-4.39,0.69-8.89,1.17-13.33,1.05
		c-19.22-0.5-38.43-1.59-57.64-1.83C352.85,465.74,326.07,465.99,303.41,465.99z"/>
	<path class="st0" d="M303.41,465.99c22.66,0,49.43-0.25,76.2,0.08c19.22,0.24,38.43,1.33,57.64,1.83
		c4.43,0.11,8.93-0.37,13.33-1.05c9.55-1.49,16.19-7.15,19.36-16.05c4.44-12.47,8.44-25.12,12.09-37.85
		c10.84-37.76,21.03-75.76,37.1-111.72c5.72-12.8,13.18-24.91,20.73-36.78c4.01-6.31,9.9-10.98,18.57-10.67
		c5.57,0.2,9.98,2.6,12.94,6.44c6.34,8.23,12.49,16.75,17.51,25.83c5.11,9.26,9.12,19.18,13.01,29.05
		c13.98,35.54,23.95,72.35,34.22,109.06c2.33,8.33,4.79,16.7,8.15,24.65c2.05,4.85,5.04,10.33,9.23,13
		c5.29,3.37,12.17,5.48,18.47,5.78c13.06,0.62,26.2-0.42,39.31-0.59c30.64-0.39,61.29-1.26,91.92-0.79
		c19.55,0.3,39.19,1.96,58.06,7.89c5.15,1.62,10.18,4.11,14.74,7.02c6.82,4.35,8.78,10.94,6.35,18.72
		c-3.49,11.18-10.94,19.81-19.16,27.59c-10.82,10.24-21.61,20.71-33.58,29.49c-28.46,20.84-57.62,40.72-86.46,61.05
		c-6.8,4.79-13.59,9.61-20.11,14.77c-9.75,7.72-13.27,17.8-9.29,29.72c6.35,19.01,13,37.93,19.74,56.82
		c11.13,31.23,21.96,62.53,29.05,95c2.96,13.58,4.24,27.24,3.54,41.08c-0.73,14.27-9.85,21.34-23.65,18.75
		c-18.9-3.54-34.99-13.29-50.94-23.18c-30.9-19.15-59.39-41.66-87.92-64.08c-8.77-6.89-17.71-13.55-26.6-20.28
		c-12.9-9.78-25.9-10.04-38.72,0.01c-6.74,5.28-13.04,11.12-19.82,16.36c-5.96,4.61-12.45,8.53-18.43,13.11
		c-10.55,8.08-20.46,17.04-31.39,24.53c-24.38,16.71-47.89,34.97-75.25,46.83c-7.69,3.33-15.96,5.57-24.17,7.35
		c-5.78,1.25-15.03-1.78-18.3-11.31c-3.57-10.4-2.9-20.77-1.3-31.31c7.09-46.74,24.25-90.47,40.02-134.63
		c4.73-13.23,8.79-26.72,12.66-40.23c2.43-8.5-0.85-15.96-7.1-21.6c-6.28-5.66-13.15-10.72-20.07-15.61
		c-30.02-21.24-60.34-42.06-90.17-63.56c-15.36-11.07-29.48-23.79-41.53-38.49c-5.35-6.53-10.83-13.28-11.43-22.46
		c-0.42-6.5,2.3-11.16,7.45-14.78c8.81-6.19,19.04-8.57,29.32-10.37C278.81,468.64,289.07,467.77,303.41,465.99z"/>
</g>
</svg>
