<?xml version="1.0" encoding="utf-8"?>
<!-- Generator: Adobe Illustrator 27.3.1, SVG Export Plug-In . SVG Version: 6.00 Build 0)  -->
<svg version="1.1" id="Layer_1" xmlns="http://www.w3.org/2000/svg" xmlns:xlink="http://www.w3.org/1999/xlink" x="0px" y="0px"
	 viewBox="0 0 1115 1080" style="enable-background:new 0 0 1115 1080;" xml:space="preserve">
<style type="text/css">
	.st0{display:none;fill:#FAF9F8;}
	.st1{fill:#F8B817;}
</style>
<g>
	<path class="st0" d="M0,1080C0,720.03,0,360.06,0,0c371.6,0,743.22,0,1115,0c0,359.94,0,719.97,0,1080
		C743.39,1080,371.71,1080,0,1080z M1057.76,440.43c-0.31-0.06-0.62-0.11-0.92-0.17c0.33-1.24,1.31-2.79,0.89-3.68
		c-3.03-6.51-5.78-13.26-9.67-19.24c-6.15-9.47-15.55-15.88-25.22-20.94c-14.33-7.5-29.31-13.88-44.37-19.82
		c-9.94-3.92-20.43-6.61-30.84-9.18c-14.2-3.5-28.48-6.74-42.86-9.4c-18.15-3.36-36.41-6.14-54.65-8.97
		c-10.22-1.59-20.52-2.64-30.75-4.16c-14.84-2.21-29.65-4.58-44.46-6.98c-15.88-2.57-28.46-10.89-37.49-23.79
		c-5.27-7.53-8.79-16.31-12.86-24.64c-10.68-21.85-21.2-43.77-31.88-65.62c-2.4-4.92-5.58-9.3-7.8-14.49
		c-5.08-11.87-11.72-23.13-18.39-34.23c-8.52-14.18-17.26-28.28-26.69-41.86c-13.65-19.67-29.26-37.6-49.09-51.51
		c-18.21-12.77-37.22-14.62-57.37-5.29c-14.02,6.5-25.17,16.97-34.92,28.33c-12.83,14.95-25.02,30.69-35.54,47.32
		c-13.66,21.6-25.7,44.25-37.86,66.76c-7.6,14.05-14.01,28.75-21.22,43.02c-8.76,17.34-17.38,34.77-26.87,51.7
		c-6.51,11.62-16.92,19.38-30.02,22.35c-12.72,2.88-25.62,5.04-38.51,7.02c-22.69,3.49-45.45,6.48-68.15,9.9
		c-33.5,5.05-66.67,11.66-98.97,22.07c-23.03,7.42-45.44,16.25-64.29,32.03C63,418.64,54.24,433.2,56.18,452.02
		c0.91,8.81,3.6,17.51,6.19,26.04c1.24,4.1,4.24,7.65,6.22,11.55c3.17,6.25,5.7,12.87,9.29,18.86
		c14.57,24.28,33.01,45.62,51.84,66.59c9.98,11.11,20.69,21.58,31.23,32.18c7.72,7.77,15.74,15.24,23.56,22.91
		c14.52,14.24,29.9,27.59,43.73,42.56c11.9,12.88,19.45,27.26,17.74,45.35c-0.56,5.92-1.27,11.82-1.96,17.72
		c-0.69,5.9-0.26,12.3-2.48,17.57c-2.26,5.37-0.66,10.96-3.21,16.26c-2.22,4.61-2.12,10.32-3.18,15.52c-0.92,4.54-1.13,9.16-2,13.75
		c-3.25,17.13-5.91,34.38-8.15,51.67c-2.08,15.98-4.2,32.03-4.73,48.11c-0.63,19.09-0.48,38.3,1.01,57.32
		c1.32,16.92,5.1,33.39,14.37,48.44c6.28,10.19,14.21,17.46,25.11,21.42c5.71,2.07,11.86,3.23,17.91,3.96
		c5.87,0.71,11.95,0.37,17.81-0.07c21.1-1.59,41.31-7.44,61.19-14.45c1.33-0.47,2.27-2.07,2.84-2.62c3.15-0.54,6.11-0.62,8.74-1.59
		c7.31-2.69,14.56-5.6,21.7-8.72c9.74-4.25,19.4-8.67,28.99-13.23c2.52-1.2,4.52-3.45,7.02-4.7c1.95-0.98,4.41-0.92,6.46-1.76
		c11.19-4.59,20.98-11.86,32.09-16.68c6.88-2.98,13.3-7.03,19.92-10.6c8.48-4.58,16.82-9.45,25.48-13.65
		c8.42-4.09,16.32-9.06,25.24-12.37c15.4-5.71,30.33-5.86,44.95,1.2c16.59,8.01,32.94,16.55,49.17,25.26
		c40.56,21.75,81.25,43.22,124.74,58.71c25.26,9,50.92,16.5,78.17,15.46c22.78-0.87,40.15-10.49,50.03-31.84
		c8.1-17.5,11.43-36.16,11.71-55.13c0.31-20.7-0.56-41.46-1.96-62.13c-1.23-18.06-3.26-36.13-6.09-54.01
		c-4.59-28.99-10.42-57.78-15.12-86.76c-1.74-10.74-2.65-21.78-2.36-32.63c0.37-13.62,7.69-24.67,17.01-34.02
		c17.17-17.23,34.71-34.09,52.21-51c32.22-31.14,63.45-63.16,89.34-99.92c4.98-7.07,9.48-14.53,13.57-22.14
		c4.6-8.57,9.38-17.23,12.44-26.4c2.85-8.51,3.71-17.72,5.08-26.68C1059.37,445.14,1058.23,442.73,1057.76,440.43z"/>
	<path class="st1" d="M1057.76,440.43c0.47,2.3,1.61,4.71,1.28,6.89c-1.36,8.96-2.23,18.16-5.08,26.68
		c-3.07,9.17-7.84,17.83-12.44,26.4c-4.09,7.62-8.59,15.07-13.57,22.14c-25.89,36.77-57.13,68.79-89.34,99.92
		c-17.49,16.91-35.04,33.76-52.21,51c-9.32,9.35-16.64,20.41-17.01,34.02c-0.29,10.86,0.62,21.9,2.36,32.63
		c4.7,28.97,10.53,57.77,15.12,86.76c2.83,17.88,4.86,35.95,6.09,54.01c1.4,20.67,2.27,41.43,1.96,62.13
		c-0.28,18.96-3.61,37.63-11.71,55.13c-9.88,21.35-27.26,30.97-50.03,31.84c-27.25,1.04-52.91-6.46-78.17-15.46
		c-43.48-15.5-84.18-36.96-124.74-58.71c-16.24-8.71-32.58-17.25-49.17-25.26c-14.62-7.06-29.55-6.91-44.95-1.2
		c-8.92,3.31-16.82,8.28-25.24,12.37c-8.66,4.21-17,9.08-25.48,13.65c-6.62,3.57-13.04,7.62-19.92,10.6
		c-11.11,4.82-20.9,12.09-32.09,16.68c-2.05,0.84-4.51,0.78-6.46,1.76c-2.5,1.25-4.51,3.5-7.02,4.7
		c-9.59,4.56-19.26,8.99-28.99,13.23c-7.14,3.12-14.39,6.02-21.7,8.72c-2.63,0.97-5.59,1.05-8.74,1.59
		c-0.58,0.55-1.51,2.15-2.84,2.62c-19.87,7.01-40.09,12.86-61.19,14.45c-5.85,0.44-11.93,0.78-17.81,0.07
		c-6.05-0.73-12.21-1.88-17.91-3.96c-10.9-3.96-18.83-11.23-25.11-21.42c-9.27-15.05-13.05-31.52-14.37-48.44
		c-1.49-19.03-1.64-38.24-1.01-57.32c0.53-16.07,2.66-32.13,4.73-48.11c2.25-17.29,4.91-34.55,8.15-51.67
		c0.87-4.59,1.08-9.21,2-13.75c1.05-5.2,0.96-10.91,3.18-15.52c2.55-5.3,0.95-10.89,3.21-16.26c2.22-5.27,1.79-11.66,2.48-17.57
		c0.69-5.9,1.4-11.81,1.96-17.72c1.71-18.08-5.84-32.46-17.74-45.35c-13.83-14.97-29.21-28.31-43.73-42.56
		c-7.82-7.67-15.84-15.14-23.56-22.91c-10.54-10.6-21.25-21.07-31.23-32.18c-18.83-20.97-37.27-42.31-51.84-66.59
		c-3.59-5.99-6.12-12.61-9.29-18.86c-1.98-3.91-4.98-7.45-6.22-11.55c-2.59-8.54-5.28-17.23-6.19-26.04
		c-1.94-18.82,6.82-33.37,20.8-45.06c18.85-15.77,41.26-24.61,64.29-32.03c32.3-10.4,65.47-17.01,98.97-22.07
		c22.7-3.42,45.46-6.41,68.15-9.9c12.9-1.98,25.8-4.14,38.51-7.02c13.1-2.97,23.51-10.73,30.02-22.35
		c9.49-16.94,18.11-34.37,26.87-51.7c7.21-14.27,13.62-28.96,21.22-43.02c12.17-22.5,24.2-45.16,37.86-66.76
		c10.52-16.63,22.71-32.37,35.54-47.32c9.75-11.36,20.9-21.83,34.92-28.33c20.14-9.34,39.16-7.48,57.37,5.29
		c19.83,13.91,35.44,31.84,49.09,51.51c9.43,13.59,18.17,27.68,26.69,41.86c6.67,11.11,13.31,22.37,18.39,34.23
		c2.22,5.19,5.4,9.57,7.8,14.49c10.68,21.85,21.19,43.78,31.88,65.62c4.07,8.33,7.59,17.11,12.86,24.64
		c9.03,12.9,21.62,21.22,37.49,23.79c14.81,2.4,29.62,4.77,44.46,6.98c10.23,1.52,20.53,2.58,30.75,4.16
		c18.24,2.83,36.51,5.61,54.65,8.97c14.37,2.66,28.66,5.9,42.86,9.4c10.41,2.57,20.89,5.26,30.84,9.18
		c15.06,5.94,30.04,12.31,44.37,19.82c9.66,5.06,19.06,11.47,25.22,20.94c3.89,5.99,6.65,12.73,9.67,19.24
		c0.42,0.9-0.56,2.44-0.89,3.68C1057.15,440.32,1057.46,440.37,1057.76,440.43z M557,477.44c-0.01,0-0.01,0-0.02,0
		c0,85.82,0,171.65,0.03,257.47c0,1.95-0.29,4.49,0.76,5.76c8.58,10.36,17.06,20.86,26.38,30.53c5.71,5.92,12.71,10.64,19.39,15.55
		c29.08,21.39,57.92,43.14,87.54,63.76c15.5,10.79,32.2,20.01,51.27,23.58c13.85,2.6,22.95-4.43,23.69-18.69
		c0.72-13.84-0.57-27.51-3.52-41.09c-6.86-31.5-17.28-61.89-28.02-92.2c-7.03-19.84-14.06-39.67-20.76-59.62
		c-4-11.91-0.54-22.01,9.23-29.74c6.52-5.16,13.32-9.96,20.11-14.78c30.67-21.76,61.58-43.2,91.96-65.37
		c9.15-6.67,16.61-15.6,25.32-22.94c8.54-7.2,15.38-15.59,20.38-25.46c5.08-10.04,3.31-16.9-2.73-21.19
		c-7.1-5.05-15.35-9.08-23.69-11.65c-7.86-2.42-16.46-2.76-24.79-3.31c-18.08-1.18-36.19-2.54-54.3-2.67
		c-20.46-0.15-40.94,1-61.41,1.54c-13.61,0.36-27.21,0.79-40.82,0.93c-13.96,0.15-24.18-5.74-28.92-19.36
		c-3.09-8.88-6.08-17.81-8.63-26.86c-12.28-43.63-24.37-87.31-36.56-130.96c-6.23-22.3-12.42-44.61-18.91-66.83
		c-1.37-4.68-3.42-9.38-6.15-13.4c-3.76-5.53-9.73-5.5-13.5,0.02c-1.91,2.79-3.21,6.63-3.21,9.99
		C556.96,306.12,557,391.78,557,477.44z"/>
	<path class="st0" d="M557,477.44c0-85.66-0.04-171.32,0.14-256.97c0.01-3.37,1.31-7.2,3.21-9.99c3.77-5.51,9.74-5.55,13.5-0.02
		c2.73,4.02,4.78,8.71,6.15,13.4c6.49,22.22,12.68,44.53,18.91,66.83c12.19,43.65,24.28,87.33,36.56,130.96
		c2.54,9.05,5.53,17.98,8.63,26.86c4.74,13.62,14.96,19.51,28.92,19.36c13.61-0.15,27.21-0.57,40.82-0.93
		c20.47-0.54,40.94-1.68,61.41-1.54c18.11,0.13,36.22,1.48,54.3,2.67c8.32,0.55,16.92,0.89,24.79,3.31
		c8.34,2.56,16.58,6.59,23.69,11.65c6.03,4.29,7.81,11.15,2.73,21.19c-5,9.87-11.83,18.27-20.38,25.46
		c-8.71,7.34-16.17,16.27-25.32,22.94c-30.38,22.16-61.29,43.6-91.96,65.37c-6.78,4.81-13.59,9.62-20.11,14.78
		c-9.77,7.73-13.23,17.83-9.23,29.74c6.7,19.95,13.73,39.79,20.76,59.62c10.74,30.31,21.16,60.7,28.02,92.2
		c2.96,13.58,4.24,27.24,3.52,41.09c-0.74,14.26-9.84,21.29-23.69,18.69c-19.07-3.58-35.77-12.79-51.27-23.58
		c-29.62-20.62-58.46-42.37-87.54-63.76c-6.68-4.91-13.68-9.64-19.39-15.55c-9.33-9.67-17.8-20.17-26.38-30.53
		c-1.05-1.27-0.76-3.81-0.76-5.76c-0.03-85.82-0.03-171.65-0.03-257.47C556.98,477.44,556.99,477.44,557,477.44z"/>
</g>
</svg>
