<?xml version="1.0" encoding="utf-8"?>
<!-- Generator: Adobe Illustrator 27.3.1, SVG Export Plug-In . SVG Version: 6.00 Build 0)  -->
<svg version="1.1" id="Layer_1" xmlns="http://www.w3.org/2000/svg" xmlns:xlink="http://www.w3.org/1999/xlink" x="0px" y="0px"
	 viewBox="0 0 1115 1080" style="enable-background:new 0 0 1115 1080;" xml:space="preserve">
<style type="text/css">
	.st0{display:none;fill:#FAF9F8;}
	.st1{fill:#F8B817;}
</style>
<g>
	<path class="st0" d="M0,1080C0,720.03,0,360.06,0,0c371.6,0,743.22,0,1115,0c0,359.94,0,719.97,0,1080
		C743.4,1080,371.71,1080,0,1080z M875.07,765.67c0-2.21,0.28-4.48-0.05-6.65c-1.63-10.79-3.4-21.56-5.17-32.33
		c-3.67-22.35,2.9-41.08,19.44-56.58c12.47-11.68,24.64-23.68,36.81-35.67c16.14-15.9,32.58-31.53,48.1-48.01
		c14.45-15.34,27.91-31.61,41.67-47.58c1.28-1.49,1.21-4.12,2.46-5.67c3.88-4.84,8.51-9.12,12.07-14.16
		c4.7-6.64,9.14-13.55,12.84-20.79c7.01-13.71,13.35-27.52,15.29-43.35c1.91-15.55-3.1-27.86-12.08-39.62
		c-7.67-10.04-18.38-16.47-29.03-21.87c-16.04-8.13-32.97-14.93-50.14-20.33c-48.03-15.09-97.85-21.44-147.54-28.18
		c-14.11-1.91-28.2-4.04-42.25-6.35c-20.52-3.37-35.24-14.71-44.57-33.21c-4.38-8.67-8.94-17.25-13.21-25.98
		c-5.69-11.63-11.3-23.3-16.72-35.05c-5.21-11.3-11.7-21.92-16.9-33.23c-4.22-9.17-9.12-18.07-14.3-26.74
		c-9.43-15.8-18.89-31.61-29.08-46.92c-13.7-20.59-29.54-39.45-49.69-54.16c-15.46-11.29-32.66-17.05-51.26-9.99
		c-9.9,3.76-19.35,9.76-27.67,16.42c-19.72,15.77-34.31,36.18-48.07,57.11c-25.19,38.28-45.06,79.43-64.96,120.58
		c-7.59,15.69-15.65,31.18-24.17,46.37c-8.21,14.63-22.41,21.86-37.92,24.89c-20.15,3.93-40.73,5.56-61.07,8.57
		c-22.89,3.38-45.8,6.74-68.55,10.94c-29.05,5.36-57.79,12.17-85.43,22.87c-18.85,7.3-37,15.95-51.72,30.32
		c-12.72,12.41-18.56,27.6-15.87,45.16c2.88,18.8,11.18,35.66,21.18,51.68c18.27,29.25,40.74,55.13,64.67,79.79
		c9.09,9.37,18.96,17.96,28.29,27.11c4.81,4.72,9.01,10.05,13.8,14.78c14.58,14.41,29.49,28.48,43.91,43.05
		c8.76,8.85,16.1,19.04,17.18,31.88c0.76,9.01,0.68,18.32-0.7,27.24c-3.58,23.1-8.36,46.01-12.17,69.08
		c-3.79,22.97-7.51,45.97-10.26,69.08c-1.78,14.93-2.02,30.07-2.49,45.13c-0.77,24.82,0.25,49.48,8.27,73.33
		c9.43,28.06,27.93,41.3,57.58,41.46c23.96,0.13,46.64-6.05,69.03-13.66c44.91-15.27,86.67-37.31,128.33-59.6
		c15.23-8.15,30.45-16.35,45.92-24.03c12.05-5.98,24.83-10.29,38.43-6.59c8.53,2.32,17.03,5.43,24.89,9.46
		c26.01,13.34,51.44,27.85,77.64,40.77c24.91,12.29,50.4,23.46,75.91,34.49c9.7,4.2,20.21,6.51,30.28,9.9
		c21.78,7.35,44,11.45,66.98,8.09c13.43-1.97,24.89-7.96,33.2-19.2c11.99-16.21,16.11-35.13,17.76-54.51
		c1.37-16.12,1.56-32.41,1.07-48.59c-0.45-14.96-2.32-29.89-3.88-44.8c-1.29-12.3-2.71-24.61-4.65-36.82
		c-2.8-17.69-6.09-35.3-9.26-52.92C876.85,769.98,875.87,768,875.07,765.67z"/>
	<path class="st1" d="M875.07,765.67c0.8,2.33,1.77,4.31,2.15,6.39c3.17,17.63,6.46,35.24,9.26,52.92
		c1.94,12.21,3.36,24.52,4.65,36.82c1.56,14.91,3.43,29.84,3.88,44.8c0.49,16.18,0.29,32.47-1.07,48.59
		c-1.64,19.38-5.76,38.3-17.76,54.51c-8.32,11.24-19.77,17.23-33.2,19.2c-22.98,3.36-45.2-0.74-66.98-8.09
		c-10.07-3.4-20.57-5.71-30.28-9.9c-25.51-11.03-50.99-22.2-75.91-34.49c-26.21-12.93-51.63-27.44-77.64-40.77
		c-7.86-4.03-16.36-7.13-24.89-9.46c-13.6-3.7-26.38,0.61-38.43,6.59c-15.47,7.68-30.68,15.89-45.92,24.03
		c-41.66,22.28-83.43,44.33-128.33,59.6c-22.39,7.61-45.07,13.79-69.03,13.66c-29.65-0.16-48.15-13.4-57.58-41.46
		c-8.01-23.85-9.04-48.52-8.27-73.33c0.47-15.06,0.71-30.2,2.49-45.13c2.75-23.11,6.47-46.11,10.26-69.08
		c3.81-23.07,8.58-45.98,12.17-69.08c1.38-8.92,1.46-18.23,0.7-27.24c-1.08-12.84-8.43-23.03-17.18-31.88
		c-14.41-14.57-29.33-28.64-43.91-43.05c-4.79-4.74-8.99-10.07-13.8-14.78c-9.32-9.14-19.2-17.74-28.29-27.11
		c-23.92-24.66-46.39-50.54-64.67-79.79c-10-16.02-18.3-32.88-21.18-51.68c-2.69-17.56,3.15-32.75,15.87-45.16
		c14.72-14.37,32.87-23.01,51.72-30.32c27.64-10.71,56.38-17.51,85.43-22.87c22.75-4.2,45.66-7.55,68.55-10.94
		c20.34-3.01,40.92-4.63,61.07-8.57c15.51-3.03,29.72-10.25,37.92-24.89c8.52-15.2,16.58-30.69,24.17-46.37
		c19.9-41.15,39.77-82.3,64.96-120.58c13.77-20.92,28.36-41.33,48.07-57.11c8.32-6.66,17.77-12.66,27.67-16.42
		c18.6-7.06,35.8-1.3,51.26,9.99c20.15,14.71,35.99,33.57,49.69,54.16c10.19,15.31,19.65,31.12,29.08,46.92
		c5.18,8.67,10.08,17.57,14.3,26.74c5.21,11.31,11.69,21.94,16.9,33.23c5.42,11.76,11.03,23.43,16.72,35.05
		c4.27,8.72,8.84,17.3,13.21,25.98c9.33,18.5,24.05,29.83,44.57,33.21c14.05,2.31,28.14,4.44,42.25,6.35
		c49.69,6.74,99.51,13.09,147.54,28.18c17.17,5.39,34.1,12.19,50.14,20.33c10.65,5.4,21.36,11.83,29.03,21.87
		c8.99,11.77,13.99,24.07,12.08,39.62c-1.94,15.83-8.27,29.63-15.29,43.35c-3.7,7.23-8.14,14.15-12.84,20.79
		c-3.57,5.04-8.19,9.32-12.07,14.16c-1.24,1.55-1.18,4.18-2.46,5.67c-13.76,15.97-27.23,32.24-41.67,47.58
		c-15.53,16.48-31.96,32.11-48.1,48.01c-12.17,11.99-24.34,23.99-36.81,35.67c-16.54,15.5-23.11,34.23-19.44,56.58
		c1.77,10.77,3.54,21.54,5.17,32.33C875.35,761.19,875.07,763.46,875.07,765.67z"/>
</g>
</svg>
