<?xml version="1.0" encoding="utf-8"?>
<!-- Generator: Adobe Illustrator 26.0.1, SVG Export Plug-In . SVG Version: 6.00 Build 0)  -->
<svg version="1.1" id="Layer_1" xmlns="http://www.w3.org/2000/svg" xmlns:xlink="http://www.w3.org/1999/xlink" x="0px" y="0px"
	 viewBox="0 0 612 792" style="enable-background:new 0 0 612 792;" xml:space="preserve">
<style type="text/css">
	.st0{display:none;}
	.st1{fill:#FFFFFF;}
</style>
<g>
	<path class="st0" d="M0,668.5c0-182.4,0-364.8,0-547.2c203.8,0,407.5,0,611.3,0c0,182.4,0,364.8,0,547.2
		C407.5,668.5,203.8,668.5,0,668.5z M305.8,622.1C305.8,622.1,305.8,622.1,305.8,622.1c60.3,0,120.6,0.1,180.9,0
		c10,0,20-0.2,29.9-0.5c7.7-0.2,11.4-3.3,11.9-9.8c0.2-2.9,0.4-5.9,0.4-8.8c0-29.1,0-58.3,0-87.4c0-20.3,0.1-40.6,0.1-61
		c0-22.9-0.1-45.9-0.2-68.8c0-13.6,0-27.3,0-40.9c0-2.7-0.4-5.3-2.5-7.5c-6.8-7-13.6-14.1-20.4-21.2c-6.8-7-13.7-14-20.6-21
		c-9.6-9.7-19.1-19.5-28.7-29.2c-1-1-1.4-1.9-1.4-3.3c0-15.5,0-31.1,0-46.6c0-11.9,0-23.7-0.1-35.6c0-4.9,0.2-9.8-0.1-14.7
		c-0.2-4.2,0.4-4.5-4.3-4.5c-71.1,0-142.1,0-213.2,0c-25.9,0-51.9,0-77.8,0c-3.1,0-3.4,0.4-3.4,3.4c0,1.4-0.2,2.7-0.2,4.1
		c0,12.4,0,24.8,0,37.2c0,18.2-0.1,36.5,0,54.7c0,2.6-0.6,4.4-2.5,6.3c-14,14-27.8,28.2-41.6,42.3c-9,9.2-17.8,18.4-26.7,27.6
		c-1.6,1.7-2.8,3.7-2.8,6.1c-0.1,4.5-0.2,9-0.2,13.5c0,16.2,0.2,32.5,0.2,48.7c0,13.9-0.1,27.7-0.2,41.6c0,8.8,0,17.5,0,26.3
		c0,11.6,0,23.1,0,34.7c0,17.6,0,35.1,0,52.7c0,10.3,0.2,20.7,0.2,31c0,6.3,0,12.6,0.1,18.9c0.1,5.8,3.2,9.9,8,10.5
		c4,0.5,8.1,0.9,12.1,0.9C170.5,622.1,238.1,622.1,305.8,622.1z"/>
	<path class="st1" d="M0,668.5c203.8,0,407.5,0,611.3,0c-0.1,0.2-0.1,0.4-0.2,0.4c-0.6,0-1.2,0-1.9,0c-202.4,0-404.7,0-607.1,0
		C1.4,669,0.7,668.7,0,668.5z"/>
	<path class="st1" d="M305.8,622.1c-67.7,0-135.3,0-203,0c-4,0-8.1-0.4-12.1-0.9c-4.9-0.6-7.9-4.7-8-10.5c-0.1-6.3,0-12.6-0.1-18.9
		c-0.1-10.3-0.2-20.7-0.2-31c0-17.6,0-35.1,0-52.7c0-11.6,0-23.1,0-34.7c0-8.8,0-17.5,0-26.3c0.1-13.9,0.2-27.7,0.2-41.6
		c0-16.2-0.2-32.5-0.2-48.7c0-4.5,0.1-9,0.2-13.5c0-2.5,1.2-4.4,2.8-6.1c8.9-9.2,17.8-18.5,26.7-27.6c13.8-14.2,27.6-28.3,41.6-42.3
		c1.9-1.9,2.5-3.7,2.5-6.3c-0.1-18.2,0-36.5,0-54.7c0-12.4,0-24.8,0-37.2c0-1.4,0.2-2.7,0.2-4.1c0-3.1,0.3-3.4,3.4-3.4
		c25.9,0,51.9,0,77.8,0c71.1,0,142.1,0,213.2,0c4.7,0,4.1,0.3,4.3,4.5c0.3,4.9,0.1,9.8,0.1,14.7c0,11.9,0,23.7,0.1,35.6
		c0,15.5,0,31.1,0,46.6c0,1.4,0.4,2.3,1.4,3.3c9.6,9.7,19.2,19.4,28.7,29.2c6.9,7,13.8,14,20.6,21c6.8,7,13.6,14.2,20.4,21.2
		c2.1,2.1,2.5,4.7,2.5,7.5c0,13.6,0,27.3,0,40.9c0,22.9,0.2,45.9,0.2,68.8c0,20.3-0.1,40.6-0.1,61c0,29.1,0,58.3,0,87.4
		c0,2.9-0.1,5.9-0.4,8.8c-0.5,6.5-4.3,9.6-11.9,9.8c-10,0.2-20,0.5-29.9,0.5C426.4,622.1,366.1,622.1,305.8,622.1
		C305.8,622.1,305.8,622.1,305.8,622.1z M175.7,180c-0.1,0.4-0.1,0.6-0.1,0.8c-0.1,21.2-0.2,42.3-0.3,63.5c0,13.2,0,26.3,0,39.5
		c0,14.2-0.1,28.4-0.1,42.6c-0.1,23.1-0.1,46.2-0.1,69.3c0,0.9,0.6,2.1,1.4,2.6c10.6,6.7,21.3,13.2,31.9,19.8
		c10.8,6.7,21.7,13.4,32.5,20.2c8.5,5.3,16.9,10.6,25.4,15.8c12.7,7.8,25.3,15.7,38,23.5c1.1,0.7,1.9,0.6,3.1-0.1
		c8.6-5.4,17.3-10.7,25.9-16.1c20.7-12.8,41.4-25.7,62.1-38.5c12.6-7.8,25.1-15.7,37.8-23.4c2.4-1.4,3.4-2.7,3.3-5.8
		c-0.3-15.9-0.2-31.9-0.2-47.8c-0.1-26.6-0.2-53.3-0.3-79.9c0-12.5-0.1-25.1-0.1-37.6c0-12.3,0-24.6,0-36.8c0-3.8,0-7.7,0-11.5
		C348.9,180,262.3,180,175.7,180z M507.6,592.7c0.3-1.5,0.9-3,1-4.5c0.4-8.4,0.8-16.8,0.9-25.2c0.1-14-0.1-27.9-0.1-41.9
		c0-12.2,0.2-24.3,0.2-36.5c0-14.1-0.1-28.2-0.1-42.3c0-20.7,0.1-41.5,0.1-62.2c0-1.5,0-3,0-4.7c-59.5,37-118.7,73.7-177.9,110.5
		C390.3,521.6,448.9,557.1,507.6,592.7z M103.1,593c59-35.8,117.5-71.2,176.2-106.9c-59.3-36.9-118.3-73.7-177.4-110.5
		c-0.1,0.3-0.2,0.5-0.2,0.7c0,10.4,0,20.8,0,31.2c0,21.9,0,43.8,0,65.8c0,16.1,0.1,32.1,0.1,48.2c0,17.4-0.1,34.7,0,52.1
		C102,580,102.7,586.3,103.1,593z M127.7,601.6c118.8,0,236.9,0,355,0c-1.8-1.5-3.6-2.6-5.5-3.7c-20.1-12.3-40.2-24.6-60.3-36.8
		c-16.5-10-33.1-20-49.7-30c-11-6.6-22.1-13.2-33-20c-9.4-5.8-18.6-11.7-28.2-17.7C247.1,529.2,187.6,565.3,127.7,601.6z
		 M156.1,292.7c-0.9,0.8-1.4,1.2-1.9,1.7c-12.2,12.4-24.3,24.8-36.5,37.3c-3.9,4-7.7,8-11.5,12.1c-0.6,0.7-0.8,1.7-1.1,2.6
		c0.8,0.2,1.6,0.6,2.3,0.6c4.3,0.1,8.6,0.1,12.9,0.1c5.8,0.1,11.7,0.3,17.5,0.3c5.2,0,10.4-0.3,15.6-0.1c2.1,0.1,2.7-0.4,2.7-2.4
		c-0.1-7.8,0-15.6,0-23.4C156.1,312,156.1,302.6,156.1,292.7z M455.3,347.3c5.4,0,10.5,0,15.6,0c5.8,0,11.6-0.2,17.4-0.2
		c5.4-0.1,10.7-0.1,16.1-0.2c2.1,0,2.5-0.7,1.2-2.4c-1.7-2.3-3.7-4.5-5.7-6.6c-11.4-11.6-22.8-23.3-34.3-34.8
		c-3.4-3.4-7.1-6.5-10.3-9.4C455.3,311,455.3,329,455.3,347.3z M155.7,385.4c0-6.1,0-12,0-17.9c-9.5,0-18.8,0-28.6,0
		C136.9,373.7,146.3,379.5,155.7,385.4z M484.1,367.5c-9.9,0-19.3,0-28.5,0c0,5.9,0,11.6,0,17.8
		C465.3,379.3,474.5,373.5,484.1,367.5z"/>
	<path class="st0" d="M175.7,180c86.7,0,173.2,0,260.1,0c0,3.8,0,7.7,0,11.5c0,12.3,0,24.6,0,36.8c0,12.5,0.1,25.1,0.1,37.6
		c0.1,26.6,0.2,53.3,0.3,79.9c0,15.9-0.1,31.9,0.2,47.8c0.1,3.1-1,4.4-3.3,5.8c-12.7,7.7-25.2,15.6-37.8,23.4
		c-20.7,12.9-41.4,25.7-62.1,38.5c-8.6,5.4-17.3,10.7-25.9,16.1c-1.2,0.7-2,0.8-3.1,0.1c-12.6-7.9-25.3-15.7-38-23.5
		c-8.5-5.3-16.9-10.6-25.4-15.8c-10.8-6.7-21.6-13.4-32.5-20.2c-10.6-6.6-21.3-13.1-31.9-19.8c-0.7-0.5-1.4-1.7-1.4-2.6
		c0-23.1,0-46.2,0.1-69.3c0-14.2,0.1-28.4,0.1-42.6c0-13.2,0-26.3,0-39.5c0.1-21.2,0.2-42.3,0.3-63.5
		C175.6,180.6,175.6,180.3,175.7,180z M303.9,304.9c4.4-0.2,8.8-0.4,13.2-0.7c7.4-0.4,14.7-1.4,21.7-3.7c7.3-2.4,11.1-7.6,10.4-14.5
		c-0.8-7.9-4.4-14.4-10.3-19.6c-5.2-4.6-11.7-5.6-18.3-5.7c-8.4-0.1-16.8,0.1-25.3,0.3c-5.7,0.1-11.5-0.2-17,1
		c-10.1,2-15.5,9.4-18.6,18.7c-1.5,4.6-2.1,9.3,0.8,13.8c2.6,4,6.7,5.8,10.9,6.9C282.1,304,293,304.8,303.9,304.9z M370.1,421.1
		c0-6.1,0-11.7-0.1-17.3c0-0.5-0.9-1.4-1.5-1.4c-2.1-0.2-4.2-0.1-6.3-0.1c-11.5,0-23,0-34.5,0.1c-6.8,0-13.6,0.2-20.3,0.2
		c-4.6,0-9.2-0.3-13.8-0.3c-9.6,0-19.2,0.3-28.8,0.3c-7.1,0-14.2-0.1-21.4-0.3c-1.7,0-2.2,0.7-2.1,2.2c0.1,4.6,0.2,9.3,0.1,13.9
		c-0.1,2.2,0.5,2.9,2.8,2.9c37.1-0.1,74.1,0,111.2,0C360.3,421.1,365.1,421.1,370.1,421.1z M370.1,361.8c0-5.4-0.1-10.6,0.1-15.7
		c0.1-2.4-0.6-3-3-3c-39.3,0.1-78.6,0-118,0c-2.5,0-5,0-7.7,0c0,6,0,11.7,0,17.3c0,1.1,0.2,1.6,1.6,1.4c2.1-0.3,4.3-0.1,6.4-0.1
		c17.1,0,34.2,0,51.3,0c6.2,0,12.3,0.2,18.5,0.2c9.9,0,19.9-0.1,29.8-0.1C356.1,361.8,363,361.8,370.1,361.8z M330.1,392.4
		c0.2-0.9,0.5-1.6,0.5-2.4c-0.1-4.8-0.3-9.5-0.3-14.3c0-1.7-0.4-2.3-2.2-2.3c-10.5,0.1-21,0.2-31.5,0.2c-17.5,0-35-0.1-52.5-0.2
		c-2.2,0-2.8,0.7-2.7,2.8c0.2,4.6,0.2,9.3,0.1,13.9c0,1.9,0.7,2.4,2.4,2.3c2.1-0.1,4.3,0,6.4,0c20,0,39.9,0,59.9,0
		C316.8,392.4,323.4,392.4,330.1,392.4z M328.9,231.6c0-14.1-11-25.3-24.9-25.3c-14.1,0.1-24.9,11-25.1,24.9
		c-0.2,13.8,11.2,25.1,24.8,25.2C317.9,256.5,329.1,244.8,328.9,231.6z"/>
	<path class="st0" d="M507.6,592.7c-58.7-35.6-117.3-71.1-175.9-106.7c59.2-36.8,118.3-73.5,177.9-110.5c0,1.7,0,3.2,0,4.7
		c0,20.7-0.1,41.5-0.1,62.2c0,14.1,0.1,28.2,0.1,42.3c0,12.2-0.2,24.3-0.2,36.5c0,14,0.2,27.9,0.1,41.9c-0.1,8.4-0.5,16.8-0.9,25.2
		C508.5,589.7,507.9,591.2,507.6,592.7z"/>
	<path class="st0" d="M103.1,593c-0.4-6.7-1.2-13-1.2-19.4c-0.2-17.4,0-34.7,0-52.1c0-16.1-0.1-32.1-0.1-48.2c0-21.9,0-43.8,0-65.8
		c0-10.4,0-20.8,0-31.2c0-0.2,0.1-0.4,0.2-0.7c59.1,36.8,118.2,73.6,177.4,110.5C220.6,521.8,162.2,557.2,103.1,593z"/>
	<path class="st0" d="M127.7,601.6c59.9-36.4,119.4-72.4,178.4-108.2c9.6,6,18.8,12,28.2,17.7c11,6.7,22,13.3,33,20
		c16.6,10,33.1,19.9,49.7,30c20.1,12.2,40.2,24.5,60.3,36.8c1.8,1.1,3.7,2.2,5.5,3.7C364.6,601.6,246.5,601.6,127.7,601.6z"/>
	<path class="st0" d="M156.1,292.7c0,9.9,0,19.3,0,28.7c0,7.8,0,15.6,0,23.4c0,2-0.5,2.5-2.7,2.4c-5.2-0.2-10.4,0.1-15.6,0.1
		c-5.8,0-11.7-0.2-17.5-0.3c-4.3-0.1-8.6,0-12.9-0.1c-0.8,0-1.6-0.4-2.3-0.6c0.4-0.9,0.5-2,1.1-2.6c3.8-4.1,7.6-8.1,11.5-12.1
		c12.1-12.4,24.3-24.9,36.5-37.3C154.6,293.9,155.2,293.4,156.1,292.7z"/>
	<path class="st0" d="M455.3,347.3c0-18.4,0-36.3,0-53.5c3.2,2.9,6.9,6,10.3,9.4c11.5,11.5,22.9,23.2,34.3,34.8c2,2.1,4,4.3,5.7,6.6
		c1.3,1.7,0.9,2.3-1.2,2.4c-5.4,0.1-10.7,0.1-16.1,0.2c-5.8,0.1-11.6,0.2-17.4,0.2C465.8,347.4,460.7,347.3,455.3,347.3z"/>
	<path class="st0" d="M155.7,385.4c-9.4-5.9-18.8-11.7-28.6-17.9c9.8,0,19.1,0,28.6,0C155.7,373.4,155.7,379.3,155.7,385.4z"/>
	<path class="st0" d="M484.1,367.5c-9.6,6-18.9,11.8-28.5,17.8c0-6.2,0-11.9,0-17.8C464.8,367.5,474.2,367.5,484.1,367.5z"/>
	<path class="st1" d="M303.9,304.9c-11,0-21.9-0.9-32.5-3.6c-4.2-1.1-8.3-2.9-10.9-6.9c-2.9-4.4-2.3-9.2-0.8-13.8
		c3.1-9.3,8.6-16.6,18.6-18.7c5.5-1.1,11.3-0.8,17-1c8.4-0.2,16.8-0.4,25.3-0.3c6.6,0.1,13.1,1.1,18.3,5.7
		c5.9,5.2,9.5,11.7,10.3,19.6c0.7,6.9-3.1,12.1-10.4,14.5c-7.1,2.4-14.4,3.3-21.7,3.7C312.7,304.5,308.3,304.7,303.9,304.9z
		 M304.5,293.3c0-0.4,0-0.7,0.1-1.1c4.3,0,8.6,0.2,12.9-0.1c3.9-0.3,7.9-0.7,11.6-1.9c4.8-1.5,6.1-3.2,4.2-7.5c-0.9-2-3-3.6-4.9-5
		c-3.6-2.5-8-2.6-12.2-2.7c-4.9-0.2-9.9,0.1-14.8,0.2c-5.1,0.1-10.3,0-15.4,0.4c-3.5,0.3-6.8,1.7-9.4,4.4c-3.3,3.5-4.4,9.1,2.8,10.2
		C287.6,291.6,296.1,292.3,304.5,293.3z"/>
	<path class="st1" d="M370.1,421.1c-5,0-9.8,0-14.6,0c-37.1,0-74.1,0-111.2,0c-2.3,0-2.9-0.7-2.8-2.9c0.1-4.6,0-9.3-0.1-13.9
		c0-1.5,0.4-2.2,2.1-2.2c7.1,0.2,14.2,0.4,21.4,0.3c9.6,0,19.2-0.3,28.8-0.3c4.6,0,9.2,0.3,13.8,0.3c6.8,0,13.6-0.1,20.3-0.2
		c11.5-0.1,23-0.1,34.5-0.1c2.1,0,4.2-0.1,6.3,0.1c0.5,0.1,1.5,0.9,1.5,1.4C370.2,409.4,370.1,415.1,370.1,421.1z"/>
	<path class="st1" d="M370.1,361.8c-7.1,0-14,0-21,0c-9.9,0-19.9,0.1-29.8,0.1c-6.2,0-12.3-0.2-18.5-0.2c-17.1,0-34.2,0-51.3,0
		c-2.1,0-4.3-0.2-6.4,0.1c-1.4,0.2-1.6-0.3-1.6-1.4c0-5.6,0-11.3,0-17.3c2.6,0,5.1,0,7.7,0c39.3,0,78.6,0.1,118,0c2.4,0,3.1,0.6,3,3
		C370,351.3,370.1,356.4,370.1,361.8z"/>
	<path class="st1" d="M330.1,392.4c-6.7,0-13.2,0-19.8,0c-20,0-39.9,0-59.9,0c-2.1,0-4.3-0.1-6.4,0c-1.8,0.1-2.5-0.4-2.4-2.3
		c0.1-4.6,0.1-9.3-0.1-13.9c-0.1-2.1,0.5-2.8,2.7-2.8c17.5,0.1,35,0.2,52.5,0.2c10.5,0,21-0.1,31.5-0.2c1.8,0,2.2,0.6,2.2,2.3
		c0,4.8,0.2,9.5,0.3,14.3C330.6,390.7,330.3,391.5,330.1,392.4z"/>
	<path class="st1" d="M328.9,231.6c0.2,13.2-11,24.9-25.2,24.8c-13.6-0.1-25-11.4-24.8-25.2c0.2-13.9,10.9-24.8,25.1-24.9
		C317.9,206.3,328.9,217.5,328.9,231.6z M315.9,231.6c0-6.9-5-12.2-11.7-12.3c-6.8-0.1-12.2,5.2-12.4,11.9
		c-0.2,6.7,5.4,12.2,12.3,12.2C310.7,243.5,316.3,237.6,315.9,231.6z"/>
	<path class="st0" d="M304.5,293.3c-8.4-1-16.8-1.7-25.2-3c-7.2-1.1-6.1-6.7-2.8-10.2c2.6-2.7,5.9-4.1,9.4-4.4
		c5.1-0.5,10.3-0.3,15.4-0.4c4.9-0.1,9.9-0.3,14.8-0.2c4.2,0.1,8.6,0.2,12.2,2.7c1.9,1.3,4,3,4.9,5c1.9,4.3,0.6,6-4.2,7.5
		c-3.7,1.1-7.7,1.6-11.6,1.9c-4.3,0.3-8.6,0.1-12.9,0.1C304.5,292.5,304.5,292.9,304.5,293.3z"/>
	<path class="st0" d="M315.9,231.6c0.4,6-5.2,11.9-11.8,11.8c-6.9,0-12.5-5.5-12.3-12.2c0.2-6.7,5.6-12,12.4-11.9
		C310.9,219.3,315.9,224.7,315.9,231.6z"/>
</g>
</svg>
