<?xml version="1.0" encoding="utf-8"?>
<!-- Generator: Adobe Illustrator 26.0.1, SVG Export Plug-In . SVG Version: 6.00 Build 0)  -->
<svg version="1.1" id="Layer_1" xmlns="http://www.w3.org/2000/svg" xmlns:xlink="http://www.w3.org/1999/xlink" x="0px" y="0px"
	 viewBox="0 0 612 792" style="enable-background:new 0 0 612 792;" xml:space="preserve">
<style type="text/css">
	.st0{display:none;}
	.st1{fill:#FEFEFE;}
	.st2{fill:#6A6A6A;}
	.st3{fill:#696969;}
	.st4{fill:#686868;}
	.st5{fill:#666666;}
	.st6{fill:#676767;}
	.st7{fill:#656565;}
	.st8{fill:#676766;}
	.st9{display:none;fill:#010101;}
	.st10{display:none;fill:#030303;}
</style>
<g>
	<path class="st0" d="M611.3,82.9c0,208.4,0,416.8,0,625.1c-203.8,0-407.6,0-611.3,0C0,499.6,0,291.2,0,82.9
		C203.8,82.9,407.6,82.9,611.3,82.9z M342.7,170.8c-0.1,0.2-0.3,0.4-0.4,0.5c-0.4,0.5-0.8,1-1.2,1.6c-1,1.4-2,2.8-3.1,4.3
		c-0.5,0.7-1,1.5-1.5,2.2c-0.3,0.4-0.7,0.8-1,1.2c-6.4,12-12.9,24-19.3,36c-1.2,2.2-1.8,4.7-2.6,7.1c-3,8.4-6.5,16.7-8.9,25.4
		c-2.4,8.6-3.2,17.6-2.9,26.6c0.2,4.9,1.9,8.9,5.7,12c5.9,4.7,12.7,7.3,19.9,8.8c4.7,1,8.4-1.5,8.9-5.6c0.3-3,0.4-6.1,0.6-9.2
		c0.2-3.2,0.1-6.4,0.6-9.5c2-10.7,5-21.2,9.4-31.3c3.5-8.1,7.5-16,11.2-23.9c0.4-0.7,0.8-1.4,1.1-2.1c0.6-0.9,1.2-1.8,1.7-2.7
		c5.4-8.6,10.7-17.2,16-25.8c5-5.6,10-11.1,15-16.7c2.7-3,5.4-6,7.8-9.3c2.6-3.6,2.1-6.2-1.4-8.9c-5.6-4.4-12.2-6.7-19.2-7.6
		c-6.3-0.9-11.8,0.6-16.4,5.4c-4.7,4.9-9.7,9.5-14.4,14.4C346.4,165.9,344.6,168.4,342.7,170.8z M92.3,535.5c-0.4,0.5-1,1-1.3,1.6
		c-4.8,10.1-9.7,20.2-14.3,30.4c-1.2,2.7-1.9,5.8-0.9,9c2.7,8.9,8.4,15.4,15.7,20.7c4.4,3.2,7.7,2.4,10.5-2.5
		c2.8-4.9,5.4-9.9,8-14.9c2.6-4.9,5-9.9,7.5-14.9c1.2-1.9,2.3-4,3.7-5.7c9.2-11.2,18.1-22.6,27.7-33.4c9.3-10.4,19.9-19.6,32-26.7
		c5.5-3.2,11.5-5.8,17.4-8.4c5.6-2.6,6.3-7.1,3.3-11.9c-3.5-5.6-8-10.3-13.5-14c-4.4-3-9.3-4-14.1-1.8c-7.6,3.4-15.5,6.6-22.4,11.2
		c-15.7,10.3-29,23.5-41.1,37.9c-1.3,1.6-2.7,3.1-3.9,4.7C101.8,522.9,97,529.2,92.3,535.5z M473.7,255.2c0.6-11-0.5-21.8-2.8-32.6
		c-2.3-10.9-6.7-20.7-14.2-28.8c-11.4-12.3-25.9-20.3-40.9-27.3c-4.1-1.9-8.4-1.5-11.9,1.7c-4.8,4.3-9.7,8.5-13.9,13.4
		c-4.9,5.5-9.1,11.7-13.6,17.5c-0.3,0.5-0.6,0.9-0.9,1.4c-0.3,0.4-0.5,0.8-0.8,1.2c-0.2,0.3-0.4,0.7-0.6,1c-0.3,0.5-0.7,1.1-1,1.6
		c-0.4,0.6-0.9,1.1-1.3,1.7c-8,13.2-15,27-20.5,41.5c-4.6,12-7.3,24.3-8,37.2c-0.5,10.4,2.5,18.8,11.3,24.9c5,3.5,7.1,8.1,5.9,14.6
		c-1.5,7.9-2.9,15.7-5.9,23.1c-5.9,14.7-14.2,28.2-22.4,41.8c-19.1,31.7-40.7,61.6-65.2,89.3c-8.2,9.2-17.7,16.7-28.6,22.6
		c-4.1,2.2-8.1,2.3-12.1,0.2c-2.3-1.2-4.6-2.3-6.8-3.6c-5.1-2.9-10.6-3-15.9-1.3c-20.4,6.4-36.5,19.3-50.8,34.8
		c-1.1,1.2-2.3,2.4-3.4,3.6c-0.8,0.9-1.7,1.8-2.5,2.7c-1.1,1.2-2.2,2.5-3.3,3.7c-0.3,0.3-0.5,0.6-0.8,0.9c-0.9,0.9-1.8,1.7-2.6,2.6
		c-4,5.1-8.1,10.1-11.8,15.3c-7.6,10.9-14,22.5-18.4,35.1c-2.1,6-1.2,11.1,3.8,15.2c7.9,6.3,15.7,12.9,23.9,18.8
		c15.5,11,32.7,14.1,51.2,10.2c15.7-3.3,30.4-9.4,44.4-16.8c8.1-4.3,15.8-9.3,23.7-14c1.6-1,3.2-1.8,4.7-3
		c10.3-7.9,20.7-15.7,30.8-23.9c7.5-6,14.8-12.2,21.8-18.8c22-20.6,41-43.9,59.5-67.5c21.3-27.2,38.6-57,54.8-87.5
		c14.1-26.4,25-54.1,33.2-82.9c2.4-8.4,4.4-17,6.4-25.5c1.1-4.7,1.6-9.5,2.3-14.2c0.7-5.2,1.3-10.4,1.9-15.6c0-1.1,0-2.1,0-3.2
		c0.2-1.4,0.4-2.8,0.5-4.2c0.1-1.6,0.2-3.2,0.4-4.8C473.7,256.6,473.7,255.9,473.7,255.2z"/>
	<path class="st1" d="M611.3,82.9c-203.8,0-407.6,0-611.3,0c0.1-0.2,0.2-0.5,0.3-0.5c0.7,0,1.4,0,2.1,0c202.2,0,404.4,0,606.6,0
		C609.8,82.4,610.5,82.7,611.3,82.9z"/>
	<path class="st2" d="M374,202.7c0.2-0.3,0.4-0.7,0.6-1c0.4-0.2,0.9-0.3,1.3-0.5c-0.2-0.3-0.4-0.5-0.6-0.8c0.3-0.5,0.6-0.9,0.9-1.4
		c1.1,0.1,2.2,0.2,3.3,0.3c-0.2,0.5-0.4,1-0.4,1.1c2,0.3,3.9,0.5,6.4,0.9c-1.9,1-3.1,1.6-4.1,2.1c2.5,2.8,4.7,5.4,6.9,7.9
		c0,0.2-0.1,0.4-0.2,0.5c-12,19.6-21.5,40.2-25.6,63c-1,5.5-1.3,11.4,1.8,16.4c2,3.2,4.7,6.2,7.5,8.7c6.5,5.7,10.3,12.3,9.6,21.3
		c-0.5,5.7,0.1,11.5-1.8,17c-1.3,3.8-2.8,7.6-4.5,11.3c-14.4,31-31.3,60.6-51.1,88.4c-17.7,24.9-37,48.4-58.6,70
		c-5.5,5.4-11.7,9.6-18.9,12.5c-6.1,2.5-12.4,4.4-19,1.8c-2.9-1.1-5.7-2.4-8.4-3.9c-5.9-3.2-12.1-3.6-18.2-1.2
		c-4.4,1.7-8.8,3.8-12.6,6.6c-6.5,4.7-12.5,10-18.8,15.1c-0.5,0.5-1.1,1-1.6,1.5c-0.2,0.2-0.4,0.4-0.6,0.6c-0.5,0.1-1.1,0.1-1.5,0.4
		c-2.9,2.3-5.9,4.4-8.6,7c-2.6,2.5-4.6-0.9-7-0.2c-0.2-1.2-0.4-2.4-0.6-3.5c-1.5,0.2-3.4,0.4-4.6,0.6c-1.1-1.5-1.7-2.4-2.4-3.4
		c0.3-0.3,0.5-0.6,0.8-0.9c3,0.7,3.3,0.3,3.3-3.7c0.8-0.9,1.7-1.8,2.5-2.7c2.6,0.2,3.6-1.1,3.4-3.6c14.3-15.5,30.3-28.4,50.8-34.8
		c5.3-1.7,10.8-1.6,15.9,1.3c2.2,1.3,4.5,2.4,6.8,3.6c4.1,2.1,8,2,12.1-0.2c10.9-5.8,20.4-13.3,28.6-22.6
		c24.5-27.7,46.1-57.7,65.2-89.3c8.2-13.5,16.4-27,22.4-41.8c3-7.4,4.4-15.3,5.9-23.1c1.2-6.5-0.8-11.1-5.9-14.6
		c-8.9-6.1-11.8-14.6-11.3-24.9c0.7-12.8,3.4-25.2,8-37.2c5.5-14.5,12.4-28.3,20.5-41.5c0.4-0.6,0.8-1.1,1.3-1.7
		C374.1,204.2,375.4,204.3,374,202.7z"/>
	<path class="st3" d="M472.7,269.5c-0.6,5.2-1.2,10.4-1.9,15.6c-0.7,4.8-1.2,9.5-2.3,14.2c-1.9,8.5-4,17.1-6.4,25.5
		c-8.2,28.7-19.2,56.5-33.2,82.9c-16.2,30.4-33.5,60.2-54.8,87.5c-18.5,23.7-37.6,46.9-59.5,67.5c-7,6.6-14.3,12.8-21.8,18.8
		c-10.1,8.1-20.5,16-30.8,23.9c-1.5,1.1-3.1,2-4.7,3c-0.5,0-1.1-0.1-1.5,0.1c-1.7,0.8-3.2,1.8-4.9,2.5c-2.2,0.9-5,1-6.7,2.5
		c-3.1,2.7-5.7,0.6-8.5,0c-3.2-0.8-6.3-1.9-9.7-2.9c0.1-0.3,0.5-1.4,0.8-1.4c0.8,0,1.6,0.5,2.9,0.9c-0.2-0.9-0.4-2.1-0.6-2.1
		c-1.2,0-2.4,0.1-3.5,0.5c-0.8,0.2-1.4,0.9-2.1,1.4c-0.8,0.5-1.7,1-3,1.8c-1.4-0.1-3.4-0.2-6-0.4c1.4-1.4,2.4-2.5,3.4-3.5
		c3.8-2,7.7-3.9,11.5-5.9c2.2,0.1,4-0.6,4.9-2.8c0.1-0.1,0.2-0.3,0.4-0.4c13.6-8.3,27.1-17,39.4-27.2c7.1-5.9,14.4-11.6,21.3-17.8
		c14.7-13.2,27.7-28,40.4-43.1c14.2-16.8,27.7-34.2,40-52.4c12.9-19.2,24.3-39.2,35.2-59.5c11.5-21.2,21.2-43.2,28-66.4
		c2.7-9.2,5.3-18.4,7.4-27.8c2.3-10.7,3.9-21.6,5.8-32.4c0.1-0.5,0.3-1.1,0.4-1.6c0-1.1,0.1-2.1,0.1-3.2c0.1-0.5,0.2-1.1,0.3-1.6
		c0.1-0.7,0.2-1.4,0.2-2.1c0.1-0.4,0.3-0.7,0.4-1.1c-0.1-1.1-0.3-2.1-0.4-3.2c2.4-1.4,2.5-2.2,0.5-3.7c0-4.1,0-8.1,0-12.2
		c1.1,0,2.4-0.3,3.1,0.2c3.2,2.1,4.2,1.9,4.8-2.1c1.5,1.1,2.8,1.9,3.9,3.1c1,1,1.8,2.2,2.2,3.5c0.1,0.3-1.7,1.2-3.1,2.1
		c0.8,0.5,1.6,1.4,2.4,1.5c1.4,0.1,2.9-0.3,4.3-0.5c-0.1,0.3-0.3,0.6-0.4,1c0.9,1,1.8,1.9,2.6,2.9c0,0.7,0,1.4-0.1,2.1
		c-0.6,0.8-1.7,1.5-1.7,2.3c-0.1,0.8,0.9,1.7,1.4,2.5c-0.2,1.4-0.4,2.8-0.5,4.2C471.2,267.4,470.1,268.4,472.7,269.5z M240,610.2
		c-1.9-0.8-2.9-1.5-4-1.8c-1.1-0.3-2.7-0.2-2.2,1.4c0.3,0.9,1.9,1.8,3,2C237.6,612,238.6,611,240,610.2z"/>
	<path class="st4" d="M92.3,535.5c4.8-6.3,9.5-12.6,14.3-18.9c1.2-1.6,2.6-3.2,3.9-4.7c12.1-14.4,25.4-27.5,41.1-37.9
		c6.9-4.6,14.8-7.8,22.4-11.2c4.8-2.2,9.7-1.2,14.1,1.8c5.5,3.7,10,8.4,13.5,14c3,4.8,2.3,9.4-3.3,11.9c-5.9,2.7-11.8,5.2-17.4,8.4
		c-12.1,7.1-22.7,16.2-32,26.7c-9.6,10.8-18.6,22.2-27.7,33.4c-1.4,1.8-2.5,3.8-3.7,5.7c-0.7,0.5-1.4,1.2-2.2,1.6
		c-0.8,0.4-1.8,1-2.5,0.7c-1.7-0.6-3.5-4.4-3.2-6.3c-0.7,0-1.4,0-1.4,0c-0.6-1.4-1.1-2.4-1.5-3.5c1.7-3,3.1-6.2,5.2-8.9
		c7.2-9.4,14.3-18.9,22.1-27.7c10.1-11.4,21.4-21.6,34.4-29.7c4.2-2.7,8.5-5.2,12.8-7.9c-2.5-4.3-4.7-5.1-8.9-3.5
		c-0.8,0.3-1.6,0.7-2.4,1.1c-10.6,4.8-19.9,11.5-28.2,19.5c-7.3,7-14.5,14.1-21.1,21.7c-5.6,6.4-10.2,13.7-15.2,20.6
		c-0.2,0.3-0.4,0.7-0.6,1c-0.3,0.5-0.6,1.1-1,1.6c-0.2,0.4-0.4,0.7-0.5,1.1c-0.7,1.4-1.5,2.8-2.2,4.2c-1-0.4-2.4-0.4-2.8-1.1
		c-1.3-1.9-2.6-1.7-4.2-0.5c-0.7-1.8-1.2-3.4-1.7-4.6c-1-0.4-2.3-0.8-2.3-0.9c0.2-1.1,0.5-2.8,1.2-3
		C94.3,539.3,93.2,537.5,92.3,535.5z"/>
	<path class="st5" d="M218.1,607.8c-1,1-2,2.1-3.4,3.5c2.5,0.2,4.6,0.3,6,0.4c1.3-0.8,2.2-1.2,3-1.8c0.7-0.4,1.3-1.1,2.1-1.4
		c1.1-0.4,2.3-0.5,3.5-0.5c0.2,0,0.3,1.2,0.6,2.1c-1.3-0.5-2.1-1-2.9-0.9c-0.3,0-0.6,1.1-0.8,1.4c3.4,1.1,6.5,2.2,9.7,2.9
		c2.8,0.7,5.4,2.8,8.5,0c1.7-1.5,4.5-1.6,6.7-2.5c1.7-0.7,3.2-1.7,4.9-2.5c0.4-0.2,1-0.1,1.5-0.1c-7.9,4.7-15.6,9.7-23.7,14
		c-14.1,7.4-28.7,13.5-44.4,16.8c-18.6,3.8-35.8,0.8-51.2-10.2c-8.2-5.9-16-12.4-23.9-18.8c-5.1-4.1-5.9-9.2-3.8-15.2
		c4.4-12.6,10.7-24.2,18.4-35.1c3.7-5.3,7.8-10.3,11.8-15.3c0.8-1,1.7-1.8,2.6-2.6c0.7,0.9,1.3,1.9,2.4,3.4c1.3-0.2,3.2-0.4,4.6-0.6
		c0.2,1.1,0.4,2.3,0.6,3.5c2.3-0.7,4.4,2.7,7,0.2c2.6-2.6,5.7-4.7,8.6-7c0.4-0.3,1-0.3,1.5-0.4c-4.8,5.1-9.7,10-14.3,15.2
		c-8.8,10.1-16.1,21.2-20.8,33.9c-1.6,4.4-0.8,8.1,2.6,10.9c6.7,5.4,13.4,11,20.5,15.8c5.3,3.5,11.5,5.3,18.1,4.9
		c8.1-0.4,15.8-2.7,23.3-5.4C204.1,613.6,211.1,610.6,218.1,607.8z"/>
	<path class="st3" d="M358.2,217c-3.8,8-7.7,15.9-11.2,23.9c-4.4,10-7.4,20.5-9.4,31.3c-0.6,3.1-0.5,6.3-0.6,9.5
		c-0.2,3.1-0.2,6.1-0.6,9.2c-0.4,4.1-4.1,6.6-8.9,5.6c-7.3-1.5-14.1-4.1-19.9-8.8c-3.8-3-5.5-7.1-5.7-12c-0.3-9,0.4-18,2.9-26.6
		c2.4-8.6,5.9-16.9,8.9-25.4c0.9-2.4,1.5-4.9,2.6-7.1c6.3-12,12.8-24,19.3-36c0.2-0.5,0.7-0.8,1-1.2c1.7,0.1,1.5-1.1,1.5-2.2
		c1-1.4,2-2.8,3.1-4.3c0.4-0.5,0.8-1,1.2-1.6c0.1-0.2,0.3-0.4,0.4-0.5c1.5-0.6,2.9-1.3,4.4-1.9c0.3,0.6,0.7,1.3,1,2
		c0.8-0.4,1.5-0.7,2.4-1.1c0.4,1.6,0.7,3,1,4.5c2.2,0.2,4,1.1,4.6,3.5l0,0c-1.7,0.1-2.3,1.1-2.2,2.7c-0.2,0.4-0.4,0.8-0.7,1.1
		c-10.1,13.4-18.8,27.6-24.9,43.2c-3,7.5-5.9,15.1-8.1,22.9c-1.7,5.8-2.4,12-3.4,18c-0.9,5.8,1.3,8.9,6.7,9.8
		c0.2-1.1,0.4-2.2,0.6-3.3c1.2-6,2.1-12.1,3.6-18.1c4.2-16.7,11.1-32.4,19.7-47.3c4.5-7.8,9.7-15.1,14.6-22.7
		c2.1,0.2,2.8-0.8,2.4-2.7l0,0c0.4-0.5,0.8-1,1.2-1.5c0.3-0.4,0.6-0.7,0.9-1.1c3.8,0.1,4.7-0.9,3.8-4.2c0.2-0.2,0.3-0.3,0.5-0.5
		c1.7,1.3,3.4,2.6,5.4,4.2c-0.9,0.2-1.6,0.5-2.4,0.5c-0.8,0-1.7-0.2-3-0.4c0.3,1,0.5,2.2,0.8,2.3c3.2,0.7,5.3,2.4,5.5,5.8
		c-5.3,8.6-10.7,17.2-16,25.8c-0.6,0.9-1.1,1.8-1.7,2.7c-0.8,0.2-1.7,0.5-2.5,0.7C357.3,216.1,357.8,216.6,358.2,217z M356.7,206.1
		c-0.6-1.3-1.9-1.9-2.4-0.7c-1,3-4.3,2.8-6.3,5.1c0.7,0.3,1.9,1,1.9,0.9c1.6-2,3.4-0.6,4.7-0.4c0.6-0.8,1-1.3,1.4-1.9
		c0.3,0.6,0.6,1.2,0.8,1.8c0.2,0.8,0.3,1.6,0.6,3c1.9-2.4,4.1-3.8,3-6.4C360.3,206.8,358.5,206.7,356.7,206.1z M350.9,204.9
		c-0.2,0.2-0.5,0.3-0.5,0.5c0,0.2,0.1,0.4,0.2,0.7c0.2-0.1,0.5-0.2,0.6-0.4C351.3,205.5,351,205.3,350.9,204.9z"/>
	<path class="st6" d="M473.7,255.2c-0.9-1-1.8-1.9-2.6-2.9c0.1-0.3,0.3-0.6,0.4-1c-1.4,0.2-2.9,0.6-4.3,0.5c-0.8-0.1-1.6-1-2.4-1.5
		c1.4-0.9,3.2-1.9,3.1-2.1c-0.4-1.3-1.3-2.5-2.2-3.5c-1.1-1.1-2.4-1.9-3.9-3.1c-0.6,4-1.6,4.2-4.8,2.1c-0.8-0.5-2.1-0.1-3.1-0.2
		c-0.5-5-1-10.1-1.6-15.1c-0.9-7.2-3-14-7.8-19.6c-7.8-9-18.2-14.4-28.8-19.3c-2.9-1.3-5.8-0.9-8.2,1.1c-2.1,1.7-4.3,3.4-6.1,5.4
		c-4.3,5-8.5,10.1-12.7,15.2c-2.2-2.5-4.4-5.1-6.9-7.9c1-0.5,2.2-1.1,4.1-2.1c-2.6-0.3-4.5-0.6-6.4-0.9c0-0.1,0.2-0.6,0.4-1.1
		c-1.1-0.1-2.2-0.2-3.3-0.3c4.5-5.9,8.7-12,13.6-17.5c4.2-4.8,9.2-9,13.9-13.4c3.5-3.2,7.8-3.6,11.9-1.7c15,7,29.5,15,40.9,27.3
		c7.5,8.1,12,17.9,14.2,28.8C473.2,233.4,474.3,244.2,473.7,255.2z"/>
	<path class="st7" d="M92.3,535.5c0.9,1.9,2,3.8-1.3,4.8c-0.7,0.2-0.9,1.9-1.2,3c0,0.1,1.3,0.5,2.3,0.9c0.4,1.2,1,2.8,1.7,4.6
		c1.6-1.2,2.9-1.4,4.2,0.5c0.5,0.7,1.9,0.8,2.8,1.1c-0.4,0.9-0.7,1.8-1.1,2.7c-2.3,5.4-4.9,10.7-7,16.3c-0.6,1.7-0.5,3.9,0.1,5.6
		c0.8,2.7,3.2,2.8,4.7,0.5c0.9-1.4,1.6-3,2.3-4.5c2.3-4.6,4.5-9.1,6.8-13.7c0.4,1,0.9,2,1.5,3.5c0,0,0.7,0,1.4,0
		c-0.3,2,1.5,5.7,3.2,6.3c0.7,0.2,1.7-0.3,2.5-0.7c0.8-0.4,1.4-1,2.2-1.6c-2.5,5-5,9.9-7.5,14.9c-2.6,5-5.2,10-8,14.9
		c-2.8,4.9-6,5.7-10.5,2.5c-7.3-5.3-13-11.8-15.7-20.7c-1-3.2-0.3-6.2,0.9-9c4.6-10.2,9.5-20.3,14.3-30.4
		C91.2,536.5,91.8,536.1,92.3,535.5z"/>
	<path class="st8" d="M377.1,186.5c-0.3-3.4-2.3-5.1-5.5-5.8c-0.4-0.1-0.5-1.2-0.8-2.3c1.4,0.2,2.2,0.5,3,0.4c0.8,0,1.5-0.3,2.4-0.5
		c-2-1.6-3.7-2.9-5.4-4.2c1.8-1.9,3.6-3.8,5.4-5.8c1.3-1.4,2.7-2.8,3.8-4.4c1.3-1.9,0.3-3.4-2-3.6c-2.4-0.2-4.6,0.5-6.3,2.2
		c-5.2,5.1-10.3,10.3-15.5,15.5c-0.6-2.4-2.3-3.3-4.6-3.5c-0.3-1.5-0.7-2.9-1-4.5c-0.9,0.4-1.6,0.7-2.4,1.1c-0.4-0.7-0.7-1.4-1-2
		c-1.5,0.6-3,1.3-4.4,1.9c1.9-2.4,3.6-5,5.8-7.2c4.7-4.9,9.8-9.4,14.4-14.4c4.6-4.8,10.1-6.3,16.4-5.4c7,1,13.5,3.3,19.2,7.6
		c3.5,2.7,4,5.3,1.4,8.9c-2.4,3.3-5.1,6.3-7.8,9.3C387.2,175.3,382.1,180.9,377.1,186.5z"/>
	<path class="st5" d="M147,537.3c0,4-0.3,4.3-3.3,3.7C144.8,539.7,145.9,538.5,147,537.3z"/>
	<path class="st6" d="M473.3,262.1c-0.5-0.8-1.4-1.7-1.4-2.5c0.1-0.8,1.1-1.5,1.7-2.3C473.5,258.9,473.4,260.5,473.3,262.1z"/>
	<path class="st5" d="M152.9,531c0.3,2.5-0.8,3.8-3.4,3.6C150.6,533.4,151.7,532.2,152.9,531z"/>
	<path class="st3" d="M358.2,217c-0.5-0.5-0.9-0.9-1.4-1.4c0.8-0.2,1.7-0.5,2.5-0.7C359,215.6,358.6,216.3,358.2,217z"/>
	<path class="st6" d="M472.7,269.5c-2.6-1.1-1.5-2.1,0-3.2C472.7,267.4,472.7,268.4,472.7,269.5z"/>
	<path class="st8" d="M338,177.2c0,1.1,0.2,2.3-1.5,2.2C337,178.7,337.5,177.9,338,177.2z"/>
	<path class="st6" d="M374,202.7c1.4,1.6,0.1,1.6-1,1.6C373.4,203.7,373.7,203.2,374,202.7z"/>
	<path class="st6" d="M375.4,200.4c0.2,0.3,0.4,0.5,0.6,0.8c-0.4,0.2-0.9,0.3-1.3,0.5C374.9,201.2,375.2,200.8,375.4,200.4z"/>
	<path class="st8" d="M342.3,171.4c-0.4,0.5-0.8,1-1.2,1.6C341.5,172.4,341.9,171.9,342.3,171.4z"/>
	<path class="st9" d="M388.5,211.3c4.2-5.1,8.3-10.3,12.7-15.2c1.8-2,4-3.7,6.1-5.4c2.5-2,5.4-2.4,8.2-1.1
		c10.6,4.9,20.9,10.3,28.8,19.3c4.9,5.6,6.9,12.4,7.8,19.6c0.6,5,1.1,10.1,1.6,15.1c0,4.1,0,8.1,0,12.2c-0.2,1.2-0.3,2.5-0.5,3.7
		c0.1,1.1,0.3,2.1,0.4,3.2c-0.1,0.4-0.3,0.7-0.4,1.1c-0.1,0.7-0.2,1.4-0.2,2.1c-0.1,0.5-0.2,1.1-0.3,1.6c0,1.1-0.1,2.1-0.1,3.2
		c-0.1,0.5-0.3,1.1-0.4,1.6c-1.9,10.8-3.5,21.7-5.8,32.4c-2,9.4-4.6,18.6-7.4,27.8c-6.8,23.2-16.5,45.2-28,66.4
		c-11,20.3-22.4,40.3-35.2,59.5c-12.3,18.3-25.8,35.6-40,52.4c-12.7,15.1-25.7,29.9-40.4,43.1c-6.9,6.2-14.1,11.9-21.3,17.8
		c-12.3,10.2-25.8,18.9-39.4,27.2c-0.1,0.1-0.2,0.2-0.4,0.4c-1.6,0.9-3.2,1.8-4.9,2.8c-3.8,2-7.7,3.9-11.5,5.9
		c-7,2.8-14,5.9-21.1,8.4c-7.5,2.7-15.2,4.9-23.3,5.4c-6.6,0.4-12.8-1.4-18.1-4.9c-7.2-4.8-13.8-10.3-20.5-15.8
		c-3.5-2.8-4.3-6.5-2.6-10.9c4.7-12.7,12-23.8,20.8-33.9c4.6-5.2,9.5-10.1,14.3-15.2c0.2-0.2,0.4-0.4,0.6-0.6c0.5-0.5,1.1-1,1.6-1.5
		c6.2-5.1,12.3-10.4,18.8-15.1c3.8-2.7,8.2-4.8,12.6-6.6c6.1-2.4,12.3-1.9,18.2,1.2c2.7,1.4,5.5,2.7,8.4,3.9
		c6.6,2.6,12.8,0.6,19-1.8c7.1-2.9,13.4-7,18.9-12.5c21.6-21.6,40.9-45.1,58.6-70c19.8-27.9,36.7-57.4,51.1-88.4
		c1.7-3.7,3.1-7.5,4.5-11.3c1.9-5.5,1.4-11.3,1.8-17c0.7-9-3.1-15.6-9.6-21.3c-2.9-2.5-5.5-5.5-7.5-8.7c-3.1-5-2.8-11-1.8-16.4
		c4.1-22.7,13.6-43.4,25.6-63C388.5,211.7,388.5,211.5,388.5,211.3z"/>
	<path class="st5" d="M169.8,538.8c-0.5,0.5-1.1,1-1.6,1.5C168.7,539.9,169.3,539.3,169.8,538.8z"/>
	<path class="st5" d="M240,610.2c-1.4,0.8-2.4,1.8-3.2,1.7c-1.1-0.2-2.7-1.1-3-2c-0.5-1.6,1.1-1.7,2.2-1.4
		C237.1,608.7,238.1,609.4,240,610.2z"/>
	<path class="st5" d="M229.6,601.9c1.6-0.9,3.2-1.8,4.9-2.8C233.6,601.3,231.8,601.9,229.6,601.9z"/>
	<path class="st6" d="M453.3,259.4c0.2-1.2,0.3-2.5,0.5-3.7C455.8,257.2,455.7,258.1,453.3,259.4z"/>
	<path class="st6" d="M452.8,267.4c0.1-0.5,0.2-1.1,0.3-1.6C453,266.3,452.9,266.8,452.8,267.4z"/>
	<path class="st6" d="M452.2,272.2c0.1-0.5,0.3-1.1,0.4-1.6C452.5,271.1,452.4,271.6,452.2,272.2z"/>
	<path class="st6" d="M453.3,263.7c0.1-0.4,0.3-0.7,0.4-1.1C453.6,263,453.4,263.3,453.3,263.7z"/>
	<path class="st10" d="M106.6,557.4c-2.3,4.6-4.5,9.1-6.8,13.7c-0.7,1.5-1.4,3.1-2.3,4.5c-1.5,2.3-3.9,2.2-4.7-0.5
		c-0.5-1.7-0.7-4-0.1-5.6c2.1-5.5,4.6-10.8,7-16.3c0.4-0.9,0.7-1.8,1.1-2.7c0.7-1.4,1.5-2.8,2.2-4.2c0.2-0.4,0.4-0.7,0.5-1.1
		c0.3-0.5,0.6-1.1,1-1.6c0.2-0.3,0.4-0.7,0.6-1c5-6.9,9.6-14.2,15.2-20.6c6.6-7.6,13.8-14.7,21.1-21.7c8.3-8,17.7-14.7,28.2-19.5
		c0.8-0.4,1.6-0.8,2.4-1.1c4.2-1.6,6.4-0.8,8.9,3.5c-4.3,2.6-8.5,5.2-12.8,7.9c-13,8.1-24.3,18.3-34.4,29.7
		c-7.8,8.9-14.9,18.4-22.1,27.7C109.7,551.2,108.3,554.4,106.6,557.4z"/>
	<path class="st7" d="M105.2,542.6c-0.2,0.3-0.4,0.7-0.6,1C104.8,543.3,105,543,105.2,542.6z"/>
	<path class="st7" d="M103.6,545.3c-0.2,0.4-0.4,0.7-0.5,1.1C103.2,546,103.4,545.6,103.6,545.3z"/>
	<path class="st10" d="M356.2,177.9c5.2-5.2,10.3-10.3,15.5-15.5c1.7-1.7,3.9-2.4,6.3-2.2c2.3,0.2,3.2,1.7,2,3.6
		c-1,1.6-2.5,3-3.8,4.4c-1.8,2-3.6,3.9-5.4,5.8c-0.2,0.2-0.3,0.3-0.5,0.5c-1.3,1.4-2.6,2.8-3.8,4.2c-0.3,0.4-0.6,0.7-0.9,1.1
		c-0.4,0.5-0.8,1-1.2,1.5c0,0,0,0,0,0c-0.8,0.9-1.6,1.8-2.4,2.7c-4.9,7.6-10.1,14.9-14.6,22.7c-8.5,14.9-15.4,30.6-19.7,47.3
		c-1.5,5.9-2.4,12-3.6,18.1c-0.2,1.1-0.4,2.2-0.6,3.3c-5.4-0.9-7.6-3.9-6.7-9.8c0.9-6,1.7-12.2,3.4-18c2.3-7.8,5.2-15.3,8.1-22.9
		c6.1-15.6,14.9-29.8,24.9-43.2c0.3-0.4,0.5-0.7,0.7-1.1C354.7,179.6,355.5,178.7,356.2,177.9C356.2,177.9,356.2,177.9,356.2,177.9z
		"/>
	<path class="st3" d="M356.7,206.1c1.8,0.6,3.6,0.7,3.9,1.4c1.1,2.6-1.1,4-3,6.4c-0.3-1.4-0.4-2.2-0.6-3c-0.2-0.6-0.5-1.2-0.8-1.8
		c-0.4,0.5-0.8,1.1-1.4,1.9c-1.3-0.2-3.1-1.6-4.7,0.4c-0.1,0.1-1.3-0.6-1.9-0.9c1.9-2.3,5.2-2.1,6.3-5.1
		C354.8,204.2,356.2,204.8,356.7,206.1z"/>
	<path class="st8" d="M366.6,178.8c1.3-1.4,2.6-2.8,3.8-4.2C371.3,177.8,370.3,178.9,366.6,178.8z"/>
	<path class="st8" d="M362.1,184.1c0.8-0.9,1.6-1.8,2.4-2.7C364.9,183.3,364.1,184.3,362.1,184.1z"/>
	<path class="st8" d="M356.2,177.9c-0.7,0.9-1.5,1.8-2.2,2.7C353.9,179,354.4,177.9,356.2,177.9z"/>
	<path class="st3" d="M350.9,204.9c0.1,0.3,0.4,0.6,0.3,0.7c-0.1,0.2-0.4,0.3-0.6,0.4c-0.1-0.2-0.2-0.5-0.2-0.7
		C350.4,205.3,350.7,205.1,350.9,204.9z"/>
	<path class="st8" d="M364.5,181.4c0.4-0.5,0.8-1,1.2-1.5C365.2,180.4,364.9,180.9,364.5,181.4z"/>
</g>
</svg>
