<?xml version="1.0" encoding="utf-8"?>
<!-- Generator: Adobe Illustrator 26.0.1, SVG Export Plug-In . SVG Version: 6.00 Build 0)  -->
<svg version="1.1" id="Layer_1" xmlns="http://www.w3.org/2000/svg" xmlns:xlink="http://www.w3.org/1999/xlink" x="0px" y="0px"
	 viewBox="0 0 1920 1080" style="enable-background:new 0 0 1920 1080;" xml:space="preserve">
<style type="text/css">
	.st0{display:none;}
	.st1{fill:#FEFEFE;}
</style>
<g>
	<path class="st0" d="M0,0c640,0,1280,0,1920,0c0,360,0,720,0,1080c-640,0-1280,0-1920,0C0,720,0,360,0,0z M1411.7,241.6
		c-0.9-8.9-1.6-17.8-2.6-26.6c-2.8-24-13.5-44.2-30.1-61.2c-11.5-11.8-23.6-23.1-35.9-34c-8.4-7.5-17.5-14.3-26.8-20.7
		c-6.7-4.6-14.5-6.8-22.5-2.4c-8.1,4.4-16.4,8.5-24.1,13.5c-14.8,9.7-28.6,20.8-41,33.5c-8.5,8.7-17.4,17.2-25.2,26.5
		c-12.6,15.2-24.8,30.8-36.7,46.5c-15.1,20-27.7,41.5-37.1,64.8c-3.5,8.8-7,17.7-9.6,26.8c-2.1,7.4-2.9,15.1-4.1,22.7
		c-2.2,13.2-0.3,25.3,9,35.7c3.8,4.2,7.2,8.8,10.4,13.4c4,5.8,7.5,12.3,5.2,19.3c-4.6,13.5-9.6,27-15.7,39.9
		c-8.9,18.7-21.5,35.2-34.8,50.8c-21.2,24.9-43.2,49.3-65.3,73.4c-11.5,12.6-23.9,24.5-36.1,36.5c-11,10.8-22,21.6-33.4,32
		c-15.1,13.7-30.4,27.3-46.2,40.2c-13.7,11.2-28.3,21.3-42.5,32c-13.8,10.5-29.6,17-45.6,23.1c-9.5,3.6-19.1,6.4-28.5-0.3
		c-4-2.8-7.7-6-11.8-8.7c-5.4-3.6-10.6-7.6-16.4-10.2c-9.8-4.3-20.3-2.8-30.4-0.9c-21,3.9-41.1,10.8-60.2,20.5
		c-16.1,8.1-31.5,17.5-46,28.1c-14.1,10.3-28.2,20.4-41.4,31.7c-18,15.4-35.2,31.7-50,50.4c-10.5,13.2-20.7,26.5-28.4,41.6
		c-5,9.8-4.9,19.2,1.7,28.5c13.2,18.7,28.6,35.4,44.6,51.8c10.6,10.9,21.6,21.4,35.1,28.4c15.1,8,31.8,11.7,48.9,12.7
		c8.9,0.5,17.9,0.4,26.9,0c8.1-0.3,16.2-0.7,24.1-2.2c18.1-3.5,36.1-7.4,54-11.8c21.9-5.3,43.4-12.3,64-21.6
		c22-9.9,43.9-20,65.5-30.7c16.2-8,32.1-16.7,47.7-26c15.6-9.3,30.9-19.3,45.8-29.7c18.6-12.9,37.1-25.9,54.9-39.9
		c20.1-15.8,39.6-32.4,58.8-49.2c20.7-18.1,41.2-36.6,61-55.6c13.1-12.6,24.9-26.4,37.2-39.8c9.4-10.2,18.9-20.4,27.9-31
		c13.6-16,27.1-32.2,39.9-48.8c14.6-18.8,29-37.7,42.4-57.4c12.9-19,24.6-38.7,36.3-58.4c9.2-15.5,18-31.2,26.1-47.3
		c7.5-14.8,13.8-30.2,20.6-45.3c9.9-21.9,18.3-44.4,23.9-67.8c3.3-13.8,6.8-27.6,9.9-41.4C1409.2,278.8,1411.2,260.4,1411.7,241.6z
		 M1286.1,83.8c-2.7-2.3-4.6-4.4-6.8-5.6c-13.5-7.2-27-14.7-40.9-21.1c-8.6-3.9-18.2-4.8-26.6,0.5c-12.1,7.8-23.9,16.1-35.4,24.8
		c-6.8,5.1-13.2,10.9-19.1,17.1c-18.2,19-35.8,38.7-50.7,60.5c-12.9,18.9-25.6,38-37.6,57.4c-10.1,16.3-15.5,34.6-19.9,53.2
		c-2.5,10.4-1,20.2,6.2,28.1c12.3,13.6,28,23.1,43.7,32.3c3.8,2.2,5.9,0.8,6.9-3c1.3-5.3,2.2-10.7,3.5-16
		c3.9-15.8,7.4-31.8,15.3-46.1c8.8-15.9,17.9-31.7,27.9-46.8c9-13.6,19.3-26.3,29.1-39.4c14.1-19,29.9-36.7,47.7-52
		c16.5-14.2,34.7-26.4,52.1-39.5C1283.1,86.8,1284.5,85.3,1286.1,83.8z M462.7,816.2c0.5,0.2,0.9,0.3,1.4,0.5c0,1.5-0.2,3,0.1,4.5
		c0.4,1.7,1.2,3.3,1.8,5.1c5.2,16.8,15.1,31.1,24,46c2.3,3.8,5.4,3.8,7.9,0.3c5.1-7.2,9.9-14.6,15.3-21.6
		c9.4-12.3,18.6-24.8,29-36.2c9.5-10.4,20-20,30.8-29.1c14.2-12,28.7-23.6,43.7-34.6c12.2-8.9,24.9-17.2,37.9-24.7
		c11.4-6.6,23.1-13.2,35.5-17.6c15.4-5.4,31.5-8.7,47.4-12.7c4.7-1.2,5.8-3,3.4-7.3c-2.1-3.8-4.3-7.7-7-11.2
		c-8.1-10.7-16-21.5-24.8-31.6c-4.8-5.5-12.3-8.2-19.4-7.6c-14.8,1.4-29.2,5.5-43,11.4c-19.3,8.3-37.4,18.9-54.4,31.2
		c-15.7,11.3-31.7,22.2-46.7,34.4c-17.5,14.1-34.6,28.8-48.7,46.4c-9.5,11.9-18.8,23.9-27.3,36.5
		C466.1,803.4,464.9,810.2,462.7,816.2z"/>
	<path class="st1" d="M1411.7,241.6c-0.5,18.8-2.6,37.2-6.6,55.4c-3.1,13.8-6.6,27.6-9.9,41.4c-5.6,23.4-14,45.9-23.9,67.8
		c-6.8,15.1-13.2,30.5-20.6,45.3c-8.1,16.1-16.9,31.8-26.1,47.3c-11.7,19.7-23.5,39.5-36.3,58.4c-13.4,19.6-27.8,38.6-42.4,57.4
		c-12.9,16.6-26.4,32.7-39.9,48.8c-9,10.6-18.5,20.8-27.9,31c-12.3,13.4-24.2,27.2-37.2,39.8c-19.8,19.1-40.3,37.5-61,55.6
		c-19.2,16.8-38.7,33.4-58.8,49.2c-17.8,14-36.3,27-54.9,39.9c-15,10.4-30.2,20.4-45.8,29.7c-15.5,9.3-31.5,17.9-47.7,26
		c-21.6,10.7-43.5,20.8-65.5,30.7c-20.6,9.3-42.1,16.3-64,21.6c-17.9,4.3-35.9,8.3-54,11.8c-7.9,1.5-16.1,1.9-24.1,2.2
		c-8.9,0.4-17.9,0.5-26.9,0c-17.1-0.9-33.8-4.7-48.9-12.7c-13.4-7-24.5-17.6-35.1-28.4c-15.9-16.3-31.3-33.1-44.6-51.8
		c-6.5-9.2-6.7-18.7-1.7-28.5c7.7-15.1,17.9-28.4,28.4-41.6c14.8-18.7,32-35,50-50.4c13.2-11.3,27.4-21.5,41.4-31.7
		c14.6-10.6,29.9-20,46-28.1c19.1-9.6,39.1-16.6,60.2-20.5c10.1-1.9,20.6-3.4,30.4,0.9c5.8,2.6,11.1,6.6,16.4,10.2
		c4,2.7,7.8,5.9,11.8,8.7c9.4,6.7,19,3.9,28.5,0.3c16-6.1,31.8-12.6,45.6-23.1c14.1-10.7,28.7-20.8,42.5-32
		c15.8-12.9,31.1-26.5,46.2-40.2c11.4-10.3,22.4-21.1,33.4-32c12.2-12,24.6-23.9,36.1-36.5c22.1-24.2,44-48.5,65.3-73.4
		c13.3-15.7,26-32.1,34.8-50.8c6.1-12.9,11.1-26.4,15.7-39.9c2.3-6.9-1.2-13.5-5.2-19.3c-3.2-4.7-6.7-9.2-10.4-13.4
		c-9.3-10.4-11.2-22.5-9-35.7c1.3-7.6,2-15.3,4.1-22.7c2.6-9.1,6-18,9.6-26.8c9.4-23.3,21.9-44.9,37.1-64.8
		c11.9-15.7,24.1-31.3,36.7-46.5c7.8-9.3,16.7-17.8,25.2-26.5c12.4-12.7,26.2-23.8,41-33.5c7.7-5,16-9.1,24.1-13.5
		c8-4.4,15.7-2.2,22.5,2.4c9.3,6.4,18.4,13.2,26.8,20.7c12.3,10.9,24.4,22.2,35.9,34c16.6,17,27.4,37.3,30.1,61.2
		C1410.1,223.9,1410.9,232.8,1411.7,241.6z"/>
	<path class="st1" d="M1286.1,83.8c-1.6,1.5-3,3-4.6,4.2c-17.4,13.1-35.6,25.3-52.1,39.5c-17.9,15.4-33.6,33-47.7,52
		c-9.7,13.1-20.1,25.8-29.1,39.4c-10,15.2-19.1,31-27.9,46.8c-8,14.3-11.4,30.4-15.3,46.1c-1.3,5.3-2.2,10.7-3.5,16
		c-0.9,3.7-3.1,5.2-6.9,3c-15.7-9.2-31.3-18.6-43.7-32.3c-7.2-7.9-8.7-17.7-6.2-28.1c4.4-18.6,9.8-36.9,19.9-53.2
		c12-19.5,24.7-38.5,37.6-57.4c14.9-21.8,32.5-41.4,50.7-60.5c5.9-6.2,12.3-11.9,19.1-17.1c11.5-8.7,23.3-17,35.4-24.8
		c8.4-5.4,18.1-4.5,26.6-0.5c13.9,6.4,27.3,13.9,40.9,21.1C1281.6,79.5,1283.4,81.5,1286.1,83.8z"/>
	<path class="st1" d="M462.7,816.2c2.2-6.1,3.3-12.9,6.8-18c8.5-12.6,17.8-24.6,27.3-36.5c14.1-17.7,31.3-32.3,48.7-46.4
		c15-12.1,31-23.1,46.7-34.4c17.1-12.3,35.1-22.9,54.4-31.2c13.8-5.9,28.1-10,43-11.4c7-0.6,14.6,2.1,19.4,7.6
		c8.8,10.1,16.7,20.9,24.8,31.6c2.6,3.5,4.8,7.4,7,11.2c2.4,4.3,1.3,6.1-3.4,7.3c-15.9,4-32,7.3-47.4,12.7
		c-12.4,4.4-24.1,10.9-35.5,17.6c-13,7.6-25.7,15.8-37.9,24.7c-15,11-29.5,22.6-43.7,34.6c-10.8,9.1-21.3,18.7-30.8,29.1
		c-10.4,11.4-19.6,24-29,36.2c-5.4,7-10.2,14.4-15.3,21.6c-2.5,3.5-5.6,3.5-7.9-0.3c-8.8-14.9-18.7-29.2-24-46
		c-0.5-1.7-1.4-3.3-1.8-5.1c-0.3-1.4-0.1-3-0.1-4.5C463.7,816.5,463.2,816.4,462.7,816.2z"/>
</g>
</svg>
