<?xml version="1.0" encoding="utf-8"?>
<!-- Generator: Adobe Illustrator 26.0.1, SVG Export Plug-In . SVG Version: 6.00 Build 0)  -->
<svg version="1.1" id="Layer_1" xmlns="http://www.w3.org/2000/svg" xmlns:xlink="http://www.w3.org/1999/xlink" x="0px" y="0px"
	 viewBox="0 0 612 792" style="enable-background:new 0 0 612 792;" xml:space="preserve">
<style type="text/css">
	.st0{display:none;}
	.st1{fill:#FFFFFF;}
</style>
<g>
	<path class="st0" d="M612.5,139.9c0,171,0,342.1,0,513.1c-204.2,0-408.3,0-612.5,0c0-171,0-342.1,0-513.1
		C204.2,139.9,408.3,139.9,612.5,139.9z M409.4,604.1c16.1-0.4,27.3-0.6,38.4-1.1c10.4-0.5,20.6-1.9,30.6-5.1
		c14.7-4.7,24.3-14.2,29.1-28.9c3-9.3,4.6-18.8,5-28.4c0.6-14.9,0.9-29.7,0.9-44.6c0.1-14.5-0.3-29-2.8-43.3
		c-1.5-8.6-3.9-16.9-8.7-24.4c-6.2-9.7-15.5-14.8-26.2-17.9c-11.6-3.4-23.6-4.5-35.7-4.7c-17.1-0.3-34.2-0.3-51.3,0
		c-12.1,0.2-24.2,1.4-35.9,4.6c-16.4,4.5-27.4,14.4-32.4,30.9c-3.1,10.2-4.7,20.6-4.9,31.1c-0.4,19.8-0.4,39.6-0.2,59.3
		c0.1,12,1.4,23.8,4.9,35.4c3.8,12.8,10.9,22.8,23.5,28.5c8.2,3.7,16.8,5.8,25.6,6.5C384.2,603.1,399.3,603.6,409.4,604.1z
		 M414.4,386.4c0-0.2,0-0.3,0-0.5c5.5,0,11.1,0,16.6,0c14.4-0.1,28.8-0.8,42.9-4.4c18-4.5,29.7-15.3,34.6-33.4
		c2.8-10.6,4.1-21.4,4.5-32.4c0.4-13.7,0.7-27.4,0.4-41.1c-0.3-12.2-1.2-24.5-2.3-36.7c-0.7-7.9-3-15.5-6.5-22.7
		c-5.9-12.3-16.1-18.9-28.7-22.6c-10.9-3.2-22.1-4.4-33.3-4.6c-24.4-0.6-48.8-1.3-73.1,1.3c-8,0.9-15.7,2.6-23.3,5.5
		c-14.1,5.4-22.1,16-26.2,30.1c-3.8,13.4-4.9,27.1-4.9,40.9c-0.1,19.4,0.3,38.8,0.8,58.1c0.3,9.8,2.1,19.5,5.4,28.8
		c4.4,12.5,12.6,21.4,25,26.2c9.2,3.6,18.9,5.4,28.7,6C388.1,385.7,401.3,385.9,414.4,386.4z M98.9,286.7c0.1,0,0.3,0,0.4,0
		c0,7-0.1,13.9,0,20.9c0.2,13.8,1.1,27.5,4.8,40.9c4.4,16.1,14.2,26.9,30.4,31.9c13.2,4.1,26.7,5.2,40.3,5.5
		c14.2,0.3,28.5,0.2,42.7,0.1c13.6-0.1,27.2-1,40.5-4.3c17.4-4.4,29.3-14.5,34.3-32.2c2.7-9.6,4.3-19.5,4.6-29.4
		c0.4-14.9,0.6-29.9,0.6-44.8c0-16.1-0.4-32.1-4.4-47.8c-4.2-16.7-13.7-28.5-30.6-33.8c-12-3.8-24.3-5.3-36.7-5.4
		c-20.8-0.2-41.7,0-62.5,0.4c-9.6,0.2-19,1.8-28.3,4.6c-14.2,4.4-24.3,13-29.4,27.3c-3.7,10.3-5.3,21-5.8,31.8
		C99.4,263.7,99.3,275.2,98.9,286.7z M98.9,499.2c0.4,14.5,0.5,27.5,1.1,40.5c0.4,8.8,1.6,17.6,4.1,26.2c3.3,11.3,8.7,21,19.2,27.2
		c6.8,4,14.3,6.2,22,7.7c12.3,2.3,24.7,2.9,37.1,2.9c21.2,0,42.5,0.9,63.6-2c8.1-1.1,16-3,23.5-6.5c13.5-6.2,20.2-17.4,23.7-31.1
		c3.2-12.3,4.1-24.8,4.2-37.4c0.2-14.6,0.2-29.3,0-43.9c-0.2-12.7-1.1-25.3-4.2-37.6c-4.5-18.3-15.5-30.1-33.9-34.9
		c-12.1-3.2-24.5-4.4-36.9-4.5c-19.2-0.2-38.5,0-57.7,0.5c-11.4,0.3-22.7,2.1-33.5,6.1c-10.8,4.1-18.9,11-23.7,21.6
		c-4.4,9.6-6.4,19.7-7.1,30.1C99.6,476.2,99.4,488.5,98.9,499.2z"/>
	<path class="st1" d="M612.5,139.9c-204.2,0-408.3,0-612.5,0c0.1-0.2,0.2-0.4,0.2-0.5c0.6,0,1.3,0,1.9,0c202.7,0,405.5,0,608.2,0
		C611.1,139.4,611.8,139.7,612.5,139.9z"/>
	<path class="st1" d="M409.4,604.1c-10.1-0.5-25.2-1-40.2-2.1c-8.8-0.7-17.5-2.8-25.6-6.5c-12.5-5.6-19.7-15.7-23.5-28.5
		c-3.4-11.5-4.8-23.4-4.9-35.4c-0.2-19.8-0.2-39.6,0.2-59.3c0.2-10.5,1.8-20.9,4.9-31.1c5-16.5,16-26.4,32.4-30.9
		c11.8-3.2,23.8-4.4,35.9-4.6c17.1-0.3,34.2-0.3,51.3,0c12,0.2,24,1.3,35.7,4.7c10.7,3.1,20.1,8.2,26.2,17.9
		c4.8,7.5,7.2,15.8,8.7,24.4c2.5,14.3,2.8,28.8,2.8,43.3c-0.1,14.9-0.3,29.8-0.9,44.6c-0.4,9.6-2,19.2-5,28.4
		c-4.7,14.7-14.4,24.2-29.1,28.9c-10,3.2-20.2,4.6-30.6,5.1C436.7,603.5,425.5,603.6,409.4,604.1z M414.1,573.8c0-0.2,0-0.4,0-0.6
		c5.3,0,10.6,0.1,15.9,0c8.9-0.3,17.9-0.9,26.6-3.2c11.4-3.1,19.1-10,22.5-21.5c2.4-8.3,3.4-16.7,3.5-25.3c0.2-12.3,0.2-24.7,0-37
		c-0.2-8.7-1-17.3-3.6-25.7c-3.2-10.5-9.9-17.7-20.5-20.5c-6.5-1.7-13.3-3-20-3.4c-10.7-0.7-21.4-0.6-32.1-0.6
		c-10.3-0.1-20.6,0.3-30.7,2.4c-11,2.3-20.2,7-24.9,18c-2.8,6.5-4.2,13.3-4.6,20.2c-0.6,10.2-0.9,20.4-0.9,30.6
		c-0.1,11.8,0,23.6,2.3,35.2c2,9.9,5.7,18.8,15.1,24.1c5.6,3.2,11.7,4.9,18.1,5.4C391.8,572.7,403,573.2,414.1,573.8z"/>
	<path class="st1" d="M414.4,386.4c-13.1-0.5-26.3-0.7-39.4-1.5c-9.8-0.6-19.4-2.4-28.7-6c-12.5-4.8-20.7-13.7-25-26.2
		c-3.3-9.3-5.1-19-5.4-28.8c-0.5-19.4-0.9-38.8-0.8-58.1c0-13.8,1.1-27.5,4.9-40.9c4.1-14.1,12.1-24.7,26.2-30.1
		c7.5-2.9,15.3-4.6,23.3-5.5c24.3-2.6,48.7-1.9,73.1-1.3c11.2,0.3,22.4,1.5,33.3,4.6c12.6,3.7,22.9,10.3,28.7,22.6
		c3.4,7.2,5.7,14.8,6.5,22.7c1.1,12.2,2,24.4,2.3,36.7c0.3,13.7,0,27.4-0.4,41.1c-0.3,10.9-1.6,21.7-4.5,32.4
		c-4.9,18.1-16.6,28.9-34.6,33.4c-14.1,3.5-28.5,4.2-42.9,4.4c-5.5,0.1-11.1,0-16.6,0C414.4,386.1,414.4,386.3,414.4,386.4z
		 M414.1,356.2c0-0.2,0-0.3,0-0.5c3.2,0,6.5,0.1,9.7,0c11-0.2,22-0.5,32.8-3.4c11.3-3,19.3-9.8,22.3-21.3c1.5-5.9,2.9-11.9,3.2-17.9
		c0.6-15.1,0.7-30.2,0.5-45.3c-0.1-8.6-1-17.2-3.7-25.5c-3-9.1-8.6-15.7-17.7-19.2c-6.8-2.6-13.9-4-21.1-4.2
		c-14.3-0.5-28.7-0.8-43-0.4c-8.1,0.2-16.3,1.3-24.2,2.9c-12.8,2.6-21.2,10.4-24.2,23.3c-1.5,6.3-2.7,12.7-2.9,19.2
		c-0.4,14.8-0.5,29.6-0.1,44.4c0.2,7.4,1.6,14.8,3.2,22c2.1,8.9,7,16.1,15.7,19.6c5.3,2.1,11,3.9,16.6,4.5
		C392.2,355.3,403.2,355.5,414.1,356.2z"/>
	<path class="st1" d="M98.9,286.7c0.3-11.5,0.5-22.9,1.1-34.4c0.6-10.8,2.1-21.5,5.8-31.8c5.1-14.2,15.2-22.9,29.4-27.3
		c9.2-2.8,18.7-4.4,28.3-4.6c20.8-0.4,41.7-0.7,62.5-0.4c12.4,0.1,24.8,1.6,36.7,5.4c16.9,5.3,26.4,17.1,30.6,33.8
		c3.9,15.7,4.4,31.8,4.4,47.8c0,14.9-0.2,29.9-0.6,44.8c-0.3,10-1.9,19.8-4.6,29.4c-5,17.7-16.8,27.8-34.3,32.2
		c-13.3,3.3-26.9,4.2-40.5,4.3c-14.2,0.1-28.5,0.2-42.7-0.1c-13.6-0.3-27.1-1.4-40.3-5.5c-16.2-5-26-15.8-30.4-31.9
		c-3.7-13.4-4.6-27.1-4.8-40.9c-0.1-7,0-13.9,0-20.9C99.2,286.7,99.1,286.7,98.9,286.7z M129.7,286.9c0,4.1,0,8.2,0,12.4
		c0.1,9.5,0.7,19,2.8,28.3c3,13.3,10.9,22,24.3,24.9c6.4,1.4,12.9,2.4,19.5,2.7c10.8,0.5,21.7,0.6,32.5,0.5
		c10.6,0,21.2-0.5,31.6-3.2c11.6-3,19.7-9.8,22.9-21.6c1.3-5,2.6-10.2,2.9-15.3c0.6-13.6,0.9-27.2,0.9-40.8c0-9.4-0.5-18.8-2.7-28
		c-2.2-9.2-6.2-17.1-15-21.7c-5.4-2.9-11.3-4.3-17.4-5.2c-12.3-1.8-24.7-1.4-37-1.5c-11,0-22,0-32.9,1.9c-7.4,1.3-14.5,3.4-20.2,8.7
		c-6.3,5.8-8.8,13.6-10.3,21.7C129.5,262.5,129.7,274.7,129.7,286.9z"/>
	<path class="st1" d="M98.9,499.2c0.5-10.7,0.7-23,1.6-35.2c0.7-10.4,2.7-20.5,7.1-30.1c4.8-10.6,12.9-17.6,23.7-21.6
		c10.8-4.1,22.1-5.8,33.5-6.1c19.2-0.5,38.5-0.6,57.7-0.5c12.4,0.1,24.8,1.4,36.9,4.5c18.5,4.8,29.4,16.6,33.9,34.9
		c3.1,12.4,4,25,4.2,37.6c0.2,14.6,0.2,29.3,0,43.9c-0.2,12.6-1.1,25.1-4.2,37.4c-3.6,13.7-10.3,24.9-23.7,31.1
		c-7.5,3.4-15.4,5.4-23.5,6.5c-21.1,2.9-42.4,2-63.6,2c-12.4,0-24.9-0.6-37.1-2.9c-7.7-1.5-15.2-3.7-22-7.7
		c-10.5-6.2-15.9-15.9-19.2-27.2c-2.5-8.6-3.7-17.3-4.1-26.2C99.4,526.7,99.3,513.7,98.9,499.2z M198.3,435.3c0,0.2,0,0.4,0,0.6
		c-4,0-8.1-0.2-12.1,0c-8.8,0.6-17.5,1.1-26.2,2.4c-8.4,1.3-16,4.6-21.3,11.7c-4.6,6.2-6.4,13.5-7.5,21c-2,13.9-1.4,28-1.4,42
		c0,10.9,0.3,21.7,2.9,32.3c2.7,11.5,8.8,20.3,20.6,23.6c6.7,1.9,13.6,3.3,20.5,3.7c12.9,0.7,25.8,0.6,38.7,0.6
		c9.7,0,19.3-0.7,28.7-3.3c10.8-3,18.5-9.3,22-20.2c2.3-7,3.4-14.1,3.7-21.4c0.4-11,0.5-22,0.5-33c0-9.7-0.3-19.5-2.3-29
		c-2.2-10.3-6.2-19.6-16.4-24.1c-5.3-2.3-11.1-4.1-16.8-4.7C220.7,436.2,209.5,435.9,198.3,435.3z"/>
	<path class="st0" d="M414.1,573.8c-11.1-0.7-22.3-1.1-33.4-2.1c-6.3-0.5-12.5-2.3-18.1-5.4c-9.4-5.3-13.1-14.1-15.1-24.1
		c-2.3-11.6-2.3-23.5-2.3-35.2c0.1-10.2,0.4-20.4,0.9-30.6c0.4-7,1.8-13.8,4.6-20.2c4.7-11,13.9-15.7,24.9-18
		c10.1-2.1,20.4-2.4,30.7-2.4c10.7,0.1,21.4,0,32.1,0.6c6.7,0.4,13.5,1.7,20,3.4c10.6,2.8,17.3,10,20.5,20.5
		c2.6,8.4,3.5,17,3.6,25.7c0.2,12.3,0.2,24.7,0,37c-0.1,8.5-1.1,17-3.5,25.3c-3.4,11.5-11.1,18.4-22.5,21.5
		c-8.7,2.4-17.6,3-26.6,3.2c-5.3,0.2-10.6,0-15.9,0C414.1,573.4,414.1,573.6,414.1,573.8z"/>
	<path class="st0" d="M414.1,356.2c-10.9-0.6-21.8-0.9-32.7-2.1c-5.6-0.6-11.3-2.4-16.6-4.5c-8.7-3.5-13.7-10.7-15.7-19.6
		c-1.7-7.2-3-14.6-3.2-22c-0.5-14.8-0.4-29.6,0.1-44.4c0.2-6.4,1.4-12.9,2.9-19.2c3-12.8,11.4-20.7,24.2-23.3
		c8-1.6,16.1-2.7,24.2-2.9c14.3-0.3,28.7,0,43,0.4c7.2,0.2,14.3,1.6,21.1,4.2c9.1,3.5,14.7,10.1,17.7,19.2
		c2.7,8.3,3.7,16.9,3.7,25.5c0.1,15.1,0,30.2-0.5,45.3c-0.2,6-1.6,12.1-3.2,17.9c-3,11.5-11,18.3-22.3,21.3
		c-10.7,2.9-21.7,3.2-32.8,3.4c-3.2,0.1-6.5,0-9.7,0C414.1,355.8,414.1,356,414.1,356.2z"/>
	<path class="st0" d="M129.7,286.9c0-12.2-0.3-24.4,1.9-36.5c1.5-8.1,3.9-15.9,10.3-21.7c5.7-5.2,12.8-7.3,20.2-8.7
		c10.9-2,21.9-2,32.9-1.9c12.4,0,24.7-0.3,37,1.5c6.1,0.9,12,2.3,17.4,5.2c8.8,4.6,12.8,12.6,15,21.7c2.2,9.2,2.8,18.6,2.7,28
		c-0.1,13.6-0.3,27.2-0.9,40.8c-0.2,5.1-1.5,10.3-2.9,15.3c-3.2,11.8-11.3,18.6-22.9,21.6c-10.4,2.7-21,3.2-31.6,3.2
		c-10.9,0-21.7,0-32.5-0.5c-6.5-0.3-13.1-1.3-19.5-2.7c-13.5-2.9-21.3-11.6-24.3-24.9c-2.1-9.3-2.7-18.8-2.8-28.3
		C129.7,295.1,129.7,291,129.7,286.9z"/>
	<path class="st0" d="M198.3,435.3c11.1,0.7,22.3,0.9,33.4,2.1c5.7,0.6,11.5,2.4,16.8,4.7c10.3,4.5,14.3,13.8,16.4,24.1
		c2,9.6,2.3,19.3,2.3,29c0,11-0.1,22-0.5,33c-0.3,7.3-1.4,14.4-3.7,21.4c-3.6,10.9-11.2,17.3-22,20.2c-9.4,2.6-19,3.2-28.7,3.3
		c-12.9,0-25.8,0.1-38.7-0.6c-6.9-0.4-13.8-1.8-20.5-3.7c-11.8-3.3-17.9-12.1-20.6-23.6c-2.5-10.6-2.9-21.5-2.9-32.3
		c0-14-0.6-28,1.4-42c1.1-7.5,2.9-14.8,7.5-21c5.3-7.1,12.9-10.5,21.3-11.7c8.7-1.3,17.5-1.8,26.2-2.4c4-0.3,8.1,0,12.1,0
		C198.3,435.7,198.3,435.5,198.3,435.3z"/>
</g>
</svg>
