<?xml version="1.0" encoding="utf-8"?>
<!-- Generator: Adobe Illustrator 26.0.1, SVG Export Plug-In . SVG Version: 6.00 Build 0)  -->
<svg version="1.1" id="Layer_1" xmlns="http://www.w3.org/2000/svg" xmlns:xlink="http://www.w3.org/1999/xlink" x="0px" y="0px"
	 viewBox="0 0 1920 1080" style="enable-background:new 0 0 1920 1080;" xml:space="preserve">
<style type="text/css">
	.st0{display:none;fill:#CDCDCD;}
	.st1{fill:#0E1117;}
</style>
<g>
	<path class="st0" d="M1920,1080c-640,0-1279.9,0-1920,0C0,720.1,0,360.1,0,0c639.9,0,1280,0,1920,0C1920,359.9,1920,720,1920,1080z
		 M1360.7,337.5c-0.2,0-0.4,0-0.6,0c0-14.8,0.3-29.7-0.1-44.5c-0.7-25.7-2.9-51.2-13.8-75c-10.6-23.2-27.4-40.2-50.2-51.3
		c-23.8-11.5-49.5-14.3-75.3-14.6c-36.1-0.4-72.3-0.1-108.4,0.9c-27.6,0.8-54.1,7.1-77.9,21.9c-11.4,7.1-21.1,16.1-28.9,27.1
		c-15.4,21.9-21.1,46.9-22.2,73c-1.2,27.9-1.2,55.9-1.3,83.9c-0.1,27.5,0.1,55,8,81.7c7.3,24.6,21.2,44.6,43,58.6
		c22.8,14.7,48.5,21.7,75.2,22.4c43.8,1.2,87.6,0.7,131.4,0.1c16.3-0.2,32.3-3.9,47.7-9.8c20.1-7.7,36.8-19.9,49.2-37.6
		c15.1-21.7,21.1-46.5,22.6-72.4C1360.1,380.5,1360.1,359,1360.7,337.5z M981.2,742.1c0.3,0,0.5,0,0.8,0c0,8.7-0.1,17.3,0,26
		c0.3,26.3,0.6,52.6,8.2,78.2c5.5,18.4,14.9,34.6,29.2,47.5c19.2,17.3,42.4,26.8,67.8,30.3c18.3,2.5,36.8,3.9,55.2,3.9
		c37.6,0.1,75.3,2.2,112.8-2.8c21.1-2.8,40.9-9.5,58.1-22.1c24.8-18.2,38.3-43.7,42.7-73.5c2.9-19.8,4-40.1,4.1-60.2
		c0.2-36.1,2.1-72.3-2.9-108.3c-2.9-20.6-9.3-39.9-21.6-56.8c-18.2-25-43.9-38-73.8-43.4c-23.2-4.2-46.7-4.4-70.2-4
		c-30.5,0.5-61,0.6-91.4,2.3c-23.3,1.3-45.4,8.2-65.5,20.6c-11.4,7.1-21.2,16-29,27c-13.7,19.3-19.9,41.3-21.6,64.5
		C982.4,694.8,982.1,718.4,981.2,742.1z M764,523.6c0-0.2,0-0.4,0-0.6c12.5,0,25,0.3,37.5-0.1c24.8-0.8,49.5-2.8,72.7-13
		c24.8-10.9,42.8-28.5,54.2-53.3c9.7-21.2,12.9-43.7,13.4-66.5c0.7-33.3,0.7-66.6,0.2-99.9c-0.3-24.2-3-48.1-12.9-70.7
		c-8-18.1-19.8-33.1-36-44.3c-22.2-15.3-47.6-21.4-74-22.3c-35.6-1.1-71.3-1.3-106.9-1c-25.5,0.2-50.8,2.8-74.5,13.6
		c-30.1,13.7-48.9,37-58.5,68.1c-5.9,19.1-7.6,38.9-7.7,58.7c-0.2,35.5,0,70.9,0.8,106.4c0.4,18.1,3.8,36,10.8,53
		c7.8,19.3,19.8,35.4,36.8,47.4c22.1,15.4,47.4,21.4,73.9,22.7C717,523,740.5,523.1,764,523.6z M769.6,928.8c16.6-0.8,39-1.3,61.4-3
		c19.4-1.5,37.8-6.9,54.9-16.7c24.1-13.8,39.2-34.7,47.8-60.4c6.1-18.4,8.1-37.7,8.3-57.1c0.3-31.8,0.5-63.6,0-95.4
		c-0.3-24.5-2.9-48.8-13-71.7c-11-24.8-28.8-42.7-53.5-53.9c-21.7-9.8-44.7-13-68.1-13.2c-37.1-0.4-74.3,0-111.4,0.6
		c-18.7,0.3-37,3.8-54.4,11c-21.2,8.7-38.1,22.5-50.2,42.2c-13.5,22.1-18.4,46.6-19.3,72c-1,27.9-1.1,55.9-1.1,83.9
		c0,25.1,0.4,50.3,7,74.8c6.8,25.5,19.9,46.8,41.6,62.1c21.7,15.4,46.7,21.4,72.8,22.9C716,928.1,739.9,928.1,769.6,928.8z"/>
	<path class="st1" d="M1360.7,337.5c-0.5,21.5-0.6,43-1.8,64.4c-1.4,25.9-7.5,50.7-22.6,72.4c-12.3,17.7-29.1,29.9-49.2,37.6
		c-15.4,5.9-31.4,9.6-47.7,9.8c-43.8,0.6-87.6,1-131.4-0.1c-26.7-0.7-52.3-7.8-75.2-22.4c-21.8-14-35.7-34-43-58.6
		c-7.9-26.7-8-54.2-8-81.7c0.1-28,0.1-56,1.3-83.9c1.1-26,6.8-51,22.2-73c7.8-11.1,17.5-20.1,28.9-27.1
		c23.8-14.8,50.3-21.1,77.9-21.9c36.1-1.1,72.3-1.3,108.4-0.9c25.9,0.3,51.5,3.1,75.3,14.6c22.9,11.1,39.6,28.1,50.2,51.3
		c10.9,23.9,13.1,49.3,13.8,75c0.4,14.8,0.1,29.7,0.1,44.5C1360.3,337.5,1360.5,337.5,1360.7,337.5z"/>
	<path class="st1" d="M981.2,742.1c0.9-23.6,1.2-47.3,2.9-70.8c1.7-23.2,7.9-45.2,21.6-64.5c7.8-11,17.6-19.9,29-27
		c20.1-12.4,42.2-19.3,65.5-20.6c30.4-1.7,60.9-1.8,91.4-2.3c23.5-0.4,47-0.2,70.2,4c29.8,5.4,55.6,18.4,73.8,43.4
		c12.2,16.8,18.7,36.2,21.6,56.8c5,36,3.1,72.2,2.9,108.3c-0.1,20.1-1.1,40.3-4.1,60.2c-4.4,29.8-17.9,55.3-42.7,73.5
		c-17.2,12.6-37,19.3-58.1,22.1c-37.5,5-75.2,2.9-112.8,2.8c-18.4-0.1-36.9-1.5-55.2-3.9c-25.3-3.4-48.5-13-67.8-30.3
		c-14.2-12.8-23.7-29.1-29.2-47.5c-7.6-25.5-7.9-51.9-8.2-78.2c-0.1-8.7,0-17.3,0-26C981.7,742.1,981.4,742.1,981.2,742.1z"/>
	<path class="st1" d="M764,523.6c-23.5-0.5-47-0.7-70.4-1.8c-26.5-1.2-51.8-7.2-73.9-22.7c-17.1-11.9-29-28.1-36.8-47.4
		c-6.9-17-10.3-34.9-10.8-53c-0.8-35.4-1-70.9-0.8-106.4c0.1-19.8,1.9-39.6,7.7-58.7c9.6-31.1,28.4-54.4,58.5-68.1
		c23.7-10.8,49-13.4,74.5-13.6c35.6-0.3,71.3-0.1,106.9,1c26.4,0.8,51.8,6.9,74,22.3c16.3,11.2,28,26.2,36,44.3
		c10,22.6,12.6,46.5,12.9,70.7c0.5,33.3,0.5,66.6-0.2,99.9c-0.5,22.8-3.6,45.3-13.4,66.5C917,481.5,899,499.1,874.2,510
		c-23.2,10.2-47.9,12.2-72.7,13c-12.5,0.4-25,0.1-37.5,0.1C764,523.2,764,523.4,764,523.6z"/>
	<path class="st1" d="M769.6,928.8c-29.7-0.7-53.6-0.6-77.3-1.9c-26.1-1.4-51.1-7.4-72.8-22.9c-21.7-15.4-34.7-36.7-41.6-62.1
		c-6.6-24.6-7-49.7-7-74.8c0-28,0.1-56,1.1-83.9c0.9-25.3,5.8-49.8,19.3-72c12.1-19.7,29-33.5,50.2-42.2c17.4-7.2,35.7-10.7,54.4-11
		c37.1-0.6,74.3-1.1,111.4-0.6c23.3,0.3,46.4,3.4,68.1,13.2c24.7,11.2,42.5,29.1,53.5,53.9c10.1,22.9,12.7,47.2,13,71.7
		c0.4,31.8,0.3,63.6,0,95.4c-0.2,19.4-2.2,38.7-8.3,57.1c-8.6,25.7-23.7,46.6-47.8,60.4c-17.1,9.8-35.5,15.2-54.9,16.7
		C808.6,927.4,786.2,928,769.6,928.8z"/>
</g>
</svg>
