<?xml version="1.0" encoding="utf-8"?>
<!-- Generator: Adobe Illustrator 26.0.1, SVG Export Plug-In . SVG Version: 6.00 Build 0)  -->
<svg version="1.1" id="Layer_1" xmlns="http://www.w3.org/2000/svg" xmlns:xlink="http://www.w3.org/1999/xlink" x="0px" y="0px"
	 viewBox="0 0 612 792" style="enable-background:new 0 0 612 792;" xml:space="preserve">
<style type="text/css">
	.st0{display:none;}
	.st1{fill:#FEFEFE;}
	.st2{fill:#666666;}
	.st3{fill:#676767;}
	.st4{fill:#686867;}
	.st5{fill:#626261;}
	.st6{fill:#4E4E4E;}
	.st7{fill:#565656;}
	.st8{fill:#494949;}
	.st9{display:none;fill:#010101;}
	.st10{display:none;fill:#020202;}
	.st11{fill:#696968;}
	.st12{fill:#696969;}
	.st13{fill:#686868;}
</style>
<g>
	<path class="st0" d="M612,139.9c0,170.9,0,341.8,0,512.7c-204,0-408,0-612,0c0-170.9,0-341.8,0-512.7
		C204,139.9,408,139.9,612,139.9z M506,233.4c0.1-0.3,0.1-0.6,0.2-0.9c0.4,0,0.9-0.1,1.3-0.1c0.3,0,0.6,0,1,0c1.3,0,2.7,0.1,4,0
		c7.3-0.3,14.2-1.7,20.2-6.2c1.1-0.9,2.3-1.8,3.4-2.8c0,0,0,0,0,0c0.3-0.2,0.6-0.3,0.8-0.5c5.7-5.4,5.7-16.7-1.9-22.6
		c-8-6.1-17.1-8.1-26.9-7.6c-0.6-0.1-1.3-0.2-1.9-0.2c-22,0-44.1,0-66.1,0c-0.6,0-1.3,0.1-1.9,0.2c-0.9-0.1-1.7-0.2-2.6-0.2
		c-19.9,0-39.7,0-59.6,0c-8.1,0-16.1-0.1-24.2,0c-2.1,0-3.1-0.8-2.9-2.9c0.1-1.9,0.1-3.8-0.1-5.7c-0.3-5.1-1.2-10-5.4-13.7
		c-5.1-4.4-10.8-7.2-17.6-7.2c-12.3,0-24.7,0-37,0c-1.7,0-3.5,0.2-5.2,0.6c-9.4,1.8-16.4,8.6-17.6,17.4c-0.3,2.4-0.3,4.9-0.3,7.3
		c-0.1,4.2,0,4.2-4.3,4.2c-1.3,0-2.5,0-3.8,0c-26.6,0-53.2,0-79.8,0c-0.9,0-1.9,0.1-2.8,0.2c-0.6,0-1.3,0-1.9,0c-0.3,0-0.6,0-0.9,0
		c-0.4-0.1-0.8-0.2-1.2-0.2c-22.7,0-45.5,0-68.2,0c-0.8,0-1.6,0.1-2.3,0.2c-1.1,0.1-2.2,0.1-3.4,0.2c-1,0.1-1.9,0.2-2.9,0.4
		c-0.3,0-0.6,0.1-0.9,0.1c-1.3,0.3-2.5,0.6-3.8,0.8c-0.5,0.2-1,0.3-1.5,0.5c-0.3,0.1-0.6,0.1-0.8,0.2c-5.1,1.6-9.5,4.3-12.9,8.4
		c-4.2,5-4.2,13.1-0.2,17.7c0.7,0.8,1.4,1.5,2,2.3c1.8,1.3,3.5,2.6,5.3,3.9c1.7,0.9,3.4,1.9,5.3,2.7c6.2,2.5,12.8,2.4,19.4,2.5
		c0,0.8,0.1,1.5,0.1,2.3c0.2,3.3,0.4,6.6,0.7,9.9c1.1,10.1,2.3,20.2,3.5,30.3c1.3,11.1,2.6,22.3,4,33.4c1.5,12.4,3.1,24.8,4.6,37.1
		c1.3,10.9,2.6,21.8,4,32.7c1.7,13.6,3.4,27.3,5.1,40.9c1.6,13.2,3.2,26.5,4.9,39.7c1.8,14.3,3.7,28.7,5.5,43c1.8,14,3.6,28,5.4,42
		c1.6,12.2,3.2,24.4,5.1,36.6c2,12.7,4.4,25.3,6.6,38c1.6,9.4,7.6,14.6,16.5,16.5c5.7,1.2,11.6,1.7,17.4,1.7
		c77.8,0.1,155.7,0.1,233.5,0c5.4,0,10.8-0.4,16-1.4c9.1-1.8,15.9-6.7,17.6-16.5c2.6-15,5-30,7.5-45.1c0.1-0.6,0.2-1.3,0.2-1.9
		c0.1-0.5,0.2-0.9,0.2-1.4c0.1-0.8,0.2-1.6,0.3-2.4c0.1-0.3,0.1-0.6,0.2-0.9c0.1-0.8,0.2-1.6,0.3-2.4c0.1-0.5,0.2-1,0.3-1.4
		c0.2-1.6,0.4-3.2,0.6-4.7c0.1-0.6,0.2-1.3,0.3-1.9c1.3-9.9,2.8-19.9,4-29.8c0.8-6.2,1.2-12.4,2-18.5c0.6-4.6,1.6-9.2,2.2-13.8
		c2.2-16.9,4.2-33.8,6.3-50.8c1.8-14.7,3.7-29.4,5.6-44.2c1.7-13.5,3.3-27,4.9-40.4c1.9-15.2,3.7-30.4,5.6-45.6
		c1.3-11,2.7-21.9,4-32.9c1.4-11.7,2.8-23.4,4.1-35c0.4-3.6,0.6-7.2,0.9-10.8C506,234.4,506,233.9,506,233.4z"/>
	<path class="st1" d="M612,139.9c-204,0-408,0-612,0c0.1-0.2,0.2-0.4,0.2-0.5c0.6,0,1.3,0,1.9,0c202.6,0,405.1,0,607.7,0
		C610.6,139.4,611.3,139.7,612,139.9z"/>
	<path class="st2" d="M464,573.8c-2.5,15-4.9,30.1-7.5,45.1c-1.7,9.8-8.5,14.7-17.6,16.5c-5.2,1-10.7,1.4-16,1.4
		c-77.8,0.1-155.7,0.1-233.5,0c-5.8,0-11.7-0.5-17.4-1.7c-8.8-1.9-14.8-7.1-16.5-16.5c-2.2-12.7-4.6-25.3-6.6-38
		c-1.9-12.2-3.5-24.4-5.1-36.6c-1.9-14-3.6-28-5.4-42c-1.8-14.3-3.7-28.7-5.5-43c-1.7-13.2-3.3-26.5-4.9-39.7
		c-1.7-13.6-3.4-27.3-5.1-40.9c-1.3-10.9-2.6-21.8-4-32.7c-1.5-12.4-3.1-24.8-4.6-37.1c-1.4-11.1-2.7-22.3-4-33.4
		c-1.2-10.1-2.4-20.2-3.5-30.3c-0.4-3.3-0.5-6.6-0.7-9.9c1-0.2,2-0.5,3-0.5c4.5,0,9,0,13.5,0c0.3,1.4,0.7,2.7,0.9,4.1
		c0.9,6,1.7,12,2.5,18.1c1.5,12.1,3,24.3,4.5,36.4c1.7,13.8,3.4,27.6,5.1,41.4c1.5,12.2,2.9,24.5,4.4,36.7c1.7,13.6,3.4,27.3,5,40.9
		c1.7,13.7,3.3,27.4,4.9,41.2c1.7,13.6,3.4,27.3,5,40.9c1.7,13.7,3.3,27.4,4.9,41.2c1.8,14.8,3.5,29.6,5.6,44.4
		c1.4,9.4,3.2,18.7,5.3,27.9c1.4,5.9,5,10.2,11.6,10.9c2.9,0.3,5.8,0.4,8.8,0.4c59.1,0,118.1,0,177.2,0c18.9,0,37.9,0.1,56.8-0.1
		c10.1-0.1,14.3-3.5,16.9-13.2c0.2-0.7,0.4-1.4,0.5-2.1c1.4-8,2.9-16,4.3-24c0.8,0.8,1.6,1.5,2.4,2.3c0.8,0.7,1.6,1.5,2.6,2
		c0.7,0.3,1.6,0.4,2.3,0.2c1-0.4,1.9-1.1,2.8-1.7c0.6-0.4,1.1-0.8,2-1.4c-1.2-0.5-1.9-0.9-2.5-1.1c-0.3-1.2-0.6-2.4-1-3.6
		c0.1-0.1,0.3-0.3,0.4-0.4c0.7,0.6,1.5,1.2,2.4,2.1c0.4-0.6,0.7-1.3,1.2-1.9c0.5-0.6,1.1-1.2,1.7-1.5C462.1,574,463,573.9,464,573.8
		z"/>
	<path class="st3" d="M464,573.8c-0.9,0.2-1.9,0.2-2.8,0.5c-0.7,0.3-1.2,0.9-1.7,1.5c-0.5,0.5-0.8,1.2-1.2,1.9
		c-1-0.8-1.7-1.5-2.4-2.1c-0.1,0.1-0.3,0.3-0.4,0.4c0.3,1.2,0.6,2.4,1,3.6c0.6,0.3,1.3,0.6,2.5,1.1c-0.9,0.6-1.5,1.1-2,1.4
		c-0.9,0.6-1.8,1.3-2.8,1.7c-0.7,0.2-1.7,0.2-2.3-0.2c-1-0.5-1.8-1.2-2.6-2c-0.8-0.8-1.6-1.5-2.4-2.3c0.1-0.5,0.2-1,0.2-1.5
		c0.5-0.3,0.9-0.5,1.4-0.8c-0.4-0.3-0.8-0.7-1.2-1c0-0.5,0.1-0.9,0.1-1.4c0.6-0.4,1.1-0.8,1.7-1.2c-0.4-0.4-0.9-0.8-1.3-1.2
		c0.2-1.7,0.4-3.5,0.6-5.2c0.4-0.3,0.8-0.5,1.2-0.8c-0.3-0.4-0.6-0.7-0.9-1.1c0-0.6,0-1.3,0.1-1.9c1.5-12.5,3.1-25,4.6-37.6
		c1-8.5,1.9-17,3-25.5c1.2-9.8,2.5-19.6,3.7-29.3c1.5-12.4,2.9-24.8,4.4-37.1c2-16.5,4-32.9,6-49.4c1.3-10.9,2.6-21.8,3.9-32.7
		c1.4-11.4,2.8-22.7,4.2-34.1c1.3-10.9,2.6-21.8,4-32.7c1.3-10.9,2.7-21.8,4.1-32.7c0.8-5.8,1.8-11.7,2.7-17.5c5.5,0,11.1,0,16.6,0
		c-0.3,3.6-0.5,7.2-0.9,10.8c-1.3,11.7-2.7,23.4-4.1,35c-1.3,11-2.6,21.9-4,32.9c-1.9,15.2-3.7,30.4-5.6,45.6
		c-1.6,13.5-3.2,27-4.9,40.4c-1.8,14.7-3.7,29.4-5.6,44.2c-2.1,16.9-4.2,33.9-6.3,50.8c-0.6,4.6-1.6,9.2-2.2,13.8
		c-0.8,6.2-1.2,12.4-2,18.5c-1.3,9.9-2.7,19.9-4,29.8c-1.1,0.5-1.9,1-0.3,1.9c-0.2,1.6-0.4,3.2-0.6,4.7c-0.4,0.3-0.7,0.5-1.1,0.8
		c0.3,0.2,0.5,0.4,0.8,0.6c-0.1,0.8-0.2,1.6-0.3,2.4c-0.1,0.3-0.1,0.6-0.2,0.9c-0.1,0.8-0.2,1.6-0.3,2.4c-0.3,0.3-0.7,0.5-1,0.8
		c0.3,0.2,0.5,0.4,0.8,0.6C464.1,572.5,464,573.2,464,573.8z"/>
	<path class="st4" d="M174.9,192.8c0.9-0.1,1.9-0.2,2.8-0.2c26.6,0,53.2,0,79.8,0c1.3,0,2.5,0,3.8,0c4.2-0.1,4.2-0.1,4.3-4.2
		c0-2.4-0.1-4.9,0.3-7.3c1.3-8.8,8.3-15.6,17.6-17.4c1.7-0.3,3.4-0.5,5.2-0.6c12.3,0,24.7,0,37,0c6.8,0,12.5,2.8,17.6,7.2
		c4.2,3.7,5.1,8.6,5.4,13.7c0.1,1.9,0.2,3.8,0.1,5.7c-0.1,2.2,0.8,3,2.9,2.9c8.1,0,16.1,0,24.2,0c19.9,0,39.7,0,59.6,0
		c0.9,0,1.7,0.1,2.6,0.2c0.7,1.9,4.6,3.6,6.4,2.8c1.5-0.7,3.1-1.3,3.3,1.4c0.1,1.1,0.5,2.2,0.8,3.3c0.2,0.7,0.6,1.2,1.1,2.1
		c0.7-1.1,1.1-1.6,1.4-2.1c2,0.8,3.9,1.6,5.4,2.2c0.2,1.5,0.4,2.8,0.6,4.1c-0.9,0-1.9,0.1-2.8,0.1c-92.3,0-184.5,0-276.8,0
		c-7.2,0-14.4-0.1-21.6-0.1c-0.1-0.5-0.1-1.3-0.4-1.5c-2.5-1.5-1.2-3.1-0.2-4.5c1.1-1.5,2.4-2.7,4.5-2.3c0.6,0.1,1.3-0.1,2-0.1
		c0-4.2,0-4.1,4.3-3.7c1.7,0.1,3.5-0.2,5.3-0.5c0.3,0,0.4-0.7,0.7-1.1c0.3,0,0.6,0,0.9,0c0.3,0.4,0.6,0.8,0.8,1.1
		C174.1,193.6,174.5,193.2,174.9,192.8z M307,192.7c6.7,0,13.4,0.1,20.2,0c6.6-0.1,6.1,1.2,5.8-6.3c-0.2-5.6-2.2-7.8-7.8-8.6
		c-1.3-0.2-2.7-0.2-4-0.2c-8.9,0-17.7,0-26.6,0c-2.1,0-4.3,0.1-6.4,0.4c-3.9,0.4-5.8,2-6.5,5.7c-0.4,2.1-0.3,4.4-0.6,6.6
		c-0.2,2,0.7,2.6,2.6,2.5C291.5,192.6,299.3,192.7,307,192.7z"/>
	<path class="st3" d="M172,192.9c-0.2,0.4-0.4,1-0.7,1.1c-1.7,0.3-3.5,0.6-5.3,0.5c-4.2-0.3-4.2-0.4-4.3,3.7c-0.6,0.1-1.3,0.3-2,0.1
		c-2.1-0.4-3.5,0.8-4.5,2.3c-1,1.4-2.3,3,0.2,4.5c0.3,0.2,0.3,1,0.4,1.5c-0.9,0-1.7,0.1-2.6,0.1c-19.6,0-39.1,0.1-58.7,0.1
		c-0.3,0-0.6,0.1-1,0.1c-4.8,1.3-5.5,2.3-5.3,7.5c0.3,0.6,0.7,1.2,1,1.8l0,0c0.5,0.3,1,0.7,1.4,1c1.9,0.3,3.7,0.6,5.6,0.9
		c0.6,0,1.3,0,1.9,0.1c6.4,0,12.8,0,19.2,0c13.1,0,26.2,0.1,39.3,0.1c0.4,0.8,0.8,1.6,1,2.4c0.1,0.6,0,1.3-0.3,1.9
		c0,0.1-1.1,0.1-1.3-0.1c-1-1.4-1.9-0.9-2.9-0.1c-0.7,0.6-1.7,1-2.4,1.4c-0.9-0.5-1.6-0.9-2.3-1.3c0,1,0.4,1.6,0.6,2.3
		c0.2,0.5,0.2,1.5-0.1,1.6c-2.2,1.3-1.4,2.6,0.5,4.4c-1.5,0-2.2,0.1-3,0c-1.5-0.4-2.3,0-2.3,1.7c-0.3,0-0.6,0-1,0
		c-0.4-0.4-0.7-0.9-1.1-1.3c-0.4,0.4-0.9,0.9-1.3,1.3c-6.2,0-12.4,0-18.5,0.1c-5.6,0-11.2,0.1-16.7,0.1c-6.6,0-13.2,0-19.4-2.5
		c-1.8-0.7-3.5-1.8-5.3-2.7c-0.7-1.9-3.3-3.9-5.3-3.9c-0.7-0.8-1.4-1.5-2-2.3c0.2-0.4,0.5-0.8,0.4-1.1c-0.3-1.8-0.7-3.5-1.1-5.5
		c2.6,0,4.5-1,5.5-3.4c0.2-0.5,1.2-0.6,1.8-0.9c1.4-0.8,2.8-1.7,4.2-2.6c-2.2-2.4-2.2-2.4,0-3.5c0.1-0.1,0.1-0.3,0.3-0.4
		c1.6-1.4,3.3-2.7,4.8-4.2c0.5-0.5,0.7-1.5,1.1-2.2c-0.2-0.1-0.3-0.2-0.5-0.3c-0.5,0.4-1,0.8-2,1.5c-0.5-1.4-1-2.4-1.4-3.5
		c0.3-0.1,0.6-0.1,0.8-0.2c0.4,0.3,0.8,0.6,1.3,1c0.1-0.7,0.1-1.1,0.2-1.5c1.3-0.3,2.5-0.6,3.8-0.8c0.1,0.2,0.3,0.5,0.4,0.7
		c0.2-0.3,0.4-0.5,0.5-0.8c1-0.1,1.9-0.2,2.9-0.4c-0.1,0.7-0.2,1.4-0.3,2.1c1.4,0,2.6,0,4,0c-0.2-0.9-0.3-1.6-0.4-2.3
		c0.8-0.1,1.6-0.2,2.3-0.2c22.7,0,45.5,0,68.2,0C171.2,192.7,171.6,192.8,172,192.9z M76.6,220.6c0.9-0.7,1.7-1.1,1.6-1.3
		c-0.4-1.4-0.8-2.8-1.4-4.1c-0.1-0.2-1.5-0.1-1.8,0.2c-0.3,0.4-0.2,1.4,0.1,1.8c0.3,0.4,1.1,0.5,1.7,0.8
		C76.7,218.7,76.7,219.3,76.6,220.6z M94.4,198.9c2.5-1.2,1.2-2.3,0.7-3.6C92.7,196.3,94.1,197.5,94.4,198.9z M87.5,204.8
		c-0.4-0.1-0.8-0.2-1.2-0.4c-0.3,0.9-0.6,1.8-0.9,2.8c0.4,0.1,1.2,0.4,1.2,0.3C86.9,206.7,87.2,205.7,87.5,204.8z M145.1,228.8
		c0.1,0.1,0.3,0.2,0.4,0.2c0.1,0,0.1-0.2,0.2-0.4c-0.1-0.1-0.3-0.2-0.4-0.2C145.2,228.5,145.2,228.7,145.1,228.8z"/>
	<path class="st3" d="M457.1,206.6c-0.2-1.3-0.4-2.6-0.6-4.1c-1.5-0.6-3.4-1.4-5.4-2.2c-0.3,0.5-0.7,1.1-1.4,2.1
		c-0.5-0.9-0.9-1.5-1.1-2.1c-0.4-1.1-0.7-2.2-0.8-3.3c-0.3-2.7-1.8-2-3.3-1.4c-1.8,0.8-5.7-1-6.4-2.8c0.6-0.1,1.3-0.2,1.9-0.2
		c22,0,44.1,0,66.1,0c0.6,0,1.3,0.1,1.9,0.1c0.7,0.5,1.4,1.5,2.1,1.5c1.6,0.2,2.4,0.6,1.8,2.5c0.2,0.1,0.4,0.1,0.6,0.2
		c0.8-0.6,1.6-1.3,2.6-2.1c0.6,1.2,1.4,2.5,1.8,4c0.4,1.5,1.3,1.5,2,0.7c2-1.9,3.2-0.5,4.5,0.6c-0.6,0.9-1.8,2.1-1.6,2.3
		c1.5,2.2,3.1,4.5,5.1,6.3c1,0.9,3.1,0.5,4.6,0.8c0.4,0.1,1,0.7,1,1c-0.1,0.5-0.5,1-0.9,1.3c-0.5,0.4-1.2,0.5-1.8,0.8
		c0,0.2,0,0.4,0,0.6c2.9-1.1,4.1,1.2,4.8,2.8c0.9,2.2,0.9,4.8,1.2,7.2c0,0,0,0,0,0c-2-0.1-2.8,1.2-3.4,2.8c-6,4.5-12.9,5.9-20.2,6.2
		c-1.3,0-2.7,0-4,0c-0.2-0.2-0.3-0.5-0.5-0.7c-0.2,0.2-0.3,0.5-0.5,0.7c-0.4,0-0.9,0.1-1.3,0.1c-5.4,0-10.8-0.1-16.3-0.1
		c-0.1,0-0.3,0-0.4,0c-7,0-14,0-20.9,0c-0.5-1.1-1-2.2-1.3-2.9c-1.4,0.4-2.3,0.6-3.2,0.9c-0.1-0.8-0.2-1.7-0.3-2.5
		c0-0.8,0-1.5,0-2.5c-2.6,0.4-4.7,0.3-5.4-2.5c-0.1-0.3-1.5-0.3-2.2-0.2c-0.4,0.1-0.6,0.8-1,1.2c-1.5-0.7-2.9-1.3-4.3-1.9
		c0-0.3,0-0.6,0-0.9c1-0.3,2.1-0.6,3.1-0.9c1-0.3,2.5,0,2.5-1.8c3.2,0,6.3,0,9.5,0c0.1,0.4,0.2,0.8,0.3,1.2c0.1,0,0.2,0,0.4,0
		c0.1-0.4,0.2-0.8,0.3-1.2c15.5,0,31,0,46.6-0.1c0.5,0,1,0,1.4,0c2.8-0.5,6,0,8.1-2.8c0.4-0.3,0.8-0.5,1.2-0.8
		c-0.2-0.2-0.5-0.4-0.7-0.7c0-0.9,0-1.9,0-2.8c0.2-0.2,0.5-0.4,0.7-0.7c-0.4-0.3-0.8-0.5-1.2-0.8c-0.1-0.1-0.1-0.2-0.1-0.3
		c0-2.6-0.5-3-2.8-2c-2.4-0.2-4.7-0.5-7.1-0.5c-8.1-0.1-16.3-0.1-24.4-0.1C478.2,206.7,467.7,206.6,457.1,206.6z M518.5,203.5
		c-0.4-0.2-0.7-0.4-0.9-0.3c-0.2,0.1-0.4,0.4-0.5,0.6c0.2,0.2,0.4,0.5,0.6,0.4C517.9,204.2,518.1,203.9,518.5,203.5z"/>
	<path class="st5" d="M536,223.5c-0.4-2.4-0.3-5.1-1.2-7.2c-0.7-1.6-1.9-3.9-4.8-2.8c0-0.2,0-0.4,0-0.6c0.6-0.3,1.3-0.4,1.8-0.8
		c0.4-0.3,0.8-0.8,0.9-1.3c0-0.3-0.6-0.9-1-1c-1.6-0.3-3.6,0.1-4.6-0.8c-2-1.7-3.6-4-5.1-6.3c-0.2-0.3,1-1.5,1.6-2.3
		c-1.3-1.1-2.5-2.5-4.5-0.6c-0.8,0.7-1.6,0.7-2-0.7c-0.4-1.4-1.2-2.7-1.8-4c-1,0.8-1.8,1.4-2.6,2.1c-0.2-0.1-0.4-0.1-0.6-0.2
		c0.7-2-0.2-2.4-1.8-2.5c-0.8-0.1-1.4-1-2.1-1.5c9.8-0.5,18.9,1.5,26.9,7.6c7.7,5.8,7.6,17.1,1.9,22.6
		C536.6,223.2,536.3,223.3,536,223.5z"/>
	<path class="st5" d="M87,195.1c0.4,1.1,0.8,2.1,1.4,3.5c1-0.8,1.5-1.2,2-1.5c0.2,0.1,0.3,0.2,0.5,0.3c-0.4,0.7-0.5,1.6-1.1,2.2
		c-1.5,1.5-3.2,2.8-4.8,4.2c-0.1,0.1-0.1,0.3-0.3,0.4c-2.2,1.1-2.2,1.1,0,3.5c-1.5,0.9-2.8,1.8-4.2,2.6c-0.6,0.4-1.6,0.4-1.8,0.9
		c-1.1,2.4-3,3.3-5.5,3.4c0.4,2,0.8,3.8,1.1,5.5c0.1,0.3-0.3,0.8-0.4,1.1c-4-4.6-3.9-12.7,0.2-17.7C77.5,199.4,81.9,196.7,87,195.1z
		"/>
	<path class="st6" d="M105.8,232.5c5.6,0,11.2-0.1,16.7-0.1c0,0.6,0,1.3-0.1,1.9c-4.5,0-9,0-13.5,0c-1,0-2,0.3-3,0.5
		C105.9,234.1,105.9,233.3,105.8,232.5z"/>
	<path class="st7" d="M506,234.9c-5.5,0-11.1,0-16.6,0c0.1-0.5,0.1-0.9,0.2-1.4c5.5,0,10.9,0,16.4,0C506,233.9,506,234.4,506,234.9z
		"/>
	<path class="st8" d="M506,233.4c-5.5,0-10.9,0-16.4,0c0-0.2,0.1-0.4,0.1-0.6c0.1-0.1,0.2-0.2,0.2-0.4c5.4,0,10.8,0.1,16.3,0.1
		C506.1,232.8,506,233.1,506,233.4z"/>
	<path class="st5" d="M100.3,192.9c0.1,0.7,0.3,1.4,0.4,2.3c-1.4,0-2.7,0-4,0c0.1-0.7,0.2-1.4,0.3-2.1
		C98,193.1,99.2,193,100.3,192.9z"/>
	<path class="st5" d="M75.9,223.5c2,0,4.6,2,5.3,3.9C79.4,226.1,77.7,224.8,75.9,223.5z"/>
	<path class="st5" d="M532.6,226.2c0.6-1.6,1.4-2.9,3.4-2.8C534.9,224.4,533.8,225.3,532.6,226.2z"/>
	<path class="st3" d="M174.9,192.8c-0.4,0.4-0.7,0.8-1.1,1.1c-0.3-0.4-0.6-0.8-0.8-1.1C173.6,192.8,174.2,192.8,174.9,192.8z"/>
	<path class="st2" d="M466.1,558.6c-1.6-0.9-0.8-1.4,0.3-1.9C466.3,557.3,466.2,558,466.1,558.6z"/>
	<path class="st2" d="M465.2,564.8c-0.3-0.2-0.5-0.4-0.8-0.6c0.4-0.3,0.7-0.5,1.1-0.8C465.4,563.8,465.3,564.3,465.2,564.8z"/>
	<path class="st5" d="M89.3,194.4c-0.1,0.4-0.1,0.8-0.2,1.5c-0.6-0.4-0.9-0.7-1.3-1C88.3,194.7,88.8,194.6,89.3,194.4z"/>
	<path class="st2" d="M464.2,571.9c-0.3-0.2-0.5-0.4-0.8-0.6c0.3-0.3,0.7-0.5,1-0.8C464.4,570.9,464.3,571.4,464.2,571.9z"/>
	<path class="st2" d="M464.7,568.1c0.1-0.3,0.1-0.6,0.2-0.9C464.8,567.5,464.8,567.8,464.7,568.1z"/>
	<path class="st5" d="M94.1,193.5c-0.2,0.3-0.4,0.5-0.5,0.8c-0.1-0.2-0.3-0.5-0.4-0.7C93.4,193.6,93.8,193.5,94.1,193.5z"/>
	<path class="st5" d="M507.5,232.4c0.2-0.2,0.3-0.5,0.5-0.7c0.2,0.2,0.3,0.5,0.5,0.7C508.1,232.4,507.8,232.4,507.5,232.4z"/>
	<path class="st9" d="M489.7,232.8c0,0.2-0.1,0.4-0.1,0.6c-0.1,0.5-0.1,0.9-0.2,1.4c-0.9,5.8-2,11.6-2.7,17.5
		c-1.5,10.9-2.8,21.8-4.1,32.7c-1.3,10.9-2.6,21.8-4,32.7c-1.4,11.4-2.8,22.7-4.2,34.1c-1.3,10.9-2.6,21.8-3.9,32.7
		c-2,16.5-4,32.9-6,49.4c-1.5,12.4-2.9,24.8-4.4,37.1c-1.2,9.8-2.5,19.6-3.7,29.3c-1,8.5-1.9,17-3,25.5c-1.5,12.5-3.1,25.1-4.6,37.6
		c-0.1,0.6,0,1.3-0.1,1.9c-0.1,0.6-0.2,1.3-0.3,1.9c-0.2,1.7-0.4,3.5-0.6,5.2c-0.1,0.8-0.2,1.6-0.4,2.4c0,0.5-0.1,0.9-0.1,1.4
		c-0.1,0.6-0.1,1.2-0.2,1.8c-0.1,0.5-0.2,1-0.2,1.5c-1.4,8-2.9,16-4.3,24c-0.1,0.7-0.4,1.4-0.5,2.1c-2.5,9.7-6.8,13.2-16.9,13.2
		c-18.9,0.1-37.9,0.1-56.8,0.1c-59.1,0-118.1,0-177.2,0c-2.9,0-5.9-0.2-8.8-0.4c-6.6-0.7-10.3-5-11.6-10.9
		c-2.1-9.2-3.9-18.5-5.3-27.9c-2.1-14.8-3.8-29.6-5.6-44.4c-1.7-13.7-3.3-27.4-4.9-41.2c-1.7-13.6-3.4-27.3-5-40.9
		c-1.7-13.7-3.3-27.4-4.9-41.2c-1.7-13.6-3.4-27.3-5-40.9c-1.5-12.2-2.9-24.5-4.4-36.7c-1.7-13.8-3.4-27.6-5.1-41.4
		c-1.5-12.1-2.9-24.3-4.5-36.4c-0.8-6-1.6-12.1-2.5-18.1c-0.2-1.4-0.6-2.7-0.9-4.1c0-0.6,0-1.3,0.1-1.9c6.2,0,12.4,0,18.5-0.1
		c0.8,0,1.6,0,2.4,0c0.3,0,0.6,0,1,0c0.8,0,1.6,0.1,2.4,0.1c95.5,0,191,0,286.6,0c11.7,0,23.4-0.1,35.1-0.1c7,0,14,0,20.9,0
		C489.5,232.6,489.6,232.7,489.7,232.8z M264.3,569.2c-0.1,0-0.3,0-0.4,0c0-3.3,0.1-6.6,0-10c-0.6-18.6-1.3-37.1-1.9-55.7
		c-0.4-11.7-0.9-23.4-1.4-35.1c-0.7-17.5-1.3-34.9-2-52.4c-0.4-9.2-0.9-18.3-1.2-27.5c-0.8-20.7-1.7-41.4-2.5-62.1
		c-0.5-12.1-0.6-24.2-1.6-36.2c-0.5-6.4-2.5-12.7-4.3-18.8c-1.1-3.9-3.8-6.9-7.7-8.6c-10.3-4.5-21,0.6-23.8,11.4
		c-2.1,8-2.4,16.1-1.8,24.2c0.8,12.4,1.8,24.7,2.6,37.1c0.6,8.4,1,16.9,1.6,25.3c0.9,14.5,1.9,29,2.8,43.5c0.5,8,1,16.1,1.5,24.1
		c1.1,16.6,2.2,33.3,3.2,49.9c0.5,8,1,16.1,1.5,24.1c1,15,2.1,30.1,3.2,45.1c0.7,9.8,1.5,19.5,2.5,29.3c0.7,7.3,3.4,10.3,9.7,11.7
		c3.9,0.9,7.9,0.6,11.7-0.6c4.7-1.5,7.8-4.5,8-9.7C264,575.3,264.1,572.3,264.3,569.2z M347.8,568.1c0,0,0.1,0,0.1,0
		c0,2.7-0.1,5.4,0,8.1c0.2,7.4,3,10.9,10.2,12.4c2.7,0.5,5.5,0.6,8.2,0.4c6.2-0.4,10.1-3.7,10.9-9.9c1.2-10,2-19.9,2.8-29.9
		c0.8-10.2,1.4-20.3,2-30.5c1-15.4,2.1-30.9,3.2-46.3c0.7-11.4,1.4-22.9,2.1-34.3c1.1-17.2,2.2-34.4,3.3-51.6
		c0.5-7.7,1-15.5,1.5-23.2c0.9-13.5,1.8-27,2.7-40.4c0.5-7.8,1-15.6,1.6-23.4c0.7-8.3,0.3-16.6-1.6-24.7c-0.9-3.7-2.3-7.1-5.3-9.6
		c-8.9-7.2-22.4-3.6-26.6,6.9c-3,7.4-4.2,15.2-4.6,23.1c-0.4,8.4-0.6,16.7-0.9,25.1c-0.8,20.2-1.6,40.4-2.4,60.6
		c-0.4,10.7-0.9,21.5-1.4,32.2c-0.8,19.8-1.6,39.6-2.4,59.5c-0.5,11.4-1,22.7-1.4,34.1C349.1,527.2,348.5,547.6,347.8,568.1z
		 M404,572.1c-0.1,10.4,3.1,14.4,11.3,15.9c0.6,0.1,1.2,0.3,1.9,0.3c9.5,0.8,14.6-1.9,16.1-9.6c1.2-6.1,2.1-12.3,2.9-18.5
		c1.7-12.8,3.3-25.5,4.9-38.3c1.6-12.3,3.1-24.6,4.6-36.9c1.5-12.3,3-24.6,4.5-36.9c1.5-12.3,3-24.6,4.5-36.9
		c1.3-11.1,2.6-22.1,4-33.2c1.7-13.6,3.4-27.3,5.1-40.9c1.5-11.8,3-23.7,4.5-35.5c1.2-9.3,1.6-18.6-0.7-27.8
		c-1.7-6.7-6.4-10.7-13.2-11.5c-8.4-1-13.8,1.2-16.9,7.9c-2.3,5-4.5,10.3-5.3,15.6c-1.9,13.2-3,26.5-4.4,39.8
		c-1.1,10.5-2,21.1-3,31.6c-1,10.6-2.1,21.2-3.2,31.8c-0.8,8.4-1.7,16.8-2.5,25.2c-1.2,12.3-2.5,24.7-3.7,37c-1,10.1-2,20.3-3,30.4
		c-1.1,10.8-2.1,21.5-3.2,32.3c-0.9,9.3-1.8,18.5-2.7,27.8C405.5,552.7,404.7,563.5,404,572.1z M324.4,302.4c0.2,0,0.4,0,0.6,0
		c0-3.7,0.4-7.5-0.1-11.1c-0.8-6.4-1.9-12.8-3.4-19.1c-0.9-3.8-3.3-7-7-8.9c-9.5-5.1-20.8-0.9-24.3,9.2c-2.3,6.5-3.3,13.2-3.3,20
		c0,8.6,0.3,17.2,0.4,25.9c0.2,12.4,0.3,24.8,0.5,37.3c0.2,14.4,0.3,28.8,0.5,43.2c0.2,14.9,0.3,29.9,0.5,44.8
		c0.1,12.3,0.3,24.7,0.5,37c0.2,12.9,0.3,25.8,0.5,38.7c0.2,14.7,0.4,29.4,0.7,44.1c0.1,5.1,0.5,10.1,0.9,15.1
		c0.4,5,2.9,8.6,7.9,9.8c3,0.7,6.1,1.2,9.1,0.9c8.4-0.7,11.9-4.3,12.4-12.7c0.6-11.2,1-22.4,1.2-33.6c0.4-21.8,0.7-43.7,1-65.5
		c0.2-13.5,0.3-27,0.5-40.6c0.2-15.4,0.3-30.8,0.5-46.3c0.1-13.3,0.4-26.6,0.4-39.9C324.4,334.6,324.4,318.5,324.4,302.4z
		 M143.2,288.8c0.5,5.5,0.9,10.5,1.5,15.4c1.6,13.8,3.4,27.6,5,41.4c1.2,10.3,2.5,20.7,3.7,31.1c1.3,11.2,2.6,22.4,3.9,33.7
		c1.3,11.7,2.7,23.4,4,35.1c1.5,12.9,3,25.7,4.6,38.6c1.3,11.3,2.6,22.6,4,33.9c1.5,12.4,3,24.8,4.6,37.1c1.1,8.2,2.2,16.4,3.8,24.6
		c1.1,5.8,4.7,8.6,10.7,9c1.7,0.1,3.3,0.2,5,0c9.7-1.4,14-5.4,13.3-14.6c-0.7-9.8-1.3-19.5-2.1-29.3c-0.7-8.9-1.5-17.8-2.4-26.7
		c-1.1-11.6-2.2-23.3-3.2-34.9c-0.8-9.1-1.7-18.2-2.5-27.4c-1-10.8-2.1-21.7-3.1-32.5c-0.9-9.4-1.7-18.7-2.6-28.1
		c-1-10.9-2.1-21.9-3.2-32.8c-0.9-9.2-1.7-18.4-2.5-27.6c-1.1-12-2.2-23.9-3.2-35.9c-0.7-9-2.2-17.9-5.8-26.2
		c-3.2-7.3-7.3-10.8-15.8-10.3c-9.5,0.5-14.1,4.4-15.9,13.1C144,279.8,143.7,284.6,143.2,288.8z"/>
	<path class="st2" d="M447.3,574.7c0.1-0.8,0.2-1.6,0.4-2.4c0.4,0.4,0.9,0.8,1.3,1.2C448.4,573.9,447.9,574.3,447.3,574.7z"/>
	<path class="st2" d="M447,578c0.1-0.6,0.1-1.2,0.2-1.8c0.4,0.3,0.8,0.7,1.2,1C447.9,577.5,447.4,577.7,447,578z"/>
	<path class="st2" d="M448.3,567.1c0.1-0.6,0.2-1.3,0.3-1.9c0.3,0.4,0.6,0.7,0.9,1.1C449.1,566.6,448.7,566.9,448.3,567.1z"/>
	<path class="st9" d="M513.6,218.2c-15.5,0-31,0-46.6,0.1c-0.3,0-0.6,0-0.9,0c-3.2,0-6.3,0-9.5,0c-0.9,0-1.7-0.1-2.6-0.1
		c-87.4,0-174.7,0-262.1,0c-11.7,0-23.4,0.1-35.1,0.1c-13.1,0-26.2-0.1-39.3-0.1c-6.4,0-12.8,0-19.2,0c-0.6,0-1.3,0-1.9-0.1
		c-1.9-0.3-3.7-0.6-5.6-0.9c-0.5-0.3-1-0.7-1.4-1c0,0,0,0,0,0c-0.3-0.6-0.7-1.2-1-1.8c-0.2-5.2,0.4-6.1,5.3-7.5c0.3,0,0.6-0.1,1-0.1
		c19.6,0,39.1-0.1,58.7-0.1c0.9,0,1.7-0.1,2.6-0.1c7.2,0,14.4,0.1,21.6,0.1c92.3,0,184.5,0,276.8,0c0.9,0,1.9-0.1,2.8-0.1
		c10.6,0,21.1,0.1,31.7,0.1c8.1,0,16.3,0,24.4,0.1c2.4,0,4.7,0.4,7.1,0.5c0.9,0.7,1.9,1.4,2.8,2c0,0.1,0,0.2,0.1,0.3
		c0.2,0.5,0.3,1,0.5,1.4c0,0.9,0,1.9,0,2.8c-0.2,0.5-0.4,1-0.5,1.4c-2.1,2.8-5.3,2.3-8.1,2.8C514.6,218.2,514.1,218.2,513.6,218.2z"
		/>
	<path class="st10" d="M307,192.7c-7.7,0-15.5,0-23.2,0c-1.9,0-2.8-0.5-2.6-2.5c0.2-2.2,0.1-4.4,0.6-6.6c0.7-3.7,2.7-5.3,6.5-5.7
		c2.1-0.2,4.3-0.3,6.4-0.4c8.9,0,17.7,0,26.6,0c1.3,0,2.7,0.1,4,0.2c5.5,0.8,7.6,2.9,7.8,8.6c0.3,7.6,0.8,6.3-5.8,6.3
		C320.5,192.7,313.7,192.7,307,192.7z"/>
	<path class="st11" d="M156.8,218.3c11.7,0,23.4-0.1,35.1-0.1c87.4,0,174.7,0,262.1,0c0.9,0,1.7,0.1,2.6,0.1c0,1.8-1.5,1.5-2.5,1.8
		c-1,0.3-2.1,0.6-3.1,0.9c0,0.3,0,0.6,0,0.9c1.4,0.6,2.7,1.2,4.3,1.9c0.3-0.4,0.6-1.1,1-1.2c0.7-0.1,2.1-0.1,2.2,0.2
		c0.8,2.8,2.8,3,5.4,2.5c0,0.9,0,1.7,0,2.5c0.1,0.9,0.2,1.7,0.3,2.5c0.9-0.3,1.8-0.5,3.2-0.9c0.3,0.7,0.8,1.8,1.3,2.9
		c-11.7,0-23.4,0.1-35.1,0.1c-95.5,0-191,0-286.6,0c-0.8,0-1.6-0.1-2.4-0.1c0-1.6,0.8-2,2.3-1.7c0.7,0.2,1.5,0,3,0
		c-1.9-1.8-2.7-3.1-0.5-4.4c0.3-0.1,0.2-1.1,0.1-1.6c-0.2-0.6-0.6-1.2-0.6-2.3c0.7,0.4,1.4,0.8,2.3,1.3c0.7-0.4,1.6-0.8,2.4-1.4
		c1.1-0.9,1.9-1.3,2.9,0.1c0.2,0.3,1.3,0.3,1.3,0.1c0.2-0.6,0.4-1.3,0.3-1.9C157.6,219.9,157.2,219.1,156.8,218.3z M461.7,230.3
		c-0.1,0.1-0.1,0.3-0.2,0.4c0.1,0.1,0.3,0.2,0.4,0.1c0.1,0,0.1-0.2,0.2-0.4C462,230.4,461.9,230.3,461.7,230.3z"/>
	<path class="st5" d="M76.6,220.6c0.1-1.3,0.1-1.9,0.1-2.5c-0.6-0.2-1.4-0.3-1.7-0.8c-0.3-0.5-0.4-1.5-0.1-1.8
		c0.3-0.4,1.7-0.4,1.8-0.2c0.6,1.3,1.1,2.7,1.4,4.1C78.3,219.5,77.5,219.9,76.6,220.6z"/>
	<path class="st5" d="M94.4,198.9c-0.3-1.4-1.6-2.7,0.7-3.6C95.6,196.6,96.8,197.8,94.4,198.9z"/>
	<path class="st5" d="M87.5,204.8c-0.3,0.9-0.6,1.9-1,2.8c0,0-0.8-0.2-1.2-0.3c0.3-0.9,0.6-1.8,0.9-2.8
		C86.7,204.6,87.1,204.7,87.5,204.8z"/>
	<path class="st11" d="M143.5,232.4c-0.8,0-1.6,0-2.4,0c0.4-0.4,0.9-0.9,1.3-1.3C142.8,231.5,143.1,232,143.5,232.4z"/>
	<path class="st5" d="M96.4,218.2c0.6,0,1.3,0,1.9,0.1C97.7,218.2,97.1,218.2,96.4,218.2z"/>
	<path class="st5" d="M88.3,214.4c0.3,0.6,0.7,1.2,1,1.8C89,215.7,88.7,215.1,88.3,214.4z"/>
	<path class="st5" d="M89.4,216.3c0.5,0.3,1,0.7,1.4,1C90.3,216.9,89.8,216.6,89.4,216.3z"/>
	<path class="st5" d="M94.6,206.8c-0.3,0-0.6,0.1-1,0.1C93.9,206.9,94.2,206.9,94.6,206.8z"/>
	<path class="st11" d="M145.1,228.8c0.1-0.1,0.1-0.3,0.2-0.4c0.1,0,0.3,0.1,0.4,0.2c-0.1,0.1-0.1,0.3-0.2,0.4
		C145.4,229,145.2,228.9,145.1,228.8z"/>
	<path class="st5" d="M523.1,209.4c-0.9-0.7-1.9-1.4-2.8-2C522.6,206.4,523.1,206.8,523.1,209.4z"/>
	<path class="st5" d="M518.5,203.5c-0.4,0.4-0.6,0.7-0.8,0.7c-0.2,0-0.4-0.3-0.6-0.4c0.2-0.2,0.3-0.5,0.5-0.6
		C517.8,203.1,518,203.3,518.5,203.5z"/>
	<path class="st5" d="M523.2,215.4c0.2-0.5,0.4-1,0.5-1.4c0.2,0.2,0.5,0.4,0.7,0.7C524,214.9,523.6,215.1,523.2,215.4z"/>
	<path class="st5" d="M523.7,211.1c-0.2-0.5-0.3-1-0.5-1.4c0.4,0.3,0.8,0.5,1.2,0.8C524.2,210.7,523.9,210.9,523.7,211.1z"/>
	<path class="st11" d="M466.1,218.3c0.3,0,0.6,0,0.9,0c-0.1,0.4-0.2,0.8-0.3,1.2c-0.1,0-0.2,0-0.4,0
		C466.3,219.1,466.2,218.7,466.1,218.3z"/>
	<path class="st5" d="M513.6,218.2c0.5,0,1,0,1.4,0C514.6,218.2,514.1,218.2,513.6,218.2z"/>
	<path class="st7" d="M489.7,232.8c-0.1-0.1-0.2-0.2-0.2-0.4c0.1,0,0.3,0,0.4,0C489.8,232.6,489.8,232.7,489.7,232.8z"/>
	<path class="st12" d="M264.3,569.2c-0.1,3.1-0.3,6.2-0.4,9.2c-0.3,5.2-3.3,8.2-8,9.7c-3.8,1.2-7.8,1.5-11.7,0.6
		c-6.3-1.4-9-4.4-9.7-11.7c-1-9.7-1.7-19.5-2.5-29.3c-1.1-15-2.2-30.1-3.2-45.1c-0.6-8-1-16.1-1.5-24.1c-1.1-16.6-2.2-33.3-3.2-49.9
		c-0.5-8-1-16.1-1.5-24.1c-0.9-14.5-1.9-29-2.8-43.5c-0.5-8.4-1-16.9-1.6-25.3c-0.8-12.4-1.8-24.7-2.6-37.1
		c-0.5-8.2-0.2-16.3,1.8-24.2c2.8-10.8,13.5-15.9,23.8-11.4c3.9,1.7,6.5,4.7,7.7,8.6c1.8,6.2,3.8,12.5,4.3,18.8
		c1,12,1.1,24.1,1.6,36.2c0.8,20.7,1.6,41.4,2.5,62.1c0.4,9.2,0.9,18.3,1.2,27.5c0.7,17.5,1.4,34.9,2,52.4c0.5,11.7,1,23.4,1.4,35.1
		c0.7,18.6,1.3,37.1,1.9,55.7c0.1,3.3,0,6.6,0,10C264,569.2,264.1,569.2,264.3,569.2z M254.3,569.1c-0.2-3.7-0.4-6.6-0.5-9.4
		c-0.5-10.6-0.9-21.2-1.4-31.7c-0.8-18-1.6-36-2.5-54c-0.9-19.3-1.9-38.7-2.8-58c-0.4-8.8-0.9-17.7-1.3-26.5
		c-1-20.4-2-40.9-2.9-61.3c-0.5-11.8-0.9-23.5-1.6-35.3c-0.3-4.8-1.2-9.5-2.2-14.2c-0.7-3.2-2.8-4.5-5.7-4.3c-3.1,0.2-5.1,1.7-5.3,5
		c-0.4,7-0.6,14-0.3,21c0.7,14.6,1.7,29.2,2.6,43.8c0.8,13.4,1.6,26.8,2.3,40.2c1.1,19.9,2.2,39.8,3.4,59.6
		c0.6,10.9,1.3,21.8,1.9,32.7c1.1,19.3,2.2,38.7,3.3,58c0.7,11.3,1.3,22.6,2.1,33.8c0.2,2.6,0.7,5.2,1.3,7.7c0.6,2.3,2.5,3,4.6,2.8
		c2.1-0.2,4-0.8,4.4-3.2C254.1,573.3,254.2,570.8,254.3,569.1z"/>
	<path class="st12" d="M347.8,568.1c0.7-20.5,1.4-40.9,2.1-61.4c0.4-11.4,0.9-22.7,1.4-34.1c0.8-19.8,1.6-39.6,2.4-59.5
		c0.4-10.7,0.9-21.5,1.4-32.2c0.8-20.2,1.6-40.4,2.4-60.6c0.3-8.4,0.5-16.7,0.9-25.1c0.4-7.9,1.6-15.7,4.6-23.1
		c4.2-10.6,17.7-14.1,26.6-6.9c3,2.4,4.4,5.9,5.3,9.6c1.9,8.1,2.3,16.4,1.6,24.7c-0.7,7.8-1.1,15.6-1.6,23.4
		c-0.9,13.5-1.8,27-2.7,40.4c-0.5,7.7-1,15.5-1.5,23.2c-1.1,17.2-2.2,34.4-3.3,51.6c-0.7,11.4-1.3,22.9-2.1,34.3
		c-1,15.4-2.1,30.9-3.2,46.3c-0.7,10.2-1.2,20.3-2,30.5c-0.8,10-1.6,20-2.8,29.9c-0.7,6.2-4.6,9.5-10.9,9.9
		c-2.7,0.2-5.6,0.1-8.2-0.4c-7.3-1.5-10-5-10.2-12.4c-0.1-2.7,0-5.4,0-8.1C347.9,568.1,347.8,568.1,347.8,568.1z M357.7,568
		c0.1,0,0.1,0,0.2,0c0,2.1-0.2,4.3,0,6.4c0.4,3.3,1.9,4.5,5,4.5c2.7,0,4.3-1.1,4.8-4.2c0.7-4.3,1.1-8.6,1.4-12.9
		c1-15.4,1.9-30.7,2.8-46.1c0.8-13.9,1.6-27.8,2.4-41.6c1-16.6,1.9-33.3,2.8-49.9c0.8-14.2,1.6-28.4,2.4-42.6
		c0.9-16.6,1.9-33.3,2.9-49.9c0.8-13.9,1.6-27.8,2.2-41.7c0.2-3.7-0.3-7.4-0.8-11.1c-0.4-3-2.3-4.4-5.3-4.5
		c-2.7-0.2-4.5,1.1-5.6,3.9c-0.4,1.1-0.8,2.3-0.9,3.4c-0.8,10.4-1.7,20.8-2.3,31.2c-0.6,9.9-1,19.7-1.4,29.6c-1,21.2-2,42.3-3,63.5
		c-0.3,7.4-0.7,14.8-1,22.3c-0.9,17.8-1.8,35.7-2.7,53.5c-0.5,9.2-0.9,18.5-1.3,27.7C359.4,528.9,358.6,548.5,357.7,568z"/>
	<path class="st13" d="M404,572.1c0.7-8.7,1.5-19.4,2.5-30.2c0.8-9.3,1.8-18.6,2.7-27.8c1-10.8,2.1-21.5,3.2-32.3
		c1-10.1,2-20.3,3-30.4c1.2-12.3,2.5-24.7,3.7-37c0.8-8.4,1.6-16.8,2.5-25.2c1.1-10.6,2.2-21.2,3.2-31.8c1-10.5,2-21.1,3-31.6
		c1.4-13.3,2.5-26.6,4.4-39.8c0.8-5.4,2.9-10.7,5.3-15.6c3.1-6.6,8.5-8.9,16.9-7.9c6.8,0.8,11.5,4.8,13.2,11.5
		c2.3,9.2,2,18.5,0.7,27.8c-1.5,11.8-3,23.6-4.5,35.5c-1.7,13.6-3.4,27.3-5.1,40.9c-1.4,11.1-2.6,22.1-4,33.2
		c-1.5,12.3-3,24.6-4.5,36.9c-1.5,12.3-3,24.6-4.5,36.9c-1.5,12.3-3.1,24.6-4.6,36.9c-1.6,12.8-3.2,25.5-4.9,38.3
		c-0.8,6.2-1.8,12.4-2.9,18.5c-1.5,7.7-6.6,10.4-16.1,9.6c-0.6-0.1-1.2-0.2-1.9-0.3C407.1,586.5,403.9,582.6,404,572.1z
		 M457.4,289.1c-0.1,0-0.2,0-0.3,0c0-2.8,0.2-5.7,0-8.5c-0.2-3.2-1.9-5-4.4-5.4c-3.6-0.5-5.3,0.4-6.7,3.8c-0.5,1.3-1,2.7-1.2,4.1
		c-1.2,8.3-2.4,16.6-3.3,24.9c-1.3,11.4-2.3,22.8-3.5,34.2c-1.5,14.1-3.1,28.3-4.6,42.4c-1.3,12.6-2.6,25.1-4,37.7
		c-1.5,14.1-3.1,28.3-4.6,42.4c-1.5,14.3-3,28.6-4.4,42.9c-2,19.2-4,38.3-6,57.5c-0.3,3-0.3,6.1-0.2,9.2c0.1,2.4,1.6,3.7,4,3.9
		c3.2,0.3,4.4-0.4,5.4-3c0.3-0.9,0.6-1.8,0.7-2.7c1.2-8.8,2.3-17.7,3.4-26.5c1.7-14.3,3.4-28.7,5.1-43c1.5-13,2.9-26.1,4.4-39.1
		c1.7-14.7,3.4-29.3,5.1-44c1.2-10.2,2.3-20.4,3.5-30.6c1.5-13.3,3.1-26.5,4.6-39.8c1.2-10.4,2.4-20.7,3.6-31.1
		C455.2,308.5,456.3,298.8,457.4,289.1z"/>
	<path class="st12" d="M324.4,302.4c0,16.1,0.1,32.3,0,48.4c-0.1,13.3-0.3,26.6-0.4,39.9c-0.2,15.4-0.3,30.8-0.5,46.3
		c-0.2,13.5-0.3,27-0.5,40.6c-0.3,21.8-0.5,43.7-1,65.5c-0.2,11.2-0.7,22.4-1.2,33.6c-0.4,8.3-4,12-12.4,12.7
		c-3,0.2-6.2-0.2-9.1-0.9c-5-1.2-7.5-4.8-7.9-9.8c-0.4-5-0.8-10.1-0.9-15.1c-0.3-14.7-0.5-29.4-0.7-44.1
		c-0.2-12.9-0.3-25.8-0.5-38.7c-0.2-12.3-0.3-24.7-0.5-37c-0.2-14.9-0.3-29.9-0.5-44.8c-0.2-14.4-0.3-28.8-0.5-43.2
		c-0.1-12.4-0.3-24.8-0.5-37.3c-0.1-8.6-0.4-17.2-0.4-25.9c0-6.8,1-13.6,3.3-20c3.6-10.1,14.8-14.3,24.3-9.2c3.7,2,6.1,5.1,7,8.9
		c1.5,6.3,2.6,12.7,3.4,19.1c0.5,3.7,0.1,7.4,0.1,11.1C324.8,302.4,324.6,302.4,324.4,302.4z M312.5,296.9c0,0,0.1,0,0.1,0
		c0-3.9,0.2-7.8-0.1-11.6c-0.2-2.6-0.7-5.2-1.4-7.7c-0.8-2.6-2.4-3.5-5.3-3.5c-2.8,0-4.5,1-5.1,3.7c-0.7,3-1.3,6-1.4,9.1
		c-0.2,6.6-0.2,13.3-0.1,19.9c0.1,33.1,0.3,66.1,0.5,99.2c0.2,35.7,0.3,71.3,0.5,107c0.1,16.5,0.1,32.9,0.2,49.4
		c0,4.3,0.3,8.5,0.8,12.8c0.4,3,1.7,3.9,4.6,4c3.1,0,4.5-0.8,4.9-3.9c0.5-3.9,0.8-7.9,0.8-11.8c0.2-20.6,0.4-41.1,0.5-61.7
		c0.2-34.2,0.4-68.3,0.5-102.5C312.6,365.1,312.5,331,312.5,296.9z"/>
	<path class="st13" d="M143.2,288.8c0.5-4.2,0.8-9,1.8-13.6c1.8-8.6,6.3-12.5,15.9-13.1c8.6-0.5,12.7,3,15.8,10.3
		c3.6,8.3,5.1,17.2,5.8,26.2c1,12,2.1,23.9,3.2,35.9c0.8,9.2,1.7,18.4,2.5,27.6c1,10.9,2.1,21.9,3.2,32.8c0.9,9.4,1.7,18.7,2.6,28.1
		c1,10.9,2.1,21.7,3.1,32.5c0.9,9.1,1.7,18.2,2.5,27.4c1.1,11.6,2.2,23.3,3.2,34.9c0.8,8.9,1.7,17.8,2.4,26.7
		c0.8,9.8,1.4,19.5,2.1,29.3c0.7,9.2-3.6,13.2-13.3,14.6c-1.6,0.2-3.3,0.1-5,0c-5.9-0.4-9.6-3.1-10.7-9c-1.5-8.1-2.7-16.4-3.8-24.6
		c-1.6-12.4-3.1-24.8-4.6-37.1c-1.4-11.3-2.6-22.6-4-33.9c-1.5-12.9-3.1-25.7-4.6-38.6c-1.4-11.7-2.7-23.4-4-35.1
		c-1.3-11.2-2.6-22.4-3.9-33.7c-1.2-10.4-2.4-20.7-3.7-31.1c-1.7-13.8-3.4-27.6-5-41.4C144.1,299.2,143.7,294.3,143.2,288.8z
		 M197.1,571.1c0.1,0,0.1,0,0.2,0c-0.9-9.6-1.7-19.2-2.6-28.8c-1.2-12.1-2.4-24.2-3.6-36.3c-0.9-8.6-1.7-17.3-2.6-25.9
		c-1.2-11.7-2.4-23.4-3.6-35.1c-1-10.2-2-20.4-3-30.6c-1.2-11.7-2.4-23.4-3.6-35.1c-1.2-11.8-2.3-23.6-3.5-35.4
		c-1.7-16.9-3.3-33.8-5.2-50.7c-0.5-4.9-1.7-9.8-3-14.6c-0.8-2.9-2.9-4-5.3-3.8c-3.4,0.3-5.2,1.5-5.4,4.8c-0.3,5.7-0.3,11.4,0.2,17
		c1.1,12.3,2.7,24.5,4,36.7c1.3,12.1,2.6,24.2,3.9,36.3c1.3,12.2,2.7,24.5,4.1,36.7c1.4,12.4,2.6,24.8,4,37.2
		c1.5,13.5,3.1,27,4.5,40.5c1.3,12.2,2.6,24.5,4,36.7c1.5,13.7,3.1,27.3,4.7,40.9c0.5,4.5,1.3,8.9,2.2,13.3c0.6,2.7,2.2,3.4,4.7,3.2
		c3-0.3,4.3-1.4,4.7-4C197.2,573.2,197.1,572.2,197.1,571.1z"/>
	<path class="st3" d="M461.7,230.3c0.1,0.1,0.3,0.1,0.4,0.2c-0.1,0.1-0.1,0.3-0.2,0.4c-0.1,0-0.3-0.1-0.4-0.1
		C461.6,230.6,461.7,230.4,461.7,230.3z"/>
	<path class="st10" d="M254.3,569.1c-0.1,1.6-0.3,4.2-0.6,6.6c-0.4,2.4-2.3,3-4.4,3.2c-2.2,0.2-4.1-0.5-4.6-2.8
		c-0.6-2.5-1.1-5.1-1.3-7.7c-0.8-11.3-1.4-22.6-2.1-33.8c-1.1-19.3-2.2-38.6-3.3-58c-0.6-10.9-1.3-21.8-1.9-32.7
		c-1.1-19.9-2.2-39.8-3.4-59.6c-0.8-13.4-1.5-26.8-2.3-40.2c-0.9-14.6-2-29.2-2.6-43.8c-0.3-7-0.1-14,0.3-21c0.2-3.4,2.1-4.8,5.3-5
		c2.9-0.2,5,1.1,5.7,4.3c1,4.7,1.9,9.5,2.2,14.2c0.7,11.8,1.1,23.5,1.6,35.3c1,20.4,1.9,40.9,2.9,61.3c0.4,8.8,0.9,17.7,1.3,26.5
		c1,19.3,1.9,38.7,2.8,58c0.9,18,1.7,36,2.5,54c0.5,10.6,0.9,21.2,1.4,31.7C254,562.5,254.1,565.4,254.3,569.1z"/>
	<path class="st10" d="M357.7,568c0.8-19.6,1.7-39.2,2.5-58.7c0.4-9.2,0.9-18.5,1.3-27.7c0.9-17.8,1.8-35.7,2.7-53.5
		c0.4-7.4,0.7-14.8,1-22.3c1-21.2,2-42.3,3-63.5c0.5-9.9,0.8-19.7,1.4-29.6c0.6-10.4,1.5-20.8,2.3-31.2c0.1-1.2,0.5-2.3,0.9-3.4
		c1-2.8,2.8-4,5.6-3.9c2.9,0.2,4.8,1.6,5.3,4.5c0.5,3.7,1,7.4,0.8,11.1c-0.6,13.9-1.5,27.8-2.2,41.7c-0.9,16.6-1.9,33.3-2.9,49.9
		c-0.8,14.2-1.6,28.4-2.4,42.6c-0.9,16.6-1.9,33.3-2.8,49.9c-0.8,13.9-1.6,27.8-2.4,41.6c-0.9,15.4-1.8,30.8-2.8,46.1
		c-0.3,4.3-0.7,8.7-1.4,12.9c-0.5,3.1-2,4.3-4.8,4.2c-3.1,0-4.6-1.2-5-4.5c-0.3-2.1,0-4.3,0-6.4C357.9,568,357.8,568,357.7,568z"/>
	<path class="st10" d="M457.4,289.1c-1.1,9.7-2.2,19.5-3.4,29.2c-1.2,10.4-2.4,20.7-3.6,31.1c-1.5,13.3-3.1,26.5-4.6,39.8
		c-1.2,10.2-2.3,20.4-3.5,30.6c-1.7,14.7-3.4,29.3-5.1,44c-1.5,13-2.9,26.1-4.4,39.1c-1.7,14.4-3.4,28.7-5.1,43
		c-1.1,8.9-2.3,17.7-3.4,26.5c-0.1,0.9-0.4,1.9-0.7,2.7c-1,2.6-2.2,3.3-5.4,3c-2.4-0.2-3.9-1.5-4-3.9c-0.1-3.1-0.1-6.2,0.2-9.2
		c1.9-19.2,4-38.3,6-57.5c1.5-14.3,2.9-28.6,4.4-42.9c1.5-14.1,3.1-28.3,4.6-42.4c1.3-12.6,2.6-25.1,4-37.7
		c1.5-14.1,3.1-28.3,4.6-42.4c1.2-11.4,2.2-22.8,3.5-34.2c0.9-8.3,2.1-16.6,3.3-24.9c0.2-1.4,0.7-2.8,1.2-4.1
		c1.3-3.4,3.1-4.3,6.7-3.8c2.5,0.4,4.2,2.2,4.4,5.4c0.2,2.8,0,5.7,0,8.5C457.2,289,457.3,289.1,457.4,289.1z"/>
	<path class="st10" d="M312.5,296.9c0,34.1,0.1,68.2,0,102.3c-0.1,34.2-0.3,68.3-0.5,102.5c-0.1,20.6-0.3,41.1-0.5,61.7
		c0,3.9-0.3,7.9-0.8,11.8c-0.4,3.1-1.8,4-4.9,3.9c-2.9,0-4.3-0.9-4.6-4c-0.5-4.2-0.8-8.5-0.8-12.8c-0.2-16.5-0.2-32.9-0.2-49.4
		c-0.2-35.7-0.3-71.3-0.5-107c-0.2-33.1-0.3-66.1-0.5-99.2c0-6.6-0.1-13.3,0.1-19.9c0.1-3,0.7-6.1,1.4-9.1c0.7-2.7,2.3-3.6,5.1-3.7
		c2.9,0,4.5,0.9,5.3,3.5c0.7,2.5,1.3,5.1,1.4,7.7c0.2,3.9,0.1,7.7,0.1,11.6C312.6,296.9,312.6,296.9,312.5,296.9z"/>
	<path class="st10" d="M197.1,571.1c0,1,0.1,2.1,0,3.1c-0.4,2.7-1.7,3.7-4.7,4c-2.6,0.3-4.2-0.5-4.7-3.2c-1-4.4-1.7-8.8-2.2-13.3
		c-1.6-13.6-3.2-27.3-4.7-40.9c-1.4-12.2-2.6-24.5-4-36.7c-1.5-13.5-3.1-27-4.5-40.5c-1.4-12.4-2.6-24.8-4-37.2
		c-1.3-12.2-2.7-24.5-4.1-36.7c-1.3-12.1-2.6-24.2-3.9-36.3c-1.4-12.2-2.9-24.5-4-36.7c-0.5-5.6-0.5-11.3-0.2-17
		c0.2-3.4,2-4.5,5.4-4.8c2.4-0.2,4.5,0.9,5.3,3.8c1.3,4.8,2.5,9.6,3,14.6c1.9,16.9,3.5,33.8,5.2,50.7c1.2,11.8,2.3,23.6,3.5,35.4
		c1.2,11.7,2.4,23.4,3.6,35.1c1,10.2,2,20.4,3,30.6c1.2,11.7,2.4,23.4,3.6,35.1c0.9,8.6,1.7,17.3,2.6,25.9
		c1.2,12.1,2.5,24.2,3.6,36.3c0.9,9.6,1.8,19.2,2.6,28.8C197.2,571.1,197.1,571.1,197.1,571.1z"/>
</g>
</svg>
