<?xml version="1.0" encoding="utf-8"?>
<!-- Generator: Adobe Illustrator 26.0.1, SVG Export Plug-In . SVG Version: 6.00 Build 0)  -->
<svg version="1.1" id="Layer_1" xmlns="http://www.w3.org/2000/svg" xmlns:xlink="http://www.w3.org/1999/xlink" x="0px" y="0px"
	 viewBox="0 0 612 792" style="enable-background:new 0 0 612 792;" xml:space="preserve">
<style type="text/css">
	.st0{display:none;fill:#010000;}
	.st1{fill:#FEFEFE;}
	.st2{fill:#E11106;}
	.st3{fill:#E21106;}
	.st4{fill:#E61206;}
	.st5{fill:#E51206;}
	.st6{fill:#E41106;}
	.st7{display:none;fill:#030000;}
	.st8{fill:#E31206;}
	.st9{fill:#E21206;}
</style>
<g>
	<path class="st0" d="M612.5,139.5c0,171.2,0,342.3,0,513.5c-204.2,0-408.3,0-612.5,0c0-171.1,0-342.3,0-513.5
		C204.3,139.5,408.4,139.5,612.5,139.5z M120.3,250.9c-0.3,0-0.6,0-1,0c-2.2,0.1-4.4,0.1-6.6,0.4c-3.1,0.4-4.4,2-4.8,5.1
		c0,0.6,0,1.3,0,1.9c0.4,1.3,0.8,2.5,1.2,3.8c0.6,0.8,1.2,1.9,1.8,0.1c0.3,2.3,2.1,2.1,3.7,2.2c0.3,3.3,0.6,6.6,0.9,9.9
		c1,9.5,2,19,3.2,28.5c1.6,13.4,3.3,26.8,4.9,40.3c1.7,13.7,3.3,27.5,4.9,41.2c1.5,12.2,3.1,24.3,4.6,36.5c1.7,13.7,3.3,27.3,5,41
		c1.8,14.3,3.6,28.6,5.4,42.9c1.5,12.1,3,24.2,4.6,36.2c2.1,15.7,4.1,31.4,6.4,47c2.2,14.6,4.8,29.2,7.1,43.8
		c1.7,10.7,8.2,16.4,18.5,18.1c4.1,0.7,8.3,1,12.5,1.1c19.1,0.1,38.2,0.1,57.3,0.1c55.1,0,110.2,0,165.2-0.1
		c6.1,0,12.2-0.3,18.2-1.4c8.4-1.6,14.8-6,16.5-15.2c1.9-10.1,3.9-20.2,5.5-30.3c1.7-10.5,3-21,4.4-31.5c1.7-12.8,3.5-25.7,5.1-38.5
		c1.3-10.3,2.6-20.5,3.9-30.8c1.4-11,2.8-22,4.2-32.9c1.5-11.9,2.9-23.7,4.3-35.6c1.2-9.9,2.5-19.8,3.7-29.6
		c1.3-10.8,2.6-21.7,3.9-32.5c1.5-12.3,3.1-24.6,4.6-36.9c1.4-11.1,2.7-22.3,4-33.4c1.4-12.6,2.7-25.2,4-37.7c5-0.7,6.5-1.9,6.7-5.6
		c0-0.5,0-1,0.1-1.4c-0.1-4.3-1.9-6-6.7-6.2c-0.6-0.1-1.3-0.1-1.9-0.2c-6.2-0.1-12.4-0.1-18.6-0.2c-1.1,0-2.2,0-3.3,0
		c-0.8,0-1.6,0-2.4,0c-0.8,0-1.6-0.1-2.4-0.1c-35.3,0-70.6,0-106,0c-66.5,0-132.9,0-199.4,0c-13.1,0-26.3,0.1-39.4,0.1
		c-0.5,0-1,0-1.4,0c-0.5,0-1,0-1.4,0C121.2,250.9,120.8,250.9,120.3,250.9z M505.9,248.3c9,0.1,15.8-2,20.9-5.6
		c5.6-4,7.6-12.3,4.1-18.2c-3.8-6.4-9.4-10.6-16.4-12.6c-6.4-1.8-12.9-2.9-19.5-4.1c-15.4-2.7-30.9-5.3-46.3-7.9
		c-13.7-2.3-27.4-4.6-41.2-6.9c-10.8-1.8-21.7-3.7-32.5-5.5c-5.8-1-11.5-2-17.3-2.9c-2.2-0.4-3.2-1.2-2.6-3.7
		c0.5-1.9,0.6-3.9,0.9-5.9c0.4-3.9,0.4-7.8-1.9-11.2c-4.1-6.1-9.7-10.2-17-11.5c-8.1-1.4-16.2-2.9-24.3-4.2c-5-0.8-10-1.8-15-1.8
		c-10.4-0.1-18,6.2-20.4,16c-0.4,1.8-0.9,3.7-1.1,5.6c-0.2,2.2-1.3,2.6-3.2,2.3c-11.3-1.9-22.6-3.7-33.9-5.6
		c-18.6-3.1-37.3-6.3-55.9-9.4c-20.9-3.5-41.8-7.1-62.7-10.6c-8.9-1.5-17.4-0.5-25,4.7c-6.6,4.4-8.3,13.6-3.7,20.1
		c5.5,7.7,13.4,11.4,22.4,13c22.2,3.8,44.4,7.6,66.6,11.4c20.8,3.5,41.6,7,62.4,10.5c19.9,3.3,39.8,6.6,59.6,10
		c14.7,2.5,29.3,5.1,43.9,7.5c17.3,2.9,34.6,5.8,52,8.7c15.7,2.6,31.3,5.3,47,8c13.7,2.3,27.4,4.7,41.1,7
		C494.1,246.5,501.1,247.5,505.9,248.3z"/>
	<path class="st1" d="M612.5,139.5c-204.1,0-408.2,0-612.5,0C0,310.7,0,481.9,0,653c-0.2-0.1-0.4-0.2-0.5-0.2c0-0.6,0-1.3,0-1.9
		c0-170.6,0-341.2,0-511.9c1.4,0,2.8,0,4.2,0c202.2,0,404.5,0,606.7,0C611.1,139,611.8,139.3,612.5,139.5z"/>
	<path class="st2" d="M497.7,264.5c-1.3,12.6-2.6,25.2-4,37.7c-1.2,11.2-2.6,22.3-4,33.4c-1.5,12.3-3.1,24.6-4.6,36.9
		c-1.3,10.8-2.6,21.7-3.9,32.5c-1.2,9.9-2.5,19.8-3.7,29.6c-1.5,11.9-2.9,23.7-4.3,35.6c-1.4,11-2.8,22-4.2,32.9
		c-1.3,10.3-2.6,20.5-3.9,30.8c-1.7,12.9-3.4,25.7-5.1,38.5c-1.4,10.5-2.8,21-4.4,31.5c-1.6,10.1-3.7,20.2-5.5,30.3
		c-1.7,9.2-8.1,13.6-16.5,15.2c-5.9,1.1-12.1,1.4-18.2,1.4c-55.1,0.1-110.2,0.1-165.2,0.1c-19.1,0-38.2,0-57.3-0.1
		c-4.2,0-8.4-0.4-12.5-1.1c-10.3-1.7-16.8-7.5-18.5-18.1c-2.3-14.6-4.9-29.2-7.1-43.8c-2.3-15.6-4.3-31.3-6.4-47
		c-1.6-12.1-3.1-24.2-4.6-36.2c-1.8-14.3-3.7-28.6-5.4-42.9c-1.7-13.7-3.3-27.3-5-41c-1.5-12.2-3.1-24.3-4.6-36.5
		c-1.7-13.7-3.3-27.5-4.9-41.2c-1.6-13.4-3.3-26.8-4.9-40.3c-1.1-9.5-2.1-19-3.2-28.5c-0.4-3.3-0.6-6.6-0.9-9.9
		c1.8,0,3.5,0.1,5.3,0.1c3.8,0.1,7.5,0.2,11.3,0.3c0,0.4,0,0.8,0,1.2c1.7,12.5,3.5,25,5.1,37.6c1.5,11.6,2.8,23.2,4.2,34.8
		c1.4,11.9,2.9,23.9,4.4,35.8c1.3,11.2,2.6,22.3,4,33.5c1.5,12.4,3.1,24.8,4.6,37.2c1.5,12.4,2.9,24.8,4.4,37.2
		c1.7,13.8,3.4,27.6,5.1,41.4c1.6,13.5,3.2,27,4.9,40.5c1.7,13.3,3.2,26.7,5.2,40c1.1,7.1,2.8,14.1,4.7,21c1.3,4.6,4.8,7.4,9.6,8.1
		c1.8,0.3,3.6,0.4,5.4,0.4c23.8,0,47.7,0.1,71.5,0.1c39.7,0,79.4,0,119.1,0c13.4,0,26.8-0.2,40.1-0.4c5.3-0.1,9.2-2.9,10.7-7.9
		c1.9-6.1,3.5-12.3,4.5-18.6c1.6-10.1,2.8-20.4,4-30.6c1.7-13.9,3.4-27.8,5.1-41.7c1.2-9.9,2.4-19.8,3.7-29.7
		c1.5-11.9,2.9-23.7,4.4-35.6c1.1-8.8,2-17.6,3.1-26.4c1.8-15.2,3.7-30.3,5.6-45.4c1.7-13.5,3.3-27,4.9-40.5
		c1.5-12.2,3-24.5,4.5-36.7c1.4-11.3,2.7-22.6,4.2-33.9c0.9-7.1,2-14.2,3-21.4c5-0.2,9.9-0.5,14.9-0.7
		C496.7,264.1,497.2,264.3,497.7,264.5z"/>
	<path class="st3" d="M505.9,248.3c-4.7-0.7-11.8-1.8-18.8-2.9c-13.7-2.3-27.4-4.7-41.1-7c-15.7-2.7-31.3-5.4-47-8
		c-17.3-2.9-34.6-5.7-52-8.7c-14.7-2.5-29.3-5.1-43.9-7.5c-19.9-3.4-39.8-6.6-59.6-10c-20.8-3.5-41.6-7-62.4-10.5
		c-22.2-3.8-44.4-7.5-66.6-11.4c-9-1.6-16.9-5.3-22.4-13c-4.7-6.5-2.9-15.7,3.7-20.1c7.7-5.1,16.1-6.2,25-4.7
		c20.9,3.5,41.8,7.1,62.7,10.6c18.6,3.2,37.3,6.3,55.9,9.4c11.3,1.9,22.6,3.7,33.9,5.6c1.9,0.3,3-0.1,3.2-2.3
		c0.2-1.9,0.6-3.8,1.1-5.6c2.3-9.9,9.9-16.1,20.4-16c5,0,10,1,15,1.8c8.1,1.3,16.2,2.8,24.3,4.2c7.4,1.3,12.9,5.3,17,11.5
		c2.3,3.4,2.3,7.3,1.9,11.2c-0.2,2-0.3,4-0.9,5.9c-0.7,2.4,0.4,3.3,2.6,3.7c5.8,0.9,11.5,1.9,17.3,2.9c10.8,1.8,21.7,3.7,32.5,5.5
		c13.7,2.3,27.4,4.6,41.2,6.9c15.4,2.6,30.9,5.2,46.3,7.9c6.5,1.1,13.1,2.3,19.5,4.1c7,2,12.6,6.2,16.4,12.6
		c3.5,5.9,1.6,14.3-4.1,18.2C521.6,246.3,514.8,248.4,505.9,248.3z M508.9,234.6c4.9,0.1,6.5-1.2,7-4.1c0.5-2.7-0.8-4.5-3.9-5.6
		c-1.7-0.6-3.5-1-5.3-1.3c-18.9-3.2-37.7-6.4-56.6-9.6c-18.3-3.1-36.6-6.3-54.9-9.4c-24.9-4.2-49.7-8.3-74.6-12.5
		c-27-4.6-54.1-9.2-81.1-13.8c-23.7-4-47.4-8-71.1-12c-16.3-2.8-32.6-5.6-48.9-8.3c-2.9-0.5-5.8-0.9-8.7-0.9c-2.8,0-4.4,1.7-4.7,4.1
		c-0.4,2.6,0.6,4.5,3.3,5.3c3.3,1,6.7,1.7,10.1,2.3c20.3,3.5,40.7,6.9,61,10.3c15.5,2.6,31,5.2,46.5,7.9c17.3,2.9,34.6,5.8,51.9,8.8
		c20.8,3.5,41.6,7.1,62.4,10.6c19.4,3.3,38.8,6.5,58.2,9.8c15.7,2.6,31.3,5.3,47,7.9c15.4,2.6,30.9,5.3,46.3,7.9
		C498.6,233,504.4,233.9,508.9,234.6z M301.9,160.8c-6.4-0.2-8.2,1.1-9.6,5.7c-0.4,1.3-0.6,2.6-0.9,3.9c-0.5,2.9-0.5,2.9,2.5,3.4
		c13.4,2.2,26.8,4.5,40.2,6.8c6.6,1.1,5.4,1.2,6.3-4.6c0.9-6-1.2-8.7-7.1-9.9c-4.2-0.8-8.4-1.5-12.6-2.2
		C313.9,162.8,307.1,161.6,301.9,160.8z"/>
	<path class="st4" d="M124.6,250.9c13.1,0,26.3-0.1,39.4-0.1c66.5,0,132.9,0,199.4,0c35.3,0,70.6,0,106,0c0.8,0,1.6,0.1,2.4,0.1
		c-0.6,0.6-1,1.6-1.7,1.7c-4.1,0.8-8.5-0.7-12.5,1.4c-0.3,0.1-0.8-0.3-1.3-0.4c-1.9-0.4-3.8-0.9-6.3-1.4c1.4,1.3,2.2,2,3.2,3
		c0.2,0,0.9,0,1.9-0.1c-1,3,0.6,4.7,2.2,6.7c0.8-2,1.5-3.7,2.2-5.4c0.2,0.1,0.3,0.2,0.5,0.3c0,1.9,0,3.8,0,5.6c-4.2,1.6-5.3,1-7.4-4
		c-1.1,0.8-2.1,1.5-3.1,2.3c0,1-0.4,2.3-0.9,2.3c-2.3,0.2-4.7,0.1-7.1,0.2c-1.6,0.1-3.8-1-4.5,1.6c-1.3,0-2.5,0.1-3.8,0.1
		c-82.3,0-164.6,0-246.9,0c-14.1,0-28.2-0.1-42.3-0.1c-0.4-0.4-0.8-1-1.4-1.1c-1.7-0.5-3.5-0.8-5.2-1.2c-0.4-0.1-0.9-0.3-1.1-0.2
		c-3,2-6.3,0.7-9.4,0.7c-1.7,0-3.4-0.7-5.8-1.2c-1.2,0.2-3.3,0.6-5.7,1.1c0.8-3.2,3.6-5.5,5.9-5.2c1.9,0.3,2.7-0.4,2.7-2.2
		c0.9,0.3,1.9,0.7,2.8,0.8c0.7,0.1,1.4-0.3,2-0.7c0.2-0.1,0-0.8-0.1-1.2c-2.2,0.6-1.9-2.8-4-2.5
		C124.8,251.9,124.7,251.2,124.6,250.9z"/>
	<path class="st5" d="M437,264.8c0.8-2.6,2.9-1.5,4.5-1.6c2.4-0.1,4.7,0,7.1-0.2c0.5-0.1,0.9-1.3,0.9-2.3c1-0.8,2.1-1.5,3.1-2.3
		c2.1,5,3.2,5.6,7.4,4c0-1.8,0-3.7,0-5.6c-0.2-0.1-0.3-0.2-0.5-0.3c-0.7,1.7-1.4,3.3-2.2,5.4c-1.6-2-3.2-3.7-2.2-6.7
		c-1,0-1.7,0.1-1.9,0.1c-1.1-1-1.9-1.8-3.2-3c2.5,0.6,4.4,1,6.3,1.4c0.4,0.1,1,0.6,1.3,0.4c4-2.1,8.4-0.6,12.5-1.4
		c0.7-0.1,1.1-1.1,1.7-1.7c0.8,0,1.6,0,2.4,0c0.4,0.6,0.9,1.1,1.3,1.7c0.7-0.6,1.3-1.1,2-1.7c6.2,0.1,12.4,0.1,18.6,0.2
		c0.6,0.1,1.3,0.1,1.9,0.2c4.8,0.2,6.5,1.8,6.7,6.2c-0.4,0.2-0.8,0.4-1.3,0.6c0.4,0.3,0.8,0.6,1.2,0.8c-0.2,3.7-1.7,5-6.7,5.6
		c-0.5-0.1-1-0.4-1.6-0.4c-5,0.2-9.9,0.5-14.9,0.7c-2,0-4.1,0.1-6.1,0.1C462.4,264.8,449.7,264.8,437,264.8z M467.4,260.3
		c-1.2,0.8-2.3,1.6-3.4,2.3C467.1,263.1,468.1,262.4,467.4,260.3z M462.1,259.3c-0.2-0.2-0.4-0.4-0.5-0.4c-0.2,0-0.4,0.1-0.6,0.2
		c0.2,0.2,0.3,0.4,0.5,0.5C461.6,259.7,461.9,259.5,462.1,259.3z"/>
	<path class="st6" d="M124.6,250.9c0.1,0.4,0.3,1,0.3,1c2-0.2,1.8,3.1,4,2.5c0,0.4,0.2,1.1,0.1,1.2c-0.6,0.3-1.3,0.7-2,0.7
		c-1-0.1-1.9-0.5-2.7-0.5c-0.3-2.1-1.6-2.2-3-2c-0.4,0.1-0.6,0.9-0.9,1.4c1.1,0.3,2.3,0.5,3.9,0.6c-0.2,1.5-0.9,2.2-2.8,1.9
		c-2.2-0.3-5.1,2-5.9,5.2c2.4-0.4,4.5-0.8,5.7-1.1c2.4,0.5,4.1,1.2,5.8,1.2c3.1,0,6.4,1.3,9.4-0.7c0.2-0.2,0.7,0.1,1.1,0.2
		c1.7,0.4,3.5,0.7,5.2,1.2c0.5,0.1,0.9,0.7,1.4,1.1c-4.3,0-8.6,0-12.9,0c-3.8-0.1-7.5-0.2-11.3-0.3c-1.8,0-3.5-0.1-5.3-0.1
		c-1.6-0.1-3.4,0-3.7-2.2c-0.6,0-1.2,0-1.8-0.1c-0.4-1.3-0.8-2.5-1.2-3.8c0-0.6,0-1.3,0-1.9c0.4-3.1,1.8-4.7,4.8-5.1
		c2.2-0.3,4.4-0.3,6.6-0.4c0.1,0.3,0.2,0.7,0.4,1c0.2-0.4,0.4-0.7,0.6-1.1c0.5,0,1,0,1.4,0c0.2,0.4,0.5,0.8,0.7,1.2
		c0.2-0.4,0.5-0.8,0.7-1.2C123.6,250.9,124.1,250.9,124.6,250.9z"/>
	<path class="st4" d="M477.4,250.9c-0.7,0.6-1.3,1.1-2,1.7c-0.4-0.6-0.9-1.1-1.3-1.7C475.2,250.9,476.3,250.9,477.4,250.9z"/>
	<path class="st4" d="M123.2,250.9c-0.2,0.4-0.5,0.8-0.7,1.2c-0.2-0.4-0.5-0.8-0.7-1.2C122.2,250.9,122.7,250.9,123.2,250.9z"/>
	<path class="st2" d="M497.9,251.2c-0.6-0.1-1.3-0.1-1.9-0.2C496.6,251.1,497.2,251.2,497.9,251.2z"/>
	<path class="st2" d="M108,256.5c0,0.6,0,1.3,0,1.9C107.9,257.7,107.9,257.1,108,256.5z"/>
	<path class="st2" d="M504.5,258.8c-0.4-0.3-0.8-0.6-1.2-0.8c0.4-0.2,0.8-0.4,1.3-0.6C504.5,257.9,504.5,258.3,504.5,258.8z"/>
	<path class="st2" d="M109.1,262.1c0.6,0,1.2,0,1.8,0.1C110.2,264.1,109.7,263,109.1,262.1z"/>
	<path class="st4" d="M120.3,250.9c-0.2,0.4-0.4,0.7-0.6,1.1c-0.1-0.3-0.2-0.7-0.4-1C119.7,250.9,120,250.9,120.3,250.9z"/>
	<path class="st0" d="M131.2,264.8c4.3,0,8.6,0,12.9,0c14.1,0,28.2,0.1,42.3,0.1c82.3,0,164.6,0,246.9,0c1.3,0,2.5-0.1,3.8-0.1
		c12.7,0,25.4,0.1,38.1,0.1c2,0,4.1-0.1,6.1-0.1c-1,7.1-2.1,14.2-3,21.4c-1.4,11.3-2.8,22.6-4.2,33.9c-1.5,12.2-3,24.5-4.5,36.7
		c-1.7,13.5-3.3,27-4.9,40.5c-1.9,15.1-3.7,30.3-5.6,45.4c-1.1,8.8-2,17.6-3.1,26.4c-1.4,11.9-2.9,23.7-4.4,35.6
		c-1.2,9.9-2.4,19.8-3.7,29.7c-1.7,13.9-3.4,27.8-5.1,41.7c-1.3,10.2-2.4,20.4-4,30.6c-1,6.3-2.6,12.5-4.5,18.6
		c-1.5,5-5.4,7.8-10.7,7.9c-13.4,0.2-26.8,0.4-40.1,0.4c-39.7,0-79.4,0-119.1,0c-23.8,0-47.7,0-71.5-0.1c-1.8,0-3.6-0.2-5.4-0.4
		c-4.8-0.7-8.3-3.5-9.6-8.1c-1.9-6.9-3.7-13.9-4.7-21c-2-13.3-3.6-26.6-5.2-40c-1.7-13.5-3.2-27-4.9-40.5
		c-1.7-13.8-3.4-27.6-5.1-41.4c-1.5-12.4-2.9-24.8-4.4-37.2c-1.5-12.4-3.1-24.8-4.6-37.2c-1.4-11.1-2.6-22.3-4-33.5
		c-1.4-11.9-2.9-23.9-4.4-35.8c-1.4-11.6-2.7-23.2-4.2-34.8c-1.6-12.5-3.4-25.1-5.1-37.6C131.2,265.6,131.2,265.2,131.2,264.8z
		 M289.1,451.2c0.3,0,0.7,0,1,0c0,16.7-0.1,33.4,0,50.1c0.2,21.9,0.5,43.8,0.9,65.8c0.2,9.2,0.6,18.4,1,27.5
		c0.3,5.9,3.1,9.3,8.7,10.6c2.4,0.5,5,0.8,7.5,0.6c7.3-0.5,11.2-3.8,12.1-9.8c0.3-2.1,0.5-4.3,0.5-6.4c0.3-10.9,0.7-21.8,0.9-32.8
		c0.4-23.2,0.7-46.4,1-69.6c0.2-12.1,0.3-24.2,0.4-36.3c0.3-30.6,0.7-61.1,1.1-91.7c0.1-9,0.2-18,0.5-27.1c0.3-9.9,0-19.6-3.1-29.1
		c-3.2-9.5-13.1-13.7-22.3-9.8c-5.5,2.4-7.7,7-9.1,12.3c-2.6,10-2.4,20.2-2.2,30.4c0.5,24.5,0.8,49.1,1,73.6
		C289.2,423.5,289.1,437.3,289.1,451.2z M346.2,574.7c0,7.1-0.1,13.4,0,19.6c0.1,4.6,2.1,8.2,6.6,9.7c2.7,0.9,5.5,1.6,8.3,1.6
		c7.9,0.2,12.7-3.5,13.4-10.4c1.3-13.5,2.3-27.1,3.4-40.7c0.6-7.8,1-15.6,1.5-23.4c0.9-13.4,1.9-26.8,2.7-40.3
		c0.7-11.2,1.4-22.4,2.1-33.6c0.7-11.4,1.5-22.9,2.2-34.3c0.5-8.4,1-16.7,1.5-25.1c0.9-13.7,1.8-27.5,2.7-41.2
		c0.7-10.3,1.5-20.7,2.1-31c0.5-8.3-0.1-16.5-3-24.3c-2.4-6.3-7.5-8.7-13.8-9c-6.4-0.3-11.7,1.8-14.7,7.9
		c-2.8,5.5-4.2,11.5-4.7,17.6c-0.8,9-1,18-1.4,27c-0.7,16-1.3,32-1.9,47.9c-0.7,17.4-1.4,34.8-2.1,52.2c-0.8,19.1-1.6,38.3-2.3,57.4
		C348.1,526.7,347.2,551.2,346.2,574.7z M462.7,318.5c-0.6-4.7-1-9.5-2-14.2c-1.4-6.4-5.9-10.3-12.3-11.2c-8.1-1.1-13.4,1-16.7,7.3
		c-1.7,3.3-2.9,6.8-4,10.4c-3.2,10.5-3.1,21.6-4.3,32.4c-1.1,10.7-2,21.4-3.1,32.1c-1,10.4-2.1,20.8-3.1,31.1
		c-1,10.3-1.9,20.6-2.9,30.9c-1.2,11.9-2.5,23.7-3.7,35.6c-0.9,8.9-1.7,17.8-2.6,26.7c-1.2,12.4-2.5,24.7-3.6,37.1
		c-1.1,11.5-2.2,23-3.2,34.5c-0.6,6.8-1.1,13.6-1.4,20.4c-0.3,6.9,2.4,10.7,9.2,12.4c2.6,0.7,5.5,0.8,8.2,0.8
		c5.9-0.1,9.9-3.4,10.8-9.3c1.6-9.7,3-19.4,4.3-29.1c1.3-9.3,2.3-18.7,3.5-28c1.2-9.3,2.4-18.5,3.6-27.7c1.7-13.9,3.3-27.8,5-41.7
		c1.5-12.4,3.1-24.8,4.6-37.2c1.2-9.8,2.4-19.6,3.5-29.4c1.2-9.7,2.4-19.3,3.6-28.9c1.4-10.9,2.7-21.8,4.1-32.7
		C461,333.4,461.8,326.1,462.7,318.5z M266.3,582.9c0.1,0,0.1,0,0.2,0c-0.3-8.7-0.6-17.4-1-26.1c-0.6-17-1.3-34-1.9-51
		c-0.8-20.3-1.6-40.6-2.4-61c-0.8-18.5-1.6-37-2.3-55.5c-0.8-19.6-1.4-39.2-2.1-58.9c-0.3-8.6-0.9-17.1-3.6-25.3
		c-1.9-5.7-4.4-10.7-10.9-12.4c-10-2.6-18.2,1.7-20.6,11.6c-1.5,6.2-2.2,12.8-2.1,19.3c0.2,10.2,1.4,20.4,2.1,30.5
		c1.1,17.2,2.2,34.4,3.3,51.6c0.9,15,1.9,30,2.8,45c0.7,11.5,1.4,22.9,2.1,34.4c0.9,13.9,1.8,27.8,2.8,41.7
		c1.1,16.7,2.2,33.5,3.5,50.2c0.5,6.6,1.3,13.2,2.2,19.8c0.6,4.3,3.3,6.9,7.5,8c4.1,1.1,8.1,1.1,12.2-0.2c5.8-1.8,8.3-5,8.4-11.1
		C266.3,590,266.3,586.5,266.3,582.9z M212.3,592.3c-0.6-8.5-1.1-15.5-1.7-22.5c-0.8-9.7-1.6-19.4-2.5-29.1c-1-11.5-2.1-23-3.2-34.5
		c-1-11-2-21.9-3-32.9c-1.2-12.7-2.4-25.4-3.6-38c-0.9-9.1-1.7-18.1-2.5-27.2c-0.9-9.7-1.8-19.4-2.8-29c-0.7-7.5-1.4-15-2.1-22.4
		c-0.9-9.9-1.9-19.9-2.6-29.8c-0.6-7.9-2.1-15.5-4.9-22.9c-2.3-6-6-10.7-13.1-11.2c-8-0.6-15.1,2.4-17.5,10.3
		c-2,6.7-2.4,13.6-1.8,20.5c0.7,7.2,1.7,14.5,2.6,21.7c1.3,11.4,2.6,22.8,4,34.2c1.4,11.5,2.8,23.1,4.1,34.6
		c1.4,11.9,2.7,23.7,4,35.6c1.5,12.6,3,25.3,4.5,37.9c1.5,12.9,2.9,25.8,4.5,38.7c1.8,15.3,3.6,30.6,5.6,45.9
		c1.1,8.2,2.4,16.4,3.8,24.6c0.8,4.8,4.2,7.3,8.8,8.1c2.2,0.3,4.5,0.4,6.6,0.1c4.2-0.6,8.6-1.6,10.8-5.6
		C211.7,596.8,211.9,593.8,212.3,592.3z"/>
	<path class="st7" d="M508.9,234.6c-4.4-0.7-10.2-1.6-16-2.5c-15.4-2.6-30.9-5.3-46.3-7.9c-15.7-2.7-31.3-5.3-47-7.9
		c-19.4-3.3-38.8-6.5-58.2-9.8c-20.8-3.5-41.6-7.1-62.4-10.6c-17.3-2.9-34.6-5.8-51.9-8.8c-15.5-2.6-31-5.2-46.5-7.9
		c-20.3-3.4-40.7-6.8-61-10.3c-3.4-0.6-6.8-1.3-10.1-2.3c-2.7-0.8-3.7-2.6-3.3-5.3c0.3-2.4,2-4.1,4.7-4.1c2.9,0,5.8,0.4,8.7,0.9
		c16.3,2.7,32.6,5.5,48.9,8.3c23.7,4,47.4,8,71.1,12c27,4.6,54.1,9.2,81.1,13.8c24.9,4.2,49.7,8.3,74.6,12.5
		c18.3,3.1,36.6,6.3,54.9,9.4c18.9,3.2,37.7,6.4,56.6,9.6c1.8,0.3,3.6,0.7,5.3,1.3c3.1,1,4.4,2.9,3.9,5.6
		C515.4,233.4,513.7,234.7,508.9,234.6z"/>
	<path class="st7" d="M301.9,160.8c5.2,0.9,12,2,18.8,3.1c4.2,0.7,8.4,1.4,12.6,2.2c5.9,1.1,8,3.9,7.1,9.9c-0.8,5.8,0.4,5.7-6.3,4.6
		c-13.4-2.3-26.8-4.5-40.2-6.8c-3-0.5-3-0.5-2.5-3.4c0.2-1.3,0.5-2.6,0.9-3.9C293.7,161.9,295.5,160.6,301.9,160.8z"/>
	<path class="st4" d="M467.4,260.3c0.8,2.1-0.3,2.8-3.4,2.3C465.1,261.9,466.2,261.1,467.4,260.3z"/>
	<path class="st4" d="M462.1,259.3c-0.3,0.2-0.5,0.4-0.6,0.3c-0.2-0.1-0.3-0.3-0.5-0.5c0.2-0.1,0.4-0.2,0.6-0.2
		C461.7,258.9,461.9,259.1,462.1,259.3z"/>
	<path class="st4" d="M124.3,256.1c-1.7-0.4-2.8-0.6-4-0.9c0.3-0.5,0.5-1.4,0.9-1.4C122.6,253.6,123.9,253.7,124.3,256.1z"/>
	<path class="st8" d="M289.1,451.2c0-13.9,0.1-27.7,0-41.6c-0.2-24.5-0.5-49.1-1-73.6c-0.2-10.2-0.5-20.4,2.2-30.4
		c1.4-5.3,3.6-9.9,9.1-12.3c9.2-4,19.1,0.3,22.3,9.8c3.2,9.5,3.4,19.2,3.1,29.1c-0.3,9-0.4,18-0.5,27.1c-0.4,30.6-0.7,61.1-1.1,91.7
		c-0.1,12.1-0.2,24.2-0.4,36.3c-0.3,23.2-0.6,46.4-1,69.6c-0.2,10.9-0.5,21.8-0.9,32.8c-0.1,2.1-0.2,4.3-0.5,6.4
		c-0.8,6-4.8,9.3-12.1,9.8c-2.5,0.2-5.1-0.1-7.5-0.6c-5.6-1.2-8.4-4.7-8.7-10.6c-0.4-9.2-0.8-18.3-1-27.5
		c-0.4-21.9-0.8-43.8-0.9-65.8c-0.1-16.7,0-33.4,0-50.1C289.7,451.2,289.4,451.2,289.1,451.2z M311.8,455.8c0.1,0,0.3,0,0.4,0
		c0-12.1,0-24.2,0-36.4c0.1-19.1,0.2-38.2,0.3-57.2c0.1-12.7,0.3-25.5,0.2-38.2c0-5-0.7-10.1-1.3-15.1c-0.2-1.9-1.3-3.6-3.5-4.1
		c-3.7-0.9-6.5,0.5-6.9,4.5c-0.7,7.2-1.1,14.5-1.1,21.8c0,30.5,0.3,61,0.4,91.5c0.2,36.4,0.3,72.9,0.5,109.3
		c0.1,14.7,0,29.5,0.2,44.2c0.1,5.4,0.4,10.9,0.9,16.3c0.2,2.6,1.7,3.4,4.5,3.4c2.3,0,3.9-1,4.1-3.4c0.4-3.4,0.7-6.8,0.8-10.2
		c0.2-18,0.4-36,0.4-53.9C311.9,504.1,311.8,480,311.8,455.8z"/>
	<path class="st8" d="M346.2,574.7c0.9-23.6,1.9-48,2.8-72.5c0.8-19.1,1.6-38.3,2.3-57.4c0.7-17.4,1.4-34.8,2.1-52.2
		c0.6-16,1.2-32,1.9-47.9c0.4-9,0.6-18,1.4-27c0.5-6.1,1.9-12,4.7-17.6c3-6.1,8.3-8.3,14.7-7.9c6.3,0.3,11.4,2.7,13.8,9
		c2.9,7.8,3.5,16,3,24.3c-0.6,10.3-1.4,20.7-2.1,31c-0.9,13.7-1.8,27.5-2.7,41.2c-0.5,8.4-1,16.7-1.5,25.1
		c-0.7,11.4-1.5,22.9-2.2,34.3c-0.7,11.2-1.4,22.4-2.1,33.6c-0.9,13.4-1.8,26.8-2.7,40.3c-0.5,7.8-0.9,15.6-1.5,23.4
		c-1,13.6-2.1,27.1-3.4,40.7c-0.7,6.9-5.5,10.7-13.4,10.4c-2.8-0.1-5.6-0.7-8.3-1.6c-4.5-1.5-6.6-5.1-6.6-9.7
		C346.2,588.1,346.2,581.9,346.2,574.7z M381.1,322.7c0,0,0.1,0,0.1,0c0-2.3,0.1-4.6,0-6.9c-0.1-2.3-0.3-4.6-0.8-6.8
		c-0.6-2.9-2-4.1-4.7-4.1c-3.1-0.1-4.6,0.9-5.4,3.8c-0.6,2-1.2,4.1-1.3,6.2c-0.8,13.3-1.6,26.5-2.3,39.8c-0.5,8.8-0.7,17.6-1.2,26.3
		c-0.9,18.4-1.8,36.8-2.7,55.3c-0.8,16.2-1.6,32.4-2.4,48.6c-0.4,8.2-0.7,16.5-1.1,24.7c-0.6,11.5-1.2,23.1-1.7,34.6
		c-0.5,9.5-0.9,19-1.3,28.5c-0.2,6.2-0.3,12.3-0.2,18.5c0,3,1.4,4.2,4,4.3c3,0.2,4.4-0.8,5-3.8c0.2-1.1,0.5-2.2,0.6-3.3
		c0.8-11.7,1.6-23.4,2.3-35.1c1-16.4,1.9-32.7,2.9-49.1c1.1-19.4,2.2-38.7,3.3-58.1c1.1-19.9,2.2-39.8,3.4-59.8
		C378.7,365.2,379.9,344,381.1,322.7z"/>
	<path class="st9" d="M462.7,318.5c-0.9,7.5-1.7,14.9-2.6,22.3c-1.3,10.9-2.7,21.8-4.1,32.7c-1.2,9.6-2.4,19.3-3.6,28.9
		c-1.2,9.8-2.3,19.6-3.5,29.4c-1.5,12.4-3.1,24.8-4.6,37.2c-1.7,13.9-3.3,27.8-5,41.7c-1.1,9.3-2.4,18.5-3.6,27.7
		c-1.2,9.3-2.2,18.7-3.5,28c-1.3,9.7-2.7,19.4-4.3,29.1c-1,5.9-4.9,9.2-10.8,9.3c-2.7,0.1-5.6-0.1-8.2-0.8
		c-6.8-1.7-9.5-5.5-9.2-12.4c0.3-6.8,0.8-13.6,1.4-20.4c1-11.5,2.1-23,3.2-34.5c1.2-12.4,2.4-24.7,3.6-37.1
		c0.9-8.9,1.7-17.8,2.6-26.7c1.2-11.9,2.5-23.7,3.7-35.6c1-10.3,1.9-20.6,2.9-30.9c1-10.4,2.1-20.8,3.1-31.1
		c1.1-10.7,1.9-21.4,3.1-32.1c1.2-10.8,1.1-21.8,4.3-32.4c1.1-3.5,2.3-7.1,4-10.4c3.3-6.3,8.6-8.5,16.7-7.3
		c6.4,0.9,10.9,4.8,12.3,11.2C461.7,309,462,313.8,462.7,318.5z M450.9,313.6c-0.1,0-0.2,0-0.3,0c-0.1-1.2-0.1-2.4-0.3-3.5
		c-0.5-3-1.8-4.3-4.6-4.6c-3-0.3-4.4,0.6-5.6,3.6c-0.5,1.4-1.1,2.8-1.3,4.3c-1.6,12.9-3.2,25.9-4.7,38.8c-0.9,8.2-1.7,16.5-2.6,24.8
		c-1.5,14.1-3.1,28.3-4.6,42.4c-1.4,12.7-2.6,25.5-4,38.2c-1.5,14-3,28-4.5,42c-1.4,12.9-2.7,25.8-4,38.7
		c-1.5,14.9-3.1,29.7-4.6,44.6c-0.3,2.9-0.2,5.8-0.1,8.7c0.1,1.7,1.1,2.7,2.8,3.1c3.5,0.8,5.5-0.2,6.2-4.2
		c1.1-6.4,1.9-12.8,2.7-19.2c1.9-15.8,3.7-31.6,5.5-47.4c1.5-12.8,2.9-25.6,4.4-38.4c1.5-13.4,3.1-26.7,4.6-40.1
		c1.5-13,2.9-25.9,4.4-38.9c1.5-13.1,3.1-26.2,4.6-39.3c1.4-11.7,2.8-23.4,4.1-35.1C449.9,325.9,450.4,319.8,450.9,313.6z"/>
	<path class="st8" d="M266.3,582.9c0,3.6,0,7.1,0,10.7c-0.1,6.1-2.5,9.4-8.4,11.1c-4,1.2-8.1,1.2-12.2,0.2c-4.1-1.1-6.9-3.7-7.5-8
		c-0.9-6.6-1.7-13.2-2.2-19.8c-1.3-16.7-2.3-33.5-3.5-50.2c-0.9-13.9-1.9-27.8-2.8-41.7c-0.7-11.4-1.4-22.9-2.1-34.4
		c-0.9-15-1.9-30-2.8-45c-1.1-17.2-2.2-34.4-3.3-51.6c-0.7-10.2-1.9-20.3-2.1-30.5c-0.1-6.4,0.6-13,2.1-19.3
		c2.4-10,10.6-14.2,20.6-11.6c6.5,1.7,9,6.7,10.9,12.4c2.7,8.2,3.3,16.7,3.6,25.3c0.7,19.6,1.3,39.2,2.1,58.9
		c0.7,18.5,1.6,37,2.3,55.5c0.8,20.3,1.7,40.6,2.4,61c0.7,17,1.3,34,1.9,51c0.3,8.7,0.7,17.4,1,26.1
		C266.4,582.9,266.3,582.9,266.3,582.9z M231.1,317.5c0.3,4.8,0.4,8.7,0.7,12.5c0.7,12.2,1.4,24.3,2.1,36.5c0.5,9.5,1,19,1.6,28.4
		c0.7,12.6,1.5,25.1,2.2,37.7c0.6,9.8,1,19.6,1.6,29.4c0.7,13,1.5,25.9,2.3,38.9c0.5,9.4,1,18.8,1.6,28.2
		c0.9,15.2,1.8,30.5,2.8,45.7c0.4,5.6,0.8,11.2,1.6,16.8c0.4,3.1,1.9,4,5,3.8c2.6-0.2,3.9-1.2,4-4.3c0.2-5.4,0.1-10.9-0.1-16.4
		c-0.7-16.2-1.5-32.4-2.2-48.6c-0.5-11.9-1-23.7-1.6-35.6c-1-20.9-2.1-41.7-3.1-62.6c-0.8-15.9-1.6-31.8-2.3-47.7
		c-0.9-18.5-1.5-37-2.6-55.5c-0.3-5.6-1.4-11.3-2.5-16.8c-0.5-2.6-2.4-3.3-5.4-3.1c-2.5,0.2-3.9,1.3-4.4,3.9
		C231.6,312,231.4,315.2,231.1,317.5z"/>
	<path class="st9" d="M212.3,592.3c-0.4,1.5-0.6,4.5-1.9,7c-2.2,4-6.6,5-10.8,5.6c-2.2,0.3-4.5,0.3-6.6-0.1c-4.6-0.7-8-3.3-8.8-8.1
		c-1.4-8.2-2.7-16.4-3.8-24.6c-2-15.3-3.8-30.6-5.6-45.9c-1.5-12.9-3-25.8-4.5-38.7c-1.5-12.6-3-25.3-4.5-37.9
		c-1.4-11.9-2.7-23.7-4-35.6c-1.3-11.5-2.7-23.1-4.1-34.6c-1.3-11.4-2.6-22.8-4-34.2c-0.8-7.2-1.9-14.4-2.6-21.7
		c-0.7-6.9-0.2-13.8,1.8-20.5c2.3-7.9,9.5-10.8,17.5-10.3c7,0.5,10.7,5.1,13.1,11.2c2.9,7.3,4.3,15,4.9,22.9
		c0.8,9.9,1.7,19.9,2.6,29.8c0.7,7.5,1.4,15,2.1,22.4c0.9,9.7,1.8,19.4,2.8,29c0.8,9.1,1.7,18.1,2.5,27.2c1.2,12.7,2.4,25.4,3.6,38
		c1,10.9,2,21.9,3,32.9c1.1,11.5,2.1,23,3.2,34.5c0.9,9.7,1.7,19.4,2.5,29.1C211.2,576.8,211.6,583.8,212.3,592.3z M202.1,587.8
		C202.1,587.8,202.2,587.8,202.1,587.8c-0.5-6.2-0.9-12.3-1.5-18.5c-1.7-16.9-3.4-33.8-5.1-50.8c-1.3-13.3-2.6-26.6-3.9-39.9
		c-1.7-16.5-3.4-32.9-5.1-49.3c-1.5-15-2.9-29.9-4.4-44.9c-2-20.4-4-40.8-6.2-61.2c-0.5-4.8-1.6-9.5-2.8-14.1
		c-0.9-3.3-2.5-4.1-5.7-3.8c-2.6,0.2-3.9,1.5-4.5,4.6c-0.2,1.2-0.4,2.4-0.3,3.5c0.8,10.2,1.6,20.3,2.7,30.5
		c1.2,12.3,2.7,24.5,4,36.8c1,9.1,2,18.2,3,27.4c1.4,12.5,2.8,25,4.2,37.5c1.3,12.2,2.6,24.4,3.9,36.5c1.2,10.9,2.5,21.8,3.7,32.8
		c1.2,10.5,2.3,21.1,3.4,31.6c1.2,10.8,2.4,21.7,3.8,32.5c0.5,4.2,1.1,8.5,2,12.6c0.6,2.8,2.2,3.6,4.9,3.2c2.6-0.4,3.8-1.7,4-4.5
		C202.2,589.6,202.1,588.7,202.1,587.8z"/>
	<path class="st7" d="M311.8,455.8c0,24.2,0.1,48.3,0,72.5c-0.1,18-0.2,36-0.4,53.9c0,3.4-0.4,6.8-0.8,10.2
		c-0.3,2.3-1.8,3.4-4.1,3.4c-2.9,0-4.3-0.8-4.5-3.4c-0.5-5.4-0.8-10.9-0.9-16.3c-0.2-14.7-0.1-29.5-0.2-44.2
		c-0.2-36.4-0.3-72.9-0.5-109.3c-0.1-30.5-0.4-61-0.4-91.5c0-7.3,0.4-14.5,1.1-21.8c0.4-4,3.1-5.3,6.9-4.5c2.2,0.5,3.2,2.2,3.5,4.1
		c0.6,5,1.3,10.1,1.3,15.1c0.1,12.7-0.2,25.5-0.2,38.2c-0.1,19.1-0.2,38.2-0.3,57.2c0,12.1,0,24.2,0,36.4
		C312.1,455.8,311.9,455.8,311.8,455.8z"/>
	<path class="st7" d="M381.1,322.7c-1.2,21.3-2.4,42.5-3.6,63.8c-1.1,19.9-2.2,39.8-3.4,59.8c-1.1,19.4-2.2,38.7-3.3,58.1
		c-0.9,16.4-1.9,32.7-2.9,49.1c-0.7,11.7-1.5,23.4-2.3,35.1c-0.1,1.1-0.3,2.2-0.6,3.3c-0.7,3-2,4-5,3.8c-2.6-0.2-3.9-1.4-4-4.3
		c-0.1-6.2,0-12.3,0.2-18.5c0.3-9.5,0.8-19,1.3-28.5c0.6-11.5,1.2-23.1,1.7-34.6c0.4-8.2,0.7-16.4,1.1-24.7
		c0.8-16.2,1.6-32.4,2.4-48.6c0.9-18.4,1.8-36.8,2.7-55.3c0.4-8.8,0.7-17.6,1.2-26.3c0.7-13.3,1.5-26.5,2.3-39.8
		c0.1-2.1,0.7-4.2,1.3-6.2c0.8-2.9,2.4-3.9,5.4-3.8c2.7,0.1,4.1,1.2,4.7,4.1c0.4,2.2,0.7,4.5,0.8,6.8c0.1,2.3,0,4.6,0,6.9
		C381.2,322.7,381.2,322.7,381.1,322.7z"/>
	<path class="st7" d="M450.9,313.6c-0.6,6.1-1,12.3-1.7,18.4c-1.3,11.7-2.7,23.4-4.1,35.1c-1.5,13.1-3.1,26.2-4.6,39.3
		c-1.5,13-3,25.9-4.4,38.9c-1.5,13.4-3.1,26.7-4.6,40.1c-1.5,12.8-2.9,25.6-4.4,38.4c-1.8,15.8-3.6,31.6-5.5,47.4
		c-0.8,6.4-1.6,12.9-2.7,19.2c-0.7,4-2.7,5-6.2,4.2c-1.7-0.4-2.7-1.4-2.8-3.1c-0.1-2.9-0.2-5.9,0.1-8.7c1.5-14.9,3-29.7,4.6-44.6
		c1.3-12.9,2.6-25.8,4-38.7c1.5-14,3-28,4.5-42c1.3-12.7,2.6-25.5,4-38.2c1.5-14.1,3.1-28.3,4.6-42.4c0.9-8.3,1.6-16.5,2.6-24.8
		c1.5-12.9,3.1-25.9,4.7-38.8c0.2-1.5,0.7-2.9,1.3-4.3c1.1-3,2.6-3.9,5.6-3.6c2.7,0.3,4.1,1.6,4.6,4.6c0.2,1.2,0.2,2.4,0.3,3.5
		C450.7,313.6,450.8,313.6,450.9,313.6z"/>
	<path class="st7" d="M231.1,317.5c0.3-2.3,0.5-5.6,1-8.8c0.4-2.6,1.9-3.7,4.4-3.9c3-0.2,4.8,0.5,5.4,3.1c1.1,5.6,2.2,11.2,2.5,16.8
		c1,18.5,1.7,37,2.6,55.5c0.7,15.9,1.5,31.8,2.3,47.7c1,20.9,2.1,41.7,3.1,62.6c0.6,11.9,1.1,23.7,1.6,35.6
		c0.7,16.2,1.6,32.4,2.2,48.6c0.2,5.4,0.3,10.9,0.1,16.4c-0.1,3.1-1.4,4.1-4,4.3c-3,0.2-4.6-0.7-5-3.8c-0.7-5.6-1.2-11.2-1.6-16.8
		c-1-15.2-1.9-30.5-2.8-45.7c-0.6-9.4-1-18.8-1.6-28.2c-0.7-13-1.5-25.9-2.3-38.9c-0.6-9.8-1-19.6-1.6-29.4
		c-0.7-12.6-1.5-25.1-2.2-37.7c-0.5-9.5-1-19-1.6-28.4c-0.7-12.2-1.4-24.3-2.1-36.5C231.6,326.2,231.4,322.3,231.1,317.5z"/>
	<path class="st7" d="M202.1,587.8c0,0.9,0,1.7,0,2.6c-0.2,2.8-1.4,4.1-4,4.5c-2.7,0.4-4.3-0.4-4.9-3.2c-0.9-4.2-1.5-8.4-2-12.6
		c-1.3-10.8-2.5-21.7-3.8-32.5c-1.2-10.5-2.3-21.1-3.4-31.6c-1.2-10.9-2.5-21.8-3.7-32.8c-1.3-12.2-2.6-24.4-3.9-36.5
		c-1.4-12.5-2.8-25-4.2-37.5c-1-9.1-2-18.2-3-27.4c-1.3-12.3-2.8-24.5-4-36.8c-1-10.1-1.8-20.3-2.7-30.5c-0.1-1.2,0.1-2.4,0.3-3.5
		c0.6-3.1,1.9-4.4,4.5-4.6c3.1-0.2,4.8,0.6,5.7,3.8c1.2,4.6,2.3,9.4,2.8,14.1c2.2,20.4,4.2,40.8,6.2,61.2c1.5,15,2.9,29.9,4.4,44.9
		c1.7,16.5,3.4,32.9,5.1,49.3c1.3,13.3,2.6,26.6,3.9,39.9c1.7,16.9,3.4,33.8,5.1,50.8C201.2,575.5,201.7,581.7,202.1,587.8
		C202.2,587.8,202.1,587.8,202.1,587.8z"/>
</g>
</svg>
