<?xml version="1.0" encoding="utf-8"?>
<!-- Generator: Adobe Illustrator 27.3.1, SVG Export Plug-In . SVG Version: 6.00 Build 0)  -->
<svg version="1.1" id="Layer_1" xmlns="http://www.w3.org/2000/svg" xmlns:xlink="http://www.w3.org/1999/xlink" x="0px" y="0px"
	 viewBox="0 0 1415 1286" style="enable-background:new 0 0 1415 1286;" xml:space="preserve">
<style type="text/css">
	.st0{display:none;}
	.st1{fill:#FFFFFF;}
</style>
<g>
	<path class="st0" d="M0,1286C0,857.33,0,428.67,0,0c471.67,0,943.33,0,1415,0c0,428.67,0,857.33,0,1286
		C943.33,1286,471.67,1286,0,1286z M666.99,709.81c-12.13,1.14-23.94,1.56-35.5,3.47c-25.29,4.19-50.74,7.94-75.58,14.08
		c-27.89,6.89-55.32,15.79-82.7,24.61c-32.98,10.63-64.73,24.55-95.73,39.87c-31.63,15.63-62.69,32.5-93.39,49.9
		c-28.68,16.26-56.89,33.43-84.71,51.13c-31.03,19.75-61.45,40.46-92.01,60.93c-19.44,13.02-39.06,25.83-57.85,39.74
		c-17.2,12.74-13.91,9.78-8.3,26.14c5.08,14.83,13.96,26.8,27.55,35.34c6.22,3.91,11.33,3.39,16.92-0.31
		c18.75-12.42,37.45-24.94,56.3-37.22c38.77-25.26,77.41-50.73,116.54-75.43c24.4-15.4,49.22-30.22,74.51-44.11
		c32.04-17.61,64.4-34.7,97.25-50.75c31.86-15.57,65.02-28.26,98.9-38.84c29.97-9.36,60.33-17.35,91.51-21.56
		c19.7-2.66,39.47-5.88,59.27-6.47c25.02-0.75,50.17,0.14,75.16,1.81c18.79,1.25,37.62,3.86,56.07,7.64
		c22.76,4.66,45.21,10.92,67.69,16.89c29.44,7.83,57.68,19.16,85.47,31.45c21.46,9.49,42.51,19.95,63.44,30.58
		c19.61,9.97,39.04,20.33,58.15,31.24c21.58,12.32,42.81,25.26,63.98,38.27c22.3,13.71,44.52,27.55,66.47,41.82
		c25.68,16.7,50.98,33.97,76.52,50.88c12.73,8.43,25.59,16.65,38.45,24.89c4.15,2.66,8.05,3.08,12.88,0.34
		c17.02-9.68,26.08-24.87,31.93-42.84c2.84-8.72,2.68-8.1-4.96-15.51c-0.48-0.46-1.01-0.87-1.55-1.25
		c-18.75-13.08-37.3-26.45-56.29-39.16c-33.8-22.64-67.68-45.17-101.89-67.2c-22.39-14.42-45.14-28.33-68.2-41.63
		c-26.34-15.19-52.88-30.1-79.96-43.92c-24.12-12.3-48.92-23.34-73.74-34.22c-35.32-15.48-71.68-28.24-109.04-37.84
		c-22.73-5.84-45.68-11.01-68.77-15.18c-17.71-3.2-35.78-4.34-53.68-6.45c-1.71-0.2-3.38-0.76-5.04-1.14
		c0-24.55,0.06-48.53-0.03-72.51c-0.04-10.55,1.99-13.11,12.2-16.13c18-5.31,36.14-10.26,53.81-16.52
		c22.8-8.08,44.05-19.23,63.31-34.21c25.23-19.64,45.27-43.42,59.64-71.91c18.37-36.43,25.85-74.94,22.14-115.7
		c-2.23-24.53-8.15-48.03-18.56-70.24c-16.99-36.25-42.08-65.75-75.56-87.95c-25.18-16.7-52.68-27.56-82.44-32.59
		c-20.42-3.45-40.85-3.86-61.51-1.25c-28.47,3.6-55.26,11.82-80.38,25.66c-25.2,13.89-45.94,33.22-66.01,53.47
		c-5.8,5.85-6.45,12.09-4.66,19.55c4.24,17.6,11.74,32.22,31.58,36.02c8.42,1.62,16.61,3.69,24.12-3.72
		c10.86-10.72,21.99-21.27,33.87-30.82c20.56-16.52,44.29-26.03,70.57-29.13c27.33-3.23,53.5,0.7,78.23,12.85
		c32.25,15.84,55.32,40.26,69.34,73.56c10.48,24.89,13.33,50.58,8.97,76.8c-5.03,30.3-18.78,56.41-40.97,78.11
		c-16.88,16.51-36.73,27.63-58.92,34.83c-28.24,9.15-57.47,11.55-86.94,12c-7.66,0.12-15.34-0.1-23,0.1
		c-8.99,0.23-12.27,3.06-13.76,11.8c-0.64,3.75-1.01,7.59-1.02,11.4c-0.09,30.13-0.07,60.26-0.08,90.39
		C666.98,678.96,666.99,694.24,666.99,709.81z"/>
	<path class="st1" d="M666.99,709.81c0-15.57,0-30.85,0-46.13c0.01-30.13-0.01-60.26,0.08-90.39c0.01-3.8,0.39-7.65,1.02-11.4
		c1.48-8.73,4.77-11.56,13.76-11.8c7.66-0.2,15.33,0.02,23-0.1c29.47-0.46,58.7-2.85,86.94-12c22.19-7.19,42.04-18.32,58.92-34.83
		c22.19-21.7,35.94-47.81,40.97-78.11c4.35-26.22,1.5-51.91-8.97-76.8c-14.02-33.31-37.09-57.73-69.34-73.56
		c-24.73-12.15-50.9-16.08-78.23-12.85c-26.28,3.1-50.01,12.61-70.57,29.13c-11.88,9.55-23.01,20.1-33.87,30.82
		c-7.51,7.41-15.7,5.34-24.12,3.72c-19.84-3.81-27.33-18.42-31.58-36.02c-1.8-7.46-1.15-13.7,4.66-19.55
		c20.07-20.25,40.81-39.58,66.01-53.47c25.11-13.84,51.91-22.05,80.38-25.66c20.66-2.61,41.09-2.2,61.51,1.25
		c29.76,5.03,57.26,15.9,82.44,32.59c33.48,22.2,58.57,51.7,75.56,87.95c10.41,22.21,16.33,45.71,18.56,70.24
		c3.7,40.76-3.78,79.27-22.14,115.7c-14.37,28.49-34.41,52.27-59.64,71.91c-19.26,14.99-40.51,26.13-63.31,34.21
		c-17.67,6.26-35.81,11.21-53.81,16.52c-10.21,3.01-12.24,5.58-12.2,16.13c0.08,23.98,0.03,47.96,0.03,72.51
		c1.66,0.38,3.33,0.94,5.04,1.14c17.9,2.11,35.98,3.25,53.68,6.45c23.09,4.17,46.04,9.33,68.77,15.18
		c37.35,9.6,73.71,22.36,109.04,37.84c24.82,10.88,49.62,21.91,73.74,34.22c27.08,13.81,53.62,28.73,79.96,43.92
		c23.07,13.3,45.82,27.21,68.2,41.63c34.2,22.03,68.08,44.56,101.89,67.2c18.99,12.72,37.54,26.08,56.29,39.16
		c0.54,0.38,1.08,0.79,1.55,1.25c7.64,7.41,7.8,6.79,4.96,15.51c-5.85,17.97-14.9,33.16-31.93,42.84
		c-4.83,2.74-8.73,2.32-12.88-0.34c-12.86-8.24-25.72-16.46-38.45-24.89c-25.54-16.91-50.84-34.18-76.52-50.88
		c-21.94-14.27-44.17-28.12-66.47-41.82c-21.17-13.01-42.41-25.95-63.98-38.27c-19.1-10.91-38.53-21.28-58.15-31.24
		c-20.93-10.63-41.98-21.09-63.44-30.58c-27.79-12.29-56.02-23.62-85.47-31.45c-22.48-5.98-44.92-12.24-67.69-16.89
		c-18.45-3.77-37.28-6.38-56.07-7.64c-24.99-1.67-50.14-2.56-75.16-1.81c-19.81,0.59-39.57,3.81-59.27,6.47
		c-31.18,4.21-61.54,12.19-91.51,21.56c-33.88,10.58-67.04,23.27-98.9,38.84c-32.84,16.05-65.21,33.14-97.25,50.75
		c-25.28,13.9-50.11,28.71-74.51,44.11c-39.13,24.7-77.77,50.17-116.54,75.43c-18.85,12.28-37.54,24.8-56.3,37.22
		c-5.59,3.7-10.71,4.22-16.92,0.31c-13.59-8.54-22.47-20.51-27.55-35.34c-5.61-16.36-8.9-13.41,8.3-26.14
		c18.79-13.92,38.41-26.72,57.85-39.74c30.56-20.47,60.98-41.18,92.01-60.93c27.82-17.7,56.02-34.87,84.71-51.13
		c30.7-17.4,61.76-34.27,93.39-49.9c30.99-15.32,62.75-29.24,95.73-39.87c27.37-8.82,54.81-17.71,82.7-24.61
		c24.84-6.14,50.29-9.89,75.58-14.08C643.05,711.37,654.85,710.95,666.99,709.81z"/>
</g>
</svg>
