<?xml version="1.0" encoding="utf-8"?>
<!-- Generator: Adobe Illustrator 26.0.1, SVG Export Plug-In . SVG Version: 6.00 Build 0)  -->
<svg version="1.1" id="Layer_1" xmlns="http://www.w3.org/2000/svg" xmlns:xlink="http://www.w3.org/1999/xlink" x="0px" y="0px"
	 viewBox="0 0 1920 1080" style="enable-background:new 0 0 1920 1080;" xml:space="preserve">
<style type="text/css">
	.st0{display:none;fill:#000101;}
	.st1{fill:#07E3DF;}
</style>
<g>
	<path class="st0" d="M0,1080C0,720,0,360,0,0c640,0,1280,0,1920,0c0,360,0,720,0,1080C1280,1080,640,1080,0,1080z M391.6,925.8
		c0,0.7-0.1,1.3-0.1,2c2.7,1.9,5.4,3.9,8.2,5.8c51.8,34.7,108,60.1,167,79.3c61.7,20,125,31.5,189.8,34.2
		c55.8,2.4,111.6,1.1,166.6-9.6c28.8-5.6,57.4-13,85.6-21c34.5-9.8,68.2-22.3,100.8-37.6c41.5-19.5,80.6-43.1,117.2-70.8
		c32.8-24.9,62.8-52.9,91.2-82.7c33.7-35.5,63.9-73.7,89.2-115.6c34.2-56.5,61.9-116.1,81.7-179.2c11.9-37.8,21.7-76.1,26.9-115.4
		c5.4-40.7,7.1-81.6,6.4-122.6c-0.1-6.2,1.8-10.7,6.7-14.6c11.2-9.1,22.2-18.6,33.1-28.2c32.2-28.3,58.9-61.5,83.1-96.7
		c0.9-1.4,1.6-3,2.4-4.4c-0.3-0.5-0.6-1-0.9-1.4c-41.1,15-83,26.5-126.2,33.6c20.2-19.1,40.4-37.9,56.5-60.6
		c16-22.6,27.5-47.3,36-73.7c-2.6,0.1-4.7,0.6-6.6,1.4c-15.2,6.7-30.3,13.7-45.6,20.3c-33.8,14.6-68.9,25.5-104.1,35.8
		c-3.1,0.9-5,0.6-7.4-1.7c-18.6-17.8-38.8-33.4-61.7-45.3c-53.3-27.5-109.5-37.4-168.9-27c-51.9,9.1-96.8,32.2-135,68.5
		c-21.1,20-37.5,43.6-52.2,68.4c-6.4,10.8-13.8,21.1-16.1,34c-2.7,14.9-6.7,29.5-9.8,44.3c-2,9.7-5.3,19.2-4.3,29.4
		c1.9,18.7,3.1,37.5,4.6,56.3c0.6,7.5-0.6,9-7.7,7.9c-30.4-4.5-61-8.2-91.2-14.1c-56.3-11-110.7-28.4-162.7-52.9
		c-38.7-18.2-76.1-38.7-111.6-62.6c-39.8-26.8-74.6-59.6-108.2-93.6c-12.7-12.9-24.6-26.7-36.8-40.1c-4.4-4.9-5.2-4.8-8.4,0.7
		c-32.7,55.8-41.3,115.6-28.8,178.5c5.8,29.2,14.5,57.6,30.8,83.2c15.8,24.9,33.6,48,57,66.3c2.6,2,5.1,4.2,7.6,6.3
		c-0.3,0.4-0.5,0.9-0.8,1.3c-17.9-0.3-35.1-3.9-51.7-10.4c-16.5-6.4-33-12.8-50.4-19.5c-2,60.3,15.7,113.7,50.8,161.7
		c35.1,48.2,81.9,79.6,138.9,96.7c-33.4,7.8-66.6,5.1-100.6,0.2c0.8,3.1,1.2,4.8,1.7,6.5c16.7,49.7,45.4,91.1,86.2,124
		c37.5,30.3,80.9,46.7,128,54.1c4.1,0.6,8.1,1.6,12.2,2.4c0,0.6,0,1.3,0,1.9C649.8,908.7,527,940.5,391.6,925.8z"/>
	<path class="st1" d="M391.6,925.8C527,940.5,649.8,908.7,760,829.5c0-0.6,0-1.3,0-1.9c-4-0.8-8.1-1.8-12.2-2.4
		c-47.2-7.4-90.5-23.8-128-54.1c-40.9-32.9-69.6-74.3-86.2-124c-0.6-1.7-0.9-3.4-1.7-6.5c34,4.9,67.1,7.6,100.6-0.2
		c-57-17.1-103.7-48.5-138.9-96.7c-35.1-48.1-52.8-101.5-50.8-161.7c17.4,6.7,33.9,13.1,50.4,19.5c16.7,6.5,33.9,10.1,51.7,10.4
		c0.3-0.4,0.5-0.9,0.8-1.3c-2.5-2.1-5-4.3-7.6-6.3c-23.4-18.3-41.2-41.3-57-66.3c-16.3-25.6-25-54-30.8-83.2
		c-12.6-62.9-4-122.7,28.8-178.5c3.2-5.5,4-5.6,8.4-0.7c12.2,13.4,24,27.2,36.8,40.1c33.6,34,68.3,66.8,108.2,93.6
		c35.5,23.9,72.9,44.3,111.6,62.6c52,24.5,106.4,42,162.7,52.9c30.2,5.9,60.8,9.5,91.2,14.1c7.2,1.1,8.3-0.4,7.7-7.9
		c-1.6-18.7-2.8-37.5-4.6-56.3c-1-10.3,2.2-19.7,4.3-29.4c3.1-14.8,7.2-29.4,9.8-44.3c2.3-12.9,9.7-23.2,16.1-34
		c14.7-24.9,31.1-48.4,52.2-68.4c38.2-36.2,83.1-59.3,135-68.5c59.4-10.5,115.5-0.5,168.9,27c23,11.8,43.2,27.5,61.7,45.3
		c2.4,2.3,4.3,2.6,7.4,1.7c35.3-10.3,70.3-21.2,104.1-35.8c15.3-6.6,30.4-13.6,45.6-20.3c1.9-0.8,3.9-1.3,6.6-1.4
		c-8.5,26.4-20,51.2-36,73.7c-16.1,22.7-36.2,41.5-56.5,60.6c43.1-7.1,85.1-18.6,126.2-33.6c0.3,0.5,0.6,1,0.9,1.4
		c-0.8,1.5-1.5,3.1-2.4,4.4c-24.2,35.2-50.9,68.3-83.1,96.7c-10.9,9.6-21.8,19.1-33.1,28.2c-4.9,4-6.8,8.5-6.7,14.6
		c0.8,41-1,81.9-6.4,122.6c-5.2,39.4-15,77.6-26.9,115.4c-19.9,63.1-47.5,122.7-81.7,179.2c-25.3,41.9-55.5,80.1-89.2,115.6
		c-28.3,29.8-58.4,57.8-91.2,82.7c-36.5,27.7-75.6,51.3-117.2,70.8c-32.6,15.3-66.2,27.7-100.8,37.6c-28.3,8-56.8,15.4-85.6,21
		c-55,10.8-110.8,12-166.6,9.6c-64.8-2.7-128.1-14.2-189.8-34.2c-59.1-19.2-115.3-44.6-167-79.3c-2.8-1.9-5.5-3.9-8.2-5.8
		C391.5,927.2,391.6,926.5,391.6,925.8z"/>
</g>
</svg>
