<?xml version="1.0" encoding="utf-8"?>
<!-- Generator: Adobe Illustrator 26.0.1, SVG Export Plug-In . SVG Version: 6.00 Build 0)  -->
<svg version="1.1" id="Layer_1" xmlns="http://www.w3.org/2000/svg" xmlns:xlink="http://www.w3.org/1999/xlink" x="0px" y="0px"
	 viewBox="0 0 612 792" style="enable-background:new 0 0 612 792;" xml:space="preserve">
<style type="text/css">
	.st0{display:none;}
	.st1{display:none;fill:#FEFEFE;}
	.st2{fill:#8A8A8A;}
	.st3{fill:#8B8B8A;}
	.st4{display:none;fill:#010101;}
</style>
<g>
	<path class="st0" d="M612.5,139.9c0,171,0,342.1,0,513.1c-204.2,0-408.3,0-612.5,0c0-171,0-342.1,0-513.1
		C204.2,139.9,408.3,139.9,612.5,139.9z M303.6,416.2c-16-0.4-33.3-0.9-50.6-1.4c-17.2-0.4-34.4-0.1-51.4,3
		c-16,2.9-31.1,8.4-43.8,18.9c-27.1,22.5-42.8,51.3-46.3,86.4c-1.3,13,1.3,25.4,9.5,36.1c6.4,8.4,14.9,14.1,24.3,18.6
		c12.6,6.1,26.1,9.7,39.8,12.4c35.9,7,72.1,9.9,108.6,10.3c26.7,0.3,53.4-0.4,80-3.1c19.8-2,39.5-4.6,58.9-9.1
		c14.8-3.4,29.2-8.1,41.9-16.7c11-7.4,18.8-17.1,21.7-30.3c2.2-9.7,1.8-19.5-0.1-29.2c-4.4-22.9-14.6-43-29.6-60.8
		c-15.1-17.8-34.3-28.7-57.2-33.2c-14.2-2.8-28.6-3.7-43-3.5C345.9,415,325.3,415.7,303.6,416.2z M304.4,377.7
		c58.7-0.3,104.5-46.5,106-103c1.5-57.1-42.9-106.8-103-108.5c-58.8-1.6-107.4,44.9-108.5,102.9C197.6,329,243.7,376.4,304.4,377.7z
		"/>
	<path class="st1" d="M612.5,139.9c-204.2,0-408.3,0-612.5,0c0.1-0.2,0.2-0.4,0.2-0.5c0.6,0,1.3,0,1.9,0c202.7,0,405.5,0,608.2,0
		C611.1,139.4,611.8,139.7,612.5,139.9z"/>
	<path class="st2" d="M303.6,416.2c21.8-0.5,42.3-1.2,62.8-1.5c14.4-0.2,28.8,0.7,43,3.5c22.9,4.4,42.1,15.3,57.2,33.2
		c15,17.7,25.2,37.9,29.6,60.8c1.9,9.7,2.3,19.5,0.1,29.2c-2.9,13.2-10.7,22.9-21.7,30.3c-12.8,8.6-27.1,13.2-41.9,16.7
		c-19.4,4.5-39.1,7.1-58.9,9.1c-26.6,2.7-53.3,3.4-80,3.1c-36.5-0.4-72.8-3.3-108.6-10.3c-13.7-2.7-27.2-6.3-39.8-12.4
		c-9.4-4.5-17.9-10.3-24.3-18.6c-8.2-10.7-10.8-23.1-9.5-36.1c3.5-35.1,19.2-63.9,46.3-86.4c12.7-10.5,27.8-15.9,43.8-18.9
		c17-3.1,34.2-3.5,51.4-3C270.3,415.3,287.6,415.8,303.6,416.2z M304.7,435.4c0,0.1,0,0.2,0,0.3c-9.6,0-19.2,0.2-28.8,0
		c-21.1-0.4-42.1-0.9-63.1,2.1c-11.7,1.7-23.2,4.3-33.5,10c-27,15.1-42.6,38.2-46.3,68.9c-2,16.6,4,29.9,18.2,39.3
		c11.2,7.4,23.7,11.2,36.7,13.9c31,6.4,62.3,9.1,93.9,9.9c28,0.8,56.1,0.3,84.1-2.2c18.6-1.7,37.2-3.8,55.5-7.7
		c12.3-2.6,24.2-6.2,35-12.9c13.8-8.5,20.5-20.7,19.9-36.9c-0.4-11.9-3.7-23.1-9.1-33.6c-11.9-22.9-29.7-38.7-55-45.5
		c-15.7-4.2-31.8-5.4-48-5.6C344.3,435.3,324.5,435.4,304.7,435.4z"/>
	<path class="st3" d="M304.4,377.7c-60.7-1.3-106.8-48.7-105.6-108.6c1.2-58,49.8-104.5,108.5-102.9c60.1,1.6,104.5,51.3,103,108.5
		C408.8,331.1,363.1,377.4,304.4,377.7z M304.7,358.8c49-0.6,87.4-39.7,86.8-88.3c-0.6-48.3-40-86.5-89-85.6
		c-48.3,0.9-85.4,40.9-84.9,87.9C218,318.3,254.6,358.5,304.7,358.8z"/>
	<path class="st4" d="M304.7,435.4c19.8,0,39.6-0.1,59.4,0c16.2,0.2,32.3,1.4,48,5.6c25.3,6.8,43.1,22.5,55,45.5
		c5.4,10.5,8.7,21.7,9.1,33.6c0.5,16.2-6.2,28.4-19.9,36.9c-10.8,6.7-22.8,10.2-35,12.9c-18.3,3.9-36.9,6-55.5,7.7
		c-28,2.6-56,3-84.1,2.2c-31.5-0.9-62.9-3.6-93.9-9.9c-12.9-2.7-25.5-6.5-36.7-13.9c-14.2-9.4-20.2-22.7-18.2-39.3
		c3.7-30.7,19.3-53.8,46.3-68.9c10.3-5.8,21.8-8.4,33.5-10c21-3,42-2.5,63.1-2.1c9.6,0.2,19.2,0,28.8,0
		C304.7,435.6,304.7,435.5,304.7,435.4z"/>
	<path class="st4" d="M304.7,358.8c-50.2-0.4-86.7-40.6-87.2-86c-0.5-46.9,36.6-87,84.9-87.9c49-0.9,88.5,37.2,89,85.6
		C392.1,319.2,353.7,358.2,304.7,358.8z"/>
</g>
</svg>
