<?xml version="1.0" encoding="utf-8"?>
<!-- Generator: Adobe Illustrator 26.0.1, SVG Export Plug-In . SVG Version: 6.00 Build 0)  -->
<svg version="1.1" id="Layer_1" xmlns="http://www.w3.org/2000/svg" xmlns:xlink="http://www.w3.org/1999/xlink" x="0px" y="0px"
	 viewBox="0 0 612 792" style="enable-background:new 0 0 612 792;" xml:space="preserve">
<style type="text/css">
	.st0{display:none;fill:#CDCDCD;}
	.st1{fill:#5C496F;}
</style>
<g>
	<path class="st0" d="M556,646c-166.7,0-333.3,0-500,0c0-166.7,0-333.3,0-500c166.7,0,333.3,0,500,0C556,312.7,556,479.3,556,646z
		 M316.8,406.5c-45.6,0-79.9,3.5-113.8,10.1c-19.8,3.8-39.4,8.3-58,16.7c-15.8,7.2-25.1,19.1-27.3,36.6c-2,16.2-0.4,31.9,4.5,47.4
		c8.6,27.5,25.9,48.8,46.9,67.8c36.6,33.1,79.2,51.8,128.6,53.9c49.6,2,93.9-13,132.9-43.5c6.8-5.3,13.2-11.2,19.5-17.1
		c2.5-2.3,5.1-5.2,2.9-9.2c-4.3-7.8-19.4-11-26.4-5.5c-5.5,4.4-10.6,9.1-16.2,13.4c-36.4,28-77.4,40.1-123.1,35.2
		c-39.1-4.1-72-21.2-100.6-47.7c-22.3-20.7-36.3-45.7-42.1-75.4c-2.8-14.1,2.2-25.2,14.9-31.8c7.3-3.8,15.2-7,23.2-9.1
		c38.2-9.9,77.3-14.1,116.7-14.9c36.8-0.7,73.2,3.3,109.3,10.1c15.2,2.9,30.4,6.2,44.1,14c10.2,5.7,15.9,14.3,15,26.1
		c-0.6,6.9-2.2,13.8-4,20.5c-3.5,12.9-2.4,15.5,10.1,20.2c0.5,0.2,0.9,0.4,1.4,0.5c8.3,2.8,12.2,1,14.8-7.3c4.4-14.3,5.8-29,4.6-44
		c-1.5-20.1-11.7-33.9-30.4-41.3c-5.4-2.2-10.8-4.4-16.4-6C401.5,412.5,354,407,316.8,406.5z M305.8,374.5
		c61-0.2,110.3-49.4,110.1-109.9c-0.2-61-49.3-110-110-109.8c-60.9,0.1-110.1,49.3-109.9,110C196.2,325.3,245.7,374.8,305.8,374.5z"
		/>
	<path class="st1" d="M316.8,406.5c37.2,0.5,84.7,6,131,19.6c5.6,1.6,11,3.8,16.4,6c18.7,7.4,28.9,21.3,30.4,41.3
		c1.1,14.9-0.2,29.6-4.6,44c-2.6,8.4-6.5,10.2-14.8,7.3c-0.5-0.2-0.9-0.4-1.4-0.5c-12.5-4.7-13.6-7.4-10.1-20.2
		c1.8-6.7,3.4-13.6,4-20.5c1-11.8-4.8-20.4-15-26.1c-13.7-7.7-28.9-11.1-44.1-14c-36.1-6.8-72.5-10.8-109.3-10.1
		c-39.4,0.8-78.4,5-116.7,14.9c-8,2.1-15.9,5.2-23.2,9.1c-12.7,6.6-17.7,17.7-14.9,31.8c5.8,29.7,19.8,54.7,42.1,75.4
		c28.6,26.6,61.6,43.6,100.6,47.7c45.7,4.8,86.8-7.2,123.1-35.2c5.5-4.3,10.7-9,16.2-13.4c6.9-5.5,22-2.4,26.4,5.5
		c2.2,4-0.4,6.9-2.9,9.2c-6.3,5.9-12.7,11.8-19.5,17.1c-39,30.6-83.3,45.6-132.9,43.5c-49.4-2-92-20.8-128.6-53.9
		c-21-19-38.3-40.3-46.9-67.8c-4.8-15.5-6.5-31.2-4.5-47.4c2.2-17.5,11.5-29.4,27.3-36.6c18.5-8.4,38.1-12.8,58-16.7
		C237,410.1,271.2,406.5,316.8,406.5z"/>
	<path class="st1" d="M305.8,374.5c-60.1,0.2-109.6-49.2-109.8-109.8c-0.2-60.7,49-109.9,109.9-110c60.8-0.1,109.9,48.9,110,109.8
		C416.1,325.1,366.8,374.3,305.8,374.5z M305.8,348.1c46.4,0,83.8-37.3,83.9-83.8c0.1-45.3-37.7-83.2-83-83.2
		c-46.7-0.1-84.1,36.9-84.4,83.3C222,310.2,259.7,348,305.8,348.1z"/>
	<path class="st0" d="M305.8,348.1c-46.1,0-83.8-37.8-83.5-83.7c0.3-46.4,37.8-83.4,84.4-83.3c45.4,0.1,83.1,37.9,83,83.2
		C389.6,310.8,352.2,348.1,305.8,348.1z"/>
</g>
</svg>
