<?xml version="1.0" encoding="utf-8"?>
<!-- Generator: Adobe Illustrator 26.0.1, SVG Export Plug-In . SVG Version: 6.00 Build 0)  -->
<svg version="1.1" id="Layer_1" xmlns="http://www.w3.org/2000/svg" xmlns:xlink="http://www.w3.org/1999/xlink" x="0px" y="0px"
	 viewBox="0 0 612 792" style="enable-background:new 0 0 612 792;" xml:space="preserve">
<style type="text/css">
	.st0{display:none;}
	.st1{fill:#FFFFFF;}
</style>
<g>
	<path class="st0" d="M0,651.5c0-170.7,0-341.4,0-512.1c203.8,0,407.5,0,611.3,0c0,170.7,0,341.4,0,512.1
		C407.5,651.5,203.8,651.5,0,651.5z M279.5,414.4c-12.5-0.3-23.4-0.7-34.2-0.8c-17.3-0.2-34.6,0.6-51.5,4.7
		c-17.9,4.3-33.3,12.8-46.2,26c-13,13.3-22.7,28.7-29.2,46c-5.5,14.5-8.6,29.3-6.8,44.9c1.4,11.4,6.3,21.1,14.6,28.9
		c10.1,9.5,22.4,14.9,35.3,19c17.6,5.6,35.9,8.4,54.2,10.9c22.6,3,45.4,4.7,68.3,5.1c34.4,0.6,68.8,0.1,102.9-4.6
		c14.6-2,29.2-4.4,43.7-7.2c14-2.7,27.4-7.3,39.8-14.6c17.6-10.5,26.9-25.7,26.6-46.4c-0.1-11.8-2.5-23.2-6.6-34.2
		c-6-16.4-14.8-31.1-26.5-44.2c-14.4-16-32.1-26-53-30.5c-13.3-2.9-26.9-3.9-40.5-3.9c-12.4,0-24.8,0.6-37.2,0.7
		C314.6,414.5,296.2,414.4,279.5,414.4z M409.7,271.1c0.2-58.7-48.2-106.9-107.9-105.7c-58,1.2-104.3,48.3-103.7,106.6
		c0.6,58.7,47.9,105.5,107.2,104.7C365.3,376,409.8,327.3,409.7,271.1z"/>
	<path class="st1" d="M0,651.5c203.8,0,407.5,0,611.3,0c-0.1,0.2-0.1,0.4-0.2,0.5c-0.6,0-1.3,0-1.9,0c-202.3,0-404.7,0-607,0
		C1.4,652,0.7,651.7,0,651.5z"/>
	<path class="st1" d="M279.5,414.4c16.7,0,35.1,0.1,53.5,0c12.4-0.1,24.8-0.7,37.2-0.7c13.6-0.1,27.2,1,40.5,3.9
		c20.9,4.5,38.7,14.5,53,30.5c11.7,13,20.5,27.8,26.5,44.2c4.1,11,6.5,22.4,6.6,34.2c0.3,20.7-9,35.9-26.6,46.4
		c-12.3,7.3-25.8,11.9-39.8,14.6c-14.5,2.8-29.1,5.2-43.7,7.2c-34.2,4.7-68.5,5.2-102.9,4.6c-22.8-0.4-45.6-2.1-68.3-5.1
		c-18.3-2.5-36.5-5.2-54.2-10.9c-12.9-4.1-25.2-9.6-35.3-19c-8.4-7.9-13.3-17.5-14.6-28.9c-1.9-15.6,1.3-30.5,6.8-44.9
		c6.6-17.3,16.2-32.7,29.2-46c12.9-13.1,28.4-21.7,46.2-26c16.9-4.1,34.2-4.9,51.5-4.7C256.1,413.7,266.9,414.1,279.5,414.4z
		 M303.7,435.3c0-0.2,0-0.4,0-0.7c-13.4,0-26.7,0.1-40.1,0c-19.5-0.2-39-0.1-58.3,3.5c-22.1,4.1-40.6,14.4-54.2,32.6
		c-11.8,15.8-19.1,33.2-18.3,53.3c0.5,12.2,6.1,21.7,15.8,28.9c9.5,7.1,20.4,10.9,31.6,13.8c18.9,4.9,38.1,7.2,57.4,8.9
		c15.3,1.4,30.6,2.3,45.9,2.7c34.2,1,68.4-0.1,102.5-4.4c15.1-1.9,30.2-4,44.9-8.1c9.5-2.7,18.6-6.1,26.8-11.8
		c9-6.2,15.1-14.4,16.9-25.5c1.3-8.2,0.6-16.4-1.4-24.4c-3.7-14.7-10.8-27.6-20.9-39c-10.7-12.1-23.9-20.2-39.4-24.6
		c-18.8-5.4-38.1-6.1-57.5-6.1C338.2,434.5,321,435,303.7,435.3z"/>
	<path class="st1" d="M409.7,271.1c0.1,56.2-44.4,104.8-104.3,105.6c-59.3,0.8-106.6-46-107.2-104.7
		c-0.6-58.3,45.7-105.4,103.7-106.6C361.5,164.2,409.9,212.4,409.7,271.1z M303.7,357.7c48.8-0.2,87.3-38.9,86.8-87.8
		c-0.5-47.1-38.9-86.6-88.9-85.4c-47.9,1.1-84.8,40.6-84.4,87.7C217.7,319.2,256.7,357.9,303.7,357.7z"/>
	<path class="st0" d="M303.7,435.3c17.2-0.3,34.4-0.8,51.7-0.8c19.4,0,38.7,0.7,57.5,6.1c15.5,4.4,28.7,12.5,39.4,24.6
		c10,11.4,17.2,24.3,20.9,39c2,8,2.7,16.1,1.4,24.4c-1.8,11.1-7.8,19.2-16.9,25.5c-8.2,5.6-17.3,9.1-26.8,11.8
		c-14.7,4.1-29.8,6.2-44.9,8.1c-34,4.3-68.2,5.4-102.5,4.4c-15.3-0.4-30.6-1.4-45.9-2.7c-19.3-1.7-38.6-4.1-57.4-8.9
		c-11.3-2.9-22.2-6.7-31.6-13.8c-9.6-7.2-15.2-16.7-15.8-28.9c-0.9-20.1,6.5-37.5,18.3-53.3c13.6-18.2,32.1-28.5,54.2-32.6
		c19.3-3.6,38.8-3.7,58.3-3.5c13.4,0.2,26.7,0,40.1,0C303.7,434.8,303.7,435.1,303.7,435.3z"/>
	<path class="st0" d="M303.7,357.7c-47,0.2-86-38.5-86.5-85.5c-0.4-47.1,36.5-86.5,84.4-87.7c50-1.2,88.5,38.3,88.9,85.4
		C391.1,318.8,352.5,357.5,303.7,357.7z"/>
</g>
</svg>
