<?xml version="1.0" encoding="utf-8"?>
<!-- Generator: Adobe Illustrator 27.3.1, SVG Export Plug-In . SVG Version: 6.00 Build 0)  -->
<svg version="1.1" id="Layer_1" xmlns="http://www.w3.org/2000/svg" xmlns:xlink="http://www.w3.org/1999/xlink" x="0px" y="0px"
	 viewBox="0 0 1115 1080" style="enable-background:new 0 0 1115 1080;" xml:space="preserve">
<style type="text/css">
	.st0{display:none;}
	.st1{fill:#FFFFFF;}
</style>
<g>
	<path class="st0" d="M0,0c371.63,0,743.26,0,1115,0c0,359.91,0,719.87,0,1080c-371.59,0-743.3,0-1115,0C0,720.12,0,360.09,0,0z
		 M556.31,570.1c-0.03-0.82-0.06-1.64-0.09-2.46c-32.76,2.14-65.54,4.05-98.28,6.51c-15.64,1.17-31.27,2.89-46.77,5.27
		c-17.45,2.68-34.76,6.27-52.1,9.66c-30.48,5.97-60.36,14.36-89.52,24.85c-23.84,8.58-47.13,18.78-70.29,29.11
		c-27.64,12.34-51.65,29.66-68.81,55.2c-9.07,13.5-14.69,28.22-15.55,44.74c-1.07,20.71,4.38,40.1,12.8,58.42
		c6.92,15.07,15.66,29.39,24.61,43.4c14.15,22.16,30.91,42.36,48.91,61.55c18.86,20.1,38.73,39.09,60.94,55.44
		c14.85,10.93,29.47,22.37,45.32,31.67c19.24,11.29,39.19,21.7,59.71,30.41c21.4,9.09,43.58,16.66,65.93,23.1
		c18.84,5.43,38.31,8.93,57.7,12.09c16.08,2.62,32.42,4.22,48.7,4.92c15.38,0.66,30.89,0.21,46.26-0.93
		c18.42-1.37,36.93-2.99,55.09-6.27c34.17-6.18,67.29-16.18,99.54-29.39c34.81-14.26,67.68-32.02,98.11-53.87
		c19.4-13.93,37.69-29.59,55.41-45.65c28.84-26.12,53.99-55.6,75.23-88.27c16.21-24.94,30.47-50.74,34.33-80.99
		c2.3-18-0.46-35.04-9.35-50.81c-13.63-24.2-33.77-41.87-57.94-54.87c-14.29-7.69-28.91-14.95-43.95-20.98
		c-23.02-9.23-46.31-17.94-69.91-25.54c-19.52-6.29-39.57-10.99-59.53-15.77c-14.52-3.48-29.22-6.38-43.97-8.71
		c-17.41-2.76-34.93-4.93-52.46-6.82c-18.54-1.99-37.11-3.97-55.72-4.81C592.58,569.46,574.43,570.1,556.31,570.1z M558.48,529.08
		c140.87-0.96,255.22-113.85,255.54-256.15c0.31-142.15-114.26-256.43-255.5-256.86c-143.06-0.44-257.97,114.68-257.39,257.51
		C301.68,414.17,414.85,528.85,558.48,529.08z"/>
	<path class="st1" d="M556.31,570.1c18.12,0,36.26-0.64,54.34,0.18c18.61,0.84,37.19,2.82,55.72,4.81
		c17.53,1.89,35.05,4.06,52.46,6.82c14.75,2.34,29.45,5.24,43.97,8.71c19.97,4.78,40.02,9.48,59.53,15.77
		c23.6,7.6,46.89,16.31,69.91,25.54c15.04,6.03,29.67,13.29,43.95,20.98c24.17,13.01,44.31,30.68,57.94,54.87
		c8.89,15.77,11.65,32.8,9.35,50.81c-3.86,30.25-18.12,56.05-34.33,80.99c-21.24,32.67-46.4,62.16-75.23,88.27
		c-17.73,16.05-36.01,31.71-55.41,45.65c-30.43,21.85-63.29,39.62-98.11,53.87c-32.24,13.21-65.36,23.2-99.54,29.39
		c-18.15,3.28-36.66,4.91-55.09,6.27c-15.37,1.14-30.88,1.59-46.26,0.93c-16.28-0.7-32.62-2.3-48.7-4.92
		c-19.39-3.16-38.86-6.66-57.7-12.09c-22.35-6.44-44.53-14.02-65.93-23.1c-20.52-8.71-40.47-19.12-59.71-30.41
		c-15.85-9.3-30.48-20.74-45.32-31.67c-22.22-16.35-42.09-35.34-60.94-55.44c-18-19.18-34.75-39.39-48.91-61.55
		c-8.95-14.01-17.69-28.33-24.61-43.4c-8.41-18.33-13.86-37.72-12.8-58.42c0.85-16.51,6.48-31.24,15.55-44.74
		c17.16-25.54,41.17-42.86,68.81-55.2c23.15-10.33,46.45-20.53,70.29-29.11c29.15-10.5,59.04-18.89,89.52-24.85
		c17.33-3.39,34.65-6.98,52.1-9.66c15.5-2.38,31.13-4.09,46.77-5.27c32.74-2.46,65.52-4.37,98.28-6.51
		C556.26,568.45,556.28,569.27,556.31,570.1z M903.24,763.29c-1.21-3.92-2.31-10.75-5.32-16.6c-8.51-16.54-23.64-25.96-39.81-33.34
		c-12.79-5.84-26.08-10.8-39.53-14.91c-16.74-5.11-33.78-9.4-50.88-13.18c-15.39-3.4-30.98-6.03-46.59-8.29
		c-24.76-3.59-49.55-7.05-74.42-9.69c-16.91-1.79-33.99-2.88-50.99-2.86c-35.16,0.05-70.33,0.61-105.46,1.83
		c-18.31,0.64-36.63,2.61-54.82,4.92c-23.39,2.96-46.77,6.22-69.94,10.51c-33.74,6.24-67.2,13.82-98.99,27.35
		c-16.05,6.83-31.24,14.86-43.04,28.14c-7.83,8.8-12.05,19.17-11.2,30.83c0.81,11.11,4.93,21.52,10.46,31.18
		c14.94,26.13,35.58,47.46,58.6,66.29c16.52,13.52,34.25,25.66,52.02,37.54c27.9,18.65,58.08,32.93,89.67,44.2
		c26.22,9.35,52.91,17.02,80.63,20.18c17.88,2.04,35.86,3.8,53.83,4.24c13.95,0.34,28.05-0.86,41.92-2.64
		c16.31-2.09,32.61-4.85,48.63-8.55c32.67-7.55,63.86-19.45,93.81-34.53c21.43-10.79,41.8-23.26,61.49-37
		c18.87-13.16,36.54-27.7,52.9-43.73c13.41-13.14,25.62-27.53,35.09-43.9C897.58,790.38,901.97,778.74,903.24,763.29z"/>
	<path class="st1" d="M558.48,529.08c-143.62-0.22-256.79-114.91-257.36-255.49C300.55,130.75,415.45,15.63,558.52,16.07
		c141.24,0.43,255.81,114.71,255.5,256.86C813.7,415.23,699.34,528.12,558.48,529.08z M387.06,272.81
		c0.79,94.86,75.44,167.51,164.9,170.08c100.06,2.88,180.12-77.82,175.94-178.8c-3.53-85.31-75.11-166.24-179.05-161.79
		C461.27,106.05,387.58,178.2,387.06,272.81z"/>
	<path class="st0" d="M903.24,763.29c-1.27,15.45-5.66,27.09-11.94,37.96c-9.47,16.37-21.68,30.75-35.09,43.9
		c-16.36,16.03-34.03,30.57-52.9,43.73c-19.7,13.74-40.07,26.21-61.49,37c-29.95,15.08-61.14,26.98-93.81,34.53
		c-16.02,3.7-32.32,6.46-48.63,8.55c-13.87,1.78-27.97,2.98-41.92,2.64c-17.97-0.44-35.95-2.2-53.83-4.24
		c-27.72-3.16-54.42-10.83-80.63-20.18c-31.59-11.27-61.77-25.55-89.67-44.2c-17.77-11.88-35.5-24.02-52.02-37.54
		c-23.01-18.83-43.66-40.17-58.6-66.29c-5.52-9.66-9.64-20.07-10.46-31.18c-0.85-11.66,3.38-22.03,11.2-30.83
		c11.81-13.28,27-21.31,43.04-28.14c31.79-13.53,65.25-21.11,98.99-27.35c23.17-4.29,46.56-7.55,69.94-10.51
		c18.2-2.3,36.51-4.28,54.82-4.92c35.13-1.22,70.3-1.78,105.46-1.83c17-0.02,34.07,1.07,50.99,2.86c24.87,2.63,49.66,6.1,74.42,9.69
		c15.61,2.26,31.2,4.89,46.59,8.29c17.1,3.78,34.13,8.07,50.88,13.18c13.45,4.1,26.74,9.07,39.53,14.91
		c16.17,7.39,31.3,16.81,39.81,33.34C900.93,752.54,902.03,759.37,903.24,763.29z"/>
	<path class="st0" d="M387.06,272.81c0.52-94.61,74.21-166.77,161.8-170.51c103.94-4.45,175.51,76.48,179.05,161.79
		c4.18,100.99-75.88,181.68-175.94,178.8C462.5,440.32,387.86,367.67,387.06,272.81z"/>
</g>
</svg>
