<?xml version="1.0" encoding="utf-8"?>
<!-- Generator: Adobe Illustrator 26.0.1, SVG Export Plug-In . SVG Version: 6.00 Build 0)  -->
<svg version="1.1" id="Layer_1" xmlns="http://www.w3.org/2000/svg" xmlns:xlink="http://www.w3.org/1999/xlink" x="0px" y="0px"
	 viewBox="0 0 612 792" style="enable-background:new 0 0 612 792;" xml:space="preserve">
<style type="text/css">
	.st0{display:none;fill:#F1F1F1;}
	.st1{display:none;fill:#FEFEFE;}
	.st2{fill:#12151A;}
	.st3{display:none;fill:#F0F0EF;}
	.st4{display:none;fill:#F0F0F0;}
	.st5{display:none;fill:#EEEEEE;}
	.st6{fill:#13161C;}
	.st7{display:none;fill:#EBEBEB;}
</style>
<g>
	<path class="st0" d="M0,668.5c0-182.4,0-364.8,0-547.2c203.8,0,407.5,0,611.3,0c0,182.4,0,364.8,0,547.2c-0.2,0.2-0.3,0.3-0.5,0.5
		c-203.5,0-406.9,0-610.4,0C0.3,668.8,0.2,668.7,0,668.5z M392.2,202.1c-0.4,0.1-0.6,0.1-0.8,0.1c-11,3.8-21.9,7.7-32.9,11.5
		c-22.4,7.8-44.7,15.7-67.1,23.5c-22.2,7.8-44.5,15.6-66.7,23.4c-28.4,10-56.8,19.9-85.2,29.9c-3.6,1.2-7,2.4-11,2.3
		c-5.4-0.2-10.8-0.1-16.2,0.4c-2.2,0.2-4.8,1.3-6.2,2.9c-1.3,1.5-1.5,4.2-1.6,6.4c-0.3,7.8-0.4,15.6-0.4,23.4c0,19.3,0,38.6,0,57.9
		c0,23.8,0,47.6,0,71.3c0,17.2-0.1,34.4,0,51.6c0,13.5,0.2,27,0.4,40.5c0,3.6,2.3,6,6,6.3c5.9,0.4,11.9,0.9,17.8,0.9
		c62.3,0.1,124.6,0.1,186.9,0.1c40.5,0,80.9,0.1,121.4,0c13.3,0,26.6,0.7,39.9-0.8c4.2-0.5,7.2-2.8,7.2-7.7c-0.1-25.2,0-50.4,0-75.6
		c0-3.8,0-7.5,0-11.5c6.8,0,13.4,0,19.9,0c3.6,0,4-0.3,4-3.9c0-19.3,0.1-38.6,0.1-58c0-2.9-0.2-5.8-0.3-8.9c-8.2,0-15.9,0-23.6,0
		c0-0.8-0.1-1.3-0.1-1.9c0-26.2,0-52.4,0-78.6c0-2.8,0-5.6-0.2-8.3c-0.2-2.7-2.6-5-5.2-5.2c-4.9-0.4-9.9-0.7-14.8-1
		c-1.3-0.1-2-0.4-2.5-1.7c-6.4-15.7-12.8-31.5-19.3-47.2c-2-4.9-4-9.8-6.1-14.6c-10.2,3.5-20.1,7-30.1,10.5
		C401,227.1,396.6,214.6,392.2,202.1z"/>
	<path class="st1" d="M0,668.5c0.2,0.2,0.3,0.3,0.5,0.5C0.3,668.8,0.2,668.7,0,668.5z"/>
	<path class="st1" d="M610.8,669c0.2-0.2,0.3-0.3,0.5-0.5C611.1,668.7,611,668.8,610.8,669z"/>
	<path class="st2" d="M392.2,202.1c4.4,12.5,8.8,24.9,13.3,37.8c10-3.5,19.9-7,30.1-10.5c2,4.9,4.1,9.8,6.1,14.6
		c6.4,15.7,12.9,31.4,19.3,47.2c0.5,1.3,1.2,1.7,2.5,1.7c4.9,0.2,9.9,0.6,14.8,1c2.7,0.2,5,2.6,5.2,5.2c0.2,2.8,0.2,5.6,0.2,8.3
		c0,26.2,0,52.4,0,78.6c0,0.5,0.1,1.1,0.1,1.9c7.7,0,15.4,0,23.6,0c0.1,3.1,0.3,6,0.3,8.9c0,19.3,0,38.6-0.1,58c0,3.6-0.3,3.9-4,3.9
		c-6.6,0-13.1,0-19.9,0c0,3.9,0,7.7,0,11.5c0,25.2-0.2,50.4,0,75.6c0,4.9-3,7.2-7.2,7.7c-13.3,1.5-26.6,0.7-39.9,0.8
		c-40.5,0.1-80.9,0.1-121.4,0c-62.3,0-124.6,0-186.9-0.1c-5.9,0-11.9-0.5-17.8-0.9c-3.6-0.2-5.9-2.6-6-6.3
		c-0.2-13.5-0.3-27-0.4-40.5c-0.1-17.2,0-34.4,0-51.6c0-23.8,0-47.6,0-71.3c0-19.3-0.1-38.6,0-57.9c0-7.8,0.1-15.6,0.4-23.4
		c0.1-2.2,0.3-4.9,1.6-6.4c1.4-1.6,4-2.7,6.2-2.9c5.4-0.5,10.8-0.6,16.2-0.4c3.9,0.1,7.4-1,11-2.3c28.4-10,56.8-19.9,85.2-29.9
		c22.2-7.8,44.5-15.6,66.7-23.4c22.4-7.8,44.7-15.7,67.1-23.5c11-3.8,21.9-7.7,32.9-11.5C391.6,202.2,391.8,202.2,392.2,202.1z
		 M466.3,388.2c0-1.2,0-2.1,0-3c0-11.9,0.1-23.8,0-35.7c-0.1-11.2-0.3-22.4-0.4-33.6c0-1.8-2.5-4.4-4.2-4.6
		c-3.6-0.4-7.2-0.9-10.8-0.9c-29.4-0.1-58.8-0.1-88.2-0.1c-35.7,0-71.5,0-107.2,0c-33.6,0-67.3,0-100.9,0c-8.3,0-16.6-0.1-24.8,0.3
		c-2.2,0.1-5,1.4-6.3,3c-1.3,1.8-1.6,4.7-1.6,7.1c-0.1,32.4-0.1,64.7-0.1,97.1c0,26.4,0,52.7,0,79.1c0,10.5,0.1,21,0,31.5
		c-0.1,5.3,2.5,7.8,7.4,7.9c3.2,0.1,6.3,0.5,9.5,0.5c25.3,0.1,50.5,0.2,75.8,0.3c19.8,0,39.6-0.1,59.4-0.1c25.1,0,50.2,0.1,75.4,0.1
		c29.7,0,59.3,0.1,89-0.1c7.8,0,15.6-0.6,23.3-1.1c1.9-0.1,4.3-2.5,4.5-4c0.2-2.1,0.4-4.2,0.4-6.2c0-17.8,0-35.6,0-53.4
		c0-4.4,0-8.8,0-13.4c-4.9,0-9.5,0.1-14.2,0c-9-0.1-18.1-0.1-27.1-0.6c-3.1-0.2-6.3-1.5-9.1-3c-5.8-3.1-8.5-8.9-10.4-14.8
		c-4.3-13.7-3.7-27.3,2.7-40.2c2.5-5,6.4-9.2,12.2-10.5c3.3-0.8,6.7-1.3,10-1.4c9.2-0.2,18.4-0.1,27.6-0.1
		C460.8,388.1,463.4,388.2,466.3,388.2z M381,222.8C314.7,246,248.9,269,183.1,292.1c0,0.2,0.1,0.5,0.1,0.7c4.2,0,8.4,0,12.6,0
		c17.4,0,34.7,0,52.1,0c2.7,0,5.5,0.2,8-0.6c10.7-3.5,21.3-7.4,32-11.1c29.6-10.4,59.3-20.8,88.9-31.1c4-1.4,7.9-2.8,12-4.2
		C386.3,237.9,383.7,230.5,381,222.8z M445.6,292.7c-6.7-15.2-13.3-29.9-19.9-44.8c-42.2,14.8-84.3,29.5-126.3,44.2
		c0.1,0.2,0.1,0.4,0.2,0.6C348,292.7,396.6,292.7,445.6,292.7z M466.7,444c0,0.1,0,0.2,0,0.2c8,0,15.9,0,23.9,0
		c3.5,0,3.7-0.3,3.7-3.7c0-11.6,0-23.1,0-34.7c0-3.1-0.1-3.1-3.1-3.1c-10.2,0-20.4,0.1-30.6,0c-8.6-0.1-17.1-0.4-25.7-0.6
		c-4.2-0.1-8.1,0.8-11.3,3.8c-7.6,7.3-9.6,19.3-4.7,28.7c3.5,6.9,8.9,10.5,16.8,10.2C446,444.4,456.4,444.2,466.7,444z"/>
	<path class="st0" d="M466.3,388.2c-2.9,0-5.5,0-8.1,0c-9.2,0-18.4-0.1-27.6,0.1c-3.4,0.1-6.8,0.6-10,1.4
		c-5.8,1.3-9.7,5.5-12.2,10.5c-6.5,13-7,26.6-2.7,40.2c1.8,5.9,4.5,11.7,10.4,14.8c2.8,1.5,6,2.8,9.1,3c9,0.5,18.1,0.5,27.1,0.6
		c4.6,0.1,9.2,0,14.2,0c0,4.6,0,9,0,13.4c0,17.8,0,35.6,0,53.4c0,2.1-0.2,4.2-0.4,6.2c-0.1,1.6-2.6,3.9-4.5,4
		c-7.8,0.5-15.6,1.1-23.3,1.1c-29.7,0.1-59.3,0.1-89,0.1c-25.1,0-50.2-0.1-75.4-0.1c-19.8,0-39.6,0.1-59.4,0.1
		c-25.3,0-50.5-0.1-75.8-0.3c-3.2,0-6.3-0.4-9.5-0.5c-4.9-0.1-7.4-2.6-7.4-7.9c0.1-10.5,0-21,0-31.5c0-26.4,0-52.7,0-79.1
		c0-32.4,0-64.7,0.1-97.1c0-2.4,0.3-5.3,1.6-7.1c1.3-1.7,4.1-2.9,6.3-3c8.3-0.4,16.6-0.3,24.8-0.3c33.6,0,67.3,0,100.9,0
		c35.7,0,71.5,0,107.2,0c29.4,0,58.8,0,88.2,0.1c3.6,0,7.2,0.5,10.8,0.9c1.7,0.2,4.1,2.8,4.2,4.6c0.2,11.2,0.4,22.4,0.4,33.6
		c0.1,11.9,0,23.8,0,35.7C466.3,386.1,466.3,387,466.3,388.2z"/>
	<path class="st3" d="M381,222.8c2.7,7.7,5.3,15.1,8,22.9c-4.1,1.4-8.1,2.8-12,4.2c-29.6,10.4-59.3,20.8-88.9,31.1
		c-10.7,3.7-21.3,7.6-32,11.1c-2.5,0.8-5.3,0.6-8,0.6c-17.4,0-34.7,0-52.1,0c-4.2,0-8.4,0-12.6,0c0-0.2-0.1-0.5-0.1-0.7
		C248.9,269,314.7,246,381,222.8z"/>
	<path class="st4" d="M445.6,292.7c-49,0-97.5,0-146.1,0c-0.1-0.2-0.1-0.4-0.2-0.6c42-14.7,84.1-29.4,126.3-44.2
		C432.3,262.8,438.8,277.5,445.6,292.7z"/>
	<path class="st5" d="M466.7,444c-10.3,0.3-20.7,0.5-31,0.9c-8,0.3-13.3-3.3-16.8-10.2c-4.8-9.4-2.9-21.4,4.7-28.7
		c3.1-3,7.1-3.9,11.3-3.8c8.6,0.2,17.1,0.5,25.7,0.6c10.2,0.1,20.4,0,30.6,0c3,0,3.1,0,3.1,3.1c0,11.6,0,23.1,0,34.7
		c0,3.4-0.2,3.6-3.7,3.7c-8,0-15.9,0-23.9,0C466.7,444.1,466.7,444,466.7,444z M455.7,424c0.4-7.4-5.3-15-14.7-15.3
		c-8-0.2-14.8,6.6-14.9,14.6c-0.1,7.9,6.4,15,13.9,15.1C448.8,438.5,455.6,432.3,455.7,424z"/>
	<path class="st6" d="M455.7,424c-0.1,8.3-6.9,14.5-15.7,14.3c-7.5-0.1-14.1-7.2-13.9-15.1c0.1-8,6.9-14.8,14.9-14.6
		C450.4,409,456.1,416.7,455.7,424z M447.3,423.5c-0.1-3.7-3-6.5-6.5-6.4c-3.5,0.1-6.5,3.3-6.4,6.6c0.2,3.7,3.2,6.5,6.8,6.3
		C444.7,429.9,447.4,426.9,447.3,423.5z"/>
	<path class="st7" d="M447.3,423.5c0.1,3.5-2.6,6.4-6,6.6c-3.6,0.2-6.7-2.7-6.8-6.3c-0.1-3.3,2.9-6.5,6.4-6.6
		C444.3,417,447.2,419.8,447.3,423.5z"/>
</g>
</svg>
