<?xml version="1.0" encoding="utf-8"?>
<!-- Generator: Adobe Illustrator 26.0.1, SVG Export Plug-In . SVG Version: 6.00 Build 0)  -->
<svg version="1.1" id="Layer_1" xmlns="http://www.w3.org/2000/svg" xmlns:xlink="http://www.w3.org/1999/xlink" x="0px" y="0px"
	 viewBox="0 0 612 792" style="enable-background:new 0 0 612 792;" xml:space="preserve">
<style type="text/css">
	.st0{display:none;}
	.st1{fill:#FEFEFE;}
	.st2{fill:#FDFDFD;}
	.st3{display:none;fill:#010101;}
	.st4{display:none;fill:#010201;}
	.st5{fill:#FBFBFB;}
	.st6{display:none;fill:#020202;}
</style>
<g>
	<path class="st0" d="M612,121.8c0,182.6,0,365.2,0,547.8c-204,0-408,0-612,0C0,487,0,304.4,0,121.8C204,121.8,408,121.8,612,121.8z
		 M405.9,177.3c-5.4,1.9-10.6,3.7-15.7,5.4c-17.5,6.1-35,12.2-52.5,18.3c-12.4,4.4-24.7,8.8-37.1,13.2c-14.2,5-28.4,9.8-42.6,14.7
		c-15.6,5.5-31.2,11-46.9,16.5c-18,6.3-35.9,12.5-53.9,18.8c-15.3,5.4-30.6,10.8-45.8,16.1c-3.5,1.2-6.9,2.7-10.9,2.7
		c-7.5-0.1-15,0.2-22.5,0.4c-3.9,0.1-7.1,2.6-7.7,6.3c-0.7,4.4-1.4,8.9-1.4,13.4c-0.1,57.2-0.1,114.5-0.1,171.7
		c0,35.8,0.3,71.5,0.4,107.3c0,2.1,3.1,5.9,5.2,6.1c4.6,0.6,9.2,1.3,13.7,1.4c14.8,0.2,29.7,0.1,44.5,0.1c13.2,0,26.4,0,39.6,0
		c11.9,0,23.7,0,35.6,0c21.7,0,43.5,0,65.2,0c14,0,28,0.1,42,0.1c18.4,0,36.8,0,55.2,0c11.8,0,23.6-0.1,35.4-0.1
		c11.7,0,23.4,0.1,35,0.1c13.4,0,26.7,0.1,40.1-0.1c8.9-0.1,17.8,0.3,26.5-1.4c1.9-0.4,5.4-3.5,5.5-5.3c0.2-2.7,0.5-5.4,0.5-8.1
		c0-22.8,0-45.7,0-68.5c0-9.3,0-18.7,0-28.2c7.7,0,15.3,0,22.9,0c3.9,0,4.6-0.7,4.6-4.5c0-13.8,0-27.5,0-41.3
		c0-11.2,0-22.4,0.1-33.6c0-4.2-0.4-4.6-4.6-4.6c-6.1,0-12.2,0-18.4,0c-1.5,0-3,0-4.5,0c0-0.4-0.1-0.6-0.1-0.7
		c-0.1-34.1-0.3-68.1-0.4-102.2c0-3.1-3.2-6.5-6.3-6.8c-6.5-0.6-13-1.2-19.7-1.9c-0.5-1-1.2-2.5-1.8-4c-2.9-7.1-5.8-14.3-8.7-21.4
		c-3.9-9.5-7.7-19-11.6-28.5c-2.4-6-4.9-11.9-7.3-17.9c-0.6-1.4-1.2-1.9-2.8-1.2c-4.1,1.6-8.2,2.9-12.3,4.4c-7,2.4-14,4.9-21.1,7.4
		C416.2,206.6,411.1,192.1,405.9,177.3z"/>
	<path class="st1" d="M612,121.8c-204,0-408,0-612,0c0.1-0.2,0.1-0.4,0.2-0.4c0.6,0,1.2,0,1.9,0c202.6,0,405.2,0,607.8,0
		C610.6,121.4,611.3,121.7,612,121.8z"/>
	<path class="st2" d="M405.9,177.3c5.2,14.8,10.3,29.3,15.4,44c7.1-2.5,14.1-4.9,21.1-7.4c4.1-1.4,8.3-2.8,12.3-4.4
		c1.6-0.6,2.2-0.1,2.8,1.2c2.4,6,4.9,11.9,7.3,17.9c3.9,9.5,7.7,19,11.6,28.5c2.9,7.1,5.8,14.3,8.7,21.4c0.6,1.5,1.3,2.9,1.8,4
		c6.7,0.6,13.2,1.3,19.7,1.9c3,0.3,6.2,3.7,6.3,6.8c0.1,34.1,0.3,68.1,0.4,102.2c0,0.1,0,0.3,0.1,0.7c1.5,0,3,0,4.5,0
		c6.1,0,12.2,0,18.4,0c4.3,0,4.6,0.4,4.6,4.6c0,11.2-0.1,22.4-0.1,33.6c0,13.8,0,27.5,0,41.3c0,3.9-0.7,4.5-4.6,4.5
		c-7.6,0-15.1,0-22.9,0c0,9.5,0,18.9,0,28.2c0,22.8,0,45.7,0,68.5c0,2.7-0.3,5.4-0.5,8.1c-0.1,1.8-3.6,4.9-5.5,5.3
		c-8.8,1.8-17.7,1.4-26.5,1.4c-13.4,0.1-26.7,0.1-40.1,0.1c-11.7,0-23.4-0.1-35-0.1c-11.8,0-23.6,0.1-35.4,0.1
		c-18.4,0-36.8,0-55.2,0c-14,0-28-0.1-42-0.1c-21.7,0-43.5,0-65.2,0c-11.9,0-23.7,0-35.6,0c-13.2,0-26.4,0-39.6,0
		c-14.8,0-29.7,0.1-44.5-0.1c-4.6-0.1-9.2-0.8-13.7-1.4c-2.1-0.3-5.2-4-5.2-6.1c-0.2-35.8-0.4-71.5-0.4-107.3
		c-0.1-57.2,0-114.5,0.1-171.7c0-4.5,0.6-9,1.4-13.4c0.6-3.8,3.8-6.2,7.7-6.3c7.5-0.2,15-0.5,22.5-0.4c4,0.1,7.4-1.4,10.9-2.7
		c15.3-5.4,30.5-10.8,45.8-16.1c18-6.3,35.9-12.5,53.9-18.8c15.6-5.5,31.2-11,46.9-16.5c14.2-4.9,28.4-9.8,42.6-14.7
		c12.4-4.3,24.7-8.8,37.1-13.2c17.5-6.1,35-12.2,52.5-18.3C395.4,181,400.5,179.2,405.9,177.3z M491.2,394.1c0-3.2,0-6,0-8.8
		c0-4.7,0-9.4,0-14.1c0-5.9-0.1-11.9,0-17.8c0-4.8,0.3-9.7,0.3-14.5c0-4.6-0.1-9.3-0.2-13.9c-0.1-4.5-0.1-9-0.2-13.5
		c-0.1-2.3-2.3-4.9-4.4-5.2c-4.2-0.5-8.5-1.2-12.7-1.3c-15.2-0.2-30.5-0.1-45.7-0.1c-21.9,0-43.8,0-65.7,0c-22.9,0-45.7,0-68.6,0
		c-20.9,0-41.7,0-62.6,0c-24.5,0-48.9,0-73.4,0c-9.6,0-19.3-0.1-28.9,0c-10.1,0.1-20.2,0.1-30.3,0.5c-2,0.1-4.4,1.2-5.8,2.7
		c-1.2,1.4-1.6,3.8-1.7,5.8c-0.4,4.7-0.5,9.4-0.5,14.1c0,10.3,0.1,20.6,0.1,30.9c0,12.5-0.1,25.1-0.1,37.6c0,8.5,0.2,16.9,0.2,25.4
		c0,7.3-0.1,14.6-0.1,21.9c0,16.6-0.1,33.3-0.1,49.9c0,10.3,0,20.6,0,30.9c0,7,0.1,14,0.1,21c0.1,5.3,0.2,10.5,0.3,15.8
		c0,1.8,2.3,4.8,4,5.1c3.5,0.5,7,1.2,10.5,1.3c5.1,0.2,10.2,0.1,15.3,0.1c30.8,0,61.5,0,92.3,0c41.2,0,82.4,0,123.6,0
		c34.7,0,69.4,0.1,104.1-0.1c14.4-0.1,28.8,0.9,43.1-0.8c3.8-0.5,7-2.6,7-5.6c0.1-6.6,0.2-13.2,0.2-19.8c0-5.9,0-11.9,0-17.8
		c0-6.3,0.1-12.6,0-18.8c0-8.1-0.3-16.2,0-24.2c0.1-2.6-0.7-2.5-2.6-2.5c-14.8-0.1-29.5-0.1-44.3-0.5c-6.1-0.2-11.7-2.5-15.9-7
		c-3.6-3.8-6-8.4-7.7-13.4c-2.7-8.1-3.8-16.3-3.3-24.8c0.7-11.1,3.3-21.5,10.7-30.1c1.9-2.2,4.6-4,7.3-5.4c4.4-2.1,9.3-2.7,14.2-2.7
		c13-0.1,26-0.1,39.1-0.1C489.6,394.1,490.4,394.1,491.2,394.1z M391.9,203.5C316.2,230,240.9,256.4,165,283c1,0,1.3,0.1,1.7,0.1
		c23.7,0,47.4,0,71,0c4.5,0,8.7-0.3,13.1-2c8.2-3.2,16.7-5.8,25.1-8.8c13.7-4.9,27.5-9.8,41.2-14.7c12-4.2,24-8.2,36-12.3
		c11.3-3.9,22.6-8,33.9-12c4.5-1.6,9-3.2,13.7-4.8C397.7,220.1,394.8,211.8,391.9,203.5z M466.7,282.9c-1.3-2.7-2.5-5.1-3.6-7.6
		c-6-13.7-12-27.4-18-41.1c-0.7-1.5-1.5-1.6-2.8-1.2c-6.7,2.4-13.4,4.8-20.2,7.1c-11,3.9-21.9,7.8-32.9,11.7
		c-11.4,4-22.9,7.9-34.3,11.9c-14.6,5.1-29.2,10.3-43.8,15.4c-3.4,1.2-6.9,2.4-10.3,3.5c0,0.1,0.1,0.2,0.1,0.3
		C356,282.9,411.2,282.9,466.7,282.9z M493.9,459.6c8.8,0,17.5,0,26.3,0c3.7,0,4-0.3,4-3.9c0-8.6,0-17.2,0-25.9c0-5-0.1-10-0.2-15.1
		c0-1.5-0.6-2.2-2.3-2c-1.9,0.2-3.8,0.1-5.8,0.1c-6.1,0-12.3,0-18.4,0c-5.3,0-10.6,0.2-15.9,0.1c-9-0.2-18.1-0.5-27.1-0.9
		c-5.8-0.2-10.6,2.1-13.9,6.5c-6.3,8.4-8.2,17.8-4.1,27.7c4.6,11.2,10.6,14.5,21.4,14.2c5.8-0.2,11.6-0.7,17.3-0.9
		C481.3,459.5,487.6,459.6,493.9,459.6z"/>
	<path class="st3" d="M491.2,394.1c-0.8,0-1.5,0-2.3,0c-13,0-26,0-39.1,0.1c-4.9,0-9.8,0.6-14.2,2.7c-2.7,1.3-5.4,3.1-7.3,5.4
		c-7.4,8.6-10,19-10.7,30.1c-0.5,8.5,0.5,16.8,3.3,24.8c1.7,5,4.1,9.6,7.7,13.4c4.2,4.5,9.8,6.9,15.9,7c14.8,0.4,29.5,0.4,44.3,0.5
		c1.8,0,2.7,0,2.6,2.5c-0.3,8.1-0.1,16.2,0,24.2c0,6.3,0,12.6,0,18.8c0,5.9,0.1,11.9,0,17.8c0,6.6-0.1,13.2-0.2,19.8
		c-0.1,2.9-3.2,5.1-7,5.6c-14.4,1.7-28.8,0.8-43.1,0.8c-34.7,0.2-69.4,0.1-104.1,0.1c-41.2,0-82.4,0-123.6,0c-30.8,0-61.5,0-92.3,0
		c-5.1,0-10.2,0.2-15.3-0.1c-3.5-0.2-7-0.8-10.5-1.3c-1.7-0.3-4-3.3-4-5.1c-0.1-5.3-0.2-10.5-0.3-15.8c-0.1-7-0.1-14-0.1-21
		c0-10.3,0-20.6,0-30.9c0-16.6,0.1-33.3,0.1-49.9c0-7.3,0.1-14.6,0.1-21.9c0-8.5-0.2-16.9-0.2-25.4c0-12.5,0.1-25.1,0.1-37.6
		c0-10.3-0.1-20.6-0.1-30.9c0-4.7,0.1-9.4,0.5-14.1c0.2-2,0.5-4.5,1.7-5.8c1.3-1.5,3.8-2.6,5.8-2.7c10.1-0.4,20.2-0.4,30.3-0.5
		c9.6-0.1,19.3,0,28.9,0c24.5,0,48.9,0,73.4,0c20.9,0,41.7,0,62.6,0c22.9,0,45.7,0,68.6,0c21.9,0,43.8,0,65.7,0
		c15.2,0,30.5-0.1,45.7,0.1c4.2,0,8.5,0.8,12.7,1.3c2.2,0.3,4.4,2.9,4.4,5.2c0.1,4.5,0.2,9,0.2,13.5c0.1,4.6,0.2,9.3,0.2,13.9
		c0,4.8-0.2,9.7-0.3,14.5c-0.1,5.9,0,11.9,0,17.8c0,4.7,0,9.4,0,14.1C491.2,388.1,491.2,390.9,491.2,394.1z"/>
	<path class="st3" d="M391.9,203.5c2.9,8.3,5.8,16.5,8.8,25c-4.7,1.7-9.2,3.3-13.7,4.8c-11.3,4-22.6,8-33.9,12
		c-12,4.2-24,8.2-36,12.3c-13.8,4.8-27.5,9.8-41.2,14.7c-8.3,2.9-16.8,5.5-25.1,8.8c-4.3,1.7-8.6,2-13.1,2c-23.7,0-47.4,0-71,0
		c-0.4,0-0.7,0-1.7-0.1C240.9,256.4,316.2,230,391.9,203.5z"/>
	<path class="st3" d="M466.7,282.9c-55.4,0-110.6,0-165.9,0c0-0.1-0.1-0.2-0.1-0.3c3.4-1.2,6.9-2.3,10.3-3.5
		c14.6-5.1,29.2-10.3,43.8-15.4c11.4-4,22.9-7.9,34.3-11.9c11-3.8,22-7.8,32.9-11.7c6.7-2.4,13.5-4.7,20.2-7.1
		c1.3-0.5,2.2-0.4,2.8,1.2c5.9,13.7,12,27.4,18,41.1C464.2,277.8,465.4,280.3,466.7,282.9z"/>
	<path class="st4" d="M493.9,459.6c-6.3,0-12.5-0.1-18.8,0c-5.8,0.1-11.6,0.7-17.3,0.9c-10.8,0.3-16.7-2.9-21.4-14.2
		c-4.1-9.9-2.1-19.3,4.1-27.7c3.3-4.4,8.2-6.7,13.9-6.5c9,0.3,18.1,0.7,27.1,0.9c5.3,0.1,10.6-0.1,15.9-0.1c6.1,0,12.3,0,18.4,0
		c1.9,0,3.9,0.1,5.8-0.1c1.7-0.2,2.3,0.5,2.3,2c0.1,5,0.2,10,0.2,15.1c0,8.6,0,17.2,0,25.9c0,3.6-0.3,3.9-4,3.9
		C511.4,459.6,502.6,459.6,493.9,459.6z M444.6,436.1c-0.2,10.3,7.9,18.3,17.9,18.4c10.2,0.1,17.9-7.9,18.2-17.6
		c0.3-10.2-8-18.5-18-18.6C452.7,418.3,444.6,426.2,444.6,436.1z"/>
	<path class="st5" d="M444.6,436.1c0-9.9,8.1-17.8,18.1-17.8c10,0,18.3,8.4,18,18.6c-0.3,9.7-8,17.7-18.2,17.6
		C452.5,454.4,444.4,446.5,444.6,436.1z M462.6,443c4,0,6.7-2.8,6.6-6.9c0-3.4-3.1-6.3-6.6-6.3c-3.6,0-6.8,3-6.8,6.4
		C455.8,440.1,458.7,443,462.6,443z"/>
	<path class="st6" d="M462.6,443c-3.9,0-6.8-2.9-6.8-6.8c0-3.4,3.2-6.5,6.8-6.4c3.5,0,6.6,3,6.6,6.3
		C469.3,440.2,466.6,443,462.6,443z"/>
</g>
</svg>
