<?xml version="1.0" encoding="utf-8"?>
<!-- Generator: Adobe Illustrator 26.0.1, SVG Export Plug-In . SVG Version: 6.00 Build 0)  -->
<svg version="1.1" id="Layer_1" xmlns="http://www.w3.org/2000/svg" xmlns:xlink="http://www.w3.org/1999/xlink" x="0px" y="0px"
	 viewBox="0 0 1920 1080" style="enable-background:new 0 0 1920 1080;" xml:space="preserve">
<style type="text/css">
	.st0{display:none;}
	.st1{fill:#FEFEFE;}
	.st2{display:none;fill:#010000;}
</style>
<g>
	<path class="st0" d="M0,1080C0,720,0,360,0,0c640,0,1280,0,1920,0c0,360,0,720,0,1080C1280,1080,640,1080,0,1080z M960,247.7
		c-5.4-9.6-10.1-18.2-15-26.7c-6.9-11.9-13.6-23.9-21.2-35.5c-7.5-11.6-15.5-22.9-24-33.7c-8.5-10.9-17.5-21.5-27.2-31.3
		c-10-10-21-18.9-31.8-28.2c-14-12.1-29.5-22.2-45.7-31c-14-7.7-29.1-13.4-44-19.3c-18.9-7.5-38.8-11.5-58.9-13.9
		c-13.2-1.6-26.8-1.6-40.1-1.1c-13.5,0.5-27,1.6-40.3,4c-15.1,2.8-30.2,6.2-44.6,11.3c-19.8,7-39.2,15.5-56.5,28
		c-14.9,10.8-30.1,21.4-43.9,33.5c-18.3,16.1-33.8,34.8-47.4,55c-11,16.3-20.4,33.4-28.5,51.2c-3.3,7.3-6.4,14.7-8.8,22.3
		c-5.3,17.2-11.4,34.3-14.7,51.9c-3.5,18.2-6.8,36.7-5.8,55.6c0.7,12.2,0.2,24.5,0.5,36.7c0.1,4.6,0.4,9.2,1,13.7
		c3.5,24.6,8.3,49,15.5,72.8c7.9,26,16.8,51.7,28.9,76.1c6.2,12.6,11.9,25.5,18.6,37.8c7.5,14,15.7,27.7,24,41.2
		c15.5,24.9,32.8,48.7,51.5,71.2c19,22.7,39.2,44.4,59.6,65.8c12.9,13.6,26.9,26.2,40.7,38.9c12.4,11.5,25.1,22.7,37.8,33.8
		c10.6,9.2,21.3,18.3,32.2,27.2c15.7,12.7,31.5,25.4,47.6,37.5c25.1,18.8,50.4,37.1,75.8,55.4c14.2,10.2,28.7,20.1,43.2,29.8
		c23.9,15.9,48,31.6,72.1,47.2c14.9,9.6,30.1,18.7,45,28.3c3.1,2,5.4,1.8,8.3-0.1c12.2-7.9,24.5-15.6,36.8-23.4
		c18.4-11.7,36.8-23.2,55-35.1c17.6-11.5,35.2-23.1,52.5-35.1c18.4-12.8,36.6-26.1,54.7-39.4c17.7-13,35.6-25.9,52.8-39.5
		c22.2-17.6,44.2-35.4,65.6-54c21.7-18.9,42.7-38.7,63.6-58.5c12.3-11.6,24.5-23.4,35.7-36c16.9-18.9,32.9-38.4,49.2-57.8
		c5.8-7,11.8-13.9,16.8-21.4c15.5-23.3,31.9-46.2,44.6-71.2c8.7-17.2,17.5-34.3,25.5-51.9c6.3-13.9,11.9-28.3,16.8-42.8
		c5.1-14.8,9.3-30,13.2-45.2c2.6-10.1,3.8-20.6,6.1-30.7c4.3-18.4,5.4-37.2,5.7-55.9c0.3-19.8-0.2-39.6-4.7-59.1
		c-2.6-11.2-3.6-22.7-6.6-33.7c-3.1-11.5-7.8-22.5-11.4-33.8c-8.6-26.6-22.3-50.6-37.9-73.4c-10.1-14.7-21.7-28.5-34.4-41.3
		c-13.8-13.9-28.5-26.6-44.7-37.3c-12.3-8.1-25.6-14.7-38.5-22c-16.2-9.3-33.9-15-51.8-19.4c-17.1-4.2-34.7-6.7-52.3-8
		c-26.6-2-53.2,0-79.2,6.2c-25.2,6-49.3,15.3-72.1,27.8c-19.2,10.5-36.9,23.2-53.6,37.3c-15.7,13.3-30.5,27.5-43.3,43.6
		c-9.2,11.6-18.3,23.3-26.5,35.6c-10.1,15.1-19.4,30.7-28.7,46.2C968.6,231.5,964.6,239.3,960,247.7z"/>
	<path class="st1" d="M960,247.7c4.6-8.4,8.6-16.3,13.1-23.8c9.4-15.5,18.6-31.1,28.7-46.2c8.2-12.3,17.3-24,26.5-35.6
		c12.8-16.1,27.6-30.3,43.3-43.6c16.7-14.1,34.4-26.8,53.6-37.3c22.8-12.5,46.9-21.8,72.1-27.8c26-6.2,52.6-8.2,79.2-6.2
		c17.5,1.3,35.2,3.8,52.3,8c17.9,4.4,35.6,10.1,51.8,19.4c12.8,7.4,26.2,13.9,38.5,22c16.2,10.7,31,23.4,44.7,37.3
		c12.7,12.8,24.3,26.5,34.4,41.3c15.7,22.8,29.3,46.9,37.9,73.4c3.7,11.3,8.4,22.3,11.4,33.8c3,11,4.1,22.5,6.6,33.7
		c4.5,19.5,5,39.3,4.7,59.1c-0.3,18.7-1.4,37.5-5.7,55.9c-2.4,10.2-3.5,20.6-6.1,30.7c-3.9,15.2-8.2,30.3-13.2,45.2
		c-4.9,14.5-10.5,28.8-16.8,42.8c-7.9,17.5-16.7,34.7-25.5,51.9c-12.8,25.1-29.1,47.9-44.6,71.2c-5,7.5-11,14.5-16.8,21.4
		c-16.3,19.4-32.3,39-49.2,57.8c-11.3,12.6-23.4,24.4-35.7,36c-20.9,19.8-41.9,39.5-63.6,58.5c-21.3,18.6-43.4,36.4-65.6,54
		c-17.2,13.7-35.1,26.5-52.8,39.5c-18.1,13.3-36.3,26.6-54.7,39.4c-17.3,12-34.9,23.6-52.5,35.1c-18.2,11.9-36.7,23.4-55,35.1
		c-12.3,7.8-24.6,15.5-36.8,23.4c-2.9,1.9-5.2,2.1-8.3,0.1c-14.9-9.6-30.1-18.7-45-28.3c-24.1-15.6-48.2-31.3-72.1-47.2
		c-14.6-9.7-29-19.6-43.2-29.8c-25.4-18.3-50.8-36.7-75.8-55.4c-16.2-12.1-31.9-24.8-47.6-37.5c-10.9-8.8-21.6-17.9-32.2-27.2
		c-12.7-11.1-25.4-22.3-37.8-33.8c-13.8-12.8-27.8-25.3-40.7-38.9c-20.4-21.5-40.6-43.1-59.6-65.8c-18.8-22.5-36.1-46.2-51.5-71.2
		c-8.4-13.5-16.5-27.2-24-41.2c-6.7-12.4-12.3-25.3-18.6-37.8c-12.1-24.4-21-50.1-28.9-76.1c-7.2-23.8-12.1-48.2-15.5-72.8
		c-0.6-4.5-0.9-9.1-1-13.7c-0.2-12.2,0.2-24.5-0.5-36.7c-1-18.9,2.3-37.3,5.8-55.6c3.3-17.6,9.4-34.7,14.7-51.9
		c2.4-7.6,5.5-15.1,8.8-22.3c8.1-17.8,17.5-34.9,28.5-51.2c13.6-20.3,29.2-39,47.4-55c13.8-12.1,29-22.7,43.9-33.5
		c17.2-12.5,36.6-21,56.5-28c14.4-5.1,29.5-8.6,44.6-11.3c13.2-2.4,26.8-3.5,40.3-4c13.4-0.5,26.9-0.5,40.1,1.1
		c20.1,2.4,40,6.4,58.9,13.9c14.9,5.9,30,11.7,44,19.3c16.1,8.8,31.6,18.9,45.7,31c10.7,9.2,21.8,18.2,31.8,28.2
		c9.7,9.8,18.7,20.4,27.2,31.3c8.5,10.8,16.5,22.2,24,33.7c7.5,11.5,14.2,23.6,21.2,35.5C949.9,229.5,954.6,238.2,960,247.7z
		 M960,415.1c-6.2-8.6-11.9-16.4-17.5-24.3c-11.4-15.9-22.6-32-34.1-47.9c-9.7-13.5-19.5-27-29.5-40.4
		c-10.3-13.9-20.5-27.9-31.3-41.4c-12.3-15.3-25-30.1-37.8-45c-18.3-21.3-39.3-39.5-64.1-52.7c-23.3-12.4-48.5-19.5-75-21.3
		c-15.9-1.1-31.9-0.1-47.6,3.1c-23.8,4.8-46.1,13.7-66.5,26.9c-23.2,15.1-42.4,34.2-58.2,56.9c-12.3,17.5-21.5,36.5-28.4,56.6
		c-5.3,15.3-9,30.9-10.8,47c-1.1,10.3-1.8,20.7-2,31c-0.1,7.2,1,14.5,1.9,21.7c1.4,10.7,2.3,21.5,4.8,32c3.6,15.2,7.8,30.4,13,45.2
		c6.4,18.1,13.4,36,21.6,53.4c11.4,24.2,25.3,47,40.8,68.8c11,15.5,22.9,30.5,35,45.2c12.2,14.7,24.9,29.2,38.2,43
		c13.3,13.8,27.3,27,41.5,39.8c18.1,16.4,36.6,32.3,55.3,48c13.7,11.5,28,22.4,42.2,33.2c13.8,10.5,27.7,20.9,41.8,30.9
		c20.9,14.7,41.9,29.2,63,43.5c16.9,11.5,34,22.6,51.1,33.8c16.1,10.6,32.3,21,48.5,31.6c2.8,1.8,5.3,1.9,8.1,0
		c4.7-3.3,9.6-6.4,14.5-9.5c20-13,40.2-25.8,60-39.1c27.3-18.3,54.8-36.6,81.5-55.8c24.3-17.4,48-35.8,71.6-54.1
		c15.6-12.1,31-24.6,46.1-37.3c11.5-9.7,22.5-19.9,33.4-30.2c14.6-13.8,29.7-27.2,43.3-41.9c16.1-17.4,31.2-35.7,45.9-54.3
		c11.6-14.7,22-30.2,32.6-45.6c13.8-20.1,25.6-41.4,35-63.9c6.9-16.5,13.4-33.1,19.1-50.1c5.7-17,10.2-34.5,12-52.4
		c1.3-12.6,3.4-25.2,3.7-37.8c0.2-11.1-1.6-22.3-2.7-33.4c-2-18.9-7.4-36.8-14.3-54.4c-6.4-16.4-14.7-31.8-25-46
		c-10.8-15-23.2-28.4-37.5-40.4c-22.1-18.6-46.9-31.4-74.5-39c-12.5-3.5-25.4-4.8-38.4-5.7c-17.3-1.2-34.2,0.6-50.8,4.2
		c-19.3,4.2-37.7,11.6-54.4,22.2c-11.3,7.2-22.6,15-32.2,24.3c-15,14.5-29.5,29.7-42.5,45.9c-23.9,29.9-46.7,60.7-69.5,91.4
		c-17.1,23-33.4,46.5-50.1,69.7C967.5,405,963.9,409.7,960,415.1z"/>
	<path class="st2" d="M960,415.1c4-5.4,7.5-10.1,10.9-14.9c16.7-23.3,33-46.8,50.1-69.7c22.8-30.7,45.6-61.5,69.5-91.4
		c13-16.3,27.5-31.4,42.5-45.9c9.6-9.3,20.8-17.1,32.2-24.3c16.7-10.6,35.1-18,54.4-22.2c16.7-3.6,33.5-5.4,50.8-4.2
		c13,0.9,25.9,2.2,38.4,5.7c27.6,7.6,52.4,20.4,74.5,39c14.2,12,26.7,25.5,37.5,40.4c10.2,14.2,18.6,29.6,25,46
		c6.9,17.6,12.3,35.6,14.3,54.4c1.2,11.1,2.9,22.3,2.7,33.4c-0.2,12.6-2.4,25.2-3.7,37.8c-1.8,18-6.3,35.4-12,52.4
		c-5.7,16.9-12.3,33.6-19.1,50.1c-9.4,22.5-21.2,43.8-35,63.9c-10.5,15.4-21,31-32.6,45.6c-14.7,18.6-29.8,36.9-45.9,54.3
		c-13.6,14.7-28.7,28.2-43.3,41.9c-10.9,10.3-22,20.5-33.4,30.2c-15.1,12.8-30.4,25.2-46.1,37.3c-23.7,18.3-47.3,36.7-71.6,54.1
		c-26.8,19.2-54.2,37.4-81.5,55.8c-19.8,13.3-40,26.1-60,39.1c-4.8,3.1-9.7,6.2-14.5,9.5c-2.8,1.9-5.3,1.8-8.1,0
		c-16.1-10.6-32.3-21-48.5-31.6c-17.1-11.2-34.2-22.4-51.1-33.8c-21.1-14.3-42.2-28.8-63-43.5c-14.2-10-28-20.4-41.8-30.9
		c-14.2-10.9-28.5-21.7-42.2-33.2c-18.7-15.7-37.2-31.7-55.3-48c-14.2-12.8-28.2-26-41.5-39.8c-13.3-13.8-26-28.2-38.2-43
		c-12.2-14.7-24-29.6-35-45.2c-15.5-21.8-29.4-44.7-40.8-68.8c-8.2-17.3-15.2-35.3-21.6-53.4c-5.2-14.7-9.4-29.9-13-45.2
		c-2.5-10.4-3.5-21.3-4.8-32c-0.9-7.2-2-14.4-1.9-21.7c0.1-10.3,0.8-20.7,2-31c1.8-16,5.5-31.7,10.8-47c7-20.1,16.2-39.1,28.4-56.6
		c15.9-22.7,35.1-41.8,58.2-56.9c20.4-13.2,42.7-22.1,66.5-26.9c15.7-3.2,31.7-4.1,47.6-3.1c26.4,1.8,51.6,8.9,75,21.3
		c24.8,13.2,45.8,31.4,64.1,52.7c12.7,14.9,25.5,29.7,37.8,45c10.8,13.5,21,27.5,31.3,41.4c9.9,13.4,19.8,26.8,29.5,40.4
		c11.4,15.9,22.7,31.9,34.1,47.9C948.1,398.7,953.8,406.5,960,415.1z"/>
</g>
</svg>
