<?xml version="1.0" encoding="UTF-8"?><svg id="Layer_1" xmlns="http://www.w3.org/2000/svg" viewBox="0 0 1920 1080"><defs><style>.cls-1{fill:#fff;}</style></defs><path class="cls-1" d="M1013.18,428.51c29.17,4.47,45.26,13.9,48.77,29.79-3.42-.56-6.6-1.14-9.8-1.59-28.64-4.07-51.31,14.53-52.11,43.33-.54,19.64,.1,39.31-.36,58.96-.54,22.52-11.13,39.4-30.92,49.98-5.1,2.73-11.35,3.41-17.14,4.73-3.8,.86-5.91-.62-5.89-4.97,.05-12.16-.18-24.32-.24-36.48-.13-23.66-.58-47.32-.22-70.97,.27-17.65,3.83-34.61,13.56-49.88,14.53-22.82,35.25-36.77,61.27-42.96,29.98-7.13,58.4-2.57,84.06,14.35,24.58,16.21,39.28,39.44,40.58,69.2,1.19,27.43,.44,54.94,.49,82.41,.02,11.49-.22,22.99-.11,34.48,.04,4.12-1.83,5.18-5.53,4.92-9.93-.71-19.06-3.83-26.52-10.34-13.6-11.85-22.12-26.34-21.98-45.11,.16-20.65,.15-41.32-.21-61.97-.12-6.94-1.42-13.88-2.41-20.78-4.19-29.23-38.18-52.73-68.29-48.58-2.35,.32-4.66,.98-6.99,1.49Z"/><path class="cls-1" d="M860.81,590.05c-14.82-.68-28.79-3.73-39.55-14.8-3.8-3.91-6.64-8.77-9.91-13.19,.4-.45,.8-.89,1.2-1.34,1.74,.3,3.49,.51,5.21,.9,21.12,4.78,42.24-4.02,51.38-21.52,4.68-8.96,5.56-18.81,5.7-28.63,.28-18.83-.14-37.66,.18-56.49,.41-24.28,23.67-48.23,47.79-49.71,4.99-.3,5.99,.62,6.02,6.63,.11,22.5,.13,45,.16,67.49,.02,12.83,0,25.66,0,38.5,.05,48.37-32.42,83.41-76.41,93.08-29.2,6.42-56.8,1.95-81.75-14.29-23.47-15.27-38.25-36.96-40.77-65.41-1.32-14.89-1.1-29.93-1.17-44.91-.12-24.83,.06-49.66,.16-74.49,.03-6.37,1.1-7.22,7.43-6.43,25.36,3.16,46.27,26.41,46.5,52.01,.17,18.66-.31,37.34,.13,55.99,.23,9.95,1.01,20.01,2.87,29.76,5.09,26.69,23.46,40.68,48.14,47.72,8.71,2.49,17.74,1.97,26.68-.87Z"/><path class="cls-1" d="M1184.08,521.18c21.25-17.5,42.57-35.1,63.93-52.64,16.48-13.53,33.01-27.01,49.57-40.44,5.55-4.5,6.44-4.37,10.41,1.67,9.81,14.92,9.36,30.68,3.62,46.86-3.13,8.84-8.05,16.32-15.41,22.27-8.67,7.01-17.16,14.25-26,21.63,21.17,30.73,42.27,61.37,64.09,93.05-2.78,.16-4.32,.32-5.86,.32-16.83,.02-33.66-.09-50.49,.08-3.53,.04-5.73-.99-7.82-3.92-13.33-18.71-26.87-37.28-40.6-56.26-4.38,3.6-8.74,6.9-12.72,10.61-1.1,1.02-1.52,3.23-1.54,4.9-.18,13.33-.3,26.66-.2,39.99,.03,3.42-.93,4.67-4.5,4.64-15-.16-30-.14-44.99,0-3.33,.03-4.68-.78-4.67-4.44,.13-65.83,.13-131.65,.2-197.48,0-6.42,1.17-7.01,7.42-6.61,26.8,1.73,48.79,32.25,47.17,56.46-.71,10.66-4.46,20.92-10.41,29.89-6.69,10.09-14.13,19.68-21.19,29.43Z"/><path class="cls-1" d="M635.54,562.72c-21.22-1.43-39.12-7.83-49.4-29.91,3.65,.64,6.13,1.06,8.62,1.5,23.92,4.27,52.31-8.05,54.3-41.22,.29-4.82,.68-9.64,.78-14.46,.15-7.59-.5-14.52-4.63-21.78-7.5-13.17-5.5-26.85,4.09-38.69,9.9-12.24,23.15-16.11,38.09-11.96,14.62,4.07,23.2,14.29,25.81,29.32,1.76,10.1-1.1,19.02-6.73,27.36-1.36,2.02-2.38,4.74-2.39,7.14-.1,15.81,.44,31.6-3.86,47.11-6.36,22.96-20.07,40.35-39.95,52.85-22.14,13.92-46.61,18.97-72.27,14.83-37.51-6.05-65.32-25.65-79.06-62.11-5.96-15.8-6.05-32.64-5.45-49.33,.15-4.2-.67-7.45-3.38-10.89-9.81-12.47-9.62-30.52-.08-43.23,9.81-13.06,26.85-18.02,41.98-12.23,15.23,5.83,24.64,20.28,23.04,36.45-.49,5-1.9,10.22-4.2,14.66-2.09,4.04-3.06,7.82-3.01,12.26,.17,17.14-.56,34.34,4.23,51.1,7.99,27.99,42.05,48.51,70.25,42.31,1.1-.24,2.16-.71,3.23-1.07Z"/><path class="cls-1" d="M555.81,644.08c.23-26.62,21.73-48.08,48.05-47.97,26.42,.11,48.4,22.42,48.02,48.73-.38,26.36-22.59,48.16-48.52,47.61-26.85-.57-47.78-21.85-47.55-48.37Z"/><path class="cls-1" d="M1349.04,543.81c0-21.49-.04-42.97,.02-64.46,.02-7.01,.96-7.69,8.02-6.75,24.9,3.34,45.57,26.34,45.8,51.5,.26,28.31,.04,56.63,.2,84.94,.02,3.65-.93,4.94-4.75,4.89-14.99-.19-29.98-.18-44.97,0-3.63,.04-4.47-1.31-4.45-4.67,.12-21.82,.06-43.64,.06-65.46h.07Z"/><path class="cls-1" d="M1366.54,442.19c12.55,.59,24.75-1.2,37.32-7.74-.48,3.42-.55,5.78-1.18,7.99-3.61,12.79-15.63,21.07-29.63,20.58-12.76-.45-24-10.1-26.76-22.98-2.72-12.67,3.71-26.07,15.3-31.88,11.98-6,26.38-3.18,35.08,6.7,2.06,2.34,2.42,4.09,.67,6.94-5.53,9-13.72,14.31-23.31,17.88-2.47,.92-5,1.67-7.5,2.5Z"/></svg>