<?xml version="1.0" encoding="UTF-8"?><svg id="Layer_1" xmlns="http://www.w3.org/2000/svg" viewBox="0 0 1920 1080"><path d="M1143.03,611.98c-15.19,.19-26.95-5.85-36.18-16.88-9.35-11.19-14.49-23.75-14.18-38.89,.46-22.47-.18-44.98-.78-67.46-.99-37.44-28.29-59.11-56.96-63.22-7.19-1.03-14.84,.63-22.21,1.59-2.58,.33-4.96,2.26-7.36,3.96,22.66-1.63,42.08,3.2,54.81,24.67-6.13-.45-11.45-1.51-16.65-1.1-28.78,2.25-44.54,18.53-45.38,47.42-.57,19.48,.43,39.02-.33,58.49-.87,22.2-12.11,38.34-32.06,47.99-4.35,2.1-9.6,2.4-14.45,3.4-3.05,.63-4.28-.96-4.2-3.88,.03-1-.07-2-.08-3-.05-35.17-.35-70.34-.03-105.5,.16-17.74,4.44-34.51,14.6-49.55,14.22-21.03,33.88-34.07,58.27-39.96,29.24-7.06,57.1-2.92,82.37,13.41,23.8,15.37,39.27,37.34,40.43,66.03,1.57,39.09,.78,78.28,.97,117.43,0,1.47-.36,2.95-.63,5.05Z"/><path d="M731.31,406.92c15.53-.28,27.5,6.25,36.89,17.85,8.73,10.79,13.6,22.82,13.27,37.2-.47,20.64,.07,41.3,.5,61.95,.13,6.29,1.17,12.57,2.07,18.82,4.78,33.46,43.81,56.89,73.35,50.11,3.97-.91,7.72-2.81,11.38-4.87-22.55,1.37-41.86-3.34-54.15-23.94,6.72,0,12.99,.39,19.19-.07,24.13-1.79,41.08-18.96,41.95-43.26,.69-19.47,.67-38.98,.33-58.45-.29-16.2,5.86-29.51,16.53-41.02,7.87-8.5,17.72-13.32,29.36-14.36,3.42-.31,5.13,.38,5.12,4.45-.05,35.15-.07,70.31,.23,105.46,.42,48.93-32.54,84.51-77.3,92.9-39.85,7.47-74.28-3.35-100.77-34.92-13.23-15.76-18.69-34.86-18.81-55.18-.21-36.82,.24-73.64,.43-110.46,0-.48,.19-.96,.45-2.21Z"/><path d="M1267.95,520.16c21.07,30.58,41.9,60.82,63.34,91.94-5.82,0-10.58,0-15.34,0-12.17,0-24.34-.17-36.5,.1-4.09,.09-6.61-1.08-9.03-4.5-12.31-17.42-24.91-34.62-37.43-51.89-.96-1.32-2.02-2.56-3.41-4.3-5.08,4.19-10.06,8.03-14.66,12.29-1.05,.97-1.1,3.36-1.11,5.1-.08,14.14-.05,28.29-.05,42.78h-50.79v-205.22c5.01,.79,9.61,1,13.89,2.29,21.62,6.53,39.53,31.87,36.81,54.24-1.15,9.46-5.32,18.88-9.68,27.53-7.26,14.42-18.73,25.83-29.85,37.35-1.8,1.86-3.56,3.76-5.34,5.65,.28,.34,.56,.67,.84,1.01,1.49-1.11,3.03-2.16,4.47-3.33,40.35-33.06,80.67-66.14,121.04-99.17,8.74-7.15,9.11-6.99,14.31,3.43,9.15,18.34,3.66,45.96-12.24,60.13-7.71,6.87-15.82,13.28-23.75,19.91-1.76,1.47-3.51,2.97-5.53,4.69Z"/><path d="M643.93,560.38c-23.11,1.5-42.5-3.52-54.71-24.2,7.42,0,14.74,.82,21.82-.15,23.73-3.23,38.33-19.53,39.71-43.47,.31-5.32,.36-10.66,.48-15.99,.16-7.15-.69-13.61-4.63-20.31-8.5-14.47-3.28-33.69,10.41-43.56,13.68-9.86,33.17-8.29,44.87,3.62,12.18,12.4,13.4,31.31,3.32,45.33-1.76,2.45-2.91,5.95-2.92,8.97-.09,15.65,.44,31.29-3.84,46.63-4.52,16.21-13.11,29.97-25.53,40.99-24.41,21.67-53.38,29.49-85.36,24.75-30.82-4.56-55.11-19.98-71.09-47.19-7.93-13.51-10.67-28.56-11.43-44.02-.18-3.66-.32-7.34-.11-11,.48-8.37-.69-15.68-5.79-23.22-9.33-13.79-5.13-32.49,8.03-43.59,12.43-10.48,31.51-10.33,44.19,.35,12.8,10.78,16.29,29.2,7.79,43.41-2.35,3.93-3.25,7.74-3.18,12.19,.27,17.81,.28,35.52,4.73,53.07,5.24,20.66,32.67,41.87,54.79,42.81,6.89,.29,13.89-.75,20.75-1.76,2.69-.4,5.14-2.39,7.69-3.65Z"/><path d="M650.05,644.33c0,25.48-20.95,46.54-46.3,46.56-25.42,.03-47-21.69-46.61-46.88,.4-25.67,21.18-46.2,46.68-46.15,25.5,.06,46.23,20.89,46.23,46.47Z"/><path d="M1351.03,473.89c15.77-.09,27.67,6.27,36.98,17.72,8.76,10.77,13.67,22.77,13.38,37.14-.53,25.97-.13,51.96-.13,77.94,0,1.62-.16,3.24-.26,5.08h-49.96v-137.88Z"/><path d="M1357.58,444.72c14.96,.08,29.79-.84,43.92-7.34-.87,12.84-11.32,22.76-24.76,23.88-13.14,1.1-25.73-7.98-28.66-20.66-2.78-12.03,2.52-24.42,13.01-30.39,10.55-6.01,24.15-4.25,32.82,4.03,2.78,2.66,3.55,4.75,1.03,8.37-6.61,9.48-16.19,13.99-26.66,17.28-3.66,1.15-7.35,2.2-11.03,3.29,.12,.52,.24,1.03,.36,1.55Z"/></svg>