<?xml version="1.0" encoding="utf-8"?>
<!-- Generator: Adobe Illustrator 27.3.1, SVG Export Plug-In . SVG Version: 6.00 Build 0)  -->
<svg version="1.1" id="Layer_1" xmlns="http://www.w3.org/2000/svg" xmlns:xlink="http://www.w3.org/1999/xlink" x="0px" y="0px"
	 viewBox="0 0 1115 1080" style="enable-background:new 0 0 1115 1080;" xml:space="preserve">
<style type="text/css">
	.st0{display:none;}
	.st1{fill:#FFFFFF;}
</style>
<g>
	<path class="st0" d="M0,1094.41C0,723.77,0,353.14,0-17.5c371.67,0,743.33,0,1115,0c0,370.64,0,741.27,0,1111.91
		C743.33,1094.41,371.67,1094.41,0,1094.41z M841.9,428.99c-0.63-7.9-1.26-15.18-1.77-22.48c-2.23-31.54-27.72-51.19-54.55-50.43
		c-4.91,0.14-7.86,1.63-9.26,6.2c-0.48,1.59-1.16,3.19-1.27,4.81c-0.67,10.39-1.67,20.79-1.7,31.18
		c-0.16,55.85-0.09,111.7-0.03,167.54c0,3.84,0.54,7.68,0.84,11.52c0.24,2.98,2.01,4.34,4.88,4.35c17.67,0.03,35.34,0.11,53.01-0.02
		c4.85-0.04,7.38-2.23,8.36-7.01c0.72-3.5,1.05-7.14,1.08-10.72c0.16-17.11,0.13-34.23,0.24-51.34c0.01-2.22,0.48-4.43,0.86-7.71
		c2.88,2.31,5.08,3.8,6.98,5.62c12.09,11.59,24.1,23.26,36.16,34.89c10.56,10.19,21.05,20.46,31.76,30.5
		c4.44,4.16,9.84,6.25,16.18,6.16c10.7-0.15,21.41,0.23,32.11,0.18c10.96-0.05,21.93-0.19,32.89-0.59c6.01-0.22,8.23-4.48,5-9.56
		c-1.91-3-4.4-5.72-6.96-8.21c-25.85-25.17-51.79-50.25-77.65-75.4c-5.05-4.91-9.91-10-14.99-15.15c5.22-2.88,10.16-5.6,15.09-8.35
		c17.66-9.84,35.44-19.48,52.93-29.61c12.42-7.19,22.28-16.89,27.65-30.65c5.93-15.17,3.6-29.75-2.42-44.2
		c-2.38-5.72-5.94-7.88-11.9-6.31c-4.7,1.24-9.42,2.82-13.71,5.06c-24.87,13.01-49.66,26.17-74.38,39.45
		C878.86,408.64,860.53,418.81,841.9,428.99z M160.62,582.16c14.02,0.61,36.41-6.73,56.62-20.43
		c28.37-19.25,43.48-47.06,48.11-80.29c2.32-16.61,1.79-33.6,2.74-50.41c0.14-2.54,0.77-5.43,2.19-7.46
		c11.2-16.07,10.61-37.6-1.86-52.79c-9.74-11.86-22.38-16.47-37.67-15.48c-16.71,1.08-28.67,9.17-35.68,23.78
		c-7.16,14.91-6.18,29.88,2.99,44.02c1.09,1.68,2.28,3.68,2.34,5.56c0.53,16.99,0.23,34-3.8,50.61
		c-5.3,21.85-22.52,35.56-44.45,36.05c-21.19,0.48-39.11-12.61-44.9-34.19c-4.65-17.34-5.34-35.28-4.96-53.21
		c0.02-1.05,0.57-2.29,1.27-3.1c10.11-11.71,11.19-25.52,7.14-39.29c-10.14-34.46-52.21-38.54-72.62-18.6
		c-15.1,14.75-17.36,37.55-5.7,55.92c1.12,1.77,2.23,3.89,2.35,5.9c0.92,15.78,1.18,31.6,2.45,47.35
		c1.84,22.81,9.6,43.7,23.72,61.76C83.39,566.66,113.44,580.8,160.62,582.16z M528.17,502.84c0.6,25.9,0.82,44.3,1.6,62.67
		c0.19,4.47,2.05,8.93,3.57,13.24c0.44,1.25,2.27,2.66,3.63,2.84c20.1,2.73,42.83-9.46,52.16-27.64c4.81-9.38,6.58-19.49,7.02-29.8
		c0.66-15.29,0.76-30.61,1.17-45.91c0.33-12.08,2.24-23.72,8.84-34.28c14.15-22.64,46.99-28.39,67.37-11.84
		c11.9,9.67,17.56,22.45,18.55,37.21c1.07,16.02,0.85,32.13,1.82,48.16c0.54,9.04,1.45,18.25,3.74,26.97
		c6.96,26.5,31.85,37.6,53.2,37.87c4.46,0.06,6.82-1.99,7.84-6.54c1.06-4.76,2.25-9.6,2.38-14.43c0.88-33.29,2.46-66.58-1.34-99.83
		c-3.56-31.14-15.73-57.8-40.02-78.33c-29.18-24.66-62.94-32.39-99.81-24.48c-47.02,10.09-81.09,46.63-87.87,93.91
		C529.28,471.68,529.02,491.06,528.17,502.84z M285.68,421.31c0.21,0.01,0.42,0.02,0.63,0.02c0,5.66-0.14,11.33,0.03,16.98
		c0.52,17.33,0.39,34.69,4.06,51.82c3.84,17.89,10.53,34.52,22.32,48.57c31.84,37.94,72.72,50.96,120.3,39.08
		c38.64-9.65,64.49-34.89,78.11-72.49c6.65-18.37,7.87-37.52,8.16-56.6c0.4-26.22-0.66-52.46-1.39-78.68
		c-0.1-3.71-1.61-7.47-2.97-11.02c-0.47-1.22-2.42-2.56-3.76-2.64c-4.36-0.24-8.83-0.43-13.12,0.26
		c-22.25,3.55-40.09,18.99-44.01,41.69c-1.35,7.82-2.09,15.79-2.54,23.73c-0.98,17.44-0.88,34.97-2.54,52.34
		c-2.26,23.64-23.12,41.79-47.02,40.78c-25.88-1.1-42.33-17.55-45.48-42.22c-2.03-15.87-1.72-32.06-2.24-48.11
		c-0.38-11.71-0.64-23.38-4.58-34.63c-6.46-18.44-26.16-34.96-52.4-34.01c-5.03,0.18-6.63,1.1-8.11,5.89
		c-0.6,1.95-0.99,4.02-1.09,6.05C287.21,385.86,286.46,403.59,285.68,421.31z M150.46,717.29c26.93,1.56,57.1-18.7,59.17-53.96
		c2.09-35.62-24.46-58.27-50.27-60.87c-37.95-3.82-64.46,21.29-66.02,55.83C92.14,684.96,111.6,716.13,150.46,717.29z
		 M1022.8,509.29c-0.24,0-0.49,0-0.73,0c0,15.43-0.01,30.87,0,46.3c0,6.04-0.14,12.1,0.12,18.13c0.27,6.22,2.6,8.67,8.46,8.71
		c16.12,0.12,32.24,0.17,48.36-0.05c8.03-0.11,10.79-3.18,11.14-11.11c0.06-1.28,0.07-2.57,0.07-3.86c0-21.22,0.23-42.45-0.1-63.66
		c-0.15-9.6-0.86-19.27-2.3-28.76c-4.16-27.34-27.15-46.17-54.78-45.48c-3.79,0.1-6.59,1.73-7.68,5.29
		c-1.15,3.78-2.4,7.73-2.45,11.62C1022.68,467.37,1022.8,488.33,1022.8,509.29z M1090.24,386.82c0.03-18.78-14.81-34.03-33.54-33.55
		c-21.49,0.55-34.22,15.33-34.05,33.62c0.19,20.09,13.42,33.9,34.54,33.84C1076.33,420.67,1089.9,407.41,1090.24,386.82z"/>
	<path class="st1" d="M0,1094.41c371.67,0,743.33,0,1115,0c0,1.03,0,2.06,0,3.09c-371.67,0-743.33,0-1115,0
		C0,1096.47,0,1095.44,0,1094.41z"/>
	<path class="st1" d="M841.9,428.99c18.62-10.18,36.96-20.35,55.42-30.27c24.73-13.28,49.51-26.44,74.38-39.45
		c4.29-2.24,9.02-3.82,13.71-5.06c5.96-1.58,9.52,0.59,11.9,6.31c6.02,14.45,8.35,29.03,2.42,44.2
		c-5.37,13.76-15.24,23.46-27.65,30.65c-17.49,10.13-35.27,19.77-52.93,29.61c-4.93,2.75-9.87,5.46-15.09,8.35
		c5.08,5.15,9.94,10.24,14.99,15.15c25.87,25.15,51.8,50.23,77.65,75.4c2.57,2.5,5.05,5.21,6.96,8.21c3.23,5.07,1.02,9.34-5,9.56
		c-10.96,0.4-21.92,0.54-32.89,0.59c-10.7,0.05-21.41-0.33-32.11-0.18c-6.34,0.09-11.74-2-16.18-6.16
		c-10.71-10.04-21.2-20.31-31.76-30.5c-12.05-11.63-24.07-23.3-36.16-34.89c-1.89-1.82-4.1-3.32-6.98-5.62
		c-0.38,3.28-0.85,5.5-0.86,7.71c-0.12,17.11-0.09,34.23-0.24,51.34c-0.03,3.58-0.36,7.22-1.08,10.72
		c-0.99,4.78-3.51,6.97-8.36,7.01c-17.67,0.13-35.34,0.05-53.01,0.02c-2.86,0-4.64-1.36-4.88-4.35c-0.3-3.84-0.84-7.68-0.84-11.52
		c-0.06-55.85-0.13-111.7,0.03-167.54c0.03-10.4,1.03-20.79,1.7-31.18c0.1-1.62,0.78-3.22,1.27-4.81c1.39-4.57,4.35-6.06,9.26-6.2
		c26.83-0.76,52.32,18.89,54.55,50.43C840.65,413.81,841.28,421.1,841.9,428.99z"/>
	<path class="st1" d="M160.62,582.16c-47.19-1.36-77.24-15.5-99.73-44.28c-14.12-18.06-21.88-38.96-23.72-61.76
		c-1.27-15.75-1.53-31.57-2.45-47.35c-0.12-2.01-1.23-4.13-2.35-5.9c-11.65-18.37-9.39-41.18,5.7-55.92
		c20.42-19.94,62.48-15.86,72.62,18.6c4.05,13.77,2.97,27.57-7.14,39.29c-0.7,0.81-1.25,2.05-1.27,3.1
		c-0.39,17.92,0.3,35.86,4.96,53.21c5.79,21.57,23.71,34.67,44.9,34.19c21.93-0.5,39.15-14.2,44.45-36.05
		c4.03-16.61,4.33-33.62,3.8-50.61c-0.06-1.88-1.26-3.88-2.34-5.56c-9.17-14.15-10.14-29.11-2.99-44.02
		c7.01-14.61,18.97-22.7,35.68-23.78c15.29-0.99,27.93,3.62,37.67,15.48c12.47,15.18,13.06,36.72,1.86,52.79
		c-1.41,2.03-2.04,4.92-2.19,7.46c-0.96,16.81-0.43,33.8-2.74,50.41c-4.63,33.23-19.74,61.04-48.11,80.29
		C197.04,575.43,174.65,582.76,160.62,582.16z"/>
	<path class="st1" d="M528.17,502.84c0.85-11.79,1.11-31.16,3.84-50.19c6.78-47.28,40.85-83.82,87.87-93.91
		c36.87-7.91,70.63-0.18,99.81,24.48c24.29,20.53,36.46,47.18,40.02,78.33c3.8,33.24,2.22,66.54,1.34,99.83
		c-0.13,4.83-1.32,9.67-2.38,14.43c-1.01,4.55-3.38,6.6-7.84,6.54c-21.36-0.27-46.25-11.36-53.2-37.87
		c-2.29-8.73-3.19-17.93-3.74-26.97c-0.96-16.03-0.75-32.14-1.82-48.16c-0.98-14.76-6.64-27.54-18.55-37.21
		c-20.38-16.55-53.22-10.8-67.37,11.84c-6.6,10.55-8.51,22.19-8.84,34.28c-0.42,15.3-0.51,30.62-1.17,45.91
		c-0.45,10.31-2.21,20.42-7.02,29.8c-9.33,18.19-32.06,30.37-52.16,27.64c-1.35-0.18-3.19-1.59-3.63-2.84
		c-1.52-4.31-3.38-8.77-3.57-13.24C528.99,547.14,528.77,528.74,528.17,502.84z"/>
	<path class="st1" d="M285.68,421.31c0.78-17.72,1.53-35.45,2.37-53.17c0.1-2.03,0.49-4.11,1.09-6.05c1.48-4.8,3.07-5.71,8.11-5.89
		c26.24-0.94,45.94,15.57,52.4,34.01c3.94,11.25,4.2,22.92,4.58,34.63c0.52,16.05,0.21,32.23,2.24,48.11
		c3.15,24.67,19.6,41.12,45.48,42.22c23.89,1.02,44.76-17.14,47.02-40.78c1.66-17.37,1.56-34.9,2.54-52.34
		c0.45-7.93,1.19-15.9,2.54-23.73c3.91-22.7,21.76-38.14,44.01-41.69c4.29-0.68,8.76-0.5,13.12-0.26c1.34,0.08,3.3,1.42,3.76,2.64
		c1.36,3.55,2.87,7.3,2.97,11.02c0.73,26.22,1.79,52.46,1.39,78.68c-0.29,19.08-1.51,38.23-8.16,56.6
		c-13.62,37.6-39.46,62.84-78.11,72.49c-47.58,11.88-88.46-1.14-120.3-39.08c-11.79-14.05-18.48-30.68-22.32-48.57
		c-3.67-17.12-3.54-34.48-4.06-51.82c-0.17-5.66-0.03-11.32-0.03-16.98C286.1,421.33,285.89,421.32,285.68,421.31z"/>
	<path class="st1" d="M150.46,717.29c-38.87-1.16-58.33-32.33-57.12-58.99c1.56-34.54,28.08-59.65,66.02-55.83
		c25.81,2.6,52.36,25.25,50.27,60.87C207.57,698.6,177.39,718.85,150.46,717.29z"/>
	<path class="st1" d="M1022.8,509.29c0-20.96-0.12-41.91,0.11-62.87c0.04-3.89,1.3-7.84,2.45-11.62c1.08-3.56,3.88-5.2,7.68-5.29
		c27.63-0.69,50.62,18.14,54.78,45.48c1.44,9.49,2.15,19.16,2.3,28.76c0.34,21.22,0.11,42.44,0.1,63.66c0,1.29-0.01,2.57-0.07,3.86
		c-0.35,7.94-3.11,11-11.14,11.11c-16.12,0.22-32.24,0.18-48.36,0.05c-5.85-0.04-8.19-2.5-8.46-8.71
		c-0.26-6.03-0.12-12.09-0.12-18.13c-0.01-15.43,0-30.87,0-46.3C1022.32,509.29,1022.56,509.29,1022.8,509.29z"/>
	<path class="st1" d="M1090.24,386.82c-0.34,20.58-13.91,33.85-33.04,33.9c-21.12,0.06-34.35-13.75-34.54-33.84
		c-0.17-18.29,12.56-33.07,34.05-33.62C1075.43,352.79,1090.27,368.04,1090.24,386.82z"/>
</g>
</svg>
